<?xml version="1.0" encoding="utf-8" standalone="no"?>
<!DOCTYPE svg PUBLIC "-//W3C//DTD SVG 1.1//EN"
  "http://www.w3.org/Graphics/SVG/1.1/DTD/svg11.dtd">
<svg xmlns:xlink="http://www.w3.org/1999/xlink" width="375.84pt" height="502.2pt" viewBox="0 0 375.84 502.2" xmlns="http://www.w3.org/2000/svg" version="1.1">
 <metadata>
  <rdf:RDF xmlns:dc="http://purl.org/dc/elements/1.1/" xmlns:cc="http://creativecommons.org/ns#" xmlns:rdf="http://www.w3.org/1999/02/22-rdf-syntax-ns#">
   <cc:Work>
    <dc:type rdf:resource="http://purl.org/dc/dcmitype/StillImage"/>
    <dc:date>2026-04-11T22:38:05.519165</dc:date>
    <dc:format>image/svg+xml</dc:format>
    <dc:creator>
     <cc:Agent>
      <dc:title>Matplotlib v3.10.5, https://matplotlib.org/</dc:title>
     </cc:Agent>
    </dc:creator>
   </cc:Work>
  </rdf:RDF>
 </metadata>
 <defs>
  <style type="text/css">*{stroke-linejoin: round; stroke-linecap: butt}</style>
 </defs>
 <g id="figure_1">
  <g id="patch_1">
   <path d="M 0 502.2 
L 375.84 502.2 
L 375.84 0 
L 0 0 
z
" style="fill: #ffffff"/>
  </g>
  <g id="axes_1">
   <g id="patch_2">
    <path d="M 180.6912 88.693704 
Q 180.6912 99.630805 180.6912 109.756657 
" clip-path="url(#p680478647a)" style="fill: none; stroke: #28253d; stroke-width: 0.9; stroke-linecap: round"/>
    <path d="M 184.6912 103.756657 
L 180.6912 109.756657 
L 176.6912 103.756657 
z
" clip-path="url(#p680478647a)" style="fill: #28253d; stroke: #28253d; stroke-width: 0.9; stroke-linecap: round"/>
   </g>
   <g id="patch_3">
    <path d="M 166.290538 137.882089 
Q 133.290254 159.382275 100.969685 180.439615 
" clip-path="url(#p680478647a)" style="fill: none; stroke: #28253d; stroke-width: 0.9; stroke-linecap: round"/>
    <path d="M 108.180385 180.515784 
L 100.969685 180.439615 
L 103.813342 173.81288 
z
" clip-path="url(#p680478647a)" style="fill: #28253d; stroke: #28253d; stroke-width: 0.9; stroke-linecap: round"/>
   </g>
   <g id="patch_4">
    <path d="M 194.859942 138.019464 
Q 225.019914 158.283194 254.506508 178.0945 
" clip-path="url(#p680478647a)" style="fill: none; stroke: #28253d; stroke-width: 0.9; stroke-linecap: round"/>
    <path d="M 251.756969 171.428164 
L 254.506508 178.0945 
L 247.295452 178.068561 
z
" clip-path="url(#p680478647a)" style="fill: #28253d; stroke: #28253d; stroke-width: 0.9; stroke-linecap: round"/>
   </g>
   <g id="patch_5">
    <path d="M 79.611557 205.602266 
Q 59.670285 258.225067 40.016486 310.089261 
" clip-path="url(#p680478647a)" style="fill: none; stroke: #28253d; stroke-width: 0.9; stroke-linecap: round"/>
    <path d="M 45.883071 305.89603 
L 40.016486 310.089261 
L 38.40219 303.061171 
z
" clip-path="url(#p680478647a)" style="fill: #28253d; stroke: #28253d; stroke-width: 0.9; stroke-linecap: round"/>
   </g>
   <g id="patch_6">
    <path d="M 88.840105 206.728315 
Q 92.141984 221.586766 95.267877 235.653287 
" clip-path="url(#p680478647a)" style="fill: none; stroke: #28253d; stroke-width: 0.9; stroke-linecap: round"/>
    <path d="M 97.871043 228.928443 
L 95.267877 235.653287 
L 90.061546 230.663887 
z
" clip-path="url(#p680478647a)" style="fill: #28253d; stroke: #28253d; stroke-width: 0.9; stroke-linecap: round"/>
   </g>
   <g id="patch_7">
    <path d="M 87.253369 269.286798 
Q 68.087922 290.118805 49.471736 310.35379 
" clip-path="url(#p680478647a)" style="fill: none; stroke: #28253d; stroke-width: 0.9; stroke-linecap: round"/>
    <path d="M 56.477799 308.64643 
L 49.471736 310.35379 
L 50.590351 303.229978 
z
" clip-path="url(#p680478647a)" style="fill: #28253d; stroke: #28253d; stroke-width: 0.9; stroke-linecap: round"/>
   </g>
   <g id="patch_8">
    <path d="M 98.204482 276.912515 
Q 92.356549 358.198789 86.566828 438.675906 
" clip-path="url(#p680478647a)" style="fill: none; stroke: #28253d; stroke-width: 0.9; stroke-linecap: round"/>
    <path d="M 90.987059 432.978402 
L 86.566828 438.675906 
L 83.007681 432.404346 
z
" clip-path="url(#p680478647a)" style="fill: #28253d; stroke: #28253d; stroke-width: 0.9; stroke-linecap: round"/>
   </g>
   <g id="patch_9">
    <path d="M 255.61702 203.044503 
Q 225.285399 224.371424 195.617403 245.231733 
" clip-path="url(#p680478647a)" style="fill: none; stroke: #28253d; stroke-width: 0.9; stroke-linecap: round"/>
    <path d="M 202.826285 245.052789 
L 195.617403 245.231733 
L 198.224871 238.508556 
z
" clip-path="url(#p680478647a)" style="fill: #28253d; stroke: #28253d; stroke-width: 0.9; stroke-linecap: round"/>
   </g>
   <g id="patch_10">
    <path d="M 278.396536 210.080129 
Q 282.178377 224.262032 285.751189 237.660078 
" clip-path="url(#p680478647a)" style="fill: none; stroke: #28253d; stroke-width: 0.9; stroke-linecap: round"/>
    <path d="M 288.070153 230.832018 
L 285.751189 237.660078 
L 280.340273 232.893319 
z
" clip-path="url(#p680478647a)" style="fill: #28253d; stroke: #28253d; stroke-width: 0.9; stroke-linecap: round"/>
   </g>
   <g id="patch_11">
    <path d="M 172.18707 269.014423 
Q 158.785965 289.95365 145.822166 310.209586 
" clip-path="url(#p680478647a)" style="fill: none; stroke: #28253d; stroke-width: 0.9; stroke-linecap: round"/>
    <path d="M 152.425574 307.312172 
L 145.822166 310.209586 
L 145.687402 302.999743 
z
" clip-path="url(#p680478647a)" style="fill: #28253d; stroke: #28253d; stroke-width: 0.9; stroke-linecap: round"/>
   </g>
   <g id="patch_12">
    <path d="M 187.517236 269.947628 
Q 197.313741 290.357013 206.759193 310.035038 
" clip-path="url(#p680478647a)" style="fill: none; stroke: #28253d; stroke-width: 0.9; stroke-linecap: round"/>
    <path d="M 207.768898 302.894975 
L 206.759193 310.035038 
L 200.556714 306.356824 
z
" clip-path="url(#p680478647a)" style="fill: #28253d; stroke: #28253d; stroke-width: 0.9; stroke-linecap: round"/>
   </g>
   <g id="patch_13">
    <path d="M 215.38944 345.313736 
Q 215.38944 357.347265 215.38944 368.569545 
" clip-path="url(#p680478647a)" style="fill: none; stroke: #28253d; stroke-width: 0.9; stroke-linecap: round"/>
    <path d="M 219.38944 362.569545 
L 215.38944 368.569545 
L 211.38944 362.569545 
z
" clip-path="url(#p680478647a)" style="fill: #28253d; stroke: #28253d; stroke-width: 0.9; stroke-linecap: round"/>
   </g>
   <g id="patch_14">
    <path d="M 196.417574 401.114093 
Q 153.975816 422.334972 112.25966 443.19305 
" clip-path="url(#p680478647a)" style="fill: none; stroke: #28253d; stroke-width: 0.9; stroke-linecap: round"/>
    <path d="M 119.415078 444.087477 
L 112.25966 443.19305 
L 115.837369 436.93206 
z
" clip-path="url(#p680478647a)" style="fill: #28253d; stroke: #28253d; stroke-width: 0.9; stroke-linecap: round"/>
   </g>
   <g id="patch_15">
    <path d="M 215.38944 413.874914 
Q 215.38944 428.491278 215.38944 442.296393 
" clip-path="url(#p680478647a)" style="fill: none; stroke: #28253d; stroke-width: 0.9; stroke-linecap: round"/>
    <path d="M 219.38944 436.296393 
L 215.38944 442.296393 
L 211.38944 436.296393 
z
" clip-path="url(#p680478647a)" style="fill: #28253d; stroke: #28253d; stroke-width: 0.9; stroke-linecap: round"/>
   </g>
   <g id="patch_16">
    <path d="M 294.716019 273.006132 
Q 298.951573 290.654274 302.997804 307.513568 
" clip-path="url(#p680478647a)" style="fill: none; stroke: #28253d; stroke-width: 0.9; stroke-linecap: round"/>
    <path d="M 305.487115 300.745753 
L 302.997804 307.513568 
L 297.708017 302.612736 
z
" clip-path="url(#p680478647a)" style="fill: #28253d; stroke: #28253d; stroke-width: 0.9; stroke-linecap: round"/>
   </g>
   <g id="patch_17">
    <path d="M 313.960766 347.006019 
Q 318.327637 360.730471 322.448534 373.681862 
" clip-path="url(#p680478647a)" style="fill: none; stroke: #28253d; stroke-width: 0.9; stroke-linecap: round"/>
    <path d="M 324.441016 366.751493 
L 322.448534 373.681862 
L 316.817609 369.177122 
z
" clip-path="url(#p680478647a)" style="fill: #28253d; stroke: #28253d; stroke-width: 0.9; stroke-linecap: round"/>
   </g>
   <g id="patch_18">
    <path d="M 301.721353 346.932456 
Q 280.34796 404.378617 233.819572 442.769515 
" clip-path="url(#p680478647a)" style="fill: none; stroke: #28253d; stroke-width: 0.9; stroke-linecap: round"/>
    <path d="M 240.993297 442.036254 
L 233.819572 442.769515 
L 235.90184 435.865592 
z
" clip-path="url(#p680478647a)" style="fill: #28253d; stroke: #28253d; stroke-width: 0.9; stroke-linecap: round"/>
   </g>
   <g id="patch_19">
    <path d="M 151.631424 61.272 
L 209.750976 61.272 
Q 216.11232 61.272 216.11232 67.633344 
L 216.11232 82.380096 
Q 216.11232 88.74144 209.750976 88.74144 
L 151.631424 88.74144 
Q 145.27008 88.74144 145.27008 82.380096 
L 145.27008 67.633344 
Q 145.27008 61.272 151.631424 61.272 
z
" clip-path="url(#p680478647a)" style="fill: #dce6f5; stroke: #28253d; stroke-width: 1.1; stroke-linejoin: miter"/>
   </g>
   <g id="patch_20">
    <path d="M 180.6912 110.42784 
L 211.05216 128.49984 
L 180.6912 146.57184 
L 150.33024 128.49984 
z
" clip-path="url(#p680478647a)" style="fill: #fff2c6; stroke: #28253d; stroke-width: 1.1; stroke-linejoin: miter"/>
   </g>
   <g id="patch_21">
    <path d="M 85.27104 172.59552 
L 118.52352 190.66752 
L 85.27104 208.73952 
L 52.01856 190.66752 
z
" clip-path="url(#p680478647a)" style="fill: #fff2c6; stroke: #28253d; stroke-width: 1.1; stroke-linejoin: miter"/>
   </g>
   <g id="patch_22">
    <path d="M 273.21984 168.25824 
L 312.97824 190.66752 
L 273.21984 213.0768 
L 233.46144 190.66752 
z
" clip-path="url(#p680478647a)" style="fill: #fff2c6; stroke: #28253d; stroke-width: 1.1; stroke-linejoin: miter"/>
   </g>
   <g id="patch_23">
    <path d="M 99.72864 233.31744 
L 131.53536 255.72672 
L 99.72864 278.136 
L 67.92192 255.72672 
z
" clip-path="url(#p680478647a)" style="fill: #fff2c6; stroke: #28253d; stroke-width: 1.1; stroke-linejoin: miter"/>
   </g>
   <g id="patch_24">
    <path d="M 180.6912 237.65472 
L 213.2208 255.72672 
L 180.6912 273.79872 
L 148.1616 255.72672 
z
" clip-path="url(#p680478647a)" style="fill: #fff2c6; stroke: #28253d; stroke-width: 1.1; stroke-linejoin: miter"/>
   </g>
   <g id="patch_25">
    <path d="M 261.509184 238.3776 
L 319.628736 238.3776 
Q 325.99008 238.3776 325.99008 244.738944 
L 325.99008 266.714496 
Q 325.99008 273.07584 319.628736 273.07584 
L 261.509184 273.07584 
Q 255.14784 273.07584 255.14784 266.714496 
L 255.14784 244.738944 
Q 255.14784 238.3776 261.509184 238.3776 
z
" clip-path="url(#p680478647a)" style="fill: #e8e0f4; stroke: #28253d; stroke-width: 1.1; stroke-linejoin: miter"/>
   </g>
   <g id="patch_26">
    <path d="M 14.284224 310.6656 
L 52.163136 310.6656 
Q 58.52448 310.6656 58.52448 317.026944 
L 58.52448 339.002496 
Q 58.52448 345.36384 52.163136 345.36384 
L 14.284224 345.36384 
Q 7.92288 345.36384 7.92288 339.002496 
L 7.92288 317.026944 
Q 7.92288 310.6656 14.284224 310.6656 
z
" clip-path="url(#p680478647a)" style="fill: #d6edc8; stroke: #28253d; stroke-width: 1.3; stroke-linejoin: miter"/>
   </g>
   <g id="patch_27">
    <path d="M 111.873024 310.6656 
L 156.980736 310.6656 
Q 163.34208 310.6656 163.34208 317.026944 
L 163.34208 339.002496 
Q 163.34208 345.36384 156.980736 345.36384 
L 111.873024 345.36384 
Q 105.51168 345.36384 105.51168 339.002496 
L 105.51168 317.026944 
Q 105.51168 310.6656 111.873024 310.6656 
z
" clip-path="url(#p680478647a)" style="fill: #d6edc8; stroke: #28253d; stroke-width: 1.3; stroke-linejoin: miter"/>
   </g>
   <g id="patch_28">
    <path d="M 184.883904 310.6656 
L 245.894976 310.6656 
Q 252.25632 310.6656 252.25632 317.026944 
L 252.25632 339.002496 
Q 252.25632 345.36384 245.894976 345.36384 
L 184.883904 345.36384 
Q 178.52256 345.36384 178.52256 339.002496 
L 178.52256 317.026944 
Q 178.52256 310.6656 184.883904 310.6656 
z
" clip-path="url(#p680478647a)" style="fill: #e8e0f4; stroke: #28253d; stroke-width: 1.1; stroke-linejoin: miter"/>
   </g>
   <g id="patch_29">
    <path d="M 307.91808 305.60544 
L 348.39936 328.01472 
L 307.91808 350.424 
L 267.4368 328.01472 
z
" clip-path="url(#p680478647a)" style="fill: #fff2c6; stroke: #28253d; stroke-width: 1.1; stroke-linejoin: miter"/>
   </g>
   <g id="patch_30">
    <path d="M 215.38944 369.21888 
L 248.64192 391.62816 
L 215.38944 414.03744 
L 182.13696 391.62816 
z
" clip-path="url(#p680478647a)" style="fill: #fff2c6; stroke: #28253d; stroke-width: 1.1; stroke-linejoin: miter"/>
   </g>
   <g id="patch_31">
    <path d="M 306.327744 374.27904 
L 349.989696 374.27904 
Q 356.35104 374.27904 356.35104 380.640384 
L 356.35104 402.615936 
Q 356.35104 408.97728 349.989696 408.97728 
L 306.327744 408.97728 
Q 299.9664 408.97728 299.9664 402.615936 
L 299.9664 380.640384 
Q 299.9664 374.27904 306.327744 374.27904 
z
" clip-path="url(#p680478647a)" style="fill: #d6edc8; stroke: #28253d; stroke-width: 1.3; stroke-linejoin: miter"/>
   </g>
   <g id="patch_32">
    <path d="M 64.885824 439.33824 
L 105.656256 439.33824 
Q 112.0176 439.33824 112.0176 445.699584 
L 112.0176 467.675136 
Q 112.0176 474.03648 105.656256 474.03648 
L 64.885824 474.03648 
Q 58.52448 474.03648 58.52448 467.675136 
L 58.52448 445.699584 
Q 58.52448 439.33824 64.885824 439.33824 
z
" clip-path="url(#p680478647a)" style="fill: #d6edc8; stroke: #28253d; stroke-width: 1.3; stroke-linejoin: miter"/>
   </g>
   <g id="patch_33">
    <path d="M 186.329664 442.95264 
L 244.449216 442.95264 
Q 250.81056 442.95264 250.81056 449.313984 
L 250.81056 464.060736 
Q 250.81056 470.42208 244.449216 470.42208 
L 186.329664 470.42208 
Q 179.96832 470.42208 179.96832 464.060736 
L 179.96832 449.313984 
Q 179.96832 442.95264 186.329664 442.95264 
z
" clip-path="url(#p680478647a)" style="fill: #d6edc8; stroke: #28253d; stroke-width: 1.3; stroke-linejoin: miter"/>
   </g>
   <g id="text_1">
    <!-- PTQ Accuracy Gap -->
    <g style="fill: #28253d" transform="translate(146.45745 77.07922) scale(0.08 -0.08)">
     <defs>
      <path id="ArialMT-50" d="M 494 0 
L 494 4581 
L 2222 4581 
Q 2678 4581 2919 4538 
Q 3256 4481 3484 4323 
Q 3713 4166 3852 3881 
Q 3991 3597 3991 3256 
Q 3991 2672 3619 2267 
Q 3247 1863 2275 1863 
L 1100 1863 
L 1100 0 
L 494 0 
z
M 1100 2403 
L 2284 2403 
Q 2872 2403 3119 2622 
Q 3366 2841 3366 3238 
Q 3366 3525 3220 3729 
Q 3075 3934 2838 4000 
Q 2684 4041 2272 4041 
L 1100 4041 
L 1100 2403 
z
" transform="scale(0.015625)"/>
      <path id="ArialMT-54" d="M 1659 0 
L 1659 4041 
L 150 4041 
L 150 4581 
L 3781 4581 
L 3781 4041 
L 2266 4041 
L 2266 0 
L 1659 0 
z
" transform="scale(0.015625)"/>
      <path id="ArialMT-51" d="M 3966 491 
Q 4388 200 4744 66 
L 4566 -356 
Q 4072 -178 3581 206 
Q 3072 -78 2456 -78 
Q 1834 -78 1328 222 
Q 822 522 548 1065 
Q 275 1609 275 2291 
Q 275 2969 550 3525 
Q 825 4081 1333 4372 
Q 1841 4663 2469 4663 
Q 3103 4663 3612 4361 
Q 4122 4059 4389 3517 
Q 4656 2975 4656 2294 
Q 4656 1728 4484 1276 
Q 4313 825 3966 491 
z
M 2631 1266 
Q 3156 1119 3497 828 
Q 4031 1316 4031 2294 
Q 4031 2850 3842 3265 
Q 3653 3681 3289 3911 
Q 2925 4141 2472 4141 
Q 1794 4141 1347 3677 
Q 900 3213 900 2291 
Q 900 1397 1342 919 
Q 1784 441 2472 441 
Q 2797 441 3084 563 
Q 2800 747 2484 825 
L 2631 1266 
z
" transform="scale(0.015625)"/>
      <path id="ArialMT-20" transform="scale(0.015625)"/>
      <path id="ArialMT-41" d="M -9 0 
L 1750 4581 
L 2403 4581 
L 4278 0 
L 3588 0 
L 3053 1388 
L 1138 1388 
L 634 0 
L -9 0 
z
M 1313 1881 
L 2866 1881 
L 2388 3150 
Q 2169 3728 2063 4100 
Q 1975 3659 1816 3225 
L 1313 1881 
z
" transform="scale(0.015625)"/>
      <path id="ArialMT-63" d="M 2588 1216 
L 3141 1144 
Q 3050 572 2676 248 
Q 2303 -75 1759 -75 
Q 1078 -75 664 370 
Q 250 816 250 1647 
Q 250 2184 428 2587 
Q 606 2991 970 3192 
Q 1334 3394 1763 3394 
Q 2303 3394 2647 3120 
Q 2991 2847 3088 2344 
L 2541 2259 
Q 2463 2594 2264 2762 
Q 2066 2931 1784 2931 
Q 1359 2931 1093 2626 
Q 828 2322 828 1663 
Q 828 994 1084 691 
Q 1341 388 1753 388 
Q 2084 388 2306 591 
Q 2528 794 2588 1216 
z
" transform="scale(0.015625)"/>
      <path id="ArialMT-75" d="M 2597 0 
L 2597 488 
Q 2209 -75 1544 -75 
Q 1250 -75 995 37 
Q 741 150 617 320 
Q 494 491 444 738 
Q 409 903 409 1263 
L 409 3319 
L 972 3319 
L 972 1478 
Q 972 1038 1006 884 
Q 1059 663 1231 536 
Q 1403 409 1656 409 
Q 1909 409 2131 539 
Q 2353 669 2445 892 
Q 2538 1116 2538 1541 
L 2538 3319 
L 3100 3319 
L 3100 0 
L 2597 0 
z
" transform="scale(0.015625)"/>
      <path id="ArialMT-72" d="M 416 0 
L 416 3319 
L 922 3319 
L 922 2816 
Q 1116 3169 1280 3281 
Q 1444 3394 1641 3394 
Q 1925 3394 2219 3213 
L 2025 2691 
Q 1819 2813 1613 2813 
Q 1428 2813 1281 2702 
Q 1134 2591 1072 2394 
Q 978 2094 978 1738 
L 978 0 
L 416 0 
z
" transform="scale(0.015625)"/>
      <path id="ArialMT-61" d="M 2588 409 
Q 2275 144 1986 34 
Q 1697 -75 1366 -75 
Q 819 -75 525 192 
Q 231 459 231 875 
Q 231 1119 342 1320 
Q 453 1522 633 1644 
Q 813 1766 1038 1828 
Q 1203 1872 1538 1913 
Q 2219 1994 2541 2106 
Q 2544 2222 2544 2253 
Q 2544 2597 2384 2738 
Q 2169 2928 1744 2928 
Q 1347 2928 1158 2789 
Q 969 2650 878 2297 
L 328 2372 
Q 403 2725 575 2942 
Q 747 3159 1072 3276 
Q 1397 3394 1825 3394 
Q 2250 3394 2515 3294 
Q 2781 3194 2906 3042 
Q 3031 2891 3081 2659 
Q 3109 2516 3109 2141 
L 3109 1391 
Q 3109 606 3145 398 
Q 3181 191 3288 0 
L 2700 0 
Q 2613 175 2588 409 
z
M 2541 1666 
Q 2234 1541 1622 1453 
Q 1275 1403 1131 1340 
Q 988 1278 909 1158 
Q 831 1038 831 891 
Q 831 666 1001 516 
Q 1172 366 1500 366 
Q 1825 366 2078 508 
Q 2331 650 2450 897 
Q 2541 1088 2541 1459 
L 2541 1666 
z
" transform="scale(0.015625)"/>
      <path id="ArialMT-79" d="M 397 -1278 
L 334 -750 
Q 519 -800 656 -800 
Q 844 -800 956 -737 
Q 1069 -675 1141 -563 
Q 1194 -478 1313 -144 
Q 1328 -97 1363 -6 
L 103 3319 
L 709 3319 
L 1400 1397 
Q 1534 1031 1641 628 
Q 1738 1016 1872 1384 
L 2581 3319 
L 3144 3319 
L 1881 -56 
Q 1678 -603 1566 -809 
Q 1416 -1088 1222 -1217 
Q 1028 -1347 759 -1347 
Q 597 -1347 397 -1278 
z
" transform="scale(0.015625)"/>
      <path id="ArialMT-47" d="M 2638 1797 
L 2638 2334 
L 4578 2338 
L 4578 638 
Q 4131 281 3656 101 
Q 3181 -78 2681 -78 
Q 2006 -78 1454 211 
Q 903 500 622 1047 
Q 341 1594 341 2269 
Q 341 2938 620 3517 
Q 900 4097 1425 4378 
Q 1950 4659 2634 4659 
Q 3131 4659 3532 4498 
Q 3934 4338 4162 4050 
Q 4391 3763 4509 3300 
L 3963 3150 
Q 3859 3500 3706 3700 
Q 3553 3900 3268 4020 
Q 2984 4141 2638 4141 
Q 2222 4141 1919 4014 
Q 1616 3888 1430 3681 
Q 1244 3475 1141 3228 
Q 966 2803 966 2306 
Q 966 1694 1177 1281 
Q 1388 869 1791 669 
Q 2194 469 2647 469 
Q 3041 469 3416 620 
Q 3791 772 3984 944 
L 3984 1797 
L 2638 1797 
z
" transform="scale(0.015625)"/>
      <path id="ArialMT-70" d="M 422 -1272 
L 422 3319 
L 934 3319 
L 934 2888 
Q 1116 3141 1344 3267 
Q 1572 3394 1897 3394 
Q 2322 3394 2647 3175 
Q 2972 2956 3137 2557 
Q 3303 2159 3303 1684 
Q 3303 1175 3120 767 
Q 2938 359 2589 142 
Q 2241 -75 1856 -75 
Q 1575 -75 1351 44 
Q 1128 163 984 344 
L 984 -1272 
L 422 -1272 
z
M 931 1641 
Q 931 1000 1190 694 
Q 1450 388 1819 388 
Q 2194 388 2461 705 
Q 2728 1022 2728 1688 
Q 2728 2322 2467 2637 
Q 2206 2953 1844 2953 
Q 1484 2953 1207 2617 
Q 931 2281 931 1641 
z
" transform="scale(0.015625)"/>
     </defs>
     <use xlink:href="#ArialMT-50"/>
     <use xlink:href="#ArialMT-54" transform="translate(66.699219 0)"/>
     <use xlink:href="#ArialMT-51" transform="translate(127.783203 0)"/>
     <use xlink:href="#ArialMT-20" transform="translate(205.566406 0)"/>
     <use xlink:href="#ArialMT-41" transform="translate(227.849609 0)"/>
     <use xlink:href="#ArialMT-63" transform="translate(294.548828 0)"/>
     <use xlink:href="#ArialMT-63" transform="translate(344.548828 0)"/>
     <use xlink:href="#ArialMT-75" transform="translate(394.548828 0)"/>
     <use xlink:href="#ArialMT-72" transform="translate(450.164062 0)"/>
     <use xlink:href="#ArialMT-61" transform="translate(483.464844 0)"/>
     <use xlink:href="#ArialMT-63" transform="translate(539.080078 0)"/>
     <use xlink:href="#ArialMT-79" transform="translate(589.080078 0)"/>
     <use xlink:href="#ArialMT-20" transform="translate(639.080078 0)"/>
     <use xlink:href="#ArialMT-47" transform="translate(666.863281 0)"/>
     <use xlink:href="#ArialMT-61" transform="translate(744.646484 0)"/>
     <use xlink:href="#ArialMT-70" transform="translate(800.261719 0)"/>
    </g>
   </g>
   <g id="text_2">
    <!-- Gap &gt; 2%? -->
    <g style="fill: #28253d" transform="translate(160.566825 130.616715) scale(0.08 -0.08)">
     <defs>
      <path id="ArialMT-3e" d="M 3384 2003 
L 350 706 
L 350 1266 
L 2753 2263 
L 350 3250 
L 350 3809 
L 3384 2528 
L 3384 2003 
z
" transform="scale(0.015625)"/>
      <path id="ArialMT-32" d="M 3222 541 
L 3222 0 
L 194 0 
Q 188 203 259 391 
Q 375 700 629 1000 
Q 884 1300 1366 1694 
Q 2113 2306 2375 2664 
Q 2638 3022 2638 3341 
Q 2638 3675 2398 3904 
Q 2159 4134 1775 4134 
Q 1369 4134 1125 3890 
Q 881 3647 878 3216 
L 300 3275 
Q 359 3922 746 4261 
Q 1134 4600 1788 4600 
Q 2447 4600 2831 4234 
Q 3216 3869 3216 3328 
Q 3216 3053 3103 2787 
Q 2991 2522 2730 2228 
Q 2469 1934 1863 1422 
Q 1356 997 1212 845 
Q 1069 694 975 541 
L 3222 541 
z
" transform="scale(0.015625)"/>
      <path id="ArialMT-25" d="M 372 3481 
Q 372 3972 619 4315 
Q 866 4659 1334 4659 
Q 1766 4659 2048 4351 
Q 2331 4044 2331 3447 
Q 2331 2866 2045 2552 
Q 1759 2238 1341 2238 
Q 925 2238 648 2547 
Q 372 2856 372 3481 
z
M 1350 4272 
Q 1141 4272 1002 4090 
Q 863 3909 863 3425 
Q 863 2984 1003 2804 
Q 1144 2625 1350 2625 
Q 1563 2625 1702 2806 
Q 1841 2988 1841 3469 
Q 1841 3913 1700 4092 
Q 1559 4272 1350 4272 
z
M 1353 -169 
L 3859 4659 
L 4316 4659 
L 1819 -169 
L 1353 -169 
z
M 3334 1075 
Q 3334 1569 3581 1911 
Q 3828 2253 4300 2253 
Q 4731 2253 5014 1945 
Q 5297 1638 5297 1041 
Q 5297 459 5011 145 
Q 4725 -169 4303 -169 
Q 3888 -169 3611 142 
Q 3334 453 3334 1075 
z
M 4316 1866 
Q 4103 1866 3964 1684 
Q 3825 1503 3825 1019 
Q 3825 581 3965 400 
Q 4106 219 4313 219 
Q 4528 219 4667 400 
Q 4806 581 4806 1063 
Q 4806 1506 4665 1686 
Q 4525 1866 4316 1866 
z
" transform="scale(0.015625)"/>
      <path id="ArialMT-3f" d="M 1475 1128 
Q 1472 1241 1472 1297 
Q 1472 1628 1566 1869 
Q 1634 2050 1788 2234 
Q 1900 2369 2192 2626 
Q 2484 2884 2571 3037 
Q 2659 3191 2659 3372 
Q 2659 3700 2403 3948 
Q 2147 4197 1775 4197 
Q 1416 4197 1175 3972 
Q 934 3747 859 3269 
L 281 3338 
Q 359 3978 745 4318 
Q 1131 4659 1766 4659 
Q 2438 4659 2838 4293 
Q 3238 3928 3238 3409 
Q 3238 3109 3097 2856 
Q 2956 2603 2547 2241 
Q 2272 1997 2187 1881 
Q 2103 1766 2062 1616 
Q 2022 1466 2016 1128 
L 1475 1128 
z
M 1441 0 
L 1441 641 
L 2081 641 
L 2081 0 
L 1441 0 
z
" transform="scale(0.015625)"/>
     </defs>
     <use xlink:href="#ArialMT-47"/>
     <use xlink:href="#ArialMT-61" transform="translate(77.783203 0)"/>
     <use xlink:href="#ArialMT-70" transform="translate(133.398438 0)"/>
     <use xlink:href="#ArialMT-20" transform="translate(189.013672 0)"/>
     <use xlink:href="#ArialMT-3e" transform="translate(216.796875 0)"/>
     <use xlink:href="#ArialMT-20" transform="translate(275.195312 0)"/>
     <use xlink:href="#ArialMT-32" transform="translate(302.978516 0)"/>
     <use xlink:href="#ArialMT-25" transform="translate(358.59375 0)"/>
     <use xlink:href="#ArialMT-3f" transform="translate(447.509766 0)"/>
    </g>
   </g>
   <g id="text_3">
    <!-- Gap &gt; 0.5%? -->
    <g style="fill: #28253d" transform="translate(61.81104 192.784395) scale(0.08 -0.08)">
     <defs>
      <path id="ArialMT-30" d="M 266 2259 
Q 266 3072 433 3567 
Q 600 4063 929 4331 
Q 1259 4600 1759 4600 
Q 2128 4600 2406 4451 
Q 2684 4303 2865 4023 
Q 3047 3744 3150 3342 
Q 3253 2941 3253 2259 
Q 3253 1453 3087 958 
Q 2922 463 2592 192 
Q 2263 -78 1759 -78 
Q 1097 -78 719 397 
Q 266 969 266 2259 
z
M 844 2259 
Q 844 1131 1108 757 
Q 1372 384 1759 384 
Q 2147 384 2411 759 
Q 2675 1134 2675 2259 
Q 2675 3391 2411 3762 
Q 2147 4134 1753 4134 
Q 1366 4134 1134 3806 
Q 844 3388 844 2259 
z
" transform="scale(0.015625)"/>
      <path id="ArialMT-2e" d="M 581 0 
L 581 641 
L 1222 641 
L 1222 0 
L 581 0 
z
" transform="scale(0.015625)"/>
      <path id="ArialMT-35" d="M 266 1200 
L 856 1250 
Q 922 819 1161 601 
Q 1400 384 1738 384 
Q 2144 384 2425 690 
Q 2706 997 2706 1503 
Q 2706 1984 2436 2262 
Q 2166 2541 1728 2541 
Q 1456 2541 1237 2417 
Q 1019 2294 894 2097 
L 366 2166 
L 809 4519 
L 3088 4519 
L 3088 3981 
L 1259 3981 
L 1013 2750 
Q 1425 3038 1878 3038 
Q 2478 3038 2890 2622 
Q 3303 2206 3303 1553 
Q 3303 931 2941 478 
Q 2500 -78 1738 -78 
Q 1113 -78 717 272 
Q 322 622 266 1200 
z
" transform="scale(0.015625)"/>
     </defs>
     <use xlink:href="#ArialMT-47"/>
     <use xlink:href="#ArialMT-61" transform="translate(77.783203 0)"/>
     <use xlink:href="#ArialMT-70" transform="translate(133.398438 0)"/>
     <use xlink:href="#ArialMT-20" transform="translate(189.013672 0)"/>
     <use xlink:href="#ArialMT-3e" transform="translate(216.796875 0)"/>
     <use xlink:href="#ArialMT-20" transform="translate(275.195312 0)"/>
     <use xlink:href="#ArialMT-30" transform="translate(302.978516 0)"/>
     <use xlink:href="#ArialMT-2e" transform="translate(358.59375 0)"/>
     <use xlink:href="#ArialMT-35" transform="translate(386.376953 0)"/>
     <use xlink:href="#ArialMT-25" transform="translate(441.992188 0)"/>
     <use xlink:href="#ArialMT-3f" transform="translate(530.908203 0)"/>
    </g>
   </g>
   <g id="text_4">
    <!-- Uniform or -->
    <g style="fill: #28253d" transform="translate(254.55109 188.934364) scale(0.08 -0.08)">
     <defs>
      <path id="ArialMT-55" d="M 3500 4581 
L 4106 4581 
L 4106 1934 
Q 4106 1244 3950 837 
Q 3794 431 3386 176 
Q 2978 -78 2316 -78 
Q 1672 -78 1262 144 
Q 853 366 678 786 
Q 503 1206 503 1934 
L 503 4581 
L 1109 4581 
L 1109 1938 
Q 1109 1341 1220 1058 
Q 1331 775 1601 622 
Q 1872 469 2263 469 
Q 2931 469 3215 772 
Q 3500 1075 3500 1938 
L 3500 4581 
z
" transform="scale(0.015625)"/>
      <path id="ArialMT-6e" d="M 422 0 
L 422 3319 
L 928 3319 
L 928 2847 
Q 1294 3394 1984 3394 
Q 2284 3394 2536 3286 
Q 2788 3178 2913 3003 
Q 3038 2828 3088 2588 
Q 3119 2431 3119 2041 
L 3119 0 
L 2556 0 
L 2556 2019 
Q 2556 2363 2490 2533 
Q 2425 2703 2258 2804 
Q 2091 2906 1866 2906 
Q 1506 2906 1245 2678 
Q 984 2450 984 1813 
L 984 0 
L 422 0 
z
" transform="scale(0.015625)"/>
      <path id="ArialMT-69" d="M 425 3934 
L 425 4581 
L 988 4581 
L 988 3934 
L 425 3934 
z
M 425 0 
L 425 3319 
L 988 3319 
L 988 0 
L 425 0 
z
" transform="scale(0.015625)"/>
      <path id="ArialMT-66" d="M 556 0 
L 556 2881 
L 59 2881 
L 59 3319 
L 556 3319 
L 556 3672 
Q 556 4006 616 4169 
Q 697 4388 901 4523 
Q 1106 4659 1475 4659 
Q 1713 4659 2000 4603 
L 1916 4113 
Q 1741 4144 1584 4144 
Q 1328 4144 1222 4034 
Q 1116 3925 1116 3625 
L 1116 3319 
L 1763 3319 
L 1763 2881 
L 1116 2881 
L 1116 0 
L 556 0 
z
" transform="scale(0.015625)"/>
      <path id="ArialMT-6f" d="M 213 1659 
Q 213 2581 725 3025 
Q 1153 3394 1769 3394 
Q 2453 3394 2887 2945 
Q 3322 2497 3322 1706 
Q 3322 1066 3130 698 
Q 2938 331 2570 128 
Q 2203 -75 1769 -75 
Q 1072 -75 642 372 
Q 213 819 213 1659 
z
M 791 1659 
Q 791 1022 1069 705 
Q 1347 388 1769 388 
Q 2188 388 2466 706 
Q 2744 1025 2744 1678 
Q 2744 2294 2464 2611 
Q 2184 2928 1769 2928 
Q 1347 2928 1069 2612 
Q 791 2297 791 1659 
z
" transform="scale(0.015625)"/>
      <path id="ArialMT-6d" d="M 422 0 
L 422 3319 
L 925 3319 
L 925 2853 
Q 1081 3097 1340 3245 
Q 1600 3394 1931 3394 
Q 2300 3394 2536 3241 
Q 2772 3088 2869 2813 
Q 3263 3394 3894 3394 
Q 4388 3394 4653 3120 
Q 4919 2847 4919 2278 
L 4919 0 
L 4359 0 
L 4359 2091 
Q 4359 2428 4304 2576 
Q 4250 2725 4106 2815 
Q 3963 2906 3769 2906 
Q 3419 2906 3187 2673 
Q 2956 2441 2956 1928 
L 2956 0 
L 2394 0 
L 2394 2156 
Q 2394 2531 2256 2718 
Q 2119 2906 1806 2906 
Q 1569 2906 1367 2781 
Q 1166 2656 1075 2415 
Q 984 2175 984 1722 
L 984 0 
L 422 0 
z
" transform="scale(0.015625)"/>
     </defs>
     <use xlink:href="#ArialMT-55"/>
     <use xlink:href="#ArialMT-6e" transform="translate(72.216797 0)"/>
     <use xlink:href="#ArialMT-69" transform="translate(127.832031 0)"/>
     <use xlink:href="#ArialMT-66" transform="translate(150.048828 0)"/>
     <use xlink:href="#ArialMT-6f" transform="translate(177.832031 0)"/>
     <use xlink:href="#ArialMT-72" transform="translate(233.447266 0)"/>
     <use xlink:href="#ArialMT-6d" transform="translate(266.748047 0)"/>
     <use xlink:href="#ArialMT-20" transform="translate(350.048828 0)"/>
     <use xlink:href="#ArialMT-6f" transform="translate(377.832031 0)"/>
     <use xlink:href="#ArialMT-72" transform="translate(433.447266 0)"/>
    </g>
    <!-- Concentrated? -->
    <g style="fill: #28253d" transform="translate(246.981715 196.536926) scale(0.08 -0.08)">
     <defs>
      <path id="ArialMT-43" d="M 3763 1606 
L 4369 1453 
Q 4178 706 3683 314 
Q 3188 -78 2472 -78 
Q 1731 -78 1267 223 
Q 803 525 561 1097 
Q 319 1669 319 2325 
Q 319 3041 592 3573 
Q 866 4106 1370 4382 
Q 1875 4659 2481 4659 
Q 3169 4659 3637 4309 
Q 4106 3959 4291 3325 
L 3694 3184 
Q 3534 3684 3231 3912 
Q 2928 4141 2469 4141 
Q 1941 4141 1586 3887 
Q 1231 3634 1087 3207 
Q 944 2781 944 2328 
Q 944 1744 1114 1308 
Q 1284 872 1643 656 
Q 2003 441 2422 441 
Q 2931 441 3284 734 
Q 3638 1028 3763 1606 
z
" transform="scale(0.015625)"/>
      <path id="ArialMT-65" d="M 2694 1069 
L 3275 997 
Q 3138 488 2766 206 
Q 2394 -75 1816 -75 
Q 1088 -75 661 373 
Q 234 822 234 1631 
Q 234 2469 665 2931 
Q 1097 3394 1784 3394 
Q 2450 3394 2872 2941 
Q 3294 2488 3294 1666 
Q 3294 1616 3291 1516 
L 816 1516 
Q 847 969 1125 678 
Q 1403 388 1819 388 
Q 2128 388 2347 550 
Q 2566 713 2694 1069 
z
M 847 1978 
L 2700 1978 
Q 2663 2397 2488 2606 
Q 2219 2931 1791 2931 
Q 1403 2931 1139 2672 
Q 875 2413 847 1978 
z
" transform="scale(0.015625)"/>
      <path id="ArialMT-74" d="M 1650 503 
L 1731 6 
Q 1494 -44 1306 -44 
Q 1000 -44 831 53 
Q 663 150 594 308 
Q 525 466 525 972 
L 525 2881 
L 113 2881 
L 113 3319 
L 525 3319 
L 525 4141 
L 1084 4478 
L 1084 3319 
L 1650 3319 
L 1650 2881 
L 1084 2881 
L 1084 941 
Q 1084 700 1114 631 
Q 1144 563 1211 522 
Q 1278 481 1403 481 
Q 1497 481 1650 503 
z
" transform="scale(0.015625)"/>
      <path id="ArialMT-64" d="M 2575 0 
L 2575 419 
Q 2259 -75 1647 -75 
Q 1250 -75 917 144 
Q 584 363 401 755 
Q 219 1147 219 1656 
Q 219 2153 384 2558 
Q 550 2963 881 3178 
Q 1213 3394 1622 3394 
Q 1922 3394 2156 3267 
Q 2391 3141 2538 2938 
L 2538 4581 
L 3097 4581 
L 3097 0 
L 2575 0 
z
M 797 1656 
Q 797 1019 1065 703 
Q 1334 388 1700 388 
Q 2069 388 2326 689 
Q 2584 991 2584 1609 
Q 2584 2291 2321 2609 
Q 2059 2928 1675 2928 
Q 1300 2928 1048 2622 
Q 797 2316 797 1656 
z
" transform="scale(0.015625)"/>
     </defs>
     <use xlink:href="#ArialMT-43"/>
     <use xlink:href="#ArialMT-6f" transform="translate(72.216797 0)"/>
     <use xlink:href="#ArialMT-6e" transform="translate(127.832031 0)"/>
     <use xlink:href="#ArialMT-63" transform="translate(183.447266 0)"/>
     <use xlink:href="#ArialMT-65" transform="translate(233.447266 0)"/>
     <use xlink:href="#ArialMT-6e" transform="translate(289.0625 0)"/>
     <use xlink:href="#ArialMT-74" transform="translate(344.677734 0)"/>
     <use xlink:href="#ArialMT-72" transform="translate(372.460938 0)"/>
     <use xlink:href="#ArialMT-61" transform="translate(405.761719 0)"/>
     <use xlink:href="#ArialMT-74" transform="translate(461.376953 0)"/>
     <use xlink:href="#ArialMT-65" transform="translate(489.160156 0)"/>
     <use xlink:href="#ArialMT-64" transform="translate(544.775391 0)"/>
     <use xlink:href="#ArialMT-3f" transform="translate(600.390625 0)"/>
    </g>
   </g>
   <g id="text_5">
    <!-- Accuracy -->
    <g style="fill: #28253d" transform="translate(83.27989 253.946689) scale(0.08 -0.08)">
     <use xlink:href="#ArialMT-41"/>
     <use xlink:href="#ArialMT-63" transform="translate(66.699219 0)"/>
     <use xlink:href="#ArialMT-63" transform="translate(116.699219 0)"/>
     <use xlink:href="#ArialMT-75" transform="translate(166.699219 0)"/>
     <use xlink:href="#ArialMT-72" transform="translate(222.314453 0)"/>
     <use xlink:href="#ArialMT-61" transform="translate(255.615234 0)"/>
     <use xlink:href="#ArialMT-63" transform="translate(311.230469 0)"/>
     <use xlink:href="#ArialMT-79" transform="translate(361.230469 0)"/>
    </g>
    <!-- Critical? -->
    <g style="fill: #28253d" transform="translate(85.281765 261.643001) scale(0.08 -0.08)">
     <defs>
      <path id="ArialMT-6c" d="M 409 0 
L 409 4581 
L 972 4581 
L 972 0 
L 409 0 
z
" transform="scale(0.015625)"/>
     </defs>
     <use xlink:href="#ArialMT-43"/>
     <use xlink:href="#ArialMT-72" transform="translate(72.216797 0)"/>
     <use xlink:href="#ArialMT-69" transform="translate(105.517578 0)"/>
     <use xlink:href="#ArialMT-74" transform="translate(127.734375 0)"/>
     <use xlink:href="#ArialMT-69" transform="translate(155.517578 0)"/>
     <use xlink:href="#ArialMT-63" transform="translate(177.734375 0)"/>
     <use xlink:href="#ArialMT-61" transform="translate(227.734375 0)"/>
     <use xlink:href="#ArialMT-6c" transform="translate(283.349609 0)"/>
     <use xlink:href="#ArialMT-3f" transform="translate(305.566406 0)"/>
    </g>
   </g>
   <g id="text_6">
    <!-- Model Size? -->
    <g style="fill: #28253d" transform="translate(158.680575 257.794845) scale(0.08 -0.08)">
     <defs>
      <path id="ArialMT-4d" d="M 475 0 
L 475 4581 
L 1388 4581 
L 2472 1338 
Q 2622 884 2691 659 
Q 2769 909 2934 1394 
L 4031 4581 
L 4847 4581 
L 4847 0 
L 4263 0 
L 4263 3834 
L 2931 0 
L 2384 0 
L 1059 3900 
L 1059 0 
L 475 0 
z
" transform="scale(0.015625)"/>
      <path id="ArialMT-53" d="M 288 1472 
L 859 1522 
Q 900 1178 1048 958 
Q 1197 738 1509 602 
Q 1822 466 2213 466 
Q 2559 466 2825 569 
Q 3091 672 3220 851 
Q 3350 1031 3350 1244 
Q 3350 1459 3225 1620 
Q 3100 1781 2813 1891 
Q 2628 1963 1997 2114 
Q 1366 2266 1113 2400 
Q 784 2572 623 2826 
Q 463 3081 463 3397 
Q 463 3744 659 4045 
Q 856 4347 1234 4503 
Q 1613 4659 2075 4659 
Q 2584 4659 2973 4495 
Q 3363 4331 3572 4012 
Q 3781 3694 3797 3291 
L 3216 3247 
Q 3169 3681 2898 3903 
Q 2628 4125 2100 4125 
Q 1550 4125 1298 3923 
Q 1047 3722 1047 3438 
Q 1047 3191 1225 3031 
Q 1400 2872 2139 2705 
Q 2878 2538 3153 2413 
Q 3553 2228 3743 1945 
Q 3934 1663 3934 1294 
Q 3934 928 3725 604 
Q 3516 281 3123 101 
Q 2731 -78 2241 -78 
Q 1619 -78 1198 103 
Q 778 284 539 648 
Q 300 1013 288 1472 
z
" transform="scale(0.015625)"/>
      <path id="ArialMT-7a" d="M 125 0 
L 125 456 
L 2238 2881 
Q 1878 2863 1603 2863 
L 250 2863 
L 250 3319 
L 2963 3319 
L 2963 2947 
L 1166 841 
L 819 456 
Q 1197 484 1528 484 
L 3063 484 
L 3063 0 
L 125 0 
z
" transform="scale(0.015625)"/>
     </defs>
     <use xlink:href="#ArialMT-4d"/>
     <use xlink:href="#ArialMT-6f" transform="translate(83.300781 0)"/>
     <use xlink:href="#ArialMT-64" transform="translate(138.916016 0)"/>
     <use xlink:href="#ArialMT-65" transform="translate(194.53125 0)"/>
     <use xlink:href="#ArialMT-6c" transform="translate(250.146484 0)"/>
     <use xlink:href="#ArialMT-20" transform="translate(272.363281 0)"/>
     <use xlink:href="#ArialMT-53" transform="translate(300.146484 0)"/>
     <use xlink:href="#ArialMT-69" transform="translate(366.845703 0)"/>
     <use xlink:href="#ArialMT-7a" transform="translate(389.0625 0)"/>
     <use xlink:href="#ArialMT-65" transform="translate(439.0625 0)"/>
     <use xlink:href="#ArialMT-3f" transform="translate(494.677734 0)"/>
    </g>
   </g>
   <g id="text_7">
    <!-- Try Mixed -->
    <g style="fill: #28253d" transform="translate(273.163335 253.946689) scale(0.08 -0.08)">
     <defs>
      <path id="ArialMT-78" d="M 47 0 
L 1259 1725 
L 138 3319 
L 841 3319 
L 1350 2541 
Q 1494 2319 1581 2169 
Q 1719 2375 1834 2534 
L 2394 3319 
L 3066 3319 
L 1919 1756 
L 3153 0 
L 2463 0 
L 1781 1031 
L 1600 1309 
L 728 0 
L 47 0 
z
" transform="scale(0.015625)"/>
     </defs>
     <use xlink:href="#ArialMT-54"/>
     <use xlink:href="#ArialMT-72" transform="translate(57.333984 0)"/>
     <use xlink:href="#ArialMT-79" transform="translate(90.634766 0)"/>
     <use xlink:href="#ArialMT-20" transform="translate(140.634766 0)"/>
     <use xlink:href="#ArialMT-4d" transform="translate(168.417969 0)"/>
     <use xlink:href="#ArialMT-69" transform="translate(251.71875 0)"/>
     <use xlink:href="#ArialMT-78" transform="translate(273.935547 0)"/>
     <use xlink:href="#ArialMT-65" transform="translate(323.935547 0)"/>
     <use xlink:href="#ArialMT-64" transform="translate(379.550781 0)"/>
    </g>
    <!-- Precision First -->
    <g style="fill: #28253d" transform="translate(265.232085 261.643001) scale(0.08 -0.08)">
     <defs>
      <path id="ArialMT-73" d="M 197 991 
L 753 1078 
Q 800 744 1014 566 
Q 1228 388 1613 388 
Q 2000 388 2187 545 
Q 2375 703 2375 916 
Q 2375 1106 2209 1216 
Q 2094 1291 1634 1406 
Q 1016 1563 777 1677 
Q 538 1791 414 1992 
Q 291 2194 291 2438 
Q 291 2659 392 2848 
Q 494 3038 669 3163 
Q 800 3259 1026 3326 
Q 1253 3394 1513 3394 
Q 1903 3394 2198 3281 
Q 2494 3169 2634 2976 
Q 2775 2784 2828 2463 
L 2278 2388 
Q 2241 2644 2061 2787 
Q 1881 2931 1553 2931 
Q 1166 2931 1000 2803 
Q 834 2675 834 2503 
Q 834 2394 903 2306 
Q 972 2216 1119 2156 
Q 1203 2125 1616 2013 
Q 2213 1853 2448 1751 
Q 2684 1650 2818 1456 
Q 2953 1263 2953 975 
Q 2953 694 2789 445 
Q 2625 197 2315 61 
Q 2006 -75 1616 -75 
Q 969 -75 630 194 
Q 291 463 197 991 
z
" transform="scale(0.015625)"/>
      <path id="ArialMT-46" d="M 525 0 
L 525 4581 
L 3616 4581 
L 3616 4041 
L 1131 4041 
L 1131 2622 
L 3281 2622 
L 3281 2081 
L 1131 2081 
L 1131 0 
L 525 0 
z
" transform="scale(0.015625)"/>
     </defs>
     <use xlink:href="#ArialMT-50"/>
     <use xlink:href="#ArialMT-72" transform="translate(66.699219 0)"/>
     <use xlink:href="#ArialMT-65" transform="translate(100 0)"/>
     <use xlink:href="#ArialMT-63" transform="translate(155.615234 0)"/>
     <use xlink:href="#ArialMT-69" transform="translate(205.615234 0)"/>
     <use xlink:href="#ArialMT-73" transform="translate(227.832031 0)"/>
     <use xlink:href="#ArialMT-69" transform="translate(277.832031 0)"/>
     <use xlink:href="#ArialMT-6f" transform="translate(300.048828 0)"/>
     <use xlink:href="#ArialMT-6e" transform="translate(355.664062 0)"/>
     <use xlink:href="#ArialMT-20" transform="translate(411.279297 0)"/>
     <use xlink:href="#ArialMT-46" transform="translate(439.0625 0)"/>
     <use xlink:href="#ArialMT-69" transform="translate(500.146484 0)"/>
     <use xlink:href="#ArialMT-72" transform="translate(522.363281 0)"/>
     <use xlink:href="#ArialMT-73" transform="translate(555.664062 0)"/>
     <use xlink:href="#ArialMT-74" transform="translate(605.664062 0)"/>
    </g>
   </g>
   <g id="text_8">
    <!-- Ship PTQ -->
    <g style="fill: #28253d" transform="translate(15.884305 326.332814) scale(0.08 -0.08)">
     <defs>
      <path id="ArialMT-68" d="M 422 0 
L 422 4581 
L 984 4581 
L 984 2938 
Q 1378 3394 1978 3394 
Q 2347 3394 2619 3248 
Q 2891 3103 3008 2847 
Q 3125 2591 3125 2103 
L 3125 0 
L 2563 0 
L 2563 2103 
Q 2563 2525 2380 2717 
Q 2197 2909 1863 2909 
Q 1613 2909 1392 2779 
Q 1172 2650 1078 2428 
Q 984 2206 984 1816 
L 984 0 
L 422 0 
z
" transform="scale(0.015625)"/>
     </defs>
     <use xlink:href="#ArialMT-53"/>
     <use xlink:href="#ArialMT-68" transform="translate(66.699219 0)"/>
     <use xlink:href="#ArialMT-69" transform="translate(122.314453 0)"/>
     <use xlink:href="#ArialMT-70" transform="translate(144.53125 0)"/>
     <use xlink:href="#ArialMT-20" transform="translate(200.146484 0)"/>
     <use xlink:href="#ArialMT-50" transform="translate(227.929688 0)"/>
     <use xlink:href="#ArialMT-54" transform="translate(294.628906 0)"/>
     <use xlink:href="#ArialMT-51" transform="translate(355.712891 0)"/>
    </g>
    <!-- Result -->
    <g style="fill: #28253d" transform="translate(21.88618 333.935376) scale(0.08 -0.08)">
     <defs>
      <path id="ArialMT-52" d="M 503 0 
L 503 4581 
L 2534 4581 
Q 3147 4581 3465 4457 
Q 3784 4334 3975 4021 
Q 4166 3709 4166 3331 
Q 4166 2844 3850 2509 
Q 3534 2175 2875 2084 
Q 3116 1969 3241 1856 
Q 3506 1613 3744 1247 
L 4541 0 
L 3778 0 
L 3172 953 
Q 2906 1366 2734 1584 
Q 2563 1803 2427 1890 
Q 2291 1978 2150 2013 
Q 2047 2034 1813 2034 
L 1109 2034 
L 1109 0 
L 503 0 
z
M 1109 2559 
L 2413 2559 
Q 2828 2559 3062 2645 
Q 3297 2731 3419 2920 
Q 3541 3109 3541 3331 
Q 3541 3656 3305 3865 
Q 3069 4075 2559 4075 
L 1109 4075 
L 1109 2559 
z
" transform="scale(0.015625)"/>
     </defs>
     <use xlink:href="#ArialMT-52"/>
     <use xlink:href="#ArialMT-65" transform="translate(72.216797 0)"/>
     <use xlink:href="#ArialMT-73" transform="translate(127.832031 0)"/>
     <use xlink:href="#ArialMT-75" transform="translate(177.832031 0)"/>
     <use xlink:href="#ArialMT-6c" transform="translate(233.447266 0)"/>
     <use xlink:href="#ArialMT-74" transform="translate(255.664062 0)"/>
    </g>
   </g>
   <g id="text_9">
    <!-- QAT Likely -->
    <g style="fill: #28253d" transform="translate(115.23188 326.285939) scale(0.08 -0.08)">
     <defs>
      <path id="ArialMT-4c" d="M 469 0 
L 469 4581 
L 1075 4581 
L 1075 541 
L 3331 541 
L 3331 0 
L 469 0 
z
" transform="scale(0.015625)"/>
      <path id="ArialMT-6b" d="M 425 0 
L 425 4581 
L 988 4581 
L 988 1969 
L 2319 3319 
L 3047 3319 
L 1778 2088 
L 3175 0 
L 2481 0 
L 1384 1697 
L 988 1316 
L 988 0 
L 425 0 
z
" transform="scale(0.015625)"/>
     </defs>
     <use xlink:href="#ArialMT-51"/>
     <use xlink:href="#ArialMT-41" transform="translate(77.783203 0)"/>
     <use xlink:href="#ArialMT-54" transform="translate(137.107422 0)"/>
     <use xlink:href="#ArialMT-20" transform="translate(196.441406 0)"/>
     <use xlink:href="#ArialMT-4c" transform="translate(224.224609 0)"/>
     <use xlink:href="#ArialMT-69" transform="translate(279.839844 0)"/>
     <use xlink:href="#ArialMT-6b" transform="translate(302.056641 0)"/>
     <use xlink:href="#ArialMT-65" transform="translate(352.056641 0)"/>
     <use xlink:href="#ArialMT-6c" transform="translate(407.671875 0)"/>
     <use xlink:href="#ArialMT-79" transform="translate(429.888672 0)"/>
    </g>
    <!-- Needed -->
    <g style="fill: #28253d" transform="translate(120.416255 333.982251) scale(0.08 -0.08)">
     <defs>
      <path id="ArialMT-4e" d="M 488 0 
L 488 4581 
L 1109 4581 
L 3516 984 
L 3516 4581 
L 4097 4581 
L 4097 0 
L 3475 0 
L 1069 3600 
L 1069 0 
L 488 0 
z
" transform="scale(0.015625)"/>
     </defs>
     <use xlink:href="#ArialMT-4e"/>
     <use xlink:href="#ArialMT-65" transform="translate(72.216797 0)"/>
     <use xlink:href="#ArialMT-65" transform="translate(127.832031 0)"/>
     <use xlink:href="#ArialMT-64" transform="translate(183.447266 0)"/>
     <use xlink:href="#ArialMT-65" transform="translate(239.0625 0)"/>
     <use xlink:href="#ArialMT-64" transform="translate(294.677734 0)"/>
    </g>
   </g>
   <g id="text_10">
    <!-- Try Calibration -->
    <g style="fill: #28253d" transform="translate(189.53319 326.236564) scale(0.08 -0.08)">
     <defs>
      <path id="ArialMT-62" d="M 941 0 
L 419 0 
L 419 4581 
L 981 4581 
L 981 2947 
Q 1338 3394 1891 3394 
Q 2197 3394 2470 3270 
Q 2744 3147 2920 2923 
Q 3097 2700 3197 2384 
Q 3297 2069 3297 1709 
Q 3297 856 2875 390 
Q 2453 -75 1863 -75 
Q 1275 -75 941 416 
L 941 0 
z
M 934 1684 
Q 934 1088 1097 822 
Q 1363 388 1816 388 
Q 2184 388 2453 708 
Q 2722 1028 2722 1663 
Q 2722 2313 2464 2622 
Q 2206 2931 1841 2931 
Q 1472 2931 1203 2611 
Q 934 2291 934 1684 
z
" transform="scale(0.015625)"/>
     </defs>
     <use xlink:href="#ArialMT-54"/>
     <use xlink:href="#ArialMT-72" transform="translate(57.333984 0)"/>
     <use xlink:href="#ArialMT-79" transform="translate(90.634766 0)"/>
     <use xlink:href="#ArialMT-20" transform="translate(140.634766 0)"/>
     <use xlink:href="#ArialMT-43" transform="translate(168.417969 0)"/>
     <use xlink:href="#ArialMT-61" transform="translate(240.634766 0)"/>
     <use xlink:href="#ArialMT-6c" transform="translate(296.25 0)"/>
     <use xlink:href="#ArialMT-69" transform="translate(318.466797 0)"/>
     <use xlink:href="#ArialMT-62" transform="translate(340.683594 0)"/>
     <use xlink:href="#ArialMT-72" transform="translate(396.298828 0)"/>
     <use xlink:href="#ArialMT-61" transform="translate(429.599609 0)"/>
     <use xlink:href="#ArialMT-74" transform="translate(485.214844 0)"/>
     <use xlink:href="#ArialMT-69" transform="translate(512.998047 0)"/>
     <use xlink:href="#ArialMT-6f" transform="translate(535.214844 0)"/>
     <use xlink:href="#ArialMT-6e" transform="translate(590.830078 0)"/>
    </g>
    <!-- Tuning First -->
    <g style="fill: #28253d" transform="translate(194.423815 333.932876) scale(0.08 -0.08)">
     <defs>
      <path id="ArialMT-67" d="M 319 -275 
L 866 -356 
Q 900 -609 1056 -725 
Q 1266 -881 1628 -881 
Q 2019 -881 2231 -725 
Q 2444 -569 2519 -288 
Q 2563 -116 2559 434 
Q 2191 0 1641 0 
Q 956 0 581 494 
Q 206 988 206 1678 
Q 206 2153 378 2554 
Q 550 2956 876 3175 
Q 1203 3394 1644 3394 
Q 2231 3394 2613 2919 
L 2613 3319 
L 3131 3319 
L 3131 450 
Q 3131 -325 2973 -648 
Q 2816 -972 2473 -1159 
Q 2131 -1347 1631 -1347 
Q 1038 -1347 672 -1080 
Q 306 -813 319 -275 
z
M 784 1719 
Q 784 1066 1043 766 
Q 1303 466 1694 466 
Q 2081 466 2343 764 
Q 2606 1063 2606 1700 
Q 2606 2309 2336 2618 
Q 2066 2928 1684 2928 
Q 1309 2928 1046 2623 
Q 784 2319 784 1719 
z
" transform="scale(0.015625)"/>
     </defs>
     <use xlink:href="#ArialMT-54"/>
     <use xlink:href="#ArialMT-75" transform="translate(57.333984 0)"/>
     <use xlink:href="#ArialMT-6e" transform="translate(112.949219 0)"/>
     <use xlink:href="#ArialMT-69" transform="translate(168.564453 0)"/>
     <use xlink:href="#ArialMT-6e" transform="translate(190.78125 0)"/>
     <use xlink:href="#ArialMT-67" transform="translate(246.396484 0)"/>
     <use xlink:href="#ArialMT-20" transform="translate(302.011719 0)"/>
     <use xlink:href="#ArialMT-46" transform="translate(329.794922 0)"/>
     <use xlink:href="#ArialMT-69" transform="translate(390.878906 0)"/>
     <use xlink:href="#ArialMT-72" transform="translate(413.095703 0)"/>
     <use xlink:href="#ArialMT-73" transform="translate(446.396484 0)"/>
     <use xlink:href="#ArialMT-74" transform="translate(496.396484 0)"/>
    </g>
   </g>
   <g id="text_11">
    <!-- Mixed Precision -->
    <g style="fill: #28253d" transform="translate(279.68683 326.281564) scale(0.08 -0.08)">
     <use xlink:href="#ArialMT-4d"/>
     <use xlink:href="#ArialMT-69" transform="translate(83.300781 0)"/>
     <use xlink:href="#ArialMT-78" transform="translate(105.517578 0)"/>
     <use xlink:href="#ArialMT-65" transform="translate(155.517578 0)"/>
     <use xlink:href="#ArialMT-64" transform="translate(211.132812 0)"/>
     <use xlink:href="#ArialMT-20" transform="translate(266.748047 0)"/>
     <use xlink:href="#ArialMT-50" transform="translate(294.53125 0)"/>
     <use xlink:href="#ArialMT-72" transform="translate(361.230469 0)"/>
     <use xlink:href="#ArialMT-65" transform="translate(394.53125 0)"/>
     <use xlink:href="#ArialMT-63" transform="translate(450.146484 0)"/>
     <use xlink:href="#ArialMT-69" transform="translate(500.146484 0)"/>
     <use xlink:href="#ArialMT-73" transform="translate(522.363281 0)"/>
     <use xlink:href="#ArialMT-69" transform="translate(572.363281 0)"/>
     <use xlink:href="#ArialMT-6f" transform="translate(594.580078 0)"/>
     <use xlink:href="#ArialMT-6e" transform="translate(650.195312 0)"/>
    </g>
    <!-- Sufficient? -->
    <g style="fill: #28253d" transform="translate(289.311205 333.884126) scale(0.08 -0.08)">
     <use xlink:href="#ArialMT-53"/>
     <use xlink:href="#ArialMT-75" transform="translate(66.699219 0)"/>
     <use xlink:href="#ArialMT-66" transform="translate(122.314453 0)"/>
     <use xlink:href="#ArialMT-66" transform="translate(148.347656 0)"/>
     <use xlink:href="#ArialMT-69" transform="translate(176.130859 0)"/>
     <use xlink:href="#ArialMT-63" transform="translate(198.347656 0)"/>
     <use xlink:href="#ArialMT-69" transform="translate(248.347656 0)"/>
     <use xlink:href="#ArialMT-65" transform="translate(270.564453 0)"/>
     <use xlink:href="#ArialMT-6e" transform="translate(326.179688 0)"/>
     <use xlink:href="#ArialMT-74" transform="translate(381.794922 0)"/>
     <use xlink:href="#ArialMT-3f" transform="translate(409.578125 0)"/>
    </g>
   </g>
   <g id="text_12">
    <!-- Calibration -->
    <g style="fill: #28253d" transform="translate(196.26944 389.843816) scale(0.08 -0.08)">
     <use xlink:href="#ArialMT-43"/>
     <use xlink:href="#ArialMT-61" transform="translate(72.216797 0)"/>
     <use xlink:href="#ArialMT-6c" transform="translate(127.832031 0)"/>
     <use xlink:href="#ArialMT-69" transform="translate(150.048828 0)"/>
     <use xlink:href="#ArialMT-62" transform="translate(172.265625 0)"/>
     <use xlink:href="#ArialMT-72" transform="translate(227.880859 0)"/>
     <use xlink:href="#ArialMT-61" transform="translate(261.181641 0)"/>
     <use xlink:href="#ArialMT-74" transform="translate(316.796875 0)"/>
     <use xlink:href="#ArialMT-69" transform="translate(344.580078 0)"/>
     <use xlink:href="#ArialMT-6f" transform="translate(366.796875 0)"/>
     <use xlink:href="#ArialMT-6e" transform="translate(422.412109 0)"/>
    </g>
    <!-- Improved? -->
    <g style="fill: #28253d" transform="translate(196.492565 397.548754) scale(0.08 -0.08)">
     <defs>
      <path id="ArialMT-49" d="M 597 0 
L 597 4581 
L 1203 4581 
L 1203 0 
L 597 0 
z
" transform="scale(0.015625)"/>
      <path id="ArialMT-76" d="M 1344 0 
L 81 3319 
L 675 3319 
L 1388 1331 
Q 1503 1009 1600 663 
Q 1675 925 1809 1294 
L 2547 3319 
L 3125 3319 
L 1869 0 
L 1344 0 
z
" transform="scale(0.015625)"/>
     </defs>
     <use xlink:href="#ArialMT-49"/>
     <use xlink:href="#ArialMT-6d" transform="translate(27.783203 0)"/>
     <use xlink:href="#ArialMT-70" transform="translate(111.083984 0)"/>
     <use xlink:href="#ArialMT-72" transform="translate(166.699219 0)"/>
     <use xlink:href="#ArialMT-6f" transform="translate(200 0)"/>
     <use xlink:href="#ArialMT-76" transform="translate(255.615234 0)"/>
     <use xlink:href="#ArialMT-65" transform="translate(305.615234 0)"/>
     <use xlink:href="#ArialMT-64" transform="translate(361.230469 0)"/>
     <use xlink:href="#ArialMT-3f" transform="translate(416.845703 0)"/>
    </g>
   </g>
   <g id="text_13">
    <!-- Ship Mixed -->
    <g style="fill: #28253d" transform="translate(308.37247 389.943754) scale(0.08 -0.08)">
     <use xlink:href="#ArialMT-53"/>
     <use xlink:href="#ArialMT-68" transform="translate(66.699219 0)"/>
     <use xlink:href="#ArialMT-69" transform="translate(122.314453 0)"/>
     <use xlink:href="#ArialMT-70" transform="translate(144.53125 0)"/>
     <use xlink:href="#ArialMT-20" transform="translate(200.146484 0)"/>
     <use xlink:href="#ArialMT-4d" transform="translate(227.929688 0)"/>
     <use xlink:href="#ArialMT-69" transform="translate(311.230469 0)"/>
     <use xlink:href="#ArialMT-78" transform="translate(333.447266 0)"/>
     <use xlink:href="#ArialMT-65" transform="translate(383.447266 0)"/>
     <use xlink:href="#ArialMT-64" transform="translate(439.0625 0)"/>
    </g>
    <!-- Precision -->
    <g style="fill: #28253d" transform="translate(311.708095 397.546316) scale(0.08 -0.08)">
     <use xlink:href="#ArialMT-50"/>
     <use xlink:href="#ArialMT-72" transform="translate(66.699219 0)"/>
     <use xlink:href="#ArialMT-65" transform="translate(100 0)"/>
     <use xlink:href="#ArialMT-63" transform="translate(155.615234 0)"/>
     <use xlink:href="#ArialMT-69" transform="translate(205.615234 0)"/>
     <use xlink:href="#ArialMT-73" transform="translate(227.832031 0)"/>
     <use xlink:href="#ArialMT-69" transform="translate(277.832031 0)"/>
     <use xlink:href="#ArialMT-6f" transform="translate(300.048828 0)"/>
     <use xlink:href="#ArialMT-6e" transform="translate(355.664062 0)"/>
    </g>
   </g>
   <g id="text_14">
    <!-- Consider -->
    <g style="fill: #28253d" transform="translate(69.264165 454.853516) scale(0.08 -0.08)">
     <use xlink:href="#ArialMT-43"/>
     <use xlink:href="#ArialMT-6f" transform="translate(72.216797 0)"/>
     <use xlink:href="#ArialMT-6e" transform="translate(127.832031 0)"/>
     <use xlink:href="#ArialMT-73" transform="translate(183.447266 0)"/>
     <use xlink:href="#ArialMT-69" transform="translate(233.447266 0)"/>
     <use xlink:href="#ArialMT-64" transform="translate(255.664062 0)"/>
     <use xlink:href="#ArialMT-65" transform="translate(311.279297 0)"/>
     <use xlink:href="#ArialMT-72" transform="translate(366.894531 0)"/>
    </g>
    <!-- Light QAT -->
    <g style="fill: #28253d" transform="translate(67.559165 462.563704) scale(0.08 -0.08)">
     <use xlink:href="#ArialMT-4c"/>
     <use xlink:href="#ArialMT-69" transform="translate(55.615234 0)"/>
     <use xlink:href="#ArialMT-67" transform="translate(77.832031 0)"/>
     <use xlink:href="#ArialMT-68" transform="translate(133.447266 0)"/>
     <use xlink:href="#ArialMT-74" transform="translate(189.0625 0)"/>
     <use xlink:href="#ArialMT-20" transform="translate(216.845703 0)"/>
     <use xlink:href="#ArialMT-51" transform="translate(244.628906 0)"/>
     <use xlink:href="#ArialMT-41" transform="translate(322.412109 0)"/>
     <use xlink:href="#ArialMT-54" transform="translate(381.736328 0)"/>
    </g>
   </g>
   <g id="text_15">
    <!-- QAT Recommended -->
    <g style="fill: #28253d" transform="translate(179.297565 458.755485) scale(0.08 -0.08)">
     <use xlink:href="#ArialMT-51"/>
     <use xlink:href="#ArialMT-41" transform="translate(77.783203 0)"/>
     <use xlink:href="#ArialMT-54" transform="translate(137.107422 0)"/>
     <use xlink:href="#ArialMT-20" transform="translate(196.441406 0)"/>
     <use xlink:href="#ArialMT-52" transform="translate(224.224609 0)"/>
     <use xlink:href="#ArialMT-65" transform="translate(296.441406 0)"/>
     <use xlink:href="#ArialMT-63" transform="translate(352.056641 0)"/>
     <use xlink:href="#ArialMT-6f" transform="translate(402.056641 0)"/>
     <use xlink:href="#ArialMT-6d" transform="translate(457.671875 0)"/>
     <use xlink:href="#ArialMT-6d" transform="translate(540.972656 0)"/>
     <use xlink:href="#ArialMT-65" transform="translate(624.273438 0)"/>
     <use xlink:href="#ArialMT-6e" transform="translate(679.888672 0)"/>
     <use xlink:href="#ArialMT-64" transform="translate(735.503906 0)"/>
     <use xlink:href="#ArialMT-65" transform="translate(791.119141 0)"/>
     <use xlink:href="#ArialMT-64" transform="translate(846.734375 0)"/>
    </g>
   </g>
   <g id="text_16">
    <g id="patch_34">
     <path d="M 133.278144 160.726155 
L 142.226112 160.726155 
Q 143.276112 160.726155 143.276112 159.676155 
L 143.276112 153.274437 
Q 143.276112 152.224437 142.226112 152.224437 
L 133.278144 152.224437 
Q 132.228144 152.224437 132.228144 153.274437 
L 132.228144 159.676155 
Q 132.228144 160.726155 133.278144 160.726155 
z
" style="fill: #ffffff"/>
    </g>
    <!-- No -->
    <g style="fill: #28253d" transform="translate(133.278144 158.284905) scale(0.07 -0.07)">
     <use xlink:href="#ArialMT-4e"/>
     <use xlink:href="#ArialMT-6f" transform="translate(72.216797 0)"/>
    </g>
   </g>
   <g id="text_17">
    <g id="patch_35">
     <path d="M 216.617526 160.726155 
L 228.040651 160.726155 
Q 229.090651 160.726155 229.090651 159.676155 
L 229.090651 153.274437 
Q 229.090651 152.224437 228.040651 152.224437 
L 216.617526 152.224437 
Q 215.567526 152.224437 215.567526 153.274437 
L 215.567526 159.676155 
Q 215.567526 160.726155 216.617526 160.726155 
z
" style="fill: #ffffff"/>
    </g>
    <!-- Yes -->
    <g style="fill: #28253d" transform="translate(216.617526 158.284905) scale(0.07 -0.07)">
     <defs>
      <path id="ArialMT-59" d="M 1784 0 
L 1784 1941 
L 19 4581 
L 756 4581 
L 1659 3200 
Q 1909 2813 2125 2425 
Q 2331 2784 2625 3234 
L 3513 4581 
L 4219 4581 
L 2391 1941 
L 2391 0 
L 1784 0 
z
" transform="scale(0.015625)"/>
     </defs>
     <use xlink:href="#ArialMT-59"/>
     <use xlink:href="#ArialMT-65" transform="translate(57.574219 0)"/>
     <use xlink:href="#ArialMT-73" transform="translate(113.189453 0)"/>
    </g>
   </g>
   <g id="text_18">
    <g id="patch_36">
     <path d="M 57.375744 256.724619 
L 66.323712 256.724619 
Q 67.373712 256.724619 67.373712 255.674619 
L 67.373712 249.272901 
Q 67.373712 248.222901 66.323712 248.222901 
L 57.375744 248.222901 
Q 56.325744 248.222901 56.325744 249.272901 
L 56.325744 255.674619 
Q 56.325744 256.724619 57.375744 256.724619 
z
" style="fill: #ffffff"/>
    </g>
    <!-- No -->
    <g style="fill: #28253d" transform="translate(57.375744 254.283369) scale(0.07 -0.07)">
     <use xlink:href="#ArialMT-4e"/>
     <use xlink:href="#ArialMT-6f" transform="translate(72.216797 0)"/>
    </g>
   </g>
   <g id="text_19">
    <g id="patch_37">
     <path d="M 86.065398 224.195019 
L 97.488523 224.195019 
Q 98.538523 224.195019 98.538523 223.145019 
L 98.538523 216.743301 
Q 98.538523 215.693301 97.488523 215.693301 
L 86.065398 215.693301 
Q 85.015398 215.693301 85.015398 216.743301 
L 85.015398 223.145019 
Q 85.015398 224.195019 86.065398 224.195019 
z
" style="fill: #ffffff"/>
    </g>
    <!-- Yes -->
    <g style="fill: #28253d" transform="translate(86.065398 221.753769) scale(0.07 -0.07)">
     <use xlink:href="#ArialMT-59"/>
     <use xlink:href="#ArialMT-65" transform="translate(57.574219 0)"/>
     <use xlink:href="#ArialMT-73" transform="translate(113.189453 0)"/>
    </g>
   </g>
   <g id="text_20">
    <g id="patch_38">
     <path d="M 65.327424 292.507179 
L 74.275392 292.507179 
Q 75.325392 292.507179 75.325392 291.457179 
L 75.325392 285.055461 
Q 75.325392 284.005461 74.275392 284.005461 
L 65.327424 284.005461 
Q 64.277424 284.005461 64.277424 285.055461 
L 64.277424 291.457179 
Q 64.277424 292.507179 65.327424 292.507179 
z
" style="fill: #ffffff"/>
    </g>
    <!-- No -->
    <g style="fill: #28253d" transform="translate(65.327424 290.065929) scale(0.07 -0.07)">
     <use xlink:href="#ArialMT-4e"/>
     <use xlink:href="#ArialMT-6f" transform="translate(72.216797 0)"/>
    </g>
   </g>
   <g id="text_21">
    <g id="patch_39">
     <path d="M 87.511158 350.409867 
L 98.934283 350.409867 
Q 99.984283 350.409867 99.984283 349.359867 
L 99.984283 342.958149 
Q 99.984283 341.908149 98.934283 341.908149 
L 87.511158 341.908149 
Q 86.461158 341.908149 86.461158 342.958149 
L 86.461158 349.359867 
Q 86.461158 350.409867 87.511158 350.409867 
z
" style="fill: #ffffff"/>
    </g>
    <!-- Yes -->
    <g style="fill: #28253d" transform="translate(87.511158 347.968617) scale(0.07 -0.07)">
     <use xlink:href="#ArialMT-59"/>
     <use xlink:href="#ArialMT-65" transform="translate(57.574219 0)"/>
     <use xlink:href="#ArialMT-73" transform="translate(113.189453 0)"/>
    </g>
   </g>
   <g id="text_22">
    <g id="patch_40">
     <path d="M 219.330858 224.195019 
L 243.833046 224.195019 
Q 244.883046 224.195019 244.883046 223.145019 
L 244.883046 216.743301 
Q 244.883046 215.693301 243.833046 215.693301 
L 219.330858 215.693301 
Q 218.280858 215.693301 218.280858 216.743301 
L 218.280858 223.145019 
Q 218.280858 224.195019 219.330858 224.195019 
z
" style="fill: #ffffff"/>
    </g>
    <!-- Uniform -->
    <g style="fill: #28253d" transform="translate(219.330858 221.753769) scale(0.07 -0.07)">
     <use xlink:href="#ArialMT-55"/>
     <use xlink:href="#ArialMT-6e" transform="translate(72.216797 0)"/>
     <use xlink:href="#ArialMT-69" transform="translate(127.832031 0)"/>
     <use xlink:href="#ArialMT-66" transform="translate(150.048828 0)"/>
     <use xlink:href="#ArialMT-6f" transform="translate(177.832031 0)"/>
     <use xlink:href="#ArialMT-72" transform="translate(233.447266 0)"/>
     <use xlink:href="#ArialMT-6d" transform="translate(266.748047 0)"/>
    </g>
   </g>
   <g id="text_23">
    <g id="patch_41">
     <path d="M 260.014913 224.195019 
L 302.038975 224.195019 
Q 303.088975 224.195019 303.088975 223.145019 
L 303.088975 216.743301 
Q 303.088975 215.693301 302.038975 215.693301 
L 260.014913 215.693301 
Q 258.964913 215.693301 258.964913 216.743301 
L 258.964913 223.145019 
Q 258.964913 224.195019 260.014913 224.195019 
z
" style="fill: #ffffff"/>
    </g>
    <!-- Concentrated -->
    <g style="fill: #28253d" transform="translate(260.014913 221.753769) scale(0.07 -0.07)">
     <use xlink:href="#ArialMT-43"/>
     <use xlink:href="#ArialMT-6f" transform="translate(72.216797 0)"/>
     <use xlink:href="#ArialMT-6e" transform="translate(127.832031 0)"/>
     <use xlink:href="#ArialMT-63" transform="translate(183.447266 0)"/>
     <use xlink:href="#ArialMT-65" transform="translate(233.447266 0)"/>
     <use xlink:href="#ArialMT-6e" transform="translate(289.0625 0)"/>
     <use xlink:href="#ArialMT-74" transform="translate(344.677734 0)"/>
     <use xlink:href="#ArialMT-72" transform="translate(372.460938 0)"/>
     <use xlink:href="#ArialMT-61" transform="translate(405.761719 0)"/>
     <use xlink:href="#ArialMT-74" transform="translate(461.376953 0)"/>
     <use xlink:href="#ArialMT-65" transform="translate(489.160156 0)"/>
     <use xlink:href="#ArialMT-64" transform="translate(544.775391 0)"/>
    </g>
   </g>
   <g id="text_24">
    <g id="patch_42">
     <path d="M 147.424834 292.507179 
L 172.319678 292.507179 
Q 173.369678 292.507179 173.369678 291.457179 
L 173.369678 285.055461 
Q 173.369678 284.005461 172.319678 284.005461 
L 147.424834 284.005461 
Q 146.374834 284.005461 146.374834 285.055461 
L 146.374834 291.457179 
Q 146.374834 292.507179 147.424834 292.507179 
z
" style="fill: #ffffff"/>
    </g>
    <!-- Medium -->
    <g style="fill: #28253d" transform="translate(147.424834 290.065929) scale(0.07 -0.07)">
     <use xlink:href="#ArialMT-4d"/>
     <use xlink:href="#ArialMT-65" transform="translate(83.300781 0)"/>
     <use xlink:href="#ArialMT-64" transform="translate(138.916016 0)"/>
     <use xlink:href="#ArialMT-69" transform="translate(194.53125 0)"/>
     <use xlink:href="#ArialMT-75" transform="translate(216.748047 0)"/>
     <use xlink:href="#ArialMT-6d" transform="translate(272.363281 0)"/>
    </g>
   </g>
   <g id="text_25">
    <g id="patch_43">
     <path d="M 175.784471 295.759445 
L 216.826346 295.759445 
Q 217.876346 295.759445 217.876346 294.709445 
L 217.876346 281.885226 
Q 217.876346 280.835226 216.826346 280.835226 
L 175.784471 280.835226 
Q 174.734471 280.835226 174.734471 281.885226 
L 174.734471 294.709445 
Q 174.734471 295.759445 175.784471 295.759445 
z
" style="fill: #ffffff"/>
    </g>
    <!-- Small &lt;10M / -->
    <g style="fill: #28253d" transform="translate(175.784471 286.813664) scale(0.07 -0.07)">
     <defs>
      <path id="ArialMT-3c" d="M 350 2003 
L 350 2528 
L 3384 3809 
L 3384 3250 
L 978 2263 
L 3384 1266 
L 3384 706 
L 350 2003 
z
" transform="scale(0.015625)"/>
      <path id="ArialMT-31" d="M 2384 0 
L 1822 0 
L 1822 3584 
Q 1619 3391 1289 3197 
Q 959 3003 697 2906 
L 697 3450 
Q 1169 3672 1522 3987 
Q 1875 4303 2022 4600 
L 2384 4600 
L 2384 0 
z
" transform="scale(0.015625)"/>
      <path id="ArialMT-2f" d="M 0 -78 
L 1328 4659 
L 1778 4659 
L 453 -78 
L 0 -78 
z
" transform="scale(0.015625)"/>
     </defs>
     <use xlink:href="#ArialMT-53"/>
     <use xlink:href="#ArialMT-6d" transform="translate(66.699219 0)"/>
     <use xlink:href="#ArialMT-61" transform="translate(150 0)"/>
     <use xlink:href="#ArialMT-6c" transform="translate(205.615234 0)"/>
     <use xlink:href="#ArialMT-6c" transform="translate(227.832031 0)"/>
     <use xlink:href="#ArialMT-20" transform="translate(250.048828 0)"/>
     <use xlink:href="#ArialMT-3c" transform="translate(277.832031 0)"/>
     <use xlink:href="#ArialMT-31" transform="translate(336.230469 0)"/>
     <use xlink:href="#ArialMT-30" transform="translate(391.845703 0)"/>
     <use xlink:href="#ArialMT-4d" transform="translate(447.460938 0)"/>
     <use xlink:href="#ArialMT-20" transform="translate(530.761719 0)"/>
     <use xlink:href="#ArialMT-2f" transform="translate(558.544922 0)"/>
    </g>
    <!-- Large &gt;50M -->
    <g style="fill: #28253d" transform="translate(177.530096 293.236164) scale(0.07 -0.07)">
     <use xlink:href="#ArialMT-4c"/>
     <use xlink:href="#ArialMT-61" transform="translate(55.615234 0)"/>
     <use xlink:href="#ArialMT-72" transform="translate(111.230469 0)"/>
     <use xlink:href="#ArialMT-67" transform="translate(144.53125 0)"/>
     <use xlink:href="#ArialMT-65" transform="translate(200.146484 0)"/>
     <use xlink:href="#ArialMT-20" transform="translate(255.761719 0)"/>
     <use xlink:href="#ArialMT-3e" transform="translate(283.544922 0)"/>
     <use xlink:href="#ArialMT-35" transform="translate(341.943359 0)"/>
     <use xlink:href="#ArialMT-30" transform="translate(397.558594 0)"/>
     <use xlink:href="#ArialMT-4d" transform="translate(453.173828 0)"/>
    </g>
   </g>
   <g id="text_26">
    <g id="patch_44">
     <path d="M 151.124598 425.155659 
L 162.547723 425.155659 
Q 163.597723 425.155659 163.597723 424.105659 
L 163.597723 417.703941 
Q 163.597723 416.653941 162.547723 416.653941 
L 151.124598 416.653941 
Q 150.074598 416.653941 150.074598 417.703941 
L 150.074598 424.105659 
Q 150.074598 425.155659 151.124598 425.155659 
z
" style="fill: #ffffff"/>
    </g>
    <!-- Yes -->
    <g style="fill: #28253d" transform="translate(151.124598 422.714409) scale(0.07 -0.07)">
     <use xlink:href="#ArialMT-59"/>
     <use xlink:href="#ArialMT-65" transform="translate(57.574219 0)"/>
     <use xlink:href="#ArialMT-73" transform="translate(113.189453 0)"/>
    </g>
   </g>
   <g id="text_27">
    <g id="patch_45">
     <path d="M 210.915456 425.155659 
L 219.863424 425.155659 
Q 220.913424 425.155659 220.913424 424.105659 
L 220.913424 417.703941 
Q 220.913424 416.653941 219.863424 416.653941 
L 210.915456 416.653941 
Q 209.865456 416.653941 209.865456 417.703941 
L 209.865456 424.105659 
Q 209.865456 425.155659 210.915456 425.155659 
z
" style="fill: #ffffff"/>
    </g>
    <!-- No -->
    <g style="fill: #28253d" transform="translate(210.915456 422.714409) scale(0.07 -0.07)">
     <use xlink:href="#ArialMT-4e"/>
     <use xlink:href="#ArialMT-6f" transform="translate(72.216797 0)"/>
    </g>
   </g>
   <g id="text_28">
    <g id="patch_46">
     <path d="M 311.314806 360.891627 
L 322.737931 360.891627 
Q 323.787931 360.891627 323.787931 359.841627 
L 323.787931 353.439909 
Q 323.787931 352.389909 322.737931 352.389909 
L 311.314806 352.389909 
Q 310.264806 352.389909 310.264806 353.439909 
L 310.264806 359.841627 
Q 310.264806 360.891627 311.314806 360.891627 
z
" style="fill: #ffffff"/>
    </g>
    <!-- Yes -->
    <g style="fill: #28253d" transform="translate(311.314806 358.450377) scale(0.07 -0.07)">
     <use xlink:href="#ArialMT-59"/>
     <use xlink:href="#ArialMT-65" transform="translate(57.574219 0)"/>
     <use xlink:href="#ArialMT-73" transform="translate(113.189453 0)"/>
    </g>
   </g>
   <g id="text_29">
    <g id="patch_47">
     <path d="M 268.760313 404.929477 
L 277.708282 404.929477 
Q 278.758282 404.929477 278.758282 403.879477 
L 278.758282 397.477758 
Q 278.758282 396.427758 277.708282 396.427758 
L 268.760313 396.427758 
Q 267.710313 396.427758 267.710313 397.477758 
L 267.710313 403.879477 
Q 267.710313 404.929477 268.760313 404.929477 
z
" style="fill: #ffffff"/>
    </g>
    <!-- No -->
    <g style="fill: #28253d" transform="translate(268.760313 402.488227) scale(0.07 -0.07)">
     <use xlink:href="#ArialMT-4e"/>
     <use xlink:href="#ArialMT-6f" transform="translate(72.216797 0)"/>
    </g>
   </g>
  </g>
  <g id="text_30">
   <!-- PTQ accuracy-gap decision guide -->
   <g transform="translate(111.640938 14.115703) scale(0.095 -0.095)">
    <defs>
     <path id="Arial-BoldMT-50" d="M 466 0 
L 466 4581 
L 1950 4581 
Q 2794 4581 3050 4513 
Q 3444 4409 3709 4064 
Q 3975 3719 3975 3172 
Q 3975 2750 3822 2462 
Q 3669 2175 3433 2011 
Q 3197 1847 2953 1794 
Q 2622 1728 1994 1728 
L 1391 1728 
L 1391 0 
L 466 0 
z
M 1391 3806 
L 1391 2506 
L 1897 2506 
Q 2444 2506 2628 2578 
Q 2813 2650 2917 2803 
Q 3022 2956 3022 3159 
Q 3022 3409 2875 3571 
Q 2728 3734 2503 3775 
Q 2338 3806 1838 3806 
L 1391 3806 
z
" transform="scale(0.015625)"/>
     <path id="Arial-BoldMT-54" d="M 1497 0 
L 1497 3806 
L 138 3806 
L 138 4581 
L 3778 4581 
L 3778 3806 
L 2422 3806 
L 2422 0 
L 1497 0 
z
" transform="scale(0.015625)"/>
     <path id="Arial-BoldMT-51" d="M 4153 581 
Q 4494 338 4894 194 
L 4553 -459 
Q 4344 -397 4144 -288 
Q 4100 -266 3528 119 
Q 3078 -78 2531 -78 
Q 1475 -78 876 544 
Q 278 1166 278 2291 
Q 278 3413 878 4036 
Q 1478 4659 2506 4659 
Q 3525 4659 4122 4036 
Q 4719 3413 4719 2291 
Q 4719 1697 4553 1247 
Q 4428 903 4153 581 
z
M 3409 1103 
Q 3588 1313 3677 1609 
Q 3766 1906 3766 2291 
Q 3766 3084 3416 3476 
Q 3066 3869 2500 3869 
Q 1934 3869 1582 3475 
Q 1231 3081 1231 2291 
Q 1231 1488 1582 1089 
Q 1934 691 2472 691 
Q 2672 691 2850 756 
Q 2569 941 2278 1044 
L 2538 1572 
Q 2994 1416 3409 1103 
z
" transform="scale(0.015625)"/>
     <path id="Arial-BoldMT-20" transform="scale(0.015625)"/>
     <path id="Arial-BoldMT-61" d="M 1116 2306 
L 319 2450 
Q 453 2931 781 3162 
Q 1109 3394 1756 3394 
Q 2344 3394 2631 3255 
Q 2919 3116 3036 2902 
Q 3153 2688 3153 2116 
L 3144 1091 
Q 3144 653 3186 445 
Q 3228 238 3344 0 
L 2475 0 
Q 2441 88 2391 259 
Q 2369 338 2359 363 
Q 2134 144 1878 34 
Q 1622 -75 1331 -75 
Q 819 -75 523 203 
Q 228 481 228 906 
Q 228 1188 362 1408 
Q 497 1628 739 1745 
Q 981 1863 1438 1950 
Q 2053 2066 2291 2166 
L 2291 2253 
Q 2291 2506 2166 2614 
Q 2041 2722 1694 2722 
Q 1459 2722 1328 2630 
Q 1197 2538 1116 2306 
z
M 2291 1594 
Q 2122 1538 1756 1459 
Q 1391 1381 1278 1306 
Q 1106 1184 1106 997 
Q 1106 813 1243 678 
Q 1381 544 1594 544 
Q 1831 544 2047 700 
Q 2206 819 2256 991 
Q 2291 1103 2291 1419 
L 2291 1594 
z
" transform="scale(0.015625)"/>
     <path id="Arial-BoldMT-63" d="M 3353 2338 
L 2488 2181 
Q 2444 2441 2289 2572 
Q 2134 2703 1888 2703 
Q 1559 2703 1364 2476 
Q 1169 2250 1169 1719 
Q 1169 1128 1367 884 
Q 1566 641 1900 641 
Q 2150 641 2309 783 
Q 2469 925 2534 1272 
L 3397 1125 
Q 3263 531 2881 228 
Q 2500 -75 1859 -75 
Q 1131 -75 698 384 
Q 266 844 266 1656 
Q 266 2478 700 2936 
Q 1134 3394 1875 3394 
Q 2481 3394 2839 3133 
Q 3197 2872 3353 2338 
z
" transform="scale(0.015625)"/>
     <path id="Arial-BoldMT-75" d="M 2644 0 
L 2644 497 
Q 2463 231 2167 78 
Q 1872 -75 1544 -75 
Q 1209 -75 943 72 
Q 678 219 559 484 
Q 441 750 441 1219 
L 441 3319 
L 1319 3319 
L 1319 1794 
Q 1319 1094 1367 936 
Q 1416 778 1544 686 
Q 1672 594 1869 594 
Q 2094 594 2272 717 
Q 2450 841 2515 1023 
Q 2581 1206 2581 1919 
L 2581 3319 
L 3459 3319 
L 3459 0 
L 2644 0 
z
" transform="scale(0.015625)"/>
     <path id="Arial-BoldMT-72" d="M 1300 0 
L 422 0 
L 422 3319 
L 1238 3319 
L 1238 2847 
Q 1447 3181 1614 3287 
Q 1781 3394 1994 3394 
Q 2294 3394 2572 3228 
L 2300 2463 
Q 2078 2606 1888 2606 
Q 1703 2606 1575 2504 
Q 1447 2403 1373 2137 
Q 1300 1872 1300 1025 
L 1300 0 
z
" transform="scale(0.015625)"/>
     <path id="Arial-BoldMT-79" d="M 44 3319 
L 978 3319 
L 1772 963 
L 2547 3319 
L 3456 3319 
L 2284 125 
L 2075 -453 
Q 1959 -744 1854 -897 
Q 1750 -1050 1614 -1145 
Q 1478 -1241 1279 -1294 
Q 1081 -1347 831 -1347 
Q 578 -1347 334 -1294 
L 256 -606 
Q 463 -647 628 -647 
Q 934 -647 1081 -467 
Q 1228 -288 1306 -9 
L 44 3319 
z
" transform="scale(0.015625)"/>
     <path id="Arial-BoldMT-2d" d="M 359 1222 
L 359 2100 
L 2084 2100 
L 2084 1222 
L 359 1222 
z
" transform="scale(0.015625)"/>
     <path id="Arial-BoldMT-67" d="M 378 -219 
L 1381 -341 
Q 1406 -516 1497 -581 
Q 1622 -675 1891 -675 
Q 2234 -675 2406 -572 
Q 2522 -503 2581 -350 
Q 2622 -241 2622 53 
L 2622 538 
Q 2228 0 1628 0 
Q 959 0 569 566 
Q 263 1013 263 1678 
Q 263 2513 664 2953 
Q 1066 3394 1663 3394 
Q 2278 3394 2678 2853 
L 2678 3319 
L 3500 3319 
L 3500 341 
Q 3500 -247 3403 -537 
Q 3306 -828 3131 -993 
Q 2956 -1159 2664 -1253 
Q 2372 -1347 1925 -1347 
Q 1081 -1347 728 -1058 
Q 375 -769 375 -325 
Q 375 -281 378 -219 
z
M 1163 1728 
Q 1163 1200 1367 954 
Q 1572 709 1872 709 
Q 2194 709 2416 961 
Q 2638 1213 2638 1706 
Q 2638 2222 2425 2472 
Q 2213 2722 1888 2722 
Q 1572 2722 1367 2476 
Q 1163 2231 1163 1728 
z
" transform="scale(0.015625)"/>
     <path id="Arial-BoldMT-70" d="M 434 3319 
L 1253 3319 
L 1253 2831 
Q 1413 3081 1684 3237 
Q 1956 3394 2288 3394 
Q 2866 3394 3269 2941 
Q 3672 2488 3672 1678 
Q 3672 847 3265 386 
Q 2859 -75 2281 -75 
Q 2006 -75 1782 34 
Q 1559 144 1313 409 
L 1313 -1263 
L 434 -1263 
L 434 3319 
z
M 1303 1716 
Q 1303 1156 1525 889 
Q 1747 622 2066 622 
Q 2372 622 2575 867 
Q 2778 1113 2778 1672 
Q 2778 2194 2568 2447 
Q 2359 2700 2050 2700 
Q 1728 2700 1515 2451 
Q 1303 2203 1303 1716 
z
" transform="scale(0.015625)"/>
     <path id="Arial-BoldMT-64" d="M 3503 0 
L 2688 0 
L 2688 488 
Q 2484 203 2207 64 
Q 1931 -75 1650 -75 
Q 1078 -75 670 386 
Q 263 847 263 1672 
Q 263 2516 659 2955 
Q 1056 3394 1663 3394 
Q 2219 3394 2625 2931 
L 2625 4581 
L 3503 4581 
L 3503 0 
z
M 1159 1731 
Q 1159 1200 1306 963 
Q 1519 619 1900 619 
Q 2203 619 2415 876 
Q 2628 1134 2628 1647 
Q 2628 2219 2422 2470 
Q 2216 2722 1894 2722 
Q 1581 2722 1370 2473 
Q 1159 2225 1159 1731 
z
" transform="scale(0.015625)"/>
     <path id="Arial-BoldMT-65" d="M 2381 1056 
L 3256 909 
Q 3088 428 2723 176 
Q 2359 -75 1813 -75 
Q 947 -75 531 491 
Q 203 944 203 1634 
Q 203 2459 634 2926 
Q 1066 3394 1725 3394 
Q 2466 3394 2894 2905 
Q 3322 2416 3303 1406 
L 1103 1406 
Q 1113 1016 1316 798 
Q 1519 581 1822 581 
Q 2028 581 2168 693 
Q 2309 806 2381 1056 
z
M 2431 1944 
Q 2422 2325 2234 2523 
Q 2047 2722 1778 2722 
Q 1491 2722 1303 2513 
Q 1116 2303 1119 1944 
L 2431 1944 
z
" transform="scale(0.015625)"/>
     <path id="Arial-BoldMT-69" d="M 459 3769 
L 459 4581 
L 1338 4581 
L 1338 3769 
L 459 3769 
z
M 459 0 
L 459 3319 
L 1338 3319 
L 1338 0 
L 459 0 
z
" transform="scale(0.015625)"/>
     <path id="Arial-BoldMT-73" d="M 150 947 
L 1031 1081 
Q 1088 825 1259 692 
Q 1431 559 1741 559 
Q 2081 559 2253 684 
Q 2369 772 2369 919 
Q 2369 1019 2306 1084 
Q 2241 1147 2013 1200 
Q 950 1434 666 1628 
Q 272 1897 272 2375 
Q 272 2806 612 3100 
Q 953 3394 1669 3394 
Q 2350 3394 2681 3172 
Q 3013 2950 3138 2516 
L 2309 2363 
Q 2256 2556 2107 2659 
Q 1959 2763 1684 2763 
Q 1338 2763 1188 2666 
Q 1088 2597 1088 2488 
Q 1088 2394 1175 2328 
Q 1294 2241 1995 2081 
Q 2697 1922 2975 1691 
Q 3250 1456 3250 1038 
Q 3250 581 2869 253 
Q 2488 -75 1741 -75 
Q 1063 -75 667 200 
Q 272 475 150 947 
z
" transform="scale(0.015625)"/>
     <path id="Arial-BoldMT-6f" d="M 256 1706 
Q 256 2144 472 2553 
Q 688 2963 1083 3178 
Q 1478 3394 1966 3394 
Q 2719 3394 3200 2905 
Q 3681 2416 3681 1669 
Q 3681 916 3195 420 
Q 2709 -75 1972 -75 
Q 1516 -75 1102 131 
Q 688 338 472 736 
Q 256 1134 256 1706 
z
M 1156 1659 
Q 1156 1166 1390 903 
Q 1625 641 1969 641 
Q 2313 641 2545 903 
Q 2778 1166 2778 1666 
Q 2778 2153 2545 2415 
Q 2313 2678 1969 2678 
Q 1625 2678 1390 2415 
Q 1156 2153 1156 1659 
z
" transform="scale(0.015625)"/>
     <path id="Arial-BoldMT-6e" d="M 3478 0 
L 2600 0 
L 2600 1694 
Q 2600 2231 2544 2389 
Q 2488 2547 2361 2634 
Q 2234 2722 2056 2722 
Q 1828 2722 1647 2597 
Q 1466 2472 1398 2265 
Q 1331 2059 1331 1503 
L 1331 0 
L 453 0 
L 453 3319 
L 1269 3319 
L 1269 2831 
Q 1703 3394 2363 3394 
Q 2653 3394 2893 3289 
Q 3134 3184 3257 3021 
Q 3381 2859 3429 2653 
Q 3478 2447 3478 2063 
L 3478 0 
z
" transform="scale(0.015625)"/>
    </defs>
    <use xlink:href="#Arial-BoldMT-50"/>
    <use xlink:href="#Arial-BoldMT-54" transform="translate(66.699219 0)"/>
    <use xlink:href="#Arial-BoldMT-51" transform="translate(127.783203 0)"/>
    <use xlink:href="#Arial-BoldMT-20" transform="translate(205.566406 0)"/>
    <use xlink:href="#Arial-BoldMT-61" transform="translate(233.349609 0)"/>
    <use xlink:href="#Arial-BoldMT-63" transform="translate(288.964844 0)"/>
    <use xlink:href="#Arial-BoldMT-63" transform="translate(344.580078 0)"/>
    <use xlink:href="#Arial-BoldMT-75" transform="translate(400.195312 0)"/>
    <use xlink:href="#Arial-BoldMT-72" transform="translate(461.279297 0)"/>
    <use xlink:href="#Arial-BoldMT-61" transform="translate(500.195312 0)"/>
    <use xlink:href="#Arial-BoldMT-63" transform="translate(555.810547 0)"/>
    <use xlink:href="#Arial-BoldMT-79" transform="translate(611.425781 0)"/>
    <use xlink:href="#Arial-BoldMT-2d" transform="translate(667.041016 0)"/>
    <use xlink:href="#Arial-BoldMT-67" transform="translate(700.341797 0)"/>
    <use xlink:href="#Arial-BoldMT-61" transform="translate(761.425781 0)"/>
    <use xlink:href="#Arial-BoldMT-70" transform="translate(817.041016 0)"/>
    <use xlink:href="#Arial-BoldMT-20" transform="translate(878.125 0)"/>
    <use xlink:href="#Arial-BoldMT-64" transform="translate(905.908203 0)"/>
    <use xlink:href="#Arial-BoldMT-65" transform="translate(966.992188 0)"/>
    <use xlink:href="#Arial-BoldMT-63" transform="translate(1022.607422 0)"/>
    <use xlink:href="#Arial-BoldMT-69" transform="translate(1078.222656 0)"/>
    <use xlink:href="#Arial-BoldMT-73" transform="translate(1106.005859 0)"/>
    <use xlink:href="#Arial-BoldMT-69" transform="translate(1161.621094 0)"/>
    <use xlink:href="#Arial-BoldMT-6f" transform="translate(1189.404297 0)"/>
    <use xlink:href="#Arial-BoldMT-6e" transform="translate(1250.488281 0)"/>
    <use xlink:href="#Arial-BoldMT-20" transform="translate(1311.572266 0)"/>
    <use xlink:href="#Arial-BoldMT-67" transform="translate(1339.355469 0)"/>
    <use xlink:href="#Arial-BoldMT-75" transform="translate(1400.439453 0)"/>
    <use xlink:href="#Arial-BoldMT-69" transform="translate(1461.523438 0)"/>
    <use xlink:href="#Arial-BoldMT-64" transform="translate(1489.306641 0)"/>
    <use xlink:href="#Arial-BoldMT-65" transform="translate(1550.390625 0)"/>
   </g>
  </g>
 </g>
 <defs>
  <clipPath id="p680478647a">
   <rect x="7.2" y="43.2" width="361.44" height="451.8"/>
  </clipPath>
 </defs>
</svg>
