<?xml version="1.0" encoding="utf-8" standalone="no"?>
<!DOCTYPE svg PUBLIC "-//W3C//DTD SVG 1.1//EN"
  "http://www.w3.org/Graphics/SVG/1.1/DTD/svg11.dtd">
<svg xmlns:xlink="http://www.w3.org/1999/xlink" width="720pt" height="288pt" viewBox="0 0 720 288" xmlns="http://www.w3.org/2000/svg" version="1.1">
 <metadata>
  <rdf:RDF xmlns:dc="http://purl.org/dc/elements/1.1/" xmlns:cc="http://creativecommons.org/ns#" xmlns:rdf="http://www.w3.org/1999/02/22-rdf-syntax-ns#">
   <cc:Work>
    <dc:type rdf:resource="http://purl.org/dc/dcmitype/StillImage"/>
    <dc:date>2026-02-08T22:36:02.703141</dc:date>
    <dc:format>image/svg+xml</dc:format>
    <dc:creator>
     <cc:Agent>
      <dc:title>Matplotlib v3.10.8, https://matplotlib.org/</dc:title>
     </cc:Agent>
    </dc:creator>
   </cc:Work>
  </rdf:RDF>
 </metadata>
 <defs>
  <style type="text/css">*{stroke-linejoin: round; stroke-linecap: butt}</style>
 </defs>
 <g id="figure_1">
  <g id="patch_1">
   <path d="M 0 288 
L 720 288 
L 720 0 
L 0 0 
z
" style="fill: #ffffff"/>
  </g>
  <g id="axes_1">
   <g id="patch_2">
    <path d="M 44.57 246.04 
L 709.2 246.04 
L 709.2 26.88 
L 44.57 26.88 
z
" style="fill: #ffffff"/>
   </g>
   <g id="patch_3">
    <path d="M 74.780455 246.04 
L 80.822553 246.04 
L 80.822553 245.759081 
L 74.780455 245.759081 
z
" clip-path="url(#p8f90342763)" style="fill: #4682b4; opacity: 0.7"/>
   </g>
   <g id="patch_4">
    <path d="M 80.822553 246.04 
L 86.864633 246.04 
L 86.864633 246.04 
L 80.822553 246.04 
z
" clip-path="url(#p8f90342763)" style="fill: #4682b4; opacity: 0.7"/>
   </g>
   <g id="patch_5">
    <path d="M 86.864633 246.04 
L 92.906732 246.04 
L 92.906732 246.04 
L 86.864633 246.04 
z
" clip-path="url(#p8f90342763)" style="fill: #4682b4; opacity: 0.7"/>
   </g>
   <g id="patch_6">
    <path d="M 92.906732 246.04 
L 98.948811 246.04 
L 98.948811 246.04 
L 92.906732 246.04 
z
" clip-path="url(#p8f90342763)" style="fill: #4682b4; opacity: 0.7"/>
   </g>
   <g id="patch_7">
    <path d="M 98.948811 246.04 
L 104.99091 246.04 
L 104.99091 245.94636 
L 98.948811 245.94636 
z
" clip-path="url(#p8f90342763)" style="fill: #4682b4; opacity: 0.7"/>
   </g>
   <g id="patch_8">
    <path d="M 104.99091 246.04 
L 111.03299 246.04 
L 111.03299 245.94636 
L 104.99091 245.94636 
z
" clip-path="url(#p8f90342763)" style="fill: #4682b4; opacity: 0.7"/>
   </g>
   <g id="patch_9">
    <path d="M 111.03299 246.04 
L 117.075088 246.04 
L 117.075088 245.94636 
L 111.03299 245.94636 
z
" clip-path="url(#p8f90342763)" style="fill: #4682b4; opacity: 0.7"/>
   </g>
   <g id="patch_10">
    <path d="M 117.075088 246.04 
L 123.117187 246.04 
L 123.117187 246.04 
L 117.075088 246.04 
z
" clip-path="url(#p8f90342763)" style="fill: #4682b4; opacity: 0.7"/>
   </g>
   <g id="patch_11">
    <path d="M 123.117187 246.04 
L 129.159267 246.04 
L 129.159267 245.94636 
L 123.117187 245.94636 
z
" clip-path="url(#p8f90342763)" style="fill: #4682b4; opacity: 0.7"/>
   </g>
   <g id="patch_12">
    <path d="M 129.159267 246.04 
L 135.201366 246.04 
L 135.201366 246.04 
L 129.159267 246.04 
z
" clip-path="url(#p8f90342763)" style="fill: #4682b4; opacity: 0.7"/>
   </g>
   <g id="patch_13">
    <path d="M 135.201366 246.04 
L 141.243445 246.04 
L 141.243445 245.66544 
L 135.201366 245.66544 
z
" clip-path="url(#p8f90342763)" style="fill: #4682b4; opacity: 0.7"/>
   </g>
   <g id="patch_14">
    <path d="M 141.243445 246.04 
L 147.285544 246.04 
L 147.285544 245.94636 
L 141.243445 245.94636 
z
" clip-path="url(#p8f90342763)" style="fill: #4682b4; opacity: 0.7"/>
   </g>
   <g id="patch_15">
    <path d="M 147.285544 246.04 
L 153.327643 246.04 
L 153.327643 245.290882 
L 147.285544 245.290882 
z
" clip-path="url(#p8f90342763)" style="fill: #4682b4; opacity: 0.7"/>
   </g>
   <g id="patch_16">
    <path d="M 153.327643 246.04 
L 159.369742 246.04 
L 159.369742 245.759081 
L 153.327643 245.759081 
z
" clip-path="url(#p8f90342763)" style="fill: #4682b4; opacity: 0.7"/>
   </g>
   <g id="patch_17">
    <path d="M 159.369742 246.04 
L 165.411821 246.04 
L 165.411821 245.478159 
L 159.369742 245.478159 
z
" clip-path="url(#p8f90342763)" style="fill: #4682b4; opacity: 0.7"/>
   </g>
   <g id="patch_18">
    <path d="M 165.411821 246.04 
L 171.453901 246.04 
L 171.453901 245.75908 
L 165.411821 245.75908 
z
" clip-path="url(#p8f90342763)" style="fill: #4682b4; opacity: 0.7"/>
   </g>
   <g id="patch_19">
    <path d="M 171.453901 246.04 
L 177.495999 246.04 
L 177.495999 245.571801 
L 171.453901 245.571801 
z
" clip-path="url(#p8f90342763)" style="fill: #4682b4; opacity: 0.7"/>
   </g>
   <g id="patch_20">
    <path d="M 177.495999 246.04 
L 183.538098 246.04 
L 183.538098 245.478161 
L 177.495999 245.478161 
z
" clip-path="url(#p8f90342763)" style="fill: #4682b4; opacity: 0.7"/>
   </g>
   <g id="patch_21">
    <path d="M 183.538098 246.04 
L 189.580187 246.04 
L 189.580187 245.38452 
L 183.538098 245.38452 
z
" clip-path="url(#p8f90342763)" style="fill: #4682b4; opacity: 0.7"/>
   </g>
   <g id="patch_22">
    <path d="M 189.580187 246.04 
L 195.622277 246.04 
L 195.622277 245.75908 
L 189.580187 245.75908 
z
" clip-path="url(#p8f90342763)" style="fill: #4682b4; opacity: 0.7"/>
   </g>
   <g id="patch_23">
    <path d="M 195.622277 246.04 
L 201.664366 246.04 
L 201.664366 245.19724 
L 195.622277 245.19724 
z
" clip-path="url(#p8f90342763)" style="fill: #4682b4; opacity: 0.7"/>
   </g>
   <g id="patch_24">
    <path d="M 201.664366 246.04 
L 207.706455 246.04 
L 207.706455 244.635401 
L 201.664366 244.635401 
z
" clip-path="url(#p8f90342763)" style="fill: #4682b4; opacity: 0.7"/>
   </g>
   <g id="patch_25">
    <path d="M 207.706455 246.04 
L 213.748544 246.04 
L 213.748544 244.635401 
L 207.706455 244.635401 
z
" clip-path="url(#p8f90342763)" style="fill: #4682b4; opacity: 0.7"/>
   </g>
   <g id="patch_26">
    <path d="M 213.748544 246.04 
L 219.790633 246.04 
L 219.790633 244.635401 
L 213.748544 244.635401 
z
" clip-path="url(#p8f90342763)" style="fill: #4682b4; opacity: 0.7"/>
   </g>
   <g id="patch_27">
    <path d="M 219.790633 246.04 
L 225.832732 246.04 
L 225.832732 245.009962 
L 219.790633 245.009962 
z
" clip-path="url(#p8f90342763)" style="fill: #4682b4; opacity: 0.7"/>
   </g>
   <g id="patch_28">
    <path d="M 225.832732 246.04 
L 231.874821 246.04 
L 231.874821 244.167201 
L 225.832732 244.167201 
z
" clip-path="url(#p8f90342763)" style="fill: #4682b4; opacity: 0.7"/>
   </g>
   <g id="patch_29">
    <path d="M 231.874821 246.04 
L 237.91691 246.04 
L 237.91691 244.354481 
L 231.874821 244.354481 
z
" clip-path="url(#p8f90342763)" style="fill: #4682b4; opacity: 0.7"/>
   </g>
   <g id="patch_30">
    <path d="M 237.91691 246.04 
L 243.959009 246.04 
L 243.959009 244.354483 
L 237.91691 244.354483 
z
" clip-path="url(#p8f90342763)" style="fill: #4682b4; opacity: 0.7"/>
   </g>
   <g id="patch_31">
    <path d="M 243.959009 246.04 
L 250.001089 246.04 
L 250.001089 242.856236 
L 243.959009 242.856236 
z
" clip-path="url(#p8f90342763)" style="fill: #4682b4; opacity: 0.7"/>
   </g>
   <g id="patch_32">
    <path d="M 250.001089 246.04 
L 256.043188 246.04 
L 256.043188 243.511725 
L 250.001089 243.511725 
z
" clip-path="url(#p8f90342763)" style="fill: #4682b4; opacity: 0.7"/>
   </g>
   <g id="patch_33">
    <path d="M 256.043188 246.04 
L 262.085267 246.04 
L 262.085267 241.545275 
L 256.043188 241.545275 
z
" clip-path="url(#p8f90342763)" style="fill: #4682b4; opacity: 0.7"/>
   </g>
   <g id="patch_34">
    <path d="M 262.085267 246.04 
L 268.127366 246.04 
L 268.127366 240.702531 
L 262.085267 240.702531 
z
" clip-path="url(#p8f90342763)" style="fill: #4682b4; opacity: 0.7"/>
   </g>
   <g id="patch_35">
    <path d="M 268.127366 246.04 
L 274.169465 246.04 
L 274.169465 241.545289 
L 268.127366 241.545289 
z
" clip-path="url(#p8f90342763)" style="fill: #4682b4; opacity: 0.7"/>
   </g>
   <g id="patch_36">
    <path d="M 274.169465 246.04 
L 280.211544 246.04 
L 280.211544 239.485192 
L 274.169465 239.485192 
z
" clip-path="url(#p8f90342763)" style="fill: #4682b4; opacity: 0.7"/>
   </g>
   <g id="patch_37">
    <path d="M 280.211544 246.04 
L 286.253643 246.04 
L 286.253643 239.204294 
L 280.211544 239.204294 
z
" clip-path="url(#p8f90342763)" style="fill: #4682b4; opacity: 0.7"/>
   </g>
   <g id="patch_38">
    <path d="M 286.253643 246.04 
L 292.295723 246.04 
L 292.295723 237.237829 
L 286.253643 237.237829 
z
" clip-path="url(#p8f90342763)" style="fill: #4682b4; opacity: 0.7"/>
   </g>
   <g id="patch_39">
    <path d="M 292.295723 246.04 
L 298.337821 246.04 
L 298.337821 237.144218 
L 292.295723 237.144218 
z
" clip-path="url(#p8f90342763)" style="fill: #4682b4; opacity: 0.7"/>
   </g>
   <g id="patch_40">
    <path d="M 298.337821 246.04 
L 304.37992 246.04 
L 304.37992 233.304986 
L 298.337821 233.304986 
z
" clip-path="url(#p8f90342763)" style="fill: #4682b4; opacity: 0.7"/>
   </g>
   <g id="patch_41">
    <path d="M 304.37992 246.04 
L 310.422 246.04 
L 310.422 229.840261 
L 304.37992 229.840261 
z
" clip-path="url(#p8f90342763)" style="fill: #4682b4; opacity: 0.7"/>
   </g>
   <g id="patch_42">
    <path d="M 310.422 246.04 
L 316.464099 246.04 
L 316.464099 230.027592 
L 310.422 230.027592 
z
" clip-path="url(#p8f90342763)" style="fill: #4682b4; opacity: 0.7"/>
   </g>
   <g id="patch_43">
    <path d="M 316.464099 246.04 
L 322.506178 246.04 
L 322.506178 223.098173 
L 316.464099 223.098173 
z
" clip-path="url(#p8f90342763)" style="fill: #4682b4; opacity: 0.7"/>
   </g>
   <g id="patch_44">
    <path d="M 322.506178 246.04 
L 328.548277 246.04 
L 328.548277 221.600009 
L 322.506178 221.600009 
z
" clip-path="url(#p8f90342763)" style="fill: #4682b4; opacity: 0.7"/>
   </g>
   <g id="patch_45">
    <path d="M 328.548277 246.04 
L 334.590376 246.04 
L 334.590376 206.898559 
L 328.548277 206.898559 
z
" clip-path="url(#p8f90342763)" style="fill: #4682b4; opacity: 0.7"/>
   </g>
   <g id="patch_46">
    <path d="M 334.590376 246.04 
L 340.632455 246.04 
L 340.632455 188.076771 
L 334.590376 188.076771 
z
" clip-path="url(#p8f90342763)" style="fill: #4682b4; opacity: 0.7"/>
   </g>
   <g id="patch_47">
    <path d="M 340.632455 246.04 
L 346.674554 246.04 
L 346.674554 160.078653 
L 340.632455 160.078653 
z
" clip-path="url(#p8f90342763)" style="fill: #4682b4; opacity: 0.7"/>
   </g>
   <g id="patch_48">
    <path d="M 346.674554 246.04 
L 352.716634 246.04 
L 352.716634 37.31619 
L 346.674554 37.31619 
z
" clip-path="url(#p8f90342763)" style="fill: #4682b4; opacity: 0.7"/>
   </g>
   <g id="patch_49">
    <path d="M 352.716634 246.04 
L 358.758733 246.04 
L 358.758733 162.700567 
L 352.716634 162.700567 
z
" clip-path="url(#p8f90342763)" style="fill: #4682b4; opacity: 0.7"/>
   </g>
   <g id="patch_50">
    <path d="M 358.758733 246.04 
L 364.800812 246.04 
L 364.800812 189.200452 
L 358.758733 189.200452 
z
" clip-path="url(#p8f90342763)" style="fill: #4682b4; opacity: 0.7"/>
   </g>
   <g id="patch_51">
    <path d="M 364.800812 246.04 
L 370.842911 246.04 
L 370.842911 206.24308 
L 364.800812 206.24308 
z
" clip-path="url(#p8f90342763)" style="fill: #4682b4; opacity: 0.7"/>
   </g>
   <g id="patch_52">
    <path d="M 370.842911 246.04 
L 376.88501 246.04 
L 376.88501 216.543459 
L 370.842911 216.543459 
z
" clip-path="url(#p8f90342763)" style="fill: #4682b4; opacity: 0.7"/>
   </g>
   <g id="patch_53">
    <path d="M 376.88501 246.04 
L 382.927089 246.04 
L 382.927089 225.626456 
L 376.88501 225.626456 
z
" clip-path="url(#p8f90342763)" style="fill: #4682b4; opacity: 0.7"/>
   </g>
   <g id="patch_54">
    <path d="M 382.927089 246.04 
L 388.969188 246.04 
L 388.969188 231.33855 
L 382.927089 231.33855 
z
" clip-path="url(#p8f90342763)" style="fill: #4682b4; opacity: 0.7"/>
   </g>
   <g id="patch_55">
    <path d="M 388.969188 246.04 
L 395.011267 246.04 
L 395.011267 232.836744 
L 388.969188 232.836744 
z
" clip-path="url(#p8f90342763)" style="fill: #4682b4; opacity: 0.7"/>
   </g>
   <g id="patch_56">
    <path d="M 395.011267 246.04 
L 401.053366 246.04 
L 401.053366 234.615943 
L 395.011267 234.615943 
z
" clip-path="url(#p8f90342763)" style="fill: #4682b4; opacity: 0.7"/>
   </g>
   <g id="patch_57">
    <path d="M 401.053366 246.04 
L 407.095465 246.04 
L 407.095465 237.331497 
L 401.053366 237.331497 
z
" clip-path="url(#p8f90342763)" style="fill: #4682b4; opacity: 0.7"/>
   </g>
   <g id="patch_58">
    <path d="M 407.095465 246.04 
L 413.137564 246.04 
L 413.137564 238.080616 
L 407.095465 238.080616 
z
" clip-path="url(#p8f90342763)" style="fill: #4682b4; opacity: 0.7"/>
   </g>
   <g id="patch_59">
    <path d="M 413.137564 246.04 
L 419.179624 246.04 
L 419.179624 240.796137 
L 413.137564 240.796137 
z
" clip-path="url(#p8f90342763)" style="fill: #4682b4; opacity: 0.7"/>
   </g>
   <g id="patch_60">
    <path d="M 419.179624 246.04 
L 425.221723 246.04 
L 425.221723 240.98345 
L 419.179624 240.98345 
z
" clip-path="url(#p8f90342763)" style="fill: #4682b4; opacity: 0.7"/>
   </g>
   <g id="patch_61">
    <path d="M 425.221723 246.04 
L 431.263822 246.04 
L 431.263822 241.638929 
L 425.221723 241.638929 
z
" clip-path="url(#p8f90342763)" style="fill: #4682b4; opacity: 0.7"/>
   </g>
   <g id="patch_62">
    <path d="M 431.263822 246.04 
L 437.305921 246.04 
L 437.305921 241.826208 
L 431.263822 241.826208 
z
" clip-path="url(#p8f90342763)" style="fill: #4682b4; opacity: 0.7"/>
   </g>
   <g id="patch_63">
    <path d="M 437.305921 246.04 
L 443.34802 246.04 
L 443.34802 243.043526 
L 437.305921 243.043526 
z
" clip-path="url(#p8f90342763)" style="fill: #4682b4; opacity: 0.7"/>
   </g>
   <g id="patch_64">
    <path d="M 443.34802 246.04 
L 449.39008 246.04 
L 449.39008 243.69899 
L 443.34802 243.69899 
z
" clip-path="url(#p8f90342763)" style="fill: #4682b4; opacity: 0.7"/>
   </g>
   <g id="patch_65">
    <path d="M 449.39008 246.04 
L 455.432179 246.04 
L 455.432179 243.418085 
L 449.39008 243.418085 
z
" clip-path="url(#p8f90342763)" style="fill: #4682b4; opacity: 0.7"/>
   </g>
   <g id="patch_66">
    <path d="M 455.432179 246.04 
L 461.474277 246.04 
L 461.474277 243.979924 
L 455.432179 243.979924 
z
" clip-path="url(#p8f90342763)" style="fill: #4682b4; opacity: 0.7"/>
   </g>
   <g id="patch_67">
    <path d="M 461.474277 246.04 
L 467.516376 246.04 
L 467.516376 243.792645 
L 461.474277 243.792645 
z
" clip-path="url(#p8f90342763)" style="fill: #4682b4; opacity: 0.7"/>
   </g>
   <g id="patch_68">
    <path d="M 467.516376 246.04 
L 473.558475 246.04 
L 473.558475 244.541763 
L 467.516376 244.541763 
z
" clip-path="url(#p8f90342763)" style="fill: #4682b4; opacity: 0.7"/>
   </g>
   <g id="patch_69">
    <path d="M 473.558475 246.04 
L 479.600535 246.04 
L 479.600535 245.009955 
L 473.558475 245.009955 
z
" clip-path="url(#p8f90342763)" style="fill: #4682b4; opacity: 0.7"/>
   </g>
   <g id="patch_70">
    <path d="M 479.600535 246.04 
L 485.642634 246.04 
L 485.642634 244.916322 
L 479.600535 244.916322 
z
" clip-path="url(#p8f90342763)" style="fill: #4682b4; opacity: 0.7"/>
   </g>
   <g id="patch_71">
    <path d="M 485.642634 246.04 
L 491.684733 246.04 
L 491.684733 244.541763 
L 485.642634 244.541763 
z
" clip-path="url(#p8f90342763)" style="fill: #4682b4; opacity: 0.7"/>
   </g>
   <g id="patch_72">
    <path d="M 491.684733 246.04 
L 497.726832 246.04 
L 497.726832 244.916322 
L 491.684733 244.916322 
z
" clip-path="url(#p8f90342763)" style="fill: #4682b4; opacity: 0.7"/>
   </g>
   <g id="patch_73">
    <path d="M 497.726832 246.04 
L 503.768931 246.04 
L 503.768931 245.384521 
L 497.726832 245.384521 
z
" clip-path="url(#p8f90342763)" style="fill: #4682b4; opacity: 0.7"/>
   </g>
   <g id="patch_74">
    <path d="M 503.768931 246.04 
L 509.810991 246.04 
L 509.810991 245.290877 
L 503.768931 245.290877 
z
" clip-path="url(#p8f90342763)" style="fill: #4682b4; opacity: 0.7"/>
   </g>
   <g id="patch_75">
    <path d="M 509.810991 246.04 
L 515.85309 246.04 
L 515.85309 245.197242 
L 509.810991 245.197242 
z
" clip-path="url(#p8f90342763)" style="fill: #4682b4; opacity: 0.7"/>
   </g>
   <g id="patch_76">
    <path d="M 515.85309 246.04 
L 521.895188 246.04 
L 521.895188 245.665441 
L 515.85309 245.665441 
z
" clip-path="url(#p8f90342763)" style="fill: #4682b4; opacity: 0.7"/>
   </g>
   <g id="patch_77">
    <path d="M 521.895188 246.04 
L 527.937287 246.04 
L 527.937287 245.85272 
L 521.895188 245.85272 
z
" clip-path="url(#p8f90342763)" style="fill: #4682b4; opacity: 0.7"/>
   </g>
   <g id="patch_78">
    <path d="M 527.937287 246.04 
L 533.979386 246.04 
L 533.979386 245.759081 
L 527.937287 245.759081 
z
" clip-path="url(#p8f90342763)" style="fill: #4682b4; opacity: 0.7"/>
   </g>
   <g id="patch_79">
    <path d="M 533.979386 246.04 
L 540.021446 246.04 
L 540.021446 245.478158 
L 533.979386 245.478158 
z
" clip-path="url(#p8f90342763)" style="fill: #4682b4; opacity: 0.7"/>
   </g>
   <g id="patch_80">
    <path d="M 540.021446 246.04 
L 546.063545 246.04 
L 546.063545 245.759081 
L 540.021446 245.759081 
z
" clip-path="url(#p8f90342763)" style="fill: #4682b4; opacity: 0.7"/>
   </g>
   <g id="patch_81">
    <path d="M 546.063545 246.04 
L 552.105644 246.04 
L 552.105644 245.85272 
L 546.063545 245.85272 
z
" clip-path="url(#p8f90342763)" style="fill: #4682b4; opacity: 0.7"/>
   </g>
   <g id="patch_82">
    <path d="M 552.105644 246.04 
L 558.147743 246.04 
L 558.147743 245.85272 
L 552.105644 245.85272 
z
" clip-path="url(#p8f90342763)" style="fill: #4682b4; opacity: 0.7"/>
   </g>
   <g id="patch_83">
    <path d="M 558.147743 246.04 
L 564.189842 246.04 
L 564.189842 245.478161 
L 558.147743 245.478161 
z
" clip-path="url(#p8f90342763)" style="fill: #4682b4; opacity: 0.7"/>
   </g>
   <g id="patch_84">
    <path d="M 564.189842 246.04 
L 570.231902 246.04 
L 570.231902 245.759079 
L 564.189842 245.759079 
z
" clip-path="url(#p8f90342763)" style="fill: #4682b4; opacity: 0.7"/>
   </g>
   <g id="patch_85">
    <path d="M 570.231902 246.04 
L 576.274001 246.04 
L 576.274001 246.04 
L 570.231902 246.04 
z
" clip-path="url(#p8f90342763)" style="fill: #4682b4; opacity: 0.7"/>
   </g>
   <g id="patch_86">
    <path d="M 576.274001 246.04 
L 582.316099 246.04 
L 582.316099 245.85272 
L 576.274001 245.85272 
z
" clip-path="url(#p8f90342763)" style="fill: #4682b4; opacity: 0.7"/>
   </g>
   <g id="patch_87">
    <path d="M 582.316099 246.04 
L 588.358198 246.04 
L 588.358198 245.94636 
L 582.316099 245.94636 
z
" clip-path="url(#p8f90342763)" style="fill: #4682b4; opacity: 0.7"/>
   </g>
   <g id="patch_88">
    <path d="M 588.358198 246.04 
L 594.400297 246.04 
L 594.400297 245.94636 
L 588.358198 245.94636 
z
" clip-path="url(#p8f90342763)" style="fill: #4682b4; opacity: 0.7"/>
   </g>
   <g id="patch_89">
    <path d="M 594.400297 246.04 
L 600.442357 246.04 
L 600.442357 245.852719 
L 594.400297 245.852719 
z
" clip-path="url(#p8f90342763)" style="fill: #4682b4; opacity: 0.7"/>
   </g>
   <g id="patch_90">
    <path d="M 600.442357 246.04 
L 606.484456 246.04 
L 606.484456 246.04 
L 600.442357 246.04 
z
" clip-path="url(#p8f90342763)" style="fill: #4682b4; opacity: 0.7"/>
   </g>
   <g id="patch_91">
    <path d="M 606.484456 246.04 
L 612.526555 246.04 
L 612.526555 246.04 
L 606.484456 246.04 
z
" clip-path="url(#p8f90342763)" style="fill: #4682b4; opacity: 0.7"/>
   </g>
   <g id="patch_92">
    <path d="M 612.526555 246.04 
L 618.568654 246.04 
L 618.568654 246.04 
L 612.526555 246.04 
z
" clip-path="url(#p8f90342763)" style="fill: #4682b4; opacity: 0.7"/>
   </g>
   <g id="patch_93">
    <path d="M 618.568654 246.04 
L 624.610753 246.04 
L 624.610753 246.04 
L 618.568654 246.04 
z
" clip-path="url(#p8f90342763)" style="fill: #4682b4; opacity: 0.7"/>
   </g>
   <g id="patch_94">
    <path d="M 624.610753 246.04 
L 630.652813 246.04 
L 630.652813 246.04 
L 624.610753 246.04 
z
" clip-path="url(#p8f90342763)" style="fill: #4682b4; opacity: 0.7"/>
   </g>
   <g id="patch_95">
    <path d="M 630.652813 246.04 
L 636.694912 246.04 
L 636.694912 246.04 
L 630.652813 246.04 
z
" clip-path="url(#p8f90342763)" style="fill: #4682b4; opacity: 0.7"/>
   </g>
   <g id="patch_96">
    <path d="M 636.694912 246.04 
L 642.73701 246.04 
L 642.73701 246.04 
L 636.694912 246.04 
z
" clip-path="url(#p8f90342763)" style="fill: #4682b4; opacity: 0.7"/>
   </g>
   <g id="patch_97">
    <path d="M 642.73701 246.04 
L 648.779109 246.04 
L 648.779109 246.04 
L 642.73701 246.04 
z
" clip-path="url(#p8f90342763)" style="fill: #4682b4; opacity: 0.7"/>
   </g>
   <g id="patch_98">
    <path d="M 648.779109 246.04 
L 654.821169 246.04 
L 654.821169 246.04 
L 648.779109 246.04 
z
" clip-path="url(#p8f90342763)" style="fill: #4682b4; opacity: 0.7"/>
   </g>
   <g id="patch_99">
    <path d="M 654.821169 246.04 
L 660.863268 246.04 
L 660.863268 246.04 
L 654.821169 246.04 
z
" clip-path="url(#p8f90342763)" style="fill: #4682b4; opacity: 0.7"/>
   </g>
   <g id="patch_100">
    <path d="M 660.863268 246.04 
L 666.905367 246.04 
L 666.905367 246.04 
L 660.863268 246.04 
z
" clip-path="url(#p8f90342763)" style="fill: #4682b4; opacity: 0.7"/>
   </g>
   <g id="patch_101">
    <path d="M 666.905367 246.04 
L 672.947466 246.04 
L 672.947466 245.94636 
L 666.905367 245.94636 
z
" clip-path="url(#p8f90342763)" style="fill: #4682b4; opacity: 0.7"/>
   </g>
   <g id="patch_102">
    <path d="M 672.947466 246.04 
L 678.989545 246.04 
L 678.989545 245.75908 
L 672.947466 245.75908 
z
" clip-path="url(#p8f90342763)" style="fill: #4682b4; opacity: 0.7"/>
   </g>
   <g id="matplotlib.axis_1">
    <g id="xtick_1">
     <g id="line2d_1">
      <defs>
       <path id="ma7f3635fa0" d="M 0 0 
L 0 3.5 
" style="stroke: #000000; stroke-width: 0.8"/>
      </defs>
      <g>
       <use xlink:href="#ma7f3635fa0" x="105.116716" y="246.04" style="stroke: #000000; stroke-width: 0.8"/>
      </g>
     </g>
     <g id="text_1">
      <!-- −0.75 -->
      <g transform="translate(89.79406 260.638438) scale(0.1 -0.1)">
       <defs>
        <path id="DejaVuSans-2212" d="M 678 2272 
L 4684 2272 
L 4684 1741 
L 678 1741 
L 678 2272 
z
" transform="scale(0.015625)"/>
        <path id="DejaVuSans-30" d="M 2034 4250 
Q 1547 4250 1301 3770 
Q 1056 3291 1056 2328 
Q 1056 1369 1301 889 
Q 1547 409 2034 409 
Q 2525 409 2770 889 
Q 3016 1369 3016 2328 
Q 3016 3291 2770 3770 
Q 2525 4250 2034 4250 
z
M 2034 4750 
Q 2819 4750 3233 4129 
Q 3647 3509 3647 2328 
Q 3647 1150 3233 529 
Q 2819 -91 2034 -91 
Q 1250 -91 836 529 
Q 422 1150 422 2328 
Q 422 3509 836 4129 
Q 1250 4750 2034 4750 
z
" transform="scale(0.015625)"/>
        <path id="DejaVuSans-2e" d="M 684 794 
L 1344 794 
L 1344 0 
L 684 0 
L 684 794 
z
" transform="scale(0.015625)"/>
        <path id="DejaVuSans-37" d="M 525 4666 
L 3525 4666 
L 3525 4397 
L 1831 0 
L 1172 0 
L 2766 4134 
L 525 4134 
L 525 4666 
z
" transform="scale(0.015625)"/>
        <path id="DejaVuSans-35" d="M 691 4666 
L 3169 4666 
L 3169 4134 
L 1269 4134 
L 1269 2991 
Q 1406 3038 1543 3061 
Q 1681 3084 1819 3084 
Q 2600 3084 3056 2656 
Q 3513 2228 3513 1497 
Q 3513 744 3044 326 
Q 2575 -91 1722 -91 
Q 1428 -91 1123 -41 
Q 819 9 494 109 
L 494 744 
Q 775 591 1075 516 
Q 1375 441 1709 441 
Q 2250 441 2565 725 
Q 2881 1009 2881 1497 
Q 2881 1984 2565 2268 
Q 2250 2553 1709 2553 
Q 1456 2553 1204 2497 
Q 953 2441 691 2322 
L 691 4666 
z
" transform="scale(0.015625)"/>
       </defs>
       <use xlink:href="#DejaVuSans-2212"/>
       <use xlink:href="#DejaVuSans-30" transform="translate(83.789062 0)"/>
       <use xlink:href="#DejaVuSans-2e" transform="translate(147.412109 0)"/>
       <use xlink:href="#DejaVuSans-37" transform="translate(179.199219 0)"/>
       <use xlink:href="#DejaVuSans-35" transform="translate(242.822266 0)"/>
      </g>
     </g>
    </g>
    <g id="xtick_2">
     <g id="line2d_2">
      <g>
       <use xlink:href="#ma7f3635fa0" x="186.334025" y="246.04" style="stroke: #000000; stroke-width: 0.8"/>
      </g>
     </g>
     <g id="text_2">
      <!-- −0.50 -->
      <g transform="translate(171.011369 260.638438) scale(0.1 -0.1)">
       <use xlink:href="#DejaVuSans-2212"/>
       <use xlink:href="#DejaVuSans-30" transform="translate(83.789062 0)"/>
       <use xlink:href="#DejaVuSans-2e" transform="translate(147.412109 0)"/>
       <use xlink:href="#DejaVuSans-35" transform="translate(179.199219 0)"/>
       <use xlink:href="#DejaVuSans-30" transform="translate(242.822266 0)"/>
      </g>
     </g>
    </g>
    <g id="xtick_3">
     <g id="line2d_3">
      <g>
       <use xlink:href="#ma7f3635fa0" x="267.551334" y="246.04" style="stroke: #000000; stroke-width: 0.8"/>
      </g>
     </g>
     <g id="text_3">
      <!-- −0.25 -->
      <g transform="translate(252.228678 260.638438) scale(0.1 -0.1)">
       <defs>
        <path id="DejaVuSans-32" d="M 1228 531 
L 3431 531 
L 3431 0 
L 469 0 
L 469 531 
Q 828 903 1448 1529 
Q 2069 2156 2228 2338 
Q 2531 2678 2651 2914 
Q 2772 3150 2772 3378 
Q 2772 3750 2511 3984 
Q 2250 4219 1831 4219 
Q 1534 4219 1204 4116 
Q 875 4013 500 3803 
L 500 4441 
Q 881 4594 1212 4672 
Q 1544 4750 1819 4750 
Q 2544 4750 2975 4387 
Q 3406 4025 3406 3419 
Q 3406 3131 3298 2873 
Q 3191 2616 2906 2266 
Q 2828 2175 2409 1742 
Q 1991 1309 1228 531 
z
" transform="scale(0.015625)"/>
       </defs>
       <use xlink:href="#DejaVuSans-2212"/>
       <use xlink:href="#DejaVuSans-30" transform="translate(83.789062 0)"/>
       <use xlink:href="#DejaVuSans-2e" transform="translate(147.412109 0)"/>
       <use xlink:href="#DejaVuSans-32" transform="translate(179.199219 0)"/>
       <use xlink:href="#DejaVuSans-35" transform="translate(242.822266 0)"/>
      </g>
     </g>
    </g>
    <g id="xtick_4">
     <g id="line2d_4">
      <g>
       <use xlink:href="#ma7f3635fa0" x="348.768643" y="246.04" style="stroke: #000000; stroke-width: 0.8"/>
      </g>
     </g>
     <g id="text_4">
      <!-- 0.00 -->
      <g transform="translate(337.635831 260.638438) scale(0.1 -0.1)">
       <use xlink:href="#DejaVuSans-30"/>
       <use xlink:href="#DejaVuSans-2e" transform="translate(63.623047 0)"/>
       <use xlink:href="#DejaVuSans-30" transform="translate(95.410156 0)"/>
       <use xlink:href="#DejaVuSans-30" transform="translate(159.033203 0)"/>
      </g>
     </g>
    </g>
    <g id="xtick_5">
     <g id="line2d_5">
      <g>
       <use xlink:href="#ma7f3635fa0" x="429.985952" y="246.04" style="stroke: #000000; stroke-width: 0.8"/>
      </g>
     </g>
     <g id="text_5">
      <!-- 0.25 -->
      <g transform="translate(418.85314 260.638438) scale(0.1 -0.1)">
       <use xlink:href="#DejaVuSans-30"/>
       <use xlink:href="#DejaVuSans-2e" transform="translate(63.623047 0)"/>
       <use xlink:href="#DejaVuSans-32" transform="translate(95.410156 0)"/>
       <use xlink:href="#DejaVuSans-35" transform="translate(159.033203 0)"/>
      </g>
     </g>
    </g>
    <g id="xtick_6">
     <g id="line2d_6">
      <g>
       <use xlink:href="#ma7f3635fa0" x="511.203261" y="246.04" style="stroke: #000000; stroke-width: 0.8"/>
      </g>
     </g>
     <g id="text_6">
      <!-- 0.50 -->
      <g transform="translate(500.070449 260.638438) scale(0.1 -0.1)">
       <use xlink:href="#DejaVuSans-30"/>
       <use xlink:href="#DejaVuSans-2e" transform="translate(63.623047 0)"/>
       <use xlink:href="#DejaVuSans-35" transform="translate(95.410156 0)"/>
       <use xlink:href="#DejaVuSans-30" transform="translate(159.033203 0)"/>
      </g>
     </g>
    </g>
    <g id="xtick_7">
     <g id="line2d_7">
      <g>
       <use xlink:href="#ma7f3635fa0" x="592.42057" y="246.04" style="stroke: #000000; stroke-width: 0.8"/>
      </g>
     </g>
     <g id="text_7">
      <!-- 0.75 -->
      <g transform="translate(581.287758 260.638438) scale(0.1 -0.1)">
       <use xlink:href="#DejaVuSans-30"/>
       <use xlink:href="#DejaVuSans-2e" transform="translate(63.623047 0)"/>
       <use xlink:href="#DejaVuSans-37" transform="translate(95.410156 0)"/>
       <use xlink:href="#DejaVuSans-35" transform="translate(159.033203 0)"/>
      </g>
     </g>
    </g>
    <g id="xtick_8">
     <g id="line2d_8">
      <g>
       <use xlink:href="#ma7f3635fa0" x="673.637879" y="246.04" style="stroke: #000000; stroke-width: 0.8"/>
      </g>
     </g>
     <g id="text_8">
      <!-- 1.00 -->
      <g transform="translate(662.505067 260.638438) scale(0.1 -0.1)">
       <defs>
        <path id="DejaVuSans-31" d="M 794 531 
L 1825 531 
L 1825 4091 
L 703 3866 
L 703 4441 
L 1819 4666 
L 2450 4666 
L 2450 531 
L 3481 531 
L 3481 0 
L 794 0 
L 794 531 
z
" transform="scale(0.015625)"/>
       </defs>
       <use xlink:href="#DejaVuSans-31"/>
       <use xlink:href="#DejaVuSans-2e" transform="translate(63.623047 0)"/>
       <use xlink:href="#DejaVuSans-30" transform="translate(95.410156 0)"/>
       <use xlink:href="#DejaVuSans-30" transform="translate(159.033203 0)"/>
      </g>
     </g>
    </g>
    <g id="text_9">
     <!-- Weight Value -->
     <g transform="translate(344.145938 274.316562) scale(0.1 -0.1)">
      <defs>
       <path id="DejaVuSans-57" d="M 213 4666 
L 850 4666 
L 1831 722 
L 2809 4666 
L 3519 4666 
L 4500 722 
L 5478 4666 
L 6119 4666 
L 4947 0 
L 4153 0 
L 3169 4050 
L 2175 0 
L 1381 0 
L 213 4666 
z
" transform="scale(0.015625)"/>
       <path id="DejaVuSans-65" d="M 3597 1894 
L 3597 1613 
L 953 1613 
Q 991 1019 1311 708 
Q 1631 397 2203 397 
Q 2534 397 2845 478 
Q 3156 559 3463 722 
L 3463 178 
Q 3153 47 2828 -22 
Q 2503 -91 2169 -91 
Q 1331 -91 842 396 
Q 353 884 353 1716 
Q 353 2575 817 3079 
Q 1281 3584 2069 3584 
Q 2775 3584 3186 3129 
Q 3597 2675 3597 1894 
z
M 3022 2063 
Q 3016 2534 2758 2815 
Q 2500 3097 2075 3097 
Q 1594 3097 1305 2825 
Q 1016 2553 972 2059 
L 3022 2063 
z
" transform="scale(0.015625)"/>
       <path id="DejaVuSans-69" d="M 603 3500 
L 1178 3500 
L 1178 0 
L 603 0 
L 603 3500 
z
M 603 4863 
L 1178 4863 
L 1178 4134 
L 603 4134 
L 603 4863 
z
" transform="scale(0.015625)"/>
       <path id="DejaVuSans-67" d="M 2906 1791 
Q 2906 2416 2648 2759 
Q 2391 3103 1925 3103 
Q 1463 3103 1205 2759 
Q 947 2416 947 1791 
Q 947 1169 1205 825 
Q 1463 481 1925 481 
Q 2391 481 2648 825 
Q 2906 1169 2906 1791 
z
M 3481 434 
Q 3481 -459 3084 -895 
Q 2688 -1331 1869 -1331 
Q 1566 -1331 1297 -1286 
Q 1028 -1241 775 -1147 
L 775 -588 
Q 1028 -725 1275 -790 
Q 1522 -856 1778 -856 
Q 2344 -856 2625 -561 
Q 2906 -266 2906 331 
L 2906 616 
Q 2728 306 2450 153 
Q 2172 0 1784 0 
Q 1141 0 747 490 
Q 353 981 353 1791 
Q 353 2603 747 3093 
Q 1141 3584 1784 3584 
Q 2172 3584 2450 3431 
Q 2728 3278 2906 2969 
L 2906 3500 
L 3481 3500 
L 3481 434 
z
" transform="scale(0.015625)"/>
       <path id="DejaVuSans-68" d="M 3513 2113 
L 3513 0 
L 2938 0 
L 2938 2094 
Q 2938 2591 2744 2837 
Q 2550 3084 2163 3084 
Q 1697 3084 1428 2787 
Q 1159 2491 1159 1978 
L 1159 0 
L 581 0 
L 581 4863 
L 1159 4863 
L 1159 2956 
Q 1366 3272 1645 3428 
Q 1925 3584 2291 3584 
Q 2894 3584 3203 3211 
Q 3513 2838 3513 2113 
z
" transform="scale(0.015625)"/>
       <path id="DejaVuSans-74" d="M 1172 4494 
L 1172 3500 
L 2356 3500 
L 2356 3053 
L 1172 3053 
L 1172 1153 
Q 1172 725 1289 603 
Q 1406 481 1766 481 
L 2356 481 
L 2356 0 
L 1766 0 
Q 1100 0 847 248 
Q 594 497 594 1153 
L 594 3053 
L 172 3053 
L 172 3500 
L 594 3500 
L 594 4494 
L 1172 4494 
z
" transform="scale(0.015625)"/>
       <path id="DejaVuSans-20" transform="scale(0.015625)"/>
       <path id="DejaVuSans-56" d="M 1831 0 
L 50 4666 
L 709 4666 
L 2188 738 
L 3669 4666 
L 4325 4666 
L 2547 0 
L 1831 0 
z
" transform="scale(0.015625)"/>
       <path id="DejaVuSans-61" d="M 2194 1759 
Q 1497 1759 1228 1600 
Q 959 1441 959 1056 
Q 959 750 1161 570 
Q 1363 391 1709 391 
Q 2188 391 2477 730 
Q 2766 1069 2766 1631 
L 2766 1759 
L 2194 1759 
z
M 3341 1997 
L 3341 0 
L 2766 0 
L 2766 531 
Q 2569 213 2275 61 
Q 1981 -91 1556 -91 
Q 1019 -91 701 211 
Q 384 513 384 1019 
Q 384 1609 779 1909 
Q 1175 2209 1959 2209 
L 2766 2209 
L 2766 2266 
Q 2766 2663 2505 2880 
Q 2244 3097 1772 3097 
Q 1472 3097 1187 3025 
Q 903 2953 641 2809 
L 641 3341 
Q 956 3463 1253 3523 
Q 1550 3584 1831 3584 
Q 2591 3584 2966 3190 
Q 3341 2797 3341 1997 
z
" transform="scale(0.015625)"/>
       <path id="DejaVuSans-6c" d="M 603 4863 
L 1178 4863 
L 1178 0 
L 603 0 
L 603 4863 
z
" transform="scale(0.015625)"/>
       <path id="DejaVuSans-75" d="M 544 1381 
L 544 3500 
L 1119 3500 
L 1119 1403 
Q 1119 906 1312 657 
Q 1506 409 1894 409 
Q 2359 409 2629 706 
Q 2900 1003 2900 1516 
L 2900 3500 
L 3475 3500 
L 3475 0 
L 2900 0 
L 2900 538 
Q 2691 219 2414 64 
Q 2138 -91 1772 -91 
Q 1169 -91 856 284 
Q 544 659 544 1381 
z
M 1991 3584 
L 1991 3584 
z
" transform="scale(0.015625)"/>
      </defs>
      <use xlink:href="#DejaVuSans-57"/>
      <use xlink:href="#DejaVuSans-65" transform="translate(93.001953 0)"/>
      <use xlink:href="#DejaVuSans-69" transform="translate(154.525391 0)"/>
      <use xlink:href="#DejaVuSans-67" transform="translate(182.308594 0)"/>
      <use xlink:href="#DejaVuSans-68" transform="translate(245.785156 0)"/>
      <use xlink:href="#DejaVuSans-74" transform="translate(309.164062 0)"/>
      <use xlink:href="#DejaVuSans-20" transform="translate(348.373047 0)"/>
      <use xlink:href="#DejaVuSans-56" transform="translate(380.160156 0)"/>
      <use xlink:href="#DejaVuSans-61" transform="translate(440.818359 0)"/>
      <use xlink:href="#DejaVuSans-6c" transform="translate(502.097656 0)"/>
      <use xlink:href="#DejaVuSans-75" transform="translate(529.880859 0)"/>
      <use xlink:href="#DejaVuSans-65" transform="translate(593.259766 0)"/>
     </g>
    </g>
   </g>
   <g id="matplotlib.axis_2">
    <g id="ytick_1">
     <g id="line2d_9">
      <defs>
       <path id="m4f7343ff0c" d="M 0 0 
L -3.5 0 
" style="stroke: #000000; stroke-width: 0.8"/>
      </defs>
      <g>
       <use xlink:href="#m4f7343ff0c" x="44.57" y="246.04" style="stroke: #000000; stroke-width: 0.8"/>
      </g>
     </g>
     <g id="text_10">
      <!-- 0 -->
      <g transform="translate(31.2075 249.839219) scale(0.1 -0.1)">
       <use xlink:href="#DejaVuSans-30"/>
      </g>
     </g>
    </g>
    <g id="ytick_2">
     <g id="line2d_10">
      <g>
       <use xlink:href="#m4f7343ff0c" x="44.57" y="213.270707" style="stroke: #000000; stroke-width: 0.8"/>
      </g>
     </g>
     <g id="text_11">
      <!-- 2 -->
      <g transform="translate(31.2075 217.069925) scale(0.1 -0.1)">
       <use xlink:href="#DejaVuSans-32"/>
      </g>
     </g>
    </g>
    <g id="ytick_3">
     <g id="line2d_11">
      <g>
       <use xlink:href="#m4f7343ff0c" x="44.57" y="180.501413" style="stroke: #000000; stroke-width: 0.8"/>
      </g>
     </g>
     <g id="text_12">
      <!-- 4 -->
      <g transform="translate(31.2075 184.300632) scale(0.1 -0.1)">
       <defs>
        <path id="DejaVuSans-34" d="M 2419 4116 
L 825 1625 
L 2419 1625 
L 2419 4116 
z
M 2253 4666 
L 3047 4666 
L 3047 1625 
L 3713 1625 
L 3713 1100 
L 3047 1100 
L 3047 0 
L 2419 0 
L 2419 1100 
L 313 1100 
L 313 1709 
L 2253 4666 
z
" transform="scale(0.015625)"/>
       </defs>
       <use xlink:href="#DejaVuSans-34"/>
      </g>
     </g>
    </g>
    <g id="ytick_4">
     <g id="line2d_12">
      <g>
       <use xlink:href="#m4f7343ff0c" x="44.57" y="147.73212" style="stroke: #000000; stroke-width: 0.8"/>
      </g>
     </g>
     <g id="text_13">
      <!-- 6 -->
      <g transform="translate(31.2075 151.531339) scale(0.1 -0.1)">
       <defs>
        <path id="DejaVuSans-36" d="M 2113 2584 
Q 1688 2584 1439 2293 
Q 1191 2003 1191 1497 
Q 1191 994 1439 701 
Q 1688 409 2113 409 
Q 2538 409 2786 701 
Q 3034 994 3034 1497 
Q 3034 2003 2786 2293 
Q 2538 2584 2113 2584 
z
M 3366 4563 
L 3366 3988 
Q 3128 4100 2886 4159 
Q 2644 4219 2406 4219 
Q 1781 4219 1451 3797 
Q 1122 3375 1075 2522 
Q 1259 2794 1537 2939 
Q 1816 3084 2150 3084 
Q 2853 3084 3261 2657 
Q 3669 2231 3669 1497 
Q 3669 778 3244 343 
Q 2819 -91 2113 -91 
Q 1303 -91 875 529 
Q 447 1150 447 2328 
Q 447 3434 972 4092 
Q 1497 4750 2381 4750 
Q 2619 4750 2861 4703 
Q 3103 4656 3366 4563 
z
" transform="scale(0.015625)"/>
       </defs>
       <use xlink:href="#DejaVuSans-36"/>
      </g>
     </g>
    </g>
    <g id="ytick_5">
     <g id="line2d_13">
      <g>
       <use xlink:href="#m4f7343ff0c" x="44.57" y="114.962827" style="stroke: #000000; stroke-width: 0.8"/>
      </g>
     </g>
     <g id="text_14">
      <!-- 8 -->
      <g transform="translate(31.2075 118.762046) scale(0.1 -0.1)">
       <defs>
        <path id="DejaVuSans-38" d="M 2034 2216 
Q 1584 2216 1326 1975 
Q 1069 1734 1069 1313 
Q 1069 891 1326 650 
Q 1584 409 2034 409 
Q 2484 409 2743 651 
Q 3003 894 3003 1313 
Q 3003 1734 2745 1975 
Q 2488 2216 2034 2216 
z
M 1403 2484 
Q 997 2584 770 2862 
Q 544 3141 544 3541 
Q 544 4100 942 4425 
Q 1341 4750 2034 4750 
Q 2731 4750 3128 4425 
Q 3525 4100 3525 3541 
Q 3525 3141 3298 2862 
Q 3072 2584 2669 2484 
Q 3125 2378 3379 2068 
Q 3634 1759 3634 1313 
Q 3634 634 3220 271 
Q 2806 -91 2034 -91 
Q 1263 -91 848 271 
Q 434 634 434 1313 
Q 434 1759 690 2068 
Q 947 2378 1403 2484 
z
M 1172 3481 
Q 1172 3119 1398 2916 
Q 1625 2713 2034 2713 
Q 2441 2713 2670 2916 
Q 2900 3119 2900 3481 
Q 2900 3844 2670 4047 
Q 2441 4250 2034 4250 
Q 1625 4250 1398 4047 
Q 1172 3844 1172 3481 
z
" transform="scale(0.015625)"/>
       </defs>
       <use xlink:href="#DejaVuSans-38"/>
      </g>
     </g>
    </g>
    <g id="ytick_6">
     <g id="line2d_14">
      <g>
       <use xlink:href="#m4f7343ff0c" x="44.57" y="82.193533" style="stroke: #000000; stroke-width: 0.8"/>
      </g>
     </g>
     <g id="text_15">
      <!-- 10 -->
      <g transform="translate(24.845 85.992752) scale(0.1 -0.1)">
       <use xlink:href="#DejaVuSans-31"/>
       <use xlink:href="#DejaVuSans-30" transform="translate(63.623047 0)"/>
      </g>
     </g>
    </g>
    <g id="ytick_7">
     <g id="line2d_15">
      <g>
       <use xlink:href="#m4f7343ff0c" x="44.57" y="49.42424" style="stroke: #000000; stroke-width: 0.8"/>
      </g>
     </g>
     <g id="text_16">
      <!-- 12 -->
      <g transform="translate(24.845 53.223459) scale(0.1 -0.1)">
       <use xlink:href="#DejaVuSans-31"/>
       <use xlink:href="#DejaVuSans-32" transform="translate(63.623047 0)"/>
      </g>
     </g>
    </g>
    <g id="text_17">
     <!-- Density -->
     <g transform="translate(18.765312 155.468594) rotate(-90) scale(0.1 -0.1)">
      <defs>
       <path id="DejaVuSans-44" d="M 1259 4147 
L 1259 519 
L 2022 519 
Q 2988 519 3436 956 
Q 3884 1394 3884 2338 
Q 3884 3275 3436 3711 
Q 2988 4147 2022 4147 
L 1259 4147 
z
M 628 4666 
L 1925 4666 
Q 3281 4666 3915 4102 
Q 4550 3538 4550 2338 
Q 4550 1131 3912 565 
Q 3275 0 1925 0 
L 628 0 
L 628 4666 
z
" transform="scale(0.015625)"/>
       <path id="DejaVuSans-6e" d="M 3513 2113 
L 3513 0 
L 2938 0 
L 2938 2094 
Q 2938 2591 2744 2837 
Q 2550 3084 2163 3084 
Q 1697 3084 1428 2787 
Q 1159 2491 1159 1978 
L 1159 0 
L 581 0 
L 581 3500 
L 1159 3500 
L 1159 2956 
Q 1366 3272 1645 3428 
Q 1925 3584 2291 3584 
Q 2894 3584 3203 3211 
Q 3513 2838 3513 2113 
z
" transform="scale(0.015625)"/>
       <path id="DejaVuSans-73" d="M 2834 3397 
L 2834 2853 
Q 2591 2978 2328 3040 
Q 2066 3103 1784 3103 
Q 1356 3103 1142 2972 
Q 928 2841 928 2578 
Q 928 2378 1081 2264 
Q 1234 2150 1697 2047 
L 1894 2003 
Q 2506 1872 2764 1633 
Q 3022 1394 3022 966 
Q 3022 478 2636 193 
Q 2250 -91 1575 -91 
Q 1294 -91 989 -36 
Q 684 19 347 128 
L 347 722 
Q 666 556 975 473 
Q 1284 391 1588 391 
Q 1994 391 2212 530 
Q 2431 669 2431 922 
Q 2431 1156 2273 1281 
Q 2116 1406 1581 1522 
L 1381 1569 
Q 847 1681 609 1914 
Q 372 2147 372 2553 
Q 372 3047 722 3315 
Q 1072 3584 1716 3584 
Q 2034 3584 2315 3537 
Q 2597 3491 2834 3397 
z
" transform="scale(0.015625)"/>
       <path id="DejaVuSans-79" d="M 2059 -325 
Q 1816 -950 1584 -1140 
Q 1353 -1331 966 -1331 
L 506 -1331 
L 506 -850 
L 844 -850 
Q 1081 -850 1212 -737 
Q 1344 -625 1503 -206 
L 1606 56 
L 191 3500 
L 800 3500 
L 1894 763 
L 2988 3500 
L 3597 3500 
L 2059 -325 
z
" transform="scale(0.015625)"/>
      </defs>
      <use xlink:href="#DejaVuSans-44"/>
      <use xlink:href="#DejaVuSans-65" transform="translate(77.001953 0)"/>
      <use xlink:href="#DejaVuSans-6e" transform="translate(138.525391 0)"/>
      <use xlink:href="#DejaVuSans-73" transform="translate(201.904297 0)"/>
      <use xlink:href="#DejaVuSans-69" transform="translate(254.003906 0)"/>
      <use xlink:href="#DejaVuSans-74" transform="translate(281.787109 0)"/>
      <use xlink:href="#DejaVuSans-79" transform="translate(320.996094 0)"/>
     </g>
    </g>
   </g>
   <g id="line2d_16">
    <path d="M 348.768643 246.04 
L 348.768643 26.88 
" clip-path="url(#p8f90342763)" style="fill: none; stroke-dasharray: 7.4,3.2; stroke-dashoffset: 0; stroke: #ff0000; stroke-width: 2"/>
   </g>
   <g id="patch_103">
    <path d="M 44.57 246.04 
L 44.57 26.88 
" style="fill: none; stroke: #000000; stroke-width: 0.8; stroke-linejoin: miter; stroke-linecap: square"/>
   </g>
   <g id="patch_104">
    <path d="M 709.2 246.04 
L 709.2 26.88 
" style="fill: none; stroke: #000000; stroke-width: 0.8; stroke-linejoin: miter; stroke-linecap: square"/>
   </g>
   <g id="patch_105">
    <path d="M 44.57 246.04 
L 709.2 246.04 
" style="fill: none; stroke: #000000; stroke-width: 0.8; stroke-linejoin: miter; stroke-linecap: square"/>
   </g>
   <g id="patch_106">
    <path d="M 44.57 26.88 
L 709.2 26.88 
" style="fill: none; stroke: #000000; stroke-width: 0.8; stroke-linejoin: miter; stroke-linecap: square"/>
   </g>
   <g id="text_18">
    <!-- ResNet-18 First Conv Layer: Weight Distribution -->
    <g transform="translate(233.90875 20.88) scale(0.12 -0.12)">
     <defs>
      <path id="DejaVuSans-52" d="M 2841 2188 
Q 3044 2119 3236 1894 
Q 3428 1669 3622 1275 
L 4263 0 
L 3584 0 
L 2988 1197 
Q 2756 1666 2539 1819 
Q 2322 1972 1947 1972 
L 1259 1972 
L 1259 0 
L 628 0 
L 628 4666 
L 2053 4666 
Q 2853 4666 3247 4331 
Q 3641 3997 3641 3322 
Q 3641 2881 3436 2590 
Q 3231 2300 2841 2188 
z
M 1259 4147 
L 1259 2491 
L 2053 2491 
Q 2509 2491 2742 2702 
Q 2975 2913 2975 3322 
Q 2975 3731 2742 3939 
Q 2509 4147 2053 4147 
L 1259 4147 
z
" transform="scale(0.015625)"/>
      <path id="DejaVuSans-4e" d="M 628 4666 
L 1478 4666 
L 3547 763 
L 3547 4666 
L 4159 4666 
L 4159 0 
L 3309 0 
L 1241 3903 
L 1241 0 
L 628 0 
L 628 4666 
z
" transform="scale(0.015625)"/>
      <path id="DejaVuSans-2d" d="M 313 2009 
L 1997 2009 
L 1997 1497 
L 313 1497 
L 313 2009 
z
" transform="scale(0.015625)"/>
      <path id="DejaVuSans-46" d="M 628 4666 
L 3309 4666 
L 3309 4134 
L 1259 4134 
L 1259 2759 
L 3109 2759 
L 3109 2228 
L 1259 2228 
L 1259 0 
L 628 0 
L 628 4666 
z
" transform="scale(0.015625)"/>
      <path id="DejaVuSans-72" d="M 2631 2963 
Q 2534 3019 2420 3045 
Q 2306 3072 2169 3072 
Q 1681 3072 1420 2755 
Q 1159 2438 1159 1844 
L 1159 0 
L 581 0 
L 581 3500 
L 1159 3500 
L 1159 2956 
Q 1341 3275 1631 3429 
Q 1922 3584 2338 3584 
Q 2397 3584 2469 3576 
Q 2541 3569 2628 3553 
L 2631 2963 
z
" transform="scale(0.015625)"/>
      <path id="DejaVuSans-43" d="M 4122 4306 
L 4122 3641 
Q 3803 3938 3442 4084 
Q 3081 4231 2675 4231 
Q 1875 4231 1450 3742 
Q 1025 3253 1025 2328 
Q 1025 1406 1450 917 
Q 1875 428 2675 428 
Q 3081 428 3442 575 
Q 3803 722 4122 1019 
L 4122 359 
Q 3791 134 3420 21 
Q 3050 -91 2638 -91 
Q 1578 -91 968 557 
Q 359 1206 359 2328 
Q 359 3453 968 4101 
Q 1578 4750 2638 4750 
Q 3056 4750 3426 4639 
Q 3797 4528 4122 4306 
z
" transform="scale(0.015625)"/>
      <path id="DejaVuSans-6f" d="M 1959 3097 
Q 1497 3097 1228 2736 
Q 959 2375 959 1747 
Q 959 1119 1226 758 
Q 1494 397 1959 397 
Q 2419 397 2687 759 
Q 2956 1122 2956 1747 
Q 2956 2369 2687 2733 
Q 2419 3097 1959 3097 
z
M 1959 3584 
Q 2709 3584 3137 3096 
Q 3566 2609 3566 1747 
Q 3566 888 3137 398 
Q 2709 -91 1959 -91 
Q 1206 -91 779 398 
Q 353 888 353 1747 
Q 353 2609 779 3096 
Q 1206 3584 1959 3584 
z
" transform="scale(0.015625)"/>
      <path id="DejaVuSans-76" d="M 191 3500 
L 800 3500 
L 1894 563 
L 2988 3500 
L 3597 3500 
L 2284 0 
L 1503 0 
L 191 3500 
z
" transform="scale(0.015625)"/>
      <path id="DejaVuSans-4c" d="M 628 4666 
L 1259 4666 
L 1259 531 
L 3531 531 
L 3531 0 
L 628 0 
L 628 4666 
z
" transform="scale(0.015625)"/>
      <path id="DejaVuSans-3a" d="M 750 794 
L 1409 794 
L 1409 0 
L 750 0 
L 750 794 
z
M 750 3309 
L 1409 3309 
L 1409 2516 
L 750 2516 
L 750 3309 
z
" transform="scale(0.015625)"/>
      <path id="DejaVuSans-62" d="M 3116 1747 
Q 3116 2381 2855 2742 
Q 2594 3103 2138 3103 
Q 1681 3103 1420 2742 
Q 1159 2381 1159 1747 
Q 1159 1113 1420 752 
Q 1681 391 2138 391 
Q 2594 391 2855 752 
Q 3116 1113 3116 1747 
z
M 1159 2969 
Q 1341 3281 1617 3432 
Q 1894 3584 2278 3584 
Q 2916 3584 3314 3078 
Q 3713 2572 3713 1747 
Q 3713 922 3314 415 
Q 2916 -91 2278 -91 
Q 1894 -91 1617 61 
Q 1341 213 1159 525 
L 1159 0 
L 581 0 
L 581 4863 
L 1159 4863 
L 1159 2969 
z
" transform="scale(0.015625)"/>
     </defs>
     <use xlink:href="#DejaVuSans-52"/>
     <use xlink:href="#DejaVuSans-65" transform="translate(64.982422 0)"/>
     <use xlink:href="#DejaVuSans-73" transform="translate(126.505859 0)"/>
     <use xlink:href="#DejaVuSans-4e" transform="translate(178.605469 0)"/>
     <use xlink:href="#DejaVuSans-65" transform="translate(253.410156 0)"/>
     <use xlink:href="#DejaVuSans-74" transform="translate(314.933594 0)"/>
     <use xlink:href="#DejaVuSans-2d" transform="translate(354.142578 0)"/>
     <use xlink:href="#DejaVuSans-31" transform="translate(390.226562 0)"/>
     <use xlink:href="#DejaVuSans-38" transform="translate(453.849609 0)"/>
     <use xlink:href="#DejaVuSans-20" transform="translate(517.472656 0)"/>
     <use xlink:href="#DejaVuSans-46" transform="translate(549.259766 0)"/>
     <use xlink:href="#DejaVuSans-69" transform="translate(599.529297 0)"/>
     <use xlink:href="#DejaVuSans-72" transform="translate(627.3125 0)"/>
     <use xlink:href="#DejaVuSans-73" transform="translate(668.425781 0)"/>
     <use xlink:href="#DejaVuSans-74" transform="translate(720.525391 0)"/>
     <use xlink:href="#DejaVuSans-20" transform="translate(759.734375 0)"/>
     <use xlink:href="#DejaVuSans-43" transform="translate(791.521484 0)"/>
     <use xlink:href="#DejaVuSans-6f" transform="translate(861.345703 0)"/>
     <use xlink:href="#DejaVuSans-6e" transform="translate(922.527344 0)"/>
     <use xlink:href="#DejaVuSans-76" transform="translate(985.90625 0)"/>
     <use xlink:href="#DejaVuSans-20" transform="translate(1045.085938 0)"/>
     <use xlink:href="#DejaVuSans-4c" transform="translate(1076.873047 0)"/>
     <use xlink:href="#DejaVuSans-61" transform="translate(1132.585938 0)"/>
     <use xlink:href="#DejaVuSans-79" transform="translate(1193.865234 0)"/>
     <use xlink:href="#DejaVuSans-65" transform="translate(1253.044922 0)"/>
     <use xlink:href="#DejaVuSans-72" transform="translate(1314.568359 0)"/>
     <use xlink:href="#DejaVuSans-3a" transform="translate(1353.931641 0)"/>
     <use xlink:href="#DejaVuSans-20" transform="translate(1387.623047 0)"/>
     <use xlink:href="#DejaVuSans-57" transform="translate(1419.410156 0)"/>
     <use xlink:href="#DejaVuSans-65" transform="translate(1512.412109 0)"/>
     <use xlink:href="#DejaVuSans-69" transform="translate(1573.935547 0)"/>
     <use xlink:href="#DejaVuSans-67" transform="translate(1601.71875 0)"/>
     <use xlink:href="#DejaVuSans-68" transform="translate(1665.195312 0)"/>
     <use xlink:href="#DejaVuSans-74" transform="translate(1728.574219 0)"/>
     <use xlink:href="#DejaVuSans-20" transform="translate(1767.783203 0)"/>
     <use xlink:href="#DejaVuSans-44" transform="translate(1799.570312 0)"/>
     <use xlink:href="#DejaVuSans-69" transform="translate(1876.572266 0)"/>
     <use xlink:href="#DejaVuSans-73" transform="translate(1904.355469 0)"/>
     <use xlink:href="#DejaVuSans-74" transform="translate(1956.455078 0)"/>
     <use xlink:href="#DejaVuSans-72" transform="translate(1995.664062 0)"/>
     <use xlink:href="#DejaVuSans-69" transform="translate(2036.777344 0)"/>
     <use xlink:href="#DejaVuSans-62" transform="translate(2064.560547 0)"/>
     <use xlink:href="#DejaVuSans-75" transform="translate(2128.037109 0)"/>
     <use xlink:href="#DejaVuSans-74" transform="translate(2191.416016 0)"/>
     <use xlink:href="#DejaVuSans-69" transform="translate(2230.625 0)"/>
     <use xlink:href="#DejaVuSans-6f" transform="translate(2258.408203 0)"/>
     <use xlink:href="#DejaVuSans-6e" transform="translate(2319.589844 0)"/>
    </g>
   </g>
   <g id="legend_1">
    <g id="patch_107">
     <path d="M 647.192188 49.558125 
L 702.2 49.558125 
Q 704.2 49.558125 704.2 47.558125 
L 704.2 33.88 
Q 704.2 31.88 702.2 31.88 
L 647.192188 31.88 
Q 645.192188 31.88 645.192188 33.88 
L 645.192188 47.558125 
Q 645.192188 49.558125 647.192188 49.558125 
z
" style="fill: #ffffff; opacity: 0.8; stroke: #cccccc; stroke-linejoin: miter"/>
    </g>
    <g id="line2d_17">
     <path d="M 649.192188 39.978437 
L 659.192188 39.978437 
L 669.192188 39.978437 
" style="fill: none; stroke-dasharray: 7.4,3.2; stroke-dashoffset: 0; stroke: #ff0000; stroke-width: 2"/>
    </g>
    <g id="text_19">
     <!-- Zero -->
     <g transform="translate(677.192188 43.478437) scale(0.1 -0.1)">
      <defs>
       <path id="DejaVuSans-5a" d="M 359 4666 
L 4025 4666 
L 4025 4184 
L 1075 531 
L 4097 531 
L 4097 0 
L 288 0 
L 288 481 
L 3238 4134 
L 359 4134 
L 359 4666 
z
" transform="scale(0.015625)"/>
      </defs>
      <use xlink:href="#DejaVuSans-5a"/>
      <use xlink:href="#DejaVuSans-65" transform="translate(68.505859 0)"/>
      <use xlink:href="#DejaVuSans-72" transform="translate(130.029297 0)"/>
      <use xlink:href="#DejaVuSans-6f" transform="translate(168.892578 0)"/>
     </g>
    </g>
   </g>
  </g>
 </g>
 <defs>
  <clipPath id="p8f90342763">
   <rect x="44.57" y="26.88" width="664.63" height="219.16"/>
  </clipPath>
 </defs>
</svg>
