<?xml version="1.0" encoding="utf-8" standalone="no"?>
<!DOCTYPE svg PUBLIC "-//W3C//DTD SVG 1.1//EN"
  "http://www.w3.org/Graphics/SVG/1.1/DTD/svg11.dtd">
<svg xmlns:xlink="http://www.w3.org/1999/xlink" width="396pt" height="180pt" viewBox="0 0 396 180" xmlns="http://www.w3.org/2000/svg" version="1.1">
 <metadata>
  <rdf:RDF xmlns:dc="http://purl.org/dc/elements/1.1/" xmlns:cc="http://creativecommons.org/ns#" xmlns:rdf="http://www.w3.org/1999/02/22-rdf-syntax-ns#">
   <cc:Work>
    <dc:type rdf:resource="http://purl.org/dc/dcmitype/StillImage"/>
    <dc:date>2026-01-29T23:31:18.639897</dc:date>
    <dc:format>image/svg+xml</dc:format>
    <dc:creator>
     <cc:Agent>
      <dc:title>Matplotlib v3.10.5, https://matplotlib.org/</dc:title>
     </cc:Agent>
    </dc:creator>
   </cc:Work>
  </rdf:RDF>
 </metadata>
 <defs>
  <style type="text/css">*{stroke-linejoin: round; stroke-linecap: butt}</style>
 </defs>
 <g id="figure_1">
  <g id="patch_1">
   <path d="M 0 180 
L 396 180 
L 396 0 
L 0 0 
z
" style="fill: #ffffff"/>
  </g>
  <g id="axes_1">
   <g id="patch_2">
    <path d="M 41.755663 148 
L 192.707831 148 
L 192.707831 19.3725 
L 41.755663 19.3725 
z
" style="fill: #ffffff"/>
   </g>
   <g id="patch_3">
    <path d="M 48.617125 7337.346459 
L 49.371132 7337.346459 
L 49.371132 26.173076 
L 48.617125 26.173076 
z
" clip-path="url(#pf80793390d)" style="fill: #e37b45; opacity: 0.8"/>
   </g>
   <g id="patch_4">
    <path d="M 50.77143 7337.346459 
L 51.525437 7337.346459 
L 51.525437 25.684302 
L 50.77143 25.684302 
z
" clip-path="url(#pf80793390d)" style="fill: #e37b45; opacity: 0.8"/>
   </g>
   <g id="patch_5">
    <path d="M 52.925735 7337.346459 
L 53.679742 7337.346459 
L 53.679742 90.304337 
L 52.925735 90.304337 
z
" clip-path="url(#pf80793390d)" style="fill: #e37b45; opacity: 0.8"/>
   </g>
   <g id="patch_6">
    <path d="M 55.080041 7337.346459 
L 55.834048 7337.346459 
L 55.834048 26.098134 
L 55.080041 26.098134 
z
" clip-path="url(#pf80793390d)" style="fill: #e37b45; opacity: 0.8"/>
   </g>
   <g id="patch_7">
    <path d="M 57.234346 7337.346459 
L 57.988353 7337.346459 
L 57.988353 107.727901 
L 57.234346 107.727901 
z
" clip-path="url(#pf80793390d)" style="fill: #e37b45; opacity: 0.8"/>
   </g>
   <g id="patch_8">
    <path d="M 59.388651 7337.346459 
L 60.142658 7337.346459 
L 60.142658 25.862977 
L 59.388651 25.862977 
z
" clip-path="url(#pf80793390d)" style="fill: #e37b45; opacity: 0.8"/>
   </g>
   <g id="patch_9">
    <path d="M 61.542956 7337.346459 
L 62.296963 7337.346459 
L 62.296963 25.730013 
L 61.542956 25.730013 
z
" clip-path="url(#pf80793390d)" style="fill: #e37b45; opacity: 0.8"/>
   </g>
   <g id="patch_10">
    <path d="M 63.697262 7337.346459 
L 64.451269 7337.346459 
L 64.451269 97.969768 
L 63.697262 97.969768 
z
" clip-path="url(#pf80793390d)" style="fill: #e37b45; opacity: 0.8"/>
   </g>
   <g id="patch_11">
    <path d="M 65.851567 7337.346459 
L 66.605574 7337.346459 
L 66.605574 25.883106 
L 65.851567 25.883106 
z
" clip-path="url(#pf80793390d)" style="fill: #e37b45; opacity: 0.8"/>
   </g>
   <g id="patch_12">
    <path d="M 68.005872 7337.346459 
L 68.759879 7337.346459 
L 68.759879 79.003221 
L 68.005872 79.003221 
z
" clip-path="url(#pf80793390d)" style="fill: #e37b45; opacity: 0.8"/>
   </g>
   <g id="patch_13">
    <path d="M 70.160177 7337.346459 
L 70.914184 7337.346459 
L 70.914184 25.535167 
L 70.160177 25.535167 
z
" clip-path="url(#pf80793390d)" style="fill: #e37b45; opacity: 0.8"/>
   </g>
   <g id="patch_14">
    <path d="M 72.314483 7337.346459 
L 73.06849 7337.346459 
L 73.06849 25.815735 
L 72.314483 25.815735 
z
" clip-path="url(#pf80793390d)" style="fill: #e37b45; opacity: 0.8"/>
   </g>
   <g id="patch_15">
    <path d="M 74.468788 7337.346459 
L 75.222795 7337.346459 
L 75.222795 25.736728 
L 74.468788 25.736728 
z
" clip-path="url(#pf80793390d)" style="fill: #e37b45; opacity: 0.8"/>
   </g>
   <g id="patch_16">
    <path d="M 76.623093 7337.346459 
L 77.3771 7337.346459 
L 77.3771 69.046881 
L 76.623093 69.046881 
z
" clip-path="url(#pf80793390d)" style="fill: #e37b45; opacity: 0.8"/>
   </g>
   <g id="patch_17">
    <path d="M 78.777398 7337.346459 
L 79.531405 7337.346459 
L 79.531405 26.177806 
L 78.777398 26.177806 
z
" clip-path="url(#pf80793390d)" style="fill: #e37b45; opacity: 0.8"/>
   </g>
   <g id="patch_18">
    <path d="M 80.931704 7337.346459 
L 81.685711 7337.346459 
L 81.685711 25.377186 
L 80.931704 25.377186 
z
" clip-path="url(#pf80793390d)" style="fill: #e37b45; opacity: 0.8"/>
   </g>
   <g id="patch_19">
    <path d="M 83.086009 7337.346459 
L 83.840016 7337.346459 
L 83.840016 26.165982 
L 83.086009 26.165982 
z
" clip-path="url(#pf80793390d)" style="fill: #e37b45; opacity: 0.8"/>
   </g>
   <g id="patch_20">
    <path d="M 85.240314 7337.346459 
L 85.994321 7337.346459 
L 85.994321 25.546214 
L 85.240314 25.546214 
z
" clip-path="url(#pf80793390d)" style="fill: #e37b45; opacity: 0.8"/>
   </g>
   <g id="patch_21">
    <path d="M 87.394619 7337.346459 
L 88.148626 7337.346459 
L 88.148626 25.775434 
L 87.394619 25.775434 
z
" clip-path="url(#pf80793390d)" style="fill: #e37b45; opacity: 0.8"/>
   </g>
   <g id="patch_22">
    <path d="M 89.548925 7337.346459 
L 90.302932 7337.346459 
L 90.302932 25.394109 
L 89.548925 25.394109 
z
" clip-path="url(#pf80793390d)" style="fill: #e37b45; opacity: 0.8"/>
   </g>
   <g id="patch_23">
    <path d="M 91.70323 7337.346459 
L 92.457237 7337.346459 
L 92.457237 25.521436 
L 91.70323 25.521436 
z
" clip-path="url(#pf80793390d)" style="fill: #e37b45; opacity: 0.8"/>
   </g>
   <g id="patch_24">
    <path d="M 93.857535 7337.346459 
L 94.611542 7337.346459 
L 94.611542 25.882622 
L 93.857535 25.882622 
z
" clip-path="url(#pf80793390d)" style="fill: #e37b45; opacity: 0.8"/>
   </g>
   <g id="patch_25">
    <path d="M 96.01184 7337.346459 
L 96.765847 7337.346459 
L 96.765847 25.810633 
L 96.01184 25.810633 
z
" clip-path="url(#pf80793390d)" style="fill: #e37b45; opacity: 0.8"/>
   </g>
   <g id="patch_26">
    <path d="M 98.166146 7337.346459 
L 98.920153 7337.346459 
L 98.920153 25.928193 
L 98.166146 25.928193 
z
" clip-path="url(#pf80793390d)" style="fill: #e37b45; opacity: 0.8"/>
   </g>
   <g id="patch_27">
    <path d="M 100.320451 7337.346459 
L 101.074458 7337.346459 
L 101.074458 25.892046 
L 100.320451 25.892046 
z
" clip-path="url(#pf80793390d)" style="fill: #e37b45; opacity: 0.8"/>
   </g>
   <g id="patch_28">
    <path d="M 102.474756 7337.346459 
L 103.228763 7337.346459 
L 103.228763 25.219205 
L 102.474756 25.219205 
z
" clip-path="url(#pf80793390d)" style="fill: #e37b45; opacity: 0.8"/>
   </g>
   <g id="patch_29">
    <path d="M 104.629061 7337.346459 
L 105.383068 7337.346459 
L 105.383068 26.22846 
L 104.629061 26.22846 
z
" clip-path="url(#pf80793390d)" style="fill: #e37b45; opacity: 0.8"/>
   </g>
   <g id="patch_30">
    <path d="M 106.783367 7337.346459 
L 107.537373 7337.346459 
L 107.537373 26.018074 
L 106.783367 26.018074 
z
" clip-path="url(#pf80793390d)" style="fill: #e37b45; opacity: 0.8"/>
   </g>
   <g id="patch_31">
    <path d="M 108.937672 7337.346459 
L 109.691679 7337.346459 
L 109.691679 25.658886 
L 108.937672 25.658886 
z
" clip-path="url(#pf80793390d)" style="fill: #e37b45; opacity: 0.8"/>
   </g>
   <g id="patch_32">
    <path d="M 111.091977 7337.346459 
L 111.845984 7337.346459 
L 111.845984 26.083252 
L 111.091977 26.083252 
z
" clip-path="url(#pf80793390d)" style="fill: #e37b45; opacity: 0.8"/>
   </g>
   <g id="patch_33">
    <path d="M 113.246282 7337.346459 
L 114.000289 7337.346459 
L 114.000289 25.429736 
L 113.246282 25.429736 
z
" clip-path="url(#pf80793390d)" style="fill: #e37b45; opacity: 0.8"/>
   </g>
   <g id="patch_34">
    <path d="M 115.400588 7337.346459 
L 116.154594 7337.346459 
L 116.154594 26.147795 
L 115.400588 26.147795 
z
" clip-path="url(#pf80793390d)" style="fill: #e37b45; opacity: 0.8"/>
   </g>
   <g id="patch_35">
    <path d="M 117.554893 7337.346459 
L 118.3089 7337.346459 
L 118.3089 25.725888 
L 117.554893 25.725888 
z
" clip-path="url(#pf80793390d)" style="fill: #e37b45; opacity: 0.8"/>
   </g>
   <g id="patch_36">
    <path d="M 119.709198 7337.346459 
L 120.463205 7337.346459 
L 120.463205 26.1799 
L 119.709198 26.1799 
z
" clip-path="url(#pf80793390d)" style="fill: #e37b45; opacity: 0.8"/>
   </g>
   <g id="patch_37">
    <path d="M 121.863503 7337.346459 
L 122.61751 7337.346459 
L 122.61751 25.865436 
L 121.863503 25.865436 
z
" clip-path="url(#pf80793390d)" style="fill: #e37b45; opacity: 0.8"/>
   </g>
   <g id="patch_38">
    <path d="M 124.017809 7337.346459 
L 124.771815 7337.346459 
L 124.771815 25.800763 
L 124.017809 25.800763 
z
" clip-path="url(#pf80793390d)" style="fill: #e37b45; opacity: 0.8"/>
   </g>
   <g id="patch_39">
    <path d="M 126.172114 7337.346459 
L 126.926121 7337.346459 
L 126.926121 102.175409 
L 126.172114 102.175409 
z
" clip-path="url(#pf80793390d)" style="fill: #e37b45; opacity: 0.8"/>
   </g>
   <g id="patch_40">
    <path d="M 128.326419 7337.346459 
L 129.080426 7337.346459 
L 129.080426 26.300662 
L 128.326419 26.300662 
z
" clip-path="url(#pf80793390d)" style="fill: #e37b45; opacity: 0.8"/>
   </g>
   <g id="patch_41">
    <path d="M 130.480724 7337.346459 
L 131.234731 7337.346459 
L 131.234731 109.722423 
L 130.480724 109.722423 
z
" clip-path="url(#pf80793390d)" style="fill: #e37b45; opacity: 0.8"/>
   </g>
   <g id="patch_42">
    <path d="M 132.63503 7337.346459 
L 133.389036 7337.346459 
L 133.389036 25.748197 
L 132.63503 25.748197 
z
" clip-path="url(#pf80793390d)" style="fill: #e37b45; opacity: 0.8"/>
   </g>
   <g id="patch_43">
    <path d="M 134.789335 7337.346459 
L 135.543342 7337.346459 
L 135.543342 25.806291 
L 134.789335 25.806291 
z
" clip-path="url(#pf80793390d)" style="fill: #e37b45; opacity: 0.8"/>
   </g>
   <g id="patch_44">
    <path d="M 136.94364 7337.346459 
L 137.697647 7337.346459 
L 137.697647 25.61116 
L 136.94364 25.61116 
z
" clip-path="url(#pf80793390d)" style="fill: #e37b45; opacity: 0.8"/>
   </g>
   <g id="patch_45">
    <path d="M 139.097945 7337.346459 
L 139.851952 7337.346459 
L 139.851952 25.380142 
L 139.097945 25.380142 
z
" clip-path="url(#pf80793390d)" style="fill: #e37b45; opacity: 0.8"/>
   </g>
   <g id="patch_46">
    <path d="M 141.252251 7337.346459 
L 142.006257 7337.346459 
L 142.006257 25.965109 
L 141.252251 25.965109 
z
" clip-path="url(#pf80793390d)" style="fill: #e37b45; opacity: 0.8"/>
   </g>
   <g id="patch_47">
    <path d="M 143.406556 7337.346459 
L 144.160563 7337.346459 
L 144.160563 25.639953 
L 143.406556 25.639953 
z
" clip-path="url(#pf80793390d)" style="fill: #e37b45; opacity: 0.8"/>
   </g>
   <g id="patch_48">
    <path d="M 145.560861 7337.346459 
L 146.314868 7337.346459 
L 146.314868 25.931411 
L 145.560861 25.931411 
z
" clip-path="url(#pf80793390d)" style="fill: #e37b45; opacity: 0.8"/>
   </g>
   <g id="patch_49">
    <path d="M 147.715166 7337.346459 
L 148.469173 7337.346459 
L 148.469173 25.616698 
L 147.715166 25.616698 
z
" clip-path="url(#pf80793390d)" style="fill: #e37b45; opacity: 0.8"/>
   </g>
   <g id="patch_50">
    <path d="M 149.869472 7337.346459 
L 150.623478 7337.346459 
L 150.623478 25.72154 
L 149.869472 25.72154 
z
" clip-path="url(#pf80793390d)" style="fill: #e37b45; opacity: 0.8"/>
   </g>
   <g id="patch_51">
    <path d="M 152.023777 7337.346459 
L 152.777784 7337.346459 
L 152.777784 107.142697 
L 152.023777 107.142697 
z
" clip-path="url(#pf80793390d)" style="fill: #e37b45; opacity: 0.8"/>
   </g>
   <g id="patch_52">
    <path d="M 154.178082 7337.346459 
L 154.932089 7337.346459 
L 154.932089 25.545052 
L 154.178082 25.545052 
z
" clip-path="url(#pf80793390d)" style="fill: #e37b45; opacity: 0.8"/>
   </g>
   <g id="patch_53">
    <path d="M 156.332387 7337.346459 
L 157.086394 7337.346459 
L 157.086394 25.593931 
L 156.332387 25.593931 
z
" clip-path="url(#pf80793390d)" style="fill: #e37b45; opacity: 0.8"/>
   </g>
   <g id="patch_54">
    <path d="M 158.486693 7337.346459 
L 159.240699 7337.346459 
L 159.240699 25.637927 
L 158.486693 25.637927 
z
" clip-path="url(#pf80793390d)" style="fill: #e37b45; opacity: 0.8"/>
   </g>
   <g id="patch_55">
    <path d="M 160.640998 7337.346459 
L 161.395005 7337.346459 
L 161.395005 25.59455 
L 160.640998 25.59455 
z
" clip-path="url(#pf80793390d)" style="fill: #e37b45; opacity: 0.8"/>
   </g>
   <g id="patch_56">
    <path d="M 162.795303 7337.346459 
L 163.54931 7337.346459 
L 163.54931 25.736561 
L 162.795303 25.736561 
z
" clip-path="url(#pf80793390d)" style="fill: #e37b45; opacity: 0.8"/>
   </g>
   <g id="patch_57">
    <path d="M 164.949608 7337.346459 
L 165.703615 7337.346459 
L 165.703615 25.934698 
L 164.949608 25.934698 
z
" clip-path="url(#pf80793390d)" style="fill: #e37b45; opacity: 0.8"/>
   </g>
   <g id="patch_58">
    <path d="M 167.103914 7337.346459 
L 167.85792 7337.346459 
L 167.85792 26.404862 
L 167.103914 26.404862 
z
" clip-path="url(#pf80793390d)" style="fill: #e37b45; opacity: 0.8"/>
   </g>
   <g id="patch_59">
    <path d="M 169.258219 7337.346459 
L 170.012226 7337.346459 
L 170.012226 25.727503 
L 169.258219 25.727503 
z
" clip-path="url(#pf80793390d)" style="fill: #e37b45; opacity: 0.8"/>
   </g>
   <g id="patch_60">
    <path d="M 171.412524 7337.346459 
L 172.166531 7337.346459 
L 172.166531 25.962035 
L 171.412524 25.962035 
z
" clip-path="url(#pf80793390d)" style="fill: #e37b45; opacity: 0.8"/>
   </g>
   <g id="patch_61">
    <path d="M 173.566829 7337.346459 
L 174.320836 7337.346459 
L 174.320836 26.152414 
L 173.566829 26.152414 
z
" clip-path="url(#pf80793390d)" style="fill: #e37b45; opacity: 0.8"/>
   </g>
   <g id="patch_62">
    <path d="M 175.721135 7337.346459 
L 176.475141 7337.346459 
L 176.475141 25.760408 
L 175.721135 25.760408 
z
" clip-path="url(#pf80793390d)" style="fill: #e37b45; opacity: 0.8"/>
   </g>
   <g id="patch_63">
    <path d="M 177.87544 7337.346459 
L 178.629447 7337.346459 
L 178.629447 25.557891 
L 177.87544 25.557891 
z
" clip-path="url(#pf80793390d)" style="fill: #e37b45; opacity: 0.8"/>
   </g>
   <g id="patch_64">
    <path d="M 180.029745 7337.346459 
L 180.783752 7337.346459 
L 180.783752 25.965507 
L 180.029745 25.965507 
z
" clip-path="url(#pf80793390d)" style="fill: #e37b45; opacity: 0.8"/>
   </g>
   <g id="patch_65">
    <path d="M 182.18405 7337.346459 
L 182.938057 7337.346459 
L 182.938057 25.902796 
L 182.18405 25.902796 
z
" clip-path="url(#pf80793390d)" style="fill: #e37b45; opacity: 0.8"/>
   </g>
   <g id="patch_66">
    <path d="M 184.338356 7337.346459 
L 185.092362 7337.346459 
L 185.092362 25.82609 
L 184.338356 25.82609 
z
" clip-path="url(#pf80793390d)" style="fill: #e37b45; opacity: 0.8"/>
   </g>
   <g id="patch_67">
    <path d="M 49.371132 7337.346459 
L 50.125139 7337.346459 
L 50.125139 27.366865 
L 49.371132 27.366865 
z
" clip-path="url(#pf80793390d)" style="fill: #0060b1; opacity: 0.8"/>
   </g>
   <g id="patch_68">
    <path d="M 51.525437 7337.346459 
L 52.279444 7337.346459 
L 52.279444 33.086401 
L 51.525437 33.086401 
z
" clip-path="url(#pf80793390d)" style="fill: #0060b1; opacity: 0.8"/>
   </g>
   <g id="patch_69">
    <path d="M 53.679742 7337.346459 
L 54.433749 7337.346459 
L 54.433749 124.054086 
L 53.679742 124.054086 
z
" clip-path="url(#pf80793390d)" style="fill: #0060b1; opacity: 0.8"/>
   </g>
   <g id="patch_70">
    <path d="M 55.834048 7337.346459 
L 56.588054 7337.346459 
L 56.588054 37.18103 
L 55.834048 37.18103 
z
" clip-path="url(#pf80793390d)" style="fill: #0060b1; opacity: 0.8"/>
   </g>
   <g id="patch_71">
    <path d="M 57.988353 7337.346459 
L 58.74236 7337.346459 
L 58.74236 142.153295 
L 57.988353 142.153295 
z
" clip-path="url(#pf80793390d)" style="fill: #0060b1; opacity: 0.8"/>
   </g>
   <g id="patch_72">
    <path d="M 60.142658 7337.346459 
L 60.896665 7337.346459 
L 60.896665 31.266837 
L 60.142658 31.266837 
z
" clip-path="url(#pf80793390d)" style="fill: #0060b1; opacity: 0.8"/>
   </g>
   <g id="patch_73">
    <path d="M 62.296963 7337.346459 
L 63.05097 7337.346459 
L 63.05097 29.378157 
L 62.296963 29.378157 
z
" clip-path="url(#pf80793390d)" style="fill: #0060b1; opacity: 0.8"/>
   </g>
   <g id="patch_74">
    <path d="M 64.451269 7337.346459 
L 65.205275 7337.346459 
L 65.205275 132.127921 
L 64.451269 132.127921 
z
" clip-path="url(#pf80793390d)" style="fill: #0060b1; opacity: 0.8"/>
   </g>
   <g id="patch_75">
    <path d="M 66.605574 7337.346459 
L 67.359581 7337.346459 
L 67.359581 27.514443 
L 66.605574 27.514443 
z
" clip-path="url(#pf80793390d)" style="fill: #0060b1; opacity: 0.8"/>
   </g>
   <g id="patch_76">
    <path d="M 68.759879 7337.346459 
L 69.513886 7337.346459 
L 69.513886 113.955784 
L 68.759879 113.955784 
z
" clip-path="url(#pf80793390d)" style="fill: #0060b1; opacity: 0.8"/>
   </g>
   <g id="patch_77">
    <path d="M 70.914184 7337.346459 
L 71.668191 7337.346459 
L 71.668191 29.566936 
L 70.914184 29.566936 
z
" clip-path="url(#pf80793390d)" style="fill: #0060b1; opacity: 0.8"/>
   </g>
   <g id="patch_78">
    <path d="M 73.06849 7337.346459 
L 73.822496 7337.346459 
L 73.822496 30.581747 
L 73.06849 30.581747 
z
" clip-path="url(#pf80793390d)" style="fill: #0060b1; opacity: 0.8"/>
   </g>
   <g id="patch_79">
    <path d="M 75.222795 7337.346459 
L 75.976802 7337.346459 
L 75.976802 37.38463 
L 75.222795 37.38463 
z
" clip-path="url(#pf80793390d)" style="fill: #0060b1; opacity: 0.8"/>
   </g>
   <g id="patch_80">
    <path d="M 77.3771 7337.346459 
L 78.131107 7337.346459 
L 78.131107 102.820723 
L 77.3771 102.820723 
z
" clip-path="url(#pf80793390d)" style="fill: #0060b1; opacity: 0.8"/>
   </g>
   <g id="patch_81">
    <path d="M 79.531405 7337.346459 
L 80.285412 7337.346459 
L 80.285412 34.000668 
L 79.531405 34.000668 
z
" clip-path="url(#pf80793390d)" style="fill: #0060b1; opacity: 0.8"/>
   </g>
   <g id="patch_82">
    <path d="M 81.685711 7337.346459 
L 82.439717 7337.346459 
L 82.439717 29.644154 
L 81.685711 29.644154 
z
" clip-path="url(#pf80793390d)" style="fill: #0060b1; opacity: 0.8"/>
   </g>
   <g id="patch_83">
    <path d="M 83.840016 7337.346459 
L 84.594023 7337.346459 
L 84.594023 35.560495 
L 83.840016 35.560495 
z
" clip-path="url(#pf80793390d)" style="fill: #0060b1; opacity: 0.8"/>
   </g>
   <g id="patch_84">
    <path d="M 85.994321 7337.346459 
L 86.748328 7337.346459 
L 86.748328 42.303376 
L 85.994321 42.303376 
z
" clip-path="url(#pf80793390d)" style="fill: #0060b1; opacity: 0.8"/>
   </g>
   <g id="patch_85">
    <path d="M 88.148626 7337.346459 
L 88.902633 7337.346459 
L 88.902633 34.106274 
L 88.148626 34.106274 
z
" clip-path="url(#pf80793390d)" style="fill: #0060b1; opacity: 0.8"/>
   </g>
   <g id="patch_86">
    <path d="M 90.302932 7337.346459 
L 91.056938 7337.346459 
L 91.056938 35.319596 
L 90.302932 35.319596 
z
" clip-path="url(#pf80793390d)" style="fill: #0060b1; opacity: 0.8"/>
   </g>
   <g id="patch_87">
    <path d="M 92.457237 7337.346459 
L 93.211244 7337.346459 
L 93.211244 31.436498 
L 92.457237 31.436498 
z
" clip-path="url(#pf80793390d)" style="fill: #0060b1; opacity: 0.8"/>
   </g>
   <g id="patch_88">
    <path d="M 94.611542 7337.346459 
L 95.365549 7337.346459 
L 95.365549 40.936532 
L 94.611542 40.936532 
z
" clip-path="url(#pf80793390d)" style="fill: #0060b1; opacity: 0.8"/>
   </g>
   <g id="patch_89">
    <path d="M 96.765847 7337.346459 
L 97.519854 7337.346459 
L 97.519854 34.583416 
L 96.765847 34.583416 
z
" clip-path="url(#pf80793390d)" style="fill: #0060b1; opacity: 0.8"/>
   </g>
   <g id="patch_90">
    <path d="M 98.920153 7337.346459 
L 99.674159 7337.346459 
L 99.674159 28.828153 
L 98.920153 28.828153 
z
" clip-path="url(#pf80793390d)" style="fill: #0060b1; opacity: 0.8"/>
   </g>
   <g id="patch_91">
    <path d="M 101.074458 7337.346459 
L 101.828465 7337.346459 
L 101.828465 25.976574 
L 101.074458 25.976574 
z
" clip-path="url(#pf80793390d)" style="fill: #0060b1; opacity: 0.8"/>
   </g>
   <g id="patch_92">
    <path d="M 103.228763 7337.346459 
L 103.98277 7337.346459 
L 103.98277 33.521955 
L 103.228763 33.521955 
z
" clip-path="url(#pf80793390d)" style="fill: #0060b1; opacity: 0.8"/>
   </g>
   <g id="patch_93">
    <path d="M 105.383068 7337.346459 
L 106.137075 7337.346459 
L 106.137075 33.897822 
L 105.383068 33.897822 
z
" clip-path="url(#pf80793390d)" style="fill: #0060b1; opacity: 0.8"/>
   </g>
   <g id="patch_94">
    <path d="M 107.537373 7337.346459 
L 108.29138 7337.346459 
L 108.29138 35.194519 
L 107.537373 35.194519 
z
" clip-path="url(#pf80793390d)" style="fill: #0060b1; opacity: 0.8"/>
   </g>
   <g id="patch_95">
    <path d="M 109.691679 7337.346459 
L 110.445686 7337.346459 
L 110.445686 29.911498 
L 109.691679 29.911498 
z
" clip-path="url(#pf80793390d)" style="fill: #0060b1; opacity: 0.8"/>
   </g>
   <g id="patch_96">
    <path d="M 111.845984 7337.346459 
L 112.599991 7337.346459 
L 112.599991 30.699328 
L 111.845984 30.699328 
z
" clip-path="url(#pf80793390d)" style="fill: #0060b1; opacity: 0.8"/>
   </g>
   <g id="patch_97">
    <path d="M 114.000289 7337.346459 
L 114.754296 7337.346459 
L 114.754296 28.552018 
L 114.000289 28.552018 
z
" clip-path="url(#pf80793390d)" style="fill: #0060b1; opacity: 0.8"/>
   </g>
   <g id="patch_98">
    <path d="M 116.154594 7337.346459 
L 116.908601 7337.346459 
L 116.908601 33.218568 
L 116.154594 33.218568 
z
" clip-path="url(#pf80793390d)" style="fill: #0060b1; opacity: 0.8"/>
   </g>
   <g id="patch_99">
    <path d="M 118.3089 7337.346459 
L 119.062907 7337.346459 
L 119.062907 33.955491 
L 118.3089 33.955491 
z
" clip-path="url(#pf80793390d)" style="fill: #0060b1; opacity: 0.8"/>
   </g>
   <g id="patch_100">
    <path d="M 120.463205 7337.346459 
L 121.217212 7337.346459 
L 121.217212 30.846884 
L 120.463205 30.846884 
z
" clip-path="url(#pf80793390d)" style="fill: #0060b1; opacity: 0.8"/>
   </g>
   <g id="patch_101">
    <path d="M 122.61751 7337.346459 
L 123.371517 7337.346459 
L 123.371517 35.055794 
L 122.61751 35.055794 
z
" clip-path="url(#pf80793390d)" style="fill: #0060b1; opacity: 0.8"/>
   </g>
   <g id="patch_102">
    <path d="M 124.771815 7337.346459 
L 125.525822 7337.346459 
L 125.525822 35.76153 
L 124.771815 35.76153 
z
" clip-path="url(#pf80793390d)" style="fill: #0060b1; opacity: 0.8"/>
   </g>
   <g id="patch_103">
    <path d="M 126.926121 7337.346459 
L 127.680128 7337.346459 
L 127.680128 135.651756 
L 126.926121 135.651756 
z
" clip-path="url(#pf80793390d)" style="fill: #0060b1; opacity: 0.8"/>
   </g>
   <g id="patch_104">
    <path d="M 129.080426 7337.346459 
L 129.834433 7337.346459 
L 129.834433 34.980537 
L 129.080426 34.980537 
z
" clip-path="url(#pf80793390d)" style="fill: #0060b1; opacity: 0.8"/>
   </g>
   <g id="patch_105">
    <path d="M 131.234731 7337.346459 
L 131.988738 7337.346459 
L 131.988738 141.180302 
L 131.234731 141.180302 
z
" clip-path="url(#pf80793390d)" style="fill: #0060b1; opacity: 0.8"/>
   </g>
   <g id="patch_106">
    <path d="M 133.389036 7337.346459 
L 134.143043 7337.346459 
L 134.143043 25.920558 
L 133.389036 25.920558 
z
" clip-path="url(#pf80793390d)" style="fill: #0060b1; opacity: 0.8"/>
   </g>
   <g id="patch_107">
    <path d="M 135.543342 7337.346459 
L 136.297349 7337.346459 
L 136.297349 28.20977 
L 135.543342 28.20977 
z
" clip-path="url(#pf80793390d)" style="fill: #0060b1; opacity: 0.8"/>
   </g>
   <g id="patch_108">
    <path d="M 137.697647 7337.346459 
L 138.451654 7337.346459 
L 138.451654 27.904544 
L 137.697647 27.904544 
z
" clip-path="url(#pf80793390d)" style="fill: #0060b1; opacity: 0.8"/>
   </g>
   <g id="patch_109">
    <path d="M 139.851952 7337.346459 
L 140.605959 7337.346459 
L 140.605959 27.792967 
L 139.851952 27.792967 
z
" clip-path="url(#pf80793390d)" style="fill: #0060b1; opacity: 0.8"/>
   </g>
   <g id="patch_110">
    <path d="M 142.006257 7337.346459 
L 142.760264 7337.346459 
L 142.760264 30.854462 
L 142.006257 30.854462 
z
" clip-path="url(#pf80793390d)" style="fill: #0060b1; opacity: 0.8"/>
   </g>
   <g id="patch_111">
    <path d="M 144.160563 7337.346459 
L 144.91457 7337.346459 
L 144.91457 29.694688 
L 144.160563 29.694688 
z
" clip-path="url(#pf80793390d)" style="fill: #0060b1; opacity: 0.8"/>
   </g>
   <g id="patch_112">
    <path d="M 146.314868 7337.346459 
L 147.068875 7337.346459 
L 147.068875 34.031779 
L 146.314868 34.031779 
z
" clip-path="url(#pf80793390d)" style="fill: #0060b1; opacity: 0.8"/>
   </g>
   <g id="patch_113">
    <path d="M 148.469173 7337.346459 
L 149.22318 7337.346459 
L 149.22318 40.483837 
L 148.469173 40.483837 
z
" clip-path="url(#pf80793390d)" style="fill: #0060b1; opacity: 0.8"/>
   </g>
   <g id="patch_114">
    <path d="M 150.623478 7337.346459 
L 151.377485 7337.346459 
L 151.377485 25.72154 
L 150.623478 25.72154 
z
" clip-path="url(#pf80793390d)" style="fill: #0060b1; opacity: 0.8"/>
   </g>
   <g id="patch_115">
    <path d="M 152.777784 7337.346459 
L 153.53179 7337.346459 
L 153.53179 139.763075 
L 152.777784 139.763075 
z
" clip-path="url(#pf80793390d)" style="fill: #0060b1; opacity: 0.8"/>
   </g>
   <g id="patch_116">
    <path d="M 154.932089 7337.346459 
L 155.686096 7337.346459 
L 155.686096 28.122537 
L 154.932089 28.122537 
z
" clip-path="url(#pf80793390d)" style="fill: #0060b1; opacity: 0.8"/>
   </g>
   <g id="patch_117">
    <path d="M 157.086394 7337.346459 
L 157.840401 7337.346459 
L 157.840401 27.476604 
L 157.086394 27.476604 
z
" clip-path="url(#pf80793390d)" style="fill: #0060b1; opacity: 0.8"/>
   </g>
   <g id="patch_118">
    <path d="M 159.240699 7337.346459 
L 159.994706 7337.346459 
L 159.994706 27.226636 
L 159.240699 27.226636 
z
" clip-path="url(#pf80793390d)" style="fill: #0060b1; opacity: 0.8"/>
   </g>
   <g id="patch_119">
    <path d="M 161.395005 7337.346459 
L 162.149011 7337.346459 
L 162.149011 30.347509 
L 161.395005 30.347509 
z
" clip-path="url(#pf80793390d)" style="fill: #0060b1; opacity: 0.8"/>
   </g>
   <g id="patch_120">
    <path d="M 163.54931 7337.346459 
L 164.303317 7337.346459 
L 164.303317 25.981656 
L 163.54931 25.981656 
z
" clip-path="url(#pf80793390d)" style="fill: #0060b1; opacity: 0.8"/>
   </g>
   <g id="patch_121">
    <path d="M 165.703615 7337.346459 
L 166.457622 7337.346459 
L 166.457622 44.094737 
L 165.703615 44.094737 
z
" clip-path="url(#pf80793390d)" style="fill: #0060b1; opacity: 0.8"/>
   </g>
   <g id="patch_122">
    <path d="M 167.85792 7337.346459 
L 168.611927 7337.346459 
L 168.611927 27.207644 
L 167.85792 27.207644 
z
" clip-path="url(#pf80793390d)" style="fill: #0060b1; opacity: 0.8"/>
   </g>
   <g id="patch_123">
    <path d="M 170.012226 7337.346459 
L 170.766232 7337.346459 
L 170.766232 32.31952 
L 170.012226 32.31952 
z
" clip-path="url(#pf80793390d)" style="fill: #0060b1; opacity: 0.8"/>
   </g>
   <g id="patch_124">
    <path d="M 172.166531 7337.346459 
L 172.920538 7337.346459 
L 172.920538 34.673674 
L 172.166531 34.673674 
z
" clip-path="url(#pf80793390d)" style="fill: #0060b1; opacity: 0.8"/>
   </g>
   <g id="patch_125">
    <path d="M 174.320836 7337.346459 
L 175.074843 7337.346459 
L 175.074843 35.065884 
L 174.320836 35.065884 
z
" clip-path="url(#pf80793390d)" style="fill: #0060b1; opacity: 0.8"/>
   </g>
   <g id="patch_126">
    <path d="M 176.475141 7337.346459 
L 177.229148 7337.346459 
L 177.229148 28.330191 
L 176.475141 28.330191 
z
" clip-path="url(#pf80793390d)" style="fill: #0060b1; opacity: 0.8"/>
   </g>
   <g id="patch_127">
    <path d="M 178.629447 7337.346459 
L 179.383453 7337.346459 
L 179.383453 27.438079 
L 178.629447 27.438079 
z
" clip-path="url(#pf80793390d)" style="fill: #0060b1; opacity: 0.8"/>
   </g>
   <g id="patch_128">
    <path d="M 180.783752 7337.346459 
L 181.537759 7337.346459 
L 181.537759 39.185237 
L 180.783752 39.185237 
z
" clip-path="url(#pf80793390d)" style="fill: #0060b1; opacity: 0.8"/>
   </g>
   <g id="patch_129">
    <path d="M 182.938057 7337.346459 
L 183.692064 7337.346459 
L 183.692064 37.5765 
L 182.938057 37.5765 
z
" clip-path="url(#pf80793390d)" style="fill: #0060b1; opacity: 0.8"/>
   </g>
   <g id="patch_130">
    <path d="M 185.092362 7337.346459 
L 185.846369 7337.346459 
L 185.846369 29.402393 
L 185.092362 29.402393 
z
" clip-path="url(#pf80793390d)" style="fill: #0060b1; opacity: 0.8"/>
   </g>
   <g id="matplotlib.axis_1">
    <g id="xtick_1">
     <g id="line2d_1">
      <defs>
       <path id="m8b02b2f69f" d="M 0 0 
L 0 3.5 
" style="stroke: #000000; stroke-width: 0.8"/>
      </defs>
      <g>
       <use xlink:href="#m8b02b2f69f" x="49.371132" y="148" style="stroke: #000000; stroke-width: 0.8"/>
      </g>
     </g>
     <g id="text_1">
      <!-- 0 -->
      <g transform="translate(47.424804 160.010469) scale(0.07 -0.07)">
       <defs>
        <path id="ArialMT-30" d="M 266 2259 
Q 266 3072 433 3567 
Q 600 4063 929 4331 
Q 1259 4600 1759 4600 
Q 2128 4600 2406 4451 
Q 2684 4303 2865 4023 
Q 3047 3744 3150 3342 
Q 3253 2941 3253 2259 
Q 3253 1453 3087 958 
Q 2922 463 2592 192 
Q 2263 -78 1759 -78 
Q 1097 -78 719 397 
Q 266 969 266 2259 
z
M 844 2259 
Q 844 1131 1108 757 
Q 1372 384 1759 384 
Q 2147 384 2411 759 
Q 2675 1134 2675 2259 
Q 2675 3391 2411 3762 
Q 2147 4134 1753 4134 
Q 1366 4134 1134 3806 
Q 844 3388 844 2259 
z
" transform="scale(0.015625)"/>
       </defs>
       <use xlink:href="#ArialMT-30"/>
      </g>
     </g>
    </g>
    <g id="xtick_2">
     <g id="line2d_2">
      <g>
       <use xlink:href="#m8b02b2f69f" x="92.457237" y="148" style="stroke: #000000; stroke-width: 0.8"/>
      </g>
     </g>
     <g id="text_2">
      <!-- 20 -->
      <g transform="translate(88.564581 160.010469) scale(0.07 -0.07)">
       <defs>
        <path id="ArialMT-32" d="M 3222 541 
L 3222 0 
L 194 0 
Q 188 203 259 391 
Q 375 700 629 1000 
Q 884 1300 1366 1694 
Q 2113 2306 2375 2664 
Q 2638 3022 2638 3341 
Q 2638 3675 2398 3904 
Q 2159 4134 1775 4134 
Q 1369 4134 1125 3890 
Q 881 3647 878 3216 
L 300 3275 
Q 359 3922 746 4261 
Q 1134 4600 1788 4600 
Q 2447 4600 2831 4234 
Q 3216 3869 3216 3328 
Q 3216 3053 3103 2787 
Q 2991 2522 2730 2228 
Q 2469 1934 1863 1422 
Q 1356 997 1212 845 
Q 1069 694 975 541 
L 3222 541 
z
" transform="scale(0.015625)"/>
       </defs>
       <use xlink:href="#ArialMT-32"/>
       <use xlink:href="#ArialMT-30" transform="translate(55.615234 0)"/>
      </g>
     </g>
    </g>
    <g id="xtick_3">
     <g id="line2d_3">
      <g>
       <use xlink:href="#m8b02b2f69f" x="135.543342" y="148" style="stroke: #000000; stroke-width: 0.8"/>
      </g>
     </g>
     <g id="text_3">
      <!-- 40 -->
      <g transform="translate(131.650685 160.010469) scale(0.07 -0.07)">
       <defs>
        <path id="ArialMT-34" d="M 2069 0 
L 2069 1097 
L 81 1097 
L 81 1613 
L 2172 4581 
L 2631 4581 
L 2631 1613 
L 3250 1613 
L 3250 1097 
L 2631 1097 
L 2631 0 
L 2069 0 
z
M 2069 1613 
L 2069 3678 
L 634 1613 
L 2069 1613 
z
" transform="scale(0.015625)"/>
       </defs>
       <use xlink:href="#ArialMT-34"/>
       <use xlink:href="#ArialMT-30" transform="translate(55.615234 0)"/>
      </g>
     </g>
    </g>
    <g id="xtick_4">
     <g id="line2d_4">
      <g>
       <use xlink:href="#m8b02b2f69f" x="178.629447" y="148" style="stroke: #000000; stroke-width: 0.8"/>
      </g>
     </g>
     <g id="text_4">
      <!-- 60 -->
      <g transform="translate(174.73679 160.010469) scale(0.07 -0.07)">
       <defs>
        <path id="ArialMT-36" d="M 3184 3459 
L 2625 3416 
Q 2550 3747 2413 3897 
Q 2184 4138 1850 4138 
Q 1581 4138 1378 3988 
Q 1113 3794 959 3422 
Q 806 3050 800 2363 
Q 1003 2672 1297 2822 
Q 1591 2972 1913 2972 
Q 2475 2972 2870 2558 
Q 3266 2144 3266 1488 
Q 3266 1056 3080 686 
Q 2894 316 2569 119 
Q 2244 -78 1831 -78 
Q 1128 -78 684 439 
Q 241 956 241 2144 
Q 241 3472 731 4075 
Q 1159 4600 1884 4600 
Q 2425 4600 2770 4297 
Q 3116 3994 3184 3459 
z
M 888 1484 
Q 888 1194 1011 928 
Q 1134 663 1356 523 
Q 1578 384 1822 384 
Q 2178 384 2434 671 
Q 2691 959 2691 1453 
Q 2691 1928 2437 2201 
Q 2184 2475 1800 2475 
Q 1419 2475 1153 2201 
Q 888 1928 888 1484 
z
" transform="scale(0.015625)"/>
       </defs>
       <use xlink:href="#ArialMT-36"/>
       <use xlink:href="#ArialMT-30" transform="translate(55.615234 0)"/>
      </g>
     </g>
    </g>
    <g id="text_5">
     <!-- Output channel -->
     <g transform="translate(93.494091 170.501875) scale(0.07 -0.07)">
      <defs>
       <path id="ArialMT-4f" d="M 309 2231 
Q 309 3372 921 4017 
Q 1534 4663 2503 4663 
Q 3138 4663 3647 4359 
Q 4156 4056 4423 3514 
Q 4691 2972 4691 2284 
Q 4691 1588 4409 1038 
Q 4128 488 3612 205 
Q 3097 -78 2500 -78 
Q 1853 -78 1343 234 
Q 834 547 571 1087 
Q 309 1628 309 2231 
z
M 934 2222 
Q 934 1394 1379 917 
Q 1825 441 2497 441 
Q 3181 441 3623 922 
Q 4066 1403 4066 2288 
Q 4066 2847 3877 3264 
Q 3688 3681 3323 3911 
Q 2959 4141 2506 4141 
Q 1863 4141 1398 3698 
Q 934 3256 934 2222 
z
" transform="scale(0.015625)"/>
       <path id="ArialMT-75" d="M 2597 0 
L 2597 488 
Q 2209 -75 1544 -75 
Q 1250 -75 995 37 
Q 741 150 617 320 
Q 494 491 444 738 
Q 409 903 409 1263 
L 409 3319 
L 972 3319 
L 972 1478 
Q 972 1038 1006 884 
Q 1059 663 1231 536 
Q 1403 409 1656 409 
Q 1909 409 2131 539 
Q 2353 669 2445 892 
Q 2538 1116 2538 1541 
L 2538 3319 
L 3100 3319 
L 3100 0 
L 2597 0 
z
" transform="scale(0.015625)"/>
       <path id="ArialMT-74" d="M 1650 503 
L 1731 6 
Q 1494 -44 1306 -44 
Q 1000 -44 831 53 
Q 663 150 594 308 
Q 525 466 525 972 
L 525 2881 
L 113 2881 
L 113 3319 
L 525 3319 
L 525 4141 
L 1084 4478 
L 1084 3319 
L 1650 3319 
L 1650 2881 
L 1084 2881 
L 1084 941 
Q 1084 700 1114 631 
Q 1144 563 1211 522 
Q 1278 481 1403 481 
Q 1497 481 1650 503 
z
" transform="scale(0.015625)"/>
       <path id="ArialMT-70" d="M 422 -1272 
L 422 3319 
L 934 3319 
L 934 2888 
Q 1116 3141 1344 3267 
Q 1572 3394 1897 3394 
Q 2322 3394 2647 3175 
Q 2972 2956 3137 2557 
Q 3303 2159 3303 1684 
Q 3303 1175 3120 767 
Q 2938 359 2589 142 
Q 2241 -75 1856 -75 
Q 1575 -75 1351 44 
Q 1128 163 984 344 
L 984 -1272 
L 422 -1272 
z
M 931 1641 
Q 931 1000 1190 694 
Q 1450 388 1819 388 
Q 2194 388 2461 705 
Q 2728 1022 2728 1688 
Q 2728 2322 2467 2637 
Q 2206 2953 1844 2953 
Q 1484 2953 1207 2617 
Q 931 2281 931 1641 
z
" transform="scale(0.015625)"/>
       <path id="ArialMT-20" transform="scale(0.015625)"/>
       <path id="ArialMT-63" d="M 2588 1216 
L 3141 1144 
Q 3050 572 2676 248 
Q 2303 -75 1759 -75 
Q 1078 -75 664 370 
Q 250 816 250 1647 
Q 250 2184 428 2587 
Q 606 2991 970 3192 
Q 1334 3394 1763 3394 
Q 2303 3394 2647 3120 
Q 2991 2847 3088 2344 
L 2541 2259 
Q 2463 2594 2264 2762 
Q 2066 2931 1784 2931 
Q 1359 2931 1093 2626 
Q 828 2322 828 1663 
Q 828 994 1084 691 
Q 1341 388 1753 388 
Q 2084 388 2306 591 
Q 2528 794 2588 1216 
z
" transform="scale(0.015625)"/>
       <path id="ArialMT-68" d="M 422 0 
L 422 4581 
L 984 4581 
L 984 2938 
Q 1378 3394 1978 3394 
Q 2347 3394 2619 3248 
Q 2891 3103 3008 2847 
Q 3125 2591 3125 2103 
L 3125 0 
L 2563 0 
L 2563 2103 
Q 2563 2525 2380 2717 
Q 2197 2909 1863 2909 
Q 1613 2909 1392 2779 
Q 1172 2650 1078 2428 
Q 984 2206 984 1816 
L 984 0 
L 422 0 
z
" transform="scale(0.015625)"/>
       <path id="ArialMT-61" d="M 2588 409 
Q 2275 144 1986 34 
Q 1697 -75 1366 -75 
Q 819 -75 525 192 
Q 231 459 231 875 
Q 231 1119 342 1320 
Q 453 1522 633 1644 
Q 813 1766 1038 1828 
Q 1203 1872 1538 1913 
Q 2219 1994 2541 2106 
Q 2544 2222 2544 2253 
Q 2544 2597 2384 2738 
Q 2169 2928 1744 2928 
Q 1347 2928 1158 2789 
Q 969 2650 878 2297 
L 328 2372 
Q 403 2725 575 2942 
Q 747 3159 1072 3276 
Q 1397 3394 1825 3394 
Q 2250 3394 2515 3294 
Q 2781 3194 2906 3042 
Q 3031 2891 3081 2659 
Q 3109 2516 3109 2141 
L 3109 1391 
Q 3109 606 3145 398 
Q 3181 191 3288 0 
L 2700 0 
Q 2613 175 2588 409 
z
M 2541 1666 
Q 2234 1541 1622 1453 
Q 1275 1403 1131 1340 
Q 988 1278 909 1158 
Q 831 1038 831 891 
Q 831 666 1001 516 
Q 1172 366 1500 366 
Q 1825 366 2078 508 
Q 2331 650 2450 897 
Q 2541 1088 2541 1459 
L 2541 1666 
z
" transform="scale(0.015625)"/>
       <path id="ArialMT-6e" d="M 422 0 
L 422 3319 
L 928 3319 
L 928 2847 
Q 1294 3394 1984 3394 
Q 2284 3394 2536 3286 
Q 2788 3178 2913 3003 
Q 3038 2828 3088 2588 
Q 3119 2431 3119 2041 
L 3119 0 
L 2556 0 
L 2556 2019 
Q 2556 2363 2490 2533 
Q 2425 2703 2258 2804 
Q 2091 2906 1866 2906 
Q 1506 2906 1245 2678 
Q 984 2450 984 1813 
L 984 0 
L 422 0 
z
" transform="scale(0.015625)"/>
       <path id="ArialMT-65" d="M 2694 1069 
L 3275 997 
Q 3138 488 2766 206 
Q 2394 -75 1816 -75 
Q 1088 -75 661 373 
Q 234 822 234 1631 
Q 234 2469 665 2931 
Q 1097 3394 1784 3394 
Q 2450 3394 2872 2941 
Q 3294 2488 3294 1666 
Q 3294 1616 3291 1516 
L 816 1516 
Q 847 969 1125 678 
Q 1403 388 1819 388 
Q 2128 388 2347 550 
Q 2566 713 2694 1069 
z
M 847 1978 
L 2700 1978 
Q 2663 2397 2488 2606 
Q 2219 2931 1791 2931 
Q 1403 2931 1139 2672 
Q 875 2413 847 1978 
z
" transform="scale(0.015625)"/>
       <path id="ArialMT-6c" d="M 409 0 
L 409 4581 
L 972 4581 
L 972 0 
L 409 0 
z
" transform="scale(0.015625)"/>
      </defs>
      <use xlink:href="#ArialMT-4f"/>
      <use xlink:href="#ArialMT-75" transform="translate(77.783203 0)"/>
      <use xlink:href="#ArialMT-74" transform="translate(133.398438 0)"/>
      <use xlink:href="#ArialMT-70" transform="translate(161.181641 0)"/>
      <use xlink:href="#ArialMT-75" transform="translate(216.796875 0)"/>
      <use xlink:href="#ArialMT-74" transform="translate(272.412109 0)"/>
      <use xlink:href="#ArialMT-20" transform="translate(300.195312 0)"/>
      <use xlink:href="#ArialMT-63" transform="translate(327.978516 0)"/>
      <use xlink:href="#ArialMT-68" transform="translate(377.978516 0)"/>
      <use xlink:href="#ArialMT-61" transform="translate(433.59375 0)"/>
      <use xlink:href="#ArialMT-6e" transform="translate(489.208984 0)"/>
      <use xlink:href="#ArialMT-6e" transform="translate(544.824219 0)"/>
      <use xlink:href="#ArialMT-65" transform="translate(600.439453 0)"/>
      <use xlink:href="#ArialMT-6c" transform="translate(656.054688 0)"/>
     </g>
    </g>
   </g>
   <g id="matplotlib.axis_2">
    <g id="ytick_1">
     <g id="line2d_5">
      <defs>
       <path id="m9c3fcaa3ba" d="M 0 0 
L -3.5 0 
" style="stroke: #000000; stroke-width: 0.8"/>
      </defs>
      <g>
       <use xlink:href="#m9c3fcaa3ba" x="41.755663" y="134.046406" style="stroke: #000000; stroke-width: 0.8"/>
      </g>
     </g>
     <g id="text_6">
      <!-- $\mathdefault{10^{-20}}$ -->
      <g transform="translate(18.165663 137.655781) scale(0.07 -0.07)">
       <defs>
        <path id="ArialMT-31" d="M 2384 0 
L 1822 0 
L 1822 3584 
Q 1619 3391 1289 3197 
Q 959 3003 697 2906 
L 697 3450 
Q 1169 3672 1522 3987 
Q 1875 4303 2022 4600 
L 2384 4600 
L 2384 0 
z
" transform="scale(0.015625)"/>
        <path id="ArialMT-2212" d="M 3381 1997 
L 356 1997 
L 356 2522 
L 3381 2522 
L 3381 1997 
z
" transform="scale(0.015625)"/>
       </defs>
       <use xlink:href="#ArialMT-31" transform="translate(0 0.99375)"/>
       <use xlink:href="#ArialMT-30" transform="translate(55.615234 0.99375)"/>
       <use xlink:href="#ArialMT-2212" transform="translate(112.972813 70.6875) scale(0.7)"/>
       <use xlink:href="#ArialMT-32" transform="translate(153.851719 70.6875) scale(0.7)"/>
       <use xlink:href="#ArialMT-30" transform="translate(192.782383 70.6875) scale(0.7)"/>
      </g>
     </g>
    </g>
    <g id="ytick_2">
     <g id="line2d_6">
      <g>
       <use xlink:href="#m9c3fcaa3ba" x="41.755663" y="119.345793" style="stroke: #000000; stroke-width: 0.8"/>
      </g>
     </g>
     <g id="text_7">
      <!-- $\mathdefault{10^{-18}}$ -->
      <g transform="translate(18.165663 122.955168) scale(0.07 -0.07)">
       <defs>
        <path id="ArialMT-38" d="M 1131 2484 
Q 781 2613 612 2850 
Q 444 3088 444 3419 
Q 444 3919 803 4259 
Q 1163 4600 1759 4600 
Q 2359 4600 2725 4251 
Q 3091 3903 3091 3403 
Q 3091 3084 2923 2848 
Q 2756 2613 2416 2484 
Q 2838 2347 3058 2040 
Q 3278 1734 3278 1309 
Q 3278 722 2862 322 
Q 2447 -78 1769 -78 
Q 1091 -78 675 323 
Q 259 725 259 1325 
Q 259 1772 486 2073 
Q 713 2375 1131 2484 
z
M 1019 3438 
Q 1019 3113 1228 2906 
Q 1438 2700 1772 2700 
Q 2097 2700 2305 2904 
Q 2513 3109 2513 3406 
Q 2513 3716 2298 3927 
Q 2084 4138 1766 4138 
Q 1444 4138 1231 3931 
Q 1019 3725 1019 3438 
z
M 838 1322 
Q 838 1081 952 856 
Q 1066 631 1291 507 
Q 1516 384 1775 384 
Q 2178 384 2440 643 
Q 2703 903 2703 1303 
Q 2703 1709 2433 1975 
Q 2163 2241 1756 2241 
Q 1359 2241 1098 1978 
Q 838 1716 838 1322 
z
" transform="scale(0.015625)"/>
       </defs>
       <use xlink:href="#ArialMT-31" transform="translate(0 0.99375)"/>
       <use xlink:href="#ArialMT-30" transform="translate(55.615234 0.99375)"/>
       <use xlink:href="#ArialMT-2212" transform="translate(112.972813 70.6875) scale(0.7)"/>
       <use xlink:href="#ArialMT-31" transform="translate(153.851719 70.6875) scale(0.7)"/>
       <use xlink:href="#ArialMT-38" transform="translate(192.782383 70.6875) scale(0.7)"/>
      </g>
     </g>
    </g>
    <g id="ytick_3">
     <g id="line2d_7">
      <g>
       <use xlink:href="#m9c3fcaa3ba" x="41.755663" y="104.645181" style="stroke: #000000; stroke-width: 0.8"/>
      </g>
     </g>
     <g id="text_8">
      <!-- $\mathdefault{10^{-16}}$ -->
      <g transform="translate(18.165663 108.254556) scale(0.07 -0.07)">
       <use xlink:href="#ArialMT-31" transform="translate(0 0.99375)"/>
       <use xlink:href="#ArialMT-30" transform="translate(55.615234 0.99375)"/>
       <use xlink:href="#ArialMT-2212" transform="translate(112.972813 70.6875) scale(0.7)"/>
       <use xlink:href="#ArialMT-31" transform="translate(153.851719 70.6875) scale(0.7)"/>
       <use xlink:href="#ArialMT-36" transform="translate(192.782383 70.6875) scale(0.7)"/>
      </g>
     </g>
    </g>
    <g id="ytick_4">
     <g id="line2d_8">
      <g>
       <use xlink:href="#m9c3fcaa3ba" x="41.755663" y="89.944569" style="stroke: #000000; stroke-width: 0.8"/>
      </g>
     </g>
     <g id="text_9">
      <!-- $\mathdefault{10^{-14}}$ -->
      <g transform="translate(18.165663 93.553944) scale(0.07 -0.07)">
       <use xlink:href="#ArialMT-31" transform="translate(0 0.99375)"/>
       <use xlink:href="#ArialMT-30" transform="translate(55.615234 0.99375)"/>
       <use xlink:href="#ArialMT-2212" transform="translate(112.972813 70.6875) scale(0.7)"/>
       <use xlink:href="#ArialMT-31" transform="translate(153.851719 70.6875) scale(0.7)"/>
       <use xlink:href="#ArialMT-34" transform="translate(192.782383 70.6875) scale(0.7)"/>
      </g>
     </g>
    </g>
    <g id="ytick_5">
     <g id="line2d_9">
      <g>
       <use xlink:href="#m9c3fcaa3ba" x="41.755663" y="75.243956" style="stroke: #000000; stroke-width: 0.8"/>
      </g>
     </g>
     <g id="text_10">
      <!-- $\mathdefault{10^{-12}}$ -->
      <g transform="translate(18.165663 78.853331) scale(0.07 -0.07)">
       <use xlink:href="#ArialMT-31" transform="translate(0 0.99375)"/>
       <use xlink:href="#ArialMT-30" transform="translate(55.615234 0.99375)"/>
       <use xlink:href="#ArialMT-2212" transform="translate(112.972813 70.6875) scale(0.7)"/>
       <use xlink:href="#ArialMT-31" transform="translate(153.851719 70.6875) scale(0.7)"/>
       <use xlink:href="#ArialMT-32" transform="translate(192.782383 70.6875) scale(0.7)"/>
      </g>
     </g>
    </g>
    <g id="ytick_6">
     <g id="line2d_10">
      <g>
       <use xlink:href="#m9c3fcaa3ba" x="41.755663" y="60.543344" style="stroke: #000000; stroke-width: 0.8"/>
      </g>
     </g>
     <g id="text_11">
      <!-- $\mathdefault{10^{-10}}$ -->
      <g transform="translate(18.165663 64.152719) scale(0.07 -0.07)">
       <use xlink:href="#ArialMT-31" transform="translate(0 0.99375)"/>
       <use xlink:href="#ArialMT-30" transform="translate(55.615234 0.99375)"/>
       <use xlink:href="#ArialMT-2212" transform="translate(112.972813 70.6875) scale(0.7)"/>
       <use xlink:href="#ArialMT-31" transform="translate(153.851719 70.6875) scale(0.7)"/>
       <use xlink:href="#ArialMT-30" transform="translate(192.782383 70.6875) scale(0.7)"/>
      </g>
     </g>
    </g>
    <g id="ytick_7">
     <g id="line2d_11">
      <g>
       <use xlink:href="#m9c3fcaa3ba" x="41.755663" y="45.842732" style="stroke: #000000; stroke-width: 0.8"/>
      </g>
     </g>
     <g id="text_12">
      <!-- $\mathdefault{10^{-8}}$ -->
      <g transform="translate(20.895663 49.452107) scale(0.07 -0.07)">
       <use xlink:href="#ArialMT-31" transform="translate(0 0.99375)"/>
       <use xlink:href="#ArialMT-30" transform="translate(55.615234 0.99375)"/>
       <use xlink:href="#ArialMT-2212" transform="translate(112.972813 70.6875) scale(0.7)"/>
       <use xlink:href="#ArialMT-38" transform="translate(153.851719 70.6875) scale(0.7)"/>
      </g>
     </g>
    </g>
    <g id="ytick_8">
     <g id="line2d_12">
      <g>
       <use xlink:href="#m9c3fcaa3ba" x="41.755663" y="31.142119" style="stroke: #000000; stroke-width: 0.8"/>
      </g>
     </g>
     <g id="text_13">
      <!-- $\mathdefault{10^{-6}}$ -->
      <g transform="translate(20.895663 34.751494) scale(0.07 -0.07)">
       <use xlink:href="#ArialMT-31" transform="translate(0 0.99375)"/>
       <use xlink:href="#ArialMT-30" transform="translate(55.615234 0.99375)"/>
       <use xlink:href="#ArialMT-2212" transform="translate(112.972813 70.6875) scale(0.7)"/>
       <use xlink:href="#ArialMT-36" transform="translate(153.851719 70.6875) scale(0.7)"/>
      </g>
     </g>
    </g>
    <g id="text_14">
     <!-- MSE -->
     <g transform="translate(12.774413 91.270859) rotate(-90) scale(0.07 -0.07)">
      <defs>
       <path id="ArialMT-4d" d="M 475 0 
L 475 4581 
L 1388 4581 
L 2472 1338 
Q 2622 884 2691 659 
Q 2769 909 2934 1394 
L 4031 4581 
L 4847 4581 
L 4847 0 
L 4263 0 
L 4263 3834 
L 2931 0 
L 2384 0 
L 1059 3900 
L 1059 0 
L 475 0 
z
" transform="scale(0.015625)"/>
       <path id="ArialMT-53" d="M 288 1472 
L 859 1522 
Q 900 1178 1048 958 
Q 1197 738 1509 602 
Q 1822 466 2213 466 
Q 2559 466 2825 569 
Q 3091 672 3220 851 
Q 3350 1031 3350 1244 
Q 3350 1459 3225 1620 
Q 3100 1781 2813 1891 
Q 2628 1963 1997 2114 
Q 1366 2266 1113 2400 
Q 784 2572 623 2826 
Q 463 3081 463 3397 
Q 463 3744 659 4045 
Q 856 4347 1234 4503 
Q 1613 4659 2075 4659 
Q 2584 4659 2973 4495 
Q 3363 4331 3572 4012 
Q 3781 3694 3797 3291 
L 3216 3247 
Q 3169 3681 2898 3903 
Q 2628 4125 2100 4125 
Q 1550 4125 1298 3923 
Q 1047 3722 1047 3438 
Q 1047 3191 1225 3031 
Q 1400 2872 2139 2705 
Q 2878 2538 3153 2413 
Q 3553 2228 3743 1945 
Q 3934 1663 3934 1294 
Q 3934 928 3725 604 
Q 3516 281 3123 101 
Q 2731 -78 2241 -78 
Q 1619 -78 1198 103 
Q 778 284 539 648 
Q 300 1013 288 1472 
z
" transform="scale(0.015625)"/>
       <path id="ArialMT-45" d="M 506 0 
L 506 4581 
L 3819 4581 
L 3819 4041 
L 1113 4041 
L 1113 2638 
L 3647 2638 
L 3647 2100 
L 1113 2100 
L 1113 541 
L 3925 541 
L 3925 0 
L 506 0 
z
" transform="scale(0.015625)"/>
      </defs>
      <use xlink:href="#ArialMT-4d"/>
      <use xlink:href="#ArialMT-53" transform="translate(83.300781 0)"/>
      <use xlink:href="#ArialMT-45" transform="translate(150 0)"/>
     </g>
    </g>
   </g>
   <g id="patch_131">
    <path d="M 41.755663 148 
L 41.755663 19.3725 
" style="fill: none; stroke: #000000; stroke-width: 0.8; stroke-linejoin: miter; stroke-linecap: square"/>
   </g>
   <g id="patch_132">
    <path d="M 41.755663 148 
L 192.707831 148 
" style="fill: none; stroke: #000000; stroke-width: 0.8; stroke-linejoin: miter; stroke-linecap: square"/>
   </g>
   <g id="text_15">
    <!-- Per-Channel MSE Comparison -->
    <g transform="translate(59.446747 13.3725) scale(0.08 -0.08)">
     <defs>
      <path id="Arial-BoldMT-50" d="M 466 0 
L 466 4581 
L 1950 4581 
Q 2794 4581 3050 4513 
Q 3444 4409 3709 4064 
Q 3975 3719 3975 3172 
Q 3975 2750 3822 2462 
Q 3669 2175 3433 2011 
Q 3197 1847 2953 1794 
Q 2622 1728 1994 1728 
L 1391 1728 
L 1391 0 
L 466 0 
z
M 1391 3806 
L 1391 2506 
L 1897 2506 
Q 2444 2506 2628 2578 
Q 2813 2650 2917 2803 
Q 3022 2956 3022 3159 
Q 3022 3409 2875 3571 
Q 2728 3734 2503 3775 
Q 2338 3806 1838 3806 
L 1391 3806 
z
" transform="scale(0.015625)"/>
      <path id="Arial-BoldMT-65" d="M 2381 1056 
L 3256 909 
Q 3088 428 2723 176 
Q 2359 -75 1813 -75 
Q 947 -75 531 491 
Q 203 944 203 1634 
Q 203 2459 634 2926 
Q 1066 3394 1725 3394 
Q 2466 3394 2894 2905 
Q 3322 2416 3303 1406 
L 1103 1406 
Q 1113 1016 1316 798 
Q 1519 581 1822 581 
Q 2028 581 2168 693 
Q 2309 806 2381 1056 
z
M 2431 1944 
Q 2422 2325 2234 2523 
Q 2047 2722 1778 2722 
Q 1491 2722 1303 2513 
Q 1116 2303 1119 1944 
L 2431 1944 
z
" transform="scale(0.015625)"/>
      <path id="Arial-BoldMT-72" d="M 1300 0 
L 422 0 
L 422 3319 
L 1238 3319 
L 1238 2847 
Q 1447 3181 1614 3287 
Q 1781 3394 1994 3394 
Q 2294 3394 2572 3228 
L 2300 2463 
Q 2078 2606 1888 2606 
Q 1703 2606 1575 2504 
Q 1447 2403 1373 2137 
Q 1300 1872 1300 1025 
L 1300 0 
z
" transform="scale(0.015625)"/>
      <path id="Arial-BoldMT-2d" d="M 359 1222 
L 359 2100 
L 2084 2100 
L 2084 1222 
L 359 1222 
z
" transform="scale(0.015625)"/>
      <path id="Arial-BoldMT-43" d="M 3397 1684 
L 4294 1400 
Q 4088 650 3608 286 
Q 3128 -78 2391 -78 
Q 1478 -78 890 545 
Q 303 1169 303 2250 
Q 303 3394 893 4026 
Q 1484 4659 2447 4659 
Q 3288 4659 3813 4163 
Q 4125 3869 4281 3319 
L 3366 3100 
Q 3284 3456 3026 3662 
Q 2769 3869 2400 3869 
Q 1891 3869 1573 3503 
Q 1256 3138 1256 2319 
Q 1256 1450 1568 1081 
Q 1881 713 2381 713 
Q 2750 713 3015 947 
Q 3281 1181 3397 1684 
z
" transform="scale(0.015625)"/>
      <path id="Arial-BoldMT-68" d="M 1334 4581 
L 1334 2897 
Q 1759 3394 2350 3394 
Q 2653 3394 2897 3281 
Q 3141 3169 3264 2994 
Q 3388 2819 3433 2606 
Q 3478 2394 3478 1947 
L 3478 0 
L 2600 0 
L 2600 1753 
Q 2600 2275 2550 2415 
Q 2500 2556 2373 2639 
Q 2247 2722 2056 2722 
Q 1838 2722 1666 2615 
Q 1494 2509 1414 2295 
Q 1334 2081 1334 1663 
L 1334 0 
L 456 0 
L 456 4581 
L 1334 4581 
z
" transform="scale(0.015625)"/>
      <path id="Arial-BoldMT-61" d="M 1116 2306 
L 319 2450 
Q 453 2931 781 3162 
Q 1109 3394 1756 3394 
Q 2344 3394 2631 3255 
Q 2919 3116 3036 2902 
Q 3153 2688 3153 2116 
L 3144 1091 
Q 3144 653 3186 445 
Q 3228 238 3344 0 
L 2475 0 
Q 2441 88 2391 259 
Q 2369 338 2359 363 
Q 2134 144 1878 34 
Q 1622 -75 1331 -75 
Q 819 -75 523 203 
Q 228 481 228 906 
Q 228 1188 362 1408 
Q 497 1628 739 1745 
Q 981 1863 1438 1950 
Q 2053 2066 2291 2166 
L 2291 2253 
Q 2291 2506 2166 2614 
Q 2041 2722 1694 2722 
Q 1459 2722 1328 2630 
Q 1197 2538 1116 2306 
z
M 2291 1594 
Q 2122 1538 1756 1459 
Q 1391 1381 1278 1306 
Q 1106 1184 1106 997 
Q 1106 813 1243 678 
Q 1381 544 1594 544 
Q 1831 544 2047 700 
Q 2206 819 2256 991 
Q 2291 1103 2291 1419 
L 2291 1594 
z
" transform="scale(0.015625)"/>
      <path id="Arial-BoldMT-6e" d="M 3478 0 
L 2600 0 
L 2600 1694 
Q 2600 2231 2544 2389 
Q 2488 2547 2361 2634 
Q 2234 2722 2056 2722 
Q 1828 2722 1647 2597 
Q 1466 2472 1398 2265 
Q 1331 2059 1331 1503 
L 1331 0 
L 453 0 
L 453 3319 
L 1269 3319 
L 1269 2831 
Q 1703 3394 2363 3394 
Q 2653 3394 2893 3289 
Q 3134 3184 3257 3021 
Q 3381 2859 3429 2653 
Q 3478 2447 3478 2063 
L 3478 0 
z
" transform="scale(0.015625)"/>
      <path id="Arial-BoldMT-6c" d="M 459 0 
L 459 4581 
L 1338 4581 
L 1338 0 
L 459 0 
z
" transform="scale(0.015625)"/>
      <path id="Arial-BoldMT-20" transform="scale(0.015625)"/>
      <path id="Arial-BoldMT-4d" d="M 453 0 
L 453 4581 
L 1838 4581 
L 2669 1456 
L 3491 4581 
L 4878 4581 
L 4878 0 
L 4019 0 
L 4019 3606 
L 3109 0 
L 2219 0 
L 1313 3606 
L 1313 0 
L 453 0 
z
" transform="scale(0.015625)"/>
      <path id="Arial-BoldMT-53" d="M 231 1491 
L 1131 1578 
Q 1213 1125 1461 912 
Q 1709 700 2131 700 
Q 2578 700 2804 889 
Q 3031 1078 3031 1331 
Q 3031 1494 2936 1608 
Q 2841 1722 2603 1806 
Q 2441 1863 1863 2006 
Q 1119 2191 819 2459 
Q 397 2838 397 3381 
Q 397 3731 595 4036 
Q 794 4341 1167 4500 
Q 1541 4659 2069 4659 
Q 2931 4659 3367 4281 
Q 3803 3903 3825 3272 
L 2900 3231 
Q 2841 3584 2645 3739 
Q 2450 3894 2059 3894 
Q 1656 3894 1428 3728 
Q 1281 3622 1281 3444 
Q 1281 3281 1419 3166 
Q 1594 3019 2269 2859 
Q 2944 2700 3267 2529 
Q 3591 2359 3773 2064 
Q 3956 1769 3956 1334 
Q 3956 941 3737 597 
Q 3519 253 3119 86 
Q 2719 -81 2122 -81 
Q 1253 -81 787 320 
Q 322 722 231 1491 
z
" transform="scale(0.015625)"/>
      <path id="Arial-BoldMT-45" d="M 466 0 
L 466 4581 
L 3863 4581 
L 3863 3806 
L 1391 3806 
L 1391 2791 
L 3691 2791 
L 3691 2019 
L 1391 2019 
L 1391 772 
L 3950 772 
L 3950 0 
L 466 0 
z
" transform="scale(0.015625)"/>
      <path id="Arial-BoldMT-6f" d="M 256 1706 
Q 256 2144 472 2553 
Q 688 2963 1083 3178 
Q 1478 3394 1966 3394 
Q 2719 3394 3200 2905 
Q 3681 2416 3681 1669 
Q 3681 916 3195 420 
Q 2709 -75 1972 -75 
Q 1516 -75 1102 131 
Q 688 338 472 736 
Q 256 1134 256 1706 
z
M 1156 1659 
Q 1156 1166 1390 903 
Q 1625 641 1969 641 
Q 2313 641 2545 903 
Q 2778 1166 2778 1666 
Q 2778 2153 2545 2415 
Q 2313 2678 1969 2678 
Q 1625 2678 1390 2415 
Q 1156 2153 1156 1659 
z
" transform="scale(0.015625)"/>
      <path id="Arial-BoldMT-6d" d="M 394 3319 
L 1203 3319 
L 1203 2866 
Q 1638 3394 2238 3394 
Q 2556 3394 2790 3262 
Q 3025 3131 3175 2866 
Q 3394 3131 3647 3262 
Q 3900 3394 4188 3394 
Q 4553 3394 4806 3245 
Q 5059 3097 5184 2809 
Q 5275 2597 5275 2122 
L 5275 0 
L 4397 0 
L 4397 1897 
Q 4397 2391 4306 2534 
Q 4184 2722 3931 2722 
Q 3747 2722 3584 2609 
Q 3422 2497 3350 2280 
Q 3278 2063 3278 1594 
L 3278 0 
L 2400 0 
L 2400 1819 
Q 2400 2303 2353 2443 
Q 2306 2584 2207 2653 
Q 2109 2722 1941 2722 
Q 1738 2722 1575 2612 
Q 1413 2503 1342 2297 
Q 1272 2091 1272 1613 
L 1272 0 
L 394 0 
L 394 3319 
z
" transform="scale(0.015625)"/>
      <path id="Arial-BoldMT-70" d="M 434 3319 
L 1253 3319 
L 1253 2831 
Q 1413 3081 1684 3237 
Q 1956 3394 2288 3394 
Q 2866 3394 3269 2941 
Q 3672 2488 3672 1678 
Q 3672 847 3265 386 
Q 2859 -75 2281 -75 
Q 2006 -75 1782 34 
Q 1559 144 1313 409 
L 1313 -1263 
L 434 -1263 
L 434 3319 
z
M 1303 1716 
Q 1303 1156 1525 889 
Q 1747 622 2066 622 
Q 2372 622 2575 867 
Q 2778 1113 2778 1672 
Q 2778 2194 2568 2447 
Q 2359 2700 2050 2700 
Q 1728 2700 1515 2451 
Q 1303 2203 1303 1716 
z
" transform="scale(0.015625)"/>
      <path id="Arial-BoldMT-69" d="M 459 3769 
L 459 4581 
L 1338 4581 
L 1338 3769 
L 459 3769 
z
M 459 0 
L 459 3319 
L 1338 3319 
L 1338 0 
L 459 0 
z
" transform="scale(0.015625)"/>
      <path id="Arial-BoldMT-73" d="M 150 947 
L 1031 1081 
Q 1088 825 1259 692 
Q 1431 559 1741 559 
Q 2081 559 2253 684 
Q 2369 772 2369 919 
Q 2369 1019 2306 1084 
Q 2241 1147 2013 1200 
Q 950 1434 666 1628 
Q 272 1897 272 2375 
Q 272 2806 612 3100 
Q 953 3394 1669 3394 
Q 2350 3394 2681 3172 
Q 3013 2950 3138 2516 
L 2309 2363 
Q 2256 2556 2107 2659 
Q 1959 2763 1684 2763 
Q 1338 2763 1188 2666 
Q 1088 2597 1088 2488 
Q 1088 2394 1175 2328 
Q 1294 2241 1995 2081 
Q 2697 1922 2975 1691 
Q 3250 1456 3250 1038 
Q 3250 581 2869 253 
Q 2488 -75 1741 -75 
Q 1063 -75 667 200 
Q 272 475 150 947 
z
" transform="scale(0.015625)"/>
     </defs>
     <use xlink:href="#Arial-BoldMT-50"/>
     <use xlink:href="#Arial-BoldMT-65" transform="translate(66.699219 0)"/>
     <use xlink:href="#Arial-BoldMT-72" transform="translate(122.314453 0)"/>
     <use xlink:href="#Arial-BoldMT-2d" transform="translate(161.230469 0)"/>
     <use xlink:href="#Arial-BoldMT-43" transform="translate(194.53125 0)"/>
     <use xlink:href="#Arial-BoldMT-68" transform="translate(266.748047 0)"/>
     <use xlink:href="#Arial-BoldMT-61" transform="translate(327.832031 0)"/>
     <use xlink:href="#Arial-BoldMT-6e" transform="translate(383.447266 0)"/>
     <use xlink:href="#Arial-BoldMT-6e" transform="translate(444.53125 0)"/>
     <use xlink:href="#Arial-BoldMT-65" transform="translate(505.615234 0)"/>
     <use xlink:href="#Arial-BoldMT-6c" transform="translate(561.230469 0)"/>
     <use xlink:href="#Arial-BoldMT-20" transform="translate(589.013672 0)"/>
     <use xlink:href="#Arial-BoldMT-4d" transform="translate(616.796875 0)"/>
     <use xlink:href="#Arial-BoldMT-53" transform="translate(700.097656 0)"/>
     <use xlink:href="#Arial-BoldMT-45" transform="translate(766.796875 0)"/>
     <use xlink:href="#Arial-BoldMT-20" transform="translate(833.496094 0)"/>
     <use xlink:href="#Arial-BoldMT-43" transform="translate(861.279297 0)"/>
     <use xlink:href="#Arial-BoldMT-6f" transform="translate(933.496094 0)"/>
     <use xlink:href="#Arial-BoldMT-6d" transform="translate(994.580078 0)"/>
     <use xlink:href="#Arial-BoldMT-70" transform="translate(1083.496094 0)"/>
     <use xlink:href="#Arial-BoldMT-61" transform="translate(1144.580078 0)"/>
     <use xlink:href="#Arial-BoldMT-72" transform="translate(1200.195312 0)"/>
     <use xlink:href="#Arial-BoldMT-69" transform="translate(1239.111328 0)"/>
     <use xlink:href="#Arial-BoldMT-73" transform="translate(1266.894531 0)"/>
     <use xlink:href="#Arial-BoldMT-6f" transform="translate(1322.509766 0)"/>
     <use xlink:href="#Arial-BoldMT-6e" transform="translate(1383.59375 0)"/>
    </g>
   </g>
   <g id="legend_1">
    <g id="patch_133">
     <path d="M 136.957519 41.146875 
L 188.507831 41.146875 
Q 189.707831 41.146875 189.707831 39.946875 
L 189.707831 23.5725 
Q 189.707831 22.3725 188.507831 22.3725 
L 136.957519 22.3725 
Q 135.757519 22.3725 135.757519 23.5725 
L 135.757519 39.946875 
Q 135.757519 41.146875 136.957519 41.146875 
z
" style="fill: #ffffff; opacity: 0.8; stroke: #cccccc; stroke-linejoin: miter"/>
    </g>
    <g id="patch_134">
     <path d="M 138.157519 29.067187 
L 150.157519 29.067187 
L 150.157519 24.867187 
L 138.157519 24.867187 
z
" style="fill: #e37b45; opacity: 0.8"/>
    </g>
    <g id="text_16">
     <!-- Per-tensor -->
     <g transform="translate(154.957519 29.067187) scale(0.06 -0.06)">
      <defs>
       <path id="ArialMT-50" d="M 494 0 
L 494 4581 
L 2222 4581 
Q 2678 4581 2919 4538 
Q 3256 4481 3484 4323 
Q 3713 4166 3852 3881 
Q 3991 3597 3991 3256 
Q 3991 2672 3619 2267 
Q 3247 1863 2275 1863 
L 1100 1863 
L 1100 0 
L 494 0 
z
M 1100 2403 
L 2284 2403 
Q 2872 2403 3119 2622 
Q 3366 2841 3366 3238 
Q 3366 3525 3220 3729 
Q 3075 3934 2838 4000 
Q 2684 4041 2272 4041 
L 1100 4041 
L 1100 2403 
z
" transform="scale(0.015625)"/>
       <path id="ArialMT-72" d="M 416 0 
L 416 3319 
L 922 3319 
L 922 2816 
Q 1116 3169 1280 3281 
Q 1444 3394 1641 3394 
Q 1925 3394 2219 3213 
L 2025 2691 
Q 1819 2813 1613 2813 
Q 1428 2813 1281 2702 
Q 1134 2591 1072 2394 
Q 978 2094 978 1738 
L 978 0 
L 416 0 
z
" transform="scale(0.015625)"/>
       <path id="ArialMT-2d" d="M 203 1375 
L 203 1941 
L 1931 1941 
L 1931 1375 
L 203 1375 
z
" transform="scale(0.015625)"/>
       <path id="ArialMT-73" d="M 197 991 
L 753 1078 
Q 800 744 1014 566 
Q 1228 388 1613 388 
Q 2000 388 2187 545 
Q 2375 703 2375 916 
Q 2375 1106 2209 1216 
Q 2094 1291 1634 1406 
Q 1016 1563 777 1677 
Q 538 1791 414 1992 
Q 291 2194 291 2438 
Q 291 2659 392 2848 
Q 494 3038 669 3163 
Q 800 3259 1026 3326 
Q 1253 3394 1513 3394 
Q 1903 3394 2198 3281 
Q 2494 3169 2634 2976 
Q 2775 2784 2828 2463 
L 2278 2388 
Q 2241 2644 2061 2787 
Q 1881 2931 1553 2931 
Q 1166 2931 1000 2803 
Q 834 2675 834 2503 
Q 834 2394 903 2306 
Q 972 2216 1119 2156 
Q 1203 2125 1616 2013 
Q 2213 1853 2448 1751 
Q 2684 1650 2818 1456 
Q 2953 1263 2953 975 
Q 2953 694 2789 445 
Q 2625 197 2315 61 
Q 2006 -75 1616 -75 
Q 969 -75 630 194 
Q 291 463 197 991 
z
" transform="scale(0.015625)"/>
       <path id="ArialMT-6f" d="M 213 1659 
Q 213 2581 725 3025 
Q 1153 3394 1769 3394 
Q 2453 3394 2887 2945 
Q 3322 2497 3322 1706 
Q 3322 1066 3130 698 
Q 2938 331 2570 128 
Q 2203 -75 1769 -75 
Q 1072 -75 642 372 
Q 213 819 213 1659 
z
M 791 1659 
Q 791 1022 1069 705 
Q 1347 388 1769 388 
Q 2188 388 2466 706 
Q 2744 1025 2744 1678 
Q 2744 2294 2464 2611 
Q 2184 2928 1769 2928 
Q 1347 2928 1069 2612 
Q 791 2297 791 1659 
z
" transform="scale(0.015625)"/>
      </defs>
      <use xlink:href="#ArialMT-50"/>
      <use xlink:href="#ArialMT-65" transform="translate(66.699219 0)"/>
      <use xlink:href="#ArialMT-72" transform="translate(122.314453 0)"/>
      <use xlink:href="#ArialMT-2d" transform="translate(155.615234 0)"/>
      <use xlink:href="#ArialMT-74" transform="translate(188.916016 0)"/>
      <use xlink:href="#ArialMT-65" transform="translate(216.699219 0)"/>
      <use xlink:href="#ArialMT-6e" transform="translate(272.314453 0)"/>
      <use xlink:href="#ArialMT-73" transform="translate(327.929688 0)"/>
      <use xlink:href="#ArialMT-6f" transform="translate(377.929688 0)"/>
      <use xlink:href="#ArialMT-72" transform="translate(433.544922 0)"/>
     </g>
    </g>
    <g id="patch_135">
     <path d="M 138.157519 37.554375 
L 150.157519 37.554375 
L 150.157519 33.354375 
L 138.157519 33.354375 
z
" style="fill: #0060b1; opacity: 0.8"/>
    </g>
    <g id="text_17">
     <!-- Per-channel -->
     <g transform="translate(154.957519 37.554375) scale(0.06 -0.06)">
      <use xlink:href="#ArialMT-50"/>
      <use xlink:href="#ArialMT-65" transform="translate(66.699219 0)"/>
      <use xlink:href="#ArialMT-72" transform="translate(122.314453 0)"/>
      <use xlink:href="#ArialMT-2d" transform="translate(155.615234 0)"/>
      <use xlink:href="#ArialMT-63" transform="translate(188.916016 0)"/>
      <use xlink:href="#ArialMT-68" transform="translate(238.916016 0)"/>
      <use xlink:href="#ArialMT-61" transform="translate(294.53125 0)"/>
      <use xlink:href="#ArialMT-6e" transform="translate(350.146484 0)"/>
      <use xlink:href="#ArialMT-6e" transform="translate(405.761719 0)"/>
      <use xlink:href="#ArialMT-65" transform="translate(461.376953 0)"/>
      <use xlink:href="#ArialMT-6c" transform="translate(516.992188 0)"/>
     </g>
    </g>
   </g>
  </g>
  <g id="axes_2">
   <g id="patch_136">
    <path d="M 237.487831 148 
L 388.44 148 
L 388.44 19.3725 
L 237.487831 19.3725 
z
" style="fill: #ffffff"/>
   </g>
   <g id="patch_137">
    <path d="M 244.349294 148 
L 246.070036 148 
L 246.070036 147.996872 
L 244.349294 147.996872 
z
" clip-path="url(#p337dfce6a3)" style="fill: #80c21d; opacity: 0.8"/>
   </g>
   <g id="patch_138">
    <path d="M 246.500222 148 
L 248.220965 148 
L 248.220965 147.978126 
L 246.500222 147.978126 
z
" clip-path="url(#p337dfce6a3)" style="fill: #80c21d; opacity: 0.8"/>
   </g>
   <g id="patch_139">
    <path d="M 248.651151 148 
L 250.371894 148 
L 250.371894 63.95667 
L 248.651151 63.95667 
z
" clip-path="url(#p337dfce6a3)" style="fill: #80c21d; opacity: 0.8"/>
   </g>
   <g id="patch_140">
    <path d="M 250.802079 148 
L 252.522822 148 
L 252.522822 147.930704 
L 250.802079 147.930704 
z
" clip-path="url(#p337dfce6a3)" style="fill: #80c21d; opacity: 0.8"/>
   </g>
   <g id="patch_141">
    <path d="M 252.953008 148 
L 254.673751 148 
L 254.673751 44.145845 
L 252.953008 44.145845 
z
" clip-path="url(#p337dfce6a3)" style="fill: #80c21d; opacity: 0.8"/>
   </g>
   <g id="patch_142">
    <path d="M 255.103937 148 
L 256.824679 148 
L 256.824679 147.988303 
L 255.103937 147.988303 
z
" clip-path="url(#p337dfce6a3)" style="fill: #80c21d; opacity: 0.8"/>
   </g>
   <g id="patch_143">
    <path d="M 257.254865 148 
L 258.975608 148 
L 258.975608 147.993251 
L 257.254865 147.993251 
z
" clip-path="url(#p337dfce6a3)" style="fill: #80c21d; opacity: 0.8"/>
   </g>
   <g id="patch_144">
    <path d="M 259.405794 148 
L 261.126537 148 
L 261.126537 52.486226 
L 259.405794 52.486226 
z
" clip-path="url(#p337dfce6a3)" style="fill: #80c21d; opacity: 0.8"/>
   </g>
   <g id="patch_145">
    <path d="M 261.556722 148 
L 263.277465 148 
L 263.277465 147.996412 
L 261.556722 147.996412 
z
" clip-path="url(#p337dfce6a3)" style="fill: #80c21d; opacity: 0.8"/>
   </g>
   <g id="patch_146">
    <path d="M 263.707651 148 
L 265.428394 148 
L 265.428394 25.497619 
L 263.707651 25.497619 
z
" clip-path="url(#p337dfce6a3)" style="fill: #80c21d; opacity: 0.8"/>
   </g>
   <g id="patch_147">
    <path d="M 265.85858 148 
L 267.579322 148 
L 267.579322 147.99239 
L 265.85858 147.99239 
z
" clip-path="url(#p337dfce6a3)" style="fill: #80c21d; opacity: 0.8"/>
   </g>
   <g id="patch_148">
    <path d="M 268.009508 148 
L 269.730251 148 
L 269.730251 147.990421 
L 268.009508 147.990421 
z
" clip-path="url(#p337dfce6a3)" style="fill: #80c21d; opacity: 0.8"/>
   </g>
   <g id="patch_149">
    <path d="M 270.160437 148 
L 271.88118 148 
L 271.88118 147.917287 
L 270.160437 147.917287 
z
" clip-path="url(#p337dfce6a3)" style="fill: #80c21d; opacity: 0.8"/>
   </g>
   <g id="patch_150">
    <path d="M 272.311365 148 
L 274.032108 148 
L 274.032108 63.319975 
L 272.311365 63.319975 
z
" clip-path="url(#p337dfce6a3)" style="fill: #80c21d; opacity: 0.8"/>
   </g>
   <g id="patch_151">
    <path d="M 274.462294 148 
L 276.183037 148 
L 276.183037 147.975044 
L 274.462294 147.975044 
z
" clip-path="url(#p337dfce6a3)" style="fill: #80c21d; opacity: 0.8"/>
   </g>
   <g id="patch_152">
    <path d="M 276.613222 148 
L 278.333965 148 
L 278.333965 147.991808 
L 276.613222 147.991808 
z
" clip-path="url(#p337dfce6a3)" style="fill: #80c21d; opacity: 0.8"/>
   </g>
   <g id="patch_153">
    <path d="M 278.764151 148 
L 280.484894 148 
L 280.484894 147.959168 
L 278.764151 147.959168 
z
" clip-path="url(#p337dfce6a3)" style="fill: #80c21d; opacity: 0.8"/>
   </g>
   <g id="patch_154">
    <path d="M 280.91508 148 
L 282.635823 148 
L 282.635823 147.590095 
L 280.91508 147.590095 
z
" clip-path="url(#p337dfce6a3)" style="fill: #80c21d; opacity: 0.8"/>
   </g>
   <g id="patch_155">
    <path d="M 283.066008 148 
L 284.786751 148 
L 284.786751 147.970739 
L 283.066008 147.970739 
z
" clip-path="url(#p337dfce6a3)" style="fill: #80c21d; opacity: 0.8"/>
   </g>
   <g id="patch_156">
    <path d="M 285.216937 148 
L 286.93768 148 
L 286.93768 147.951778 
L 285.216937 147.951778 
z
" clip-path="url(#p337dfce6a3)" style="fill: #80c21d; opacity: 0.8"/>
   </g>
   <g id="patch_157">
    <path d="M 287.367865 148 
L 289.088608 148 
L 289.088608 147.986271 
L 287.367865 147.986271 
z
" clip-path="url(#p337dfce6a3)" style="fill: #80c21d; opacity: 0.8"/>
   </g>
   <g id="patch_158">
    <path d="M 289.518794 148 
L 291.239537 148 
L 291.239537 147.759587 
L 289.518794 147.759587 
z
" clip-path="url(#p337dfce6a3)" style="fill: #80c21d; opacity: 0.8"/>
   </g>
   <g id="patch_159">
    <path d="M 291.669723 148 
L 293.390466 148 
L 293.390466 147.966394 
L 291.669723 147.966394 
z
" clip-path="url(#p337dfce6a3)" style="fill: #80c21d; opacity: 0.8"/>
   </g>
   <g id="patch_160">
    <path d="M 293.820651 148 
L 295.541394 148 
L 295.541394 147.994661 
L 293.820651 147.994661 
z
" clip-path="url(#p337dfce6a3)" style="fill: #80c21d; opacity: 0.8"/>
   </g>
   <g id="patch_161">
    <path d="M 295.97158 148 
L 297.692323 148 
L 297.692323 147.99779 
L 295.97158 147.99779 
z
" clip-path="url(#p337dfce6a3)" style="fill: #80c21d; opacity: 0.8"/>
   </g>
   <g id="patch_162">
    <path d="M 298.122508 148 
L 299.843251 148 
L 299.843251 147.970995 
L 298.122508 147.970995 
z
" clip-path="url(#p337dfce6a3)" style="fill: #80c21d; opacity: 0.8"/>
   </g>
   <g id="patch_163">
    <path d="M 300.273437 148 
L 301.99418 148 
L 301.99418 147.976215 
L 300.273437 147.976215 
z
" clip-path="url(#p337dfce6a3)" style="fill: #80c21d; opacity: 0.8"/>
   </g>
   <g id="patch_164">
    <path d="M 302.424366 148 
L 304.145108 148 
L 304.145108 147.961864 
L 302.424366 147.961864 
z
" clip-path="url(#p337dfce6a3)" style="fill: #80c21d; opacity: 0.8"/>
   </g>
   <g id="patch_165">
    <path d="M 304.575294 148 
L 306.296037 148 
L 306.296037 147.991844 
L 304.575294 147.991844 
z
" clip-path="url(#p337dfce6a3)" style="fill: #80c21d; opacity: 0.8"/>
   </g>
   <g id="patch_166">
    <path d="M 306.726223 148 
L 308.446966 148 
L 308.446966 147.990861 
L 306.726223 147.990861 
z
" clip-path="url(#p337dfce6a3)" style="fill: #80c21d; opacity: 0.8"/>
   </g>
   <g id="patch_167">
    <path d="M 308.877151 148 
L 310.597894 148 
L 310.597894 147.994276 
L 308.877151 147.994276 
z
" clip-path="url(#p337dfce6a3)" style="fill: #80c21d; opacity: 0.8"/>
   </g>
   <g id="patch_168">
    <path d="M 311.02808 148 
L 312.748823 148 
L 312.748823 147.980282 
L 311.02808 147.980282 
z
" clip-path="url(#p337dfce6a3)" style="fill: #80c21d; opacity: 0.8"/>
   </g>
   <g id="patch_169">
    <path d="M 313.179009 148 
L 314.899751 148 
L 314.899751 147.971652 
L 313.179009 147.971652 
z
" clip-path="url(#p337dfce6a3)" style="fill: #80c21d; opacity: 0.8"/>
   </g>
   <g id="patch_170">
    <path d="M 315.329937 148 
L 317.05068 148 
L 317.05068 147.990714 
L 315.329937 147.990714 
z
" clip-path="url(#p337dfce6a3)" style="fill: #80c21d; opacity: 0.8"/>
   </g>
   <g id="patch_171">
    <path d="M 317.480866 148 
L 319.201609 148 
L 319.201609 147.961697 
L 317.480866 147.961697 
z
" clip-path="url(#p337dfce6a3)" style="fill: #80c21d; opacity: 0.8"/>
   </g>
   <g id="patch_172">
    <path d="M 319.631794 148 
L 321.352537 148 
L 321.352537 147.951242 
L 319.631794 147.951242 
z
" clip-path="url(#p337dfce6a3)" style="fill: #80c21d; opacity: 0.8"/>
   </g>
   <g id="patch_173">
    <path d="M 321.782723 148 
L 323.503466 148 
L 323.503466 70.855114 
L 321.782723 70.855114 
z
" clip-path="url(#p337dfce6a3)" style="fill: #80c21d; opacity: 0.8"/>
   </g>
   <g id="patch_174">
    <path d="M 323.933652 148 
L 325.654394 148 
L 325.654394 147.967358 
L 323.933652 147.967358 
z
" clip-path="url(#p337dfce6a3)" style="fill: #80c21d; opacity: 0.8"/>
   </g>
   <g id="patch_175">
    <path d="M 326.08458 148 
L 327.805323 148 
L 327.805323 107.008197 
L 326.08458 107.008197 
z
" clip-path="url(#p337dfce6a3)" style="fill: #80c21d; opacity: 0.8"/>
   </g>
   <g id="patch_176">
    <path d="M 328.235509 148 
L 329.956252 148 
L 329.956252 147.997728 
L 328.235509 147.997728 
z
" clip-path="url(#p337dfce6a3)" style="fill: #80c21d; opacity: 0.8"/>
   </g>
   <g id="patch_177">
    <path d="M 330.386437 148 
L 332.10718 148 
L 332.10718 147.99543 
L 330.386437 147.99543 
z
" clip-path="url(#p337dfce6a3)" style="fill: #80c21d; opacity: 0.8"/>
   </g>
   <g id="patch_178">
    <path d="M 332.537366 148 
L 334.258109 148 
L 334.258109 147.995585 
L 332.537366 147.995585 
z
" clip-path="url(#p337dfce6a3)" style="fill: #80c21d; opacity: 0.8"/>
   </g>
   <g id="patch_179">
    <path d="M 334.688294 148 
L 336.409037 148 
L 336.409037 147.995417 
L 334.688294 147.995417 
z
" clip-path="url(#p337dfce6a3)" style="fill: #80c21d; opacity: 0.8"/>
   </g>
   <g id="patch_180">
    <path d="M 336.839223 148 
L 338.559966 148 
L 338.559966 147.990044 
L 336.839223 147.990044 
z
" clip-path="url(#p337dfce6a3)" style="fill: #80c21d; opacity: 0.8"/>
   </g>
   <g id="patch_181">
    <path d="M 338.990152 148 
L 340.710895 148 
L 340.710895 147.992335 
L 338.990152 147.992335 
z
" clip-path="url(#p337dfce6a3)" style="fill: #80c21d; opacity: 0.8"/>
   </g>
   <g id="patch_182">
    <path d="M 341.14108 148 
L 342.861823 148 
L 342.861823 147.972777 
L 341.14108 147.972777 
z
" clip-path="url(#p337dfce6a3)" style="fill: #80c21d; opacity: 0.8"/>
   </g>
   <g id="patch_183">
    <path d="M 343.292009 148 
L 345.012752 148 
L 345.012752 147.77325 
L 343.292009 147.77325 
z
" clip-path="url(#p337dfce6a3)" style="fill: #80c21d; opacity: 0.8"/>
   </g>
   <g id="patch_184">
    <path d="M 345.442937 148 
L 347.16368 148 
L 347.16368 147.997848 
L 345.442937 147.997848 
z
" clip-path="url(#p337dfce6a3)" style="fill: #80c21d; opacity: 0.8"/>
   </g>
   <g id="patch_185">
    <path d="M 347.593866 148 
L 349.314609 148 
L 349.314609 88.999777 
L 347.593866 88.999777 
z
" clip-path="url(#p337dfce6a3)" style="fill: #80c21d; opacity: 0.8"/>
   </g>
   <g id="patch_186">
    <path d="M 349.744795 148 
L 351.465537 148 
L 351.465537 147.995174 
L 349.744795 147.995174 
z
" clip-path="url(#p337dfce6a3)" style="fill: #80c21d; opacity: 0.8"/>
   </g>
   <g id="patch_187">
    <path d="M 351.895723 148 
L 353.616466 148 
L 353.616466 147.996118 
L 351.895723 147.996118 
z
" clip-path="url(#p337dfce6a3)" style="fill: #80c21d; opacity: 0.8"/>
   </g>
   <g id="patch_188">
    <path d="M 354.046652 148 
L 355.767395 148 
L 355.767395 147.99646 
L 354.046652 147.99646 
z
" clip-path="url(#p337dfce6a3)" style="fill: #80c21d; opacity: 0.8"/>
   </g>
   <g id="patch_189">
    <path d="M 356.19758 148 
L 357.918323 148 
L 357.918323 147.99046 
L 356.19758 147.99046 
z
" clip-path="url(#p337dfce6a3)" style="fill: #80c21d; opacity: 0.8"/>
   </g>
   <g id="patch_190">
    <path d="M 358.348509 148 
L 360.069252 148 
L 360.069252 147.997676 
L 358.348509 147.997676 
z
" clip-path="url(#p337dfce6a3)" style="fill: #80c21d; opacity: 0.8"/>
   </g>
   <g id="patch_191">
    <path d="M 360.499438 148 
L 362.22018 148 
L 362.22018 147.363875 
L 360.499438 147.363875 
z
" clip-path="url(#p337dfce6a3)" style="fill: #80c21d; opacity: 0.8"/>
   </g>
   <g id="patch_192">
    <path d="M 362.650366 148 
L 364.371109 148 
L 364.371109 147.997232 
L 362.650366 147.997232 
z
" clip-path="url(#p337dfce6a3)" style="fill: #80c21d; opacity: 0.8"/>
   </g>
   <g id="patch_193">
    <path d="M 364.801295 148 
L 366.522038 148 
L 366.522038 147.983028 
L 364.801295 147.983028 
z
" clip-path="url(#p337dfce6a3)" style="fill: #80c21d; opacity: 0.8"/>
   </g>
   <g id="patch_194">
    <path d="M 366.952223 148 
L 368.672966 148 
L 368.672966 147.967031 
L 366.952223 147.967031 
z
" clip-path="url(#p337dfce6a3)" style="fill: #80c21d; opacity: 0.8"/>
   </g>
   <g id="patch_195">
    <path d="M 369.103152 148 
L 370.823895 148 
L 370.823895 147.96488 
L 369.103152 147.96488 
z
" clip-path="url(#p337dfce6a3)" style="fill: #80c21d; opacity: 0.8"/>
   </g>
   <g id="patch_196">
    <path d="M 371.254081 148 
L 372.974823 148 
L 372.974823 147.995186 
L 371.254081 147.995186 
z
" clip-path="url(#p337dfce6a3)" style="fill: #80c21d; opacity: 0.8"/>
   </g>
   <g id="patch_197">
    <path d="M 373.405009 148 
L 375.125752 148 
L 375.125752 147.996121 
L 373.405009 147.996121 
z
" clip-path="url(#p337dfce6a3)" style="fill: #80c21d; opacity: 0.8"/>
   </g>
   <g id="patch_198">
    <path d="M 375.555938 148 
L 377.276681 148 
L 377.276681 147.864662 
L 375.555938 147.864662 
z
" clip-path="url(#p337dfce6a3)" style="fill: #80c21d; opacity: 0.8"/>
   </g>
   <g id="patch_199">
    <path d="M 377.706866 148 
L 379.427609 148 
L 379.427609 147.916616 
L 377.706866 147.916616 
z
" clip-path="url(#p337dfce6a3)" style="fill: #80c21d; opacity: 0.8"/>
   </g>
   <g id="patch_200">
    <path d="M 379.857795 148 
L 381.578538 148 
L 381.578538 147.993402 
L 379.857795 147.993402 
z
" clip-path="url(#p337dfce6a3)" style="fill: #80c21d; opacity: 0.8"/>
   </g>
   <g id="matplotlib.axis_3">
    <g id="xtick_5">
     <g id="line2d_13">
      <g>
       <use xlink:href="#m8b02b2f69f" x="245.209665" y="148" style="stroke: #000000; stroke-width: 0.8"/>
      </g>
     </g>
     <g id="text_18">
      <!-- 0 -->
      <g transform="translate(243.263337 160.010469) scale(0.07 -0.07)">
       <use xlink:href="#ArialMT-30"/>
      </g>
     </g>
    </g>
    <g id="xtick_6">
     <g id="line2d_14">
      <g>
       <use xlink:href="#m8b02b2f69f" x="288.228237" y="148" style="stroke: #000000; stroke-width: 0.8"/>
      </g>
     </g>
     <g id="text_19">
      <!-- 20 -->
      <g transform="translate(284.335581 160.010469) scale(0.07 -0.07)">
       <use xlink:href="#ArialMT-32"/>
       <use xlink:href="#ArialMT-30" transform="translate(55.615234 0)"/>
      </g>
     </g>
    </g>
    <g id="xtick_7">
     <g id="line2d_15">
      <g>
       <use xlink:href="#m8b02b2f69f" x="331.246809" y="148" style="stroke: #000000; stroke-width: 0.8"/>
      </g>
     </g>
     <g id="text_20">
      <!-- 40 -->
      <g transform="translate(327.354152 160.010469) scale(0.07 -0.07)">
       <use xlink:href="#ArialMT-34"/>
       <use xlink:href="#ArialMT-30" transform="translate(55.615234 0)"/>
      </g>
     </g>
    </g>
    <g id="xtick_8">
     <g id="line2d_16">
      <g>
       <use xlink:href="#m8b02b2f69f" x="374.265381" y="148" style="stroke: #000000; stroke-width: 0.8"/>
      </g>
     </g>
     <g id="text_21">
      <!-- 60 -->
      <g transform="translate(370.372724 160.010469) scale(0.07 -0.07)">
       <use xlink:href="#ArialMT-36"/>
       <use xlink:href="#ArialMT-30" transform="translate(55.615234 0)"/>
      </g>
     </g>
    </g>
    <g id="text_22">
     <!-- Output channel -->
     <g transform="translate(289.226259 170.501875) scale(0.07 -0.07)">
      <use xlink:href="#ArialMT-4f"/>
      <use xlink:href="#ArialMT-75" transform="translate(77.783203 0)"/>
      <use xlink:href="#ArialMT-74" transform="translate(133.398438 0)"/>
      <use xlink:href="#ArialMT-70" transform="translate(161.181641 0)"/>
      <use xlink:href="#ArialMT-75" transform="translate(216.796875 0)"/>
      <use xlink:href="#ArialMT-74" transform="translate(272.412109 0)"/>
      <use xlink:href="#ArialMT-20" transform="translate(300.195312 0)"/>
      <use xlink:href="#ArialMT-63" transform="translate(327.978516 0)"/>
      <use xlink:href="#ArialMT-68" transform="translate(377.978516 0)"/>
      <use xlink:href="#ArialMT-61" transform="translate(433.59375 0)"/>
      <use xlink:href="#ArialMT-6e" transform="translate(489.208984 0)"/>
      <use xlink:href="#ArialMT-6e" transform="translate(544.824219 0)"/>
      <use xlink:href="#ArialMT-65" transform="translate(600.439453 0)"/>
      <use xlink:href="#ArialMT-6c" transform="translate(656.054688 0)"/>
     </g>
    </g>
   </g>
   <g id="matplotlib.axis_4">
    <g id="ytick_9">
     <g id="line2d_17">
      <g>
       <use xlink:href="#m9c3fcaa3ba" x="237.487831" y="148" style="stroke: #000000; stroke-width: 0.8"/>
      </g>
     </g>
     <g id="text_23">
      <!-- 0 -->
      <g transform="translate(226.595175 150.505234) scale(0.07 -0.07)">
       <use xlink:href="#ArialMT-30"/>
      </g>
     </g>
    </g>
    <g id="ytick_10">
     <g id="line2d_18">
      <g>
       <use xlink:href="#m9c3fcaa3ba" x="237.487831" y="126.477543" style="stroke: #000000; stroke-width: 0.8"/>
      </g>
     </g>
     <g id="text_24">
      <!-- 10000 -->
      <g transform="translate(211.02455 128.982777) scale(0.07 -0.07)">
       <use xlink:href="#ArialMT-31"/>
       <use xlink:href="#ArialMT-30" transform="translate(55.615234 0)"/>
       <use xlink:href="#ArialMT-30" transform="translate(111.230469 0)"/>
       <use xlink:href="#ArialMT-30" transform="translate(166.845703 0)"/>
       <use xlink:href="#ArialMT-30" transform="translate(222.460938 0)"/>
      </g>
     </g>
    </g>
    <g id="ytick_11">
     <g id="line2d_19">
      <g>
       <use xlink:href="#m9c3fcaa3ba" x="237.487831" y="104.955085" style="stroke: #000000; stroke-width: 0.8"/>
      </g>
     </g>
     <g id="text_25">
      <!-- 20000 -->
      <g transform="translate(211.02455 107.460319) scale(0.07 -0.07)">
       <use xlink:href="#ArialMT-32"/>
       <use xlink:href="#ArialMT-30" transform="translate(55.615234 0)"/>
       <use xlink:href="#ArialMT-30" transform="translate(111.230469 0)"/>
       <use xlink:href="#ArialMT-30" transform="translate(166.845703 0)"/>
       <use xlink:href="#ArialMT-30" transform="translate(222.460938 0)"/>
      </g>
     </g>
    </g>
    <g id="ytick_12">
     <g id="line2d_20">
      <g>
       <use xlink:href="#m9c3fcaa3ba" x="237.487831" y="83.432628" style="stroke: #000000; stroke-width: 0.8"/>
      </g>
     </g>
     <g id="text_26">
      <!-- 30000 -->
      <g transform="translate(211.02455 85.937862) scale(0.07 -0.07)">
       <defs>
        <path id="ArialMT-33" d="M 269 1209 
L 831 1284 
Q 928 806 1161 595 
Q 1394 384 1728 384 
Q 2125 384 2398 659 
Q 2672 934 2672 1341 
Q 2672 1728 2419 1979 
Q 2166 2231 1775 2231 
Q 1616 2231 1378 2169 
L 1441 2663 
Q 1497 2656 1531 2656 
Q 1891 2656 2178 2843 
Q 2466 3031 2466 3422 
Q 2466 3731 2256 3934 
Q 2047 4138 1716 4138 
Q 1388 4138 1169 3931 
Q 950 3725 888 3313 
L 325 3413 
Q 428 3978 793 4289 
Q 1159 4600 1703 4600 
Q 2078 4600 2393 4439 
Q 2709 4278 2876 4000 
Q 3044 3722 3044 3409 
Q 3044 3113 2884 2869 
Q 2725 2625 2413 2481 
Q 2819 2388 3044 2092 
Q 3269 1797 3269 1353 
Q 3269 753 2831 336 
Q 2394 -81 1725 -81 
Q 1122 -81 723 278 
Q 325 638 269 1209 
z
" transform="scale(0.015625)"/>
       </defs>
       <use xlink:href="#ArialMT-33"/>
       <use xlink:href="#ArialMT-30" transform="translate(55.615234 0)"/>
       <use xlink:href="#ArialMT-30" transform="translate(111.230469 0)"/>
       <use xlink:href="#ArialMT-30" transform="translate(166.845703 0)"/>
       <use xlink:href="#ArialMT-30" transform="translate(222.460938 0)"/>
      </g>
     </g>
    </g>
    <g id="ytick_13">
     <g id="line2d_21">
      <g>
       <use xlink:href="#m9c3fcaa3ba" x="237.487831" y="61.91017" style="stroke: #000000; stroke-width: 0.8"/>
      </g>
     </g>
     <g id="text_27">
      <!-- 40000 -->
      <g transform="translate(211.02455 64.415405) scale(0.07 -0.07)">
       <use xlink:href="#ArialMT-34"/>
       <use xlink:href="#ArialMT-30" transform="translate(55.615234 0)"/>
       <use xlink:href="#ArialMT-30" transform="translate(111.230469 0)"/>
       <use xlink:href="#ArialMT-30" transform="translate(166.845703 0)"/>
       <use xlink:href="#ArialMT-30" transform="translate(222.460938 0)"/>
      </g>
     </g>
    </g>
    <g id="ytick_14">
     <g id="line2d_22">
      <g>
       <use xlink:href="#m9c3fcaa3ba" x="237.487831" y="40.387713" style="stroke: #000000; stroke-width: 0.8"/>
      </g>
     </g>
     <g id="text_28">
      <!-- 50000 -->
      <g transform="translate(211.02455 42.892947) scale(0.07 -0.07)">
       <defs>
        <path id="ArialMT-35" d="M 266 1200 
L 856 1250 
Q 922 819 1161 601 
Q 1400 384 1738 384 
Q 2144 384 2425 690 
Q 2706 997 2706 1503 
Q 2706 1984 2436 2262 
Q 2166 2541 1728 2541 
Q 1456 2541 1237 2417 
Q 1019 2294 894 2097 
L 366 2166 
L 809 4519 
L 3088 4519 
L 3088 3981 
L 1259 3981 
L 1013 2750 
Q 1425 3038 1878 3038 
Q 2478 3038 2890 2622 
Q 3303 2206 3303 1553 
Q 3303 931 2941 478 
Q 2500 -78 1738 -78 
Q 1113 -78 717 272 
Q 322 622 266 1200 
z
" transform="scale(0.015625)"/>
       </defs>
       <use xlink:href="#ArialMT-35"/>
       <use xlink:href="#ArialMT-30" transform="translate(55.615234 0)"/>
       <use xlink:href="#ArialMT-30" transform="translate(111.230469 0)"/>
       <use xlink:href="#ArialMT-30" transform="translate(166.845703 0)"/>
       <use xlink:href="#ArialMT-30" transform="translate(222.460938 0)"/>
      </g>
     </g>
    </g>
    <g id="text_29">
     <!-- Improvement factor -->
     <g transform="translate(205.6333 113.833828) rotate(-90) scale(0.07 -0.07)">
      <defs>
       <path id="ArialMT-49" d="M 597 0 
L 597 4581 
L 1203 4581 
L 1203 0 
L 597 0 
z
" transform="scale(0.015625)"/>
       <path id="ArialMT-6d" d="M 422 0 
L 422 3319 
L 925 3319 
L 925 2853 
Q 1081 3097 1340 3245 
Q 1600 3394 1931 3394 
Q 2300 3394 2536 3241 
Q 2772 3088 2869 2813 
Q 3263 3394 3894 3394 
Q 4388 3394 4653 3120 
Q 4919 2847 4919 2278 
L 4919 0 
L 4359 0 
L 4359 2091 
Q 4359 2428 4304 2576 
Q 4250 2725 4106 2815 
Q 3963 2906 3769 2906 
Q 3419 2906 3187 2673 
Q 2956 2441 2956 1928 
L 2956 0 
L 2394 0 
L 2394 2156 
Q 2394 2531 2256 2718 
Q 2119 2906 1806 2906 
Q 1569 2906 1367 2781 
Q 1166 2656 1075 2415 
Q 984 2175 984 1722 
L 984 0 
L 422 0 
z
" transform="scale(0.015625)"/>
       <path id="ArialMT-76" d="M 1344 0 
L 81 3319 
L 675 3319 
L 1388 1331 
Q 1503 1009 1600 663 
Q 1675 925 1809 1294 
L 2547 3319 
L 3125 3319 
L 1869 0 
L 1344 0 
z
" transform="scale(0.015625)"/>
       <path id="ArialMT-66" d="M 556 0 
L 556 2881 
L 59 2881 
L 59 3319 
L 556 3319 
L 556 3672 
Q 556 4006 616 4169 
Q 697 4388 901 4523 
Q 1106 4659 1475 4659 
Q 1713 4659 2000 4603 
L 1916 4113 
Q 1741 4144 1584 4144 
Q 1328 4144 1222 4034 
Q 1116 3925 1116 3625 
L 1116 3319 
L 1763 3319 
L 1763 2881 
L 1116 2881 
L 1116 0 
L 556 0 
z
" transform="scale(0.015625)"/>
      </defs>
      <use xlink:href="#ArialMT-49"/>
      <use xlink:href="#ArialMT-6d" transform="translate(27.783203 0)"/>
      <use xlink:href="#ArialMT-70" transform="translate(111.083984 0)"/>
      <use xlink:href="#ArialMT-72" transform="translate(166.699219 0)"/>
      <use xlink:href="#ArialMT-6f" transform="translate(200 0)"/>
      <use xlink:href="#ArialMT-76" transform="translate(255.615234 0)"/>
      <use xlink:href="#ArialMT-65" transform="translate(305.615234 0)"/>
      <use xlink:href="#ArialMT-6d" transform="translate(361.230469 0)"/>
      <use xlink:href="#ArialMT-65" transform="translate(444.53125 0)"/>
      <use xlink:href="#ArialMT-6e" transform="translate(500.146484 0)"/>
      <use xlink:href="#ArialMT-74" transform="translate(555.761719 0)"/>
      <use xlink:href="#ArialMT-20" transform="translate(583.544922 0)"/>
      <use xlink:href="#ArialMT-66" transform="translate(611.328125 0)"/>
      <use xlink:href="#ArialMT-61" transform="translate(639.111328 0)"/>
      <use xlink:href="#ArialMT-63" transform="translate(694.726562 0)"/>
      <use xlink:href="#ArialMT-74" transform="translate(744.726562 0)"/>
      <use xlink:href="#ArialMT-6f" transform="translate(772.509766 0)"/>
      <use xlink:href="#ArialMT-72" transform="translate(828.125 0)"/>
     </g>
    </g>
   </g>
   <g id="line2d_23">
    <path d="M 237.487831 147.997848 
L 388.44 147.997848 
" clip-path="url(#p337dfce6a3)" style="fill: none; stroke-dasharray: 5.55,2.4; stroke-dashoffset: 0; stroke: #d31518; stroke-width: 1.5"/>
   </g>
   <g id="patch_201">
    <path d="M 237.487831 148 
L 237.487831 19.3725 
" style="fill: none; stroke: #000000; stroke-width: 0.8; stroke-linejoin: miter; stroke-linecap: square"/>
   </g>
   <g id="patch_202">
    <path d="M 237.487831 148 
L 388.44 148 
" style="fill: none; stroke: #000000; stroke-width: 0.8; stroke-linejoin: miter; stroke-linecap: square"/>
   </g>
   <g id="text_30">
    <!-- Per-Channel Improvement Factor -->
    <g transform="translate(249.842041 13.3725) scale(0.08 -0.08)">
     <defs>
      <path id="Arial-BoldMT-49" d="M 438 0 
L 438 4581 
L 1363 4581 
L 1363 0 
L 438 0 
z
" transform="scale(0.015625)"/>
      <path id="Arial-BoldMT-76" d="M 1372 0 
L 34 3319 
L 956 3319 
L 1581 1625 
L 1763 1059 
Q 1834 1275 1853 1344 
Q 1897 1484 1947 1625 
L 2578 3319 
L 3481 3319 
L 2163 0 
L 1372 0 
z
" transform="scale(0.015625)"/>
      <path id="Arial-BoldMT-74" d="M 1981 3319 
L 1981 2619 
L 1381 2619 
L 1381 1281 
Q 1381 875 1398 808 
Q 1416 741 1477 697 
Q 1538 653 1625 653 
Q 1747 653 1978 738 
L 2053 56 
Q 1747 -75 1359 -75 
Q 1122 -75 931 4 
Q 741 84 652 211 
Q 563 338 528 553 
Q 500 706 500 1172 
L 500 2619 
L 97 2619 
L 97 3319 
L 500 3319 
L 500 3978 
L 1381 4491 
L 1381 3319 
L 1981 3319 
z
" transform="scale(0.015625)"/>
      <path id="Arial-BoldMT-46" d="M 472 0 
L 472 4581 
L 3613 4581 
L 3613 3806 
L 1397 3806 
L 1397 2722 
L 3309 2722 
L 3309 1947 
L 1397 1947 
L 1397 0 
L 472 0 
z
" transform="scale(0.015625)"/>
      <path id="Arial-BoldMT-63" d="M 3353 2338 
L 2488 2181 
Q 2444 2441 2289 2572 
Q 2134 2703 1888 2703 
Q 1559 2703 1364 2476 
Q 1169 2250 1169 1719 
Q 1169 1128 1367 884 
Q 1566 641 1900 641 
Q 2150 641 2309 783 
Q 2469 925 2534 1272 
L 3397 1125 
Q 3263 531 2881 228 
Q 2500 -75 1859 -75 
Q 1131 -75 698 384 
Q 266 844 266 1656 
Q 266 2478 700 2936 
Q 1134 3394 1875 3394 
Q 2481 3394 2839 3133 
Q 3197 2872 3353 2338 
z
" transform="scale(0.015625)"/>
     </defs>
     <use xlink:href="#Arial-BoldMT-50"/>
     <use xlink:href="#Arial-BoldMT-65" transform="translate(66.699219 0)"/>
     <use xlink:href="#Arial-BoldMT-72" transform="translate(122.314453 0)"/>
     <use xlink:href="#Arial-BoldMT-2d" transform="translate(161.230469 0)"/>
     <use xlink:href="#Arial-BoldMT-43" transform="translate(194.53125 0)"/>
     <use xlink:href="#Arial-BoldMT-68" transform="translate(266.748047 0)"/>
     <use xlink:href="#Arial-BoldMT-61" transform="translate(327.832031 0)"/>
     <use xlink:href="#Arial-BoldMT-6e" transform="translate(383.447266 0)"/>
     <use xlink:href="#Arial-BoldMT-6e" transform="translate(444.53125 0)"/>
     <use xlink:href="#Arial-BoldMT-65" transform="translate(505.615234 0)"/>
     <use xlink:href="#Arial-BoldMT-6c" transform="translate(561.230469 0)"/>
     <use xlink:href="#Arial-BoldMT-20" transform="translate(589.013672 0)"/>
     <use xlink:href="#Arial-BoldMT-49" transform="translate(616.796875 0)"/>
     <use xlink:href="#Arial-BoldMT-6d" transform="translate(644.580078 0)"/>
     <use xlink:href="#Arial-BoldMT-70" transform="translate(733.496094 0)"/>
     <use xlink:href="#Arial-BoldMT-72" transform="translate(794.580078 0)"/>
     <use xlink:href="#Arial-BoldMT-6f" transform="translate(833.496094 0)"/>
     <use xlink:href="#Arial-BoldMT-76" transform="translate(894.580078 0)"/>
     <use xlink:href="#Arial-BoldMT-65" transform="translate(950.195312 0)"/>
     <use xlink:href="#Arial-BoldMT-6d" transform="translate(1005.810547 0)"/>
     <use xlink:href="#Arial-BoldMT-65" transform="translate(1094.726562 0)"/>
     <use xlink:href="#Arial-BoldMT-6e" transform="translate(1150.341797 0)"/>
     <use xlink:href="#Arial-BoldMT-74" transform="translate(1211.425781 0)"/>
     <use xlink:href="#Arial-BoldMT-20" transform="translate(1244.726562 0)"/>
     <use xlink:href="#Arial-BoldMT-46" transform="translate(1272.509766 0)"/>
     <use xlink:href="#Arial-BoldMT-61" transform="translate(1333.59375 0)"/>
     <use xlink:href="#Arial-BoldMT-63" transform="translate(1389.208984 0)"/>
     <use xlink:href="#Arial-BoldMT-74" transform="translate(1444.824219 0)"/>
     <use xlink:href="#Arial-BoldMT-6f" transform="translate(1478.125 0)"/>
     <use xlink:href="#Arial-BoldMT-72" transform="translate(1539.208984 0)"/>
    </g>
   </g>
   <g id="legend_2">
    <g id="patch_203">
     <path d="M 321.027188 32.659687 
L 384.24 32.659687 
Q 385.44 32.659687 385.44 31.459688 
L 385.44 23.5725 
Q 385.44 22.3725 384.24 22.3725 
L 321.027188 22.3725 
Q 319.827188 22.3725 319.827188 23.5725 
L 319.827188 31.459688 
Q 319.827188 32.659687 321.027188 32.659687 
z
" style="fill: #ffffff; opacity: 0.8; stroke: #cccccc; stroke-linejoin: miter"/>
    </g>
    <g id="line2d_24">
     <path d="M 322.227188 26.967187 
L 328.227188 26.967187 
L 334.227188 26.967187 
" style="fill: none; stroke-dasharray: 5.55,2.4; stroke-dashoffset: 0; stroke: #d31518; stroke-width: 1.5"/>
    </g>
    <g id="text_31">
     <!-- No improvement -->
     <g transform="translate(339.027188 29.067187) scale(0.06 -0.06)">
      <defs>
       <path id="ArialMT-4e" d="M 488 0 
L 488 4581 
L 1109 4581 
L 3516 984 
L 3516 4581 
L 4097 4581 
L 4097 0 
L 3475 0 
L 1069 3600 
L 1069 0 
L 488 0 
z
" transform="scale(0.015625)"/>
       <path id="ArialMT-69" d="M 425 3934 
L 425 4581 
L 988 4581 
L 988 3934 
L 425 3934 
z
M 425 0 
L 425 3319 
L 988 3319 
L 988 0 
L 425 0 
z
" transform="scale(0.015625)"/>
      </defs>
      <use xlink:href="#ArialMT-4e"/>
      <use xlink:href="#ArialMT-6f" transform="translate(72.216797 0)"/>
      <use xlink:href="#ArialMT-20" transform="translate(127.832031 0)"/>
      <use xlink:href="#ArialMT-69" transform="translate(155.615234 0)"/>
      <use xlink:href="#ArialMT-6d" transform="translate(177.832031 0)"/>
      <use xlink:href="#ArialMT-70" transform="translate(261.132812 0)"/>
      <use xlink:href="#ArialMT-72" transform="translate(316.748047 0)"/>
      <use xlink:href="#ArialMT-6f" transform="translate(350.048828 0)"/>
      <use xlink:href="#ArialMT-76" transform="translate(405.664062 0)"/>
      <use xlink:href="#ArialMT-65" transform="translate(455.664062 0)"/>
      <use xlink:href="#ArialMT-6d" transform="translate(511.279297 0)"/>
      <use xlink:href="#ArialMT-65" transform="translate(594.580078 0)"/>
      <use xlink:href="#ArialMT-6e" transform="translate(650.195312 0)"/>
      <use xlink:href="#ArialMT-74" transform="translate(705.810547 0)"/>
     </g>
    </g>
   </g>
  </g>
 </g>
 <defs>
  <clipPath id="pf80793390d">
   <rect x="41.755663" y="19.3725" width="150.952169" height="128.6275"/>
  </clipPath>
  <clipPath id="p337dfce6a3">
   <rect x="237.487831" y="19.3725" width="150.952169" height="128.6275"/>
  </clipPath>
 </defs>
</svg>
