<?xml version="1.0" encoding="utf-8" standalone="no"?>
<!DOCTYPE svg PUBLIC "-//W3C//DTD SVG 1.1//EN"
  "http://www.w3.org/Graphics/SVG/1.1/DTD/svg11.dtd">
<svg xmlns:xlink="http://www.w3.org/1999/xlink" width="384.435469pt" height="248.334844pt" viewBox="0 0 384.435469 248.334844" xmlns="http://www.w3.org/2000/svg" version="1.1">
 <metadata>
  <rdf:RDF xmlns:dc="http://purl.org/dc/elements/1.1/" xmlns:cc="http://creativecommons.org/ns#" xmlns:rdf="http://www.w3.org/1999/02/22-rdf-syntax-ns#">
   <cc:Work>
    <dc:type rdf:resource="http://purl.org/dc/dcmitype/StillImage"/>
    <dc:date>2026-01-29T00:18:56.402165</dc:date>
    <dc:format>image/svg+xml</dc:format>
    <dc:creator>
     <cc:Agent>
      <dc:title>Matplotlib v3.10.8, https://matplotlib.org/</dc:title>
     </cc:Agent>
    </dc:creator>
   </cc:Work>
  </rdf:RDF>
 </metadata>
 <defs>
  <style type="text/css">*{stroke-linejoin: round; stroke-linecap: butt}</style>
 </defs>
 <g id="figure_1">
  <g id="patch_1">
   <path d="M 0 248.334844 
L 384.435469 248.334844 
L 384.435469 0 
L 0 0 
z
" style="fill: #ffffff"/>
  </g>
  <g id="axes_1">
   <g id="patch_2">
    <path d="M 50.025469 206.46 
L 207.150469 206.46 
L 207.150469 54.612 
L 50.025469 54.612 
z
" style="fill: #ffffff"/>
   </g>
   <g id="matplotlib.axis_1">
    <g id="xtick_1">
     <g id="line2d_1">
      <path d="M 70.393524 206.46 
L 70.393524 54.612 
" clip-path="url(#p1c0769a692)" style="fill: none; stroke: #cccccc; stroke-linecap: round"/>
     </g>
     <g id="text_1">
      <!-- −100 -->
      <g style="fill: #262626" transform="translate(58.005634 223.833594) scale(0.11 -0.11)">
       <defs>
        <path id="ArialMT-2212" d="M 3381 1997 
L 356 1997 
L 356 2522 
L 3381 2522 
L 3381 1997 
z
" transform="scale(0.015625)"/>
        <path id="ArialMT-31" d="M 2384 0 
L 1822 0 
L 1822 3584 
Q 1619 3391 1289 3197 
Q 959 3003 697 2906 
L 697 3450 
Q 1169 3672 1522 3987 
Q 1875 4303 2022 4600 
L 2384 4600 
L 2384 0 
z
" transform="scale(0.015625)"/>
        <path id="ArialMT-30" d="M 266 2259 
Q 266 3072 433 3567 
Q 600 4063 929 4331 
Q 1259 4600 1759 4600 
Q 2128 4600 2406 4451 
Q 2684 4303 2865 4023 
Q 3047 3744 3150 3342 
Q 3253 2941 3253 2259 
Q 3253 1453 3087 958 
Q 2922 463 2592 192 
Q 2263 -78 1759 -78 
Q 1097 -78 719 397 
Q 266 969 266 2259 
z
M 844 2259 
Q 844 1131 1108 757 
Q 1372 384 1759 384 
Q 2147 384 2411 759 
Q 2675 1134 2675 2259 
Q 2675 3391 2411 3762 
Q 2147 4134 1753 4134 
Q 1366 4134 1134 3806 
Q 844 3388 844 2259 
z
" transform="scale(0.015625)"/>
       </defs>
       <use xlink:href="#ArialMT-2212"/>
       <use xlink:href="#ArialMT-31" transform="translate(58.398438 0)"/>
       <use xlink:href="#ArialMT-30" transform="translate(114.013672 0)"/>
       <use xlink:href="#ArialMT-30" transform="translate(169.628906 0)"/>
      </g>
     </g>
    </g>
    <g id="xtick_2">
     <g id="line2d_2">
      <path d="M 128.587969 206.46 
L 128.587969 54.612 
" clip-path="url(#p1c0769a692)" style="fill: none; stroke: #cccccc; stroke-linecap: round"/>
     </g>
     <g id="text_2">
      <!-- 0 -->
      <g style="fill: #262626" transform="translate(125.529453 223.833594) scale(0.11 -0.11)">
       <use xlink:href="#ArialMT-30"/>
      </g>
     </g>
    </g>
    <g id="xtick_3">
     <g id="line2d_3">
      <path d="M 186.782413 206.46 
L 186.782413 54.612 
" clip-path="url(#p1c0769a692)" style="fill: none; stroke: #cccccc; stroke-linecap: round"/>
     </g>
     <g id="text_3">
      <!-- 100 -->
      <g style="fill: #262626" transform="translate(177.606866 223.833594) scale(0.11 -0.11)">
       <use xlink:href="#ArialMT-31"/>
       <use xlink:href="#ArialMT-30" transform="translate(55.615234 0)"/>
       <use xlink:href="#ArialMT-30" transform="translate(111.230469 0)"/>
      </g>
     </g>
    </g>
    <g id="text_4">
     <!-- Integer Index -->
     <g style="fill: #262626" transform="translate(93.566719 238.609219) scale(0.12 -0.12)">
      <defs>
       <path id="ArialMT-49" d="M 597 0 
L 597 4581 
L 1203 4581 
L 1203 0 
L 597 0 
z
" transform="scale(0.015625)"/>
       <path id="ArialMT-6e" d="M 422 0 
L 422 3319 
L 928 3319 
L 928 2847 
Q 1294 3394 1984 3394 
Q 2284 3394 2536 3286 
Q 2788 3178 2913 3003 
Q 3038 2828 3088 2588 
Q 3119 2431 3119 2041 
L 3119 0 
L 2556 0 
L 2556 2019 
Q 2556 2363 2490 2533 
Q 2425 2703 2258 2804 
Q 2091 2906 1866 2906 
Q 1506 2906 1245 2678 
Q 984 2450 984 1813 
L 984 0 
L 422 0 
z
" transform="scale(0.015625)"/>
       <path id="ArialMT-74" d="M 1650 503 
L 1731 6 
Q 1494 -44 1306 -44 
Q 1000 -44 831 53 
Q 663 150 594 308 
Q 525 466 525 972 
L 525 2881 
L 113 2881 
L 113 3319 
L 525 3319 
L 525 4141 
L 1084 4478 
L 1084 3319 
L 1650 3319 
L 1650 2881 
L 1084 2881 
L 1084 941 
Q 1084 700 1114 631 
Q 1144 563 1211 522 
Q 1278 481 1403 481 
Q 1497 481 1650 503 
z
" transform="scale(0.015625)"/>
       <path id="ArialMT-65" d="M 2694 1069 
L 3275 997 
Q 3138 488 2766 206 
Q 2394 -75 1816 -75 
Q 1088 -75 661 373 
Q 234 822 234 1631 
Q 234 2469 665 2931 
Q 1097 3394 1784 3394 
Q 2450 3394 2872 2941 
Q 3294 2488 3294 1666 
Q 3294 1616 3291 1516 
L 816 1516 
Q 847 969 1125 678 
Q 1403 388 1819 388 
Q 2128 388 2347 550 
Q 2566 713 2694 1069 
z
M 847 1978 
L 2700 1978 
Q 2663 2397 2488 2606 
Q 2219 2931 1791 2931 
Q 1403 2931 1139 2672 
Q 875 2413 847 1978 
z
" transform="scale(0.015625)"/>
       <path id="ArialMT-67" d="M 319 -275 
L 866 -356 
Q 900 -609 1056 -725 
Q 1266 -881 1628 -881 
Q 2019 -881 2231 -725 
Q 2444 -569 2519 -288 
Q 2563 -116 2559 434 
Q 2191 0 1641 0 
Q 956 0 581 494 
Q 206 988 206 1678 
Q 206 2153 378 2554 
Q 550 2956 876 3175 
Q 1203 3394 1644 3394 
Q 2231 3394 2613 2919 
L 2613 3319 
L 3131 3319 
L 3131 450 
Q 3131 -325 2973 -648 
Q 2816 -972 2473 -1159 
Q 2131 -1347 1631 -1347 
Q 1038 -1347 672 -1080 
Q 306 -813 319 -275 
z
M 784 1719 
Q 784 1066 1043 766 
Q 1303 466 1694 466 
Q 2081 466 2343 764 
Q 2606 1063 2606 1700 
Q 2606 2309 2336 2618 
Q 2066 2928 1684 2928 
Q 1309 2928 1046 2623 
Q 784 2319 784 1719 
z
" transform="scale(0.015625)"/>
       <path id="ArialMT-72" d="M 416 0 
L 416 3319 
L 922 3319 
L 922 2816 
Q 1116 3169 1280 3281 
Q 1444 3394 1641 3394 
Q 1925 3394 2219 3213 
L 2025 2691 
Q 1819 2813 1613 2813 
Q 1428 2813 1281 2702 
Q 1134 2591 1072 2394 
Q 978 2094 978 1738 
L 978 0 
L 416 0 
z
" transform="scale(0.015625)"/>
       <path id="ArialMT-20" transform="scale(0.015625)"/>
       <path id="ArialMT-64" d="M 2575 0 
L 2575 419 
Q 2259 -75 1647 -75 
Q 1250 -75 917 144 
Q 584 363 401 755 
Q 219 1147 219 1656 
Q 219 2153 384 2558 
Q 550 2963 881 3178 
Q 1213 3394 1622 3394 
Q 1922 3394 2156 3267 
Q 2391 3141 2538 2938 
L 2538 4581 
L 3097 4581 
L 3097 0 
L 2575 0 
z
M 797 1656 
Q 797 1019 1065 703 
Q 1334 388 1700 388 
Q 2069 388 2326 689 
Q 2584 991 2584 1609 
Q 2584 2291 2321 2609 
Q 2059 2928 1675 2928 
Q 1300 2928 1048 2622 
Q 797 2316 797 1656 
z
" transform="scale(0.015625)"/>
       <path id="ArialMT-78" d="M 47 0 
L 1259 1725 
L 138 3319 
L 841 3319 
L 1350 2541 
Q 1494 2319 1581 2169 
Q 1719 2375 1834 2534 
L 2394 3319 
L 3066 3319 
L 1919 1756 
L 3153 0 
L 2463 0 
L 1781 1031 
L 1600 1309 
L 728 0 
L 47 0 
z
" transform="scale(0.015625)"/>
      </defs>
      <use xlink:href="#ArialMT-49"/>
      <use xlink:href="#ArialMT-6e" transform="translate(27.783203 0)"/>
      <use xlink:href="#ArialMT-74" transform="translate(83.398438 0)"/>
      <use xlink:href="#ArialMT-65" transform="translate(111.181641 0)"/>
      <use xlink:href="#ArialMT-67" transform="translate(166.796875 0)"/>
      <use xlink:href="#ArialMT-65" transform="translate(222.412109 0)"/>
      <use xlink:href="#ArialMT-72" transform="translate(278.027344 0)"/>
      <use xlink:href="#ArialMT-20" transform="translate(311.328125 0)"/>
      <use xlink:href="#ArialMT-49" transform="translate(339.111328 0)"/>
      <use xlink:href="#ArialMT-6e" transform="translate(366.894531 0)"/>
      <use xlink:href="#ArialMT-64" transform="translate(422.509766 0)"/>
      <use xlink:href="#ArialMT-65" transform="translate(478.125 0)"/>
      <use xlink:href="#ArialMT-78" transform="translate(533.740234 0)"/>
     </g>
    </g>
   </g>
   <g id="matplotlib.axis_2">
    <g id="ytick_1">
     <g id="line2d_4">
      <path d="M 50.025469 206.46 
L 207.150469 206.46 
" clip-path="url(#p1c0769a692)" style="fill: none; stroke: #cccccc; stroke-linecap: round"/>
     </g>
     <g id="text_5">
      <!-- 0 -->
      <g style="fill: #262626" transform="translate(34.408438 210.396797) scale(0.11 -0.11)">
       <use xlink:href="#ArialMT-30"/>
      </g>
     </g>
    </g>
    <g id="ytick_2">
     <g id="line2d_5">
      <path d="M 50.025469 179.173747 
L 207.150469 179.173747 
" clip-path="url(#p1c0769a692)" style="fill: none; stroke: #cccccc; stroke-linecap: round"/>
     </g>
     <g id="text_6">
      <!-- 100 -->
      <g style="fill: #262626" transform="translate(22.174375 183.110544) scale(0.11 -0.11)">
       <use xlink:href="#ArialMT-31"/>
       <use xlink:href="#ArialMT-30" transform="translate(55.615234 0)"/>
       <use xlink:href="#ArialMT-30" transform="translate(111.230469 0)"/>
      </g>
     </g>
    </g>
    <g id="ytick_3">
     <g id="line2d_6">
      <path d="M 50.025469 151.887493 
L 207.150469 151.887493 
" clip-path="url(#p1c0769a692)" style="fill: none; stroke: #cccccc; stroke-linecap: round"/>
     </g>
     <g id="text_7">
      <!-- 200 -->
      <g style="fill: #262626" transform="translate(22.174375 155.82429) scale(0.11 -0.11)">
       <defs>
        <path id="ArialMT-32" d="M 3222 541 
L 3222 0 
L 194 0 
Q 188 203 259 391 
Q 375 700 629 1000 
Q 884 1300 1366 1694 
Q 2113 2306 2375 2664 
Q 2638 3022 2638 3341 
Q 2638 3675 2398 3904 
Q 2159 4134 1775 4134 
Q 1369 4134 1125 3890 
Q 881 3647 878 3216 
L 300 3275 
Q 359 3922 746 4261 
Q 1134 4600 1788 4600 
Q 2447 4600 2831 4234 
Q 3216 3869 3216 3328 
Q 3216 3053 3103 2787 
Q 2991 2522 2730 2228 
Q 2469 1934 1863 1422 
Q 1356 997 1212 845 
Q 1069 694 975 541 
L 3222 541 
z
" transform="scale(0.015625)"/>
       </defs>
       <use xlink:href="#ArialMT-32"/>
       <use xlink:href="#ArialMT-30" transform="translate(55.615234 0)"/>
       <use xlink:href="#ArialMT-30" transform="translate(111.230469 0)"/>
      </g>
     </g>
    </g>
    <g id="ytick_4">
     <g id="line2d_7">
      <path d="M 50.025469 124.60124 
L 207.150469 124.60124 
" clip-path="url(#p1c0769a692)" style="fill: none; stroke: #cccccc; stroke-linecap: round"/>
     </g>
     <g id="text_8">
      <!-- 300 -->
      <g style="fill: #262626" transform="translate(22.174375 128.538037) scale(0.11 -0.11)">
       <defs>
        <path id="ArialMT-33" d="M 269 1209 
L 831 1284 
Q 928 806 1161 595 
Q 1394 384 1728 384 
Q 2125 384 2398 659 
Q 2672 934 2672 1341 
Q 2672 1728 2419 1979 
Q 2166 2231 1775 2231 
Q 1616 2231 1378 2169 
L 1441 2663 
Q 1497 2656 1531 2656 
Q 1891 2656 2178 2843 
Q 2466 3031 2466 3422 
Q 2466 3731 2256 3934 
Q 2047 4138 1716 4138 
Q 1388 4138 1169 3931 
Q 950 3725 888 3313 
L 325 3413 
Q 428 3978 793 4289 
Q 1159 4600 1703 4600 
Q 2078 4600 2393 4439 
Q 2709 4278 2876 4000 
Q 3044 3722 3044 3409 
Q 3044 3113 2884 2869 
Q 2725 2625 2413 2481 
Q 2819 2388 3044 2092 
Q 3269 1797 3269 1353 
Q 3269 753 2831 336 
Q 2394 -81 1725 -81 
Q 1122 -81 723 278 
Q 325 638 269 1209 
z
" transform="scale(0.015625)"/>
       </defs>
       <use xlink:href="#ArialMT-33"/>
       <use xlink:href="#ArialMT-30" transform="translate(55.615234 0)"/>
       <use xlink:href="#ArialMT-30" transform="translate(111.230469 0)"/>
      </g>
     </g>
    </g>
    <g id="ytick_5">
     <g id="line2d_8">
      <path d="M 50.025469 97.314987 
L 207.150469 97.314987 
" clip-path="url(#p1c0769a692)" style="fill: none; stroke: #cccccc; stroke-linecap: round"/>
     </g>
     <g id="text_9">
      <!-- 400 -->
      <g style="fill: #262626" transform="translate(22.174375 101.251783) scale(0.11 -0.11)">
       <defs>
        <path id="ArialMT-34" d="M 2069 0 
L 2069 1097 
L 81 1097 
L 81 1613 
L 2172 4581 
L 2631 4581 
L 2631 1613 
L 3250 1613 
L 3250 1097 
L 2631 1097 
L 2631 0 
L 2069 0 
z
M 2069 1613 
L 2069 3678 
L 634 1613 
L 2069 1613 
z
" transform="scale(0.015625)"/>
       </defs>
       <use xlink:href="#ArialMT-34"/>
       <use xlink:href="#ArialMT-30" transform="translate(55.615234 0)"/>
       <use xlink:href="#ArialMT-30" transform="translate(111.230469 0)"/>
      </g>
     </g>
    </g>
    <g id="ytick_6">
     <g id="line2d_9">
      <path d="M 50.025469 70.028733 
L 207.150469 70.028733 
" clip-path="url(#p1c0769a692)" style="fill: none; stroke: #cccccc; stroke-linecap: round"/>
     </g>
     <g id="text_10">
      <!-- 500 -->
      <g style="fill: #262626" transform="translate(22.174375 73.96553) scale(0.11 -0.11)">
       <defs>
        <path id="ArialMT-35" d="M 266 1200 
L 856 1250 
Q 922 819 1161 601 
Q 1400 384 1738 384 
Q 2144 384 2425 690 
Q 2706 997 2706 1503 
Q 2706 1984 2436 2262 
Q 2166 2541 1728 2541 
Q 1456 2541 1237 2417 
Q 1019 2294 894 2097 
L 366 2166 
L 809 4519 
L 3088 4519 
L 3088 3981 
L 1259 3981 
L 1013 2750 
Q 1425 3038 1878 3038 
Q 2478 3038 2890 2622 
Q 3303 2206 3303 1553 
Q 3303 931 2941 478 
Q 2500 -78 1738 -78 
Q 1113 -78 717 272 
Q 322 622 266 1200 
z
" transform="scale(0.015625)"/>
       </defs>
       <use xlink:href="#ArialMT-35"/>
       <use xlink:href="#ArialMT-30" transform="translate(55.615234 0)"/>
       <use xlink:href="#ArialMT-30" transform="translate(111.230469 0)"/>
      </g>
     </g>
    </g>
    <g id="text_11">
     <!-- Count -->
     <g style="fill: #262626" transform="translate(15.789375 146.545687) rotate(-90) scale(0.12 -0.12)">
      <defs>
       <path id="ArialMT-43" d="M 3763 1606 
L 4369 1453 
Q 4178 706 3683 314 
Q 3188 -78 2472 -78 
Q 1731 -78 1267 223 
Q 803 525 561 1097 
Q 319 1669 319 2325 
Q 319 3041 592 3573 
Q 866 4106 1370 4382 
Q 1875 4659 2481 4659 
Q 3169 4659 3637 4309 
Q 4106 3959 4291 3325 
L 3694 3184 
Q 3534 3684 3231 3912 
Q 2928 4141 2469 4141 
Q 1941 4141 1586 3887 
Q 1231 3634 1087 3207 
Q 944 2781 944 2328 
Q 944 1744 1114 1308 
Q 1284 872 1643 656 
Q 2003 441 2422 441 
Q 2931 441 3284 734 
Q 3638 1028 3763 1606 
z
" transform="scale(0.015625)"/>
       <path id="ArialMT-6f" d="M 213 1659 
Q 213 2581 725 3025 
Q 1153 3394 1769 3394 
Q 2453 3394 2887 2945 
Q 3322 2497 3322 1706 
Q 3322 1066 3130 698 
Q 2938 331 2570 128 
Q 2203 -75 1769 -75 
Q 1072 -75 642 372 
Q 213 819 213 1659 
z
M 791 1659 
Q 791 1022 1069 705 
Q 1347 388 1769 388 
Q 2188 388 2466 706 
Q 2744 1025 2744 1678 
Q 2744 2294 2464 2611 
Q 2184 2928 1769 2928 
Q 1347 2928 1069 2612 
Q 791 2297 791 1659 
z
" transform="scale(0.015625)"/>
       <path id="ArialMT-75" d="M 2597 0 
L 2597 488 
Q 2209 -75 1544 -75 
Q 1250 -75 995 37 
Q 741 150 617 320 
Q 494 491 444 738 
Q 409 903 409 1263 
L 409 3319 
L 972 3319 
L 972 1478 
Q 972 1038 1006 884 
Q 1059 663 1231 536 
Q 1403 409 1656 409 
Q 1909 409 2131 539 
Q 2353 669 2445 892 
Q 2538 1116 2538 1541 
L 2538 3319 
L 3100 3319 
L 3100 0 
L 2597 0 
z
" transform="scale(0.015625)"/>
      </defs>
      <use xlink:href="#ArialMT-43"/>
      <use xlink:href="#ArialMT-6f" transform="translate(72.216797 0)"/>
      <use xlink:href="#ArialMT-75" transform="translate(127.832031 0)"/>
      <use xlink:href="#ArialMT-6e" transform="translate(183.447266 0)"/>
      <use xlink:href="#ArialMT-74" transform="translate(239.0625 0)"/>
     </g>
    </g>
   </g>
   <g id="patch_3">
    <path d="M 54.09908 206.46 
L 57.066997 206.46 
L 57.066997 206.46 
L 54.09908 206.46 
z
" clip-path="url(#p1c0769a692)" style="fill: #e37b45; fill-opacity: 0.7; stroke: #ffffff; stroke-width: 0.253636; stroke-linejoin: miter"/>
   </g>
   <g id="patch_4">
    <path d="M 57.066997 206.46 
L 60.034913 206.46 
L 60.034913 206.46 
L 57.066997 206.46 
z
" clip-path="url(#p1c0769a692)" style="fill: #e37b45; fill-opacity: 0.7; stroke: #ffffff; stroke-width: 0.253636; stroke-linejoin: miter"/>
   </g>
   <g id="patch_5">
    <path d="M 60.034913 206.46 
L 63.00283 206.46 
L 63.00283 206.46 
L 60.034913 206.46 
z
" clip-path="url(#p1c0769a692)" style="fill: #e37b45; fill-opacity: 0.7; stroke: #ffffff; stroke-width: 0.253636; stroke-linejoin: miter"/>
   </g>
   <g id="patch_6">
    <path d="M 63.00283 206.46 
L 65.970747 206.46 
L 65.970747 206.46 
L 63.00283 206.46 
z
" clip-path="url(#p1c0769a692)" style="fill: #e37b45; fill-opacity: 0.7; stroke: #ffffff; stroke-width: 0.253636; stroke-linejoin: miter"/>
   </g>
   <g id="patch_7">
    <path d="M 65.970747 206.46 
L 68.938663 206.46 
L 68.938663 206.46 
L 65.970747 206.46 
z
" clip-path="url(#p1c0769a692)" style="fill: #e37b45; fill-opacity: 0.7; stroke: #ffffff; stroke-width: 0.253636; stroke-linejoin: miter"/>
   </g>
   <g id="patch_8">
    <path d="M 68.938663 206.46 
L 71.90658 206.46 
L 71.90658 206.46 
L 68.938663 206.46 
z
" clip-path="url(#p1c0769a692)" style="fill: #e37b45; fill-opacity: 0.7; stroke: #ffffff; stroke-width: 0.253636; stroke-linejoin: miter"/>
   </g>
   <g id="patch_9">
    <path d="M 71.90658 206.46 
L 74.874497 206.46 
L 74.874497 206.46 
L 71.90658 206.46 
z
" clip-path="url(#p1c0769a692)" style="fill: #e37b45; fill-opacity: 0.7; stroke: #ffffff; stroke-width: 0.253636; stroke-linejoin: miter"/>
   </g>
   <g id="patch_10">
    <path d="M 74.874497 206.46 
L 77.842413 206.46 
L 77.842413 206.46 
L 74.874497 206.46 
z
" clip-path="url(#p1c0769a692)" style="fill: #e37b45; fill-opacity: 0.7; stroke: #ffffff; stroke-width: 0.253636; stroke-linejoin: miter"/>
   </g>
   <g id="patch_11">
    <path d="M 77.842413 206.46 
L 80.81033 206.46 
L 80.81033 206.46 
L 77.842413 206.46 
z
" clip-path="url(#p1c0769a692)" style="fill: #e37b45; fill-opacity: 0.7; stroke: #ffffff; stroke-width: 0.253636; stroke-linejoin: miter"/>
   </g>
   <g id="patch_12">
    <path d="M 80.81033 206.46 
L 83.778247 206.46 
L 83.778247 206.46 
L 80.81033 206.46 
z
" clip-path="url(#p1c0769a692)" style="fill: #e37b45; fill-opacity: 0.7; stroke: #ffffff; stroke-width: 0.253636; stroke-linejoin: miter"/>
   </g>
   <g id="patch_13">
    <path d="M 83.778247 206.46 
L 86.746163 206.46 
L 86.746163 206.46 
L 83.778247 206.46 
z
" clip-path="url(#p1c0769a692)" style="fill: #e37b45; fill-opacity: 0.7; stroke: #ffffff; stroke-width: 0.253636; stroke-linejoin: miter"/>
   </g>
   <g id="patch_14">
    <path d="M 86.746163 206.46 
L 89.71408 206.46 
L 89.71408 206.46 
L 86.746163 206.46 
z
" clip-path="url(#p1c0769a692)" style="fill: #e37b45; fill-opacity: 0.7; stroke: #ffffff; stroke-width: 0.253636; stroke-linejoin: miter"/>
   </g>
   <g id="patch_15">
    <path d="M 89.71408 206.46 
L 92.681997 206.46 
L 92.681997 206.46 
L 89.71408 206.46 
z
" clip-path="url(#p1c0769a692)" style="fill: #e37b45; fill-opacity: 0.7; stroke: #ffffff; stroke-width: 0.253636; stroke-linejoin: miter"/>
   </g>
   <g id="patch_16">
    <path d="M 92.681997 206.46 
L 95.649913 206.46 
L 95.649913 206.46 
L 92.681997 206.46 
z
" clip-path="url(#p1c0769a692)" style="fill: #e37b45; fill-opacity: 0.7; stroke: #ffffff; stroke-width: 0.253636; stroke-linejoin: miter"/>
   </g>
   <g id="patch_17">
    <path d="M 95.649913 206.46 
L 98.61783 206.46 
L 98.61783 206.46 
L 95.649913 206.46 
z
" clip-path="url(#p1c0769a692)" style="fill: #e37b45; fill-opacity: 0.7; stroke: #ffffff; stroke-width: 0.253636; stroke-linejoin: miter"/>
   </g>
   <g id="patch_18">
    <path d="M 98.61783 206.46 
L 101.585747 206.46 
L 101.585747 206.46 
L 98.61783 206.46 
z
" clip-path="url(#p1c0769a692)" style="fill: #e37b45; fill-opacity: 0.7; stroke: #ffffff; stroke-width: 0.253636; stroke-linejoin: miter"/>
   </g>
   <g id="patch_19">
    <path d="M 101.585747 206.46 
L 104.553663 206.46 
L 104.553663 206.46 
L 101.585747 206.46 
z
" clip-path="url(#p1c0769a692)" style="fill: #e37b45; fill-opacity: 0.7; stroke: #ffffff; stroke-width: 0.253636; stroke-linejoin: miter"/>
   </g>
   <g id="patch_20">
    <path d="M 104.553663 206.46 
L 107.52158 206.46 
L 107.52158 206.46 
L 104.553663 206.46 
z
" clip-path="url(#p1c0769a692)" style="fill: #e37b45; fill-opacity: 0.7; stroke: #ffffff; stroke-width: 0.253636; stroke-linejoin: miter"/>
   </g>
   <g id="patch_21">
    <path d="M 107.52158 206.46 
L 110.489497 206.46 
L 110.489497 206.46 
L 107.52158 206.46 
z
" clip-path="url(#p1c0769a692)" style="fill: #e37b45; fill-opacity: 0.7; stroke: #ffffff; stroke-width: 0.253636; stroke-linejoin: miter"/>
   </g>
   <g id="patch_22">
    <path d="M 110.489497 206.46 
L 113.457413 206.46 
L 113.457413 206.46 
L 110.489497 206.46 
z
" clip-path="url(#p1c0769a692)" style="fill: #e37b45; fill-opacity: 0.7; stroke: #ffffff; stroke-width: 0.253636; stroke-linejoin: miter"/>
   </g>
   <g id="patch_23">
    <path d="M 113.457413 206.46 
L 116.42533 206.46 
L 116.42533 206.46 
L 113.457413 206.46 
z
" clip-path="url(#p1c0769a692)" style="fill: #e37b45; fill-opacity: 0.7; stroke: #ffffff; stroke-width: 0.253636; stroke-linejoin: miter"/>
   </g>
   <g id="patch_24">
    <path d="M 116.42533 206.46 
L 119.393247 206.46 
L 119.393247 206.46 
L 116.42533 206.46 
z
" clip-path="url(#p1c0769a692)" style="fill: #e37b45; fill-opacity: 0.7; stroke: #ffffff; stroke-width: 0.253636; stroke-linejoin: miter"/>
   </g>
   <g id="patch_25">
    <path d="M 119.393247 206.46 
L 122.361163 206.46 
L 122.361163 206.46 
L 119.393247 206.46 
z
" clip-path="url(#p1c0769a692)" style="fill: #e37b45; fill-opacity: 0.7; stroke: #ffffff; stroke-width: 0.253636; stroke-linejoin: miter"/>
   </g>
   <g id="patch_26">
    <path d="M 122.361163 206.46 
L 125.32908 206.46 
L 125.32908 206.46 
L 122.361163 206.46 
z
" clip-path="url(#p1c0769a692)" style="fill: #e37b45; fill-opacity: 0.7; stroke: #ffffff; stroke-width: 0.253636; stroke-linejoin: miter"/>
   </g>
   <g id="patch_27">
    <path d="M 125.32908 206.46 
L 128.296997 206.46 
L 128.296997 206.46 
L 125.32908 206.46 
z
" clip-path="url(#p1c0769a692)" style="fill: #e37b45; fill-opacity: 0.7; stroke: #ffffff; stroke-width: 0.253636; stroke-linejoin: miter"/>
   </g>
   <g id="patch_28">
    <path d="M 128.296997 206.46 
L 131.264913 206.46 
L 131.264913 61.842857 
L 128.296997 61.842857 
z
" clip-path="url(#p1c0769a692)" style="fill: #e37b45; fill-opacity: 0.7; stroke: #ffffff; stroke-width: 0.253636; stroke-linejoin: miter"/>
   </g>
   <g id="patch_29">
    <path d="M 131.264913 206.46 
L 134.23283 206.46 
L 134.23283 191.452561 
L 131.264913 191.452561 
z
" clip-path="url(#p1c0769a692)" style="fill: #e37b45; fill-opacity: 0.7; stroke: #ffffff; stroke-width: 0.253636; stroke-linejoin: miter"/>
   </g>
   <g id="patch_30">
    <path d="M 134.23283 206.46 
L 137.200747 206.46 
L 137.200747 194.181186 
L 134.23283 194.181186 
z
" clip-path="url(#p1c0769a692)" style="fill: #e37b45; fill-opacity: 0.7; stroke: #ffffff; stroke-width: 0.253636; stroke-linejoin: miter"/>
   </g>
   <g id="patch_31">
    <path d="M 137.200747 206.46 
L 140.168663 206.46 
L 140.168663 195.272636 
L 137.200747 195.272636 
z
" clip-path="url(#p1c0769a692)" style="fill: #e37b45; fill-opacity: 0.7; stroke: #ffffff; stroke-width: 0.253636; stroke-linejoin: miter"/>
   </g>
   <g id="patch_32">
    <path d="M 140.168663 206.46 
L 143.13658 206.46 
L 143.13658 194.181186 
L 140.168663 194.181186 
z
" clip-path="url(#p1c0769a692)" style="fill: #e37b45; fill-opacity: 0.7; stroke: #ffffff; stroke-width: 0.253636; stroke-linejoin: miter"/>
   </g>
   <g id="patch_33">
    <path d="M 143.13658 206.46 
L 146.104497 206.46 
L 146.104497 191.998286 
L 143.13658 191.998286 
z
" clip-path="url(#p1c0769a692)" style="fill: #e37b45; fill-opacity: 0.7; stroke: #ffffff; stroke-width: 0.253636; stroke-linejoin: miter"/>
   </g>
   <g id="patch_34">
    <path d="M 146.104497 206.46 
L 149.072413 206.46 
L 149.072413 199.911299 
L 146.104497 199.911299 
z
" clip-path="url(#p1c0769a692)" style="fill: #e37b45; fill-opacity: 0.7; stroke: #ffffff; stroke-width: 0.253636; stroke-linejoin: miter"/>
   </g>
   <g id="patch_35">
    <path d="M 149.072413 206.46 
L 152.04033 206.46 
L 152.04033 198.001261 
L 149.072413 198.001261 
z
" clip-path="url(#p1c0769a692)" style="fill: #e37b45; fill-opacity: 0.7; stroke: #ffffff; stroke-width: 0.253636; stroke-linejoin: miter"/>
   </g>
   <g id="patch_36">
    <path d="M 152.04033 206.46 
L 155.008247 206.46 
L 155.008247 198.274124 
L 152.04033 198.274124 
z
" clip-path="url(#p1c0769a692)" style="fill: #e37b45; fill-opacity: 0.7; stroke: #ffffff; stroke-width: 0.253636; stroke-linejoin: miter"/>
   </g>
   <g id="patch_37">
    <path d="M 155.008247 206.46 
L 157.976163 206.46 
L 157.976163 199.092712 
L 155.008247 199.092712 
z
" clip-path="url(#p1c0769a692)" style="fill: #e37b45; fill-opacity: 0.7; stroke: #ffffff; stroke-width: 0.253636; stroke-linejoin: miter"/>
   </g>
   <g id="patch_38">
    <path d="M 157.976163 206.46 
L 160.94408 206.46 
L 160.94408 203.18565 
L 157.976163 203.18565 
z
" clip-path="url(#p1c0769a692)" style="fill: #e37b45; fill-opacity: 0.7; stroke: #ffffff; stroke-width: 0.253636; stroke-linejoin: miter"/>
   </g>
   <g id="patch_39">
    <path d="M 160.94408 206.46 
L 163.911997 206.46 
L 163.911997 201.002749 
L 160.94408 201.002749 
z
" clip-path="url(#p1c0769a692)" style="fill: #e37b45; fill-opacity: 0.7; stroke: #ffffff; stroke-width: 0.253636; stroke-linejoin: miter"/>
   </g>
   <g id="patch_40">
    <path d="M 163.911997 206.46 
L 166.879913 206.46 
L 166.879913 201.275612 
L 163.911997 201.275612 
z
" clip-path="url(#p1c0769a692)" style="fill: #e37b45; fill-opacity: 0.7; stroke: #ffffff; stroke-width: 0.253636; stroke-linejoin: miter"/>
   </g>
   <g id="patch_41">
    <path d="M 166.879913 206.46 
L 169.84783 206.46 
L 169.84783 201.821337 
L 166.879913 201.821337 
z
" clip-path="url(#p1c0769a692)" style="fill: #e37b45; fill-opacity: 0.7; stroke: #ffffff; stroke-width: 0.253636; stroke-linejoin: miter"/>
   </g>
   <g id="patch_42">
    <path d="M 169.84783 206.46 
L 172.815747 206.46 
L 172.815747 203.18565 
L 169.84783 203.18565 
z
" clip-path="url(#p1c0769a692)" style="fill: #e37b45; fill-opacity: 0.7; stroke: #ffffff; stroke-width: 0.253636; stroke-linejoin: miter"/>
   </g>
   <g id="patch_43">
    <path d="M 172.815747 206.46 
L 175.783663 206.46 
L 175.783663 203.458512 
L 172.815747 203.458512 
z
" clip-path="url(#p1c0769a692)" style="fill: #e37b45; fill-opacity: 0.7; stroke: #ffffff; stroke-width: 0.253636; stroke-linejoin: miter"/>
   </g>
   <g id="patch_44">
    <path d="M 175.783663 206.46 
L 178.75158 206.46 
L 178.75158 204.822825 
L 175.783663 204.822825 
z
" clip-path="url(#p1c0769a692)" style="fill: #e37b45; fill-opacity: 0.7; stroke: #ffffff; stroke-width: 0.253636; stroke-linejoin: miter"/>
   </g>
   <g id="patch_45">
    <path d="M 178.75158 206.46 
L 181.719497 206.46 
L 181.719497 204.822825 
L 178.75158 204.822825 
z
" clip-path="url(#p1c0769a692)" style="fill: #e37b45; fill-opacity: 0.7; stroke: #ffffff; stroke-width: 0.253636; stroke-linejoin: miter"/>
   </g>
   <g id="patch_46">
    <path d="M 181.719497 206.46 
L 184.687413 206.46 
L 184.687413 205.095687 
L 181.719497 205.095687 
z
" clip-path="url(#p1c0769a692)" style="fill: #e37b45; fill-opacity: 0.7; stroke: #ffffff; stroke-width: 0.253636; stroke-linejoin: miter"/>
   </g>
   <g id="patch_47">
    <path d="M 184.687413 206.46 
L 187.65533 206.46 
L 187.65533 205.36855 
L 184.687413 205.36855 
z
" clip-path="url(#p1c0769a692)" style="fill: #e37b45; fill-opacity: 0.7; stroke: #ffffff; stroke-width: 0.253636; stroke-linejoin: miter"/>
   </g>
   <g id="patch_48">
    <path d="M 187.65533 206.46 
L 190.623247 206.46 
L 190.623247 205.095687 
L 187.65533 205.095687 
z
" clip-path="url(#p1c0769a692)" style="fill: #e37b45; fill-opacity: 0.7; stroke: #ffffff; stroke-width: 0.253636; stroke-linejoin: miter"/>
   </g>
   <g id="patch_49">
    <path d="M 190.623247 206.46 
L 193.591163 206.46 
L 193.591163 206.187137 
L 190.623247 206.187137 
z
" clip-path="url(#p1c0769a692)" style="fill: #e37b45; fill-opacity: 0.7; stroke: #ffffff; stroke-width: 0.253636; stroke-linejoin: miter"/>
   </g>
   <g id="patch_50">
    <path d="M 193.591163 206.46 
L 196.55908 206.46 
L 196.55908 206.46 
L 193.591163 206.46 
z
" clip-path="url(#p1c0769a692)" style="fill: #e37b45; fill-opacity: 0.7; stroke: #ffffff; stroke-width: 0.253636; stroke-linejoin: miter"/>
   </g>
   <g id="patch_51">
    <path d="M 196.55908 206.46 
L 199.526997 206.46 
L 199.526997 206.46 
L 196.55908 206.46 
z
" clip-path="url(#p1c0769a692)" style="fill: #e37b45; fill-opacity: 0.7; stroke: #ffffff; stroke-width: 0.253636; stroke-linejoin: miter"/>
   </g>
   <g id="patch_52">
    <path d="M 199.526997 206.46 
L 202.494913 206.46 
L 202.494913 206.187137 
L 199.526997 206.187137 
z
" clip-path="url(#p1c0769a692)" style="fill: #e37b45; fill-opacity: 0.7; stroke: #ffffff; stroke-width: 0.253636; stroke-linejoin: miter"/>
   </g>
   <g id="patch_53">
    <path d="M 54.09908 206.46 
L 128.587969 206.46 
L 128.587969 69.7968 
L 54.09908 69.7968 
z
" clip-path="url(#p1c0769a692)" style="fill: url(#h16c291c4da); opacity: 0.3; stroke: #d31518; stroke-linejoin: miter"/>
   </g>
   <g id="patch_54">
    <path d="M 50.025469 206.46 
L 50.025469 54.612 
" style="fill: none; stroke: #cccccc; stroke-width: 1.25; stroke-linejoin: miter; stroke-linecap: square"/>
   </g>
   <g id="patch_55">
    <path d="M 50.025469 206.46 
L 207.150469 206.46 
" style="fill: none; stroke: #cccccc; stroke-width: 1.25; stroke-linejoin: miter; stroke-linecap: square"/>
   </g>
   <g id="text_12">
    <!-- WASTED -->
    <g style="fill: #691210" transform="translate(78.509149 125.365275) scale(0.06 -0.06)">
     <defs>
      <path id="Arial-BoldMT-57" d="M 1116 0 
L 22 4581 
L 969 4581 
L 1659 1434 
L 2497 4581 
L 3597 4581 
L 4400 1381 
L 5103 4581 
L 6034 4581 
L 4922 0 
L 3941 0 
L 3028 3425 
L 2119 0 
L 1116 0 
z
" transform="scale(0.015625)"/>
      <path id="Arial-BoldMT-41" d="M 4597 0 
L 3591 0 
L 3191 1041 
L 1359 1041 
L 981 0 
L 0 0 
L 1784 4581 
L 2763 4581 
L 4597 0 
z
M 2894 1813 
L 2263 3513 
L 1644 1813 
L 2894 1813 
z
" transform="scale(0.015625)"/>
      <path id="Arial-BoldMT-53" d="M 231 1491 
L 1131 1578 
Q 1213 1125 1461 912 
Q 1709 700 2131 700 
Q 2578 700 2804 889 
Q 3031 1078 3031 1331 
Q 3031 1494 2936 1608 
Q 2841 1722 2603 1806 
Q 2441 1863 1863 2006 
Q 1119 2191 819 2459 
Q 397 2838 397 3381 
Q 397 3731 595 4036 
Q 794 4341 1167 4500 
Q 1541 4659 2069 4659 
Q 2931 4659 3367 4281 
Q 3803 3903 3825 3272 
L 2900 3231 
Q 2841 3584 2645 3739 
Q 2450 3894 2059 3894 
Q 1656 3894 1428 3728 
Q 1281 3622 1281 3444 
Q 1281 3281 1419 3166 
Q 1594 3019 2269 2859 
Q 2944 2700 3267 2529 
Q 3591 2359 3773 2064 
Q 3956 1769 3956 1334 
Q 3956 941 3737 597 
Q 3519 253 3119 86 
Q 2719 -81 2122 -81 
Q 1253 -81 787 320 
Q 322 722 231 1491 
z
" transform="scale(0.015625)"/>
      <path id="Arial-BoldMT-54" d="M 1497 0 
L 1497 3806 
L 138 3806 
L 138 4581 
L 3778 4581 
L 3778 3806 
L 2422 3806 
L 2422 0 
L 1497 0 
z
" transform="scale(0.015625)"/>
      <path id="Arial-BoldMT-45" d="M 466 0 
L 466 4581 
L 3863 4581 
L 3863 3806 
L 1391 3806 
L 1391 2791 
L 3691 2791 
L 3691 2019 
L 1391 2019 
L 1391 772 
L 3950 772 
L 3950 0 
L 466 0 
z
" transform="scale(0.015625)"/>
      <path id="Arial-BoldMT-44" d="M 463 4581 
L 2153 4581 
Q 2725 4581 3025 4494 
Q 3428 4375 3715 4072 
Q 4003 3769 4153 3330 
Q 4303 2891 4303 2247 
Q 4303 1681 4163 1272 
Q 3991 772 3672 463 
Q 3431 228 3022 97 
Q 2716 0 2203 0 
L 463 0 
L 463 4581 
z
M 1388 3806 
L 1388 772 
L 2078 772 
Q 2466 772 2638 816 
Q 2863 872 3011 1006 
Q 3159 1141 3253 1448 
Q 3347 1756 3347 2288 
Q 3347 2819 3253 3103 
Q 3159 3388 2990 3547 
Q 2822 3706 2563 3763 
Q 2369 3806 1803 3806 
L 1388 3806 
z
" transform="scale(0.015625)"/>
     </defs>
     <use xlink:href="#Arial-BoldMT-57"/>
     <use xlink:href="#Arial-BoldMT-41" transform="translate(88.884766 0)"/>
     <use xlink:href="#Arial-BoldMT-53" transform="translate(161.101562 0)"/>
     <use xlink:href="#Arial-BoldMT-54" transform="translate(227.800781 0)"/>
     <use xlink:href="#Arial-BoldMT-45" transform="translate(288.884766 0)"/>
     <use xlink:href="#Arial-BoldMT-44" transform="translate(355.583984 0)"/>
    </g>
    <!-- BIT SPACE -->
    <g style="fill: #691210" transform="translate(75.562587 131.702962) scale(0.06 -0.06)">
     <defs>
      <path id="Arial-BoldMT-42" d="M 469 4581 
L 2300 4581 
Q 2844 4581 3111 4536 
Q 3378 4491 3589 4347 
Q 3800 4203 3940 3964 
Q 4081 3725 4081 3428 
Q 4081 3106 3907 2837 
Q 3734 2569 3438 2434 
Q 3856 2313 4081 2019 
Q 4306 1725 4306 1328 
Q 4306 1016 4161 720 
Q 4016 425 3764 248 
Q 3513 72 3144 31 
Q 2913 6 2028 0 
L 469 0 
L 469 4581 
z
M 1394 3819 
L 1394 2759 
L 2000 2759 
Q 2541 2759 2672 2775 
Q 2909 2803 3045 2939 
Q 3181 3075 3181 3297 
Q 3181 3509 3064 3642 
Q 2947 3775 2716 3803 
Q 2578 3819 1925 3819 
L 1394 3819 
z
M 1394 1997 
L 1394 772 
L 2250 772 
Q 2750 772 2884 800 
Q 3091 838 3220 983 
Q 3350 1128 3350 1372 
Q 3350 1578 3250 1722 
Q 3150 1866 2961 1931 
Q 2772 1997 2141 1997 
L 1394 1997 
z
" transform="scale(0.015625)"/>
      <path id="Arial-BoldMT-49" d="M 438 0 
L 438 4581 
L 1363 4581 
L 1363 0 
L 438 0 
z
" transform="scale(0.015625)"/>
      <path id="Arial-BoldMT-20" transform="scale(0.015625)"/>
      <path id="Arial-BoldMT-50" d="M 466 0 
L 466 4581 
L 1950 4581 
Q 2794 4581 3050 4513 
Q 3444 4409 3709 4064 
Q 3975 3719 3975 3172 
Q 3975 2750 3822 2462 
Q 3669 2175 3433 2011 
Q 3197 1847 2953 1794 
Q 2622 1728 1994 1728 
L 1391 1728 
L 1391 0 
L 466 0 
z
M 1391 3806 
L 1391 2506 
L 1897 2506 
Q 2444 2506 2628 2578 
Q 2813 2650 2917 2803 
Q 3022 2956 3022 3159 
Q 3022 3409 2875 3571 
Q 2728 3734 2503 3775 
Q 2338 3806 1838 3806 
L 1391 3806 
z
" transform="scale(0.015625)"/>
      <path id="Arial-BoldMT-43" d="M 3397 1684 
L 4294 1400 
Q 4088 650 3608 286 
Q 3128 -78 2391 -78 
Q 1478 -78 890 545 
Q 303 1169 303 2250 
Q 303 3394 893 4026 
Q 1484 4659 2447 4659 
Q 3288 4659 3813 4163 
Q 4125 3869 4281 3319 
L 3366 3100 
Q 3284 3456 3026 3662 
Q 2769 3869 2400 3869 
Q 1891 3869 1573 3503 
Q 1256 3138 1256 2319 
Q 1256 1450 1568 1081 
Q 1881 713 2381 713 
Q 2750 713 3015 947 
Q 3281 1181 3397 1684 
z
" transform="scale(0.015625)"/>
     </defs>
     <use xlink:href="#Arial-BoldMT-42"/>
     <use xlink:href="#Arial-BoldMT-49" transform="translate(72.216797 0)"/>
     <use xlink:href="#Arial-BoldMT-54" transform="translate(100 0)"/>
     <use xlink:href="#Arial-BoldMT-20" transform="translate(161.083984 0)"/>
     <use xlink:href="#Arial-BoldMT-53" transform="translate(188.867188 0)"/>
     <use xlink:href="#Arial-BoldMT-50" transform="translate(255.566406 0)"/>
     <use xlink:href="#Arial-BoldMT-41" transform="translate(314.890625 0)"/>
     <use xlink:href="#Arial-BoldMT-43" transform="translate(387.107422 0)"/>
     <use xlink:href="#Arial-BoldMT-45" transform="translate(459.324219 0)"/>
    </g>
    <!-- (The 'ReLU Trap') -->
    <g style="fill: #691210" transform="translate(66.749618 138.1284) scale(0.06 -0.06)">
     <defs>
      <path id="Arial-BoldMT-28" d="M 1916 -1347 
L 1313 -1347 
Q 834 -625 584 153 
Q 334 931 334 1659 
Q 334 2563 644 3369 
Q 913 4069 1325 4659 
L 1925 4659 
Q 1497 3713 1336 3048 
Q 1175 2384 1175 1641 
Q 1175 1128 1270 590 
Q 1366 53 1531 -431 
Q 1641 -750 1916 -1347 
z
" transform="scale(0.015625)"/>
      <path id="Arial-BoldMT-68" d="M 1334 4581 
L 1334 2897 
Q 1759 3394 2350 3394 
Q 2653 3394 2897 3281 
Q 3141 3169 3264 2994 
Q 3388 2819 3433 2606 
Q 3478 2394 3478 1947 
L 3478 0 
L 2600 0 
L 2600 1753 
Q 2600 2275 2550 2415 
Q 2500 2556 2373 2639 
Q 2247 2722 2056 2722 
Q 1838 2722 1666 2615 
Q 1494 2509 1414 2295 
Q 1334 2081 1334 1663 
L 1334 0 
L 456 0 
L 456 4581 
L 1334 4581 
z
" transform="scale(0.015625)"/>
      <path id="Arial-BoldMT-65" d="M 2381 1056 
L 3256 909 
Q 3088 428 2723 176 
Q 2359 -75 1813 -75 
Q 947 -75 531 491 
Q 203 944 203 1634 
Q 203 2459 634 2926 
Q 1066 3394 1725 3394 
Q 2466 3394 2894 2905 
Q 3322 2416 3303 1406 
L 1103 1406 
Q 1113 1016 1316 798 
Q 1519 581 1822 581 
Q 2028 581 2168 693 
Q 2309 806 2381 1056 
z
M 2431 1944 
Q 2422 2325 2234 2523 
Q 2047 2722 1778 2722 
Q 1491 2722 1303 2513 
Q 1116 2303 1119 1944 
L 2431 1944 
z
" transform="scale(0.015625)"/>
      <path id="Arial-BoldMT-27" d="M 453 2953 
L 288 3806 
L 288 4581 
L 1244 4581 
L 1244 3806 
L 1100 2953 
L 453 2953 
z
" transform="scale(0.015625)"/>
      <path id="Arial-BoldMT-52" d="M 469 0 
L 469 4581 
L 2416 4581 
Q 3150 4581 3483 4457 
Q 3816 4334 4016 4018 
Q 4216 3703 4216 3297 
Q 4216 2781 3912 2445 
Q 3609 2109 3006 2022 
Q 3306 1847 3501 1637 
Q 3697 1428 4028 894 
L 4588 0 
L 3481 0 
L 2813 997 
Q 2456 1531 2325 1670 
Q 2194 1809 2047 1861 
Q 1900 1913 1581 1913 
L 1394 1913 
L 1394 0 
L 469 0 
z
M 1394 2644 
L 2078 2644 
Q 2744 2644 2909 2700 
Q 3075 2756 3169 2893 
Q 3263 3031 3263 3238 
Q 3263 3469 3139 3611 
Q 3016 3753 2791 3791 
Q 2678 3806 2116 3806 
L 1394 3806 
L 1394 2644 
z
" transform="scale(0.015625)"/>
      <path id="Arial-BoldMT-4c" d="M 491 0 
L 491 4544 
L 1416 4544 
L 1416 772 
L 3716 772 
L 3716 0 
L 491 0 
z
" transform="scale(0.015625)"/>
      <path id="Arial-BoldMT-55" d="M 459 4581 
L 1384 4581 
L 1384 2100 
Q 1384 1509 1419 1334 
Q 1478 1053 1701 883 
Q 1925 713 2313 713 
Q 2706 713 2906 873 
Q 3106 1034 3147 1268 
Q 3188 1503 3188 2047 
L 3188 4581 
L 4113 4581 
L 4113 2175 
Q 4113 1350 4038 1009 
Q 3963 669 3761 434 
Q 3559 200 3221 61 
Q 2884 -78 2341 -78 
Q 1684 -78 1345 73 
Q 1006 225 809 467 
Q 613 709 550 975 
Q 459 1369 459 2138 
L 459 4581 
z
" transform="scale(0.015625)"/>
      <path id="Arial-BoldMT-72" d="M 1300 0 
L 422 0 
L 422 3319 
L 1238 3319 
L 1238 2847 
Q 1447 3181 1614 3287 
Q 1781 3394 1994 3394 
Q 2294 3394 2572 3228 
L 2300 2463 
Q 2078 2606 1888 2606 
Q 1703 2606 1575 2504 
Q 1447 2403 1373 2137 
Q 1300 1872 1300 1025 
L 1300 0 
z
" transform="scale(0.015625)"/>
      <path id="Arial-BoldMT-61" d="M 1116 2306 
L 319 2450 
Q 453 2931 781 3162 
Q 1109 3394 1756 3394 
Q 2344 3394 2631 3255 
Q 2919 3116 3036 2902 
Q 3153 2688 3153 2116 
L 3144 1091 
Q 3144 653 3186 445 
Q 3228 238 3344 0 
L 2475 0 
Q 2441 88 2391 259 
Q 2369 338 2359 363 
Q 2134 144 1878 34 
Q 1622 -75 1331 -75 
Q 819 -75 523 203 
Q 228 481 228 906 
Q 228 1188 362 1408 
Q 497 1628 739 1745 
Q 981 1863 1438 1950 
Q 2053 2066 2291 2166 
L 2291 2253 
Q 2291 2506 2166 2614 
Q 2041 2722 1694 2722 
Q 1459 2722 1328 2630 
Q 1197 2538 1116 2306 
z
M 2291 1594 
Q 2122 1538 1756 1459 
Q 1391 1381 1278 1306 
Q 1106 1184 1106 997 
Q 1106 813 1243 678 
Q 1381 544 1594 544 
Q 1831 544 2047 700 
Q 2206 819 2256 991 
Q 2291 1103 2291 1419 
L 2291 1594 
z
" transform="scale(0.015625)"/>
      <path id="Arial-BoldMT-70" d="M 434 3319 
L 1253 3319 
L 1253 2831 
Q 1413 3081 1684 3237 
Q 1956 3394 2288 3394 
Q 2866 3394 3269 2941 
Q 3672 2488 3672 1678 
Q 3672 847 3265 386 
Q 2859 -75 2281 -75 
Q 2006 -75 1782 34 
Q 1559 144 1313 409 
L 1313 -1263 
L 434 -1263 
L 434 3319 
z
M 1303 1716 
Q 1303 1156 1525 889 
Q 1747 622 2066 622 
Q 2372 622 2575 867 
Q 2778 1113 2778 1672 
Q 2778 2194 2568 2447 
Q 2359 2700 2050 2700 
Q 1728 2700 1515 2451 
Q 1303 2203 1303 1716 
z
" transform="scale(0.015625)"/>
      <path id="Arial-BoldMT-29" d="M 216 -1347 
Q 475 -791 581 -494 
Q 688 -197 778 190 
Q 869 578 912 926 
Q 956 1275 956 1641 
Q 956 2384 797 3048 
Q 638 3713 209 4659 
L 806 4659 
Q 1278 3988 1539 3234 
Q 1800 2481 1800 1706 
Q 1800 1053 1594 306 
Q 1359 -531 822 -1347 
L 216 -1347 
z
" transform="scale(0.015625)"/>
     </defs>
     <use xlink:href="#Arial-BoldMT-28"/>
     <use xlink:href="#Arial-BoldMT-54" transform="translate(33.300781 0)"/>
     <use xlink:href="#Arial-BoldMT-68" transform="translate(94.384766 0)"/>
     <use xlink:href="#Arial-BoldMT-65" transform="translate(155.46875 0)"/>
     <use xlink:href="#Arial-BoldMT-20" transform="translate(211.083984 0)"/>
     <use xlink:href="#Arial-BoldMT-27" transform="translate(238.867188 0)"/>
     <use xlink:href="#Arial-BoldMT-52" transform="translate(262.646484 0)"/>
     <use xlink:href="#Arial-BoldMT-65" transform="translate(334.863281 0)"/>
     <use xlink:href="#Arial-BoldMT-4c" transform="translate(390.478516 0)"/>
     <use xlink:href="#Arial-BoldMT-55" transform="translate(451.5625 0)"/>
     <use xlink:href="#Arial-BoldMT-20" transform="translate(523.779297 0)"/>
     <use xlink:href="#Arial-BoldMT-54" transform="translate(551.5625 0)"/>
     <use xlink:href="#Arial-BoldMT-72" transform="translate(607.146484 0)"/>
     <use xlink:href="#Arial-BoldMT-61" transform="translate(646.0625 0)"/>
     <use xlink:href="#Arial-BoldMT-70" transform="translate(701.677734 0)"/>
     <use xlink:href="#Arial-BoldMT-27" transform="translate(762.761719 0)"/>
     <use xlink:href="#Arial-BoldMT-29" transform="translate(786.541016 0)"/>
    </g>
   </g>
   <g id="text_13">
    <!-- Symmetric (Signed Int8) -->
    <g style="fill: #262626" transform="translate(91.050469 41.023781) scale(0.07 -0.07)">
     <defs>
      <path id="ArialMT-53" d="M 288 1472 
L 859 1522 
Q 900 1178 1048 958 
Q 1197 738 1509 602 
Q 1822 466 2213 466 
Q 2559 466 2825 569 
Q 3091 672 3220 851 
Q 3350 1031 3350 1244 
Q 3350 1459 3225 1620 
Q 3100 1781 2813 1891 
Q 2628 1963 1997 2114 
Q 1366 2266 1113 2400 
Q 784 2572 623 2826 
Q 463 3081 463 3397 
Q 463 3744 659 4045 
Q 856 4347 1234 4503 
Q 1613 4659 2075 4659 
Q 2584 4659 2973 4495 
Q 3363 4331 3572 4012 
Q 3781 3694 3797 3291 
L 3216 3247 
Q 3169 3681 2898 3903 
Q 2628 4125 2100 4125 
Q 1550 4125 1298 3923 
Q 1047 3722 1047 3438 
Q 1047 3191 1225 3031 
Q 1400 2872 2139 2705 
Q 2878 2538 3153 2413 
Q 3553 2228 3743 1945 
Q 3934 1663 3934 1294 
Q 3934 928 3725 604 
Q 3516 281 3123 101 
Q 2731 -78 2241 -78 
Q 1619 -78 1198 103 
Q 778 284 539 648 
Q 300 1013 288 1472 
z
" transform="scale(0.015625)"/>
      <path id="ArialMT-79" d="M 397 -1278 
L 334 -750 
Q 519 -800 656 -800 
Q 844 -800 956 -737 
Q 1069 -675 1141 -563 
Q 1194 -478 1313 -144 
Q 1328 -97 1363 -6 
L 103 3319 
L 709 3319 
L 1400 1397 
Q 1534 1031 1641 628 
Q 1738 1016 1872 1384 
L 2581 3319 
L 3144 3319 
L 1881 -56 
Q 1678 -603 1566 -809 
Q 1416 -1088 1222 -1217 
Q 1028 -1347 759 -1347 
Q 597 -1347 397 -1278 
z
" transform="scale(0.015625)"/>
      <path id="ArialMT-6d" d="M 422 0 
L 422 3319 
L 925 3319 
L 925 2853 
Q 1081 3097 1340 3245 
Q 1600 3394 1931 3394 
Q 2300 3394 2536 3241 
Q 2772 3088 2869 2813 
Q 3263 3394 3894 3394 
Q 4388 3394 4653 3120 
Q 4919 2847 4919 2278 
L 4919 0 
L 4359 0 
L 4359 2091 
Q 4359 2428 4304 2576 
Q 4250 2725 4106 2815 
Q 3963 2906 3769 2906 
Q 3419 2906 3187 2673 
Q 2956 2441 2956 1928 
L 2956 0 
L 2394 0 
L 2394 2156 
Q 2394 2531 2256 2718 
Q 2119 2906 1806 2906 
Q 1569 2906 1367 2781 
Q 1166 2656 1075 2415 
Q 984 2175 984 1722 
L 984 0 
L 422 0 
z
" transform="scale(0.015625)"/>
      <path id="ArialMT-69" d="M 425 3934 
L 425 4581 
L 988 4581 
L 988 3934 
L 425 3934 
z
M 425 0 
L 425 3319 
L 988 3319 
L 988 0 
L 425 0 
z
" transform="scale(0.015625)"/>
      <path id="ArialMT-63" d="M 2588 1216 
L 3141 1144 
Q 3050 572 2676 248 
Q 2303 -75 1759 -75 
Q 1078 -75 664 370 
Q 250 816 250 1647 
Q 250 2184 428 2587 
Q 606 2991 970 3192 
Q 1334 3394 1763 3394 
Q 2303 3394 2647 3120 
Q 2991 2847 3088 2344 
L 2541 2259 
Q 2463 2594 2264 2762 
Q 2066 2931 1784 2931 
Q 1359 2931 1093 2626 
Q 828 2322 828 1663 
Q 828 994 1084 691 
Q 1341 388 1753 388 
Q 2084 388 2306 591 
Q 2528 794 2588 1216 
z
" transform="scale(0.015625)"/>
      <path id="ArialMT-28" d="M 1497 -1347 
Q 1031 -759 709 28 
Q 388 816 388 1659 
Q 388 2403 628 3084 
Q 909 3875 1497 4659 
L 1900 4659 
Q 1522 4009 1400 3731 
Q 1209 3300 1100 2831 
Q 966 2247 966 1656 
Q 966 153 1900 -1347 
L 1497 -1347 
z
" transform="scale(0.015625)"/>
      <path id="ArialMT-38" d="M 1131 2484 
Q 781 2613 612 2850 
Q 444 3088 444 3419 
Q 444 3919 803 4259 
Q 1163 4600 1759 4600 
Q 2359 4600 2725 4251 
Q 3091 3903 3091 3403 
Q 3091 3084 2923 2848 
Q 2756 2613 2416 2484 
Q 2838 2347 3058 2040 
Q 3278 1734 3278 1309 
Q 3278 722 2862 322 
Q 2447 -78 1769 -78 
Q 1091 -78 675 323 
Q 259 725 259 1325 
Q 259 1772 486 2073 
Q 713 2375 1131 2484 
z
M 1019 3438 
Q 1019 3113 1228 2906 
Q 1438 2700 1772 2700 
Q 2097 2700 2305 2904 
Q 2513 3109 2513 3406 
Q 2513 3716 2298 3927 
Q 2084 4138 1766 4138 
Q 1444 4138 1231 3931 
Q 1019 3725 1019 3438 
z
M 838 1322 
Q 838 1081 952 856 
Q 1066 631 1291 507 
Q 1516 384 1775 384 
Q 2178 384 2440 643 
Q 2703 903 2703 1303 
Q 2703 1709 2433 1975 
Q 2163 2241 1756 2241 
Q 1359 2241 1098 1978 
Q 838 1716 838 1322 
z
" transform="scale(0.015625)"/>
      <path id="ArialMT-29" d="M 791 -1347 
L 388 -1347 
Q 1322 153 1322 1656 
Q 1322 2244 1188 2822 
Q 1081 3291 891 3722 
Q 769 4003 388 4659 
L 791 4659 
Q 1378 3875 1659 3084 
Q 1900 2403 1900 1659 
Q 1900 816 1576 28 
Q 1253 -759 791 -1347 
z
" transform="scale(0.015625)"/>
     </defs>
     <use xlink:href="#ArialMT-53"/>
     <use xlink:href="#ArialMT-79" transform="translate(66.699219 0)"/>
     <use xlink:href="#ArialMT-6d" transform="translate(116.699219 0)"/>
     <use xlink:href="#ArialMT-6d" transform="translate(200 0)"/>
     <use xlink:href="#ArialMT-65" transform="translate(283.300781 0)"/>
     <use xlink:href="#ArialMT-74" transform="translate(338.916016 0)"/>
     <use xlink:href="#ArialMT-72" transform="translate(366.699219 0)"/>
     <use xlink:href="#ArialMT-69" transform="translate(400 0)"/>
     <use xlink:href="#ArialMT-63" transform="translate(422.216797 0)"/>
     <use xlink:href="#ArialMT-20" transform="translate(472.216797 0)"/>
     <use xlink:href="#ArialMT-28" transform="translate(500 0)"/>
     <use xlink:href="#ArialMT-53" transform="translate(533.300781 0)"/>
     <use xlink:href="#ArialMT-69" transform="translate(600 0)"/>
     <use xlink:href="#ArialMT-67" transform="translate(622.216797 0)"/>
     <use xlink:href="#ArialMT-6e" transform="translate(677.832031 0)"/>
     <use xlink:href="#ArialMT-65" transform="translate(733.447266 0)"/>
     <use xlink:href="#ArialMT-64" transform="translate(789.0625 0)"/>
     <use xlink:href="#ArialMT-20" transform="translate(844.677734 0)"/>
     <use xlink:href="#ArialMT-49" transform="translate(872.460938 0)"/>
     <use xlink:href="#ArialMT-6e" transform="translate(900.244141 0)"/>
     <use xlink:href="#ArialMT-74" transform="translate(955.859375 0)"/>
     <use xlink:href="#ArialMT-38" transform="translate(983.642578 0)"/>
     <use xlink:href="#ArialMT-29" transform="translate(1039.257812 0)"/>
    </g>
    <!-- Range: [-127, 127] | Z=0 -->
    <g style="fill: #262626" transform="translate(90.615156 48.612) scale(0.07 -0.07)">
     <defs>
      <path id="ArialMT-52" d="M 503 0 
L 503 4581 
L 2534 4581 
Q 3147 4581 3465 4457 
Q 3784 4334 3975 4021 
Q 4166 3709 4166 3331 
Q 4166 2844 3850 2509 
Q 3534 2175 2875 2084 
Q 3116 1969 3241 1856 
Q 3506 1613 3744 1247 
L 4541 0 
L 3778 0 
L 3172 953 
Q 2906 1366 2734 1584 
Q 2563 1803 2427 1890 
Q 2291 1978 2150 2013 
Q 2047 2034 1813 2034 
L 1109 2034 
L 1109 0 
L 503 0 
z
M 1109 2559 
L 2413 2559 
Q 2828 2559 3062 2645 
Q 3297 2731 3419 2920 
Q 3541 3109 3541 3331 
Q 3541 3656 3305 3865 
Q 3069 4075 2559 4075 
L 1109 4075 
L 1109 2559 
z
" transform="scale(0.015625)"/>
      <path id="ArialMT-61" d="M 2588 409 
Q 2275 144 1986 34 
Q 1697 -75 1366 -75 
Q 819 -75 525 192 
Q 231 459 231 875 
Q 231 1119 342 1320 
Q 453 1522 633 1644 
Q 813 1766 1038 1828 
Q 1203 1872 1538 1913 
Q 2219 1994 2541 2106 
Q 2544 2222 2544 2253 
Q 2544 2597 2384 2738 
Q 2169 2928 1744 2928 
Q 1347 2928 1158 2789 
Q 969 2650 878 2297 
L 328 2372 
Q 403 2725 575 2942 
Q 747 3159 1072 3276 
Q 1397 3394 1825 3394 
Q 2250 3394 2515 3294 
Q 2781 3194 2906 3042 
Q 3031 2891 3081 2659 
Q 3109 2516 3109 2141 
L 3109 1391 
Q 3109 606 3145 398 
Q 3181 191 3288 0 
L 2700 0 
Q 2613 175 2588 409 
z
M 2541 1666 
Q 2234 1541 1622 1453 
Q 1275 1403 1131 1340 
Q 988 1278 909 1158 
Q 831 1038 831 891 
Q 831 666 1001 516 
Q 1172 366 1500 366 
Q 1825 366 2078 508 
Q 2331 650 2450 897 
Q 2541 1088 2541 1459 
L 2541 1666 
z
" transform="scale(0.015625)"/>
      <path id="ArialMT-3a" d="M 578 2678 
L 578 3319 
L 1219 3319 
L 1219 2678 
L 578 2678 
z
M 578 0 
L 578 641 
L 1219 641 
L 1219 0 
L 578 0 
z
" transform="scale(0.015625)"/>
      <path id="ArialMT-5b" d="M 434 -1272 
L 434 4581 
L 1675 4581 
L 1675 4116 
L 997 4116 
L 997 -806 
L 1675 -806 
L 1675 -1272 
L 434 -1272 
z
" transform="scale(0.015625)"/>
      <path id="ArialMT-2d" d="M 203 1375 
L 203 1941 
L 1931 1941 
L 1931 1375 
L 203 1375 
z
" transform="scale(0.015625)"/>
      <path id="ArialMT-37" d="M 303 3981 
L 303 4522 
L 3269 4522 
L 3269 4084 
Q 2831 3619 2401 2847 
Q 1972 2075 1738 1259 
Q 1569 684 1522 0 
L 944 0 
Q 953 541 1156 1306 
Q 1359 2072 1739 2783 
Q 2119 3494 2547 3981 
L 303 3981 
z
" transform="scale(0.015625)"/>
      <path id="ArialMT-2c" d="M 569 0 
L 569 641 
L 1209 641 
L 1209 0 
Q 1209 -353 1084 -570 
Q 959 -788 688 -906 
L 531 -666 
Q 709 -588 793 -436 
Q 878 -284 888 0 
L 569 0 
z
" transform="scale(0.015625)"/>
      <path id="ArialMT-5d" d="M 1363 -1272 
L 122 -1272 
L 122 -806 
L 800 -806 
L 800 4116 
L 122 4116 
L 122 4581 
L 1363 4581 
L 1363 -1272 
z
" transform="scale(0.015625)"/>
      <path id="ArialMT-7c" d="M 588 -1347 
L 588 4659 
L 1078 4659 
L 1078 -1347 
L 588 -1347 
z
" transform="scale(0.015625)"/>
      <path id="ArialMT-5a" d="M 128 0 
L 128 563 
L 2475 3497 
Q 2725 3809 2950 4041 
L 394 4041 
L 394 4581 
L 3675 4581 
L 3675 4041 
L 1103 863 
L 825 541 
L 3750 541 
L 3750 0 
L 128 0 
z
" transform="scale(0.015625)"/>
      <path id="ArialMT-3d" d="M 3381 2694 
L 356 2694 
L 356 3219 
L 3381 3219 
L 3381 2694 
z
M 3381 1303 
L 356 1303 
L 356 1828 
L 3381 1828 
L 3381 1303 
z
" transform="scale(0.015625)"/>
     </defs>
     <use xlink:href="#ArialMT-52"/>
     <use xlink:href="#ArialMT-61" transform="translate(72.216797 0)"/>
     <use xlink:href="#ArialMT-6e" transform="translate(127.832031 0)"/>
     <use xlink:href="#ArialMT-67" transform="translate(183.447266 0)"/>
     <use xlink:href="#ArialMT-65" transform="translate(239.0625 0)"/>
     <use xlink:href="#ArialMT-3a" transform="translate(294.677734 0)"/>
     <use xlink:href="#ArialMT-20" transform="translate(322.460938 0)"/>
     <use xlink:href="#ArialMT-5b" transform="translate(350.244141 0)"/>
     <use xlink:href="#ArialMT-2d" transform="translate(378.027344 0)"/>
     <use xlink:href="#ArialMT-31" transform="translate(411.328125 0)"/>
     <use xlink:href="#ArialMT-32" transform="translate(466.943359 0)"/>
     <use xlink:href="#ArialMT-37" transform="translate(522.558594 0)"/>
     <use xlink:href="#ArialMT-2c" transform="translate(578.173828 0)"/>
     <use xlink:href="#ArialMT-20" transform="translate(605.957031 0)"/>
     <use xlink:href="#ArialMT-31" transform="translate(633.740234 0)"/>
     <use xlink:href="#ArialMT-32" transform="translate(689.355469 0)"/>
     <use xlink:href="#ArialMT-37" transform="translate(744.970703 0)"/>
     <use xlink:href="#ArialMT-5d" transform="translate(800.585938 0)"/>
     <use xlink:href="#ArialMT-20" transform="translate(828.369141 0)"/>
     <use xlink:href="#ArialMT-7c" transform="translate(856.152344 0)"/>
     <use xlink:href="#ArialMT-20" transform="translate(882.128906 0)"/>
     <use xlink:href="#ArialMT-5a" transform="translate(909.912109 0)"/>
     <use xlink:href="#ArialMT-3d" transform="translate(970.996094 0)"/>
     <use xlink:href="#ArialMT-30" transform="translate(1029.394531 0)"/>
    </g>
   </g>
  </g>
  <g id="axes_2">
   <g id="patch_56">
    <path d="M 220.110469 206.46 
L 377.235469 206.46 
L 377.235469 54.612 
L 220.110469 54.612 
z
" style="fill: #ffffff"/>
   </g>
   <g id="matplotlib.axis_3">
    <g id="xtick_4">
     <g id="line2d_10">
      <path d="M 225.824105 206.46 
L 225.824105 54.612 
" clip-path="url(#p5bfc0a830c)" style="fill: none; stroke: #cccccc; stroke-linecap: round"/>
     </g>
     <g id="text_14">
      <!-- 0 -->
      <g style="fill: #262626" transform="translate(222.765589 223.833594) scale(0.11 -0.11)">
       <use xlink:href="#ArialMT-30"/>
      </g>
     </g>
    </g>
    <g id="xtick_5">
     <g id="line2d_11">
      <path d="M 282.960469 206.46 
L 282.960469 54.612 
" clip-path="url(#p5bfc0a830c)" style="fill: none; stroke: #cccccc; stroke-linecap: round"/>
     </g>
     <g id="text_15">
      <!-- 100 -->
      <g style="fill: #262626" transform="translate(273.784922 223.833594) scale(0.11 -0.11)">
       <use xlink:href="#ArialMT-31"/>
       <use xlink:href="#ArialMT-30" transform="translate(55.615234 0)"/>
       <use xlink:href="#ArialMT-30" transform="translate(111.230469 0)"/>
      </g>
     </g>
    </g>
    <g id="xtick_6">
     <g id="line2d_12">
      <path d="M 340.096832 206.46 
L 340.096832 54.612 
" clip-path="url(#p5bfc0a830c)" style="fill: none; stroke: #cccccc; stroke-linecap: round"/>
     </g>
     <g id="text_16">
      <!-- 200 -->
      <g style="fill: #262626" transform="translate(330.921286 223.833594) scale(0.11 -0.11)">
       <use xlink:href="#ArialMT-32"/>
       <use xlink:href="#ArialMT-30" transform="translate(55.615234 0)"/>
       <use xlink:href="#ArialMT-30" transform="translate(111.230469 0)"/>
      </g>
     </g>
    </g>
    <g id="text_17">
     <!-- Integer Index -->
     <g style="fill: #262626" transform="translate(263.651719 238.609219) scale(0.12 -0.12)">
      <use xlink:href="#ArialMT-49"/>
      <use xlink:href="#ArialMT-6e" transform="translate(27.783203 0)"/>
      <use xlink:href="#ArialMT-74" transform="translate(83.398438 0)"/>
      <use xlink:href="#ArialMT-65" transform="translate(111.181641 0)"/>
      <use xlink:href="#ArialMT-67" transform="translate(166.796875 0)"/>
      <use xlink:href="#ArialMT-65" transform="translate(222.412109 0)"/>
      <use xlink:href="#ArialMT-72" transform="translate(278.027344 0)"/>
      <use xlink:href="#ArialMT-20" transform="translate(311.328125 0)"/>
      <use xlink:href="#ArialMT-49" transform="translate(339.111328 0)"/>
      <use xlink:href="#ArialMT-6e" transform="translate(366.894531 0)"/>
      <use xlink:href="#ArialMT-64" transform="translate(422.509766 0)"/>
      <use xlink:href="#ArialMT-65" transform="translate(478.125 0)"/>
      <use xlink:href="#ArialMT-78" transform="translate(533.740234 0)"/>
     </g>
    </g>
   </g>
   <g id="matplotlib.axis_4">
    <g id="ytick_7">
     <g id="line2d_13">
      <path d="M 220.110469 206.46 
L 377.235469 206.46 
" clip-path="url(#p5bfc0a830c)" style="fill: none; stroke: #cccccc; stroke-linecap: round"/>
     </g>
    </g>
    <g id="ytick_8">
     <g id="line2d_14">
      <path d="M 220.110469 179.173747 
L 377.235469 179.173747 
" clip-path="url(#p5bfc0a830c)" style="fill: none; stroke: #cccccc; stroke-linecap: round"/>
     </g>
    </g>
    <g id="ytick_9">
     <g id="line2d_15">
      <path d="M 220.110469 151.887493 
L 377.235469 151.887493 
" clip-path="url(#p5bfc0a830c)" style="fill: none; stroke: #cccccc; stroke-linecap: round"/>
     </g>
    </g>
    <g id="ytick_10">
     <g id="line2d_16">
      <path d="M 220.110469 124.60124 
L 377.235469 124.60124 
" clip-path="url(#p5bfc0a830c)" style="fill: none; stroke: #cccccc; stroke-linecap: round"/>
     </g>
    </g>
    <g id="ytick_11">
     <g id="line2d_17">
      <path d="M 220.110469 97.314987 
L 377.235469 97.314987 
" clip-path="url(#p5bfc0a830c)" style="fill: none; stroke: #cccccc; stroke-linecap: round"/>
     </g>
    </g>
    <g id="ytick_12">
     <g id="line2d_18">
      <path d="M 220.110469 70.028733 
L 377.235469 70.028733 
" clip-path="url(#p5bfc0a830c)" style="fill: none; stroke: #cccccc; stroke-linecap: round"/>
     </g>
    </g>
   </g>
   <g id="patch_57">
    <path d="M 225.824105 206.46 
L 228.73806 206.46 
L 228.73806 66.48152 
L 225.824105 66.48152 
z
" clip-path="url(#p5bfc0a830c)" style="fill: #0060b1; fill-opacity: 0.7; stroke: #ffffff; stroke-width: 0.253636; stroke-linejoin: miter"/>
   </g>
   <g id="patch_58">
    <path d="M 228.73806 206.46 
L 231.652014 206.46 
L 231.652014 199.365574 
L 228.73806 199.365574 
z
" clip-path="url(#p5bfc0a830c)" style="fill: #0060b1; fill-opacity: 0.7; stroke: #ffffff; stroke-width: 0.253636; stroke-linejoin: miter"/>
   </g>
   <g id="patch_59">
    <path d="M 231.652014 206.46 
L 234.565969 206.46 
L 234.565969 200.457024 
L 231.652014 200.457024 
z
" clip-path="url(#p5bfc0a830c)" style="fill: #0060b1; fill-opacity: 0.7; stroke: #ffffff; stroke-width: 0.253636; stroke-linejoin: miter"/>
   </g>
   <g id="patch_60">
    <path d="M 234.565969 206.46 
L 237.479923 206.46 
L 237.479923 198.274124 
L 234.565969 198.274124 
z
" clip-path="url(#p5bfc0a830c)" style="fill: #0060b1; fill-opacity: 0.7; stroke: #ffffff; stroke-width: 0.253636; stroke-linejoin: miter"/>
   </g>
   <g id="patch_61">
    <path d="M 237.479923 206.46 
L 240.393878 206.46 
L 240.393878 201.275612 
L 237.479923 201.275612 
z
" clip-path="url(#p5bfc0a830c)" style="fill: #0060b1; fill-opacity: 0.7; stroke: #ffffff; stroke-width: 0.253636; stroke-linejoin: miter"/>
   </g>
   <g id="patch_62">
    <path d="M 240.393878 206.46 
L 243.307832 206.46 
L 243.307832 200.184162 
L 240.393878 200.184162 
z
" clip-path="url(#p5bfc0a830c)" style="fill: #0060b1; fill-opacity: 0.7; stroke: #ffffff; stroke-width: 0.253636; stroke-linejoin: miter"/>
   </g>
   <g id="patch_63">
    <path d="M 243.307832 206.46 
L 246.221787 206.46 
L 246.221787 199.911299 
L 243.307832 199.911299 
z
" clip-path="url(#p5bfc0a830c)" style="fill: #0060b1; fill-opacity: 0.7; stroke: #ffffff; stroke-width: 0.253636; stroke-linejoin: miter"/>
   </g>
   <g id="patch_64">
    <path d="M 246.221787 206.46 
L 249.135741 206.46 
L 249.135741 201.275612 
L 246.221787 201.275612 
z
" clip-path="url(#p5bfc0a830c)" style="fill: #0060b1; fill-opacity: 0.7; stroke: #ffffff; stroke-width: 0.253636; stroke-linejoin: miter"/>
   </g>
   <g id="patch_65">
    <path d="M 249.135741 206.46 
L 252.049696 206.46 
L 252.049696 199.911299 
L 249.135741 199.911299 
z
" clip-path="url(#p5bfc0a830c)" style="fill: #0060b1; fill-opacity: 0.7; stroke: #ffffff; stroke-width: 0.253636; stroke-linejoin: miter"/>
   </g>
   <g id="patch_66">
    <path d="M 252.049696 206.46 
L 254.963651 206.46 
L 254.963651 200.457024 
L 252.049696 200.457024 
z
" clip-path="url(#p5bfc0a830c)" style="fill: #0060b1; fill-opacity: 0.7; stroke: #ffffff; stroke-width: 0.253636; stroke-linejoin: miter"/>
   </g>
   <g id="patch_67">
    <path d="M 254.963651 206.46 
L 257.877605 206.46 
L 257.877605 198.546987 
L 254.963651 198.546987 
z
" clip-path="url(#p5bfc0a830c)" style="fill: #0060b1; fill-opacity: 0.7; stroke: #ffffff; stroke-width: 0.253636; stroke-linejoin: miter"/>
   </g>
   <g id="patch_68">
    <path d="M 257.877605 206.46 
L 260.79156 206.46 
L 260.79156 201.548474 
L 257.877605 201.548474 
z
" clip-path="url(#p5bfc0a830c)" style="fill: #0060b1; fill-opacity: 0.7; stroke: #ffffff; stroke-width: 0.253636; stroke-linejoin: miter"/>
   </g>
   <g id="patch_69">
    <path d="M 260.79156 206.46 
L 263.705514 206.46 
L 263.705514 203.18565 
L 260.79156 203.18565 
z
" clip-path="url(#p5bfc0a830c)" style="fill: #0060b1; fill-opacity: 0.7; stroke: #ffffff; stroke-width: 0.253636; stroke-linejoin: miter"/>
   </g>
   <g id="patch_70">
    <path d="M 263.705514 206.46 
L 266.619469 206.46 
L 266.619469 203.18565 
L 263.705514 203.18565 
z
" clip-path="url(#p5bfc0a830c)" style="fill: #0060b1; fill-opacity: 0.7; stroke: #ffffff; stroke-width: 0.253636; stroke-linejoin: miter"/>
   </g>
   <g id="patch_71">
    <path d="M 266.619469 206.46 
L 269.533423 206.46 
L 269.533423 202.639925 
L 266.619469 202.639925 
z
" clip-path="url(#p5bfc0a830c)" style="fill: #0060b1; fill-opacity: 0.7; stroke: #ffffff; stroke-width: 0.253636; stroke-linejoin: miter"/>
   </g>
   <g id="patch_72">
    <path d="M 269.533423 206.46 
L 272.447378 206.46 
L 272.447378 201.548474 
L 269.533423 201.548474 
z
" clip-path="url(#p5bfc0a830c)" style="fill: #0060b1; fill-opacity: 0.7; stroke: #ffffff; stroke-width: 0.253636; stroke-linejoin: miter"/>
   </g>
   <g id="patch_73">
    <path d="M 272.447378 206.46 
L 275.361332 206.46 
L 275.361332 202.912787 
L 272.447378 202.912787 
z
" clip-path="url(#p5bfc0a830c)" style="fill: #0060b1; fill-opacity: 0.7; stroke: #ffffff; stroke-width: 0.253636; stroke-linejoin: miter"/>
   </g>
   <g id="patch_74">
    <path d="M 275.361332 206.46 
L 278.275287 206.46 
L 278.275287 201.821337 
L 275.361332 201.821337 
z
" clip-path="url(#p5bfc0a830c)" style="fill: #0060b1; fill-opacity: 0.7; stroke: #ffffff; stroke-width: 0.253636; stroke-linejoin: miter"/>
   </g>
   <g id="patch_75">
    <path d="M 278.275287 206.46 
L 281.189241 206.46 
L 281.189241 203.458512 
L 278.275287 203.458512 
z
" clip-path="url(#p5bfc0a830c)" style="fill: #0060b1; fill-opacity: 0.7; stroke: #ffffff; stroke-width: 0.253636; stroke-linejoin: miter"/>
   </g>
   <g id="patch_76">
    <path d="M 281.189241 206.46 
L 284.103196 206.46 
L 284.103196 202.367062 
L 281.189241 202.367062 
z
" clip-path="url(#p5bfc0a830c)" style="fill: #0060b1; fill-opacity: 0.7; stroke: #ffffff; stroke-width: 0.253636; stroke-linejoin: miter"/>
   </g>
   <g id="patch_77">
    <path d="M 284.103196 206.46 
L 287.017151 206.46 
L 287.017151 204.004237 
L 284.103196 204.004237 
z
" clip-path="url(#p5bfc0a830c)" style="fill: #0060b1; fill-opacity: 0.7; stroke: #ffffff; stroke-width: 0.253636; stroke-linejoin: miter"/>
   </g>
   <g id="patch_78">
    <path d="M 287.017151 206.46 
L 289.931105 206.46 
L 289.931105 205.095687 
L 287.017151 205.095687 
z
" clip-path="url(#p5bfc0a830c)" style="fill: #0060b1; fill-opacity: 0.7; stroke: #ffffff; stroke-width: 0.253636; stroke-linejoin: miter"/>
   </g>
   <g id="patch_79">
    <path d="M 289.931105 206.46 
L 292.84506 206.46 
L 292.84506 203.458512 
L 289.931105 203.458512 
z
" clip-path="url(#p5bfc0a830c)" style="fill: #0060b1; fill-opacity: 0.7; stroke: #ffffff; stroke-width: 0.253636; stroke-linejoin: miter"/>
   </g>
   <g id="patch_80">
    <path d="M 292.84506 206.46 
L 295.759014 206.46 
L 295.759014 204.2771 
L 292.84506 204.2771 
z
" clip-path="url(#p5bfc0a830c)" style="fill: #0060b1; fill-opacity: 0.7; stroke: #ffffff; stroke-width: 0.253636; stroke-linejoin: miter"/>
   </g>
   <g id="patch_81">
    <path d="M 295.759014 206.46 
L 298.672969 206.46 
L 298.672969 203.458512 
L 295.759014 203.458512 
z
" clip-path="url(#p5bfc0a830c)" style="fill: #0060b1; fill-opacity: 0.7; stroke: #ffffff; stroke-width: 0.253636; stroke-linejoin: miter"/>
   </g>
   <g id="patch_82">
    <path d="M 298.672969 206.46 
L 301.586923 206.46 
L 301.586923 204.004237 
L 298.672969 204.004237 
z
" clip-path="url(#p5bfc0a830c)" style="fill: #0060b1; fill-opacity: 0.7; stroke: #ffffff; stroke-width: 0.253636; stroke-linejoin: miter"/>
   </g>
   <g id="patch_83">
    <path d="M 301.586923 206.46 
L 304.500878 206.46 
L 304.500878 204.549962 
L 301.586923 204.549962 
z
" clip-path="url(#p5bfc0a830c)" style="fill: #0060b1; fill-opacity: 0.7; stroke: #ffffff; stroke-width: 0.253636; stroke-linejoin: miter"/>
   </g>
   <g id="patch_84">
    <path d="M 304.500878 206.46 
L 307.414832 206.46 
L 307.414832 204.2771 
L 304.500878 204.2771 
z
" clip-path="url(#p5bfc0a830c)" style="fill: #0060b1; fill-opacity: 0.7; stroke: #ffffff; stroke-width: 0.253636; stroke-linejoin: miter"/>
   </g>
   <g id="patch_85">
    <path d="M 307.414832 206.46 
L 310.328787 206.46 
L 310.328787 204.549962 
L 307.414832 204.549962 
z
" clip-path="url(#p5bfc0a830c)" style="fill: #0060b1; fill-opacity: 0.7; stroke: #ffffff; stroke-width: 0.253636; stroke-linejoin: miter"/>
   </g>
   <g id="patch_86">
    <path d="M 310.328787 206.46 
L 313.242741 206.46 
L 313.242741 204.822825 
L 310.328787 204.822825 
z
" clip-path="url(#p5bfc0a830c)" style="fill: #0060b1; fill-opacity: 0.7; stroke: #ffffff; stroke-width: 0.253636; stroke-linejoin: miter"/>
   </g>
   <g id="patch_87">
    <path d="M 313.242741 206.46 
L 316.156696 206.46 
L 316.156696 204.2771 
L 313.242741 204.2771 
z
" clip-path="url(#p5bfc0a830c)" style="fill: #0060b1; fill-opacity: 0.7; stroke: #ffffff; stroke-width: 0.253636; stroke-linejoin: miter"/>
   </g>
   <g id="patch_88">
    <path d="M 316.156696 206.46 
L 319.070651 206.46 
L 319.070651 205.914275 
L 316.156696 205.914275 
z
" clip-path="url(#p5bfc0a830c)" style="fill: #0060b1; fill-opacity: 0.7; stroke: #ffffff; stroke-width: 0.253636; stroke-linejoin: miter"/>
   </g>
   <g id="patch_89">
    <path d="M 319.070651 206.46 
L 321.984605 206.46 
L 321.984605 206.187137 
L 319.070651 206.187137 
z
" clip-path="url(#p5bfc0a830c)" style="fill: #0060b1; fill-opacity: 0.7; stroke: #ffffff; stroke-width: 0.253636; stroke-linejoin: miter"/>
   </g>
   <g id="patch_90">
    <path d="M 321.984605 206.46 
L 324.89856 206.46 
L 324.89856 205.095687 
L 321.984605 205.095687 
z
" clip-path="url(#p5bfc0a830c)" style="fill: #0060b1; fill-opacity: 0.7; stroke: #ffffff; stroke-width: 0.253636; stroke-linejoin: miter"/>
   </g>
   <g id="patch_91">
    <path d="M 324.89856 206.46 
L 327.812514 206.46 
L 327.812514 205.641412 
L 324.89856 205.641412 
z
" clip-path="url(#p5bfc0a830c)" style="fill: #0060b1; fill-opacity: 0.7; stroke: #ffffff; stroke-width: 0.253636; stroke-linejoin: miter"/>
   </g>
   <g id="patch_92">
    <path d="M 327.812514 206.46 
L 330.726469 206.46 
L 330.726469 205.641412 
L 327.812514 205.641412 
z
" clip-path="url(#p5bfc0a830c)" style="fill: #0060b1; fill-opacity: 0.7; stroke: #ffffff; stroke-width: 0.253636; stroke-linejoin: miter"/>
   </g>
   <g id="patch_93">
    <path d="M 330.726469 206.46 
L 333.640423 206.46 
L 333.640423 205.914275 
L 330.726469 205.914275 
z
" clip-path="url(#p5bfc0a830c)" style="fill: #0060b1; fill-opacity: 0.7; stroke: #ffffff; stroke-width: 0.253636; stroke-linejoin: miter"/>
   </g>
   <g id="patch_94">
    <path d="M 333.640423 206.46 
L 336.554378 206.46 
L 336.554378 205.641412 
L 333.640423 205.641412 
z
" clip-path="url(#p5bfc0a830c)" style="fill: #0060b1; fill-opacity: 0.7; stroke: #ffffff; stroke-width: 0.253636; stroke-linejoin: miter"/>
   </g>
   <g id="patch_95">
    <path d="M 336.554378 206.46 
L 339.468332 206.46 
L 339.468332 206.46 
L 336.554378 206.46 
z
" clip-path="url(#p5bfc0a830c)" style="fill: #0060b1; fill-opacity: 0.7; stroke: #ffffff; stroke-width: 0.253636; stroke-linejoin: miter"/>
   </g>
   <g id="patch_96">
    <path d="M 339.468332 206.46 
L 342.382287 206.46 
L 342.382287 205.36855 
L 339.468332 205.36855 
z
" clip-path="url(#p5bfc0a830c)" style="fill: #0060b1; fill-opacity: 0.7; stroke: #ffffff; stroke-width: 0.253636; stroke-linejoin: miter"/>
   </g>
   <g id="patch_97">
    <path d="M 342.382287 206.46 
L 345.296241 206.46 
L 345.296241 205.914275 
L 342.382287 205.914275 
z
" clip-path="url(#p5bfc0a830c)" style="fill: #0060b1; fill-opacity: 0.7; stroke: #ffffff; stroke-width: 0.253636; stroke-linejoin: miter"/>
   </g>
   <g id="patch_98">
    <path d="M 345.296241 206.46 
L 348.210196 206.46 
L 348.210196 205.641412 
L 345.296241 205.641412 
z
" clip-path="url(#p5bfc0a830c)" style="fill: #0060b1; fill-opacity: 0.7; stroke: #ffffff; stroke-width: 0.253636; stroke-linejoin: miter"/>
   </g>
   <g id="patch_99">
    <path d="M 348.210196 206.46 
L 351.124151 206.46 
L 351.124151 206.187137 
L 348.210196 206.187137 
z
" clip-path="url(#p5bfc0a830c)" style="fill: #0060b1; fill-opacity: 0.7; stroke: #ffffff; stroke-width: 0.253636; stroke-linejoin: miter"/>
   </g>
   <g id="patch_100">
    <path d="M 351.124151 206.46 
L 354.038105 206.46 
L 354.038105 206.46 
L 351.124151 206.46 
z
" clip-path="url(#p5bfc0a830c)" style="fill: #0060b1; fill-opacity: 0.7; stroke: #ffffff; stroke-width: 0.253636; stroke-linejoin: miter"/>
   </g>
   <g id="patch_101">
    <path d="M 354.038105 206.46 
L 356.95206 206.46 
L 356.95206 206.46 
L 354.038105 206.46 
z
" clip-path="url(#p5bfc0a830c)" style="fill: #0060b1; fill-opacity: 0.7; stroke: #ffffff; stroke-width: 0.253636; stroke-linejoin: miter"/>
   </g>
   <g id="patch_102">
    <path d="M 356.95206 206.46 
L 359.866014 206.46 
L 359.866014 206.46 
L 356.95206 206.46 
z
" clip-path="url(#p5bfc0a830c)" style="fill: #0060b1; fill-opacity: 0.7; stroke: #ffffff; stroke-width: 0.253636; stroke-linejoin: miter"/>
   </g>
   <g id="patch_103">
    <path d="M 359.866014 206.46 
L 362.779969 206.46 
L 362.779969 206.46 
L 359.866014 206.46 
z
" clip-path="url(#p5bfc0a830c)" style="fill: #0060b1; fill-opacity: 0.7; stroke: #ffffff; stroke-width: 0.253636; stroke-linejoin: miter"/>
   </g>
   <g id="patch_104">
    <path d="M 362.779969 206.46 
L 365.693923 206.46 
L 365.693923 206.46 
L 362.779969 206.46 
z
" clip-path="url(#p5bfc0a830c)" style="fill: #0060b1; fill-opacity: 0.7; stroke: #ffffff; stroke-width: 0.253636; stroke-linejoin: miter"/>
   </g>
   <g id="patch_105">
    <path d="M 365.693923 206.46 
L 368.607878 206.46 
L 368.607878 206.46 
L 365.693923 206.46 
z
" clip-path="url(#p5bfc0a830c)" style="fill: #0060b1; fill-opacity: 0.7; stroke: #ffffff; stroke-width: 0.253636; stroke-linejoin: miter"/>
   </g>
   <g id="patch_106">
    <path d="M 368.607878 206.46 
L 371.521832 206.46 
L 371.521832 206.187137 
L 368.607878 206.187137 
z
" clip-path="url(#p5bfc0a830c)" style="fill: #0060b1; fill-opacity: 0.7; stroke: #ffffff; stroke-width: 0.253636; stroke-linejoin: miter"/>
   </g>
   <g id="patch_107">
    <path d="M 220.110469 206.46 
L 220.110469 54.612 
" style="fill: none; stroke: #cccccc; stroke-width: 1.25; stroke-linejoin: miter; stroke-linecap: square"/>
   </g>
   <g id="patch_108">
    <path d="M 220.110469 206.46 
L 377.235469 206.46 
" style="fill: none; stroke: #cccccc; stroke-width: 1.25; stroke-linejoin: miter; stroke-linecap: square"/>
   </g>
   <g id="text_18">
    <!-- Asymmetric (Unsigned Int8) -->
    <g style="fill: #262626" transform="translate(255.496094 41.023781) scale(0.07 -0.07)">
     <defs>
      <path id="ArialMT-41" d="M -9 0 
L 1750 4581 
L 2403 4581 
L 4278 0 
L 3588 0 
L 3053 1388 
L 1138 1388 
L 634 0 
L -9 0 
z
M 1313 1881 
L 2866 1881 
L 2388 3150 
Q 2169 3728 2063 4100 
Q 1975 3659 1816 3225 
L 1313 1881 
z
" transform="scale(0.015625)"/>
      <path id="ArialMT-73" d="M 197 991 
L 753 1078 
Q 800 744 1014 566 
Q 1228 388 1613 388 
Q 2000 388 2187 545 
Q 2375 703 2375 916 
Q 2375 1106 2209 1216 
Q 2094 1291 1634 1406 
Q 1016 1563 777 1677 
Q 538 1791 414 1992 
Q 291 2194 291 2438 
Q 291 2659 392 2848 
Q 494 3038 669 3163 
Q 800 3259 1026 3326 
Q 1253 3394 1513 3394 
Q 1903 3394 2198 3281 
Q 2494 3169 2634 2976 
Q 2775 2784 2828 2463 
L 2278 2388 
Q 2241 2644 2061 2787 
Q 1881 2931 1553 2931 
Q 1166 2931 1000 2803 
Q 834 2675 834 2503 
Q 834 2394 903 2306 
Q 972 2216 1119 2156 
Q 1203 2125 1616 2013 
Q 2213 1853 2448 1751 
Q 2684 1650 2818 1456 
Q 2953 1263 2953 975 
Q 2953 694 2789 445 
Q 2625 197 2315 61 
Q 2006 -75 1616 -75 
Q 969 -75 630 194 
Q 291 463 197 991 
z
" transform="scale(0.015625)"/>
      <path id="ArialMT-55" d="M 3500 4581 
L 4106 4581 
L 4106 1934 
Q 4106 1244 3950 837 
Q 3794 431 3386 176 
Q 2978 -78 2316 -78 
Q 1672 -78 1262 144 
Q 853 366 678 786 
Q 503 1206 503 1934 
L 503 4581 
L 1109 4581 
L 1109 1938 
Q 1109 1341 1220 1058 
Q 1331 775 1601 622 
Q 1872 469 2263 469 
Q 2931 469 3215 772 
Q 3500 1075 3500 1938 
L 3500 4581 
z
" transform="scale(0.015625)"/>
     </defs>
     <use xlink:href="#ArialMT-41"/>
     <use xlink:href="#ArialMT-73" transform="translate(66.699219 0)"/>
     <use xlink:href="#ArialMT-79" transform="translate(116.699219 0)"/>
     <use xlink:href="#ArialMT-6d" transform="translate(166.699219 0)"/>
     <use xlink:href="#ArialMT-6d" transform="translate(250 0)"/>
     <use xlink:href="#ArialMT-65" transform="translate(333.300781 0)"/>
     <use xlink:href="#ArialMT-74" transform="translate(388.916016 0)"/>
     <use xlink:href="#ArialMT-72" transform="translate(416.699219 0)"/>
     <use xlink:href="#ArialMT-69" transform="translate(450 0)"/>
     <use xlink:href="#ArialMT-63" transform="translate(472.216797 0)"/>
     <use xlink:href="#ArialMT-20" transform="translate(522.216797 0)"/>
     <use xlink:href="#ArialMT-28" transform="translate(550 0)"/>
     <use xlink:href="#ArialMT-55" transform="translate(583.300781 0)"/>
     <use xlink:href="#ArialMT-6e" transform="translate(655.517578 0)"/>
     <use xlink:href="#ArialMT-73" transform="translate(711.132812 0)"/>
     <use xlink:href="#ArialMT-69" transform="translate(761.132812 0)"/>
     <use xlink:href="#ArialMT-67" transform="translate(783.349609 0)"/>
     <use xlink:href="#ArialMT-6e" transform="translate(838.964844 0)"/>
     <use xlink:href="#ArialMT-65" transform="translate(894.580078 0)"/>
     <use xlink:href="#ArialMT-64" transform="translate(950.195312 0)"/>
     <use xlink:href="#ArialMT-20" transform="translate(1005.810547 0)"/>
     <use xlink:href="#ArialMT-49" transform="translate(1033.59375 0)"/>
     <use xlink:href="#ArialMT-6e" transform="translate(1061.376953 0)"/>
     <use xlink:href="#ArialMT-74" transform="translate(1116.992188 0)"/>
     <use xlink:href="#ArialMT-38" transform="translate(1144.775391 0)"/>
     <use xlink:href="#ArialMT-29" transform="translate(1200.390625 0)"/>
    </g>
    <!-- Range: [0, 255] | Z=0 -->
    <g style="fill: #262626" transform="translate(265.758203 48.612) scale(0.07 -0.07)">
     <use xlink:href="#ArialMT-52"/>
     <use xlink:href="#ArialMT-61" transform="translate(72.216797 0)"/>
     <use xlink:href="#ArialMT-6e" transform="translate(127.832031 0)"/>
     <use xlink:href="#ArialMT-67" transform="translate(183.447266 0)"/>
     <use xlink:href="#ArialMT-65" transform="translate(239.0625 0)"/>
     <use xlink:href="#ArialMT-3a" transform="translate(294.677734 0)"/>
     <use xlink:href="#ArialMT-20" transform="translate(322.460938 0)"/>
     <use xlink:href="#ArialMT-5b" transform="translate(350.244141 0)"/>
     <use xlink:href="#ArialMT-30" transform="translate(378.027344 0)"/>
     <use xlink:href="#ArialMT-2c" transform="translate(433.642578 0)"/>
     <use xlink:href="#ArialMT-20" transform="translate(461.425781 0)"/>
     <use xlink:href="#ArialMT-32" transform="translate(489.208984 0)"/>
     <use xlink:href="#ArialMT-35" transform="translate(544.824219 0)"/>
     <use xlink:href="#ArialMT-35" transform="translate(600.439453 0)"/>
     <use xlink:href="#ArialMT-5d" transform="translate(656.054688 0)"/>
     <use xlink:href="#ArialMT-20" transform="translate(683.837891 0)"/>
     <use xlink:href="#ArialMT-7c" transform="translate(711.621094 0)"/>
     <use xlink:href="#ArialMT-20" transform="translate(737.597656 0)"/>
     <use xlink:href="#ArialMT-5a" transform="translate(765.380859 0)"/>
     <use xlink:href="#ArialMT-3d" transform="translate(826.464844 0)"/>
     <use xlink:href="#ArialMT-30" transform="translate(884.863281 0)"/>
    </g>
   </g>
  </g>
  <g id="text_19">
   <!-- Comparison: ReLU Activations (Skewed/Positive) -->
   <g style="fill: #262626" transform="translate(98.331719 13.02375) scale(0.08 -0.08)">
    <defs>
     <path id="Arial-BoldMT-6f" d="M 256 1706 
Q 256 2144 472 2553 
Q 688 2963 1083 3178 
Q 1478 3394 1966 3394 
Q 2719 3394 3200 2905 
Q 3681 2416 3681 1669 
Q 3681 916 3195 420 
Q 2709 -75 1972 -75 
Q 1516 -75 1102 131 
Q 688 338 472 736 
Q 256 1134 256 1706 
z
M 1156 1659 
Q 1156 1166 1390 903 
Q 1625 641 1969 641 
Q 2313 641 2545 903 
Q 2778 1166 2778 1666 
Q 2778 2153 2545 2415 
Q 2313 2678 1969 2678 
Q 1625 2678 1390 2415 
Q 1156 2153 1156 1659 
z
" transform="scale(0.015625)"/>
     <path id="Arial-BoldMT-6d" d="M 394 3319 
L 1203 3319 
L 1203 2866 
Q 1638 3394 2238 3394 
Q 2556 3394 2790 3262 
Q 3025 3131 3175 2866 
Q 3394 3131 3647 3262 
Q 3900 3394 4188 3394 
Q 4553 3394 4806 3245 
Q 5059 3097 5184 2809 
Q 5275 2597 5275 2122 
L 5275 0 
L 4397 0 
L 4397 1897 
Q 4397 2391 4306 2534 
Q 4184 2722 3931 2722 
Q 3747 2722 3584 2609 
Q 3422 2497 3350 2280 
Q 3278 2063 3278 1594 
L 3278 0 
L 2400 0 
L 2400 1819 
Q 2400 2303 2353 2443 
Q 2306 2584 2207 2653 
Q 2109 2722 1941 2722 
Q 1738 2722 1575 2612 
Q 1413 2503 1342 2297 
Q 1272 2091 1272 1613 
L 1272 0 
L 394 0 
L 394 3319 
z
" transform="scale(0.015625)"/>
     <path id="Arial-BoldMT-69" d="M 459 3769 
L 459 4581 
L 1338 4581 
L 1338 3769 
L 459 3769 
z
M 459 0 
L 459 3319 
L 1338 3319 
L 1338 0 
L 459 0 
z
" transform="scale(0.015625)"/>
     <path id="Arial-BoldMT-73" d="M 150 947 
L 1031 1081 
Q 1088 825 1259 692 
Q 1431 559 1741 559 
Q 2081 559 2253 684 
Q 2369 772 2369 919 
Q 2369 1019 2306 1084 
Q 2241 1147 2013 1200 
Q 950 1434 666 1628 
Q 272 1897 272 2375 
Q 272 2806 612 3100 
Q 953 3394 1669 3394 
Q 2350 3394 2681 3172 
Q 3013 2950 3138 2516 
L 2309 2363 
Q 2256 2556 2107 2659 
Q 1959 2763 1684 2763 
Q 1338 2763 1188 2666 
Q 1088 2597 1088 2488 
Q 1088 2394 1175 2328 
Q 1294 2241 1995 2081 
Q 2697 1922 2975 1691 
Q 3250 1456 3250 1038 
Q 3250 581 2869 253 
Q 2488 -75 1741 -75 
Q 1063 -75 667 200 
Q 272 475 150 947 
z
" transform="scale(0.015625)"/>
     <path id="Arial-BoldMT-6e" d="M 3478 0 
L 2600 0 
L 2600 1694 
Q 2600 2231 2544 2389 
Q 2488 2547 2361 2634 
Q 2234 2722 2056 2722 
Q 1828 2722 1647 2597 
Q 1466 2472 1398 2265 
Q 1331 2059 1331 1503 
L 1331 0 
L 453 0 
L 453 3319 
L 1269 3319 
L 1269 2831 
Q 1703 3394 2363 3394 
Q 2653 3394 2893 3289 
Q 3134 3184 3257 3021 
Q 3381 2859 3429 2653 
Q 3478 2447 3478 2063 
L 3478 0 
z
" transform="scale(0.015625)"/>
     <path id="Arial-BoldMT-3a" d="M 628 2441 
L 628 3319 
L 1506 3319 
L 1506 2441 
L 628 2441 
z
M 628 0 
L 628 878 
L 1506 878 
L 1506 0 
L 628 0 
z
" transform="scale(0.015625)"/>
     <path id="Arial-BoldMT-63" d="M 3353 2338 
L 2488 2181 
Q 2444 2441 2289 2572 
Q 2134 2703 1888 2703 
Q 1559 2703 1364 2476 
Q 1169 2250 1169 1719 
Q 1169 1128 1367 884 
Q 1566 641 1900 641 
Q 2150 641 2309 783 
Q 2469 925 2534 1272 
L 3397 1125 
Q 3263 531 2881 228 
Q 2500 -75 1859 -75 
Q 1131 -75 698 384 
Q 266 844 266 1656 
Q 266 2478 700 2936 
Q 1134 3394 1875 3394 
Q 2481 3394 2839 3133 
Q 3197 2872 3353 2338 
z
" transform="scale(0.015625)"/>
     <path id="Arial-BoldMT-74" d="M 1981 3319 
L 1981 2619 
L 1381 2619 
L 1381 1281 
Q 1381 875 1398 808 
Q 1416 741 1477 697 
Q 1538 653 1625 653 
Q 1747 653 1978 738 
L 2053 56 
Q 1747 -75 1359 -75 
Q 1122 -75 931 4 
Q 741 84 652 211 
Q 563 338 528 553 
Q 500 706 500 1172 
L 500 2619 
L 97 2619 
L 97 3319 
L 500 3319 
L 500 3978 
L 1381 4491 
L 1381 3319 
L 1981 3319 
z
" transform="scale(0.015625)"/>
     <path id="Arial-BoldMT-76" d="M 1372 0 
L 34 3319 
L 956 3319 
L 1581 1625 
L 1763 1059 
Q 1834 1275 1853 1344 
Q 1897 1484 1947 1625 
L 2578 3319 
L 3481 3319 
L 2163 0 
L 1372 0 
z
" transform="scale(0.015625)"/>
     <path id="Arial-BoldMT-6b" d="M 428 0 
L 428 4581 
L 1306 4581 
L 1306 2150 
L 2334 3319 
L 3416 3319 
L 2281 2106 
L 3497 0 
L 2550 0 
L 1716 1491 
L 1306 1063 
L 1306 0 
L 428 0 
z
" transform="scale(0.015625)"/>
     <path id="Arial-BoldMT-77" d="M 1078 0 
L 28 3319 
L 881 3319 
L 1503 1144 
L 2075 3319 
L 2922 3319 
L 3475 1144 
L 4109 3319 
L 4975 3319 
L 3909 0 
L 3066 0 
L 2494 2134 
L 1931 0 
L 1078 0 
z
" transform="scale(0.015625)"/>
     <path id="Arial-BoldMT-64" d="M 3503 0 
L 2688 0 
L 2688 488 
Q 2484 203 2207 64 
Q 1931 -75 1650 -75 
Q 1078 -75 670 386 
Q 263 847 263 1672 
Q 263 2516 659 2955 
Q 1056 3394 1663 3394 
Q 2219 3394 2625 2931 
L 2625 4581 
L 3503 4581 
L 3503 0 
z
M 1159 1731 
Q 1159 1200 1306 963 
Q 1519 619 1900 619 
Q 2203 619 2415 876 
Q 2628 1134 2628 1647 
Q 2628 2219 2422 2470 
Q 2216 2722 1894 2722 
Q 1581 2722 1370 2473 
Q 1159 2225 1159 1731 
z
" transform="scale(0.015625)"/>
     <path id="Arial-BoldMT-2f" d="M -9 -78 
L 1125 4659 
L 1784 4659 
L 638 -78 
L -9 -78 
z
" transform="scale(0.015625)"/>
    </defs>
    <use xlink:href="#Arial-BoldMT-43"/>
    <use xlink:href="#Arial-BoldMT-6f" transform="translate(72.216797 0)"/>
    <use xlink:href="#Arial-BoldMT-6d" transform="translate(133.300781 0)"/>
    <use xlink:href="#Arial-BoldMT-70" transform="translate(222.216797 0)"/>
    <use xlink:href="#Arial-BoldMT-61" transform="translate(283.300781 0)"/>
    <use xlink:href="#Arial-BoldMT-72" transform="translate(338.916016 0)"/>
    <use xlink:href="#Arial-BoldMT-69" transform="translate(377.832031 0)"/>
    <use xlink:href="#Arial-BoldMT-73" transform="translate(405.615234 0)"/>
    <use xlink:href="#Arial-BoldMT-6f" transform="translate(461.230469 0)"/>
    <use xlink:href="#Arial-BoldMT-6e" transform="translate(522.314453 0)"/>
    <use xlink:href="#Arial-BoldMT-3a" transform="translate(583.398438 0)"/>
    <use xlink:href="#Arial-BoldMT-20" transform="translate(616.699219 0)"/>
    <use xlink:href="#Arial-BoldMT-52" transform="translate(644.482422 0)"/>
    <use xlink:href="#Arial-BoldMT-65" transform="translate(716.699219 0)"/>
    <use xlink:href="#Arial-BoldMT-4c" transform="translate(772.314453 0)"/>
    <use xlink:href="#Arial-BoldMT-55" transform="translate(833.398438 0)"/>
    <use xlink:href="#Arial-BoldMT-20" transform="translate(905.615234 0)"/>
    <use xlink:href="#Arial-BoldMT-41" transform="translate(929.648438 0)"/>
    <use xlink:href="#Arial-BoldMT-63" transform="translate(1001.865234 0)"/>
    <use xlink:href="#Arial-BoldMT-74" transform="translate(1057.480469 0)"/>
    <use xlink:href="#Arial-BoldMT-69" transform="translate(1090.78125 0)"/>
    <use xlink:href="#Arial-BoldMT-76" transform="translate(1118.564453 0)"/>
    <use xlink:href="#Arial-BoldMT-61" transform="translate(1174.179688 0)"/>
    <use xlink:href="#Arial-BoldMT-74" transform="translate(1229.794922 0)"/>
    <use xlink:href="#Arial-BoldMT-69" transform="translate(1263.095703 0)"/>
    <use xlink:href="#Arial-BoldMT-6f" transform="translate(1290.878906 0)"/>
    <use xlink:href="#Arial-BoldMT-6e" transform="translate(1351.962891 0)"/>
    <use xlink:href="#Arial-BoldMT-73" transform="translate(1413.046875 0)"/>
    <use xlink:href="#Arial-BoldMT-20" transform="translate(1468.662109 0)"/>
    <use xlink:href="#Arial-BoldMT-28" transform="translate(1496.445312 0)"/>
    <use xlink:href="#Arial-BoldMT-53" transform="translate(1529.746094 0)"/>
    <use xlink:href="#Arial-BoldMT-6b" transform="translate(1596.445312 0)"/>
    <use xlink:href="#Arial-BoldMT-65" transform="translate(1652.060547 0)"/>
    <use xlink:href="#Arial-BoldMT-77" transform="translate(1707.675781 0)"/>
    <use xlink:href="#Arial-BoldMT-65" transform="translate(1785.458984 0)"/>
    <use xlink:href="#Arial-BoldMT-64" transform="translate(1841.074219 0)"/>
    <use xlink:href="#Arial-BoldMT-2f" transform="translate(1902.158203 0)"/>
    <use xlink:href="#Arial-BoldMT-50" transform="translate(1929.941406 0)"/>
    <use xlink:href="#Arial-BoldMT-6f" transform="translate(1996.640625 0)"/>
    <use xlink:href="#Arial-BoldMT-73" transform="translate(2057.724609 0)"/>
    <use xlink:href="#Arial-BoldMT-69" transform="translate(2113.339844 0)"/>
    <use xlink:href="#Arial-BoldMT-74" transform="translate(2141.123047 0)"/>
    <use xlink:href="#Arial-BoldMT-69" transform="translate(2174.423828 0)"/>
    <use xlink:href="#Arial-BoldMT-76" transform="translate(2202.207031 0)"/>
    <use xlink:href="#Arial-BoldMT-65" transform="translate(2257.822266 0)"/>
    <use xlink:href="#Arial-BoldMT-29" transform="translate(2313.4375 0)"/>
   </g>
  </g>
 </g>
 <defs>
  <clipPath id="p1c0769a692">
   <rect x="50.025469" y="54.612" width="157.125" height="151.848"/>
  </clipPath>
  <clipPath id="p5bfc0a830c">
   <rect x="220.110469" y="54.612" width="157.125" height="151.848"/>
  </clipPath>
 </defs>
 <defs>
  <pattern id="h16c291c4da" patternUnits="userSpaceOnUse" x="0" y="0" width="72" height="72">
   <rect x="0" y="0" width="73" height="73" fill="#f9cbcd"/>
   <path d="M -36 36 
L 36 -36 
M -32 40 
L 40 -32 
M -28 44 
L 44 -28 
M -24 48 
L 48 -24 
M -20 52 
L 52 -20 
M -16 56 
L 56 -16 
M -12 60 
L 60 -12 
M -8 64 
L 64 -8 
M -4 68 
L 68 -4 
M 0 72 
L 72 0 
M 4 76 
L 76 4 
M 8 80 
L 80 8 
M 12 84 
L 84 12 
M 16 88 
L 88 16 
M 20 92 
L 92 20 
M 24 96 
L 96 24 
M 28 100 
L 100 28 
M 32 104 
L 104 32 
M 36 108 
L 108 36 
" style="fill: #d31518; stroke: #d31518; stroke-width: 1.0; stroke-linecap: butt; stroke-linejoin: miter; stroke-opacity: 0.3"/>
  </pattern>
 </defs>
</svg>
