<?xml version="1.0" encoding="utf-8" standalone="no"?>
<!DOCTYPE svg PUBLIC "-//W3C//DTD SVG 1.1//EN"
  "http://www.w3.org/Graphics/SVG/1.1/DTD/svg11.dtd">
<svg xmlns:xlink="http://www.w3.org/1999/xlink" width="384.41767pt" height="132.057094pt" viewBox="0 0 384.41767 132.057094" xmlns="http://www.w3.org/2000/svg" version="1.1">
 <metadata>
  <rdf:RDF xmlns:dc="http://purl.org/dc/elements/1.1/" xmlns:cc="http://creativecommons.org/ns#" xmlns:rdf="http://www.w3.org/1999/02/22-rdf-syntax-ns#">
   <cc:Work>
    <dc:type rdf:resource="http://purl.org/dc/dcmitype/StillImage"/>
    <dc:date>2026-01-29T00:07:57.613773</dc:date>
    <dc:format>image/svg+xml</dc:format>
    <dc:creator>
     <cc:Agent>
      <dc:title>Matplotlib v3.10.8, https://matplotlib.org/</dc:title>
     </cc:Agent>
    </dc:creator>
   </cc:Work>
  </rdf:RDF>
 </metadata>
 <defs>
  <style type="text/css">*{stroke-linejoin: round; stroke-linecap: butt}</style>
 </defs>
 <g id="figure_1">
  <g id="patch_1">
   <path d="M 0 132.057094 
L 384.41767 132.057094 
L 384.41767 0 
L 0 0 
z
" style="fill: #ffffff"/>
  </g>
  <g id="axes_1">
   <g id="patch_2">
    <path d="M 7.2 90.036 
L 377.21767 90.036 
L 377.21767 27.696 
L 7.2 27.696 
z
" style="fill: #ffffff"/>
   </g>
   <g id="matplotlib.axis_1">
    <g id="xtick_1">
     <g id="line2d_1">
      <path d="M 16.330081 90.036 
L 16.330081 27.696 
" clip-path="url(#pa92d385e20)" style="fill: none; stroke: #cccccc; stroke-linecap: round"/>
     </g>
     <g id="text_1">
      <!-- 0.0 -->
      <g style="fill: #262626" transform="translate(8.685081 107.409594) scale(0.11 -0.11)">
       <defs>
        <path id="ArialMT-30" d="M 266 2259 
Q 266 3072 433 3567 
Q 600 4063 929 4331 
Q 1259 4600 1759 4600 
Q 2128 4600 2406 4451 
Q 2684 4303 2865 4023 
Q 3047 3744 3150 3342 
Q 3253 2941 3253 2259 
Q 3253 1453 3087 958 
Q 2922 463 2592 192 
Q 2263 -78 1759 -78 
Q 1097 -78 719 397 
Q 266 969 266 2259 
z
M 844 2259 
Q 844 1131 1108 757 
Q 1372 384 1759 384 
Q 2147 384 2411 759 
Q 2675 1134 2675 2259 
Q 2675 3391 2411 3762 
Q 2147 4134 1753 4134 
Q 1366 4134 1134 3806 
Q 844 3388 844 2259 
z
" transform="scale(0.015625)"/>
        <path id="ArialMT-2e" d="M 581 0 
L 581 641 
L 1222 641 
L 1222 0 
L 581 0 
z
" transform="scale(0.015625)"/>
       </defs>
       <use xlink:href="#ArialMT-30"/>
       <use xlink:href="#ArialMT-2e" transform="translate(55.615234 0)"/>
       <use xlink:href="#ArialMT-30" transform="translate(83.398438 0)"/>
      </g>
     </g>
    </g>
    <g id="xtick_2">
     <g id="line2d_2">
      <path d="M 61.980486 90.036 
L 61.980486 27.696 
" clip-path="url(#pa92d385e20)" style="fill: none; stroke: #cccccc; stroke-linecap: round"/>
     </g>
     <g id="text_2">
      <!-- 0.5 -->
      <g style="fill: #262626" transform="translate(54.335486 107.409594) scale(0.11 -0.11)">
       <defs>
        <path id="ArialMT-35" d="M 266 1200 
L 856 1250 
Q 922 819 1161 601 
Q 1400 384 1738 384 
Q 2144 384 2425 690 
Q 2706 997 2706 1503 
Q 2706 1984 2436 2262 
Q 2166 2541 1728 2541 
Q 1456 2541 1237 2417 
Q 1019 2294 894 2097 
L 366 2166 
L 809 4519 
L 3088 4519 
L 3088 3981 
L 1259 3981 
L 1013 2750 
Q 1425 3038 1878 3038 
Q 2478 3038 2890 2622 
Q 3303 2206 3303 1553 
Q 3303 931 2941 478 
Q 2500 -78 1738 -78 
Q 1113 -78 717 272 
Q 322 622 266 1200 
z
" transform="scale(0.015625)"/>
       </defs>
       <use xlink:href="#ArialMT-30"/>
       <use xlink:href="#ArialMT-2e" transform="translate(55.615234 0)"/>
       <use xlink:href="#ArialMT-35" transform="translate(83.398438 0)"/>
      </g>
     </g>
    </g>
    <g id="xtick_3">
     <g id="line2d_3">
      <path d="M 107.630892 90.036 
L 107.630892 27.696 
" clip-path="url(#pa92d385e20)" style="fill: none; stroke: #cccccc; stroke-linecap: round"/>
     </g>
     <g id="text_3">
      <!-- 1.0 -->
      <g style="fill: #262626" transform="translate(99.985892 107.409594) scale(0.11 -0.11)">
       <defs>
        <path id="ArialMT-31" d="M 2384 0 
L 1822 0 
L 1822 3584 
Q 1619 3391 1289 3197 
Q 959 3003 697 2906 
L 697 3450 
Q 1169 3672 1522 3987 
Q 1875 4303 2022 4600 
L 2384 4600 
L 2384 0 
z
" transform="scale(0.015625)"/>
       </defs>
       <use xlink:href="#ArialMT-31"/>
       <use xlink:href="#ArialMT-2e" transform="translate(55.615234 0)"/>
       <use xlink:href="#ArialMT-30" transform="translate(83.398438 0)"/>
      </g>
     </g>
    </g>
    <g id="xtick_4">
     <g id="line2d_4">
      <path d="M 153.281297 90.036 
L 153.281297 27.696 
" clip-path="url(#pa92d385e20)" style="fill: none; stroke: #cccccc; stroke-linecap: round"/>
     </g>
     <g id="text_4">
      <!-- 1.5 -->
      <g style="fill: #262626" transform="translate(145.636297 107.409594) scale(0.11 -0.11)">
       <use xlink:href="#ArialMT-31"/>
       <use xlink:href="#ArialMT-2e" transform="translate(55.615234 0)"/>
       <use xlink:href="#ArialMT-35" transform="translate(83.398438 0)"/>
      </g>
     </g>
    </g>
    <g id="xtick_5">
     <g id="line2d_5">
      <path d="M 198.931702 90.036 
L 198.931702 27.696 
" clip-path="url(#pa92d385e20)" style="fill: none; stroke: #cccccc; stroke-linecap: round"/>
     </g>
     <g id="text_5">
      <!-- 2.0 -->
      <g style="fill: #262626" transform="translate(191.286702 107.409594) scale(0.11 -0.11)">
       <defs>
        <path id="ArialMT-32" d="M 3222 541 
L 3222 0 
L 194 0 
Q 188 203 259 391 
Q 375 700 629 1000 
Q 884 1300 1366 1694 
Q 2113 2306 2375 2664 
Q 2638 3022 2638 3341 
Q 2638 3675 2398 3904 
Q 2159 4134 1775 4134 
Q 1369 4134 1125 3890 
Q 881 3647 878 3216 
L 300 3275 
Q 359 3922 746 4261 
Q 1134 4600 1788 4600 
Q 2447 4600 2831 4234 
Q 3216 3869 3216 3328 
Q 3216 3053 3103 2787 
Q 2991 2522 2730 2228 
Q 2469 1934 1863 1422 
Q 1356 997 1212 845 
Q 1069 694 975 541 
L 3222 541 
z
" transform="scale(0.015625)"/>
       </defs>
       <use xlink:href="#ArialMT-32"/>
       <use xlink:href="#ArialMT-2e" transform="translate(55.615234 0)"/>
       <use xlink:href="#ArialMT-30" transform="translate(83.398438 0)"/>
      </g>
     </g>
    </g>
    <g id="xtick_6">
     <g id="line2d_6">
      <path d="M 244.582108 90.036 
L 244.582108 27.696 
" clip-path="url(#pa92d385e20)" style="fill: none; stroke: #cccccc; stroke-linecap: round"/>
     </g>
     <g id="text_6">
      <!-- 2.5 -->
      <g style="fill: #262626" transform="translate(236.937108 107.409594) scale(0.11 -0.11)">
       <use xlink:href="#ArialMT-32"/>
       <use xlink:href="#ArialMT-2e" transform="translate(55.615234 0)"/>
       <use xlink:href="#ArialMT-35" transform="translate(83.398438 0)"/>
      </g>
     </g>
    </g>
    <g id="xtick_7">
     <g id="line2d_7">
      <path d="M 290.232513 90.036 
L 290.232513 27.696 
" clip-path="url(#pa92d385e20)" style="fill: none; stroke: #cccccc; stroke-linecap: round"/>
     </g>
     <g id="text_7">
      <!-- 3.0 -->
      <g style="fill: #262626" transform="translate(282.587513 107.409594) scale(0.11 -0.11)">
       <defs>
        <path id="ArialMT-33" d="M 269 1209 
L 831 1284 
Q 928 806 1161 595 
Q 1394 384 1728 384 
Q 2125 384 2398 659 
Q 2672 934 2672 1341 
Q 2672 1728 2419 1979 
Q 2166 2231 1775 2231 
Q 1616 2231 1378 2169 
L 1441 2663 
Q 1497 2656 1531 2656 
Q 1891 2656 2178 2843 
Q 2466 3031 2466 3422 
Q 2466 3731 2256 3934 
Q 2047 4138 1716 4138 
Q 1388 4138 1169 3931 
Q 950 3725 888 3313 
L 325 3413 
Q 428 3978 793 4289 
Q 1159 4600 1703 4600 
Q 2078 4600 2393 4439 
Q 2709 4278 2876 4000 
Q 3044 3722 3044 3409 
Q 3044 3113 2884 2869 
Q 2725 2625 2413 2481 
Q 2819 2388 3044 2092 
Q 3269 1797 3269 1353 
Q 3269 753 2831 336 
Q 2394 -81 1725 -81 
Q 1122 -81 723 278 
Q 325 638 269 1209 
z
" transform="scale(0.015625)"/>
       </defs>
       <use xlink:href="#ArialMT-33"/>
       <use xlink:href="#ArialMT-2e" transform="translate(55.615234 0)"/>
       <use xlink:href="#ArialMT-30" transform="translate(83.398438 0)"/>
      </g>
     </g>
    </g>
    <g id="xtick_8">
     <g id="line2d_8">
      <path d="M 335.882918 90.036 
L 335.882918 27.696 
" clip-path="url(#pa92d385e20)" style="fill: none; stroke: #cccccc; stroke-linecap: round"/>
     </g>
     <g id="text_8">
      <!-- 3.5 -->
      <g style="fill: #262626" transform="translate(328.237918 107.409594) scale(0.11 -0.11)">
       <use xlink:href="#ArialMT-33"/>
       <use xlink:href="#ArialMT-2e" transform="translate(55.615234 0)"/>
       <use xlink:href="#ArialMT-35" transform="translate(83.398438 0)"/>
      </g>
     </g>
    </g>
    <g id="text_9">
     <!-- Real Value (Float32) -->
     <g style="fill: #262626" transform="translate(137.626648 122.331469) scale(0.12 -0.12)">
      <defs>
       <path id="ArialMT-52" d="M 503 0 
L 503 4581 
L 2534 4581 
Q 3147 4581 3465 4457 
Q 3784 4334 3975 4021 
Q 4166 3709 4166 3331 
Q 4166 2844 3850 2509 
Q 3534 2175 2875 2084 
Q 3116 1969 3241 1856 
Q 3506 1613 3744 1247 
L 4541 0 
L 3778 0 
L 3172 953 
Q 2906 1366 2734 1584 
Q 2563 1803 2427 1890 
Q 2291 1978 2150 2013 
Q 2047 2034 1813 2034 
L 1109 2034 
L 1109 0 
L 503 0 
z
M 1109 2559 
L 2413 2559 
Q 2828 2559 3062 2645 
Q 3297 2731 3419 2920 
Q 3541 3109 3541 3331 
Q 3541 3656 3305 3865 
Q 3069 4075 2559 4075 
L 1109 4075 
L 1109 2559 
z
" transform="scale(0.015625)"/>
       <path id="ArialMT-65" d="M 2694 1069 
L 3275 997 
Q 3138 488 2766 206 
Q 2394 -75 1816 -75 
Q 1088 -75 661 373 
Q 234 822 234 1631 
Q 234 2469 665 2931 
Q 1097 3394 1784 3394 
Q 2450 3394 2872 2941 
Q 3294 2488 3294 1666 
Q 3294 1616 3291 1516 
L 816 1516 
Q 847 969 1125 678 
Q 1403 388 1819 388 
Q 2128 388 2347 550 
Q 2566 713 2694 1069 
z
M 847 1978 
L 2700 1978 
Q 2663 2397 2488 2606 
Q 2219 2931 1791 2931 
Q 1403 2931 1139 2672 
Q 875 2413 847 1978 
z
" transform="scale(0.015625)"/>
       <path id="ArialMT-61" d="M 2588 409 
Q 2275 144 1986 34 
Q 1697 -75 1366 -75 
Q 819 -75 525 192 
Q 231 459 231 875 
Q 231 1119 342 1320 
Q 453 1522 633 1644 
Q 813 1766 1038 1828 
Q 1203 1872 1538 1913 
Q 2219 1994 2541 2106 
Q 2544 2222 2544 2253 
Q 2544 2597 2384 2738 
Q 2169 2928 1744 2928 
Q 1347 2928 1158 2789 
Q 969 2650 878 2297 
L 328 2372 
Q 403 2725 575 2942 
Q 747 3159 1072 3276 
Q 1397 3394 1825 3394 
Q 2250 3394 2515 3294 
Q 2781 3194 2906 3042 
Q 3031 2891 3081 2659 
Q 3109 2516 3109 2141 
L 3109 1391 
Q 3109 606 3145 398 
Q 3181 191 3288 0 
L 2700 0 
Q 2613 175 2588 409 
z
M 2541 1666 
Q 2234 1541 1622 1453 
Q 1275 1403 1131 1340 
Q 988 1278 909 1158 
Q 831 1038 831 891 
Q 831 666 1001 516 
Q 1172 366 1500 366 
Q 1825 366 2078 508 
Q 2331 650 2450 897 
Q 2541 1088 2541 1459 
L 2541 1666 
z
" transform="scale(0.015625)"/>
       <path id="ArialMT-6c" d="M 409 0 
L 409 4581 
L 972 4581 
L 972 0 
L 409 0 
z
" transform="scale(0.015625)"/>
       <path id="ArialMT-20" transform="scale(0.015625)"/>
       <path id="ArialMT-56" d="M 1803 0 
L 28 4581 
L 684 4581 
L 1875 1253 
Q 2019 853 2116 503 
Q 2222 878 2363 1253 
L 3600 4581 
L 4219 4581 
L 2425 0 
L 1803 0 
z
" transform="scale(0.015625)"/>
       <path id="ArialMT-75" d="M 2597 0 
L 2597 488 
Q 2209 -75 1544 -75 
Q 1250 -75 995 37 
Q 741 150 617 320 
Q 494 491 444 738 
Q 409 903 409 1263 
L 409 3319 
L 972 3319 
L 972 1478 
Q 972 1038 1006 884 
Q 1059 663 1231 536 
Q 1403 409 1656 409 
Q 1909 409 2131 539 
Q 2353 669 2445 892 
Q 2538 1116 2538 1541 
L 2538 3319 
L 3100 3319 
L 3100 0 
L 2597 0 
z
" transform="scale(0.015625)"/>
       <path id="ArialMT-28" d="M 1497 -1347 
Q 1031 -759 709 28 
Q 388 816 388 1659 
Q 388 2403 628 3084 
Q 909 3875 1497 4659 
L 1900 4659 
Q 1522 4009 1400 3731 
Q 1209 3300 1100 2831 
Q 966 2247 966 1656 
Q 966 153 1900 -1347 
L 1497 -1347 
z
" transform="scale(0.015625)"/>
       <path id="ArialMT-46" d="M 525 0 
L 525 4581 
L 3616 4581 
L 3616 4041 
L 1131 4041 
L 1131 2622 
L 3281 2622 
L 3281 2081 
L 1131 2081 
L 1131 0 
L 525 0 
z
" transform="scale(0.015625)"/>
       <path id="ArialMT-6f" d="M 213 1659 
Q 213 2581 725 3025 
Q 1153 3394 1769 3394 
Q 2453 3394 2887 2945 
Q 3322 2497 3322 1706 
Q 3322 1066 3130 698 
Q 2938 331 2570 128 
Q 2203 -75 1769 -75 
Q 1072 -75 642 372 
Q 213 819 213 1659 
z
M 791 1659 
Q 791 1022 1069 705 
Q 1347 388 1769 388 
Q 2188 388 2466 706 
Q 2744 1025 2744 1678 
Q 2744 2294 2464 2611 
Q 2184 2928 1769 2928 
Q 1347 2928 1069 2612 
Q 791 2297 791 1659 
z
" transform="scale(0.015625)"/>
       <path id="ArialMT-74" d="M 1650 503 
L 1731 6 
Q 1494 -44 1306 -44 
Q 1000 -44 831 53 
Q 663 150 594 308 
Q 525 466 525 972 
L 525 2881 
L 113 2881 
L 113 3319 
L 525 3319 
L 525 4141 
L 1084 4478 
L 1084 3319 
L 1650 3319 
L 1650 2881 
L 1084 2881 
L 1084 941 
Q 1084 700 1114 631 
Q 1144 563 1211 522 
Q 1278 481 1403 481 
Q 1497 481 1650 503 
z
" transform="scale(0.015625)"/>
       <path id="ArialMT-29" d="M 791 -1347 
L 388 -1347 
Q 1322 153 1322 1656 
Q 1322 2244 1188 2822 
Q 1081 3291 891 3722 
Q 769 4003 388 4659 
L 791 4659 
Q 1378 3875 1659 3084 
Q 1900 2403 1900 1659 
Q 1900 816 1576 28 
Q 1253 -759 791 -1347 
z
" transform="scale(0.015625)"/>
      </defs>
      <use xlink:href="#ArialMT-52"/>
      <use xlink:href="#ArialMT-65" transform="translate(72.216797 0)"/>
      <use xlink:href="#ArialMT-61" transform="translate(127.832031 0)"/>
      <use xlink:href="#ArialMT-6c" transform="translate(183.447266 0)"/>
      <use xlink:href="#ArialMT-20" transform="translate(205.664062 0)"/>
      <use xlink:href="#ArialMT-56" transform="translate(233.447266 0)"/>
      <use xlink:href="#ArialMT-61" transform="translate(292.771484 0)"/>
      <use xlink:href="#ArialMT-6c" transform="translate(348.386719 0)"/>
      <use xlink:href="#ArialMT-75" transform="translate(370.603516 0)"/>
      <use xlink:href="#ArialMT-65" transform="translate(426.21875 0)"/>
      <use xlink:href="#ArialMT-20" transform="translate(481.833984 0)"/>
      <use xlink:href="#ArialMT-28" transform="translate(509.617188 0)"/>
      <use xlink:href="#ArialMT-46" transform="translate(542.917969 0)"/>
      <use xlink:href="#ArialMT-6c" transform="translate(604.001953 0)"/>
      <use xlink:href="#ArialMT-6f" transform="translate(626.21875 0)"/>
      <use xlink:href="#ArialMT-61" transform="translate(681.833984 0)"/>
      <use xlink:href="#ArialMT-74" transform="translate(737.449219 0)"/>
      <use xlink:href="#ArialMT-33" transform="translate(765.232422 0)"/>
      <use xlink:href="#ArialMT-32" transform="translate(820.847656 0)"/>
      <use xlink:href="#ArialMT-29" transform="translate(876.462891 0)"/>
     </g>
    </g>
   </g>
   <g id="matplotlib.axis_2"/>
   <g id="LineCollection_1">
    <path d="M 16.330081 30.529636 
L 16.330081 87.202364 
" clip-path="url(#pa92d385e20)" style="fill: none; stroke: #d31518; stroke-opacity: 0.5; stroke-width: 0.5"/>
    <path d="M 17.709522 30.529636 
L 17.709522 87.202364 
" clip-path="url(#pa92d385e20)" style="fill: none; stroke: #d31518; stroke-opacity: 0.5; stroke-width: 0.5"/>
    <path d="M 19.088963 30.529636 
L 19.088963 87.202364 
" clip-path="url(#pa92d385e20)" style="fill: none; stroke: #d31518; stroke-opacity: 0.5; stroke-width: 0.5"/>
    <path d="M 20.468405 30.529636 
L 20.468405 87.202364 
" clip-path="url(#pa92d385e20)" style="fill: none; stroke: #d31518; stroke-opacity: 0.5; stroke-width: 0.5"/>
    <path d="M 21.847846 30.529636 
L 21.847846 87.202364 
" clip-path="url(#pa92d385e20)" style="fill: none; stroke: #d31518; stroke-opacity: 0.5; stroke-width: 0.5"/>
    <path d="M 23.227287 30.529636 
L 23.227287 87.202364 
" clip-path="url(#pa92d385e20)" style="fill: none; stroke: #d31518; stroke-opacity: 0.5; stroke-width: 0.5"/>
    <path d="M 24.606728 30.529636 
L 24.606728 87.202364 
" clip-path="url(#pa92d385e20)" style="fill: none; stroke: #d31518; stroke-opacity: 0.5; stroke-width: 0.5"/>
    <path d="M 25.98617 30.529636 
L 25.98617 87.202364 
" clip-path="url(#pa92d385e20)" style="fill: none; stroke: #d31518; stroke-opacity: 0.5; stroke-width: 0.5"/>
    <path d="M 27.365611 30.529636 
L 27.365611 87.202364 
" clip-path="url(#pa92d385e20)" style="fill: none; stroke: #d31518; stroke-opacity: 0.5; stroke-width: 0.5"/>
    <path d="M 28.745052 30.529636 
L 28.745052 87.202364 
" clip-path="url(#pa92d385e20)" style="fill: none; stroke: #d31518; stroke-opacity: 0.5; stroke-width: 0.5"/>
    <path d="M 30.124493 30.529636 
L 30.124493 87.202364 
" clip-path="url(#pa92d385e20)" style="fill: none; stroke: #d31518; stroke-opacity: 0.5; stroke-width: 0.5"/>
    <path d="M 31.503934 30.529636 
L 31.503934 87.202364 
" clip-path="url(#pa92d385e20)" style="fill: none; stroke: #d31518; stroke-opacity: 0.5; stroke-width: 0.5"/>
    <path d="M 32.883376 30.529636 
L 32.883376 87.202364 
" clip-path="url(#pa92d385e20)" style="fill: none; stroke: #d31518; stroke-opacity: 0.5; stroke-width: 0.5"/>
    <path d="M 34.262817 30.529636 
L 34.262817 87.202364 
" clip-path="url(#pa92d385e20)" style="fill: none; stroke: #d31518; stroke-opacity: 0.5; stroke-width: 0.5"/>
    <path d="M 35.642258 30.529636 
L 35.642258 87.202364 
" clip-path="url(#pa92d385e20)" style="fill: none; stroke: #d31518; stroke-opacity: 0.5; stroke-width: 0.5"/>
    <path d="M 37.021699 30.529636 
L 37.021699 87.202364 
" clip-path="url(#pa92d385e20)" style="fill: none; stroke: #d31518; stroke-opacity: 0.5; stroke-width: 0.5"/>
    <path d="M 38.40114 30.529636 
L 38.40114 87.202364 
" clip-path="url(#pa92d385e20)" style="fill: none; stroke: #d31518; stroke-opacity: 0.5; stroke-width: 0.5"/>
    <path d="M 39.780582 30.529636 
L 39.780582 87.202364 
" clip-path="url(#pa92d385e20)" style="fill: none; stroke: #d31518; stroke-opacity: 0.5; stroke-width: 0.5"/>
    <path d="M 41.160023 30.529636 
L 41.160023 87.202364 
" clip-path="url(#pa92d385e20)" style="fill: none; stroke: #d31518; stroke-opacity: 0.5; stroke-width: 0.5"/>
    <path d="M 42.539464 30.529636 
L 42.539464 87.202364 
" clip-path="url(#pa92d385e20)" style="fill: none; stroke: #d31518; stroke-opacity: 0.5; stroke-width: 0.5"/>
    <path d="M 43.918905 30.529636 
L 43.918905 87.202364 
" clip-path="url(#pa92d385e20)" style="fill: none; stroke: #d31518; stroke-opacity: 0.5; stroke-width: 0.5"/>
    <path d="M 45.298346 30.529636 
L 45.298346 87.202364 
" clip-path="url(#pa92d385e20)" style="fill: none; stroke: #d31518; stroke-opacity: 0.5; stroke-width: 0.5"/>
    <path d="M 46.677788 30.529636 
L 46.677788 87.202364 
" clip-path="url(#pa92d385e20)" style="fill: none; stroke: #d31518; stroke-opacity: 0.5; stroke-width: 0.5"/>
    <path d="M 48.057229 30.529636 
L 48.057229 87.202364 
" clip-path="url(#pa92d385e20)" style="fill: none; stroke: #d31518; stroke-opacity: 0.5; stroke-width: 0.5"/>
    <path d="M 49.43667 30.529636 
L 49.43667 87.202364 
" clip-path="url(#pa92d385e20)" style="fill: none; stroke: #d31518; stroke-opacity: 0.5; stroke-width: 0.5"/>
    <path d="M 50.816111 30.529636 
L 50.816111 87.202364 
" clip-path="url(#pa92d385e20)" style="fill: none; stroke: #d31518; stroke-opacity: 0.5; stroke-width: 0.5"/>
    <path d="M 52.195553 30.529636 
L 52.195553 87.202364 
" clip-path="url(#pa92d385e20)" style="fill: none; stroke: #d31518; stroke-opacity: 0.5; stroke-width: 0.5"/>
    <path d="M 53.574994 30.529636 
L 53.574994 87.202364 
" clip-path="url(#pa92d385e20)" style="fill: none; stroke: #d31518; stroke-opacity: 0.5; stroke-width: 0.5"/>
    <path d="M 54.954435 30.529636 
L 54.954435 87.202364 
" clip-path="url(#pa92d385e20)" style="fill: none; stroke: #d31518; stroke-opacity: 0.5; stroke-width: 0.5"/>
    <path d="M 56.333876 30.529636 
L 56.333876 87.202364 
" clip-path="url(#pa92d385e20)" style="fill: none; stroke: #d31518; stroke-opacity: 0.5; stroke-width: 0.5"/>
    <path d="M 57.713317 30.529636 
L 57.713317 87.202364 
" clip-path="url(#pa92d385e20)" style="fill: none; stroke: #d31518; stroke-opacity: 0.5; stroke-width: 0.5"/>
    <path d="M 59.092759 30.529636 
L 59.092759 87.202364 
" clip-path="url(#pa92d385e20)" style="fill: none; stroke: #d31518; stroke-opacity: 0.5; stroke-width: 0.5"/>
    <path d="M 60.4722 30.529636 
L 60.4722 87.202364 
" clip-path="url(#pa92d385e20)" style="fill: none; stroke: #d31518; stroke-opacity: 0.5; stroke-width: 0.5"/>
    <path d="M 61.851641 30.529636 
L 61.851641 87.202364 
" clip-path="url(#pa92d385e20)" style="fill: none; stroke: #d31518; stroke-opacity: 0.5; stroke-width: 0.5"/>
    <path d="M 63.231082 30.529636 
L 63.231082 87.202364 
" clip-path="url(#pa92d385e20)" style="fill: none; stroke: #d31518; stroke-opacity: 0.5; stroke-width: 0.5"/>
    <path d="M 64.610523 30.529636 
L 64.610523 87.202364 
" clip-path="url(#pa92d385e20)" style="fill: none; stroke: #d31518; stroke-opacity: 0.5; stroke-width: 0.5"/>
    <path d="M 65.989965 30.529636 
L 65.989965 87.202364 
" clip-path="url(#pa92d385e20)" style="fill: none; stroke: #d31518; stroke-opacity: 0.5; stroke-width: 0.5"/>
    <path d="M 67.369406 30.529636 
L 67.369406 87.202364 
" clip-path="url(#pa92d385e20)" style="fill: none; stroke: #d31518; stroke-opacity: 0.5; stroke-width: 0.5"/>
    <path d="M 68.748847 30.529636 
L 68.748847 87.202364 
" clip-path="url(#pa92d385e20)" style="fill: none; stroke: #d31518; stroke-opacity: 0.5; stroke-width: 0.5"/>
    <path d="M 70.128288 30.529636 
L 70.128288 87.202364 
" clip-path="url(#pa92d385e20)" style="fill: none; stroke: #d31518; stroke-opacity: 0.5; stroke-width: 0.5"/>
    <path d="M 71.507729 30.529636 
L 71.507729 87.202364 
" clip-path="url(#pa92d385e20)" style="fill: none; stroke: #d31518; stroke-opacity: 0.5; stroke-width: 0.5"/>
    <path d="M 72.887171 30.529636 
L 72.887171 87.202364 
" clip-path="url(#pa92d385e20)" style="fill: none; stroke: #d31518; stroke-opacity: 0.5; stroke-width: 0.5"/>
    <path d="M 74.266612 30.529636 
L 74.266612 87.202364 
" clip-path="url(#pa92d385e20)" style="fill: none; stroke: #d31518; stroke-opacity: 0.5; stroke-width: 0.5"/>
    <path d="M 75.646053 30.529636 
L 75.646053 87.202364 
" clip-path="url(#pa92d385e20)" style="fill: none; stroke: #d31518; stroke-opacity: 0.5; stroke-width: 0.5"/>
    <path d="M 77.025494 30.529636 
L 77.025494 87.202364 
" clip-path="url(#pa92d385e20)" style="fill: none; stroke: #d31518; stroke-opacity: 0.5; stroke-width: 0.5"/>
    <path d="M 78.404935 30.529636 
L 78.404935 87.202364 
" clip-path="url(#pa92d385e20)" style="fill: none; stroke: #d31518; stroke-opacity: 0.5; stroke-width: 0.5"/>
    <path d="M 79.784377 30.529636 
L 79.784377 87.202364 
" clip-path="url(#pa92d385e20)" style="fill: none; stroke: #d31518; stroke-opacity: 0.5; stroke-width: 0.5"/>
    <path d="M 81.163818 30.529636 
L 81.163818 87.202364 
" clip-path="url(#pa92d385e20)" style="fill: none; stroke: #d31518; stroke-opacity: 0.5; stroke-width: 0.5"/>
    <path d="M 82.543259 30.529636 
L 82.543259 87.202364 
" clip-path="url(#pa92d385e20)" style="fill: none; stroke: #d31518; stroke-opacity: 0.5; stroke-width: 0.5"/>
    <path d="M 83.9227 30.529636 
L 83.9227 87.202364 
" clip-path="url(#pa92d385e20)" style="fill: none; stroke: #d31518; stroke-opacity: 0.5; stroke-width: 0.5"/>
    <path d="M 85.302142 30.529636 
L 85.302142 87.202364 
" clip-path="url(#pa92d385e20)" style="fill: none; stroke: #d31518; stroke-opacity: 0.5; stroke-width: 0.5"/>
    <path d="M 86.681583 30.529636 
L 86.681583 87.202364 
" clip-path="url(#pa92d385e20)" style="fill: none; stroke: #d31518; stroke-opacity: 0.5; stroke-width: 0.5"/>
    <path d="M 88.061024 30.529636 
L 88.061024 87.202364 
" clip-path="url(#pa92d385e20)" style="fill: none; stroke: #d31518; stroke-opacity: 0.5; stroke-width: 0.5"/>
    <path d="M 89.440465 30.529636 
L 89.440465 87.202364 
" clip-path="url(#pa92d385e20)" style="fill: none; stroke: #d31518; stroke-opacity: 0.5; stroke-width: 0.5"/>
    <path d="M 90.819906 30.529636 
L 90.819906 87.202364 
" clip-path="url(#pa92d385e20)" style="fill: none; stroke: #d31518; stroke-opacity: 0.5; stroke-width: 0.5"/>
    <path d="M 92.199348 30.529636 
L 92.199348 87.202364 
" clip-path="url(#pa92d385e20)" style="fill: none; stroke: #d31518; stroke-opacity: 0.5; stroke-width: 0.5"/>
    <path d="M 93.578789 30.529636 
L 93.578789 87.202364 
" clip-path="url(#pa92d385e20)" style="fill: none; stroke: #d31518; stroke-opacity: 0.5; stroke-width: 0.5"/>
    <path d="M 94.95823 30.529636 
L 94.95823 87.202364 
" clip-path="url(#pa92d385e20)" style="fill: none; stroke: #d31518; stroke-opacity: 0.5; stroke-width: 0.5"/>
    <path d="M 96.337671 30.529636 
L 96.337671 87.202364 
" clip-path="url(#pa92d385e20)" style="fill: none; stroke: #d31518; stroke-opacity: 0.5; stroke-width: 0.5"/>
    <path d="M 97.717112 30.529636 
L 97.717112 87.202364 
" clip-path="url(#pa92d385e20)" style="fill: none; stroke: #d31518; stroke-opacity: 0.5; stroke-width: 0.5"/>
    <path d="M 99.096554 30.529636 
L 99.096554 87.202364 
" clip-path="url(#pa92d385e20)" style="fill: none; stroke: #d31518; stroke-opacity: 0.5; stroke-width: 0.5"/>
    <path d="M 100.475995 30.529636 
L 100.475995 87.202364 
" clip-path="url(#pa92d385e20)" style="fill: none; stroke: #d31518; stroke-opacity: 0.5; stroke-width: 0.5"/>
    <path d="M 101.855436 30.529636 
L 101.855436 87.202364 
" clip-path="url(#pa92d385e20)" style="fill: none; stroke: #d31518; stroke-opacity: 0.5; stroke-width: 0.5"/>
    <path d="M 103.234877 30.529636 
L 103.234877 87.202364 
" clip-path="url(#pa92d385e20)" style="fill: none; stroke: #d31518; stroke-opacity: 0.5; stroke-width: 0.5"/>
    <path d="M 104.614318 30.529636 
L 104.614318 87.202364 
" clip-path="url(#pa92d385e20)" style="fill: none; stroke: #d31518; stroke-opacity: 0.5; stroke-width: 0.5"/>
    <path d="M 105.99376 30.529636 
L 105.99376 87.202364 
" clip-path="url(#pa92d385e20)" style="fill: none; stroke: #d31518; stroke-opacity: 0.5; stroke-width: 0.5"/>
    <path d="M 107.373201 30.529636 
L 107.373201 87.202364 
" clip-path="url(#pa92d385e20)" style="fill: none; stroke: #d31518; stroke-opacity: 0.5; stroke-width: 0.5"/>
    <path d="M 108.752642 30.529636 
L 108.752642 87.202364 
" clip-path="url(#pa92d385e20)" style="fill: none; stroke: #d31518; stroke-opacity: 0.5; stroke-width: 0.5"/>
    <path d="M 110.132083 30.529636 
L 110.132083 87.202364 
" clip-path="url(#pa92d385e20)" style="fill: none; stroke: #d31518; stroke-opacity: 0.5; stroke-width: 0.5"/>
    <path d="M 111.511524 30.529636 
L 111.511524 87.202364 
" clip-path="url(#pa92d385e20)" style="fill: none; stroke: #d31518; stroke-opacity: 0.5; stroke-width: 0.5"/>
    <path d="M 112.890966 30.529636 
L 112.890966 87.202364 
" clip-path="url(#pa92d385e20)" style="fill: none; stroke: #d31518; stroke-opacity: 0.5; stroke-width: 0.5"/>
    <path d="M 114.270407 30.529636 
L 114.270407 87.202364 
" clip-path="url(#pa92d385e20)" style="fill: none; stroke: #d31518; stroke-opacity: 0.5; stroke-width: 0.5"/>
    <path d="M 115.649848 30.529636 
L 115.649848 87.202364 
" clip-path="url(#pa92d385e20)" style="fill: none; stroke: #d31518; stroke-opacity: 0.5; stroke-width: 0.5"/>
    <path d="M 117.029289 30.529636 
L 117.029289 87.202364 
" clip-path="url(#pa92d385e20)" style="fill: none; stroke: #d31518; stroke-opacity: 0.5; stroke-width: 0.5"/>
    <path d="M 118.408731 30.529636 
L 118.408731 87.202364 
" clip-path="url(#pa92d385e20)" style="fill: none; stroke: #d31518; stroke-opacity: 0.5; stroke-width: 0.5"/>
    <path d="M 119.788172 30.529636 
L 119.788172 87.202364 
" clip-path="url(#pa92d385e20)" style="fill: none; stroke: #d31518; stroke-opacity: 0.5; stroke-width: 0.5"/>
    <path d="M 121.167613 30.529636 
L 121.167613 87.202364 
" clip-path="url(#pa92d385e20)" style="fill: none; stroke: #d31518; stroke-opacity: 0.5; stroke-width: 0.5"/>
    <path d="M 122.547054 30.529636 
L 122.547054 87.202364 
" clip-path="url(#pa92d385e20)" style="fill: none; stroke: #d31518; stroke-opacity: 0.5; stroke-width: 0.5"/>
    <path d="M 123.926495 30.529636 
L 123.926495 87.202364 
" clip-path="url(#pa92d385e20)" style="fill: none; stroke: #d31518; stroke-opacity: 0.5; stroke-width: 0.5"/>
    <path d="M 125.305937 30.529636 
L 125.305937 87.202364 
" clip-path="url(#pa92d385e20)" style="fill: none; stroke: #d31518; stroke-opacity: 0.5; stroke-width: 0.5"/>
    <path d="M 126.685378 30.529636 
L 126.685378 87.202364 
" clip-path="url(#pa92d385e20)" style="fill: none; stroke: #d31518; stroke-opacity: 0.5; stroke-width: 0.5"/>
    <path d="M 128.064819 30.529636 
L 128.064819 87.202364 
" clip-path="url(#pa92d385e20)" style="fill: none; stroke: #d31518; stroke-opacity: 0.5; stroke-width: 0.5"/>
    <path d="M 129.44426 30.529636 
L 129.44426 87.202364 
" clip-path="url(#pa92d385e20)" style="fill: none; stroke: #d31518; stroke-opacity: 0.5; stroke-width: 0.5"/>
    <path d="M 130.823701 30.529636 
L 130.823701 87.202364 
" clip-path="url(#pa92d385e20)" style="fill: none; stroke: #d31518; stroke-opacity: 0.5; stroke-width: 0.5"/>
    <path d="M 132.203143 30.529636 
L 132.203143 87.202364 
" clip-path="url(#pa92d385e20)" style="fill: none; stroke: #d31518; stroke-opacity: 0.5; stroke-width: 0.5"/>
    <path d="M 133.582584 30.529636 
L 133.582584 87.202364 
" clip-path="url(#pa92d385e20)" style="fill: none; stroke: #d31518; stroke-opacity: 0.5; stroke-width: 0.5"/>
    <path d="M 134.962025 30.529636 
L 134.962025 87.202364 
" clip-path="url(#pa92d385e20)" style="fill: none; stroke: #d31518; stroke-opacity: 0.5; stroke-width: 0.5"/>
    <path d="M 136.341466 30.529636 
L 136.341466 87.202364 
" clip-path="url(#pa92d385e20)" style="fill: none; stroke: #d31518; stroke-opacity: 0.5; stroke-width: 0.5"/>
    <path d="M 137.720907 30.529636 
L 137.720907 87.202364 
" clip-path="url(#pa92d385e20)" style="fill: none; stroke: #d31518; stroke-opacity: 0.5; stroke-width: 0.5"/>
    <path d="M 139.100349 30.529636 
L 139.100349 87.202364 
" clip-path="url(#pa92d385e20)" style="fill: none; stroke: #d31518; stroke-opacity: 0.5; stroke-width: 0.5"/>
    <path d="M 140.47979 30.529636 
L 140.47979 87.202364 
" clip-path="url(#pa92d385e20)" style="fill: none; stroke: #d31518; stroke-opacity: 0.5; stroke-width: 0.5"/>
    <path d="M 141.859231 30.529636 
L 141.859231 87.202364 
" clip-path="url(#pa92d385e20)" style="fill: none; stroke: #d31518; stroke-opacity: 0.5; stroke-width: 0.5"/>
    <path d="M 143.238672 30.529636 
L 143.238672 87.202364 
" clip-path="url(#pa92d385e20)" style="fill: none; stroke: #d31518; stroke-opacity: 0.5; stroke-width: 0.5"/>
    <path d="M 144.618114 30.529636 
L 144.618114 87.202364 
" clip-path="url(#pa92d385e20)" style="fill: none; stroke: #d31518; stroke-opacity: 0.5; stroke-width: 0.5"/>
    <path d="M 145.997555 30.529636 
L 145.997555 87.202364 
" clip-path="url(#pa92d385e20)" style="fill: none; stroke: #d31518; stroke-opacity: 0.5; stroke-width: 0.5"/>
    <path d="M 147.376996 30.529636 
L 147.376996 87.202364 
" clip-path="url(#pa92d385e20)" style="fill: none; stroke: #d31518; stroke-opacity: 0.5; stroke-width: 0.5"/>
    <path d="M 148.756437 30.529636 
L 148.756437 87.202364 
" clip-path="url(#pa92d385e20)" style="fill: none; stroke: #d31518; stroke-opacity: 0.5; stroke-width: 0.5"/>
    <path d="M 150.135878 30.529636 
L 150.135878 87.202364 
" clip-path="url(#pa92d385e20)" style="fill: none; stroke: #d31518; stroke-opacity: 0.5; stroke-width: 0.5"/>
    <path d="M 151.51532 30.529636 
L 151.51532 87.202364 
" clip-path="url(#pa92d385e20)" style="fill: none; stroke: #d31518; stroke-opacity: 0.5; stroke-width: 0.5"/>
    <path d="M 152.894761 30.529636 
L 152.894761 87.202364 
" clip-path="url(#pa92d385e20)" style="fill: none; stroke: #d31518; stroke-opacity: 0.5; stroke-width: 0.5"/>
    <path d="M 154.274202 30.529636 
L 154.274202 87.202364 
" clip-path="url(#pa92d385e20)" style="fill: none; stroke: #d31518; stroke-opacity: 0.5; stroke-width: 0.5"/>
    <path d="M 155.653643 30.529636 
L 155.653643 87.202364 
" clip-path="url(#pa92d385e20)" style="fill: none; stroke: #d31518; stroke-opacity: 0.5; stroke-width: 0.5"/>
    <path d="M 157.033084 30.529636 
L 157.033084 87.202364 
" clip-path="url(#pa92d385e20)" style="fill: none; stroke: #d31518; stroke-opacity: 0.5; stroke-width: 0.5"/>
    <path d="M 158.412526 30.529636 
L 158.412526 87.202364 
" clip-path="url(#pa92d385e20)" style="fill: none; stroke: #d31518; stroke-opacity: 0.5; stroke-width: 0.5"/>
    <path d="M 159.791967 30.529636 
L 159.791967 87.202364 
" clip-path="url(#pa92d385e20)" style="fill: none; stroke: #d31518; stroke-opacity: 0.5; stroke-width: 0.5"/>
    <path d="M 161.171408 30.529636 
L 161.171408 87.202364 
" clip-path="url(#pa92d385e20)" style="fill: none; stroke: #d31518; stroke-opacity: 0.5; stroke-width: 0.5"/>
    <path d="M 162.550849 30.529636 
L 162.550849 87.202364 
" clip-path="url(#pa92d385e20)" style="fill: none; stroke: #d31518; stroke-opacity: 0.5; stroke-width: 0.5"/>
    <path d="M 163.93029 30.529636 
L 163.93029 87.202364 
" clip-path="url(#pa92d385e20)" style="fill: none; stroke: #d31518; stroke-opacity: 0.5; stroke-width: 0.5"/>
    <path d="M 165.309732 30.529636 
L 165.309732 87.202364 
" clip-path="url(#pa92d385e20)" style="fill: none; stroke: #d31518; stroke-opacity: 0.5; stroke-width: 0.5"/>
    <path d="M 166.689173 30.529636 
L 166.689173 87.202364 
" clip-path="url(#pa92d385e20)" style="fill: none; stroke: #d31518; stroke-opacity: 0.5; stroke-width: 0.5"/>
    <path d="M 168.068614 30.529636 
L 168.068614 87.202364 
" clip-path="url(#pa92d385e20)" style="fill: none; stroke: #d31518; stroke-opacity: 0.5; stroke-width: 0.5"/>
    <path d="M 169.448055 30.529636 
L 169.448055 87.202364 
" clip-path="url(#pa92d385e20)" style="fill: none; stroke: #d31518; stroke-opacity: 0.5; stroke-width: 0.5"/>
    <path d="M 170.827496 30.529636 
L 170.827496 87.202364 
" clip-path="url(#pa92d385e20)" style="fill: none; stroke: #d31518; stroke-opacity: 0.5; stroke-width: 0.5"/>
    <path d="M 172.206938 30.529636 
L 172.206938 87.202364 
" clip-path="url(#pa92d385e20)" style="fill: none; stroke: #d31518; stroke-opacity: 0.5; stroke-width: 0.5"/>
    <path d="M 173.586379 30.529636 
L 173.586379 87.202364 
" clip-path="url(#pa92d385e20)" style="fill: none; stroke: #d31518; stroke-opacity: 0.5; stroke-width: 0.5"/>
    <path d="M 174.96582 30.529636 
L 174.96582 87.202364 
" clip-path="url(#pa92d385e20)" style="fill: none; stroke: #d31518; stroke-opacity: 0.5; stroke-width: 0.5"/>
    <path d="M 176.345261 30.529636 
L 176.345261 87.202364 
" clip-path="url(#pa92d385e20)" style="fill: none; stroke: #d31518; stroke-opacity: 0.5; stroke-width: 0.5"/>
    <path d="M 177.724703 30.529636 
L 177.724703 87.202364 
" clip-path="url(#pa92d385e20)" style="fill: none; stroke: #d31518; stroke-opacity: 0.5; stroke-width: 0.5"/>
    <path d="M 179.104144 30.529636 
L 179.104144 87.202364 
" clip-path="url(#pa92d385e20)" style="fill: none; stroke: #d31518; stroke-opacity: 0.5; stroke-width: 0.5"/>
    <path d="M 180.483585 30.529636 
L 180.483585 87.202364 
" clip-path="url(#pa92d385e20)" style="fill: none; stroke: #d31518; stroke-opacity: 0.5; stroke-width: 0.5"/>
    <path d="M 181.863026 30.529636 
L 181.863026 87.202364 
" clip-path="url(#pa92d385e20)" style="fill: none; stroke: #d31518; stroke-opacity: 0.5; stroke-width: 0.5"/>
    <path d="M 183.242467 30.529636 
L 183.242467 87.202364 
" clip-path="url(#pa92d385e20)" style="fill: none; stroke: #d31518; stroke-opacity: 0.5; stroke-width: 0.5"/>
    <path d="M 184.621909 30.529636 
L 184.621909 87.202364 
" clip-path="url(#pa92d385e20)" style="fill: none; stroke: #d31518; stroke-opacity: 0.5; stroke-width: 0.5"/>
    <path d="M 186.00135 30.529636 
L 186.00135 87.202364 
" clip-path="url(#pa92d385e20)" style="fill: none; stroke: #d31518; stroke-opacity: 0.5; stroke-width: 0.5"/>
    <path d="M 187.380791 30.529636 
L 187.380791 87.202364 
" clip-path="url(#pa92d385e20)" style="fill: none; stroke: #d31518; stroke-opacity: 0.5; stroke-width: 0.5"/>
    <path d="M 188.760232 30.529636 
L 188.760232 87.202364 
" clip-path="url(#pa92d385e20)" style="fill: none; stroke: #d31518; stroke-opacity: 0.5; stroke-width: 0.5"/>
    <path d="M 190.139673 30.529636 
L 190.139673 87.202364 
" clip-path="url(#pa92d385e20)" style="fill: none; stroke: #d31518; stroke-opacity: 0.5; stroke-width: 0.5"/>
    <path d="M 191.519115 30.529636 
L 191.519115 87.202364 
" clip-path="url(#pa92d385e20)" style="fill: none; stroke: #d31518; stroke-opacity: 0.5; stroke-width: 0.5"/>
    <path d="M 192.898556 30.529636 
L 192.898556 87.202364 
" clip-path="url(#pa92d385e20)" style="fill: none; stroke: #d31518; stroke-opacity: 0.5; stroke-width: 0.5"/>
    <path d="M 194.277997 30.529636 
L 194.277997 87.202364 
" clip-path="url(#pa92d385e20)" style="fill: none; stroke: #d31518; stroke-opacity: 0.5; stroke-width: 0.5"/>
    <path d="M 195.657438 30.529636 
L 195.657438 87.202364 
" clip-path="url(#pa92d385e20)" style="fill: none; stroke: #d31518; stroke-opacity: 0.5; stroke-width: 0.5"/>
    <path d="M 197.036879 30.529636 
L 197.036879 87.202364 
" clip-path="url(#pa92d385e20)" style="fill: none; stroke: #d31518; stroke-opacity: 0.5; stroke-width: 0.5"/>
    <path d="M 198.416321 30.529636 
L 198.416321 87.202364 
" clip-path="url(#pa92d385e20)" style="fill: none; stroke: #d31518; stroke-opacity: 0.5; stroke-width: 0.5"/>
    <path d="M 199.795762 30.529636 
L 199.795762 87.202364 
" clip-path="url(#pa92d385e20)" style="fill: none; stroke: #d31518; stroke-opacity: 0.5; stroke-width: 0.5"/>
    <path d="M 201.175203 30.529636 
L 201.175203 87.202364 
" clip-path="url(#pa92d385e20)" style="fill: none; stroke: #d31518; stroke-opacity: 0.5; stroke-width: 0.5"/>
    <path d="M 202.554644 30.529636 
L 202.554644 87.202364 
" clip-path="url(#pa92d385e20)" style="fill: none; stroke: #d31518; stroke-opacity: 0.5; stroke-width: 0.5"/>
    <path d="M 203.934086 30.529636 
L 203.934086 87.202364 
" clip-path="url(#pa92d385e20)" style="fill: none; stroke: #d31518; stroke-opacity: 0.5; stroke-width: 0.5"/>
    <path d="M 205.313527 30.529636 
L 205.313527 87.202364 
" clip-path="url(#pa92d385e20)" style="fill: none; stroke: #d31518; stroke-opacity: 0.5; stroke-width: 0.5"/>
    <path d="M 206.692968 30.529636 
L 206.692968 87.202364 
" clip-path="url(#pa92d385e20)" style="fill: none; stroke: #d31518; stroke-opacity: 0.5; stroke-width: 0.5"/>
    <path d="M 208.072409 30.529636 
L 208.072409 87.202364 
" clip-path="url(#pa92d385e20)" style="fill: none; stroke: #d31518; stroke-opacity: 0.5; stroke-width: 0.5"/>
    <path d="M 209.45185 30.529636 
L 209.45185 87.202364 
" clip-path="url(#pa92d385e20)" style="fill: none; stroke: #d31518; stroke-opacity: 0.5; stroke-width: 0.5"/>
    <path d="M 210.831292 30.529636 
L 210.831292 87.202364 
" clip-path="url(#pa92d385e20)" style="fill: none; stroke: #d31518; stroke-opacity: 0.5; stroke-width: 0.5"/>
    <path d="M 212.210733 30.529636 
L 212.210733 87.202364 
" clip-path="url(#pa92d385e20)" style="fill: none; stroke: #d31518; stroke-opacity: 0.5; stroke-width: 0.5"/>
    <path d="M 213.590174 30.529636 
L 213.590174 87.202364 
" clip-path="url(#pa92d385e20)" style="fill: none; stroke: #d31518; stroke-opacity: 0.5; stroke-width: 0.5"/>
    <path d="M 214.969615 30.529636 
L 214.969615 87.202364 
" clip-path="url(#pa92d385e20)" style="fill: none; stroke: #d31518; stroke-opacity: 0.5; stroke-width: 0.5"/>
    <path d="M 216.349056 30.529636 
L 216.349056 87.202364 
" clip-path="url(#pa92d385e20)" style="fill: none; stroke: #d31518; stroke-opacity: 0.5; stroke-width: 0.5"/>
    <path d="M 217.728498 30.529636 
L 217.728498 87.202364 
" clip-path="url(#pa92d385e20)" style="fill: none; stroke: #d31518; stroke-opacity: 0.5; stroke-width: 0.5"/>
    <path d="M 219.107939 30.529636 
L 219.107939 87.202364 
" clip-path="url(#pa92d385e20)" style="fill: none; stroke: #d31518; stroke-opacity: 0.5; stroke-width: 0.5"/>
    <path d="M 220.48738 30.529636 
L 220.48738 87.202364 
" clip-path="url(#pa92d385e20)" style="fill: none; stroke: #d31518; stroke-opacity: 0.5; stroke-width: 0.5"/>
    <path d="M 221.866821 30.529636 
L 221.866821 87.202364 
" clip-path="url(#pa92d385e20)" style="fill: none; stroke: #d31518; stroke-opacity: 0.5; stroke-width: 0.5"/>
    <path d="M 223.246262 30.529636 
L 223.246262 87.202364 
" clip-path="url(#pa92d385e20)" style="fill: none; stroke: #d31518; stroke-opacity: 0.5; stroke-width: 0.5"/>
    <path d="M 224.625704 30.529636 
L 224.625704 87.202364 
" clip-path="url(#pa92d385e20)" style="fill: none; stroke: #d31518; stroke-opacity: 0.5; stroke-width: 0.5"/>
    <path d="M 226.005145 30.529636 
L 226.005145 87.202364 
" clip-path="url(#pa92d385e20)" style="fill: none; stroke: #d31518; stroke-opacity: 0.5; stroke-width: 0.5"/>
    <path d="M 227.384586 30.529636 
L 227.384586 87.202364 
" clip-path="url(#pa92d385e20)" style="fill: none; stroke: #d31518; stroke-opacity: 0.5; stroke-width: 0.5"/>
    <path d="M 228.764027 30.529636 
L 228.764027 87.202364 
" clip-path="url(#pa92d385e20)" style="fill: none; stroke: #d31518; stroke-opacity: 0.5; stroke-width: 0.5"/>
    <path d="M 230.143468 30.529636 
L 230.143468 87.202364 
" clip-path="url(#pa92d385e20)" style="fill: none; stroke: #d31518; stroke-opacity: 0.5; stroke-width: 0.5"/>
    <path d="M 231.52291 30.529636 
L 231.52291 87.202364 
" clip-path="url(#pa92d385e20)" style="fill: none; stroke: #d31518; stroke-opacity: 0.5; stroke-width: 0.5"/>
    <path d="M 232.902351 30.529636 
L 232.902351 87.202364 
" clip-path="url(#pa92d385e20)" style="fill: none; stroke: #d31518; stroke-opacity: 0.5; stroke-width: 0.5"/>
    <path d="M 234.281792 30.529636 
L 234.281792 87.202364 
" clip-path="url(#pa92d385e20)" style="fill: none; stroke: #d31518; stroke-opacity: 0.5; stroke-width: 0.5"/>
    <path d="M 235.661233 30.529636 
L 235.661233 87.202364 
" clip-path="url(#pa92d385e20)" style="fill: none; stroke: #d31518; stroke-opacity: 0.5; stroke-width: 0.5"/>
    <path d="M 237.040675 30.529636 
L 237.040675 87.202364 
" clip-path="url(#pa92d385e20)" style="fill: none; stroke: #d31518; stroke-opacity: 0.5; stroke-width: 0.5"/>
    <path d="M 238.420116 30.529636 
L 238.420116 87.202364 
" clip-path="url(#pa92d385e20)" style="fill: none; stroke: #d31518; stroke-opacity: 0.5; stroke-width: 0.5"/>
    <path d="M 239.799557 30.529636 
L 239.799557 87.202364 
" clip-path="url(#pa92d385e20)" style="fill: none; stroke: #d31518; stroke-opacity: 0.5; stroke-width: 0.5"/>
    <path d="M 241.178998 30.529636 
L 241.178998 87.202364 
" clip-path="url(#pa92d385e20)" style="fill: none; stroke: #d31518; stroke-opacity: 0.5; stroke-width: 0.5"/>
    <path d="M 242.558439 30.529636 
L 242.558439 87.202364 
" clip-path="url(#pa92d385e20)" style="fill: none; stroke: #d31518; stroke-opacity: 0.5; stroke-width: 0.5"/>
    <path d="M 243.937881 30.529636 
L 243.937881 87.202364 
" clip-path="url(#pa92d385e20)" style="fill: none; stroke: #d31518; stroke-opacity: 0.5; stroke-width: 0.5"/>
    <path d="M 245.317322 30.529636 
L 245.317322 87.202364 
" clip-path="url(#pa92d385e20)" style="fill: none; stroke: #d31518; stroke-opacity: 0.5; stroke-width: 0.5"/>
    <path d="M 246.696763 30.529636 
L 246.696763 87.202364 
" clip-path="url(#pa92d385e20)" style="fill: none; stroke: #d31518; stroke-opacity: 0.5; stroke-width: 0.5"/>
    <path d="M 248.076204 30.529636 
L 248.076204 87.202364 
" clip-path="url(#pa92d385e20)" style="fill: none; stroke: #d31518; stroke-opacity: 0.5; stroke-width: 0.5"/>
    <path d="M 249.455645 30.529636 
L 249.455645 87.202364 
" clip-path="url(#pa92d385e20)" style="fill: none; stroke: #d31518; stroke-opacity: 0.5; stroke-width: 0.5"/>
    <path d="M 250.835087 30.529636 
L 250.835087 87.202364 
" clip-path="url(#pa92d385e20)" style="fill: none; stroke: #d31518; stroke-opacity: 0.5; stroke-width: 0.5"/>
    <path d="M 252.214528 30.529636 
L 252.214528 87.202364 
" clip-path="url(#pa92d385e20)" style="fill: none; stroke: #d31518; stroke-opacity: 0.5; stroke-width: 0.5"/>
    <path d="M 253.593969 30.529636 
L 253.593969 87.202364 
" clip-path="url(#pa92d385e20)" style="fill: none; stroke: #d31518; stroke-opacity: 0.5; stroke-width: 0.5"/>
    <path d="M 254.97341 30.529636 
L 254.97341 87.202364 
" clip-path="url(#pa92d385e20)" style="fill: none; stroke: #d31518; stroke-opacity: 0.5; stroke-width: 0.5"/>
    <path d="M 256.352851 30.529636 
L 256.352851 87.202364 
" clip-path="url(#pa92d385e20)" style="fill: none; stroke: #d31518; stroke-opacity: 0.5; stroke-width: 0.5"/>
    <path d="M 257.732293 30.529636 
L 257.732293 87.202364 
" clip-path="url(#pa92d385e20)" style="fill: none; stroke: #d31518; stroke-opacity: 0.5; stroke-width: 0.5"/>
    <path d="M 259.111734 30.529636 
L 259.111734 87.202364 
" clip-path="url(#pa92d385e20)" style="fill: none; stroke: #d31518; stroke-opacity: 0.5; stroke-width: 0.5"/>
    <path d="M 260.491175 30.529636 
L 260.491175 87.202364 
" clip-path="url(#pa92d385e20)" style="fill: none; stroke: #d31518; stroke-opacity: 0.5; stroke-width: 0.5"/>
    <path d="M 261.870616 30.529636 
L 261.870616 87.202364 
" clip-path="url(#pa92d385e20)" style="fill: none; stroke: #d31518; stroke-opacity: 0.5; stroke-width: 0.5"/>
    <path d="M 263.250057 30.529636 
L 263.250057 87.202364 
" clip-path="url(#pa92d385e20)" style="fill: none; stroke: #d31518; stroke-opacity: 0.5; stroke-width: 0.5"/>
    <path d="M 264.629499 30.529636 
L 264.629499 87.202364 
" clip-path="url(#pa92d385e20)" style="fill: none; stroke: #d31518; stroke-opacity: 0.5; stroke-width: 0.5"/>
    <path d="M 266.00894 30.529636 
L 266.00894 87.202364 
" clip-path="url(#pa92d385e20)" style="fill: none; stroke: #d31518; stroke-opacity: 0.5; stroke-width: 0.5"/>
    <path d="M 267.388381 30.529636 
L 267.388381 87.202364 
" clip-path="url(#pa92d385e20)" style="fill: none; stroke: #d31518; stroke-opacity: 0.5; stroke-width: 0.5"/>
    <path d="M 268.767822 30.529636 
L 268.767822 87.202364 
" clip-path="url(#pa92d385e20)" style="fill: none; stroke: #d31518; stroke-opacity: 0.5; stroke-width: 0.5"/>
    <path d="M 270.147264 30.529636 
L 270.147264 87.202364 
" clip-path="url(#pa92d385e20)" style="fill: none; stroke: #d31518; stroke-opacity: 0.5; stroke-width: 0.5"/>
    <path d="M 271.526705 30.529636 
L 271.526705 87.202364 
" clip-path="url(#pa92d385e20)" style="fill: none; stroke: #d31518; stroke-opacity: 0.5; stroke-width: 0.5"/>
    <path d="M 272.906146 30.529636 
L 272.906146 87.202364 
" clip-path="url(#pa92d385e20)" style="fill: none; stroke: #d31518; stroke-opacity: 0.5; stroke-width: 0.5"/>
    <path d="M 274.285587 30.529636 
L 274.285587 87.202364 
" clip-path="url(#pa92d385e20)" style="fill: none; stroke: #d31518; stroke-opacity: 0.5; stroke-width: 0.5"/>
    <path d="M 275.665028 30.529636 
L 275.665028 87.202364 
" clip-path="url(#pa92d385e20)" style="fill: none; stroke: #d31518; stroke-opacity: 0.5; stroke-width: 0.5"/>
    <path d="M 277.04447 30.529636 
L 277.04447 87.202364 
" clip-path="url(#pa92d385e20)" style="fill: none; stroke: #d31518; stroke-opacity: 0.5; stroke-width: 0.5"/>
    <path d="M 278.423911 30.529636 
L 278.423911 87.202364 
" clip-path="url(#pa92d385e20)" style="fill: none; stroke: #d31518; stroke-opacity: 0.5; stroke-width: 0.5"/>
    <path d="M 279.803352 30.529636 
L 279.803352 87.202364 
" clip-path="url(#pa92d385e20)" style="fill: none; stroke: #d31518; stroke-opacity: 0.5; stroke-width: 0.5"/>
    <path d="M 281.182793 30.529636 
L 281.182793 87.202364 
" clip-path="url(#pa92d385e20)" style="fill: none; stroke: #d31518; stroke-opacity: 0.5; stroke-width: 0.5"/>
    <path d="M 282.562234 30.529636 
L 282.562234 87.202364 
" clip-path="url(#pa92d385e20)" style="fill: none; stroke: #d31518; stroke-opacity: 0.5; stroke-width: 0.5"/>
    <path d="M 283.941676 30.529636 
L 283.941676 87.202364 
" clip-path="url(#pa92d385e20)" style="fill: none; stroke: #d31518; stroke-opacity: 0.5; stroke-width: 0.5"/>
    <path d="M 285.321117 30.529636 
L 285.321117 87.202364 
" clip-path="url(#pa92d385e20)" style="fill: none; stroke: #d31518; stroke-opacity: 0.5; stroke-width: 0.5"/>
    <path d="M 286.700558 30.529636 
L 286.700558 87.202364 
" clip-path="url(#pa92d385e20)" style="fill: none; stroke: #d31518; stroke-opacity: 0.5; stroke-width: 0.5"/>
    <path d="M 288.079999 30.529636 
L 288.079999 87.202364 
" clip-path="url(#pa92d385e20)" style="fill: none; stroke: #d31518; stroke-opacity: 0.5; stroke-width: 0.5"/>
    <path d="M 289.45944 30.529636 
L 289.45944 87.202364 
" clip-path="url(#pa92d385e20)" style="fill: none; stroke: #d31518; stroke-opacity: 0.5; stroke-width: 0.5"/>
    <path d="M 290.838882 30.529636 
L 290.838882 87.202364 
" clip-path="url(#pa92d385e20)" style="fill: none; stroke: #d31518; stroke-opacity: 0.5; stroke-width: 0.5"/>
    <path d="M 292.218323 30.529636 
L 292.218323 87.202364 
" clip-path="url(#pa92d385e20)" style="fill: none; stroke: #d31518; stroke-opacity: 0.5; stroke-width: 0.5"/>
    <path d="M 293.597764 30.529636 
L 293.597764 87.202364 
" clip-path="url(#pa92d385e20)" style="fill: none; stroke: #d31518; stroke-opacity: 0.5; stroke-width: 0.5"/>
    <path d="M 294.977205 30.529636 
L 294.977205 87.202364 
" clip-path="url(#pa92d385e20)" style="fill: none; stroke: #d31518; stroke-opacity: 0.5; stroke-width: 0.5"/>
    <path d="M 296.356647 30.529636 
L 296.356647 87.202364 
" clip-path="url(#pa92d385e20)" style="fill: none; stroke: #d31518; stroke-opacity: 0.5; stroke-width: 0.5"/>
    <path d="M 297.736088 30.529636 
L 297.736088 87.202364 
" clip-path="url(#pa92d385e20)" style="fill: none; stroke: #d31518; stroke-opacity: 0.5; stroke-width: 0.5"/>
    <path d="M 299.115529 30.529636 
L 299.115529 87.202364 
" clip-path="url(#pa92d385e20)" style="fill: none; stroke: #d31518; stroke-opacity: 0.5; stroke-width: 0.5"/>
    <path d="M 300.49497 30.529636 
L 300.49497 87.202364 
" clip-path="url(#pa92d385e20)" style="fill: none; stroke: #d31518; stroke-opacity: 0.5; stroke-width: 0.5"/>
    <path d="M 301.874411 30.529636 
L 301.874411 87.202364 
" clip-path="url(#pa92d385e20)" style="fill: none; stroke: #d31518; stroke-opacity: 0.5; stroke-width: 0.5"/>
    <path d="M 303.253853 30.529636 
L 303.253853 87.202364 
" clip-path="url(#pa92d385e20)" style="fill: none; stroke: #d31518; stroke-opacity: 0.5; stroke-width: 0.5"/>
    <path d="M 304.633294 30.529636 
L 304.633294 87.202364 
" clip-path="url(#pa92d385e20)" style="fill: none; stroke: #d31518; stroke-opacity: 0.5; stroke-width: 0.5"/>
    <path d="M 306.012735 30.529636 
L 306.012735 87.202364 
" clip-path="url(#pa92d385e20)" style="fill: none; stroke: #d31518; stroke-opacity: 0.5; stroke-width: 0.5"/>
    <path d="M 307.392176 30.529636 
L 307.392176 87.202364 
" clip-path="url(#pa92d385e20)" style="fill: none; stroke: #d31518; stroke-opacity: 0.5; stroke-width: 0.5"/>
    <path d="M 308.771617 30.529636 
L 308.771617 87.202364 
" clip-path="url(#pa92d385e20)" style="fill: none; stroke: #d31518; stroke-opacity: 0.5; stroke-width: 0.5"/>
    <path d="M 310.151059 30.529636 
L 310.151059 87.202364 
" clip-path="url(#pa92d385e20)" style="fill: none; stroke: #d31518; stroke-opacity: 0.5; stroke-width: 0.5"/>
    <path d="M 311.5305 30.529636 
L 311.5305 87.202364 
" clip-path="url(#pa92d385e20)" style="fill: none; stroke: #d31518; stroke-opacity: 0.5; stroke-width: 0.5"/>
    <path d="M 312.909941 30.529636 
L 312.909941 87.202364 
" clip-path="url(#pa92d385e20)" style="fill: none; stroke: #d31518; stroke-opacity: 0.5; stroke-width: 0.5"/>
    <path d="M 314.289382 30.529636 
L 314.289382 87.202364 
" clip-path="url(#pa92d385e20)" style="fill: none; stroke: #d31518; stroke-opacity: 0.5; stroke-width: 0.5"/>
    <path d="M 315.668823 30.529636 
L 315.668823 87.202364 
" clip-path="url(#pa92d385e20)" style="fill: none; stroke: #d31518; stroke-opacity: 0.5; stroke-width: 0.5"/>
    <path d="M 317.048265 30.529636 
L 317.048265 87.202364 
" clip-path="url(#pa92d385e20)" style="fill: none; stroke: #d31518; stroke-opacity: 0.5; stroke-width: 0.5"/>
    <path d="M 318.427706 30.529636 
L 318.427706 87.202364 
" clip-path="url(#pa92d385e20)" style="fill: none; stroke: #d31518; stroke-opacity: 0.5; stroke-width: 0.5"/>
    <path d="M 319.807147 30.529636 
L 319.807147 87.202364 
" clip-path="url(#pa92d385e20)" style="fill: none; stroke: #d31518; stroke-opacity: 0.5; stroke-width: 0.5"/>
    <path d="M 321.186588 30.529636 
L 321.186588 87.202364 
" clip-path="url(#pa92d385e20)" style="fill: none; stroke: #d31518; stroke-opacity: 0.5; stroke-width: 0.5"/>
    <path d="M 322.566029 30.529636 
L 322.566029 87.202364 
" clip-path="url(#pa92d385e20)" style="fill: none; stroke: #d31518; stroke-opacity: 0.5; stroke-width: 0.5"/>
    <path d="M 323.945471 30.529636 
L 323.945471 87.202364 
" clip-path="url(#pa92d385e20)" style="fill: none; stroke: #d31518; stroke-opacity: 0.5; stroke-width: 0.5"/>
    <path d="M 325.324912 30.529636 
L 325.324912 87.202364 
" clip-path="url(#pa92d385e20)" style="fill: none; stroke: #d31518; stroke-opacity: 0.5; stroke-width: 0.5"/>
    <path d="M 326.704353 30.529636 
L 326.704353 87.202364 
" clip-path="url(#pa92d385e20)" style="fill: none; stroke: #d31518; stroke-opacity: 0.5; stroke-width: 0.5"/>
    <path d="M 328.083794 30.529636 
L 328.083794 87.202364 
" clip-path="url(#pa92d385e20)" style="fill: none; stroke: #d31518; stroke-opacity: 0.5; stroke-width: 0.5"/>
    <path d="M 329.463236 30.529636 
L 329.463236 87.202364 
" clip-path="url(#pa92d385e20)" style="fill: none; stroke: #d31518; stroke-opacity: 0.5; stroke-width: 0.5"/>
    <path d="M 330.842677 30.529636 
L 330.842677 87.202364 
" clip-path="url(#pa92d385e20)" style="fill: none; stroke: #d31518; stroke-opacity: 0.5; stroke-width: 0.5"/>
    <path d="M 332.222118 30.529636 
L 332.222118 87.202364 
" clip-path="url(#pa92d385e20)" style="fill: none; stroke: #d31518; stroke-opacity: 0.5; stroke-width: 0.5"/>
    <path d="M 333.601559 30.529636 
L 333.601559 87.202364 
" clip-path="url(#pa92d385e20)" style="fill: none; stroke: #d31518; stroke-opacity: 0.5; stroke-width: 0.5"/>
    <path d="M 334.981 30.529636 
L 334.981 87.202364 
" clip-path="url(#pa92d385e20)" style="fill: none; stroke: #d31518; stroke-opacity: 0.5; stroke-width: 0.5"/>
    <path d="M 336.360442 30.529636 
L 336.360442 87.202364 
" clip-path="url(#pa92d385e20)" style="fill: none; stroke: #d31518; stroke-opacity: 0.5; stroke-width: 0.5"/>
    <path d="M 337.739883 30.529636 
L 337.739883 87.202364 
" clip-path="url(#pa92d385e20)" style="fill: none; stroke: #d31518; stroke-opacity: 0.5; stroke-width: 0.5"/>
    <path d="M 339.119324 30.529636 
L 339.119324 87.202364 
" clip-path="url(#pa92d385e20)" style="fill: none; stroke: #d31518; stroke-opacity: 0.5; stroke-width: 0.5"/>
    <path d="M 340.498765 30.529636 
L 340.498765 87.202364 
" clip-path="url(#pa92d385e20)" style="fill: none; stroke: #d31518; stroke-opacity: 0.5; stroke-width: 0.5"/>
    <path d="M 341.878206 30.529636 
L 341.878206 87.202364 
" clip-path="url(#pa92d385e20)" style="fill: none; stroke: #d31518; stroke-opacity: 0.5; stroke-width: 0.5"/>
    <path d="M 343.257648 30.529636 
L 343.257648 87.202364 
" clip-path="url(#pa92d385e20)" style="fill: none; stroke: #d31518; stroke-opacity: 0.5; stroke-width: 0.5"/>
    <path d="M 344.637089 30.529636 
L 344.637089 87.202364 
" clip-path="url(#pa92d385e20)" style="fill: none; stroke: #d31518; stroke-opacity: 0.5; stroke-width: 0.5"/>
    <path d="M 346.01653 30.529636 
L 346.01653 87.202364 
" clip-path="url(#pa92d385e20)" style="fill: none; stroke: #d31518; stroke-opacity: 0.5; stroke-width: 0.5"/>
    <path d="M 347.395971 30.529636 
L 347.395971 87.202364 
" clip-path="url(#pa92d385e20)" style="fill: none; stroke: #d31518; stroke-opacity: 0.5; stroke-width: 0.5"/>
    <path d="M 348.775412 30.529636 
L 348.775412 87.202364 
" clip-path="url(#pa92d385e20)" style="fill: none; stroke: #d31518; stroke-opacity: 0.5; stroke-width: 0.5"/>
    <path d="M 350.154854 30.529636 
L 350.154854 87.202364 
" clip-path="url(#pa92d385e20)" style="fill: none; stroke: #d31518; stroke-opacity: 0.5; stroke-width: 0.5"/>
    <path d="M 351.534295 30.529636 
L 351.534295 87.202364 
" clip-path="url(#pa92d385e20)" style="fill: none; stroke: #d31518; stroke-opacity: 0.5; stroke-width: 0.5"/>
    <path d="M 352.913736 30.529636 
L 352.913736 87.202364 
" clip-path="url(#pa92d385e20)" style="fill: none; stroke: #d31518; stroke-opacity: 0.5; stroke-width: 0.5"/>
    <path d="M 354.293177 30.529636 
L 354.293177 87.202364 
" clip-path="url(#pa92d385e20)" style="fill: none; stroke: #d31518; stroke-opacity: 0.5; stroke-width: 0.5"/>
    <path d="M 355.672619 30.529636 
L 355.672619 87.202364 
" clip-path="url(#pa92d385e20)" style="fill: none; stroke: #d31518; stroke-opacity: 0.5; stroke-width: 0.5"/>
    <path d="M 357.05206 30.529636 
L 357.05206 87.202364 
" clip-path="url(#pa92d385e20)" style="fill: none; stroke: #d31518; stroke-opacity: 0.5; stroke-width: 0.5"/>
    <path d="M 358.431501 30.529636 
L 358.431501 87.202364 
" clip-path="url(#pa92d385e20)" style="fill: none; stroke: #d31518; stroke-opacity: 0.5; stroke-width: 0.5"/>
    <path d="M 359.810942 30.529636 
L 359.810942 87.202364 
" clip-path="url(#pa92d385e20)" style="fill: none; stroke: #d31518; stroke-opacity: 0.5; stroke-width: 0.5"/>
    <path d="M 361.190383 30.529636 
L 361.190383 87.202364 
" clip-path="url(#pa92d385e20)" style="fill: none; stroke: #d31518; stroke-opacity: 0.5; stroke-width: 0.5"/>
    <path d="M 362.569825 30.529636 
L 362.569825 87.202364 
" clip-path="url(#pa92d385e20)" style="fill: none; stroke: #d31518; stroke-opacity: 0.5; stroke-width: 0.5"/>
    <path d="M 363.949266 30.529636 
L 363.949266 87.202364 
" clip-path="url(#pa92d385e20)" style="fill: none; stroke: #d31518; stroke-opacity: 0.5; stroke-width: 0.5"/>
    <path d="M 365.328707 30.529636 
L 365.328707 87.202364 
" clip-path="url(#pa92d385e20)" style="fill: none; stroke: #d31518; stroke-opacity: 0.5; stroke-width: 0.5"/>
    <path d="M 366.708148 30.529636 
L 366.708148 87.202364 
" clip-path="url(#pa92d385e20)" style="fill: none; stroke: #d31518; stroke-opacity: 0.5; stroke-width: 0.5"/>
    <path d="M 368.087589 30.529636 
L 368.087589 87.202364 
" clip-path="url(#pa92d385e20)" style="fill: none; stroke: #d31518; stroke-opacity: 0.5; stroke-width: 0.5"/>
   </g>
   <g id="line2d_9">
    <path d="M 16.330081 90.036 
L 16.330081 27.696 
" clip-path="url(#pa92d385e20)" style="fill: none; stroke-dasharray: 7.4,3.2; stroke-dashoffset: 0; stroke: #80c21d; stroke-width: 2"/>
   </g>
   <g id="patch_3">
    <path d="M 7.2 90.036 
L 7.2 27.696 
" style="fill: none; stroke: #cccccc; stroke-width: 1.25; stroke-linejoin: miter; stroke-linecap: square"/>
   </g>
   <g id="patch_4">
    <path d="M 7.2 90.036 
L 377.21767 90.036 
" style="fill: none; stroke: #cccccc; stroke-width: 1.25; stroke-linejoin: miter; stroke-linecap: square"/>
   </g>
   <g id="PathCollection_1">
    <defs>
     <path id="m8996a7f3e7" d="M 0 1.5 
C 0.397805 1.5 0.77937 1.341951 1.06066 1.06066 
C 1.341951 0.77937 1.5 0.397805 1.5 0 
C 1.5 -0.397805 1.341951 -0.77937 1.06066 -1.06066 
C 0.77937 -1.341951 0.397805 -1.5 0 -1.5 
C -0.397805 -1.5 -0.77937 -1.341951 -1.06066 -1.06066 
C -1.341951 -0.77937 -1.5 -0.397805 -1.5 0 
C -1.5 0.397805 -1.341951 0.77937 -1.06066 1.06066 
C -0.77937 1.341951 -0.397805 1.5 0 1.5 
z
"/>
    </defs>
    <g clip-path="url(#pa92d385e20)">
     <use xlink:href="#m8996a7f3e7" x="17.517164" y="53.998592" style="fill: #6ba5d7; fill-opacity: 0.4"/>
     <use xlink:href="#m8996a7f3e7" x="149.038921" y="60.480258" style="fill: #6ba5d7; fill-opacity: 0.4"/>
     <use xlink:href="#m8996a7f3e7" x="16.330081" y="53.499221" style="fill: #6ba5d7; fill-opacity: 0.4"/>
     <use xlink:href="#m8996a7f3e7" x="264.683731" y="59.838227" style="fill: #6ba5d7; fill-opacity: 0.4"/>
     <use xlink:href="#m8996a7f3e7" x="73.454017" y="63.85581" style="fill: #6ba5d7; fill-opacity: 0.4"/>
     <use xlink:href="#m8996a7f3e7" x="16.330081" y="59.721465" style="fill: #6ba5d7; fill-opacity: 0.4"/>
     <use xlink:href="#m8996a7f3e7" x="16.330081" y="57.598457" style="fill: #6ba5d7; fill-opacity: 0.4"/>
     <use xlink:href="#m8996a7f3e7" x="60.380204" y="60.490107" style="fill: #6ba5d7; fill-opacity: 0.4"/>
     <use xlink:href="#m8996a7f3e7" x="16.330081" y="58.392815" style="fill: #6ba5d7; fill-opacity: 0.4"/>
     <use xlink:href="#m8996a7f3e7" x="81.518905" y="59.383046" style="fill: #6ba5d7; fill-opacity: 0.4"/>
     <use xlink:href="#m8996a7f3e7" x="59.53706" y="63.869803" style="fill: #6ba5d7; fill-opacity: 0.4"/>
     <use xlink:href="#m8996a7f3e7" x="16.330081" y="57.575025" style="fill: #6ba5d7; fill-opacity: 0.4"/>
     <use xlink:href="#m8996a7f3e7" x="16.330081" y="64.093385" style="fill: #6ba5d7; fill-opacity: 0.4"/>
     <use xlink:href="#m8996a7f3e7" x="16.330081" y="63.460465" style="fill: #6ba5d7; fill-opacity: 0.4"/>
     <use xlink:href="#m8996a7f3e7" x="16.330081" y="55.417931" style="fill: #6ba5d7; fill-opacity: 0.4"/>
     <use xlink:href="#m8996a7f3e7" x="94.519985" y="53.984906" style="fill: #6ba5d7; fill-opacity: 0.4"/>
     <use xlink:href="#m8996a7f3e7" x="35.877013" y="54.341" style="fill: #6ba5d7; fill-opacity: 0.4"/>
     <use xlink:href="#m8996a7f3e7" x="16.330081" y="53.405263" style="fill: #6ba5d7; fill-opacity: 0.4"/>
     <use xlink:href="#m8996a7f3e7" x="32.14164" y="54.269195" style="fill: #6ba5d7; fill-opacity: 0.4"/>
     <use xlink:href="#m8996a7f3e7" x="51.50987" y="60.940299" style="fill: #6ba5d7; fill-opacity: 0.4"/>
     <use xlink:href="#m8996a7f3e7" x="16.330081" y="54.005618" style="fill: #6ba5d7; fill-opacity: 0.4"/>
     <use xlink:href="#m8996a7f3e7" x="30.365308" y="56.814171" style="fill: #6ba5d7; fill-opacity: 0.4"/>
     <use xlink:href="#m8996a7f3e7" x="21.644584" y="62.775005" style="fill: #6ba5d7; fill-opacity: 0.4"/>
     <use xlink:href="#m8996a7f3e7" x="16.330081" y="53.462504" style="fill: #6ba5d7; fill-opacity: 0.4"/>
     <use xlink:href="#m8996a7f3e7" x="48.996357" y="62.430357" style="fill: #6ba5d7; fill-opacity: 0.4"/>
     <use xlink:href="#m8996a7f3e7" x="67.530163" y="56.393423" style="fill: #6ba5d7; fill-opacity: 0.4"/>
     <use xlink:href="#m8996a7f3e7" x="115.213538" y="54.538072" style="fill: #6ba5d7; fill-opacity: 0.4"/>
     <use xlink:href="#m8996a7f3e7" x="112.543063" y="61.095926" style="fill: #6ba5d7; fill-opacity: 0.4"/>
     <use xlink:href="#m8996a7f3e7" x="16.330081" y="60.327509" style="fill: #6ba5d7; fill-opacity: 0.4"/>
     <use xlink:href="#m8996a7f3e7" x="16.330081" y="63.144474" style="fill: #6ba5d7; fill-opacity: 0.4"/>
     <use xlink:href="#m8996a7f3e7" x="63.353218" y="61.530423" style="fill: #6ba5d7; fill-opacity: 0.4"/>
     <use xlink:href="#m8996a7f3e7" x="63.239155" y="62.305818" style="fill: #6ba5d7; fill-opacity: 0.4"/>
     <use xlink:href="#m8996a7f3e7" x="63.354352" y="56.395461" style="fill: #6ba5d7; fill-opacity: 0.4"/>
     <use xlink:href="#m8996a7f3e7" x="368.087589" y="55.209924" style="fill: #6ba5d7; fill-opacity: 0.4"/>
     <use xlink:href="#m8996a7f3e7" x="68.452847" y="61.706604" style="fill: #6ba5d7; fill-opacity: 0.4"/>
     <use xlink:href="#m8996a7f3e7" x="120.008145" y="62.343832" style="fill: #6ba5d7; fill-opacity: 0.4"/>
     <use xlink:href="#m8996a7f3e7" x="103.431215" y="64.425653" style="fill: #6ba5d7; fill-opacity: 0.4"/>
     <use xlink:href="#m8996a7f3e7" x="75.80263" y="57.875561" style="fill: #6ba5d7; fill-opacity: 0.4"/>
     <use xlink:href="#m8996a7f3e7" x="16.330081" y="57.415383" style="fill: #6ba5d7; fill-opacity: 0.4"/>
     <use xlink:href="#m8996a7f3e7" x="85.624586" y="61.999015" style="fill: #6ba5d7; fill-opacity: 0.4"/>
     <use xlink:href="#m8996a7f3e7" x="16.330081" y="57.06158" style="fill: #6ba5d7; fill-opacity: 0.4"/>
     <use xlink:href="#m8996a7f3e7" x="16.330081" y="63.748438" style="fill: #6ba5d7; fill-opacity: 0.4"/>
     <use xlink:href="#m8996a7f3e7" x="16.330081" y="62.928446" style="fill: #6ba5d7; fill-opacity: 0.4"/>
     <use xlink:href="#m8996a7f3e7" x="23.805256" y="58.06118" style="fill: #6ba5d7; fill-opacity: 0.4"/>
     <use xlink:href="#m8996a7f3e7" x="227.660285" y="61.70951" style="fill: #6ba5d7; fill-opacity: 0.4"/>
     <use xlink:href="#m8996a7f3e7" x="16.330081" y="61.751128" style="fill: #6ba5d7; fill-opacity: 0.4"/>
     <use xlink:href="#m8996a7f3e7" x="78.986193" y="54.367589" style="fill: #6ba5d7; fill-opacity: 0.4"/>
     <use xlink:href="#m8996a7f3e7" x="16.330081" y="63.428754" style="fill: #6ba5d7; fill-opacity: 0.4"/>
     <use xlink:href="#m8996a7f3e7" x="16.330081" y="58.925533" style="fill: #6ba5d7; fill-opacity: 0.4"/>
     <use xlink:href="#m8996a7f3e7" x="115.752153" y="62.566247" style="fill: #6ba5d7; fill-opacity: 0.4"/>
     <use xlink:href="#m8996a7f3e7" x="22.198899" y="56.826344" style="fill: #6ba5d7; fill-opacity: 0.4"/>
     <use xlink:href="#m8996a7f3e7" x="16.330081" y="63.349076" style="fill: #6ba5d7; fill-opacity: 0.4"/>
     <use xlink:href="#m8996a7f3e7" x="16.330081" y="57.610151" style="fill: #6ba5d7; fill-opacity: 0.4"/>
     <use xlink:href="#m8996a7f3e7" x="78.377906" y="53.321567" style="fill: #6ba5d7; fill-opacity: 0.4"/>
     <use xlink:href="#m8996a7f3e7" x="16.330081" y="63.46082" style="fill: #6ba5d7; fill-opacity: 0.4"/>
     <use xlink:href="#m8996a7f3e7" x="36.092926" y="54.23342" style="fill: #6ba5d7; fill-opacity: 0.4"/>
     <use xlink:href="#m8996a7f3e7" x="20.490827" y="56.818002" style="fill: #6ba5d7; fill-opacity: 0.4"/>
     <use xlink:href="#m8996a7f3e7" x="16.330081" y="63.967248" style="fill: #6ba5d7; fill-opacity: 0.4"/>
     <use xlink:href="#m8996a7f3e7" x="212.073914" y="63.973427" style="fill: #6ba5d7; fill-opacity: 0.4"/>
     <use xlink:href="#m8996a7f3e7" x="74.207402" y="59.698385" style="fill: #6ba5d7; fill-opacity: 0.4"/>
     <use xlink:href="#m8996a7f3e7" x="16.330081" y="60.360315" style="fill: #6ba5d7; fill-opacity: 0.4"/>
     <use xlink:href="#m8996a7f3e7" x="33.353511" y="58.281653" style="fill: #6ba5d7; fill-opacity: 0.4"/>
     <use xlink:href="#m8996a7f3e7" x="16.330081" y="56.522138" style="fill: #6ba5d7; fill-opacity: 0.4"/>
     <use xlink:href="#m8996a7f3e7" x="94.157936" y="56.923991" style="fill: #6ba5d7; fill-opacity: 0.4"/>
     <use xlink:href="#m8996a7f3e7" x="16.330081" y="60.821418" style="fill: #6ba5d7; fill-opacity: 0.4"/>
     <use xlink:href="#m8996a7f3e7" x="16.330081" y="61.726551" style="fill: #6ba5d7; fill-opacity: 0.4"/>
     <use xlink:href="#m8996a7f3e7" x="62.435829" y="62.170916" style="fill: #6ba5d7; fill-opacity: 0.4"/>
     <use xlink:href="#m8996a7f3e7" x="95.374232" y="62.14869" style="fill: #6ba5d7; fill-opacity: 0.4"/>
     <use xlink:href="#m8996a7f3e7" x="16.330081" y="54.232507" style="fill: #6ba5d7; fill-opacity: 0.4"/>
     <use xlink:href="#m8996a7f3e7" x="16.330081" y="58.802757" style="fill: #6ba5d7; fill-opacity: 0.4"/>
     <use xlink:href="#m8996a7f3e7" x="16.330081" y="53.85113" style="fill: #6ba5d7; fill-opacity: 0.4"/>
     <use xlink:href="#m8996a7f3e7" x="16.330081" y="59.427387" style="fill: #6ba5d7; fill-opacity: 0.4"/>
     <use xlink:href="#m8996a7f3e7" x="177.517484" y="58.203275" style="fill: #6ba5d7; fill-opacity: 0.4"/>
     <use xlink:href="#m8996a7f3e7" x="53.30524" y="63.260451" style="fill: #6ba5d7; fill-opacity: 0.4"/>
     <use xlink:href="#m8996a7f3e7" x="16.330081" y="57.176189" style="fill: #6ba5d7; fill-opacity: 0.4"/>
     <use xlink:href="#m8996a7f3e7" x="100.131621" y="54.525629" style="fill: #6ba5d7; fill-opacity: 0.4"/>
     <use xlink:href="#m8996a7f3e7" x="210.084662" y="54.819473" style="fill: #6ba5d7; fill-opacity: 0.4"/>
     <use xlink:href="#m8996a7f3e7" x="110.594996" y="61.830104" style="fill: #6ba5d7; fill-opacity: 0.4"/>
     <use xlink:href="#m8996a7f3e7" x="16.330081" y="60.205948" style="fill: #6ba5d7; fill-opacity: 0.4"/>
     <use xlink:href="#m8996a7f3e7" x="16.330081" y="54.344907" style="fill: #6ba5d7; fill-opacity: 0.4"/>
     <use xlink:href="#m8996a7f3e7" x="132.000096" y="54.15204" style="fill: #6ba5d7; fill-opacity: 0.4"/>
     <use xlink:href="#m8996a7f3e7" x="16.330081" y="61.143894" style="fill: #6ba5d7; fill-opacity: 0.4"/>
     <use xlink:href="#m8996a7f3e7" x="56.851155" y="54.023463" style="fill: #6ba5d7; fill-opacity: 0.4"/>
     <use xlink:href="#m8996a7f3e7" x="87.054798" y="62.514137" style="fill: #6ba5d7; fill-opacity: 0.4"/>
     <use xlink:href="#m8996a7f3e7" x="16.330081" y="61.203662" style="fill: #6ba5d7; fill-opacity: 0.4"/>
     <use xlink:href="#m8996a7f3e7" x="16.330081" y="54.120779" style="fill: #6ba5d7; fill-opacity: 0.4"/>
     <use xlink:href="#m8996a7f3e7" x="16.330081" y="54.160324" style="fill: #6ba5d7; fill-opacity: 0.4"/>
     <use xlink:href="#m8996a7f3e7" x="16.330081" y="64.381838" style="fill: #6ba5d7; fill-opacity: 0.4"/>
     <use xlink:href="#m8996a7f3e7" x="16.330081" y="57.440917" style="fill: #6ba5d7; fill-opacity: 0.4"/>
     <use xlink:href="#m8996a7f3e7" x="16.330081" y="57.399788" style="fill: #6ba5d7; fill-opacity: 0.4"/>
     <use xlink:href="#m8996a7f3e7" x="165.370556" y="62.411441" style="fill: #6ba5d7; fill-opacity: 0.4"/>
     <use xlink:href="#m8996a7f3e7" x="16.330081" y="63.935359" style="fill: #6ba5d7; fill-opacity: 0.4"/>
     <use xlink:href="#m8996a7f3e7" x="16.330081" y="64.374601" style="fill: #6ba5d7; fill-opacity: 0.4"/>
     <use xlink:href="#m8996a7f3e7" x="28.266802" y="61.737927" style="fill: #6ba5d7; fill-opacity: 0.4"/>
     <use xlink:href="#m8996a7f3e7" x="147.919501" y="57.463459" style="fill: #6ba5d7; fill-opacity: 0.4"/>
     <use xlink:href="#m8996a7f3e7" x="16.330081" y="54.14517" style="fill: #6ba5d7; fill-opacity: 0.4"/>
     <use xlink:href="#m8996a7f3e7" x="122.527875" y="62.007334" style="fill: #6ba5d7; fill-opacity: 0.4"/>
     <use xlink:href="#m8996a7f3e7" x="17.264368" y="59.527986" style="fill: #6ba5d7; fill-opacity: 0.4"/>
     <use xlink:href="#m8996a7f3e7" x="16.330081" y="58.007091" style="fill: #6ba5d7; fill-opacity: 0.4"/>
     <use xlink:href="#m8996a7f3e7" x="58.520503" y="63.471842" style="fill: #6ba5d7; fill-opacity: 0.4"/>
    </g>
   </g>
   <g id="text_10">
    <!-- Activation Quantization (Asymmetric) -->
    <g style="fill: #262626" transform="translate(120.86946 13.02375) scale(0.08 -0.08)">
     <defs>
      <path id="Arial-BoldMT-41" d="M 4597 0 
L 3591 0 
L 3191 1041 
L 1359 1041 
L 981 0 
L 0 0 
L 1784 4581 
L 2763 4581 
L 4597 0 
z
M 2894 1813 
L 2263 3513 
L 1644 1813 
L 2894 1813 
z
" transform="scale(0.015625)"/>
      <path id="Arial-BoldMT-63" d="M 3353 2338 
L 2488 2181 
Q 2444 2441 2289 2572 
Q 2134 2703 1888 2703 
Q 1559 2703 1364 2476 
Q 1169 2250 1169 1719 
Q 1169 1128 1367 884 
Q 1566 641 1900 641 
Q 2150 641 2309 783 
Q 2469 925 2534 1272 
L 3397 1125 
Q 3263 531 2881 228 
Q 2500 -75 1859 -75 
Q 1131 -75 698 384 
Q 266 844 266 1656 
Q 266 2478 700 2936 
Q 1134 3394 1875 3394 
Q 2481 3394 2839 3133 
Q 3197 2872 3353 2338 
z
" transform="scale(0.015625)"/>
      <path id="Arial-BoldMT-74" d="M 1981 3319 
L 1981 2619 
L 1381 2619 
L 1381 1281 
Q 1381 875 1398 808 
Q 1416 741 1477 697 
Q 1538 653 1625 653 
Q 1747 653 1978 738 
L 2053 56 
Q 1747 -75 1359 -75 
Q 1122 -75 931 4 
Q 741 84 652 211 
Q 563 338 528 553 
Q 500 706 500 1172 
L 500 2619 
L 97 2619 
L 97 3319 
L 500 3319 
L 500 3978 
L 1381 4491 
L 1381 3319 
L 1981 3319 
z
" transform="scale(0.015625)"/>
      <path id="Arial-BoldMT-69" d="M 459 3769 
L 459 4581 
L 1338 4581 
L 1338 3769 
L 459 3769 
z
M 459 0 
L 459 3319 
L 1338 3319 
L 1338 0 
L 459 0 
z
" transform="scale(0.015625)"/>
      <path id="Arial-BoldMT-76" d="M 1372 0 
L 34 3319 
L 956 3319 
L 1581 1625 
L 1763 1059 
Q 1834 1275 1853 1344 
Q 1897 1484 1947 1625 
L 2578 3319 
L 3481 3319 
L 2163 0 
L 1372 0 
z
" transform="scale(0.015625)"/>
      <path id="Arial-BoldMT-61" d="M 1116 2306 
L 319 2450 
Q 453 2931 781 3162 
Q 1109 3394 1756 3394 
Q 2344 3394 2631 3255 
Q 2919 3116 3036 2902 
Q 3153 2688 3153 2116 
L 3144 1091 
Q 3144 653 3186 445 
Q 3228 238 3344 0 
L 2475 0 
Q 2441 88 2391 259 
Q 2369 338 2359 363 
Q 2134 144 1878 34 
Q 1622 -75 1331 -75 
Q 819 -75 523 203 
Q 228 481 228 906 
Q 228 1188 362 1408 
Q 497 1628 739 1745 
Q 981 1863 1438 1950 
Q 2053 2066 2291 2166 
L 2291 2253 
Q 2291 2506 2166 2614 
Q 2041 2722 1694 2722 
Q 1459 2722 1328 2630 
Q 1197 2538 1116 2306 
z
M 2291 1594 
Q 2122 1538 1756 1459 
Q 1391 1381 1278 1306 
Q 1106 1184 1106 997 
Q 1106 813 1243 678 
Q 1381 544 1594 544 
Q 1831 544 2047 700 
Q 2206 819 2256 991 
Q 2291 1103 2291 1419 
L 2291 1594 
z
" transform="scale(0.015625)"/>
      <path id="Arial-BoldMT-6f" d="M 256 1706 
Q 256 2144 472 2553 
Q 688 2963 1083 3178 
Q 1478 3394 1966 3394 
Q 2719 3394 3200 2905 
Q 3681 2416 3681 1669 
Q 3681 916 3195 420 
Q 2709 -75 1972 -75 
Q 1516 -75 1102 131 
Q 688 338 472 736 
Q 256 1134 256 1706 
z
M 1156 1659 
Q 1156 1166 1390 903 
Q 1625 641 1969 641 
Q 2313 641 2545 903 
Q 2778 1166 2778 1666 
Q 2778 2153 2545 2415 
Q 2313 2678 1969 2678 
Q 1625 2678 1390 2415 
Q 1156 2153 1156 1659 
z
" transform="scale(0.015625)"/>
      <path id="Arial-BoldMT-6e" d="M 3478 0 
L 2600 0 
L 2600 1694 
Q 2600 2231 2544 2389 
Q 2488 2547 2361 2634 
Q 2234 2722 2056 2722 
Q 1828 2722 1647 2597 
Q 1466 2472 1398 2265 
Q 1331 2059 1331 1503 
L 1331 0 
L 453 0 
L 453 3319 
L 1269 3319 
L 1269 2831 
Q 1703 3394 2363 3394 
Q 2653 3394 2893 3289 
Q 3134 3184 3257 3021 
Q 3381 2859 3429 2653 
Q 3478 2447 3478 2063 
L 3478 0 
z
" transform="scale(0.015625)"/>
      <path id="Arial-BoldMT-20" transform="scale(0.015625)"/>
      <path id="Arial-BoldMT-51" d="M 4153 581 
Q 4494 338 4894 194 
L 4553 -459 
Q 4344 -397 4144 -288 
Q 4100 -266 3528 119 
Q 3078 -78 2531 -78 
Q 1475 -78 876 544 
Q 278 1166 278 2291 
Q 278 3413 878 4036 
Q 1478 4659 2506 4659 
Q 3525 4659 4122 4036 
Q 4719 3413 4719 2291 
Q 4719 1697 4553 1247 
Q 4428 903 4153 581 
z
M 3409 1103 
Q 3588 1313 3677 1609 
Q 3766 1906 3766 2291 
Q 3766 3084 3416 3476 
Q 3066 3869 2500 3869 
Q 1934 3869 1582 3475 
Q 1231 3081 1231 2291 
Q 1231 1488 1582 1089 
Q 1934 691 2472 691 
Q 2672 691 2850 756 
Q 2569 941 2278 1044 
L 2538 1572 
Q 2994 1416 3409 1103 
z
" transform="scale(0.015625)"/>
      <path id="Arial-BoldMT-75" d="M 2644 0 
L 2644 497 
Q 2463 231 2167 78 
Q 1872 -75 1544 -75 
Q 1209 -75 943 72 
Q 678 219 559 484 
Q 441 750 441 1219 
L 441 3319 
L 1319 3319 
L 1319 1794 
Q 1319 1094 1367 936 
Q 1416 778 1544 686 
Q 1672 594 1869 594 
Q 2094 594 2272 717 
Q 2450 841 2515 1023 
Q 2581 1206 2581 1919 
L 2581 3319 
L 3459 3319 
L 3459 0 
L 2644 0 
z
" transform="scale(0.015625)"/>
      <path id="Arial-BoldMT-7a" d="M 106 0 
L 106 684 
L 1350 2113 
Q 1656 2463 1803 2609 
Q 1650 2600 1400 2597 
L 228 2591 
L 228 3319 
L 2972 3319 
L 2972 2697 
L 1703 1234 
L 1256 750 
Q 1622 772 1709 772 
L 3069 772 
L 3069 0 
L 106 0 
z
" transform="scale(0.015625)"/>
      <path id="Arial-BoldMT-28" d="M 1916 -1347 
L 1313 -1347 
Q 834 -625 584 153 
Q 334 931 334 1659 
Q 334 2563 644 3369 
Q 913 4069 1325 4659 
L 1925 4659 
Q 1497 3713 1336 3048 
Q 1175 2384 1175 1641 
Q 1175 1128 1270 590 
Q 1366 53 1531 -431 
Q 1641 -750 1916 -1347 
z
" transform="scale(0.015625)"/>
      <path id="Arial-BoldMT-73" d="M 150 947 
L 1031 1081 
Q 1088 825 1259 692 
Q 1431 559 1741 559 
Q 2081 559 2253 684 
Q 2369 772 2369 919 
Q 2369 1019 2306 1084 
Q 2241 1147 2013 1200 
Q 950 1434 666 1628 
Q 272 1897 272 2375 
Q 272 2806 612 3100 
Q 953 3394 1669 3394 
Q 2350 3394 2681 3172 
Q 3013 2950 3138 2516 
L 2309 2363 
Q 2256 2556 2107 2659 
Q 1959 2763 1684 2763 
Q 1338 2763 1188 2666 
Q 1088 2597 1088 2488 
Q 1088 2394 1175 2328 
Q 1294 2241 1995 2081 
Q 2697 1922 2975 1691 
Q 3250 1456 3250 1038 
Q 3250 581 2869 253 
Q 2488 -75 1741 -75 
Q 1063 -75 667 200 
Q 272 475 150 947 
z
" transform="scale(0.015625)"/>
      <path id="Arial-BoldMT-79" d="M 44 3319 
L 978 3319 
L 1772 963 
L 2547 3319 
L 3456 3319 
L 2284 125 
L 2075 -453 
Q 1959 -744 1854 -897 
Q 1750 -1050 1614 -1145 
Q 1478 -1241 1279 -1294 
Q 1081 -1347 831 -1347 
Q 578 -1347 334 -1294 
L 256 -606 
Q 463 -647 628 -647 
Q 934 -647 1081 -467 
Q 1228 -288 1306 -9 
L 44 3319 
z
" transform="scale(0.015625)"/>
      <path id="Arial-BoldMT-6d" d="M 394 3319 
L 1203 3319 
L 1203 2866 
Q 1638 3394 2238 3394 
Q 2556 3394 2790 3262 
Q 3025 3131 3175 2866 
Q 3394 3131 3647 3262 
Q 3900 3394 4188 3394 
Q 4553 3394 4806 3245 
Q 5059 3097 5184 2809 
Q 5275 2597 5275 2122 
L 5275 0 
L 4397 0 
L 4397 1897 
Q 4397 2391 4306 2534 
Q 4184 2722 3931 2722 
Q 3747 2722 3584 2609 
Q 3422 2497 3350 2280 
Q 3278 2063 3278 1594 
L 3278 0 
L 2400 0 
L 2400 1819 
Q 2400 2303 2353 2443 
Q 2306 2584 2207 2653 
Q 2109 2722 1941 2722 
Q 1738 2722 1575 2612 
Q 1413 2503 1342 2297 
Q 1272 2091 1272 1613 
L 1272 0 
L 394 0 
L 394 3319 
z
" transform="scale(0.015625)"/>
      <path id="Arial-BoldMT-65" d="M 2381 1056 
L 3256 909 
Q 3088 428 2723 176 
Q 2359 -75 1813 -75 
Q 947 -75 531 491 
Q 203 944 203 1634 
Q 203 2459 634 2926 
Q 1066 3394 1725 3394 
Q 2466 3394 2894 2905 
Q 3322 2416 3303 1406 
L 1103 1406 
Q 1113 1016 1316 798 
Q 1519 581 1822 581 
Q 2028 581 2168 693 
Q 2309 806 2381 1056 
z
M 2431 1944 
Q 2422 2325 2234 2523 
Q 2047 2722 1778 2722 
Q 1491 2722 1303 2513 
Q 1116 2303 1119 1944 
L 2431 1944 
z
" transform="scale(0.015625)"/>
      <path id="Arial-BoldMT-72" d="M 1300 0 
L 422 0 
L 422 3319 
L 1238 3319 
L 1238 2847 
Q 1447 3181 1614 3287 
Q 1781 3394 1994 3394 
Q 2294 3394 2572 3228 
L 2300 2463 
Q 2078 2606 1888 2606 
Q 1703 2606 1575 2504 
Q 1447 2403 1373 2137 
Q 1300 1872 1300 1025 
L 1300 0 
z
" transform="scale(0.015625)"/>
      <path id="Arial-BoldMT-29" d="M 216 -1347 
Q 475 -791 581 -494 
Q 688 -197 778 190 
Q 869 578 912 926 
Q 956 1275 956 1641 
Q 956 2384 797 3048 
Q 638 3713 209 4659 
L 806 4659 
Q 1278 3988 1539 3234 
Q 1800 2481 1800 1706 
Q 1800 1053 1594 306 
Q 1359 -531 822 -1347 
L 216 -1347 
z
" transform="scale(0.015625)"/>
     </defs>
     <use xlink:href="#Arial-BoldMT-41"/>
     <use xlink:href="#Arial-BoldMT-63" transform="translate(72.216797 0)"/>
     <use xlink:href="#Arial-BoldMT-74" transform="translate(127.832031 0)"/>
     <use xlink:href="#Arial-BoldMT-69" transform="translate(161.132812 0)"/>
     <use xlink:href="#Arial-BoldMT-76" transform="translate(188.916016 0)"/>
     <use xlink:href="#Arial-BoldMT-61" transform="translate(244.53125 0)"/>
     <use xlink:href="#Arial-BoldMT-74" transform="translate(300.146484 0)"/>
     <use xlink:href="#Arial-BoldMT-69" transform="translate(333.447266 0)"/>
     <use xlink:href="#Arial-BoldMT-6f" transform="translate(361.230469 0)"/>
     <use xlink:href="#Arial-BoldMT-6e" transform="translate(422.314453 0)"/>
     <use xlink:href="#Arial-BoldMT-20" transform="translate(483.398438 0)"/>
     <use xlink:href="#Arial-BoldMT-51" transform="translate(511.181641 0)"/>
     <use xlink:href="#Arial-BoldMT-75" transform="translate(588.964844 0)"/>
     <use xlink:href="#Arial-BoldMT-61" transform="translate(650.048828 0)"/>
     <use xlink:href="#Arial-BoldMT-6e" transform="translate(705.664062 0)"/>
     <use xlink:href="#Arial-BoldMT-74" transform="translate(766.748047 0)"/>
     <use xlink:href="#Arial-BoldMT-69" transform="translate(800.048828 0)"/>
     <use xlink:href="#Arial-BoldMT-7a" transform="translate(827.832031 0)"/>
     <use xlink:href="#Arial-BoldMT-61" transform="translate(877.832031 0)"/>
     <use xlink:href="#Arial-BoldMT-74" transform="translate(933.447266 0)"/>
     <use xlink:href="#Arial-BoldMT-69" transform="translate(966.748047 0)"/>
     <use xlink:href="#Arial-BoldMT-6f" transform="translate(994.53125 0)"/>
     <use xlink:href="#Arial-BoldMT-6e" transform="translate(1055.615234 0)"/>
     <use xlink:href="#Arial-BoldMT-20" transform="translate(1116.699219 0)"/>
     <use xlink:href="#Arial-BoldMT-28" transform="translate(1144.482422 0)"/>
     <use xlink:href="#Arial-BoldMT-41" transform="translate(1177.783203 0)"/>
     <use xlink:href="#Arial-BoldMT-73" transform="translate(1250 0)"/>
     <use xlink:href="#Arial-BoldMT-79" transform="translate(1305.615234 0)"/>
     <use xlink:href="#Arial-BoldMT-6d" transform="translate(1361.230469 0)"/>
     <use xlink:href="#Arial-BoldMT-6d" transform="translate(1450.146484 0)"/>
     <use xlink:href="#Arial-BoldMT-65" transform="translate(1539.0625 0)"/>
     <use xlink:href="#Arial-BoldMT-74" transform="translate(1594.677734 0)"/>
     <use xlink:href="#Arial-BoldMT-72" transform="translate(1627.978516 0)"/>
     <use xlink:href="#Arial-BoldMT-69" transform="translate(1666.894531 0)"/>
     <use xlink:href="#Arial-BoldMT-63" transform="translate(1694.677734 0)"/>
     <use xlink:href="#Arial-BoldMT-29" transform="translate(1750.292969 0)"/>
    </g>
    <!-- Scale: 0.015109 | Zero-Point: 0 | Range: [0, 255] -->
    <g style="fill: #262626" transform="translate(102.832585 21.696) scale(0.08 -0.08)">
     <defs>
      <path id="Arial-BoldMT-53" d="M 231 1491 
L 1131 1578 
Q 1213 1125 1461 912 
Q 1709 700 2131 700 
Q 2578 700 2804 889 
Q 3031 1078 3031 1331 
Q 3031 1494 2936 1608 
Q 2841 1722 2603 1806 
Q 2441 1863 1863 2006 
Q 1119 2191 819 2459 
Q 397 2838 397 3381 
Q 397 3731 595 4036 
Q 794 4341 1167 4500 
Q 1541 4659 2069 4659 
Q 2931 4659 3367 4281 
Q 3803 3903 3825 3272 
L 2900 3231 
Q 2841 3584 2645 3739 
Q 2450 3894 2059 3894 
Q 1656 3894 1428 3728 
Q 1281 3622 1281 3444 
Q 1281 3281 1419 3166 
Q 1594 3019 2269 2859 
Q 2944 2700 3267 2529 
Q 3591 2359 3773 2064 
Q 3956 1769 3956 1334 
Q 3956 941 3737 597 
Q 3519 253 3119 86 
Q 2719 -81 2122 -81 
Q 1253 -81 787 320 
Q 322 722 231 1491 
z
" transform="scale(0.015625)"/>
      <path id="Arial-BoldMT-6c" d="M 459 0 
L 459 4581 
L 1338 4581 
L 1338 0 
L 459 0 
z
" transform="scale(0.015625)"/>
      <path id="Arial-BoldMT-3a" d="M 628 2441 
L 628 3319 
L 1506 3319 
L 1506 2441 
L 628 2441 
z
M 628 0 
L 628 878 
L 1506 878 
L 1506 0 
L 628 0 
z
" transform="scale(0.015625)"/>
      <path id="Arial-BoldMT-30" d="M 1756 4600 
Q 2422 4600 2797 4125 
Q 3244 3563 3244 2259 
Q 3244 959 2794 391 
Q 2422 -78 1756 -78 
Q 1088 -78 678 436 
Q 269 950 269 2269 
Q 269 3563 719 4131 
Q 1091 4600 1756 4600 
z
M 1756 3872 
Q 1597 3872 1472 3770 
Q 1347 3669 1278 3406 
Q 1188 3066 1188 2259 
Q 1188 1453 1269 1151 
Q 1350 850 1473 750 
Q 1597 650 1756 650 
Q 1916 650 2041 751 
Q 2166 853 2234 1116 
Q 2325 1453 2325 2259 
Q 2325 3066 2244 3367 
Q 2163 3669 2039 3770 
Q 1916 3872 1756 3872 
z
" transform="scale(0.015625)"/>
      <path id="Arial-BoldMT-2e" d="M 459 0 
L 459 878 
L 1338 878 
L 1338 0 
L 459 0 
z
" transform="scale(0.015625)"/>
      <path id="Arial-BoldMT-31" d="M 2519 0 
L 1641 0 
L 1641 3309 
Q 1159 2859 506 2644 
L 506 3441 
Q 850 3553 1253 3867 
Q 1656 4181 1806 4600 
L 2519 4600 
L 2519 0 
z
" transform="scale(0.015625)"/>
      <path id="Arial-BoldMT-35" d="M 284 1178 
L 1159 1269 
Q 1197 972 1381 798 
Q 1566 625 1806 625 
Q 2081 625 2272 848 
Q 2463 1072 2463 1522 
Q 2463 1944 2273 2155 
Q 2084 2366 1781 2366 
Q 1403 2366 1103 2031 
L 391 2134 
L 841 4519 
L 3163 4519 
L 3163 3697 
L 1506 3697 
L 1369 2919 
Q 1663 3066 1969 3066 
Q 2553 3066 2959 2641 
Q 3366 2216 3366 1538 
Q 3366 972 3038 528 
Q 2591 -78 1797 -78 
Q 1163 -78 763 262 
Q 363 603 284 1178 
z
" transform="scale(0.015625)"/>
      <path id="Arial-BoldMT-39" d="M 291 1059 
L 1141 1153 
Q 1172 894 1303 769 
Q 1434 644 1650 644 
Q 1922 644 2112 894 
Q 2303 1144 2356 1931 
Q 2025 1547 1528 1547 
Q 988 1547 595 1964 
Q 203 2381 203 3050 
Q 203 3747 617 4173 
Q 1031 4600 1672 4600 
Q 2369 4600 2816 4061 
Q 3263 3522 3263 2288 
Q 3263 1031 2797 475 
Q 2331 -81 1584 -81 
Q 1047 -81 715 205 
Q 384 491 291 1059 
z
M 2278 2978 
Q 2278 3403 2083 3637 
Q 1888 3872 1631 3872 
Q 1388 3872 1227 3680 
Q 1066 3488 1066 3050 
Q 1066 2606 1241 2398 
Q 1416 2191 1678 2191 
Q 1931 2191 2104 2391 
Q 2278 2591 2278 2978 
z
" transform="scale(0.015625)"/>
      <path id="Arial-BoldMT-7c" d="M 550 -1347 
L 550 4659 
L 1247 4659 
L 1247 -1347 
L 550 -1347 
z
" transform="scale(0.015625)"/>
      <path id="Arial-BoldMT-5a" d="M 69 0 
L 69 834 
L 2475 3806 
L 341 3806 
L 341 4581 
L 3694 4581 
L 3694 3863 
L 1184 772 
L 3791 772 
L 3791 0 
L 69 0 
z
" transform="scale(0.015625)"/>
      <path id="Arial-BoldMT-2d" d="M 359 1222 
L 359 2100 
L 2084 2100 
L 2084 1222 
L 359 1222 
z
" transform="scale(0.015625)"/>
      <path id="Arial-BoldMT-50" d="M 466 0 
L 466 4581 
L 1950 4581 
Q 2794 4581 3050 4513 
Q 3444 4409 3709 4064 
Q 3975 3719 3975 3172 
Q 3975 2750 3822 2462 
Q 3669 2175 3433 2011 
Q 3197 1847 2953 1794 
Q 2622 1728 1994 1728 
L 1391 1728 
L 1391 0 
L 466 0 
z
M 1391 3806 
L 1391 2506 
L 1897 2506 
Q 2444 2506 2628 2578 
Q 2813 2650 2917 2803 
Q 3022 2956 3022 3159 
Q 3022 3409 2875 3571 
Q 2728 3734 2503 3775 
Q 2338 3806 1838 3806 
L 1391 3806 
z
" transform="scale(0.015625)"/>
      <path id="Arial-BoldMT-52" d="M 469 0 
L 469 4581 
L 2416 4581 
Q 3150 4581 3483 4457 
Q 3816 4334 4016 4018 
Q 4216 3703 4216 3297 
Q 4216 2781 3912 2445 
Q 3609 2109 3006 2022 
Q 3306 1847 3501 1637 
Q 3697 1428 4028 894 
L 4588 0 
L 3481 0 
L 2813 997 
Q 2456 1531 2325 1670 
Q 2194 1809 2047 1861 
Q 1900 1913 1581 1913 
L 1394 1913 
L 1394 0 
L 469 0 
z
M 1394 2644 
L 2078 2644 
Q 2744 2644 2909 2700 
Q 3075 2756 3169 2893 
Q 3263 3031 3263 3238 
Q 3263 3469 3139 3611 
Q 3016 3753 2791 3791 
Q 2678 3806 2116 3806 
L 1394 3806 
L 1394 2644 
z
" transform="scale(0.015625)"/>
      <path id="Arial-BoldMT-67" d="M 378 -219 
L 1381 -341 
Q 1406 -516 1497 -581 
Q 1622 -675 1891 -675 
Q 2234 -675 2406 -572 
Q 2522 -503 2581 -350 
Q 2622 -241 2622 53 
L 2622 538 
Q 2228 0 1628 0 
Q 959 0 569 566 
Q 263 1013 263 1678 
Q 263 2513 664 2953 
Q 1066 3394 1663 3394 
Q 2278 3394 2678 2853 
L 2678 3319 
L 3500 3319 
L 3500 341 
Q 3500 -247 3403 -537 
Q 3306 -828 3131 -993 
Q 2956 -1159 2664 -1253 
Q 2372 -1347 1925 -1347 
Q 1081 -1347 728 -1058 
Q 375 -769 375 -325 
Q 375 -281 378 -219 
z
M 1163 1728 
Q 1163 1200 1367 954 
Q 1572 709 1872 709 
Q 2194 709 2416 961 
Q 2638 1213 2638 1706 
Q 2638 2222 2425 2472 
Q 2213 2722 1888 2722 
Q 1572 2722 1367 2476 
Q 1163 2231 1163 1728 
z
" transform="scale(0.015625)"/>
      <path id="Arial-BoldMT-5b" d="M 456 -1291 
L 456 4581 
L 2013 4581 
L 2013 3891 
L 1291 3891 
L 1291 -600 
L 2013 -600 
L 2013 -1291 
L 456 -1291 
z
" transform="scale(0.015625)"/>
      <path id="Arial-BoldMT-2c" d="M 438 878 
L 1316 878 
L 1316 250 
Q 1316 -131 1250 -351 
Q 1184 -572 1001 -747 
Q 819 -922 538 -1022 
L 366 -659 
Q 631 -572 743 -419 
Q 856 -266 863 0 
L 438 0 
L 438 878 
z
" transform="scale(0.015625)"/>
      <path id="Arial-BoldMT-32" d="M 3238 816 
L 3238 0 
L 159 0 
Q 209 463 459 877 
Q 709 1291 1447 1975 
Q 2041 2528 2175 2725 
Q 2356 2997 2356 3263 
Q 2356 3556 2198 3714 
Q 2041 3872 1763 3872 
Q 1488 3872 1325 3706 
Q 1163 3541 1138 3156 
L 263 3244 
Q 341 3969 753 4284 
Q 1166 4600 1784 4600 
Q 2463 4600 2850 4234 
Q 3238 3869 3238 3325 
Q 3238 3016 3127 2736 
Q 3016 2456 2775 2150 
Q 2616 1947 2200 1565 
Q 1784 1184 1673 1059 
Q 1563 934 1494 816 
L 3238 816 
z
" transform="scale(0.015625)"/>
      <path id="Arial-BoldMT-5d" d="M 1675 4581 
L 1675 -1291 
L 119 -1291 
L 119 -600 
L 841 -600 
L 841 3897 
L 119 3897 
L 119 4581 
L 1675 4581 
z
" transform="scale(0.015625)"/>
     </defs>
     <use xlink:href="#Arial-BoldMT-53"/>
     <use xlink:href="#Arial-BoldMT-63" transform="translate(66.699219 0)"/>
     <use xlink:href="#Arial-BoldMT-61" transform="translate(122.314453 0)"/>
     <use xlink:href="#Arial-BoldMT-6c" transform="translate(177.929688 0)"/>
     <use xlink:href="#Arial-BoldMT-65" transform="translate(205.712891 0)"/>
     <use xlink:href="#Arial-BoldMT-3a" transform="translate(261.328125 0)"/>
     <use xlink:href="#Arial-BoldMT-20" transform="translate(294.628906 0)"/>
     <use xlink:href="#Arial-BoldMT-30" transform="translate(322.412109 0)"/>
     <use xlink:href="#Arial-BoldMT-2e" transform="translate(378.027344 0)"/>
     <use xlink:href="#Arial-BoldMT-30" transform="translate(405.810547 0)"/>
     <use xlink:href="#Arial-BoldMT-31" transform="translate(461.425781 0)"/>
     <use xlink:href="#Arial-BoldMT-35" transform="translate(517.041016 0)"/>
     <use xlink:href="#Arial-BoldMT-31" transform="translate(572.65625 0)"/>
     <use xlink:href="#Arial-BoldMT-30" transform="translate(628.271484 0)"/>
     <use xlink:href="#Arial-BoldMT-39" transform="translate(683.886719 0)"/>
     <use xlink:href="#Arial-BoldMT-20" transform="translate(739.501953 0)"/>
     <use xlink:href="#Arial-BoldMT-7c" transform="translate(767.285156 0)"/>
     <use xlink:href="#Arial-BoldMT-20" transform="translate(795.263672 0)"/>
     <use xlink:href="#Arial-BoldMT-5a" transform="translate(823.046875 0)"/>
     <use xlink:href="#Arial-BoldMT-65" transform="translate(884.130859 0)"/>
     <use xlink:href="#Arial-BoldMT-72" transform="translate(939.746094 0)"/>
     <use xlink:href="#Arial-BoldMT-6f" transform="translate(978.662109 0)"/>
     <use xlink:href="#Arial-BoldMT-2d" transform="translate(1039.746094 0)"/>
     <use xlink:href="#Arial-BoldMT-50" transform="translate(1073.046875 0)"/>
     <use xlink:href="#Arial-BoldMT-6f" transform="translate(1139.746094 0)"/>
     <use xlink:href="#Arial-BoldMT-69" transform="translate(1200.830078 0)"/>
     <use xlink:href="#Arial-BoldMT-6e" transform="translate(1228.613281 0)"/>
     <use xlink:href="#Arial-BoldMT-74" transform="translate(1289.697266 0)"/>
     <use xlink:href="#Arial-BoldMT-3a" transform="translate(1322.998047 0)"/>
     <use xlink:href="#Arial-BoldMT-20" transform="translate(1356.298828 0)"/>
     <use xlink:href="#Arial-BoldMT-30" transform="translate(1384.082031 0)"/>
     <use xlink:href="#Arial-BoldMT-20" transform="translate(1439.697266 0)"/>
     <use xlink:href="#Arial-BoldMT-7c" transform="translate(1467.480469 0)"/>
     <use xlink:href="#Arial-BoldMT-20" transform="translate(1495.458984 0)"/>
     <use xlink:href="#Arial-BoldMT-52" transform="translate(1523.242188 0)"/>
     <use xlink:href="#Arial-BoldMT-61" transform="translate(1595.458984 0)"/>
     <use xlink:href="#Arial-BoldMT-6e" transform="translate(1651.074219 0)"/>
     <use xlink:href="#Arial-BoldMT-67" transform="translate(1712.158203 0)"/>
     <use xlink:href="#Arial-BoldMT-65" transform="translate(1773.242188 0)"/>
     <use xlink:href="#Arial-BoldMT-3a" transform="translate(1828.857422 0)"/>
     <use xlink:href="#Arial-BoldMT-20" transform="translate(1862.158203 0)"/>
     <use xlink:href="#Arial-BoldMT-5b" transform="translate(1889.941406 0)"/>
     <use xlink:href="#Arial-BoldMT-30" transform="translate(1923.242188 0)"/>
     <use xlink:href="#Arial-BoldMT-2c" transform="translate(1978.857422 0)"/>
     <use xlink:href="#Arial-BoldMT-20" transform="translate(2006.640625 0)"/>
     <use xlink:href="#Arial-BoldMT-32" transform="translate(2034.423828 0)"/>
     <use xlink:href="#Arial-BoldMT-35" transform="translate(2090.039062 0)"/>
     <use xlink:href="#Arial-BoldMT-35" transform="translate(2145.654297 0)"/>
     <use xlink:href="#Arial-BoldMT-5d" transform="translate(2201.269531 0)"/>
    </g>
   </g>
   <g id="legend_1">
    <g id="patch_5">
     <path d="M 313.473295 41.126625 
L 373.01767 41.126625 
Q 374.21767 41.126625 374.21767 39.926625 
L 374.21767 31.896 
Q 374.21767 30.696 373.01767 30.696 
L 313.473295 30.696 
Q 312.273295 30.696 312.273295 31.896 
L 312.273295 39.926625 
Q 312.273295 41.126625 313.473295 41.126625 
z
" style="fill: #ffffff; opacity: 0.8; stroke: #cccccc; stroke-linejoin: miter"/>
    </g>
    <g id="line2d_10">
     <path d="M 314.673295 35.363812 
L 320.673295 35.363812 
L 326.673295 35.363812 
" style="fill: none; stroke-dasharray: 7.4,3.2; stroke-dashoffset: 0; stroke: #80c21d; stroke-width: 2"/>
    </g>
    <g id="text_11">
     <!-- Real Zero (0.0) -->
     <g style="fill: #262626" transform="translate(331.473295 37.463812) scale(0.06 -0.06)">
      <defs>
       <path id="ArialMT-5a" d="M 128 0 
L 128 563 
L 2475 3497 
Q 2725 3809 2950 4041 
L 394 4041 
L 394 4581 
L 3675 4581 
L 3675 4041 
L 1103 863 
L 825 541 
L 3750 541 
L 3750 0 
L 128 0 
z
" transform="scale(0.015625)"/>
       <path id="ArialMT-72" d="M 416 0 
L 416 3319 
L 922 3319 
L 922 2816 
Q 1116 3169 1280 3281 
Q 1444 3394 1641 3394 
Q 1925 3394 2219 3213 
L 2025 2691 
Q 1819 2813 1613 2813 
Q 1428 2813 1281 2702 
Q 1134 2591 1072 2394 
Q 978 2094 978 1738 
L 978 0 
L 416 0 
z
" transform="scale(0.015625)"/>
      </defs>
      <use xlink:href="#ArialMT-52"/>
      <use xlink:href="#ArialMT-65" transform="translate(72.216797 0)"/>
      <use xlink:href="#ArialMT-61" transform="translate(127.832031 0)"/>
      <use xlink:href="#ArialMT-6c" transform="translate(183.447266 0)"/>
      <use xlink:href="#ArialMT-20" transform="translate(205.664062 0)"/>
      <use xlink:href="#ArialMT-5a" transform="translate(233.447266 0)"/>
      <use xlink:href="#ArialMT-65" transform="translate(294.53125 0)"/>
      <use xlink:href="#ArialMT-72" transform="translate(350.146484 0)"/>
      <use xlink:href="#ArialMT-6f" transform="translate(383.447266 0)"/>
      <use xlink:href="#ArialMT-20" transform="translate(439.0625 0)"/>
      <use xlink:href="#ArialMT-28" transform="translate(466.845703 0)"/>
      <use xlink:href="#ArialMT-30" transform="translate(500.146484 0)"/>
      <use xlink:href="#ArialMT-2e" transform="translate(555.761719 0)"/>
      <use xlink:href="#ArialMT-30" transform="translate(583.544922 0)"/>
      <use xlink:href="#ArialMT-29" transform="translate(639.160156 0)"/>
     </g>
    </g>
   </g>
  </g>
 </g>
 <defs>
  <clipPath id="pa92d385e20">
   <rect x="7.2" y="27.696" width="370.01767" height="62.34"/>
  </clipPath>
 </defs>
</svg>
