<?xml version="1.0" encoding="utf-8" standalone="no"?>
<!DOCTYPE svg PUBLIC "-//W3C//DTD SVG 1.1//EN"
  "http://www.w3.org/Graphics/SVG/1.1/DTD/svg11.dtd">
<svg xmlns:xlink="http://www.w3.org/1999/xlink" width="384.687269pt" height="204.201094pt" viewBox="0 0 384.687269 204.201094" xmlns="http://www.w3.org/2000/svg" version="1.1">
 <metadata>
  <rdf:RDF xmlns:dc="http://purl.org/dc/elements/1.1/" xmlns:cc="http://creativecommons.org/ns#" xmlns:rdf="http://www.w3.org/1999/02/22-rdf-syntax-ns#">
   <cc:Work>
    <dc:type rdf:resource="http://purl.org/dc/dcmitype/StillImage"/>
    <dc:date>2026-01-29T00:08:08.048168</dc:date>
    <dc:format>image/svg+xml</dc:format>
    <dc:creator>
     <cc:Agent>
      <dc:title>Matplotlib v3.10.8, https://matplotlib.org/</dc:title>
     </cc:Agent>
    </dc:creator>
   </cc:Work>
  </rdf:RDF>
 </metadata>
 <defs>
  <style type="text/css">*{stroke-linejoin: round; stroke-linecap: butt}</style>
 </defs>
 <g id="figure_1">
  <g id="patch_1">
   <path d="M 0 204.201094 
L 384.687269 204.201094 
L 384.687269 0 
L 0 0 
z
" style="fill: #ffffff"/>
  </g>
  <g id="axes_1">
   <g id="patch_2">
    <path d="M 56.1425 162.18 
L 186.092295 162.18 
L 186.092295 27.696 
L 56.1425 27.696 
z
" style="fill: #ffffff"/>
   </g>
   <g id="matplotlib.axis_1">
    <g id="xtick_1">
     <g id="line2d_1">
      <path d="M 72.968924 162.18 
L 72.968924 27.696 
" clip-path="url(#p20e6e149a1)" style="fill: none; stroke: #cccccc; stroke-linecap: round"/>
     </g>
     <g id="text_1">
      <!-- −20 -->
      <g style="fill: #262626" transform="translate(63.639549 179.553594) scale(0.11 -0.11)">
       <defs>
        <path id="ArialMT-2212" d="M 3381 1997 
L 356 1997 
L 356 2522 
L 3381 2522 
L 3381 1997 
z
" transform="scale(0.015625)"/>
        <path id="ArialMT-32" d="M 3222 541 
L 3222 0 
L 194 0 
Q 188 203 259 391 
Q 375 700 629 1000 
Q 884 1300 1366 1694 
Q 2113 2306 2375 2664 
Q 2638 3022 2638 3341 
Q 2638 3675 2398 3904 
Q 2159 4134 1775 4134 
Q 1369 4134 1125 3890 
Q 881 3647 878 3216 
L 300 3275 
Q 359 3922 746 4261 
Q 1134 4600 1788 4600 
Q 2447 4600 2831 4234 
Q 3216 3869 3216 3328 
Q 3216 3053 3103 2787 
Q 2991 2522 2730 2228 
Q 2469 1934 1863 1422 
Q 1356 997 1212 845 
Q 1069 694 975 541 
L 3222 541 
z
" transform="scale(0.015625)"/>
        <path id="ArialMT-30" d="M 266 2259 
Q 266 3072 433 3567 
Q 600 4063 929 4331 
Q 1259 4600 1759 4600 
Q 2128 4600 2406 4451 
Q 2684 4303 2865 4023 
Q 3047 3744 3150 3342 
Q 3253 2941 3253 2259 
Q 3253 1453 3087 958 
Q 2922 463 2592 192 
Q 2263 -78 1759 -78 
Q 1097 -78 719 397 
Q 266 969 266 2259 
z
M 844 2259 
Q 844 1131 1108 757 
Q 1372 384 1759 384 
Q 2147 384 2411 759 
Q 2675 1134 2675 2259 
Q 2675 3391 2411 3762 
Q 2147 4134 1753 4134 
Q 1366 4134 1134 3806 
Q 844 3388 844 2259 
z
" transform="scale(0.015625)"/>
       </defs>
       <use xlink:href="#ArialMT-2212"/>
       <use xlink:href="#ArialMT-32" transform="translate(58.398438 0)"/>
       <use xlink:href="#ArialMT-30" transform="translate(114.013672 0)"/>
      </g>
     </g>
    </g>
    <g id="xtick_2">
     <g id="line2d_2">
      <path d="M 121.447856 162.18 
L 121.447856 27.696 
" clip-path="url(#p20e6e149a1)" style="fill: none; stroke: #cccccc; stroke-linecap: round"/>
     </g>
     <g id="text_2">
      <!-- 0 -->
      <g style="fill: #262626" transform="translate(118.389341 179.553594) scale(0.11 -0.11)">
       <use xlink:href="#ArialMT-30"/>
      </g>
     </g>
    </g>
    <g id="xtick_3">
     <g id="line2d_3">
      <path d="M 169.926789 162.18 
L 169.926789 27.696 
" clip-path="url(#p20e6e149a1)" style="fill: none; stroke: #cccccc; stroke-linecap: round"/>
     </g>
     <g id="text_3">
      <!-- 20 -->
      <g style="fill: #262626" transform="translate(163.809758 179.553594) scale(0.11 -0.11)">
       <use xlink:href="#ArialMT-32"/>
       <use xlink:href="#ArialMT-30" transform="translate(55.615234 0)"/>
      </g>
     </g>
    </g>
    <g id="text_4">
     <!-- Real Value -->
     <g style="fill: #262626" transform="translate(92.208648 194.329219) scale(0.12 -0.12)">
      <defs>
       <path id="ArialMT-52" d="M 503 0 
L 503 4581 
L 2534 4581 
Q 3147 4581 3465 4457 
Q 3784 4334 3975 4021 
Q 4166 3709 4166 3331 
Q 4166 2844 3850 2509 
Q 3534 2175 2875 2084 
Q 3116 1969 3241 1856 
Q 3506 1613 3744 1247 
L 4541 0 
L 3778 0 
L 3172 953 
Q 2906 1366 2734 1584 
Q 2563 1803 2427 1890 
Q 2291 1978 2150 2013 
Q 2047 2034 1813 2034 
L 1109 2034 
L 1109 0 
L 503 0 
z
M 1109 2559 
L 2413 2559 
Q 2828 2559 3062 2645 
Q 3297 2731 3419 2920 
Q 3541 3109 3541 3331 
Q 3541 3656 3305 3865 
Q 3069 4075 2559 4075 
L 1109 4075 
L 1109 2559 
z
" transform="scale(0.015625)"/>
       <path id="ArialMT-65" d="M 2694 1069 
L 3275 997 
Q 3138 488 2766 206 
Q 2394 -75 1816 -75 
Q 1088 -75 661 373 
Q 234 822 234 1631 
Q 234 2469 665 2931 
Q 1097 3394 1784 3394 
Q 2450 3394 2872 2941 
Q 3294 2488 3294 1666 
Q 3294 1616 3291 1516 
L 816 1516 
Q 847 969 1125 678 
Q 1403 388 1819 388 
Q 2128 388 2347 550 
Q 2566 713 2694 1069 
z
M 847 1978 
L 2700 1978 
Q 2663 2397 2488 2606 
Q 2219 2931 1791 2931 
Q 1403 2931 1139 2672 
Q 875 2413 847 1978 
z
" transform="scale(0.015625)"/>
       <path id="ArialMT-61" d="M 2588 409 
Q 2275 144 1986 34 
Q 1697 -75 1366 -75 
Q 819 -75 525 192 
Q 231 459 231 875 
Q 231 1119 342 1320 
Q 453 1522 633 1644 
Q 813 1766 1038 1828 
Q 1203 1872 1538 1913 
Q 2219 1994 2541 2106 
Q 2544 2222 2544 2253 
Q 2544 2597 2384 2738 
Q 2169 2928 1744 2928 
Q 1347 2928 1158 2789 
Q 969 2650 878 2297 
L 328 2372 
Q 403 2725 575 2942 
Q 747 3159 1072 3276 
Q 1397 3394 1825 3394 
Q 2250 3394 2515 3294 
Q 2781 3194 2906 3042 
Q 3031 2891 3081 2659 
Q 3109 2516 3109 2141 
L 3109 1391 
Q 3109 606 3145 398 
Q 3181 191 3288 0 
L 2700 0 
Q 2613 175 2588 409 
z
M 2541 1666 
Q 2234 1541 1622 1453 
Q 1275 1403 1131 1340 
Q 988 1278 909 1158 
Q 831 1038 831 891 
Q 831 666 1001 516 
Q 1172 366 1500 366 
Q 1825 366 2078 508 
Q 2331 650 2450 897 
Q 2541 1088 2541 1459 
L 2541 1666 
z
" transform="scale(0.015625)"/>
       <path id="ArialMT-6c" d="M 409 0 
L 409 4581 
L 972 4581 
L 972 0 
L 409 0 
z
" transform="scale(0.015625)"/>
       <path id="ArialMT-20" transform="scale(0.015625)"/>
       <path id="ArialMT-56" d="M 1803 0 
L 28 4581 
L 684 4581 
L 1875 1253 
Q 2019 853 2116 503 
Q 2222 878 2363 1253 
L 3600 4581 
L 4219 4581 
L 2425 0 
L 1803 0 
z
" transform="scale(0.015625)"/>
       <path id="ArialMT-75" d="M 2597 0 
L 2597 488 
Q 2209 -75 1544 -75 
Q 1250 -75 995 37 
Q 741 150 617 320 
Q 494 491 444 738 
Q 409 903 409 1263 
L 409 3319 
L 972 3319 
L 972 1478 
Q 972 1038 1006 884 
Q 1059 663 1231 536 
Q 1403 409 1656 409 
Q 1909 409 2131 539 
Q 2353 669 2445 892 
Q 2538 1116 2538 1541 
L 2538 3319 
L 3100 3319 
L 3100 0 
L 2597 0 
z
" transform="scale(0.015625)"/>
      </defs>
      <use xlink:href="#ArialMT-52"/>
      <use xlink:href="#ArialMT-65" transform="translate(72.216797 0)"/>
      <use xlink:href="#ArialMT-61" transform="translate(127.832031 0)"/>
      <use xlink:href="#ArialMT-6c" transform="translate(183.447266 0)"/>
      <use xlink:href="#ArialMT-20" transform="translate(205.664062 0)"/>
      <use xlink:href="#ArialMT-56" transform="translate(233.447266 0)"/>
      <use xlink:href="#ArialMT-61" transform="translate(292.771484 0)"/>
      <use xlink:href="#ArialMT-6c" transform="translate(348.386719 0)"/>
      <use xlink:href="#ArialMT-75" transform="translate(370.603516 0)"/>
      <use xlink:href="#ArialMT-65" transform="translate(426.21875 0)"/>
     </g>
    </g>
   </g>
   <g id="matplotlib.axis_2">
    <g id="ytick_1">
     <g id="line2d_4">
      <path d="M 56.1425 162.18 
L 186.092295 162.18 
" clip-path="url(#p20e6e149a1)" style="fill: none; stroke: #cccccc; stroke-linecap: round"/>
     </g>
     <g id="text_5">
      <!-- 0 -->
      <g style="fill: #262626" transform="translate(40.525469 166.116797) scale(0.11 -0.11)">
       <use xlink:href="#ArialMT-30"/>
      </g>
     </g>
    </g>
    <g id="ytick_2">
     <g id="line2d_5">
      <path d="M 56.1425 135.204431 
L 186.092295 135.204431 
" clip-path="url(#p20e6e149a1)" style="fill: none; stroke: #cccccc; stroke-linecap: round"/>
     </g>
     <g id="text_6">
      <!-- 250 -->
      <g style="fill: #262626" transform="translate(28.291406 139.141228) scale(0.11 -0.11)">
       <defs>
        <path id="ArialMT-35" d="M 266 1200 
L 856 1250 
Q 922 819 1161 601 
Q 1400 384 1738 384 
Q 2144 384 2425 690 
Q 2706 997 2706 1503 
Q 2706 1984 2436 2262 
Q 2166 2541 1728 2541 
Q 1456 2541 1237 2417 
Q 1019 2294 894 2097 
L 366 2166 
L 809 4519 
L 3088 4519 
L 3088 3981 
L 1259 3981 
L 1013 2750 
Q 1425 3038 1878 3038 
Q 2478 3038 2890 2622 
Q 3303 2206 3303 1553 
Q 3303 931 2941 478 
Q 2500 -78 1738 -78 
Q 1113 -78 717 272 
Q 322 622 266 1200 
z
" transform="scale(0.015625)"/>
       </defs>
       <use xlink:href="#ArialMT-32"/>
       <use xlink:href="#ArialMT-35" transform="translate(55.615234 0)"/>
       <use xlink:href="#ArialMT-30" transform="translate(111.230469 0)"/>
      </g>
     </g>
    </g>
    <g id="ytick_3">
     <g id="line2d_6">
      <path d="M 56.1425 108.228863 
L 186.092295 108.228863 
" clip-path="url(#p20e6e149a1)" style="fill: none; stroke: #cccccc; stroke-linecap: round"/>
     </g>
     <g id="text_7">
      <!-- 500 -->
      <g style="fill: #262626" transform="translate(28.291406 112.16566) scale(0.11 -0.11)">
       <use xlink:href="#ArialMT-35"/>
       <use xlink:href="#ArialMT-30" transform="translate(55.615234 0)"/>
       <use xlink:href="#ArialMT-30" transform="translate(111.230469 0)"/>
      </g>
     </g>
    </g>
    <g id="ytick_4">
     <g id="line2d_7">
      <path d="M 56.1425 81.253294 
L 186.092295 81.253294 
" clip-path="url(#p20e6e149a1)" style="fill: none; stroke: #cccccc; stroke-linecap: round"/>
     </g>
     <g id="text_8">
      <!-- 750 -->
      <g style="fill: #262626" transform="translate(28.291406 85.190091) scale(0.11 -0.11)">
       <defs>
        <path id="ArialMT-37" d="M 303 3981 
L 303 4522 
L 3269 4522 
L 3269 4084 
Q 2831 3619 2401 2847 
Q 1972 2075 1738 1259 
Q 1569 684 1522 0 
L 944 0 
Q 953 541 1156 1306 
Q 1359 2072 1739 2783 
Q 2119 3494 2547 3981 
L 303 3981 
z
" transform="scale(0.015625)"/>
       </defs>
       <use xlink:href="#ArialMT-37"/>
       <use xlink:href="#ArialMT-35" transform="translate(55.615234 0)"/>
       <use xlink:href="#ArialMT-30" transform="translate(111.230469 0)"/>
      </g>
     </g>
    </g>
    <g id="ytick_5">
     <g id="line2d_8">
      <path d="M 56.1425 54.277725 
L 186.092295 54.277725 
" clip-path="url(#p20e6e149a1)" style="fill: none; stroke: #cccccc; stroke-linecap: round"/>
     </g>
     <g id="text_9">
      <!-- 1000 -->
      <g style="fill: #262626" transform="translate(22.174375 58.214522) scale(0.11 -0.11)">
       <defs>
        <path id="ArialMT-31" d="M 2384 0 
L 1822 0 
L 1822 3584 
Q 1619 3391 1289 3197 
Q 959 3003 697 2906 
L 697 3450 
Q 1169 3672 1522 3987 
Q 1875 4303 2022 4600 
L 2384 4600 
L 2384 0 
z
" transform="scale(0.015625)"/>
       </defs>
       <use xlink:href="#ArialMT-31"/>
       <use xlink:href="#ArialMT-30" transform="translate(55.615234 0)"/>
       <use xlink:href="#ArialMT-30" transform="translate(111.230469 0)"/>
       <use xlink:href="#ArialMT-30" transform="translate(166.845703 0)"/>
      </g>
     </g>
    </g>
    <g id="text_10">
     <!-- Count -->
     <g style="fill: #262626" transform="translate(15.789375 110.947687) rotate(-90) scale(0.12 -0.12)">
      <defs>
       <path id="ArialMT-43" d="M 3763 1606 
L 4369 1453 
Q 4178 706 3683 314 
Q 3188 -78 2472 -78 
Q 1731 -78 1267 223 
Q 803 525 561 1097 
Q 319 1669 319 2325 
Q 319 3041 592 3573 
Q 866 4106 1370 4382 
Q 1875 4659 2481 4659 
Q 3169 4659 3637 4309 
Q 4106 3959 4291 3325 
L 3694 3184 
Q 3534 3684 3231 3912 
Q 2928 4141 2469 4141 
Q 1941 4141 1586 3887 
Q 1231 3634 1087 3207 
Q 944 2781 944 2328 
Q 944 1744 1114 1308 
Q 1284 872 1643 656 
Q 2003 441 2422 441 
Q 2931 441 3284 734 
Q 3638 1028 3763 1606 
z
" transform="scale(0.015625)"/>
       <path id="ArialMT-6f" d="M 213 1659 
Q 213 2581 725 3025 
Q 1153 3394 1769 3394 
Q 2453 3394 2887 2945 
Q 3322 2497 3322 1706 
Q 3322 1066 3130 698 
Q 2938 331 2570 128 
Q 2203 -75 1769 -75 
Q 1072 -75 642 372 
Q 213 819 213 1659 
z
M 791 1659 
Q 791 1022 1069 705 
Q 1347 388 1769 388 
Q 2188 388 2466 706 
Q 2744 1025 2744 1678 
Q 2744 2294 2464 2611 
Q 2184 2928 1769 2928 
Q 1347 2928 1069 2612 
Q 791 2297 791 1659 
z
" transform="scale(0.015625)"/>
       <path id="ArialMT-6e" d="M 422 0 
L 422 3319 
L 928 3319 
L 928 2847 
Q 1294 3394 1984 3394 
Q 2284 3394 2536 3286 
Q 2788 3178 2913 3003 
Q 3038 2828 3088 2588 
Q 3119 2431 3119 2041 
L 3119 0 
L 2556 0 
L 2556 2019 
Q 2556 2363 2490 2533 
Q 2425 2703 2258 2804 
Q 2091 2906 1866 2906 
Q 1506 2906 1245 2678 
Q 984 2450 984 1813 
L 984 0 
L 422 0 
z
" transform="scale(0.015625)"/>
       <path id="ArialMT-74" d="M 1650 503 
L 1731 6 
Q 1494 -44 1306 -44 
Q 1000 -44 831 53 
Q 663 150 594 308 
Q 525 466 525 972 
L 525 2881 
L 113 2881 
L 113 3319 
L 525 3319 
L 525 4141 
L 1084 4478 
L 1084 3319 
L 1650 3319 
L 1650 2881 
L 1084 2881 
L 1084 941 
Q 1084 700 1114 631 
Q 1144 563 1211 522 
Q 1278 481 1403 481 
Q 1497 481 1650 503 
z
" transform="scale(0.015625)"/>
      </defs>
      <use xlink:href="#ArialMT-43"/>
      <use xlink:href="#ArialMT-6f" transform="translate(72.216797 0)"/>
      <use xlink:href="#ArialMT-75" transform="translate(127.832031 0)"/>
      <use xlink:href="#ArialMT-6e" transform="translate(183.447266 0)"/>
      <use xlink:href="#ArialMT-74" transform="translate(239.0625 0)"/>
     </g>
    </g>
   </g>
   <g id="patch_3">
    <path d="M 62.049309 162.18 
L 63.526011 162.18 
L 63.526011 161.856293 
L 62.049309 161.856293 
z
" clip-path="url(#p20e6e149a1)" style="fill: #808080; fill-opacity: 0.6; stroke: #ffffff; stroke-width: 0.158523; stroke-linejoin: miter"/>
   </g>
   <g id="patch_4">
    <path d="M 63.526011 162.18 
L 65.002713 162.18 
L 65.002713 161.856293 
L 63.526011 161.856293 
z
" clip-path="url(#p20e6e149a1)" style="fill: #808080; fill-opacity: 0.6; stroke: #ffffff; stroke-width: 0.158523; stroke-linejoin: miter"/>
   </g>
   <g id="patch_5">
    <path d="M 65.002713 162.18 
L 66.479416 162.18 
L 66.479416 162.072098 
L 65.002713 162.072098 
z
" clip-path="url(#p20e6e149a1)" style="fill: #808080; fill-opacity: 0.6; stroke: #ffffff; stroke-width: 0.158523; stroke-linejoin: miter"/>
   </g>
   <g id="patch_6">
    <path d="M 66.479416 162.18 
L 67.956118 162.18 
L 67.956118 162.072098 
L 66.479416 162.072098 
z
" clip-path="url(#p20e6e149a1)" style="fill: #808080; fill-opacity: 0.6; stroke: #ffffff; stroke-width: 0.158523; stroke-linejoin: miter"/>
   </g>
   <g id="patch_7">
    <path d="M 67.956118 162.18 
L 69.43282 162.18 
L 69.43282 162.18 
L 67.956118 162.18 
z
" clip-path="url(#p20e6e149a1)" style="fill: #808080; fill-opacity: 0.6; stroke: #ffffff; stroke-width: 0.158523; stroke-linejoin: miter"/>
   </g>
   <g id="patch_8">
    <path d="M 69.43282 162.18 
L 70.909522 162.18 
L 70.909522 162.072098 
L 69.43282 162.072098 
z
" clip-path="url(#p20e6e149a1)" style="fill: #808080; fill-opacity: 0.6; stroke: #ffffff; stroke-width: 0.158523; stroke-linejoin: miter"/>
   </g>
   <g id="patch_9">
    <path d="M 70.909522 162.18 
L 72.386224 162.18 
L 72.386224 162.18 
L 70.909522 162.18 
z
" clip-path="url(#p20e6e149a1)" style="fill: #808080; fill-opacity: 0.6; stroke: #ffffff; stroke-width: 0.158523; stroke-linejoin: miter"/>
   </g>
   <g id="patch_10">
    <path d="M 72.386224 162.18 
L 73.862927 162.18 
L 73.862927 162.18 
L 72.386224 162.18 
z
" clip-path="url(#p20e6e149a1)" style="fill: #808080; fill-opacity: 0.6; stroke: #ffffff; stroke-width: 0.158523; stroke-linejoin: miter"/>
   </g>
   <g id="patch_11">
    <path d="M 73.862927 162.18 
L 75.339629 162.18 
L 75.339629 162.072098 
L 73.862927 162.072098 
z
" clip-path="url(#p20e6e149a1)" style="fill: #808080; fill-opacity: 0.6; stroke: #ffffff; stroke-width: 0.158523; stroke-linejoin: miter"/>
   </g>
   <g id="patch_12">
    <path d="M 75.339629 162.18 
L 76.816331 162.18 
L 76.816331 162.072098 
L 75.339629 162.072098 
z
" clip-path="url(#p20e6e149a1)" style="fill: #808080; fill-opacity: 0.6; stroke: #ffffff; stroke-width: 0.158523; stroke-linejoin: miter"/>
   </g>
   <g id="patch_13">
    <path d="M 76.816331 162.18 
L 78.293033 162.18 
L 78.293033 162.18 
L 76.816331 162.18 
z
" clip-path="url(#p20e6e149a1)" style="fill: #808080; fill-opacity: 0.6; stroke: #ffffff; stroke-width: 0.158523; stroke-linejoin: miter"/>
   </g>
   <g id="patch_14">
    <path d="M 78.293033 162.18 
L 79.769735 162.18 
L 79.769735 162.072098 
L 78.293033 162.072098 
z
" clip-path="url(#p20e6e149a1)" style="fill: #808080; fill-opacity: 0.6; stroke: #ffffff; stroke-width: 0.158523; stroke-linejoin: miter"/>
   </g>
   <g id="patch_15">
    <path d="M 79.769735 162.18 
L 81.246438 162.18 
L 81.246438 162.18 
L 79.769735 162.18 
z
" clip-path="url(#p20e6e149a1)" style="fill: #808080; fill-opacity: 0.6; stroke: #ffffff; stroke-width: 0.158523; stroke-linejoin: miter"/>
   </g>
   <g id="patch_16">
    <path d="M 81.246438 162.18 
L 82.72314 162.18 
L 82.72314 162.18 
L 81.246438 162.18 
z
" clip-path="url(#p20e6e149a1)" style="fill: #808080; fill-opacity: 0.6; stroke: #ffffff; stroke-width: 0.158523; stroke-linejoin: miter"/>
   </g>
   <g id="patch_17">
    <path d="M 82.72314 162.18 
L 84.199842 162.18 
L 84.199842 162.072098 
L 82.72314 162.072098 
z
" clip-path="url(#p20e6e149a1)" style="fill: #808080; fill-opacity: 0.6; stroke: #ffffff; stroke-width: 0.158523; stroke-linejoin: miter"/>
   </g>
   <g id="patch_18">
    <path d="M 84.199842 162.18 
L 85.676544 162.18 
L 85.676544 162.072098 
L 84.199842 162.072098 
z
" clip-path="url(#p20e6e149a1)" style="fill: #808080; fill-opacity: 0.6; stroke: #ffffff; stroke-width: 0.158523; stroke-linejoin: miter"/>
   </g>
   <g id="patch_19">
    <path d="M 85.676544 162.18 
L 87.153247 162.18 
L 87.153247 162.072098 
L 85.676544 162.072098 
z
" clip-path="url(#p20e6e149a1)" style="fill: #808080; fill-opacity: 0.6; stroke: #ffffff; stroke-width: 0.158523; stroke-linejoin: miter"/>
   </g>
   <g id="patch_20">
    <path d="M 87.153247 162.18 
L 88.629949 162.18 
L 88.629949 162.18 
L 87.153247 162.18 
z
" clip-path="url(#p20e6e149a1)" style="fill: #808080; fill-opacity: 0.6; stroke: #ffffff; stroke-width: 0.158523; stroke-linejoin: miter"/>
   </g>
   <g id="patch_21">
    <path d="M 88.629949 162.18 
L 90.106651 162.18 
L 90.106651 162.072098 
L 88.629949 162.072098 
z
" clip-path="url(#p20e6e149a1)" style="fill: #808080; fill-opacity: 0.6; stroke: #ffffff; stroke-width: 0.158523; stroke-linejoin: miter"/>
   </g>
   <g id="patch_22">
    <path d="M 90.106651 162.18 
L 91.583353 162.18 
L 91.583353 162.072098 
L 90.106651 162.072098 
z
" clip-path="url(#p20e6e149a1)" style="fill: #808080; fill-opacity: 0.6; stroke: #ffffff; stroke-width: 0.158523; stroke-linejoin: miter"/>
   </g>
   <g id="patch_23">
    <path d="M 91.583353 162.18 
L 93.060055 162.18 
L 93.060055 162.18 
L 91.583353 162.18 
z
" clip-path="url(#p20e6e149a1)" style="fill: #808080; fill-opacity: 0.6; stroke: #ffffff; stroke-width: 0.158523; stroke-linejoin: miter"/>
   </g>
   <g id="patch_24">
    <path d="M 93.060055 162.18 
L 94.536758 162.18 
L 94.536758 162.18 
L 93.060055 162.18 
z
" clip-path="url(#p20e6e149a1)" style="fill: #808080; fill-opacity: 0.6; stroke: #ffffff; stroke-width: 0.158523; stroke-linejoin: miter"/>
   </g>
   <g id="patch_25">
    <path d="M 94.536758 162.18 
L 96.01346 162.18 
L 96.01346 162.18 
L 94.536758 162.18 
z
" clip-path="url(#p20e6e149a1)" style="fill: #808080; fill-opacity: 0.6; stroke: #ffffff; stroke-width: 0.158523; stroke-linejoin: miter"/>
   </g>
   <g id="patch_26">
    <path d="M 96.01346 162.18 
L 97.490162 162.18 
L 97.490162 162.18 
L 96.01346 162.18 
z
" clip-path="url(#p20e6e149a1)" style="fill: #808080; fill-opacity: 0.6; stroke: #ffffff; stroke-width: 0.158523; stroke-linejoin: miter"/>
   </g>
   <g id="patch_27">
    <path d="M 97.490162 162.18 
L 98.966864 162.18 
L 98.966864 161.964195 
L 97.490162 161.964195 
z
" clip-path="url(#p20e6e149a1)" style="fill: #808080; fill-opacity: 0.6; stroke: #ffffff; stroke-width: 0.158523; stroke-linejoin: miter"/>
   </g>
   <g id="patch_28">
    <path d="M 98.966864 162.18 
L 100.443566 162.18 
L 100.443566 161.964195 
L 98.966864 161.964195 
z
" clip-path="url(#p20e6e149a1)" style="fill: #808080; fill-opacity: 0.6; stroke: #ffffff; stroke-width: 0.158523; stroke-linejoin: miter"/>
   </g>
   <g id="patch_29">
    <path d="M 100.443566 162.18 
L 101.920269 162.18 
L 101.920269 161.964195 
L 100.443566 161.964195 
z
" clip-path="url(#p20e6e149a1)" style="fill: #808080; fill-opacity: 0.6; stroke: #ffffff; stroke-width: 0.158523; stroke-linejoin: miter"/>
   </g>
   <g id="patch_30">
    <path d="M 101.920269 162.18 
L 103.396971 162.18 
L 103.396971 162.072098 
L 101.920269 162.072098 
z
" clip-path="url(#p20e6e149a1)" style="fill: #808080; fill-opacity: 0.6; stroke: #ffffff; stroke-width: 0.158523; stroke-linejoin: miter"/>
   </g>
   <g id="patch_31">
    <path d="M 103.396971 162.18 
L 104.873673 162.18 
L 104.873673 162.18 
L 103.396971 162.18 
z
" clip-path="url(#p20e6e149a1)" style="fill: #808080; fill-opacity: 0.6; stroke: #ffffff; stroke-width: 0.158523; stroke-linejoin: miter"/>
   </g>
   <g id="patch_32">
    <path d="M 104.873673 162.18 
L 106.350375 162.18 
L 106.350375 162.072098 
L 104.873673 162.072098 
z
" clip-path="url(#p20e6e149a1)" style="fill: #808080; fill-opacity: 0.6; stroke: #ffffff; stroke-width: 0.158523; stroke-linejoin: miter"/>
   </g>
   <g id="patch_33">
    <path d="M 106.350375 162.18 
L 107.827078 162.18 
L 107.827078 162.18 
L 106.350375 162.18 
z
" clip-path="url(#p20e6e149a1)" style="fill: #808080; fill-opacity: 0.6; stroke: #ffffff; stroke-width: 0.158523; stroke-linejoin: miter"/>
   </g>
   <g id="patch_34">
    <path d="M 107.827078 162.18 
L 109.30378 162.18 
L 109.30378 162.18 
L 107.827078 162.18 
z
" clip-path="url(#p20e6e149a1)" style="fill: #808080; fill-opacity: 0.6; stroke: #ffffff; stroke-width: 0.158523; stroke-linejoin: miter"/>
   </g>
   <g id="patch_35">
    <path d="M 109.30378 162.18 
L 110.780482 162.18 
L 110.780482 162.18 
L 109.30378 162.18 
z
" clip-path="url(#p20e6e149a1)" style="fill: #808080; fill-opacity: 0.6; stroke: #ffffff; stroke-width: 0.158523; stroke-linejoin: miter"/>
   </g>
   <g id="patch_36">
    <path d="M 110.780482 162.18 
L 112.257184 162.18 
L 112.257184 162.18 
L 110.780482 162.18 
z
" clip-path="url(#p20e6e149a1)" style="fill: #808080; fill-opacity: 0.6; stroke: #ffffff; stroke-width: 0.158523; stroke-linejoin: miter"/>
   </g>
   <g id="patch_37">
    <path d="M 112.257184 162.18 
L 113.733886 162.18 
L 113.733886 162.18 
L 112.257184 162.18 
z
" clip-path="url(#p20e6e149a1)" style="fill: #808080; fill-opacity: 0.6; stroke: #ffffff; stroke-width: 0.158523; stroke-linejoin: miter"/>
   </g>
   <g id="patch_38">
    <path d="M 113.733886 162.18 
L 115.210589 162.18 
L 115.210589 159.050834 
L 113.733886 159.050834 
z
" clip-path="url(#p20e6e149a1)" style="fill: #808080; fill-opacity: 0.6; stroke: #ffffff; stroke-width: 0.158523; stroke-linejoin: miter"/>
   </g>
   <g id="patch_39">
    <path d="M 115.210589 162.18 
L 116.687291 162.18 
L 116.687291 151.173968 
L 115.210589 151.173968 
z
" clip-path="url(#p20e6e149a1)" style="fill: #808080; fill-opacity: 0.6; stroke: #ffffff; stroke-width: 0.158523; stroke-linejoin: miter"/>
   </g>
   <g id="patch_40">
    <path d="M 116.687291 162.18 
L 118.163993 162.18 
L 118.163993 129.593513 
L 116.687291 129.593513 
z
" clip-path="url(#p20e6e149a1)" style="fill: #808080; fill-opacity: 0.6; stroke: #ffffff; stroke-width: 0.158523; stroke-linejoin: miter"/>
   </g>
   <g id="patch_41">
    <path d="M 118.163993 162.18 
L 119.640695 162.18 
L 119.640695 86.864212 
L 118.163993 86.864212 
z
" clip-path="url(#p20e6e149a1)" style="fill: #808080; fill-opacity: 0.6; stroke: #ffffff; stroke-width: 0.158523; stroke-linejoin: miter"/>
   </g>
   <g id="patch_42">
    <path d="M 119.640695 162.18 
L 121.117398 162.18 
L 121.117398 46.292957 
L 119.640695 46.292957 
z
" clip-path="url(#p20e6e149a1)" style="fill: #808080; fill-opacity: 0.6; stroke: #ffffff; stroke-width: 0.158523; stroke-linejoin: miter"/>
   </g>
   <g id="patch_43">
    <path d="M 121.117398 162.18 
L 122.5941 162.18 
L 122.5941 34.1 
L 121.117398 34.1 
z
" clip-path="url(#p20e6e149a1)" style="fill: #808080; fill-opacity: 0.6; stroke: #ffffff; stroke-width: 0.158523; stroke-linejoin: miter"/>
   </g>
   <g id="patch_44">
    <path d="M 122.5941 162.18 
L 124.070802 162.18 
L 124.070802 63.449419 
L 122.5941 63.449419 
z
" clip-path="url(#p20e6e149a1)" style="fill: #808080; fill-opacity: 0.6; stroke: #ffffff; stroke-width: 0.158523; stroke-linejoin: miter"/>
   </g>
   <g id="patch_45">
    <path d="M 124.070802 162.18 
L 125.547504 162.18 
L 125.547504 111.681735 
L 124.070802 111.681735 
z
" clip-path="url(#p20e6e149a1)" style="fill: #808080; fill-opacity: 0.6; stroke: #ffffff; stroke-width: 0.158523; stroke-linejoin: miter"/>
   </g>
   <g id="patch_46">
    <path d="M 125.547504 162.18 
L 127.024206 162.18 
L 127.024206 143.620809 
L 125.547504 143.620809 
z
" clip-path="url(#p20e6e149a1)" style="fill: #808080; fill-opacity: 0.6; stroke: #ffffff; stroke-width: 0.158523; stroke-linejoin: miter"/>
   </g>
   <g id="patch_47">
    <path d="M 127.024206 162.18 
L 128.500909 162.18 
L 128.500909 157.863909 
L 127.024206 157.863909 
z
" clip-path="url(#p20e6e149a1)" style="fill: #808080; fill-opacity: 0.6; stroke: #ffffff; stroke-width: 0.158523; stroke-linejoin: miter"/>
   </g>
   <g id="patch_48">
    <path d="M 128.500909 162.18 
L 129.977611 162.18 
L 129.977611 160.885173 
L 128.500909 160.885173 
z
" clip-path="url(#p20e6e149a1)" style="fill: #808080; fill-opacity: 0.6; stroke: #ffffff; stroke-width: 0.158523; stroke-linejoin: miter"/>
   </g>
   <g id="patch_49">
    <path d="M 129.977611 162.18 
L 131.454313 162.18 
L 131.454313 162.072098 
L 129.977611 162.072098 
z
" clip-path="url(#p20e6e149a1)" style="fill: #808080; fill-opacity: 0.6; stroke: #ffffff; stroke-width: 0.158523; stroke-linejoin: miter"/>
   </g>
   <g id="patch_50">
    <path d="M 131.454313 162.18 
L 132.931015 162.18 
L 132.931015 162.18 
L 131.454313 162.18 
z
" clip-path="url(#p20e6e149a1)" style="fill: #808080; fill-opacity: 0.6; stroke: #ffffff; stroke-width: 0.158523; stroke-linejoin: miter"/>
   </g>
   <g id="patch_51">
    <path d="M 132.931015 162.18 
L 134.407717 162.18 
L 134.407717 162.072098 
L 132.931015 162.072098 
z
" clip-path="url(#p20e6e149a1)" style="fill: #808080; fill-opacity: 0.6; stroke: #ffffff; stroke-width: 0.158523; stroke-linejoin: miter"/>
   </g>
   <g id="patch_52">
    <path d="M 134.407717 162.18 
L 135.88442 162.18 
L 135.88442 162.18 
L 134.407717 162.18 
z
" clip-path="url(#p20e6e149a1)" style="fill: #808080; fill-opacity: 0.6; stroke: #ffffff; stroke-width: 0.158523; stroke-linejoin: miter"/>
   </g>
   <g id="patch_53">
    <path d="M 135.88442 162.18 
L 137.361122 162.18 
L 137.361122 161.964195 
L 135.88442 161.964195 
z
" clip-path="url(#p20e6e149a1)" style="fill: #808080; fill-opacity: 0.6; stroke: #ffffff; stroke-width: 0.158523; stroke-linejoin: miter"/>
   </g>
   <g id="patch_54">
    <path d="M 137.361122 162.18 
L 138.837824 162.18 
L 138.837824 162.072098 
L 137.361122 162.072098 
z
" clip-path="url(#p20e6e149a1)" style="fill: #808080; fill-opacity: 0.6; stroke: #ffffff; stroke-width: 0.158523; stroke-linejoin: miter"/>
   </g>
   <g id="patch_55">
    <path d="M 138.837824 162.18 
L 140.314526 162.18 
L 140.314526 162.072098 
L 138.837824 162.072098 
z
" clip-path="url(#p20e6e149a1)" style="fill: #808080; fill-opacity: 0.6; stroke: #ffffff; stroke-width: 0.158523; stroke-linejoin: miter"/>
   </g>
   <g id="patch_56">
    <path d="M 140.314526 162.18 
L 141.791229 162.18 
L 141.791229 162.18 
L 140.314526 162.18 
z
" clip-path="url(#p20e6e149a1)" style="fill: #808080; fill-opacity: 0.6; stroke: #ffffff; stroke-width: 0.158523; stroke-linejoin: miter"/>
   </g>
   <g id="patch_57">
    <path d="M 141.791229 162.18 
L 143.267931 162.18 
L 143.267931 162.18 
L 141.791229 162.18 
z
" clip-path="url(#p20e6e149a1)" style="fill: #808080; fill-opacity: 0.6; stroke: #ffffff; stroke-width: 0.158523; stroke-linejoin: miter"/>
   </g>
   <g id="patch_58">
    <path d="M 143.267931 162.18 
L 144.744633 162.18 
L 144.744633 162.072098 
L 143.267931 162.072098 
z
" clip-path="url(#p20e6e149a1)" style="fill: #808080; fill-opacity: 0.6; stroke: #ffffff; stroke-width: 0.158523; stroke-linejoin: miter"/>
   </g>
   <g id="patch_59">
    <path d="M 144.744633 162.18 
L 146.221335 162.18 
L 146.221335 162.18 
L 144.744633 162.18 
z
" clip-path="url(#p20e6e149a1)" style="fill: #808080; fill-opacity: 0.6; stroke: #ffffff; stroke-width: 0.158523; stroke-linejoin: miter"/>
   </g>
   <g id="patch_60">
    <path d="M 146.221335 162.18 
L 147.698037 162.18 
L 147.698037 162.072098 
L 146.221335 162.072098 
z
" clip-path="url(#p20e6e149a1)" style="fill: #808080; fill-opacity: 0.6; stroke: #ffffff; stroke-width: 0.158523; stroke-linejoin: miter"/>
   </g>
   <g id="patch_61">
    <path d="M 147.698037 162.18 
L 149.17474 162.18 
L 149.17474 161.748391 
L 147.698037 161.748391 
z
" clip-path="url(#p20e6e149a1)" style="fill: #808080; fill-opacity: 0.6; stroke: #ffffff; stroke-width: 0.158523; stroke-linejoin: miter"/>
   </g>
   <g id="patch_62">
    <path d="M 149.17474 162.18 
L 150.651442 162.18 
L 150.651442 162.072098 
L 149.17474 162.072098 
z
" clip-path="url(#p20e6e149a1)" style="fill: #808080; fill-opacity: 0.6; stroke: #ffffff; stroke-width: 0.158523; stroke-linejoin: miter"/>
   </g>
   <g id="patch_63">
    <path d="M 150.651442 162.18 
L 152.128144 162.18 
L 152.128144 162.18 
L 150.651442 162.18 
z
" clip-path="url(#p20e6e149a1)" style="fill: #808080; fill-opacity: 0.6; stroke: #ffffff; stroke-width: 0.158523; stroke-linejoin: miter"/>
   </g>
   <g id="patch_64">
    <path d="M 152.128144 162.18 
L 153.604846 162.18 
L 153.604846 162.072098 
L 152.128144 162.072098 
z
" clip-path="url(#p20e6e149a1)" style="fill: #808080; fill-opacity: 0.6; stroke: #ffffff; stroke-width: 0.158523; stroke-linejoin: miter"/>
   </g>
   <g id="patch_65">
    <path d="M 153.604846 162.18 
L 155.081548 162.18 
L 155.081548 161.964195 
L 153.604846 161.964195 
z
" clip-path="url(#p20e6e149a1)" style="fill: #808080; fill-opacity: 0.6; stroke: #ffffff; stroke-width: 0.158523; stroke-linejoin: miter"/>
   </g>
   <g id="patch_66">
    <path d="M 155.081548 162.18 
L 156.558251 162.18 
L 156.558251 161.964195 
L 155.081548 161.964195 
z
" clip-path="url(#p20e6e149a1)" style="fill: #808080; fill-opacity: 0.6; stroke: #ffffff; stroke-width: 0.158523; stroke-linejoin: miter"/>
   </g>
   <g id="patch_67">
    <path d="M 156.558251 162.18 
L 158.034953 162.18 
L 158.034953 162.072098 
L 156.558251 162.072098 
z
" clip-path="url(#p20e6e149a1)" style="fill: #808080; fill-opacity: 0.6; stroke: #ffffff; stroke-width: 0.158523; stroke-linejoin: miter"/>
   </g>
   <g id="patch_68">
    <path d="M 158.034953 162.18 
L 159.511655 162.18 
L 159.511655 162.072098 
L 158.034953 162.072098 
z
" clip-path="url(#p20e6e149a1)" style="fill: #808080; fill-opacity: 0.6; stroke: #ffffff; stroke-width: 0.158523; stroke-linejoin: miter"/>
   </g>
   <g id="patch_69">
    <path d="M 159.511655 162.18 
L 160.988357 162.18 
L 160.988357 162.18 
L 159.511655 162.18 
z
" clip-path="url(#p20e6e149a1)" style="fill: #808080; fill-opacity: 0.6; stroke: #ffffff; stroke-width: 0.158523; stroke-linejoin: miter"/>
   </g>
   <g id="patch_70">
    <path d="M 160.988357 162.18 
L 162.46506 162.18 
L 162.46506 162.18 
L 160.988357 162.18 
z
" clip-path="url(#p20e6e149a1)" style="fill: #808080; fill-opacity: 0.6; stroke: #ffffff; stroke-width: 0.158523; stroke-linejoin: miter"/>
   </g>
   <g id="patch_71">
    <path d="M 162.46506 162.18 
L 163.941762 162.18 
L 163.941762 162.18 
L 162.46506 162.18 
z
" clip-path="url(#p20e6e149a1)" style="fill: #808080; fill-opacity: 0.6; stroke: #ffffff; stroke-width: 0.158523; stroke-linejoin: miter"/>
   </g>
   <g id="patch_72">
    <path d="M 163.941762 162.18 
L 165.418464 162.18 
L 165.418464 162.18 
L 163.941762 162.18 
z
" clip-path="url(#p20e6e149a1)" style="fill: #808080; fill-opacity: 0.6; stroke: #ffffff; stroke-width: 0.158523; stroke-linejoin: miter"/>
   </g>
   <g id="patch_73">
    <path d="M 165.418464 162.18 
L 166.895166 162.18 
L 166.895166 162.18 
L 165.418464 162.18 
z
" clip-path="url(#p20e6e149a1)" style="fill: #808080; fill-opacity: 0.6; stroke: #ffffff; stroke-width: 0.158523; stroke-linejoin: miter"/>
   </g>
   <g id="patch_74">
    <path d="M 166.895166 162.18 
L 168.371868 162.18 
L 168.371868 162.18 
L 166.895166 162.18 
z
" clip-path="url(#p20e6e149a1)" style="fill: #808080; fill-opacity: 0.6; stroke: #ffffff; stroke-width: 0.158523; stroke-linejoin: miter"/>
   </g>
   <g id="patch_75">
    <path d="M 168.371868 162.18 
L 169.848571 162.18 
L 169.848571 162.072098 
L 168.371868 162.072098 
z
" clip-path="url(#p20e6e149a1)" style="fill: #808080; fill-opacity: 0.6; stroke: #ffffff; stroke-width: 0.158523; stroke-linejoin: miter"/>
   </g>
   <g id="patch_76">
    <path d="M 169.848571 162.18 
L 171.325273 162.18 
L 171.325273 162.072098 
L 169.848571 162.072098 
z
" clip-path="url(#p20e6e149a1)" style="fill: #808080; fill-opacity: 0.6; stroke: #ffffff; stroke-width: 0.158523; stroke-linejoin: miter"/>
   </g>
   <g id="patch_77">
    <path d="M 171.325273 162.18 
L 172.801975 162.18 
L 172.801975 161.964195 
L 171.325273 161.964195 
z
" clip-path="url(#p20e6e149a1)" style="fill: #808080; fill-opacity: 0.6; stroke: #ffffff; stroke-width: 0.158523; stroke-linejoin: miter"/>
   </g>
   <g id="patch_78">
    <path d="M 172.801975 162.18 
L 174.278677 162.18 
L 174.278677 162.072098 
L 172.801975 162.072098 
z
" clip-path="url(#p20e6e149a1)" style="fill: #808080; fill-opacity: 0.6; stroke: #ffffff; stroke-width: 0.158523; stroke-linejoin: miter"/>
   </g>
   <g id="patch_79">
    <path d="M 174.278677 162.18 
L 175.75538 162.18 
L 175.75538 162.18 
L 174.278677 162.18 
z
" clip-path="url(#p20e6e149a1)" style="fill: #808080; fill-opacity: 0.6; stroke: #ffffff; stroke-width: 0.158523; stroke-linejoin: miter"/>
   </g>
   <g id="patch_80">
    <path d="M 175.75538 162.18 
L 177.232082 162.18 
L 177.232082 162.18 
L 175.75538 162.18 
z
" clip-path="url(#p20e6e149a1)" style="fill: #808080; fill-opacity: 0.6; stroke: #ffffff; stroke-width: 0.158523; stroke-linejoin: miter"/>
   </g>
   <g id="patch_81">
    <path d="M 177.232082 162.18 
L 178.708784 162.18 
L 178.708784 162.18 
L 177.232082 162.18 
z
" clip-path="url(#p20e6e149a1)" style="fill: #808080; fill-opacity: 0.6; stroke: #ffffff; stroke-width: 0.158523; stroke-linejoin: miter"/>
   </g>
   <g id="patch_82">
    <path d="M 178.708784 162.18 
L 180.185486 162.18 
L 180.185486 162.072098 
L 178.708784 162.072098 
z
" clip-path="url(#p20e6e149a1)" style="fill: #808080; fill-opacity: 0.6; stroke: #ffffff; stroke-width: 0.158523; stroke-linejoin: miter"/>
   </g>
   <g id="patch_83">
    <path d="M 180.725182 162.18 
L 180.846404 162.18 
L 180.846404 27.696 
L 180.725182 27.696 
z
" clip-path="url(#p20e6e149a1)" style="fill: #f9cbcd; opacity: 0.4; stroke: #f9cbcd; stroke-linejoin: miter"/>
   </g>
   <g id="patch_84">
    <path d="M 62.049309 162.18 
L 62.17053 162.18 
L 62.17053 27.696 
L 62.049309 27.696 
z
" clip-path="url(#p20e6e149a1)" style="fill: #f9cbcd; opacity: 0.4; stroke: #f9cbcd; stroke-linejoin: miter"/>
   </g>
   <g id="line2d_9">
    <path d="M 180.725182 162.18 
L 180.725182 27.696 
" clip-path="url(#p20e6e149a1)" style="fill: none; stroke-dasharray: 5.55,2.4; stroke-dashoffset: 0; stroke: #d31518; stroke-width: 1.5"/>
   </g>
   <g id="line2d_10">
    <path d="M 62.17053 162.18 
L 62.17053 27.696 
" clip-path="url(#p20e6e149a1)" style="fill: none; stroke-dasharray: 5.55,2.4; stroke-dashoffset: 0; stroke: #d31518; stroke-width: 1.5"/>
   </g>
   <g id="patch_85">
    <path d="M 56.1425 162.18 
L 56.1425 27.696 
" style="fill: none; stroke: #cccccc; stroke-width: 1.25; stroke-linejoin: miter; stroke-linecap: square"/>
   </g>
   <g id="patch_86">
    <path d="M 56.1425 162.18 
L 186.092295 162.18 
" style="fill: none; stroke: #cccccc; stroke-width: 1.25; stroke-linejoin: miter; stroke-linecap: square"/>
   </g>
   <g id="text_11">
    <!-- Heavy-Tailed Data (LLM-like) -->
    <g style="fill: #262626" transform="translate(66.959898 13.02375) scale(0.08 -0.08)">
     <defs>
      <path id="Arial-BoldMT-48" d="M 469 0 
L 469 4581 
L 1394 4581 
L 1394 2778 
L 3206 2778 
L 3206 4581 
L 4131 4581 
L 4131 0 
L 3206 0 
L 3206 2003 
L 1394 2003 
L 1394 0 
L 469 0 
z
" transform="scale(0.015625)"/>
      <path id="Arial-BoldMT-65" d="M 2381 1056 
L 3256 909 
Q 3088 428 2723 176 
Q 2359 -75 1813 -75 
Q 947 -75 531 491 
Q 203 944 203 1634 
Q 203 2459 634 2926 
Q 1066 3394 1725 3394 
Q 2466 3394 2894 2905 
Q 3322 2416 3303 1406 
L 1103 1406 
Q 1113 1016 1316 798 
Q 1519 581 1822 581 
Q 2028 581 2168 693 
Q 2309 806 2381 1056 
z
M 2431 1944 
Q 2422 2325 2234 2523 
Q 2047 2722 1778 2722 
Q 1491 2722 1303 2513 
Q 1116 2303 1119 1944 
L 2431 1944 
z
" transform="scale(0.015625)"/>
      <path id="Arial-BoldMT-61" d="M 1116 2306 
L 319 2450 
Q 453 2931 781 3162 
Q 1109 3394 1756 3394 
Q 2344 3394 2631 3255 
Q 2919 3116 3036 2902 
Q 3153 2688 3153 2116 
L 3144 1091 
Q 3144 653 3186 445 
Q 3228 238 3344 0 
L 2475 0 
Q 2441 88 2391 259 
Q 2369 338 2359 363 
Q 2134 144 1878 34 
Q 1622 -75 1331 -75 
Q 819 -75 523 203 
Q 228 481 228 906 
Q 228 1188 362 1408 
Q 497 1628 739 1745 
Q 981 1863 1438 1950 
Q 2053 2066 2291 2166 
L 2291 2253 
Q 2291 2506 2166 2614 
Q 2041 2722 1694 2722 
Q 1459 2722 1328 2630 
Q 1197 2538 1116 2306 
z
M 2291 1594 
Q 2122 1538 1756 1459 
Q 1391 1381 1278 1306 
Q 1106 1184 1106 997 
Q 1106 813 1243 678 
Q 1381 544 1594 544 
Q 1831 544 2047 700 
Q 2206 819 2256 991 
Q 2291 1103 2291 1419 
L 2291 1594 
z
" transform="scale(0.015625)"/>
      <path id="Arial-BoldMT-76" d="M 1372 0 
L 34 3319 
L 956 3319 
L 1581 1625 
L 1763 1059 
Q 1834 1275 1853 1344 
Q 1897 1484 1947 1625 
L 2578 3319 
L 3481 3319 
L 2163 0 
L 1372 0 
z
" transform="scale(0.015625)"/>
      <path id="Arial-BoldMT-79" d="M 44 3319 
L 978 3319 
L 1772 963 
L 2547 3319 
L 3456 3319 
L 2284 125 
L 2075 -453 
Q 1959 -744 1854 -897 
Q 1750 -1050 1614 -1145 
Q 1478 -1241 1279 -1294 
Q 1081 -1347 831 -1347 
Q 578 -1347 334 -1294 
L 256 -606 
Q 463 -647 628 -647 
Q 934 -647 1081 -467 
Q 1228 -288 1306 -9 
L 44 3319 
z
" transform="scale(0.015625)"/>
      <path id="Arial-BoldMT-2d" d="M 359 1222 
L 359 2100 
L 2084 2100 
L 2084 1222 
L 359 1222 
z
" transform="scale(0.015625)"/>
      <path id="Arial-BoldMT-54" d="M 1497 0 
L 1497 3806 
L 138 3806 
L 138 4581 
L 3778 4581 
L 3778 3806 
L 2422 3806 
L 2422 0 
L 1497 0 
z
" transform="scale(0.015625)"/>
      <path id="Arial-BoldMT-69" d="M 459 3769 
L 459 4581 
L 1338 4581 
L 1338 3769 
L 459 3769 
z
M 459 0 
L 459 3319 
L 1338 3319 
L 1338 0 
L 459 0 
z
" transform="scale(0.015625)"/>
      <path id="Arial-BoldMT-6c" d="M 459 0 
L 459 4581 
L 1338 4581 
L 1338 0 
L 459 0 
z
" transform="scale(0.015625)"/>
      <path id="Arial-BoldMT-64" d="M 3503 0 
L 2688 0 
L 2688 488 
Q 2484 203 2207 64 
Q 1931 -75 1650 -75 
Q 1078 -75 670 386 
Q 263 847 263 1672 
Q 263 2516 659 2955 
Q 1056 3394 1663 3394 
Q 2219 3394 2625 2931 
L 2625 4581 
L 3503 4581 
L 3503 0 
z
M 1159 1731 
Q 1159 1200 1306 963 
Q 1519 619 1900 619 
Q 2203 619 2415 876 
Q 2628 1134 2628 1647 
Q 2628 2219 2422 2470 
Q 2216 2722 1894 2722 
Q 1581 2722 1370 2473 
Q 1159 2225 1159 1731 
z
" transform="scale(0.015625)"/>
      <path id="Arial-BoldMT-20" transform="scale(0.015625)"/>
      <path id="Arial-BoldMT-44" d="M 463 4581 
L 2153 4581 
Q 2725 4581 3025 4494 
Q 3428 4375 3715 4072 
Q 4003 3769 4153 3330 
Q 4303 2891 4303 2247 
Q 4303 1681 4163 1272 
Q 3991 772 3672 463 
Q 3431 228 3022 97 
Q 2716 0 2203 0 
L 463 0 
L 463 4581 
z
M 1388 3806 
L 1388 772 
L 2078 772 
Q 2466 772 2638 816 
Q 2863 872 3011 1006 
Q 3159 1141 3253 1448 
Q 3347 1756 3347 2288 
Q 3347 2819 3253 3103 
Q 3159 3388 2990 3547 
Q 2822 3706 2563 3763 
Q 2369 3806 1803 3806 
L 1388 3806 
z
" transform="scale(0.015625)"/>
      <path id="Arial-BoldMT-74" d="M 1981 3319 
L 1981 2619 
L 1381 2619 
L 1381 1281 
Q 1381 875 1398 808 
Q 1416 741 1477 697 
Q 1538 653 1625 653 
Q 1747 653 1978 738 
L 2053 56 
Q 1747 -75 1359 -75 
Q 1122 -75 931 4 
Q 741 84 652 211 
Q 563 338 528 553 
Q 500 706 500 1172 
L 500 2619 
L 97 2619 
L 97 3319 
L 500 3319 
L 500 3978 
L 1381 4491 
L 1381 3319 
L 1981 3319 
z
" transform="scale(0.015625)"/>
      <path id="Arial-BoldMT-28" d="M 1916 -1347 
L 1313 -1347 
Q 834 -625 584 153 
Q 334 931 334 1659 
Q 334 2563 644 3369 
Q 913 4069 1325 4659 
L 1925 4659 
Q 1497 3713 1336 3048 
Q 1175 2384 1175 1641 
Q 1175 1128 1270 590 
Q 1366 53 1531 -431 
Q 1641 -750 1916 -1347 
z
" transform="scale(0.015625)"/>
      <path id="Arial-BoldMT-4c" d="M 491 0 
L 491 4544 
L 1416 4544 
L 1416 772 
L 3716 772 
L 3716 0 
L 491 0 
z
" transform="scale(0.015625)"/>
      <path id="Arial-BoldMT-4d" d="M 453 0 
L 453 4581 
L 1838 4581 
L 2669 1456 
L 3491 4581 
L 4878 4581 
L 4878 0 
L 4019 0 
L 4019 3606 
L 3109 0 
L 2219 0 
L 1313 3606 
L 1313 0 
L 453 0 
z
" transform="scale(0.015625)"/>
      <path id="Arial-BoldMT-6b" d="M 428 0 
L 428 4581 
L 1306 4581 
L 1306 2150 
L 2334 3319 
L 3416 3319 
L 2281 2106 
L 3497 0 
L 2550 0 
L 1716 1491 
L 1306 1063 
L 1306 0 
L 428 0 
z
" transform="scale(0.015625)"/>
      <path id="Arial-BoldMT-29" d="M 216 -1347 
Q 475 -791 581 -494 
Q 688 -197 778 190 
Q 869 578 912 926 
Q 956 1275 956 1641 
Q 956 2384 797 3048 
Q 638 3713 209 4659 
L 806 4659 
Q 1278 3988 1539 3234 
Q 1800 2481 1800 1706 
Q 1800 1053 1594 306 
Q 1359 -531 822 -1347 
L 216 -1347 
z
" transform="scale(0.015625)"/>
     </defs>
     <use xlink:href="#Arial-BoldMT-48"/>
     <use xlink:href="#Arial-BoldMT-65" transform="translate(72.216797 0)"/>
     <use xlink:href="#Arial-BoldMT-61" transform="translate(127.832031 0)"/>
     <use xlink:href="#Arial-BoldMT-76" transform="translate(183.447266 0)"/>
     <use xlink:href="#Arial-BoldMT-79" transform="translate(239.0625 0)"/>
     <use xlink:href="#Arial-BoldMT-2d" transform="translate(294.677734 0)"/>
     <use xlink:href="#Arial-BoldMT-54" transform="translate(327.978516 0)"/>
     <use xlink:href="#Arial-BoldMT-61" transform="translate(381.6875 0)"/>
     <use xlink:href="#Arial-BoldMT-69" transform="translate(437.302734 0)"/>
     <use xlink:href="#Arial-BoldMT-6c" transform="translate(465.085938 0)"/>
     <use xlink:href="#Arial-BoldMT-65" transform="translate(492.869141 0)"/>
     <use xlink:href="#Arial-BoldMT-64" transform="translate(548.484375 0)"/>
     <use xlink:href="#Arial-BoldMT-20" transform="translate(609.568359 0)"/>
     <use xlink:href="#Arial-BoldMT-44" transform="translate(637.351562 0)"/>
     <use xlink:href="#Arial-BoldMT-61" transform="translate(709.568359 0)"/>
     <use xlink:href="#Arial-BoldMT-74" transform="translate(765.183594 0)"/>
     <use xlink:href="#Arial-BoldMT-61" transform="translate(798.484375 0)"/>
     <use xlink:href="#Arial-BoldMT-20" transform="translate(854.099609 0)"/>
     <use xlink:href="#Arial-BoldMT-28" transform="translate(881.882812 0)"/>
     <use xlink:href="#Arial-BoldMT-4c" transform="translate(915.183594 0)"/>
     <use xlink:href="#Arial-BoldMT-4c" transform="translate(976.267578 0)"/>
     <use xlink:href="#Arial-BoldMT-4d" transform="translate(1037.351562 0)"/>
     <use xlink:href="#Arial-BoldMT-2d" transform="translate(1120.652344 0)"/>
     <use xlink:href="#Arial-BoldMT-6c" transform="translate(1153.953125 0)"/>
     <use xlink:href="#Arial-BoldMT-69" transform="translate(1181.736328 0)"/>
     <use xlink:href="#Arial-BoldMT-6b" transform="translate(1209.519531 0)"/>
     <use xlink:href="#Arial-BoldMT-65" transform="translate(1265.134766 0)"/>
     <use xlink:href="#Arial-BoldMT-29" transform="translate(1320.75 0)"/>
    </g>
    <!-- Data Distribution &amp; Clip Boundary -->
    <g style="fill: #262626" transform="translate(56.453023 21.696) scale(0.08 -0.08)">
     <defs>
      <path id="Arial-BoldMT-73" d="M 150 947 
L 1031 1081 
Q 1088 825 1259 692 
Q 1431 559 1741 559 
Q 2081 559 2253 684 
Q 2369 772 2369 919 
Q 2369 1019 2306 1084 
Q 2241 1147 2013 1200 
Q 950 1434 666 1628 
Q 272 1897 272 2375 
Q 272 2806 612 3100 
Q 953 3394 1669 3394 
Q 2350 3394 2681 3172 
Q 3013 2950 3138 2516 
L 2309 2363 
Q 2256 2556 2107 2659 
Q 1959 2763 1684 2763 
Q 1338 2763 1188 2666 
Q 1088 2597 1088 2488 
Q 1088 2394 1175 2328 
Q 1294 2241 1995 2081 
Q 2697 1922 2975 1691 
Q 3250 1456 3250 1038 
Q 3250 581 2869 253 
Q 2488 -75 1741 -75 
Q 1063 -75 667 200 
Q 272 475 150 947 
z
" transform="scale(0.015625)"/>
      <path id="Arial-BoldMT-72" d="M 1300 0 
L 422 0 
L 422 3319 
L 1238 3319 
L 1238 2847 
Q 1447 3181 1614 3287 
Q 1781 3394 1994 3394 
Q 2294 3394 2572 3228 
L 2300 2463 
Q 2078 2606 1888 2606 
Q 1703 2606 1575 2504 
Q 1447 2403 1373 2137 
Q 1300 1872 1300 1025 
L 1300 0 
z
" transform="scale(0.015625)"/>
      <path id="Arial-BoldMT-62" d="M 422 0 
L 422 4581 
L 1300 4581 
L 1300 2931 
Q 1706 3394 2263 3394 
Q 2869 3394 3266 2955 
Q 3663 2516 3663 1694 
Q 3663 844 3258 384 
Q 2853 -75 2275 -75 
Q 1991 -75 1714 67 
Q 1438 209 1238 488 
L 1238 0 
L 422 0 
z
M 1294 1731 
Q 1294 1216 1456 969 
Q 1684 619 2063 619 
Q 2353 619 2558 867 
Q 2763 1116 2763 1650 
Q 2763 2219 2556 2470 
Q 2350 2722 2028 2722 
Q 1713 2722 1503 2476 
Q 1294 2231 1294 1731 
z
" transform="scale(0.015625)"/>
      <path id="Arial-BoldMT-75" d="M 2644 0 
L 2644 497 
Q 2463 231 2167 78 
Q 1872 -75 1544 -75 
Q 1209 -75 943 72 
Q 678 219 559 484 
Q 441 750 441 1219 
L 441 3319 
L 1319 3319 
L 1319 1794 
Q 1319 1094 1367 936 
Q 1416 778 1544 686 
Q 1672 594 1869 594 
Q 2094 594 2272 717 
Q 2450 841 2515 1023 
Q 2581 1206 2581 1919 
L 2581 3319 
L 3459 3319 
L 3459 0 
L 2644 0 
z
" transform="scale(0.015625)"/>
      <path id="Arial-BoldMT-6f" d="M 256 1706 
Q 256 2144 472 2553 
Q 688 2963 1083 3178 
Q 1478 3394 1966 3394 
Q 2719 3394 3200 2905 
Q 3681 2416 3681 1669 
Q 3681 916 3195 420 
Q 2709 -75 1972 -75 
Q 1516 -75 1102 131 
Q 688 338 472 736 
Q 256 1134 256 1706 
z
M 1156 1659 
Q 1156 1166 1390 903 
Q 1625 641 1969 641 
Q 2313 641 2545 903 
Q 2778 1166 2778 1666 
Q 2778 2153 2545 2415 
Q 2313 2678 1969 2678 
Q 1625 2678 1390 2415 
Q 1156 2153 1156 1659 
z
" transform="scale(0.015625)"/>
      <path id="Arial-BoldMT-6e" d="M 3478 0 
L 2600 0 
L 2600 1694 
Q 2600 2231 2544 2389 
Q 2488 2547 2361 2634 
Q 2234 2722 2056 2722 
Q 1828 2722 1647 2597 
Q 1466 2472 1398 2265 
Q 1331 2059 1331 1503 
L 1331 0 
L 453 0 
L 453 3319 
L 1269 3319 
L 1269 2831 
Q 1703 3394 2363 3394 
Q 2653 3394 2893 3289 
Q 3134 3184 3257 3021 
Q 3381 2859 3429 2653 
Q 3478 2447 3478 2063 
L 3478 0 
z
" transform="scale(0.015625)"/>
      <path id="Arial-BoldMT-26" d="M 4519 559 
L 3988 -119 
Q 3597 72 3238 406 
Q 2959 156 2646 37 
Q 2334 -81 1903 -81 
Q 1047 -81 616 400 
Q 281 772 281 1256 
Q 281 1697 543 2048 
Q 806 2400 1328 2659 
Q 1094 2938 975 3189 
Q 856 3441 856 3666 
Q 856 4081 1189 4370 
Q 1522 4659 2138 4659 
Q 2731 4659 3065 4356 
Q 3400 4053 3400 3616 
Q 3400 3338 3234 3088 
Q 3069 2838 2566 2522 
L 3203 1681 
Q 3316 1881 3397 2203 
L 4191 2022 
Q 4072 1600 3984 1404 
Q 3897 1209 3797 1078 
Q 3944 941 4176 777 
Q 4409 613 4519 559 
z
M 2128 3050 
L 2366 3231 
Q 2628 3434 2628 3634 
Q 2628 3803 2501 3922 
Q 2375 4041 2159 4041 
Q 1950 4041 1831 3936 
Q 1713 3831 1713 3694 
Q 1713 3531 1913 3300 
L 2128 3050 
z
M 1784 2097 
Q 1481 1944 1331 1728 
Q 1181 1513 1181 1288 
Q 1181 1003 1367 823 
Q 1553 644 1866 644 
Q 2072 644 2262 725 
Q 2453 806 2678 994 
L 1784 2097 
z
" transform="scale(0.015625)"/>
      <path id="Arial-BoldMT-43" d="M 3397 1684 
L 4294 1400 
Q 4088 650 3608 286 
Q 3128 -78 2391 -78 
Q 1478 -78 890 545 
Q 303 1169 303 2250 
Q 303 3394 893 4026 
Q 1484 4659 2447 4659 
Q 3288 4659 3813 4163 
Q 4125 3869 4281 3319 
L 3366 3100 
Q 3284 3456 3026 3662 
Q 2769 3869 2400 3869 
Q 1891 3869 1573 3503 
Q 1256 3138 1256 2319 
Q 1256 1450 1568 1081 
Q 1881 713 2381 713 
Q 2750 713 3015 947 
Q 3281 1181 3397 1684 
z
" transform="scale(0.015625)"/>
      <path id="Arial-BoldMT-70" d="M 434 3319 
L 1253 3319 
L 1253 2831 
Q 1413 3081 1684 3237 
Q 1956 3394 2288 3394 
Q 2866 3394 3269 2941 
Q 3672 2488 3672 1678 
Q 3672 847 3265 386 
Q 2859 -75 2281 -75 
Q 2006 -75 1782 34 
Q 1559 144 1313 409 
L 1313 -1263 
L 434 -1263 
L 434 3319 
z
M 1303 1716 
Q 1303 1156 1525 889 
Q 1747 622 2066 622 
Q 2372 622 2575 867 
Q 2778 1113 2778 1672 
Q 2778 2194 2568 2447 
Q 2359 2700 2050 2700 
Q 1728 2700 1515 2451 
Q 1303 2203 1303 1716 
z
" transform="scale(0.015625)"/>
      <path id="Arial-BoldMT-42" d="M 469 4581 
L 2300 4581 
Q 2844 4581 3111 4536 
Q 3378 4491 3589 4347 
Q 3800 4203 3940 3964 
Q 4081 3725 4081 3428 
Q 4081 3106 3907 2837 
Q 3734 2569 3438 2434 
Q 3856 2313 4081 2019 
Q 4306 1725 4306 1328 
Q 4306 1016 4161 720 
Q 4016 425 3764 248 
Q 3513 72 3144 31 
Q 2913 6 2028 0 
L 469 0 
L 469 4581 
z
M 1394 3819 
L 1394 2759 
L 2000 2759 
Q 2541 2759 2672 2775 
Q 2909 2803 3045 2939 
Q 3181 3075 3181 3297 
Q 3181 3509 3064 3642 
Q 2947 3775 2716 3803 
Q 2578 3819 1925 3819 
L 1394 3819 
z
M 1394 1997 
L 1394 772 
L 2250 772 
Q 2750 772 2884 800 
Q 3091 838 3220 983 
Q 3350 1128 3350 1372 
Q 3350 1578 3250 1722 
Q 3150 1866 2961 1931 
Q 2772 1997 2141 1997 
L 1394 1997 
z
" transform="scale(0.015625)"/>
     </defs>
     <use xlink:href="#Arial-BoldMT-44"/>
     <use xlink:href="#Arial-BoldMT-61" transform="translate(72.216797 0)"/>
     <use xlink:href="#Arial-BoldMT-74" transform="translate(127.832031 0)"/>
     <use xlink:href="#Arial-BoldMT-61" transform="translate(161.132812 0)"/>
     <use xlink:href="#Arial-BoldMT-20" transform="translate(216.748047 0)"/>
     <use xlink:href="#Arial-BoldMT-44" transform="translate(244.53125 0)"/>
     <use xlink:href="#Arial-BoldMT-69" transform="translate(316.748047 0)"/>
     <use xlink:href="#Arial-BoldMT-73" transform="translate(344.53125 0)"/>
     <use xlink:href="#Arial-BoldMT-74" transform="translate(400.146484 0)"/>
     <use xlink:href="#Arial-BoldMT-72" transform="translate(433.447266 0)"/>
     <use xlink:href="#Arial-BoldMT-69" transform="translate(472.363281 0)"/>
     <use xlink:href="#Arial-BoldMT-62" transform="translate(500.146484 0)"/>
     <use xlink:href="#Arial-BoldMT-75" transform="translate(561.230469 0)"/>
     <use xlink:href="#Arial-BoldMT-74" transform="translate(622.314453 0)"/>
     <use xlink:href="#Arial-BoldMT-69" transform="translate(655.615234 0)"/>
     <use xlink:href="#Arial-BoldMT-6f" transform="translate(683.398438 0)"/>
     <use xlink:href="#Arial-BoldMT-6e" transform="translate(744.482422 0)"/>
     <use xlink:href="#Arial-BoldMT-20" transform="translate(805.566406 0)"/>
     <use xlink:href="#Arial-BoldMT-26" transform="translate(833.349609 0)"/>
     <use xlink:href="#Arial-BoldMT-20" transform="translate(905.566406 0)"/>
     <use xlink:href="#Arial-BoldMT-43" transform="translate(933.349609 0)"/>
     <use xlink:href="#Arial-BoldMT-6c" transform="translate(1005.566406 0)"/>
     <use xlink:href="#Arial-BoldMT-69" transform="translate(1033.349609 0)"/>
     <use xlink:href="#Arial-BoldMT-70" transform="translate(1061.132812 0)"/>
     <use xlink:href="#Arial-BoldMT-20" transform="translate(1122.216797 0)"/>
     <use xlink:href="#Arial-BoldMT-42" transform="translate(1150 0)"/>
     <use xlink:href="#Arial-BoldMT-6f" transform="translate(1222.216797 0)"/>
     <use xlink:href="#Arial-BoldMT-75" transform="translate(1283.300781 0)"/>
     <use xlink:href="#Arial-BoldMT-6e" transform="translate(1344.384766 0)"/>
     <use xlink:href="#Arial-BoldMT-64" transform="translate(1405.46875 0)"/>
     <use xlink:href="#Arial-BoldMT-61" transform="translate(1466.552734 0)"/>
     <use xlink:href="#Arial-BoldMT-72" transform="translate(1522.167969 0)"/>
     <use xlink:href="#Arial-BoldMT-79" transform="translate(1561.083984 0)"/>
    </g>
   </g>
   <g id="legend_1">
    <g id="patch_87">
     <path d="M 134.052608 41.056312 
L 181.892295 41.056312 
Q 183.092295 41.056312 183.092295 39.856313 
L 183.092295 31.896 
Q 183.092295 30.696 181.892295 30.696 
L 134.052608 30.696 
Q 132.852608 30.696 132.852608 31.896 
L 132.852608 39.856313 
Q 132.852608 41.056312 134.052608 41.056312 
z
" style="fill: #ffffff; opacity: 0.8; stroke: #cccccc; stroke-linejoin: miter"/>
    </g>
    <g id="line2d_11">
     <path d="M 135.252608 35.363812 
L 141.252608 35.363812 
L 147.252608 35.363812 
" style="fill: none; stroke-dasharray: 5.55,2.4; stroke-dashoffset: 0; stroke: #d31518; stroke-width: 1.5"/>
    </g>
    <g id="text_12">
     <!-- Clip: ±24.5 -->
     <g style="fill: #262626" transform="translate(152.052608 37.463812) scale(0.06 -0.06)">
      <defs>
       <path id="ArialMT-69" d="M 425 3934 
L 425 4581 
L 988 4581 
L 988 3934 
L 425 3934 
z
M 425 0 
L 425 3319 
L 988 3319 
L 988 0 
L 425 0 
z
" transform="scale(0.015625)"/>
       <path id="ArialMT-70" d="M 422 -1272 
L 422 3319 
L 934 3319 
L 934 2888 
Q 1116 3141 1344 3267 
Q 1572 3394 1897 3394 
Q 2322 3394 2647 3175 
Q 2972 2956 3137 2557 
Q 3303 2159 3303 1684 
Q 3303 1175 3120 767 
Q 2938 359 2589 142 
Q 2241 -75 1856 -75 
Q 1575 -75 1351 44 
Q 1128 163 984 344 
L 984 -1272 
L 422 -1272 
z
M 931 1641 
Q 931 1000 1190 694 
Q 1450 388 1819 388 
Q 2194 388 2461 705 
Q 2728 1022 2728 1688 
Q 2728 2322 2467 2637 
Q 2206 2953 1844 2953 
Q 1484 2953 1207 2617 
Q 931 2281 931 1641 
z
" transform="scale(0.015625)"/>
       <path id="ArialMT-3a" d="M 578 2678 
L 578 3319 
L 1219 3319 
L 1219 2678 
L 578 2678 
z
M 578 0 
L 578 641 
L 1219 641 
L 1219 0 
L 578 0 
z
" transform="scale(0.015625)"/>
       <path id="ArialMT-b1" d="M 1491 813 
L 1491 2072 
L 244 2072 
L 244 2594 
L 1491 2594 
L 1491 3841 
L 2022 3841 
L 2022 2594 
L 3269 2594 
L 3269 2072 
L 2022 2072 
L 2022 813 
L 1491 813 
z
M 3269 0 
L 244 0 
L 244 525 
L 3269 525 
L 3269 0 
z
" transform="scale(0.015625)"/>
       <path id="ArialMT-34" d="M 2069 0 
L 2069 1097 
L 81 1097 
L 81 1613 
L 2172 4581 
L 2631 4581 
L 2631 1613 
L 3250 1613 
L 3250 1097 
L 2631 1097 
L 2631 0 
L 2069 0 
z
M 2069 1613 
L 2069 3678 
L 634 1613 
L 2069 1613 
z
" transform="scale(0.015625)"/>
       <path id="ArialMT-2e" d="M 581 0 
L 581 641 
L 1222 641 
L 1222 0 
L 581 0 
z
" transform="scale(0.015625)"/>
      </defs>
      <use xlink:href="#ArialMT-43"/>
      <use xlink:href="#ArialMT-6c" transform="translate(72.216797 0)"/>
      <use xlink:href="#ArialMT-69" transform="translate(94.433594 0)"/>
      <use xlink:href="#ArialMT-70" transform="translate(116.650391 0)"/>
      <use xlink:href="#ArialMT-3a" transform="translate(172.265625 0)"/>
      <use xlink:href="#ArialMT-20" transform="translate(200.048828 0)"/>
      <use xlink:href="#ArialMT-b1" transform="translate(227.832031 0)"/>
      <use xlink:href="#ArialMT-32" transform="translate(282.714844 0)"/>
      <use xlink:href="#ArialMT-34" transform="translate(338.330078 0)"/>
      <use xlink:href="#ArialMT-2e" transform="translate(393.945312 0)"/>
      <use xlink:href="#ArialMT-35" transform="translate(421.728516 0)"/>
     </g>
    </g>
   </g>
  </g>
  <g id="axes_2">
   <g id="patch_88">
    <path d="M 244.723379 162.18 
L 374.673174 162.18 
L 374.673174 27.696 
L 244.723379 27.696 
z
" style="fill: #ffffff"/>
   </g>
   <g id="matplotlib.axis_3">
    <g id="xtick_4">
     <g id="line2d_12">
      <path d="M 283.717103 162.18 
L 283.717103 27.696 
" clip-path="url(#p190974aca0)" style="fill: none; stroke: #cccccc; stroke-opacity: 0.3; stroke-width: 0.5; stroke-linecap: round"/>
     </g>
     <g id="text_13">
      <!-- 10 -->
      <g style="fill: #262626" transform="translate(277.600071 179.553594) scale(0.11 -0.11)">
       <use xlink:href="#ArialMT-31"/>
       <use xlink:href="#ArialMT-30" transform="translate(55.615234 0)"/>
      </g>
     </g>
    </g>
    <g id="xtick_5">
     <g id="line2d_13">
      <path d="M 327.54367 162.18 
L 327.54367 27.696 
" clip-path="url(#p190974aca0)" style="fill: none; stroke: #cccccc; stroke-opacity: 0.3; stroke-width: 0.5; stroke-linecap: round"/>
     </g>
     <g id="text_14">
      <!-- 20 -->
      <g style="fill: #262626" transform="translate(321.426639 179.553594) scale(0.11 -0.11)">
       <use xlink:href="#ArialMT-32"/>
       <use xlink:href="#ArialMT-30" transform="translate(55.615234 0)"/>
      </g>
     </g>
    </g>
    <g id="xtick_6">
     <g id="line2d_14">
      <path d="M 371.370238 162.18 
L 371.370238 27.696 
" clip-path="url(#p190974aca0)" style="fill: none; stroke: #cccccc; stroke-opacity: 0.3; stroke-width: 0.5; stroke-linecap: round"/>
     </g>
     <g id="text_15">
      <!-- 30 -->
      <g style="fill: #262626" transform="translate(365.253206 179.553594) scale(0.11 -0.11)">
       <defs>
        <path id="ArialMT-33" d="M 269 1209 
L 831 1284 
Q 928 806 1161 595 
Q 1394 384 1728 384 
Q 2125 384 2398 659 
Q 2672 934 2672 1341 
Q 2672 1728 2419 1979 
Q 2166 2231 1775 2231 
Q 1616 2231 1378 2169 
L 1441 2663 
Q 1497 2656 1531 2656 
Q 1891 2656 2178 2843 
Q 2466 3031 2466 3422 
Q 2466 3731 2256 3934 
Q 2047 4138 1716 4138 
Q 1388 4138 1169 3931 
Q 950 3725 888 3313 
L 325 3413 
Q 428 3978 793 4289 
Q 1159 4600 1703 4600 
Q 2078 4600 2393 4439 
Q 2709 4278 2876 4000 
Q 3044 3722 3044 3409 
Q 3044 3113 2884 2869 
Q 2725 2625 2413 2481 
Q 2819 2388 3044 2092 
Q 3269 1797 3269 1353 
Q 3269 753 2831 336 
Q 2394 -81 1725 -81 
Q 1122 -81 723 278 
Q 325 638 269 1209 
z
" transform="scale(0.015625)"/>
       </defs>
       <use xlink:href="#ArialMT-33"/>
       <use xlink:href="#ArialMT-30" transform="translate(55.615234 0)"/>
      </g>
     </g>
    </g>
    <g id="text_16">
     <!-- Clipping Threshold -->
     <g style="fill: #262626" transform="translate(259.779214 194.475469) scale(0.12 -0.12)">
      <defs>
       <path id="ArialMT-67" d="M 319 -275 
L 866 -356 
Q 900 -609 1056 -725 
Q 1266 -881 1628 -881 
Q 2019 -881 2231 -725 
Q 2444 -569 2519 -288 
Q 2563 -116 2559 434 
Q 2191 0 1641 0 
Q 956 0 581 494 
Q 206 988 206 1678 
Q 206 2153 378 2554 
Q 550 2956 876 3175 
Q 1203 3394 1644 3394 
Q 2231 3394 2613 2919 
L 2613 3319 
L 3131 3319 
L 3131 450 
Q 3131 -325 2973 -648 
Q 2816 -972 2473 -1159 
Q 2131 -1347 1631 -1347 
Q 1038 -1347 672 -1080 
Q 306 -813 319 -275 
z
M 784 1719 
Q 784 1066 1043 766 
Q 1303 466 1694 466 
Q 2081 466 2343 764 
Q 2606 1063 2606 1700 
Q 2606 2309 2336 2618 
Q 2066 2928 1684 2928 
Q 1309 2928 1046 2623 
Q 784 2319 784 1719 
z
" transform="scale(0.015625)"/>
       <path id="ArialMT-54" d="M 1659 0 
L 1659 4041 
L 150 4041 
L 150 4581 
L 3781 4581 
L 3781 4041 
L 2266 4041 
L 2266 0 
L 1659 0 
z
" transform="scale(0.015625)"/>
       <path id="ArialMT-68" d="M 422 0 
L 422 4581 
L 984 4581 
L 984 2938 
Q 1378 3394 1978 3394 
Q 2347 3394 2619 3248 
Q 2891 3103 3008 2847 
Q 3125 2591 3125 2103 
L 3125 0 
L 2563 0 
L 2563 2103 
Q 2563 2525 2380 2717 
Q 2197 2909 1863 2909 
Q 1613 2909 1392 2779 
Q 1172 2650 1078 2428 
Q 984 2206 984 1816 
L 984 0 
L 422 0 
z
" transform="scale(0.015625)"/>
       <path id="ArialMT-72" d="M 416 0 
L 416 3319 
L 922 3319 
L 922 2816 
Q 1116 3169 1280 3281 
Q 1444 3394 1641 3394 
Q 1925 3394 2219 3213 
L 2025 2691 
Q 1819 2813 1613 2813 
Q 1428 2813 1281 2702 
Q 1134 2591 1072 2394 
Q 978 2094 978 1738 
L 978 0 
L 416 0 
z
" transform="scale(0.015625)"/>
       <path id="ArialMT-73" d="M 197 991 
L 753 1078 
Q 800 744 1014 566 
Q 1228 388 1613 388 
Q 2000 388 2187 545 
Q 2375 703 2375 916 
Q 2375 1106 2209 1216 
Q 2094 1291 1634 1406 
Q 1016 1563 777 1677 
Q 538 1791 414 1992 
Q 291 2194 291 2438 
Q 291 2659 392 2848 
Q 494 3038 669 3163 
Q 800 3259 1026 3326 
Q 1253 3394 1513 3394 
Q 1903 3394 2198 3281 
Q 2494 3169 2634 2976 
Q 2775 2784 2828 2463 
L 2278 2388 
Q 2241 2644 2061 2787 
Q 1881 2931 1553 2931 
Q 1166 2931 1000 2803 
Q 834 2675 834 2503 
Q 834 2394 903 2306 
Q 972 2216 1119 2156 
Q 1203 2125 1616 2013 
Q 2213 1853 2448 1751 
Q 2684 1650 2818 1456 
Q 2953 1263 2953 975 
Q 2953 694 2789 445 
Q 2625 197 2315 61 
Q 2006 -75 1616 -75 
Q 969 -75 630 194 
Q 291 463 197 991 
z
" transform="scale(0.015625)"/>
       <path id="ArialMT-64" d="M 2575 0 
L 2575 419 
Q 2259 -75 1647 -75 
Q 1250 -75 917 144 
Q 584 363 401 755 
Q 219 1147 219 1656 
Q 219 2153 384 2558 
Q 550 2963 881 3178 
Q 1213 3394 1622 3394 
Q 1922 3394 2156 3267 
Q 2391 3141 2538 2938 
L 2538 4581 
L 3097 4581 
L 3097 0 
L 2575 0 
z
M 797 1656 
Q 797 1019 1065 703 
Q 1334 388 1700 388 
Q 2069 388 2326 689 
Q 2584 991 2584 1609 
Q 2584 2291 2321 2609 
Q 2059 2928 1675 2928 
Q 1300 2928 1048 2622 
Q 797 2316 797 1656 
z
" transform="scale(0.015625)"/>
      </defs>
      <use xlink:href="#ArialMT-43"/>
      <use xlink:href="#ArialMT-6c" transform="translate(72.216797 0)"/>
      <use xlink:href="#ArialMT-69" transform="translate(94.433594 0)"/>
      <use xlink:href="#ArialMT-70" transform="translate(116.650391 0)"/>
      <use xlink:href="#ArialMT-70" transform="translate(172.265625 0)"/>
      <use xlink:href="#ArialMT-69" transform="translate(227.880859 0)"/>
      <use xlink:href="#ArialMT-6e" transform="translate(250.097656 0)"/>
      <use xlink:href="#ArialMT-67" transform="translate(305.712891 0)"/>
      <use xlink:href="#ArialMT-20" transform="translate(361.328125 0)"/>
      <use xlink:href="#ArialMT-54" transform="translate(387.361328 0)"/>
      <use xlink:href="#ArialMT-68" transform="translate(448.445312 0)"/>
      <use xlink:href="#ArialMT-72" transform="translate(504.060547 0)"/>
      <use xlink:href="#ArialMT-65" transform="translate(537.361328 0)"/>
      <use xlink:href="#ArialMT-73" transform="translate(592.976562 0)"/>
      <use xlink:href="#ArialMT-68" transform="translate(642.976562 0)"/>
      <use xlink:href="#ArialMT-6f" transform="translate(698.591797 0)"/>
      <use xlink:href="#ArialMT-6c" transform="translate(754.207031 0)"/>
      <use xlink:href="#ArialMT-64" transform="translate(776.423828 0)"/>
     </g>
    </g>
   </g>
   <g id="matplotlib.axis_4">
    <g id="ytick_6">
     <g id="line2d_15">
      <path d="M 244.723379 131.79941 
L 374.673174 131.79941 
" clip-path="url(#p190974aca0)" style="fill: none; stroke: #cccccc; stroke-opacity: 0.3; stroke-width: 0.5; stroke-linecap: round"/>
     </g>
     <g id="text_17">
      <!-- $\mathdefault{10^{-5}}$ -->
      <g style="fill: #262626" transform="translate(213.443379 137.416285) scale(0.11 -0.11)">
       <use xlink:href="#ArialMT-31" transform="translate(0 0.879688)"/>
       <use xlink:href="#ArialMT-30" transform="translate(55.615234 0.879688)"/>
       <use xlink:href="#ArialMT-2212" transform="translate(112.972813 70.573438) scale(0.7)"/>
       <use xlink:href="#ArialMT-35" transform="translate(153.851719 70.573438) scale(0.7)"/>
      </g>
     </g>
    </g>
    <g id="ytick_7">
     <g id="line2d_16">
      <path d="M 244.723379 94.612634 
L 374.673174 94.612634 
" clip-path="url(#p190974aca0)" style="fill: none; stroke: #cccccc; stroke-opacity: 0.3; stroke-width: 0.5; stroke-linecap: round"/>
     </g>
     <g id="text_18">
      <!-- $\mathdefault{10^{-3}}$ -->
      <g style="fill: #262626" transform="translate(213.443379 100.284509) scale(0.11 -0.11)">
       <use xlink:href="#ArialMT-31" transform="translate(0 0.99375)"/>
       <use xlink:href="#ArialMT-30" transform="translate(55.615234 0.99375)"/>
       <use xlink:href="#ArialMT-2212" transform="translate(112.972813 70.6875) scale(0.7)"/>
       <use xlink:href="#ArialMT-33" transform="translate(153.851719 70.6875) scale(0.7)"/>
      </g>
     </g>
    </g>
    <g id="ytick_8">
     <g id="line2d_17">
      <path d="M 244.723379 57.425858 
L 374.673174 57.425858 
" clip-path="url(#p190974aca0)" style="fill: none; stroke: #cccccc; stroke-opacity: 0.3; stroke-width: 0.5; stroke-linecap: round"/>
     </g>
     <g id="text_19">
      <!-- $\mathdefault{10^{-1}}$ -->
      <g style="fill: #262626" transform="translate(213.443379 63.097733) scale(0.11 -0.11)">
       <use xlink:href="#ArialMT-31" transform="translate(0 0.99375)"/>
       <use xlink:href="#ArialMT-30" transform="translate(55.615234 0.99375)"/>
       <use xlink:href="#ArialMT-2212" transform="translate(112.972813 70.6875) scale(0.7)"/>
       <use xlink:href="#ArialMT-31" transform="translate(153.851719 70.6875) scale(0.7)"/>
      </g>
     </g>
    </g>
    <g id="text_20">
     <!-- MSE -->
     <g style="fill: #262626" transform="translate(207.058379 107.940187) rotate(-90) scale(0.12 -0.12)">
      <defs>
       <path id="ArialMT-4d" d="M 475 0 
L 475 4581 
L 1388 4581 
L 2472 1338 
Q 2622 884 2691 659 
Q 2769 909 2934 1394 
L 4031 4581 
L 4847 4581 
L 4847 0 
L 4263 0 
L 4263 3834 
L 2931 0 
L 2384 0 
L 1059 3900 
L 1059 0 
L 475 0 
z
" transform="scale(0.015625)"/>
       <path id="ArialMT-53" d="M 288 1472 
L 859 1522 
Q 900 1178 1048 958 
Q 1197 738 1509 602 
Q 1822 466 2213 466 
Q 2559 466 2825 569 
Q 3091 672 3220 851 
Q 3350 1031 3350 1244 
Q 3350 1459 3225 1620 
Q 3100 1781 2813 1891 
Q 2628 1963 1997 2114 
Q 1366 2266 1113 2400 
Q 784 2572 623 2826 
Q 463 3081 463 3397 
Q 463 3744 659 4045 
Q 856 4347 1234 4503 
Q 1613 4659 2075 4659 
Q 2584 4659 2973 4495 
Q 3363 4331 3572 4012 
Q 3781 3694 3797 3291 
L 3216 3247 
Q 3169 3681 2898 3903 
Q 2628 4125 2100 4125 
Q 1550 4125 1298 3923 
Q 1047 3722 1047 3438 
Q 1047 3191 1225 3031 
Q 1400 2872 2139 2705 
Q 2878 2538 3153 2413 
Q 3553 2228 3743 1945 
Q 3934 1663 3934 1294 
Q 3934 928 3725 604 
Q 3516 281 3123 101 
Q 2731 -78 2241 -78 
Q 1619 -78 1198 103 
Q 778 284 539 648 
Q 300 1013 288 1472 
z
" transform="scale(0.015625)"/>
       <path id="ArialMT-45" d="M 506 0 
L 506 4581 
L 3819 4581 
L 3819 4041 
L 1113 4041 
L 1113 2638 
L 3647 2638 
L 3647 2100 
L 1113 2100 
L 1113 541 
L 3925 541 
L 3925 0 
L 506 0 
z
" transform="scale(0.015625)"/>
      </defs>
      <use xlink:href="#ArialMT-4d"/>
      <use xlink:href="#ArialMT-53" transform="translate(83.300781 0)"/>
      <use xlink:href="#ArialMT-45" transform="translate(150 0)"/>
     </g>
    </g>
   </g>
   <g id="line2d_18">
    <path d="M 250.630187 122.826433 
L 253.04113 119.365728 
L 255.452072 116.904467 
L 257.863015 114.469915 
L 260.273957 112.407818 
L 262.684899 110.48215 
L 265.095842 109.071918 
L 267.506784 107.581502 
L 269.917727 106.15834 
L 272.328669 104.777058 
L 274.739611 103.807616 
L 277.150554 102.711939 
L 279.561496 101.528374 
L 281.972439 100.688204 
L 284.383381 99.782044 
L 286.794323 98.975825 
L 289.205266 97.999917 
L 291.616208 97.238244 
L 294.027151 96.670458 
L 296.438093 95.838492 
L 298.849035 95.298972 
L 301.259978 94.598363 
L 303.67092 93.906096 
L 306.081863 93.315847 
L 308.492805 92.757571 
L 310.903747 92.025529 
L 313.31469 91.39737 
L 315.725632 91.137012 
L 318.136575 90.517567 
L 320.547517 89.95832 
L 322.958459 89.56543 
L 325.369402 89.131593 
L 327.780344 88.641592 
L 330.191286 88.227661 
L 332.602229 87.893005 
L 335.013171 87.611689 
L 337.424114 87.192123 
L 339.835056 86.691435 
L 342.245998 86.238501 
L 344.656941 85.869655 
L 347.067883 85.529967 
L 349.478826 85.186685 
L 351.889768 84.943721 
L 354.30071 84.596607 
L 356.711653 84.171706 
L 359.122595 83.761256 
L 361.533538 83.466854 
L 363.94448 83.308267 
L 366.355422 83.076653 
L 368.766365 82.777177 
" clip-path="url(#p190974aca0)" style="fill: none; stroke: #80c21d; stroke-width: 1.5; stroke-linecap: round"/>
   </g>
   <g id="line2d_19">
    <path d="M 250.630187 33.809041 
L 253.04113 34.410298 
L 255.452072 35.019061 
L 257.863015 35.643942 
L 260.273957 36.285724 
L 262.684899 36.944558 
L 265.095842 37.620546 
L 267.506784 38.313876 
L 269.917727 39.025274 
L 272.328669 39.755393 
L 274.739611 40.505532 
L 277.150554 41.276453 
L 279.561496 42.069171 
L 281.972439 42.8842 
L 284.383381 43.724833 
L 286.794323 44.59181 
L 289.205266 45.48459 
L 291.616208 46.406534 
L 294.027151 47.36265 
L 296.438093 48.354115 
L 298.849035 49.382394 
L 301.259978 50.452093 
L 303.67092 51.567952 
L 306.081863 52.74049 
L 308.492805 53.98152 
L 310.903747 55.309666 
L 313.31469 56.738516 
L 315.725632 58.279747 
L 318.136575 59.949529 
L 320.547517 61.770116 
L 322.958459 63.76236 
L 325.369402 65.958698 
L 327.780344 68.400206 
L 330.191286 71.134236 
L 332.602229 74.210848 
L 335.013171 77.79835 
L 337.424114 82.219759 
L 339.835056 88.017949 
L 342.245998 96.117036 
L 344.656941 109.062256 
L 347.067883 156.067091 
L 347.074295 205.201094 
" clip-path="url(#p190974aca0)" style="fill: none; stroke: #d31518; stroke-width: 1.5; stroke-linecap: round"/>
   </g>
   <g id="line2d_20">
    <path d="M 250.630187 33.808909 
L 253.04113 34.41008 
L 255.452072 35.018742 
L 257.863015 35.643477 
L 260.273957 36.285074 
L 262.684899 36.943663 
L 265.095842 37.619386 
L 267.506784 38.312357 
L 269.917727 39.023295 
L 272.328669 39.752822 
L 274.739611 40.502352 
L 277.150554 41.272445 
L 279.561496 42.064053 
L 281.972439 42.877918 
L 284.383381 43.717035 
L 286.794323 44.582216 
L 289.205266 45.472501 
L 291.616208 46.391645 
L 294.027151 47.344672 
L 296.438093 48.331587 
L 298.849035 49.355048 
L 301.259978 50.418057 
L 303.67092 51.525398 
L 306.081863 52.687588 
L 308.492805 53.915468 
L 310.903747 55.224518 
L 313.31469 56.628831 
L 315.725632 58.142877 
L 318.136575 59.768298 
L 320.547517 61.527693 
L 322.958459 63.438286 
L 325.369402 65.513236 
L 327.780344 67.767245 
L 330.191286 70.216132 
L 332.602229 72.848953 
L 335.013171 75.700724 
L 337.424114 78.731941 
L 339.835056 81.730316 
L 342.245998 84.155743 
L 344.656941 85.425249 
L 347.067883 85.528669 
L 349.478826 85.186685 
L 351.889768 84.943721 
L 354.30071 84.596607 
L 356.711653 84.171706 
L 359.122595 83.761256 
L 361.533538 83.466854 
L 363.94448 83.308267 
L 366.355422 83.076653 
L 368.766365 82.777177 
" clip-path="url(#p190974aca0)" style="fill: none; stroke-dasharray: 5.55,2.4; stroke-dashoffset: 0; stroke: #4d4d4d; stroke-width: 1.5"/>
   </g>
   <g id="line2d_21">
    <defs>
     <path id="m33611e78f1" d="M 0 3 
C 0.795609 3 1.55874 2.683901 2.12132 2.12132 
C 2.683901 1.55874 3 0.795609 3 0 
C 3 -0.795609 2.683901 -1.55874 2.12132 -2.12132 
C 1.55874 -2.683901 0.795609 -3 0 -3 
C -0.795609 -3 -1.55874 -2.683901 -2.12132 -2.12132 
C -2.683901 -1.55874 -3 -0.795609 -3 0 
C -3 0.795609 -2.683901 1.55874 -2.12132 2.12132 
C -1.55874 2.683901 -0.795609 3 0 3 
z
" style="stroke: #1a1a1a"/>
    </defs>
    <g clip-path="url(#p190974aca0)">
     <use xlink:href="#m33611e78f1" x="347.067883" y="85.528669" style="fill: #1a1a1a; stroke: #1a1a1a"/>
    </g>
   </g>
   <g id="patch_89">
    <path d="M 244.723379 162.18 
L 244.723379 27.696 
" style="fill: none; stroke: #cccccc; stroke-width: 1.25; stroke-linejoin: miter; stroke-linecap: square"/>
   </g>
   <g id="patch_90">
    <path d="M 244.723379 162.18 
L 374.673174 162.18 
" style="fill: none; stroke: #cccccc; stroke-width: 1.25; stroke-linejoin: miter; stroke-linecap: square"/>
   </g>
   <g id="text_21">
    <!-- Error Trade-off Curves -->
    <g style="fill: #262626" transform="translate(267.021401 21.696) scale(0.08 -0.08)">
     <defs>
      <path id="Arial-BoldMT-45" d="M 466 0 
L 466 4581 
L 3863 4581 
L 3863 3806 
L 1391 3806 
L 1391 2791 
L 3691 2791 
L 3691 2019 
L 1391 2019 
L 1391 772 
L 3950 772 
L 3950 0 
L 466 0 
z
" transform="scale(0.015625)"/>
      <path id="Arial-BoldMT-66" d="M 75 3319 
L 563 3319 
L 563 3569 
Q 563 3988 652 4194 
Q 741 4400 980 4529 
Q 1219 4659 1584 4659 
Q 1959 4659 2319 4547 
L 2200 3934 
Q 1991 3984 1797 3984 
Q 1606 3984 1523 3895 
Q 1441 3806 1441 3553 
L 1441 3319 
L 2097 3319 
L 2097 2628 
L 1441 2628 
L 1441 0 
L 563 0 
L 563 2628 
L 75 2628 
L 75 3319 
z
" transform="scale(0.015625)"/>
     </defs>
     <use xlink:href="#Arial-BoldMT-45"/>
     <use xlink:href="#Arial-BoldMT-72" transform="translate(66.699219 0)"/>
     <use xlink:href="#Arial-BoldMT-72" transform="translate(105.615234 0)"/>
     <use xlink:href="#Arial-BoldMT-6f" transform="translate(144.53125 0)"/>
     <use xlink:href="#Arial-BoldMT-72" transform="translate(205.615234 0)"/>
     <use xlink:href="#Arial-BoldMT-20" transform="translate(244.53125 0)"/>
     <use xlink:href="#Arial-BoldMT-54" transform="translate(272.314453 0)"/>
     <use xlink:href="#Arial-BoldMT-72" transform="translate(327.898438 0)"/>
     <use xlink:href="#Arial-BoldMT-61" transform="translate(366.814453 0)"/>
     <use xlink:href="#Arial-BoldMT-64" transform="translate(422.429688 0)"/>
     <use xlink:href="#Arial-BoldMT-65" transform="translate(483.513672 0)"/>
     <use xlink:href="#Arial-BoldMT-2d" transform="translate(539.128906 0)"/>
     <use xlink:href="#Arial-BoldMT-6f" transform="translate(572.429688 0)"/>
     <use xlink:href="#Arial-BoldMT-66" transform="translate(633.513672 0)"/>
     <use xlink:href="#Arial-BoldMT-66" transform="translate(666.814453 0)"/>
     <use xlink:href="#Arial-BoldMT-20" transform="translate(700.115234 0)"/>
     <use xlink:href="#Arial-BoldMT-43" transform="translate(727.898438 0)"/>
     <use xlink:href="#Arial-BoldMT-75" transform="translate(800.115234 0)"/>
     <use xlink:href="#Arial-BoldMT-72" transform="translate(861.199219 0)"/>
     <use xlink:href="#Arial-BoldMT-76" transform="translate(900.115234 0)"/>
     <use xlink:href="#Arial-BoldMT-65" transform="translate(955.730469 0)"/>
     <use xlink:href="#Arial-BoldMT-73" transform="translate(1011.345703 0)"/>
    </g>
   </g>
   <g id="legend_2">
    <g id="patch_91">
     <path d="M 311.930049 66.521625 
L 370.473174 66.521625 
Q 371.673174 66.521625 371.673174 65.321625 
L 371.673174 31.896 
Q 371.673174 30.696 370.473174 30.696 
L 311.930049 30.696 
Q 310.730049 30.696 310.730049 31.896 
L 310.730049 65.321625 
Q 310.730049 66.521625 311.930049 66.521625 
z
" style="fill: #ffffff; opacity: 0.8; stroke: #cccccc; stroke-linejoin: miter"/>
    </g>
    <g id="line2d_22">
     <path d="M 313.130049 35.290687 
L 319.130049 35.290687 
L 325.130049 35.290687 
" style="fill: none; stroke: #80c21d; stroke-width: 1.5; stroke-linecap: round"/>
    </g>
    <g id="text_22">
     <!-- Granular Error -->
     <g style="fill: #262626" transform="translate(329.930049 37.390687) scale(0.06 -0.06)">
      <defs>
       <path id="ArialMT-47" d="M 2638 1797 
L 2638 2334 
L 4578 2338 
L 4578 638 
Q 4131 281 3656 101 
Q 3181 -78 2681 -78 
Q 2006 -78 1454 211 
Q 903 500 622 1047 
Q 341 1594 341 2269 
Q 341 2938 620 3517 
Q 900 4097 1425 4378 
Q 1950 4659 2634 4659 
Q 3131 4659 3532 4498 
Q 3934 4338 4162 4050 
Q 4391 3763 4509 3300 
L 3963 3150 
Q 3859 3500 3706 3700 
Q 3553 3900 3268 4020 
Q 2984 4141 2638 4141 
Q 2222 4141 1919 4014 
Q 1616 3888 1430 3681 
Q 1244 3475 1141 3228 
Q 966 2803 966 2306 
Q 966 1694 1177 1281 
Q 1388 869 1791 669 
Q 2194 469 2647 469 
Q 3041 469 3416 620 
Q 3791 772 3984 944 
L 3984 1797 
L 2638 1797 
z
" transform="scale(0.015625)"/>
      </defs>
      <use xlink:href="#ArialMT-47"/>
      <use xlink:href="#ArialMT-72" transform="translate(77.783203 0)"/>
      <use xlink:href="#ArialMT-61" transform="translate(111.083984 0)"/>
      <use xlink:href="#ArialMT-6e" transform="translate(166.699219 0)"/>
      <use xlink:href="#ArialMT-75" transform="translate(222.314453 0)"/>
      <use xlink:href="#ArialMT-6c" transform="translate(277.929688 0)"/>
      <use xlink:href="#ArialMT-61" transform="translate(300.146484 0)"/>
      <use xlink:href="#ArialMT-72" transform="translate(355.761719 0)"/>
      <use xlink:href="#ArialMT-20" transform="translate(389.0625 0)"/>
      <use xlink:href="#ArialMT-45" transform="translate(416.845703 0)"/>
      <use xlink:href="#ArialMT-72" transform="translate(483.544922 0)"/>
      <use xlink:href="#ArialMT-72" transform="translate(516.845703 0)"/>
      <use xlink:href="#ArialMT-6f" transform="translate(550.146484 0)"/>
      <use xlink:href="#ArialMT-72" transform="translate(605.761719 0)"/>
     </g>
    </g>
    <g id="line2d_23">
     <path d="M 313.130049 43.777875 
L 319.130049 43.777875 
L 325.130049 43.777875 
" style="fill: none; stroke: #d31518; stroke-width: 1.5; stroke-linecap: round"/>
    </g>
    <g id="text_23">
     <!-- Overload Error -->
     <g style="fill: #262626" transform="translate(329.930049 45.877875) scale(0.06 -0.06)">
      <defs>
       <path id="ArialMT-4f" d="M 309 2231 
Q 309 3372 921 4017 
Q 1534 4663 2503 4663 
Q 3138 4663 3647 4359 
Q 4156 4056 4423 3514 
Q 4691 2972 4691 2284 
Q 4691 1588 4409 1038 
Q 4128 488 3612 205 
Q 3097 -78 2500 -78 
Q 1853 -78 1343 234 
Q 834 547 571 1087 
Q 309 1628 309 2231 
z
M 934 2222 
Q 934 1394 1379 917 
Q 1825 441 2497 441 
Q 3181 441 3623 922 
Q 4066 1403 4066 2288 
Q 4066 2847 3877 3264 
Q 3688 3681 3323 3911 
Q 2959 4141 2506 4141 
Q 1863 4141 1398 3698 
Q 934 3256 934 2222 
z
" transform="scale(0.015625)"/>
       <path id="ArialMT-76" d="M 1344 0 
L 81 3319 
L 675 3319 
L 1388 1331 
Q 1503 1009 1600 663 
Q 1675 925 1809 1294 
L 2547 3319 
L 3125 3319 
L 1869 0 
L 1344 0 
z
" transform="scale(0.015625)"/>
      </defs>
      <use xlink:href="#ArialMT-4f"/>
      <use xlink:href="#ArialMT-76" transform="translate(77.783203 0)"/>
      <use xlink:href="#ArialMT-65" transform="translate(127.783203 0)"/>
      <use xlink:href="#ArialMT-72" transform="translate(183.398438 0)"/>
      <use xlink:href="#ArialMT-6c" transform="translate(216.699219 0)"/>
      <use xlink:href="#ArialMT-6f" transform="translate(238.916016 0)"/>
      <use xlink:href="#ArialMT-61" transform="translate(294.53125 0)"/>
      <use xlink:href="#ArialMT-64" transform="translate(350.146484 0)"/>
      <use xlink:href="#ArialMT-20" transform="translate(405.761719 0)"/>
      <use xlink:href="#ArialMT-45" transform="translate(433.544922 0)"/>
      <use xlink:href="#ArialMT-72" transform="translate(500.244141 0)"/>
      <use xlink:href="#ArialMT-72" transform="translate(533.544922 0)"/>
      <use xlink:href="#ArialMT-6f" transform="translate(566.845703 0)"/>
      <use xlink:href="#ArialMT-72" transform="translate(622.460938 0)"/>
     </g>
    </g>
    <g id="line2d_24">
     <path d="M 313.130049 52.265062 
L 319.130049 52.265062 
L 325.130049 52.265062 
" style="fill: none; stroke-dasharray: 5.55,2.4; stroke-dashoffset: 0; stroke: #4d4d4d; stroke-width: 1.5"/>
    </g>
    <g id="text_24">
     <!-- Total Error -->
     <g style="fill: #262626" transform="translate(329.930049 54.365062) scale(0.06 -0.06)">
      <use xlink:href="#ArialMT-54"/>
      <use xlink:href="#ArialMT-6f" transform="translate(49.958984 0)"/>
      <use xlink:href="#ArialMT-74" transform="translate(105.574219 0)"/>
      <use xlink:href="#ArialMT-61" transform="translate(133.357422 0)"/>
      <use xlink:href="#ArialMT-6c" transform="translate(188.972656 0)"/>
      <use xlink:href="#ArialMT-20" transform="translate(211.189453 0)"/>
      <use xlink:href="#ArialMT-45" transform="translate(238.972656 0)"/>
      <use xlink:href="#ArialMT-72" transform="translate(305.671875 0)"/>
      <use xlink:href="#ArialMT-72" transform="translate(338.972656 0)"/>
      <use xlink:href="#ArialMT-6f" transform="translate(372.273438 0)"/>
      <use xlink:href="#ArialMT-72" transform="translate(427.888672 0)"/>
     </g>
    </g>
    <g id="line2d_25">
     <g>
      <use xlink:href="#m33611e78f1" x="319.130049" y="60.829125" style="fill: #1a1a1a; stroke: #1a1a1a"/>
     </g>
    </g>
    <g id="text_25">
     <!-- Optimal -->
     <g style="fill: #262626" transform="translate(329.930049 62.929125) scale(0.06 -0.06)">
      <defs>
       <path id="ArialMT-6d" d="M 422 0 
L 422 3319 
L 925 3319 
L 925 2853 
Q 1081 3097 1340 3245 
Q 1600 3394 1931 3394 
Q 2300 3394 2536 3241 
Q 2772 3088 2869 2813 
Q 3263 3394 3894 3394 
Q 4388 3394 4653 3120 
Q 4919 2847 4919 2278 
L 4919 0 
L 4359 0 
L 4359 2091 
Q 4359 2428 4304 2576 
Q 4250 2725 4106 2815 
Q 3963 2906 3769 2906 
Q 3419 2906 3187 2673 
Q 2956 2441 2956 1928 
L 2956 0 
L 2394 0 
L 2394 2156 
Q 2394 2531 2256 2718 
Q 2119 2906 1806 2906 
Q 1569 2906 1367 2781 
Q 1166 2656 1075 2415 
Q 984 2175 984 1722 
L 984 0 
L 422 0 
z
" transform="scale(0.015625)"/>
      </defs>
      <use xlink:href="#ArialMT-4f"/>
      <use xlink:href="#ArialMT-70" transform="translate(77.783203 0)"/>
      <use xlink:href="#ArialMT-74" transform="translate(133.398438 0)"/>
      <use xlink:href="#ArialMT-69" transform="translate(161.181641 0)"/>
      <use xlink:href="#ArialMT-6d" transform="translate(183.398438 0)"/>
      <use xlink:href="#ArialMT-61" transform="translate(266.699219 0)"/>
      <use xlink:href="#ArialMT-6c" transform="translate(322.314453 0)"/>
     </g>
    </g>
   </g>
  </g>
 </g>
 <defs>
  <clipPath id="p20e6e149a1">
   <rect x="56.1425" y="27.696" width="129.949795" height="134.484"/>
  </clipPath>
  <clipPath id="p190974aca0">
   <rect x="244.723379" y="27.696" width="129.949795" height="134.484"/>
  </clipPath>
 </defs>
</svg>
