<?xml version="1.0" encoding="utf-8" standalone="no"?>
<!DOCTYPE svg PUBLIC "-//W3C//DTD SVG 1.1//EN"
  "http://www.w3.org/Graphics/SVG/1.1/DTD/svg11.dtd">
<svg xmlns:xlink="http://www.w3.org/1999/xlink" width="384.48pt" height="132.057094pt" viewBox="0 0 384.48 132.057094" xmlns="http://www.w3.org/2000/svg" version="1.1">
 <metadata>
  <rdf:RDF xmlns:dc="http://purl.org/dc/elements/1.1/" xmlns:cc="http://creativecommons.org/ns#" xmlns:rdf="http://www.w3.org/1999/02/22-rdf-syntax-ns#">
   <cc:Work>
    <dc:type rdf:resource="http://purl.org/dc/dcmitype/StillImage"/>
    <dc:date>2026-01-29T00:07:50.770610</dc:date>
    <dc:format>image/svg+xml</dc:format>
    <dc:creator>
     <cc:Agent>
      <dc:title>Matplotlib v3.10.8, https://matplotlib.org/</dc:title>
     </cc:Agent>
    </dc:creator>
   </cc:Work>
  </rdf:RDF>
 </metadata>
 <defs>
  <style type="text/css">*{stroke-linejoin: round; stroke-linecap: butt}</style>
 </defs>
 <g id="figure_1">
  <g id="patch_1">
   <path d="M 0 132.057094 
L 384.48 132.057094 
L 384.48 0 
L 0 0 
z
" style="fill: #ffffff"/>
  </g>
  <g id="axes_1">
   <g id="patch_2">
    <path d="M 7.2 90.036 
L 377.28 90.036 
L 377.28 27.696 
L 7.2 27.696 
z
" style="fill: #ffffff"/>
   </g>
   <g id="matplotlib.axis_1">
    <g id="xtick_1">
     <g id="line2d_1">
      <path d="M 60.994094 90.036 
L 60.994094 27.696 
" clip-path="url(#pcd4e887286)" style="fill: none; stroke: #cccccc; stroke-linecap: round"/>
     </g>
     <g id="text_1">
      <!-- −1.0 -->
      <g style="fill: #262626" transform="translate(50.136751 107.409594) scale(0.11 -0.11)">
       <defs>
        <path id="ArialMT-2212" d="M 3381 1997 
L 356 1997 
L 356 2522 
L 3381 2522 
L 3381 1997 
z
" transform="scale(0.015625)"/>
        <path id="ArialMT-31" d="M 2384 0 
L 1822 0 
L 1822 3584 
Q 1619 3391 1289 3197 
Q 959 3003 697 2906 
L 697 3450 
Q 1169 3672 1522 3987 
Q 1875 4303 2022 4600 
L 2384 4600 
L 2384 0 
z
" transform="scale(0.015625)"/>
        <path id="ArialMT-2e" d="M 581 0 
L 581 641 
L 1222 641 
L 1222 0 
L 581 0 
z
" transform="scale(0.015625)"/>
        <path id="ArialMT-30" d="M 266 2259 
Q 266 3072 433 3567 
Q 600 4063 929 4331 
Q 1259 4600 1759 4600 
Q 2128 4600 2406 4451 
Q 2684 4303 2865 4023 
Q 3047 3744 3150 3342 
Q 3253 2941 3253 2259 
Q 3253 1453 3087 958 
Q 2922 463 2592 192 
Q 2263 -78 1759 -78 
Q 1097 -78 719 397 
Q 266 969 266 2259 
z
M 844 2259 
Q 844 1131 1108 757 
Q 1372 384 1759 384 
Q 2147 384 2411 759 
Q 2675 1134 2675 2259 
Q 2675 3391 2411 3762 
Q 2147 4134 1753 4134 
Q 1366 4134 1134 3806 
Q 844 3388 844 2259 
z
" transform="scale(0.015625)"/>
       </defs>
       <use xlink:href="#ArialMT-2212"/>
       <use xlink:href="#ArialMT-31" transform="translate(58.398438 0)"/>
       <use xlink:href="#ArialMT-2e" transform="translate(114.013672 0)"/>
       <use xlink:href="#ArialMT-30" transform="translate(141.796875 0)"/>
      </g>
     </g>
    </g>
    <g id="xtick_2">
     <g id="line2d_2">
      <path d="M 126.617047 90.036 
L 126.617047 27.696 
" clip-path="url(#pcd4e887286)" style="fill: none; stroke: #cccccc; stroke-linecap: round"/>
     </g>
     <g id="text_2">
      <!-- −0.5 -->
      <g style="fill: #262626" transform="translate(115.759703 107.409594) scale(0.11 -0.11)">
       <defs>
        <path id="ArialMT-35" d="M 266 1200 
L 856 1250 
Q 922 819 1161 601 
Q 1400 384 1738 384 
Q 2144 384 2425 690 
Q 2706 997 2706 1503 
Q 2706 1984 2436 2262 
Q 2166 2541 1728 2541 
Q 1456 2541 1237 2417 
Q 1019 2294 894 2097 
L 366 2166 
L 809 4519 
L 3088 4519 
L 3088 3981 
L 1259 3981 
L 1013 2750 
Q 1425 3038 1878 3038 
Q 2478 3038 2890 2622 
Q 3303 2206 3303 1553 
Q 3303 931 2941 478 
Q 2500 -78 1738 -78 
Q 1113 -78 717 272 
Q 322 622 266 1200 
z
" transform="scale(0.015625)"/>
       </defs>
       <use xlink:href="#ArialMT-2212"/>
       <use xlink:href="#ArialMT-30" transform="translate(58.398438 0)"/>
       <use xlink:href="#ArialMT-2e" transform="translate(114.013672 0)"/>
       <use xlink:href="#ArialMT-35" transform="translate(141.796875 0)"/>
      </g>
     </g>
    </g>
    <g id="xtick_3">
     <g id="line2d_3">
      <path d="M 192.24 90.036 
L 192.24 27.696 
" clip-path="url(#pcd4e887286)" style="fill: none; stroke: #cccccc; stroke-linecap: round"/>
     </g>
     <g id="text_3">
      <!-- 0.0 -->
      <g style="fill: #262626" transform="translate(184.595 107.409594) scale(0.11 -0.11)">
       <use xlink:href="#ArialMT-30"/>
       <use xlink:href="#ArialMT-2e" transform="translate(55.615234 0)"/>
       <use xlink:href="#ArialMT-30" transform="translate(83.398438 0)"/>
      </g>
     </g>
    </g>
    <g id="xtick_4">
     <g id="line2d_4">
      <path d="M 257.862953 90.036 
L 257.862953 27.696 
" clip-path="url(#pcd4e887286)" style="fill: none; stroke: #cccccc; stroke-linecap: round"/>
     </g>
     <g id="text_4">
      <!-- 0.5 -->
      <g style="fill: #262626" transform="translate(250.217953 107.409594) scale(0.11 -0.11)">
       <use xlink:href="#ArialMT-30"/>
       <use xlink:href="#ArialMT-2e" transform="translate(55.615234 0)"/>
       <use xlink:href="#ArialMT-35" transform="translate(83.398438 0)"/>
      </g>
     </g>
    </g>
    <g id="xtick_5">
     <g id="line2d_5">
      <path d="M 323.485906 90.036 
L 323.485906 27.696 
" clip-path="url(#pcd4e887286)" style="fill: none; stroke: #cccccc; stroke-linecap: round"/>
     </g>
     <g id="text_5">
      <!-- 1.0 -->
      <g style="fill: #262626" transform="translate(315.840906 107.409594) scale(0.11 -0.11)">
       <use xlink:href="#ArialMT-31"/>
       <use xlink:href="#ArialMT-2e" transform="translate(55.615234 0)"/>
       <use xlink:href="#ArialMT-30" transform="translate(83.398438 0)"/>
      </g>
     </g>
    </g>
    <g id="text_6">
     <!-- Real Value (Float32) -->
     <g style="fill: #262626" transform="translate(137.657813 122.331469) scale(0.12 -0.12)">
      <defs>
       <path id="ArialMT-52" d="M 503 0 
L 503 4581 
L 2534 4581 
Q 3147 4581 3465 4457 
Q 3784 4334 3975 4021 
Q 4166 3709 4166 3331 
Q 4166 2844 3850 2509 
Q 3534 2175 2875 2084 
Q 3116 1969 3241 1856 
Q 3506 1613 3744 1247 
L 4541 0 
L 3778 0 
L 3172 953 
Q 2906 1366 2734 1584 
Q 2563 1803 2427 1890 
Q 2291 1978 2150 2013 
Q 2047 2034 1813 2034 
L 1109 2034 
L 1109 0 
L 503 0 
z
M 1109 2559 
L 2413 2559 
Q 2828 2559 3062 2645 
Q 3297 2731 3419 2920 
Q 3541 3109 3541 3331 
Q 3541 3656 3305 3865 
Q 3069 4075 2559 4075 
L 1109 4075 
L 1109 2559 
z
" transform="scale(0.015625)"/>
       <path id="ArialMT-65" d="M 2694 1069 
L 3275 997 
Q 3138 488 2766 206 
Q 2394 -75 1816 -75 
Q 1088 -75 661 373 
Q 234 822 234 1631 
Q 234 2469 665 2931 
Q 1097 3394 1784 3394 
Q 2450 3394 2872 2941 
Q 3294 2488 3294 1666 
Q 3294 1616 3291 1516 
L 816 1516 
Q 847 969 1125 678 
Q 1403 388 1819 388 
Q 2128 388 2347 550 
Q 2566 713 2694 1069 
z
M 847 1978 
L 2700 1978 
Q 2663 2397 2488 2606 
Q 2219 2931 1791 2931 
Q 1403 2931 1139 2672 
Q 875 2413 847 1978 
z
" transform="scale(0.015625)"/>
       <path id="ArialMT-61" d="M 2588 409 
Q 2275 144 1986 34 
Q 1697 -75 1366 -75 
Q 819 -75 525 192 
Q 231 459 231 875 
Q 231 1119 342 1320 
Q 453 1522 633 1644 
Q 813 1766 1038 1828 
Q 1203 1872 1538 1913 
Q 2219 1994 2541 2106 
Q 2544 2222 2544 2253 
Q 2544 2597 2384 2738 
Q 2169 2928 1744 2928 
Q 1347 2928 1158 2789 
Q 969 2650 878 2297 
L 328 2372 
Q 403 2725 575 2942 
Q 747 3159 1072 3276 
Q 1397 3394 1825 3394 
Q 2250 3394 2515 3294 
Q 2781 3194 2906 3042 
Q 3031 2891 3081 2659 
Q 3109 2516 3109 2141 
L 3109 1391 
Q 3109 606 3145 398 
Q 3181 191 3288 0 
L 2700 0 
Q 2613 175 2588 409 
z
M 2541 1666 
Q 2234 1541 1622 1453 
Q 1275 1403 1131 1340 
Q 988 1278 909 1158 
Q 831 1038 831 891 
Q 831 666 1001 516 
Q 1172 366 1500 366 
Q 1825 366 2078 508 
Q 2331 650 2450 897 
Q 2541 1088 2541 1459 
L 2541 1666 
z
" transform="scale(0.015625)"/>
       <path id="ArialMT-6c" d="M 409 0 
L 409 4581 
L 972 4581 
L 972 0 
L 409 0 
z
" transform="scale(0.015625)"/>
       <path id="ArialMT-20" transform="scale(0.015625)"/>
       <path id="ArialMT-56" d="M 1803 0 
L 28 4581 
L 684 4581 
L 1875 1253 
Q 2019 853 2116 503 
Q 2222 878 2363 1253 
L 3600 4581 
L 4219 4581 
L 2425 0 
L 1803 0 
z
" transform="scale(0.015625)"/>
       <path id="ArialMT-75" d="M 2597 0 
L 2597 488 
Q 2209 -75 1544 -75 
Q 1250 -75 995 37 
Q 741 150 617 320 
Q 494 491 444 738 
Q 409 903 409 1263 
L 409 3319 
L 972 3319 
L 972 1478 
Q 972 1038 1006 884 
Q 1059 663 1231 536 
Q 1403 409 1656 409 
Q 1909 409 2131 539 
Q 2353 669 2445 892 
Q 2538 1116 2538 1541 
L 2538 3319 
L 3100 3319 
L 3100 0 
L 2597 0 
z
" transform="scale(0.015625)"/>
       <path id="ArialMT-28" d="M 1497 -1347 
Q 1031 -759 709 28 
Q 388 816 388 1659 
Q 388 2403 628 3084 
Q 909 3875 1497 4659 
L 1900 4659 
Q 1522 4009 1400 3731 
Q 1209 3300 1100 2831 
Q 966 2247 966 1656 
Q 966 153 1900 -1347 
L 1497 -1347 
z
" transform="scale(0.015625)"/>
       <path id="ArialMT-46" d="M 525 0 
L 525 4581 
L 3616 4581 
L 3616 4041 
L 1131 4041 
L 1131 2622 
L 3281 2622 
L 3281 2081 
L 1131 2081 
L 1131 0 
L 525 0 
z
" transform="scale(0.015625)"/>
       <path id="ArialMT-6f" d="M 213 1659 
Q 213 2581 725 3025 
Q 1153 3394 1769 3394 
Q 2453 3394 2887 2945 
Q 3322 2497 3322 1706 
Q 3322 1066 3130 698 
Q 2938 331 2570 128 
Q 2203 -75 1769 -75 
Q 1072 -75 642 372 
Q 213 819 213 1659 
z
M 791 1659 
Q 791 1022 1069 705 
Q 1347 388 1769 388 
Q 2188 388 2466 706 
Q 2744 1025 2744 1678 
Q 2744 2294 2464 2611 
Q 2184 2928 1769 2928 
Q 1347 2928 1069 2612 
Q 791 2297 791 1659 
z
" transform="scale(0.015625)"/>
       <path id="ArialMT-74" d="M 1650 503 
L 1731 6 
Q 1494 -44 1306 -44 
Q 1000 -44 831 53 
Q 663 150 594 308 
Q 525 466 525 972 
L 525 2881 
L 113 2881 
L 113 3319 
L 525 3319 
L 525 4141 
L 1084 4478 
L 1084 3319 
L 1650 3319 
L 1650 2881 
L 1084 2881 
L 1084 941 
Q 1084 700 1114 631 
Q 1144 563 1211 522 
Q 1278 481 1403 481 
Q 1497 481 1650 503 
z
" transform="scale(0.015625)"/>
       <path id="ArialMT-33" d="M 269 1209 
L 831 1284 
Q 928 806 1161 595 
Q 1394 384 1728 384 
Q 2125 384 2398 659 
Q 2672 934 2672 1341 
Q 2672 1728 2419 1979 
Q 2166 2231 1775 2231 
Q 1616 2231 1378 2169 
L 1441 2663 
Q 1497 2656 1531 2656 
Q 1891 2656 2178 2843 
Q 2466 3031 2466 3422 
Q 2466 3731 2256 3934 
Q 2047 4138 1716 4138 
Q 1388 4138 1169 3931 
Q 950 3725 888 3313 
L 325 3413 
Q 428 3978 793 4289 
Q 1159 4600 1703 4600 
Q 2078 4600 2393 4439 
Q 2709 4278 2876 4000 
Q 3044 3722 3044 3409 
Q 3044 3113 2884 2869 
Q 2725 2625 2413 2481 
Q 2819 2388 3044 2092 
Q 3269 1797 3269 1353 
Q 3269 753 2831 336 
Q 2394 -81 1725 -81 
Q 1122 -81 723 278 
Q 325 638 269 1209 
z
" transform="scale(0.015625)"/>
       <path id="ArialMT-32" d="M 3222 541 
L 3222 0 
L 194 0 
Q 188 203 259 391 
Q 375 700 629 1000 
Q 884 1300 1366 1694 
Q 2113 2306 2375 2664 
Q 2638 3022 2638 3341 
Q 2638 3675 2398 3904 
Q 2159 4134 1775 4134 
Q 1369 4134 1125 3890 
Q 881 3647 878 3216 
L 300 3275 
Q 359 3922 746 4261 
Q 1134 4600 1788 4600 
Q 2447 4600 2831 4234 
Q 3216 3869 3216 3328 
Q 3216 3053 3103 2787 
Q 2991 2522 2730 2228 
Q 2469 1934 1863 1422 
Q 1356 997 1212 845 
Q 1069 694 975 541 
L 3222 541 
z
" transform="scale(0.015625)"/>
       <path id="ArialMT-29" d="M 791 -1347 
L 388 -1347 
Q 1322 153 1322 1656 
Q 1322 2244 1188 2822 
Q 1081 3291 891 3722 
Q 769 4003 388 4659 
L 791 4659 
Q 1378 3875 1659 3084 
Q 1900 2403 1900 1659 
Q 1900 816 1576 28 
Q 1253 -759 791 -1347 
z
" transform="scale(0.015625)"/>
      </defs>
      <use xlink:href="#ArialMT-52"/>
      <use xlink:href="#ArialMT-65" transform="translate(72.216797 0)"/>
      <use xlink:href="#ArialMT-61" transform="translate(127.832031 0)"/>
      <use xlink:href="#ArialMT-6c" transform="translate(183.447266 0)"/>
      <use xlink:href="#ArialMT-20" transform="translate(205.664062 0)"/>
      <use xlink:href="#ArialMT-56" transform="translate(233.447266 0)"/>
      <use xlink:href="#ArialMT-61" transform="translate(292.771484 0)"/>
      <use xlink:href="#ArialMT-6c" transform="translate(348.386719 0)"/>
      <use xlink:href="#ArialMT-75" transform="translate(370.603516 0)"/>
      <use xlink:href="#ArialMT-65" transform="translate(426.21875 0)"/>
      <use xlink:href="#ArialMT-20" transform="translate(481.833984 0)"/>
      <use xlink:href="#ArialMT-28" transform="translate(509.617188 0)"/>
      <use xlink:href="#ArialMT-46" transform="translate(542.917969 0)"/>
      <use xlink:href="#ArialMT-6c" transform="translate(604.001953 0)"/>
      <use xlink:href="#ArialMT-6f" transform="translate(626.21875 0)"/>
      <use xlink:href="#ArialMT-61" transform="translate(681.833984 0)"/>
      <use xlink:href="#ArialMT-74" transform="translate(737.449219 0)"/>
      <use xlink:href="#ArialMT-33" transform="translate(765.232422 0)"/>
      <use xlink:href="#ArialMT-32" transform="translate(820.847656 0)"/>
      <use xlink:href="#ArialMT-29" transform="translate(876.462891 0)"/>
     </g>
    </g>
   </g>
   <g id="matplotlib.axis_2"/>
   <g id="LineCollection_1">
    <path d="M 20.324591 30.529636 
L 20.324591 87.202364 
" clip-path="url(#pcd4e887286)" style="fill: none; stroke: #d31518; stroke-opacity: 0.5; stroke-width: 0.5"/>
    <path d="M 21.678255 30.529636 
L 21.678255 87.202364 
" clip-path="url(#pcd4e887286)" style="fill: none; stroke: #d31518; stroke-opacity: 0.5; stroke-width: 0.5"/>
    <path d="M 23.03192 30.529636 
L 23.03192 87.202364 
" clip-path="url(#pcd4e887286)" style="fill: none; stroke: #d31518; stroke-opacity: 0.5; stroke-width: 0.5"/>
    <path d="M 24.385584 30.529636 
L 24.385584 87.202364 
" clip-path="url(#pcd4e887286)" style="fill: none; stroke: #d31518; stroke-opacity: 0.5; stroke-width: 0.5"/>
    <path d="M 25.739249 30.529636 
L 25.739249 87.202364 
" clip-path="url(#pcd4e887286)" style="fill: none; stroke: #d31518; stroke-opacity: 0.5; stroke-width: 0.5"/>
    <path d="M 27.092914 30.529636 
L 27.092914 87.202364 
" clip-path="url(#pcd4e887286)" style="fill: none; stroke: #d31518; stroke-opacity: 0.5; stroke-width: 0.5"/>
    <path d="M 28.446578 30.529636 
L 28.446578 87.202364 
" clip-path="url(#pcd4e887286)" style="fill: none; stroke: #d31518; stroke-opacity: 0.5; stroke-width: 0.5"/>
    <path d="M 29.800243 30.529636 
L 29.800243 87.202364 
" clip-path="url(#pcd4e887286)" style="fill: none; stroke: #d31518; stroke-opacity: 0.5; stroke-width: 0.5"/>
    <path d="M 31.153908 30.529636 
L 31.153908 87.202364 
" clip-path="url(#pcd4e887286)" style="fill: none; stroke: #d31518; stroke-opacity: 0.5; stroke-width: 0.5"/>
    <path d="M 32.507572 30.529636 
L 32.507572 87.202364 
" clip-path="url(#pcd4e887286)" style="fill: none; stroke: #d31518; stroke-opacity: 0.5; stroke-width: 0.5"/>
    <path d="M 33.861237 30.529636 
L 33.861237 87.202364 
" clip-path="url(#pcd4e887286)" style="fill: none; stroke: #d31518; stroke-opacity: 0.5; stroke-width: 0.5"/>
    <path d="M 35.214902 30.529636 
L 35.214902 87.202364 
" clip-path="url(#pcd4e887286)" style="fill: none; stroke: #d31518; stroke-opacity: 0.5; stroke-width: 0.5"/>
    <path d="M 36.568566 30.529636 
L 36.568566 87.202364 
" clip-path="url(#pcd4e887286)" style="fill: none; stroke: #d31518; stroke-opacity: 0.5; stroke-width: 0.5"/>
    <path d="M 37.922231 30.529636 
L 37.922231 87.202364 
" clip-path="url(#pcd4e887286)" style="fill: none; stroke: #d31518; stroke-opacity: 0.5; stroke-width: 0.5"/>
    <path d="M 39.275896 30.529636 
L 39.275896 87.202364 
" clip-path="url(#pcd4e887286)" style="fill: none; stroke: #d31518; stroke-opacity: 0.5; stroke-width: 0.5"/>
    <path d="M 40.62956 30.529636 
L 40.62956 87.202364 
" clip-path="url(#pcd4e887286)" style="fill: none; stroke: #d31518; stroke-opacity: 0.5; stroke-width: 0.5"/>
    <path d="M 41.983225 30.529636 
L 41.983225 87.202364 
" clip-path="url(#pcd4e887286)" style="fill: none; stroke: #d31518; stroke-opacity: 0.5; stroke-width: 0.5"/>
    <path d="M 43.336889 30.529636 
L 43.336889 87.202364 
" clip-path="url(#pcd4e887286)" style="fill: none; stroke: #d31518; stroke-opacity: 0.5; stroke-width: 0.5"/>
    <path d="M 44.690554 30.529636 
L 44.690554 87.202364 
" clip-path="url(#pcd4e887286)" style="fill: none; stroke: #d31518; stroke-opacity: 0.5; stroke-width: 0.5"/>
    <path d="M 46.044219 30.529636 
L 46.044219 87.202364 
" clip-path="url(#pcd4e887286)" style="fill: none; stroke: #d31518; stroke-opacity: 0.5; stroke-width: 0.5"/>
    <path d="M 47.397883 30.529636 
L 47.397883 87.202364 
" clip-path="url(#pcd4e887286)" style="fill: none; stroke: #d31518; stroke-opacity: 0.5; stroke-width: 0.5"/>
    <path d="M 48.751548 30.529636 
L 48.751548 87.202364 
" clip-path="url(#pcd4e887286)" style="fill: none; stroke: #d31518; stroke-opacity: 0.5; stroke-width: 0.5"/>
    <path d="M 50.105213 30.529636 
L 50.105213 87.202364 
" clip-path="url(#pcd4e887286)" style="fill: none; stroke: #d31518; stroke-opacity: 0.5; stroke-width: 0.5"/>
    <path d="M 51.458877 30.529636 
L 51.458877 87.202364 
" clip-path="url(#pcd4e887286)" style="fill: none; stroke: #d31518; stroke-opacity: 0.5; stroke-width: 0.5"/>
    <path d="M 52.812542 30.529636 
L 52.812542 87.202364 
" clip-path="url(#pcd4e887286)" style="fill: none; stroke: #d31518; stroke-opacity: 0.5; stroke-width: 0.5"/>
    <path d="M 54.166207 30.529636 
L 54.166207 87.202364 
" clip-path="url(#pcd4e887286)" style="fill: none; stroke: #d31518; stroke-opacity: 0.5; stroke-width: 0.5"/>
    <path d="M 55.519871 30.529636 
L 55.519871 87.202364 
" clip-path="url(#pcd4e887286)" style="fill: none; stroke: #d31518; stroke-opacity: 0.5; stroke-width: 0.5"/>
    <path d="M 56.873536 30.529636 
L 56.873536 87.202364 
" clip-path="url(#pcd4e887286)" style="fill: none; stroke: #d31518; stroke-opacity: 0.5; stroke-width: 0.5"/>
    <path d="M 58.227201 30.529636 
L 58.227201 87.202364 
" clip-path="url(#pcd4e887286)" style="fill: none; stroke: #d31518; stroke-opacity: 0.5; stroke-width: 0.5"/>
    <path d="M 59.580865 30.529636 
L 59.580865 87.202364 
" clip-path="url(#pcd4e887286)" style="fill: none; stroke: #d31518; stroke-opacity: 0.5; stroke-width: 0.5"/>
    <path d="M 60.93453 30.529636 
L 60.93453 87.202364 
" clip-path="url(#pcd4e887286)" style="fill: none; stroke: #d31518; stroke-opacity: 0.5; stroke-width: 0.5"/>
    <path d="M 62.288194 30.529636 
L 62.288194 87.202364 
" clip-path="url(#pcd4e887286)" style="fill: none; stroke: #d31518; stroke-opacity: 0.5; stroke-width: 0.5"/>
    <path d="M 63.641859 30.529636 
L 63.641859 87.202364 
" clip-path="url(#pcd4e887286)" style="fill: none; stroke: #d31518; stroke-opacity: 0.5; stroke-width: 0.5"/>
    <path d="M 64.995524 30.529636 
L 64.995524 87.202364 
" clip-path="url(#pcd4e887286)" style="fill: none; stroke: #d31518; stroke-opacity: 0.5; stroke-width: 0.5"/>
    <path d="M 66.349188 30.529636 
L 66.349188 87.202364 
" clip-path="url(#pcd4e887286)" style="fill: none; stroke: #d31518; stroke-opacity: 0.5; stroke-width: 0.5"/>
    <path d="M 67.702853 30.529636 
L 67.702853 87.202364 
" clip-path="url(#pcd4e887286)" style="fill: none; stroke: #d31518; stroke-opacity: 0.5; stroke-width: 0.5"/>
    <path d="M 69.056518 30.529636 
L 69.056518 87.202364 
" clip-path="url(#pcd4e887286)" style="fill: none; stroke: #d31518; stroke-opacity: 0.5; stroke-width: 0.5"/>
    <path d="M 70.410182 30.529636 
L 70.410182 87.202364 
" clip-path="url(#pcd4e887286)" style="fill: none; stroke: #d31518; stroke-opacity: 0.5; stroke-width: 0.5"/>
    <path d="M 71.763847 30.529636 
L 71.763847 87.202364 
" clip-path="url(#pcd4e887286)" style="fill: none; stroke: #d31518; stroke-opacity: 0.5; stroke-width: 0.5"/>
    <path d="M 73.117512 30.529636 
L 73.117512 87.202364 
" clip-path="url(#pcd4e887286)" style="fill: none; stroke: #d31518; stroke-opacity: 0.5; stroke-width: 0.5"/>
    <path d="M 74.471176 30.529636 
L 74.471176 87.202364 
" clip-path="url(#pcd4e887286)" style="fill: none; stroke: #d31518; stroke-opacity: 0.5; stroke-width: 0.5"/>
    <path d="M 75.824841 30.529636 
L 75.824841 87.202364 
" clip-path="url(#pcd4e887286)" style="fill: none; stroke: #d31518; stroke-opacity: 0.5; stroke-width: 0.5"/>
    <path d="M 77.178505 30.529636 
L 77.178505 87.202364 
" clip-path="url(#pcd4e887286)" style="fill: none; stroke: #d31518; stroke-opacity: 0.5; stroke-width: 0.5"/>
    <path d="M 78.53217 30.529636 
L 78.53217 87.202364 
" clip-path="url(#pcd4e887286)" style="fill: none; stroke: #d31518; stroke-opacity: 0.5; stroke-width: 0.5"/>
    <path d="M 79.885835 30.529636 
L 79.885835 87.202364 
" clip-path="url(#pcd4e887286)" style="fill: none; stroke: #d31518; stroke-opacity: 0.5; stroke-width: 0.5"/>
    <path d="M 81.239499 30.529636 
L 81.239499 87.202364 
" clip-path="url(#pcd4e887286)" style="fill: none; stroke: #d31518; stroke-opacity: 0.5; stroke-width: 0.5"/>
    <path d="M 82.593164 30.529636 
L 82.593164 87.202364 
" clip-path="url(#pcd4e887286)" style="fill: none; stroke: #d31518; stroke-opacity: 0.5; stroke-width: 0.5"/>
    <path d="M 83.946829 30.529636 
L 83.946829 87.202364 
" clip-path="url(#pcd4e887286)" style="fill: none; stroke: #d31518; stroke-opacity: 0.5; stroke-width: 0.5"/>
    <path d="M 85.300493 30.529636 
L 85.300493 87.202364 
" clip-path="url(#pcd4e887286)" style="fill: none; stroke: #d31518; stroke-opacity: 0.5; stroke-width: 0.5"/>
    <path d="M 86.654158 30.529636 
L 86.654158 87.202364 
" clip-path="url(#pcd4e887286)" style="fill: none; stroke: #d31518; stroke-opacity: 0.5; stroke-width: 0.5"/>
    <path d="M 88.007823 30.529636 
L 88.007823 87.202364 
" clip-path="url(#pcd4e887286)" style="fill: none; stroke: #d31518; stroke-opacity: 0.5; stroke-width: 0.5"/>
    <path d="M 89.361487 30.529636 
L 89.361487 87.202364 
" clip-path="url(#pcd4e887286)" style="fill: none; stroke: #d31518; stroke-opacity: 0.5; stroke-width: 0.5"/>
    <path d="M 90.715152 30.529636 
L 90.715152 87.202364 
" clip-path="url(#pcd4e887286)" style="fill: none; stroke: #d31518; stroke-opacity: 0.5; stroke-width: 0.5"/>
    <path d="M 92.068817 30.529636 
L 92.068817 87.202364 
" clip-path="url(#pcd4e887286)" style="fill: none; stroke: #d31518; stroke-opacity: 0.5; stroke-width: 0.5"/>
    <path d="M 93.422481 30.529636 
L 93.422481 87.202364 
" clip-path="url(#pcd4e887286)" style="fill: none; stroke: #d31518; stroke-opacity: 0.5; stroke-width: 0.5"/>
    <path d="M 94.776146 30.529636 
L 94.776146 87.202364 
" clip-path="url(#pcd4e887286)" style="fill: none; stroke: #d31518; stroke-opacity: 0.5; stroke-width: 0.5"/>
    <path d="M 96.12981 30.529636 
L 96.12981 87.202364 
" clip-path="url(#pcd4e887286)" style="fill: none; stroke: #d31518; stroke-opacity: 0.5; stroke-width: 0.5"/>
    <path d="M 97.483475 30.529636 
L 97.483475 87.202364 
" clip-path="url(#pcd4e887286)" style="fill: none; stroke: #d31518; stroke-opacity: 0.5; stroke-width: 0.5"/>
    <path d="M 98.83714 30.529636 
L 98.83714 87.202364 
" clip-path="url(#pcd4e887286)" style="fill: none; stroke: #d31518; stroke-opacity: 0.5; stroke-width: 0.5"/>
    <path d="M 100.190804 30.529636 
L 100.190804 87.202364 
" clip-path="url(#pcd4e887286)" style="fill: none; stroke: #d31518; stroke-opacity: 0.5; stroke-width: 0.5"/>
    <path d="M 101.544469 30.529636 
L 101.544469 87.202364 
" clip-path="url(#pcd4e887286)" style="fill: none; stroke: #d31518; stroke-opacity: 0.5; stroke-width: 0.5"/>
    <path d="M 102.898134 30.529636 
L 102.898134 87.202364 
" clip-path="url(#pcd4e887286)" style="fill: none; stroke: #d31518; stroke-opacity: 0.5; stroke-width: 0.5"/>
    <path d="M 104.251798 30.529636 
L 104.251798 87.202364 
" clip-path="url(#pcd4e887286)" style="fill: none; stroke: #d31518; stroke-opacity: 0.5; stroke-width: 0.5"/>
    <path d="M 105.605463 30.529636 
L 105.605463 87.202364 
" clip-path="url(#pcd4e887286)" style="fill: none; stroke: #d31518; stroke-opacity: 0.5; stroke-width: 0.5"/>
    <path d="M 106.959128 30.529636 
L 106.959128 87.202364 
" clip-path="url(#pcd4e887286)" style="fill: none; stroke: #d31518; stroke-opacity: 0.5; stroke-width: 0.5"/>
    <path d="M 108.312792 30.529636 
L 108.312792 87.202364 
" clip-path="url(#pcd4e887286)" style="fill: none; stroke: #d31518; stroke-opacity: 0.5; stroke-width: 0.5"/>
    <path d="M 109.666457 30.529636 
L 109.666457 87.202364 
" clip-path="url(#pcd4e887286)" style="fill: none; stroke: #d31518; stroke-opacity: 0.5; stroke-width: 0.5"/>
    <path d="M 111.020122 30.529636 
L 111.020122 87.202364 
" clip-path="url(#pcd4e887286)" style="fill: none; stroke: #d31518; stroke-opacity: 0.5; stroke-width: 0.5"/>
    <path d="M 112.373786 30.529636 
L 112.373786 87.202364 
" clip-path="url(#pcd4e887286)" style="fill: none; stroke: #d31518; stroke-opacity: 0.5; stroke-width: 0.5"/>
    <path d="M 113.727451 30.529636 
L 113.727451 87.202364 
" clip-path="url(#pcd4e887286)" style="fill: none; stroke: #d31518; stroke-opacity: 0.5; stroke-width: 0.5"/>
    <path d="M 115.081115 30.529636 
L 115.081115 87.202364 
" clip-path="url(#pcd4e887286)" style="fill: none; stroke: #d31518; stroke-opacity: 0.5; stroke-width: 0.5"/>
    <path d="M 116.43478 30.529636 
L 116.43478 87.202364 
" clip-path="url(#pcd4e887286)" style="fill: none; stroke: #d31518; stroke-opacity: 0.5; stroke-width: 0.5"/>
    <path d="M 117.788445 30.529636 
L 117.788445 87.202364 
" clip-path="url(#pcd4e887286)" style="fill: none; stroke: #d31518; stroke-opacity: 0.5; stroke-width: 0.5"/>
    <path d="M 119.142109 30.529636 
L 119.142109 87.202364 
" clip-path="url(#pcd4e887286)" style="fill: none; stroke: #d31518; stroke-opacity: 0.5; stroke-width: 0.5"/>
    <path d="M 120.495774 30.529636 
L 120.495774 87.202364 
" clip-path="url(#pcd4e887286)" style="fill: none; stroke: #d31518; stroke-opacity: 0.5; stroke-width: 0.5"/>
    <path d="M 121.849439 30.529636 
L 121.849439 87.202364 
" clip-path="url(#pcd4e887286)" style="fill: none; stroke: #d31518; stroke-opacity: 0.5; stroke-width: 0.5"/>
    <path d="M 123.203103 30.529636 
L 123.203103 87.202364 
" clip-path="url(#pcd4e887286)" style="fill: none; stroke: #d31518; stroke-opacity: 0.5; stroke-width: 0.5"/>
    <path d="M 124.556768 30.529636 
L 124.556768 87.202364 
" clip-path="url(#pcd4e887286)" style="fill: none; stroke: #d31518; stroke-opacity: 0.5; stroke-width: 0.5"/>
    <path d="M 125.910433 30.529636 
L 125.910433 87.202364 
" clip-path="url(#pcd4e887286)" style="fill: none; stroke: #d31518; stroke-opacity: 0.5; stroke-width: 0.5"/>
    <path d="M 127.264097 30.529636 
L 127.264097 87.202364 
" clip-path="url(#pcd4e887286)" style="fill: none; stroke: #d31518; stroke-opacity: 0.5; stroke-width: 0.5"/>
    <path d="M 128.617762 30.529636 
L 128.617762 87.202364 
" clip-path="url(#pcd4e887286)" style="fill: none; stroke: #d31518; stroke-opacity: 0.5; stroke-width: 0.5"/>
    <path d="M 129.971427 30.529636 
L 129.971427 87.202364 
" clip-path="url(#pcd4e887286)" style="fill: none; stroke: #d31518; stroke-opacity: 0.5; stroke-width: 0.5"/>
    <path d="M 131.325091 30.529636 
L 131.325091 87.202364 
" clip-path="url(#pcd4e887286)" style="fill: none; stroke: #d31518; stroke-opacity: 0.5; stroke-width: 0.5"/>
    <path d="M 132.678756 30.529636 
L 132.678756 87.202364 
" clip-path="url(#pcd4e887286)" style="fill: none; stroke: #d31518; stroke-opacity: 0.5; stroke-width: 0.5"/>
    <path d="M 134.03242 30.529636 
L 134.03242 87.202364 
" clip-path="url(#pcd4e887286)" style="fill: none; stroke: #d31518; stroke-opacity: 0.5; stroke-width: 0.5"/>
    <path d="M 135.386085 30.529636 
L 135.386085 87.202364 
" clip-path="url(#pcd4e887286)" style="fill: none; stroke: #d31518; stroke-opacity: 0.5; stroke-width: 0.5"/>
    <path d="M 136.73975 30.529636 
L 136.73975 87.202364 
" clip-path="url(#pcd4e887286)" style="fill: none; stroke: #d31518; stroke-opacity: 0.5; stroke-width: 0.5"/>
    <path d="M 138.093414 30.529636 
L 138.093414 87.202364 
" clip-path="url(#pcd4e887286)" style="fill: none; stroke: #d31518; stroke-opacity: 0.5; stroke-width: 0.5"/>
    <path d="M 139.447079 30.529636 
L 139.447079 87.202364 
" clip-path="url(#pcd4e887286)" style="fill: none; stroke: #d31518; stroke-opacity: 0.5; stroke-width: 0.5"/>
    <path d="M 140.800744 30.529636 
L 140.800744 87.202364 
" clip-path="url(#pcd4e887286)" style="fill: none; stroke: #d31518; stroke-opacity: 0.5; stroke-width: 0.5"/>
    <path d="M 142.154408 30.529636 
L 142.154408 87.202364 
" clip-path="url(#pcd4e887286)" style="fill: none; stroke: #d31518; stroke-opacity: 0.5; stroke-width: 0.5"/>
    <path d="M 143.508073 30.529636 
L 143.508073 87.202364 
" clip-path="url(#pcd4e887286)" style="fill: none; stroke: #d31518; stroke-opacity: 0.5; stroke-width: 0.5"/>
    <path d="M 144.861738 30.529636 
L 144.861738 87.202364 
" clip-path="url(#pcd4e887286)" style="fill: none; stroke: #d31518; stroke-opacity: 0.5; stroke-width: 0.5"/>
    <path d="M 146.215402 30.529636 
L 146.215402 87.202364 
" clip-path="url(#pcd4e887286)" style="fill: none; stroke: #d31518; stroke-opacity: 0.5; stroke-width: 0.5"/>
    <path d="M 147.569067 30.529636 
L 147.569067 87.202364 
" clip-path="url(#pcd4e887286)" style="fill: none; stroke: #d31518; stroke-opacity: 0.5; stroke-width: 0.5"/>
    <path d="M 148.922731 30.529636 
L 148.922731 87.202364 
" clip-path="url(#pcd4e887286)" style="fill: none; stroke: #d31518; stroke-opacity: 0.5; stroke-width: 0.5"/>
    <path d="M 150.276396 30.529636 
L 150.276396 87.202364 
" clip-path="url(#pcd4e887286)" style="fill: none; stroke: #d31518; stroke-opacity: 0.5; stroke-width: 0.5"/>
    <path d="M 151.630061 30.529636 
L 151.630061 87.202364 
" clip-path="url(#pcd4e887286)" style="fill: none; stroke: #d31518; stroke-opacity: 0.5; stroke-width: 0.5"/>
    <path d="M 152.983725 30.529636 
L 152.983725 87.202364 
" clip-path="url(#pcd4e887286)" style="fill: none; stroke: #d31518; stroke-opacity: 0.5; stroke-width: 0.5"/>
    <path d="M 154.33739 30.529636 
L 154.33739 87.202364 
" clip-path="url(#pcd4e887286)" style="fill: none; stroke: #d31518; stroke-opacity: 0.5; stroke-width: 0.5"/>
    <path d="M 155.691055 30.529636 
L 155.691055 87.202364 
" clip-path="url(#pcd4e887286)" style="fill: none; stroke: #d31518; stroke-opacity: 0.5; stroke-width: 0.5"/>
    <path d="M 157.044719 30.529636 
L 157.044719 87.202364 
" clip-path="url(#pcd4e887286)" style="fill: none; stroke: #d31518; stroke-opacity: 0.5; stroke-width: 0.5"/>
    <path d="M 158.398384 30.529636 
L 158.398384 87.202364 
" clip-path="url(#pcd4e887286)" style="fill: none; stroke: #d31518; stroke-opacity: 0.5; stroke-width: 0.5"/>
    <path d="M 159.752049 30.529636 
L 159.752049 87.202364 
" clip-path="url(#pcd4e887286)" style="fill: none; stroke: #d31518; stroke-opacity: 0.5; stroke-width: 0.5"/>
    <path d="M 161.105713 30.529636 
L 161.105713 87.202364 
" clip-path="url(#pcd4e887286)" style="fill: none; stroke: #d31518; stroke-opacity: 0.5; stroke-width: 0.5"/>
    <path d="M 162.459378 30.529636 
L 162.459378 87.202364 
" clip-path="url(#pcd4e887286)" style="fill: none; stroke: #d31518; stroke-opacity: 0.5; stroke-width: 0.5"/>
    <path d="M 163.813043 30.529636 
L 163.813043 87.202364 
" clip-path="url(#pcd4e887286)" style="fill: none; stroke: #d31518; stroke-opacity: 0.5; stroke-width: 0.5"/>
    <path d="M 165.166707 30.529636 
L 165.166707 87.202364 
" clip-path="url(#pcd4e887286)" style="fill: none; stroke: #d31518; stroke-opacity: 0.5; stroke-width: 0.5"/>
    <path d="M 166.520372 30.529636 
L 166.520372 87.202364 
" clip-path="url(#pcd4e887286)" style="fill: none; stroke: #d31518; stroke-opacity: 0.5; stroke-width: 0.5"/>
    <path d="M 167.874036 30.529636 
L 167.874036 87.202364 
" clip-path="url(#pcd4e887286)" style="fill: none; stroke: #d31518; stroke-opacity: 0.5; stroke-width: 0.5"/>
    <path d="M 169.227701 30.529636 
L 169.227701 87.202364 
" clip-path="url(#pcd4e887286)" style="fill: none; stroke: #d31518; stroke-opacity: 0.5; stroke-width: 0.5"/>
    <path d="M 170.581366 30.529636 
L 170.581366 87.202364 
" clip-path="url(#pcd4e887286)" style="fill: none; stroke: #d31518; stroke-opacity: 0.5; stroke-width: 0.5"/>
    <path d="M 171.93503 30.529636 
L 171.93503 87.202364 
" clip-path="url(#pcd4e887286)" style="fill: none; stroke: #d31518; stroke-opacity: 0.5; stroke-width: 0.5"/>
    <path d="M 173.288695 30.529636 
L 173.288695 87.202364 
" clip-path="url(#pcd4e887286)" style="fill: none; stroke: #d31518; stroke-opacity: 0.5; stroke-width: 0.5"/>
    <path d="M 174.64236 30.529636 
L 174.64236 87.202364 
" clip-path="url(#pcd4e887286)" style="fill: none; stroke: #d31518; stroke-opacity: 0.5; stroke-width: 0.5"/>
    <path d="M 175.996024 30.529636 
L 175.996024 87.202364 
" clip-path="url(#pcd4e887286)" style="fill: none; stroke: #d31518; stroke-opacity: 0.5; stroke-width: 0.5"/>
    <path d="M 177.349689 30.529636 
L 177.349689 87.202364 
" clip-path="url(#pcd4e887286)" style="fill: none; stroke: #d31518; stroke-opacity: 0.5; stroke-width: 0.5"/>
    <path d="M 178.703354 30.529636 
L 178.703354 87.202364 
" clip-path="url(#pcd4e887286)" style="fill: none; stroke: #d31518; stroke-opacity: 0.5; stroke-width: 0.5"/>
    <path d="M 180.057018 30.529636 
L 180.057018 87.202364 
" clip-path="url(#pcd4e887286)" style="fill: none; stroke: #d31518; stroke-opacity: 0.5; stroke-width: 0.5"/>
    <path d="M 181.410683 30.529636 
L 181.410683 87.202364 
" clip-path="url(#pcd4e887286)" style="fill: none; stroke: #d31518; stroke-opacity: 0.5; stroke-width: 0.5"/>
    <path d="M 182.764348 30.529636 
L 182.764348 87.202364 
" clip-path="url(#pcd4e887286)" style="fill: none; stroke: #d31518; stroke-opacity: 0.5; stroke-width: 0.5"/>
    <path d="M 184.118012 30.529636 
L 184.118012 87.202364 
" clip-path="url(#pcd4e887286)" style="fill: none; stroke: #d31518; stroke-opacity: 0.5; stroke-width: 0.5"/>
    <path d="M 185.471677 30.529636 
L 185.471677 87.202364 
" clip-path="url(#pcd4e887286)" style="fill: none; stroke: #d31518; stroke-opacity: 0.5; stroke-width: 0.5"/>
    <path d="M 186.825341 30.529636 
L 186.825341 87.202364 
" clip-path="url(#pcd4e887286)" style="fill: none; stroke: #d31518; stroke-opacity: 0.5; stroke-width: 0.5"/>
    <path d="M 188.179006 30.529636 
L 188.179006 87.202364 
" clip-path="url(#pcd4e887286)" style="fill: none; stroke: #d31518; stroke-opacity: 0.5; stroke-width: 0.5"/>
    <path d="M 189.532671 30.529636 
L 189.532671 87.202364 
" clip-path="url(#pcd4e887286)" style="fill: none; stroke: #d31518; stroke-opacity: 0.5; stroke-width: 0.5"/>
    <path d="M 190.886335 30.529636 
L 190.886335 87.202364 
" clip-path="url(#pcd4e887286)" style="fill: none; stroke: #d31518; stroke-opacity: 0.5; stroke-width: 0.5"/>
    <path d="M 192.24 30.529636 
L 192.24 87.202364 
" clip-path="url(#pcd4e887286)" style="fill: none; stroke: #d31518; stroke-opacity: 0.5; stroke-width: 0.5"/>
    <path d="M 193.593665 30.529636 
L 193.593665 87.202364 
" clip-path="url(#pcd4e887286)" style="fill: none; stroke: #d31518; stroke-opacity: 0.5; stroke-width: 0.5"/>
    <path d="M 194.947329 30.529636 
L 194.947329 87.202364 
" clip-path="url(#pcd4e887286)" style="fill: none; stroke: #d31518; stroke-opacity: 0.5; stroke-width: 0.5"/>
    <path d="M 196.300994 30.529636 
L 196.300994 87.202364 
" clip-path="url(#pcd4e887286)" style="fill: none; stroke: #d31518; stroke-opacity: 0.5; stroke-width: 0.5"/>
    <path d="M 197.654659 30.529636 
L 197.654659 87.202364 
" clip-path="url(#pcd4e887286)" style="fill: none; stroke: #d31518; stroke-opacity: 0.5; stroke-width: 0.5"/>
    <path d="M 199.008323 30.529636 
L 199.008323 87.202364 
" clip-path="url(#pcd4e887286)" style="fill: none; stroke: #d31518; stroke-opacity: 0.5; stroke-width: 0.5"/>
    <path d="M 200.361988 30.529636 
L 200.361988 87.202364 
" clip-path="url(#pcd4e887286)" style="fill: none; stroke: #d31518; stroke-opacity: 0.5; stroke-width: 0.5"/>
    <path d="M 201.715652 30.529636 
L 201.715652 87.202364 
" clip-path="url(#pcd4e887286)" style="fill: none; stroke: #d31518; stroke-opacity: 0.5; stroke-width: 0.5"/>
    <path d="M 203.069317 30.529636 
L 203.069317 87.202364 
" clip-path="url(#pcd4e887286)" style="fill: none; stroke: #d31518; stroke-opacity: 0.5; stroke-width: 0.5"/>
    <path d="M 204.422982 30.529636 
L 204.422982 87.202364 
" clip-path="url(#pcd4e887286)" style="fill: none; stroke: #d31518; stroke-opacity: 0.5; stroke-width: 0.5"/>
    <path d="M 205.776646 30.529636 
L 205.776646 87.202364 
" clip-path="url(#pcd4e887286)" style="fill: none; stroke: #d31518; stroke-opacity: 0.5; stroke-width: 0.5"/>
    <path d="M 207.130311 30.529636 
L 207.130311 87.202364 
" clip-path="url(#pcd4e887286)" style="fill: none; stroke: #d31518; stroke-opacity: 0.5; stroke-width: 0.5"/>
    <path d="M 208.483976 30.529636 
L 208.483976 87.202364 
" clip-path="url(#pcd4e887286)" style="fill: none; stroke: #d31518; stroke-opacity: 0.5; stroke-width: 0.5"/>
    <path d="M 209.83764 30.529636 
L 209.83764 87.202364 
" clip-path="url(#pcd4e887286)" style="fill: none; stroke: #d31518; stroke-opacity: 0.5; stroke-width: 0.5"/>
    <path d="M 211.191305 30.529636 
L 211.191305 87.202364 
" clip-path="url(#pcd4e887286)" style="fill: none; stroke: #d31518; stroke-opacity: 0.5; stroke-width: 0.5"/>
    <path d="M 212.54497 30.529636 
L 212.54497 87.202364 
" clip-path="url(#pcd4e887286)" style="fill: none; stroke: #d31518; stroke-opacity: 0.5; stroke-width: 0.5"/>
    <path d="M 213.898634 30.529636 
L 213.898634 87.202364 
" clip-path="url(#pcd4e887286)" style="fill: none; stroke: #d31518; stroke-opacity: 0.5; stroke-width: 0.5"/>
    <path d="M 215.252299 30.529636 
L 215.252299 87.202364 
" clip-path="url(#pcd4e887286)" style="fill: none; stroke: #d31518; stroke-opacity: 0.5; stroke-width: 0.5"/>
    <path d="M 216.605964 30.529636 
L 216.605964 87.202364 
" clip-path="url(#pcd4e887286)" style="fill: none; stroke: #d31518; stroke-opacity: 0.5; stroke-width: 0.5"/>
    <path d="M 217.959628 30.529636 
L 217.959628 87.202364 
" clip-path="url(#pcd4e887286)" style="fill: none; stroke: #d31518; stroke-opacity: 0.5; stroke-width: 0.5"/>
    <path d="M 219.313293 30.529636 
L 219.313293 87.202364 
" clip-path="url(#pcd4e887286)" style="fill: none; stroke: #d31518; stroke-opacity: 0.5; stroke-width: 0.5"/>
    <path d="M 220.666957 30.529636 
L 220.666957 87.202364 
" clip-path="url(#pcd4e887286)" style="fill: none; stroke: #d31518; stroke-opacity: 0.5; stroke-width: 0.5"/>
    <path d="M 222.020622 30.529636 
L 222.020622 87.202364 
" clip-path="url(#pcd4e887286)" style="fill: none; stroke: #d31518; stroke-opacity: 0.5; stroke-width: 0.5"/>
    <path d="M 223.374287 30.529636 
L 223.374287 87.202364 
" clip-path="url(#pcd4e887286)" style="fill: none; stroke: #d31518; stroke-opacity: 0.5; stroke-width: 0.5"/>
    <path d="M 224.727951 30.529636 
L 224.727951 87.202364 
" clip-path="url(#pcd4e887286)" style="fill: none; stroke: #d31518; stroke-opacity: 0.5; stroke-width: 0.5"/>
    <path d="M 226.081616 30.529636 
L 226.081616 87.202364 
" clip-path="url(#pcd4e887286)" style="fill: none; stroke: #d31518; stroke-opacity: 0.5; stroke-width: 0.5"/>
    <path d="M 227.435281 30.529636 
L 227.435281 87.202364 
" clip-path="url(#pcd4e887286)" style="fill: none; stroke: #d31518; stroke-opacity: 0.5; stroke-width: 0.5"/>
    <path d="M 228.788945 30.529636 
L 228.788945 87.202364 
" clip-path="url(#pcd4e887286)" style="fill: none; stroke: #d31518; stroke-opacity: 0.5; stroke-width: 0.5"/>
    <path d="M 230.14261 30.529636 
L 230.14261 87.202364 
" clip-path="url(#pcd4e887286)" style="fill: none; stroke: #d31518; stroke-opacity: 0.5; stroke-width: 0.5"/>
    <path d="M 231.496275 30.529636 
L 231.496275 87.202364 
" clip-path="url(#pcd4e887286)" style="fill: none; stroke: #d31518; stroke-opacity: 0.5; stroke-width: 0.5"/>
    <path d="M 232.849939 30.529636 
L 232.849939 87.202364 
" clip-path="url(#pcd4e887286)" style="fill: none; stroke: #d31518; stroke-opacity: 0.5; stroke-width: 0.5"/>
    <path d="M 234.203604 30.529636 
L 234.203604 87.202364 
" clip-path="url(#pcd4e887286)" style="fill: none; stroke: #d31518; stroke-opacity: 0.5; stroke-width: 0.5"/>
    <path d="M 235.557269 30.529636 
L 235.557269 87.202364 
" clip-path="url(#pcd4e887286)" style="fill: none; stroke: #d31518; stroke-opacity: 0.5; stroke-width: 0.5"/>
    <path d="M 236.910933 30.529636 
L 236.910933 87.202364 
" clip-path="url(#pcd4e887286)" style="fill: none; stroke: #d31518; stroke-opacity: 0.5; stroke-width: 0.5"/>
    <path d="M 238.264598 30.529636 
L 238.264598 87.202364 
" clip-path="url(#pcd4e887286)" style="fill: none; stroke: #d31518; stroke-opacity: 0.5; stroke-width: 0.5"/>
    <path d="M 239.618262 30.529636 
L 239.618262 87.202364 
" clip-path="url(#pcd4e887286)" style="fill: none; stroke: #d31518; stroke-opacity: 0.5; stroke-width: 0.5"/>
    <path d="M 240.971927 30.529636 
L 240.971927 87.202364 
" clip-path="url(#pcd4e887286)" style="fill: none; stroke: #d31518; stroke-opacity: 0.5; stroke-width: 0.5"/>
    <path d="M 242.325592 30.529636 
L 242.325592 87.202364 
" clip-path="url(#pcd4e887286)" style="fill: none; stroke: #d31518; stroke-opacity: 0.5; stroke-width: 0.5"/>
    <path d="M 243.679256 30.529636 
L 243.679256 87.202364 
" clip-path="url(#pcd4e887286)" style="fill: none; stroke: #d31518; stroke-opacity: 0.5; stroke-width: 0.5"/>
    <path d="M 245.032921 30.529636 
L 245.032921 87.202364 
" clip-path="url(#pcd4e887286)" style="fill: none; stroke: #d31518; stroke-opacity: 0.5; stroke-width: 0.5"/>
    <path d="M 246.386586 30.529636 
L 246.386586 87.202364 
" clip-path="url(#pcd4e887286)" style="fill: none; stroke: #d31518; stroke-opacity: 0.5; stroke-width: 0.5"/>
    <path d="M 247.74025 30.529636 
L 247.74025 87.202364 
" clip-path="url(#pcd4e887286)" style="fill: none; stroke: #d31518; stroke-opacity: 0.5; stroke-width: 0.5"/>
    <path d="M 249.093915 30.529636 
L 249.093915 87.202364 
" clip-path="url(#pcd4e887286)" style="fill: none; stroke: #d31518; stroke-opacity: 0.5; stroke-width: 0.5"/>
    <path d="M 250.44758 30.529636 
L 250.44758 87.202364 
" clip-path="url(#pcd4e887286)" style="fill: none; stroke: #d31518; stroke-opacity: 0.5; stroke-width: 0.5"/>
    <path d="M 251.801244 30.529636 
L 251.801244 87.202364 
" clip-path="url(#pcd4e887286)" style="fill: none; stroke: #d31518; stroke-opacity: 0.5; stroke-width: 0.5"/>
    <path d="M 253.154909 30.529636 
L 253.154909 87.202364 
" clip-path="url(#pcd4e887286)" style="fill: none; stroke: #d31518; stroke-opacity: 0.5; stroke-width: 0.5"/>
    <path d="M 254.508573 30.529636 
L 254.508573 87.202364 
" clip-path="url(#pcd4e887286)" style="fill: none; stroke: #d31518; stroke-opacity: 0.5; stroke-width: 0.5"/>
    <path d="M 255.862238 30.529636 
L 255.862238 87.202364 
" clip-path="url(#pcd4e887286)" style="fill: none; stroke: #d31518; stroke-opacity: 0.5; stroke-width: 0.5"/>
    <path d="M 257.215903 30.529636 
L 257.215903 87.202364 
" clip-path="url(#pcd4e887286)" style="fill: none; stroke: #d31518; stroke-opacity: 0.5; stroke-width: 0.5"/>
    <path d="M 258.569567 30.529636 
L 258.569567 87.202364 
" clip-path="url(#pcd4e887286)" style="fill: none; stroke: #d31518; stroke-opacity: 0.5; stroke-width: 0.5"/>
    <path d="M 259.923232 30.529636 
L 259.923232 87.202364 
" clip-path="url(#pcd4e887286)" style="fill: none; stroke: #d31518; stroke-opacity: 0.5; stroke-width: 0.5"/>
    <path d="M 261.276897 30.529636 
L 261.276897 87.202364 
" clip-path="url(#pcd4e887286)" style="fill: none; stroke: #d31518; stroke-opacity: 0.5; stroke-width: 0.5"/>
    <path d="M 262.630561 30.529636 
L 262.630561 87.202364 
" clip-path="url(#pcd4e887286)" style="fill: none; stroke: #d31518; stroke-opacity: 0.5; stroke-width: 0.5"/>
    <path d="M 263.984226 30.529636 
L 263.984226 87.202364 
" clip-path="url(#pcd4e887286)" style="fill: none; stroke: #d31518; stroke-opacity: 0.5; stroke-width: 0.5"/>
    <path d="M 265.337891 30.529636 
L 265.337891 87.202364 
" clip-path="url(#pcd4e887286)" style="fill: none; stroke: #d31518; stroke-opacity: 0.5; stroke-width: 0.5"/>
    <path d="M 266.691555 30.529636 
L 266.691555 87.202364 
" clip-path="url(#pcd4e887286)" style="fill: none; stroke: #d31518; stroke-opacity: 0.5; stroke-width: 0.5"/>
    <path d="M 268.04522 30.529636 
L 268.04522 87.202364 
" clip-path="url(#pcd4e887286)" style="fill: none; stroke: #d31518; stroke-opacity: 0.5; stroke-width: 0.5"/>
    <path d="M 269.398885 30.529636 
L 269.398885 87.202364 
" clip-path="url(#pcd4e887286)" style="fill: none; stroke: #d31518; stroke-opacity: 0.5; stroke-width: 0.5"/>
    <path d="M 270.752549 30.529636 
L 270.752549 87.202364 
" clip-path="url(#pcd4e887286)" style="fill: none; stroke: #d31518; stroke-opacity: 0.5; stroke-width: 0.5"/>
    <path d="M 272.106214 30.529636 
L 272.106214 87.202364 
" clip-path="url(#pcd4e887286)" style="fill: none; stroke: #d31518; stroke-opacity: 0.5; stroke-width: 0.5"/>
    <path d="M 273.459878 30.529636 
L 273.459878 87.202364 
" clip-path="url(#pcd4e887286)" style="fill: none; stroke: #d31518; stroke-opacity: 0.5; stroke-width: 0.5"/>
    <path d="M 274.813543 30.529636 
L 274.813543 87.202364 
" clip-path="url(#pcd4e887286)" style="fill: none; stroke: #d31518; stroke-opacity: 0.5; stroke-width: 0.5"/>
    <path d="M 276.167208 30.529636 
L 276.167208 87.202364 
" clip-path="url(#pcd4e887286)" style="fill: none; stroke: #d31518; stroke-opacity: 0.5; stroke-width: 0.5"/>
    <path d="M 277.520872 30.529636 
L 277.520872 87.202364 
" clip-path="url(#pcd4e887286)" style="fill: none; stroke: #d31518; stroke-opacity: 0.5; stroke-width: 0.5"/>
    <path d="M 278.874537 30.529636 
L 278.874537 87.202364 
" clip-path="url(#pcd4e887286)" style="fill: none; stroke: #d31518; stroke-opacity: 0.5; stroke-width: 0.5"/>
    <path d="M 280.228202 30.529636 
L 280.228202 87.202364 
" clip-path="url(#pcd4e887286)" style="fill: none; stroke: #d31518; stroke-opacity: 0.5; stroke-width: 0.5"/>
    <path d="M 281.581866 30.529636 
L 281.581866 87.202364 
" clip-path="url(#pcd4e887286)" style="fill: none; stroke: #d31518; stroke-opacity: 0.5; stroke-width: 0.5"/>
    <path d="M 282.935531 30.529636 
L 282.935531 87.202364 
" clip-path="url(#pcd4e887286)" style="fill: none; stroke: #d31518; stroke-opacity: 0.5; stroke-width: 0.5"/>
    <path d="M 284.289196 30.529636 
L 284.289196 87.202364 
" clip-path="url(#pcd4e887286)" style="fill: none; stroke: #d31518; stroke-opacity: 0.5; stroke-width: 0.5"/>
    <path d="M 285.64286 30.529636 
L 285.64286 87.202364 
" clip-path="url(#pcd4e887286)" style="fill: none; stroke: #d31518; stroke-opacity: 0.5; stroke-width: 0.5"/>
    <path d="M 286.996525 30.529636 
L 286.996525 87.202364 
" clip-path="url(#pcd4e887286)" style="fill: none; stroke: #d31518; stroke-opacity: 0.5; stroke-width: 0.5"/>
    <path d="M 288.35019 30.529636 
L 288.35019 87.202364 
" clip-path="url(#pcd4e887286)" style="fill: none; stroke: #d31518; stroke-opacity: 0.5; stroke-width: 0.5"/>
    <path d="M 289.703854 30.529636 
L 289.703854 87.202364 
" clip-path="url(#pcd4e887286)" style="fill: none; stroke: #d31518; stroke-opacity: 0.5; stroke-width: 0.5"/>
    <path d="M 291.057519 30.529636 
L 291.057519 87.202364 
" clip-path="url(#pcd4e887286)" style="fill: none; stroke: #d31518; stroke-opacity: 0.5; stroke-width: 0.5"/>
    <path d="M 292.411183 30.529636 
L 292.411183 87.202364 
" clip-path="url(#pcd4e887286)" style="fill: none; stroke: #d31518; stroke-opacity: 0.5; stroke-width: 0.5"/>
    <path d="M 293.764848 30.529636 
L 293.764848 87.202364 
" clip-path="url(#pcd4e887286)" style="fill: none; stroke: #d31518; stroke-opacity: 0.5; stroke-width: 0.5"/>
    <path d="M 295.118513 30.529636 
L 295.118513 87.202364 
" clip-path="url(#pcd4e887286)" style="fill: none; stroke: #d31518; stroke-opacity: 0.5; stroke-width: 0.5"/>
    <path d="M 296.472177 30.529636 
L 296.472177 87.202364 
" clip-path="url(#pcd4e887286)" style="fill: none; stroke: #d31518; stroke-opacity: 0.5; stroke-width: 0.5"/>
    <path d="M 297.825842 30.529636 
L 297.825842 87.202364 
" clip-path="url(#pcd4e887286)" style="fill: none; stroke: #d31518; stroke-opacity: 0.5; stroke-width: 0.5"/>
    <path d="M 299.179507 30.529636 
L 299.179507 87.202364 
" clip-path="url(#pcd4e887286)" style="fill: none; stroke: #d31518; stroke-opacity: 0.5; stroke-width: 0.5"/>
    <path d="M 300.533171 30.529636 
L 300.533171 87.202364 
" clip-path="url(#pcd4e887286)" style="fill: none; stroke: #d31518; stroke-opacity: 0.5; stroke-width: 0.5"/>
    <path d="M 301.886836 30.529636 
L 301.886836 87.202364 
" clip-path="url(#pcd4e887286)" style="fill: none; stroke: #d31518; stroke-opacity: 0.5; stroke-width: 0.5"/>
    <path d="M 303.240501 30.529636 
L 303.240501 87.202364 
" clip-path="url(#pcd4e887286)" style="fill: none; stroke: #d31518; stroke-opacity: 0.5; stroke-width: 0.5"/>
    <path d="M 304.594165 30.529636 
L 304.594165 87.202364 
" clip-path="url(#pcd4e887286)" style="fill: none; stroke: #d31518; stroke-opacity: 0.5; stroke-width: 0.5"/>
    <path d="M 305.94783 30.529636 
L 305.94783 87.202364 
" clip-path="url(#pcd4e887286)" style="fill: none; stroke: #d31518; stroke-opacity: 0.5; stroke-width: 0.5"/>
    <path d="M 307.301495 30.529636 
L 307.301495 87.202364 
" clip-path="url(#pcd4e887286)" style="fill: none; stroke: #d31518; stroke-opacity: 0.5; stroke-width: 0.5"/>
    <path d="M 308.655159 30.529636 
L 308.655159 87.202364 
" clip-path="url(#pcd4e887286)" style="fill: none; stroke: #d31518; stroke-opacity: 0.5; stroke-width: 0.5"/>
    <path d="M 310.008824 30.529636 
L 310.008824 87.202364 
" clip-path="url(#pcd4e887286)" style="fill: none; stroke: #d31518; stroke-opacity: 0.5; stroke-width: 0.5"/>
    <path d="M 311.362488 30.529636 
L 311.362488 87.202364 
" clip-path="url(#pcd4e887286)" style="fill: none; stroke: #d31518; stroke-opacity: 0.5; stroke-width: 0.5"/>
    <path d="M 312.716153 30.529636 
L 312.716153 87.202364 
" clip-path="url(#pcd4e887286)" style="fill: none; stroke: #d31518; stroke-opacity: 0.5; stroke-width: 0.5"/>
    <path d="M 314.069818 30.529636 
L 314.069818 87.202364 
" clip-path="url(#pcd4e887286)" style="fill: none; stroke: #d31518; stroke-opacity: 0.5; stroke-width: 0.5"/>
    <path d="M 315.423482 30.529636 
L 315.423482 87.202364 
" clip-path="url(#pcd4e887286)" style="fill: none; stroke: #d31518; stroke-opacity: 0.5; stroke-width: 0.5"/>
    <path d="M 316.777147 30.529636 
L 316.777147 87.202364 
" clip-path="url(#pcd4e887286)" style="fill: none; stroke: #d31518; stroke-opacity: 0.5; stroke-width: 0.5"/>
    <path d="M 318.130812 30.529636 
L 318.130812 87.202364 
" clip-path="url(#pcd4e887286)" style="fill: none; stroke: #d31518; stroke-opacity: 0.5; stroke-width: 0.5"/>
    <path d="M 319.484476 30.529636 
L 319.484476 87.202364 
" clip-path="url(#pcd4e887286)" style="fill: none; stroke: #d31518; stroke-opacity: 0.5; stroke-width: 0.5"/>
    <path d="M 320.838141 30.529636 
L 320.838141 87.202364 
" clip-path="url(#pcd4e887286)" style="fill: none; stroke: #d31518; stroke-opacity: 0.5; stroke-width: 0.5"/>
    <path d="M 322.191806 30.529636 
L 322.191806 87.202364 
" clip-path="url(#pcd4e887286)" style="fill: none; stroke: #d31518; stroke-opacity: 0.5; stroke-width: 0.5"/>
    <path d="M 323.54547 30.529636 
L 323.54547 87.202364 
" clip-path="url(#pcd4e887286)" style="fill: none; stroke: #d31518; stroke-opacity: 0.5; stroke-width: 0.5"/>
    <path d="M 324.899135 30.529636 
L 324.899135 87.202364 
" clip-path="url(#pcd4e887286)" style="fill: none; stroke: #d31518; stroke-opacity: 0.5; stroke-width: 0.5"/>
    <path d="M 326.252799 30.529636 
L 326.252799 87.202364 
" clip-path="url(#pcd4e887286)" style="fill: none; stroke: #d31518; stroke-opacity: 0.5; stroke-width: 0.5"/>
    <path d="M 327.606464 30.529636 
L 327.606464 87.202364 
" clip-path="url(#pcd4e887286)" style="fill: none; stroke: #d31518; stroke-opacity: 0.5; stroke-width: 0.5"/>
    <path d="M 328.960129 30.529636 
L 328.960129 87.202364 
" clip-path="url(#pcd4e887286)" style="fill: none; stroke: #d31518; stroke-opacity: 0.5; stroke-width: 0.5"/>
    <path d="M 330.313793 30.529636 
L 330.313793 87.202364 
" clip-path="url(#pcd4e887286)" style="fill: none; stroke: #d31518; stroke-opacity: 0.5; stroke-width: 0.5"/>
    <path d="M 331.667458 30.529636 
L 331.667458 87.202364 
" clip-path="url(#pcd4e887286)" style="fill: none; stroke: #d31518; stroke-opacity: 0.5; stroke-width: 0.5"/>
    <path d="M 333.021123 30.529636 
L 333.021123 87.202364 
" clip-path="url(#pcd4e887286)" style="fill: none; stroke: #d31518; stroke-opacity: 0.5; stroke-width: 0.5"/>
    <path d="M 334.374787 30.529636 
L 334.374787 87.202364 
" clip-path="url(#pcd4e887286)" style="fill: none; stroke: #d31518; stroke-opacity: 0.5; stroke-width: 0.5"/>
    <path d="M 335.728452 30.529636 
L 335.728452 87.202364 
" clip-path="url(#pcd4e887286)" style="fill: none; stroke: #d31518; stroke-opacity: 0.5; stroke-width: 0.5"/>
    <path d="M 337.082117 30.529636 
L 337.082117 87.202364 
" clip-path="url(#pcd4e887286)" style="fill: none; stroke: #d31518; stroke-opacity: 0.5; stroke-width: 0.5"/>
    <path d="M 338.435781 30.529636 
L 338.435781 87.202364 
" clip-path="url(#pcd4e887286)" style="fill: none; stroke: #d31518; stroke-opacity: 0.5; stroke-width: 0.5"/>
    <path d="M 339.789446 30.529636 
L 339.789446 87.202364 
" clip-path="url(#pcd4e887286)" style="fill: none; stroke: #d31518; stroke-opacity: 0.5; stroke-width: 0.5"/>
    <path d="M 341.143111 30.529636 
L 341.143111 87.202364 
" clip-path="url(#pcd4e887286)" style="fill: none; stroke: #d31518; stroke-opacity: 0.5; stroke-width: 0.5"/>
    <path d="M 342.496775 30.529636 
L 342.496775 87.202364 
" clip-path="url(#pcd4e887286)" style="fill: none; stroke: #d31518; stroke-opacity: 0.5; stroke-width: 0.5"/>
    <path d="M 343.85044 30.529636 
L 343.85044 87.202364 
" clip-path="url(#pcd4e887286)" style="fill: none; stroke: #d31518; stroke-opacity: 0.5; stroke-width: 0.5"/>
    <path d="M 345.204104 30.529636 
L 345.204104 87.202364 
" clip-path="url(#pcd4e887286)" style="fill: none; stroke: #d31518; stroke-opacity: 0.5; stroke-width: 0.5"/>
    <path d="M 346.557769 30.529636 
L 346.557769 87.202364 
" clip-path="url(#pcd4e887286)" style="fill: none; stroke: #d31518; stroke-opacity: 0.5; stroke-width: 0.5"/>
    <path d="M 347.911434 30.529636 
L 347.911434 87.202364 
" clip-path="url(#pcd4e887286)" style="fill: none; stroke: #d31518; stroke-opacity: 0.5; stroke-width: 0.5"/>
    <path d="M 349.265098 30.529636 
L 349.265098 87.202364 
" clip-path="url(#pcd4e887286)" style="fill: none; stroke: #d31518; stroke-opacity: 0.5; stroke-width: 0.5"/>
    <path d="M 350.618763 30.529636 
L 350.618763 87.202364 
" clip-path="url(#pcd4e887286)" style="fill: none; stroke: #d31518; stroke-opacity: 0.5; stroke-width: 0.5"/>
    <path d="M 351.972428 30.529636 
L 351.972428 87.202364 
" clip-path="url(#pcd4e887286)" style="fill: none; stroke: #d31518; stroke-opacity: 0.5; stroke-width: 0.5"/>
    <path d="M 353.326092 30.529636 
L 353.326092 87.202364 
" clip-path="url(#pcd4e887286)" style="fill: none; stroke: #d31518; stroke-opacity: 0.5; stroke-width: 0.5"/>
    <path d="M 354.679757 30.529636 
L 354.679757 87.202364 
" clip-path="url(#pcd4e887286)" style="fill: none; stroke: #d31518; stroke-opacity: 0.5; stroke-width: 0.5"/>
    <path d="M 356.033422 30.529636 
L 356.033422 87.202364 
" clip-path="url(#pcd4e887286)" style="fill: none; stroke: #d31518; stroke-opacity: 0.5; stroke-width: 0.5"/>
    <path d="M 357.387086 30.529636 
L 357.387086 87.202364 
" clip-path="url(#pcd4e887286)" style="fill: none; stroke: #d31518; stroke-opacity: 0.5; stroke-width: 0.5"/>
    <path d="M 358.740751 30.529636 
L 358.740751 87.202364 
" clip-path="url(#pcd4e887286)" style="fill: none; stroke: #d31518; stroke-opacity: 0.5; stroke-width: 0.5"/>
    <path d="M 360.094416 30.529636 
L 360.094416 87.202364 
" clip-path="url(#pcd4e887286)" style="fill: none; stroke: #d31518; stroke-opacity: 0.5; stroke-width: 0.5"/>
    <path d="M 361.44808 30.529636 
L 361.44808 87.202364 
" clip-path="url(#pcd4e887286)" style="fill: none; stroke: #d31518; stroke-opacity: 0.5; stroke-width: 0.5"/>
    <path d="M 362.801745 30.529636 
L 362.801745 87.202364 
" clip-path="url(#pcd4e887286)" style="fill: none; stroke: #d31518; stroke-opacity: 0.5; stroke-width: 0.5"/>
    <path d="M 364.155409 30.529636 
L 364.155409 87.202364 
" clip-path="url(#pcd4e887286)" style="fill: none; stroke: #d31518; stroke-opacity: 0.5; stroke-width: 0.5"/>
   </g>
   <g id="line2d_6">
    <path d="M 192.24 90.036 
L 192.24 27.696 
" clip-path="url(#pcd4e887286)" style="fill: none; stroke-dasharray: 7.4,3.2; stroke-dashoffset: 0; stroke: #80c21d; stroke-width: 2"/>
   </g>
   <g id="patch_3">
    <path d="M 7.2 90.036 
L 7.2 27.696 
" style="fill: none; stroke: #cccccc; stroke-width: 1.25; stroke-linejoin: miter; stroke-linecap: square"/>
   </g>
   <g id="patch_4">
    <path d="M 7.2 90.036 
L 377.28 90.036 
" style="fill: none; stroke: #cccccc; stroke-width: 1.25; stroke-linejoin: miter; stroke-linecap: square"/>
   </g>
   <g id="PathCollection_1">
    <defs>
     <path id="mcc005533a5" d="M 0 1.5 
C 0.397805 1.5 0.77937 1.341951 1.06066 1.06066 
C 1.341951 0.77937 1.5 0.397805 1.5 0 
C 1.5 -0.397805 1.341951 -0.77937 1.06066 -1.06066 
C 0.77937 -1.341951 0.397805 -1.5 0 -1.5 
C -0.397805 -1.5 -0.77937 -1.341951 -1.06066 -1.06066 
C -1.341951 -0.77937 -1.5 -0.397805 -1.5 0 
C -1.5 0.397805 -1.341951 0.77937 -1.06066 1.06066 
C -0.77937 1.341951 -0.397805 1.5 0 1.5 
z
"/>
    </defs>
    <g clip-path="url(#pcd4e887286)">
     <use xlink:href="#mcc005533a5" x="224.835849" y="57.929891" style="fill: #6ba5d7; fill-opacity: 0.4"/>
     <use xlink:href="#mcc005533a5" x="183.166688" y="55.716218" style="fill: #6ba5d7; fill-opacity: 0.4"/>
     <use xlink:href="#mcc005533a5" x="234.743234" y="54.557347" style="fill: #6ba5d7; fill-opacity: 0.4"/>
     <use xlink:href="#mcc005533a5" x="292.185716" y="57.025442" style="fill: #6ba5d7; fill-opacity: 0.4"/>
     <use xlink:href="#mcc005533a5" x="176.874164" y="63.88618" style="fill: #6ba5d7; fill-opacity: 0.4"/>
     <use xlink:href="#mcc005533a5" x="176.875242" y="56.862086" style="fill: #6ba5d7; fill-opacity: 0.4"/>
     <use xlink:href="#mcc005533a5" x="295.872608" y="59.078983" style="fill: #6ba5d7; fill-opacity: 0.4"/>
     <use xlink:href="#mcc005533a5" x="242.601333" y="61.167128" style="fill: #6ba5d7; fill-opacity: 0.4"/>
     <use xlink:href="#mcc005533a5" x="161.431705" y="57.320304" style="fill: #6ba5d7; fill-opacity: 0.4"/>
     <use xlink:href="#mcc005533a5" x="227.844392" y="64.213435" style="fill: #6ba5d7; fill-opacity: 0.4"/>
     <use xlink:href="#mcc005533a5" x="161.829163" y="64.10763" style="fill: #6ba5d7; fill-opacity: 0.4"/>
     <use xlink:href="#mcc005533a5" x="161.677438" y="56.052565" style="fill: #6ba5d7; fill-opacity: 0.4"/>
     <use xlink:href="#mcc005533a5" x="208.118279" y="58.834813" style="fill: #6ba5d7; fill-opacity: 0.4"/>
     <use xlink:href="#mcc005533a5" x="66.684901" y="56.609046" style="fill: #6ba5d7; fill-opacity: 0.4"/>
     <use xlink:href="#mcc005533a5" x="79.045798" y="56.427265" style="fill: #6ba5d7; fill-opacity: 0.4"/>
     <use xlink:href="#mcc005533a5" x="155.341032" y="53.616824" style="fill: #6ba5d7; fill-opacity: 0.4"/>
     <use xlink:href="#mcc005533a5" x="125.775031" y="60.107862" style="fill: #6ba5d7; fill-opacity: 0.4"/>
     <use xlink:href="#mcc005533a5" x="212.861838" y="58.896366" style="fill: #6ba5d7; fill-opacity: 0.4"/>
     <use xlink:href="#mcc005533a5" x="132.652779" y="53.782216" style="fill: #6ba5d7; fill-opacity: 0.4"/>
     <use xlink:href="#mcc005533a5" x="99.560461" y="56.357058" style="fill: #6ba5d7; fill-opacity: 0.4"/>
     <use xlink:href="#mcc005533a5" x="288.4202" y="63.493508" style="fill: #6ba5d7; fill-opacity: 0.4"/>
     <use xlink:href="#mcc005533a5" x="177.423892" y="55.914052" style="fill: #6ba5d7; fill-opacity: 0.4"/>
     <use xlink:href="#mcc005533a5" x="196.6714" y="54.841045" style="fill: #6ba5d7; fill-opacity: 0.4"/>
     <use xlink:href="#mcc005533a5" x="98.743817" y="58.746452" style="fill: #6ba5d7; fill-opacity: 0.4"/>
     <use xlink:href="#mcc005533a5" x="156.515998" y="64.370627" style="fill: #6ba5d7; fill-opacity: 0.4"/>
     <use xlink:href="#mcc005533a5" x="199.519068" y="55.942314" style="fill: #6ba5d7; fill-opacity: 0.4"/>
     <use xlink:href="#mcc005533a5" x="116.708403" y="60.817078" style="fill: #6ba5d7; fill-opacity: 0.4"/>
     <use xlink:href="#mcc005533a5" x="216.894413" y="61.831339" style="fill: #6ba5d7; fill-opacity: 0.4"/>
     <use xlink:href="#mcc005533a5" x="152.824316" y="55.892241" style="fill: #6ba5d7; fill-opacity: 0.4"/>
     <use xlink:href="#mcc005533a5" x="173.098195" y="61.452729" style="fill: #6ba5d7; fill-opacity: 0.4"/>
     <use xlink:href="#mcc005533a5" x="152.754235" y="57.367382" style="fill: #6ba5d7; fill-opacity: 0.4"/>
     <use xlink:href="#mcc005533a5" x="313.791964" y="60.365626" style="fill: #6ba5d7; fill-opacity: 0.4"/>
     <use xlink:href="#mcc005533a5" x="191.354272" y="60.379499" style="fill: #6ba5d7; fill-opacity: 0.4"/>
     <use xlink:href="#mcc005533a5" x="122.829886" y="59.27149" style="fill: #6ba5d7; fill-opacity: 0.4"/>
     <use xlink:href="#mcc005533a5" x="246.217826" y="54.222121" style="fill: #6ba5d7; fill-opacity: 0.4"/>
     <use xlink:href="#mcc005533a5" x="112.124635" y="62.666501" style="fill: #6ba5d7; fill-opacity: 0.4"/>
     <use xlink:href="#mcc005533a5" x="205.946246" y="56.834624" style="fill: #6ba5d7; fill-opacity: 0.4"/>
     <use xlink:href="#mcc005533a5" x="63.64066" y="55.31283" style="fill: #6ba5d7; fill-opacity: 0.4"/>
     <use xlink:href="#mcc005533a5" x="105.08051" y="53.660895" style="fill: #6ba5d7; fill-opacity: 0.4"/>
     <use xlink:href="#mcc005533a5" x="205.158616" y="59.89623" style="fill: #6ba5d7; fill-opacity: 0.4"/>
     <use xlink:href="#mcc005533a5" x="240.700358" y="60.878611" style="fill: #6ba5d7; fill-opacity: 0.4"/>
     <use xlink:href="#mcc005533a5" x="203.485693" y="53.386743" style="fill: #6ba5d7; fill-opacity: 0.4"/>
     <use xlink:href="#mcc005533a5" x="184.650818" y="59.003069" style="fill: #6ba5d7; fill-opacity: 0.4"/>
     <use xlink:href="#mcc005533a5" x="172.480686" y="55.765954" style="fill: #6ba5d7; fill-opacity: 0.4"/>
     <use xlink:href="#mcc005533a5" x="95.215021" y="60.511468" style="fill: #6ba5d7; fill-opacity: 0.4"/>
     <use xlink:href="#mcc005533a5" x="145.001697" y="55.175091" style="fill: #6ba5d7; fill-opacity: 0.4"/>
     <use xlink:href="#mcc005533a5" x="162.011524" y="61.030192" style="fill: #6ba5d7; fill-opacity: 0.4"/>
     <use xlink:href="#mcc005533a5" x="261.611482" y="57.582197" style="fill: #6ba5d7; fill-opacity: 0.4"/>
     <use xlink:href="#mcc005533a5" x="214.789247" y="63.816136" style="fill: #6ba5d7; fill-opacity: 0.4"/>
     <use xlink:href="#mcc005533a5" x="76.544099" y="54.757465" style="fill: #6ba5d7; fill-opacity: 0.4"/>
     <use xlink:href="#mcc005533a5" x="213.507347" y="57.064559" style="fill: #6ba5d7; fill-opacity: 0.4"/>
     <use xlink:href="#mcc005533a5" x="166.969764" y="54.484898" style="fill: #6ba5d7; fill-opacity: 0.4"/>
     <use xlink:href="#mcc005533a5" x="147.818379" y="63.679709" style="fill: #6ba5d7; fill-opacity: 0.4"/>
     <use xlink:href="#mcc005533a5" x="232.380004" y="63.14297" style="fill: #6ba5d7; fill-opacity: 0.4"/>
     <use xlink:href="#mcc005533a5" x="259.897233" y="56.122378" style="fill: #6ba5d7; fill-opacity: 0.4"/>
     <use xlink:href="#mcc005533a5" x="253.353351" y="60.679346" style="fill: #6ba5d7; fill-opacity: 0.4"/>
     <use xlink:href="#mcc005533a5" x="137.168068" y="62.461569" style="fill: #6ba5d7; fill-opacity: 0.4"/>
     <use xlink:href="#mcc005533a5" x="171.948571" y="59.491676" style="fill: #6ba5d7; fill-opacity: 0.4"/>
     <use xlink:href="#mcc005533a5" x="213.978485" y="59.202076" style="fill: #6ba5d7; fill-opacity: 0.4"/>
     <use xlink:href="#mcc005533a5" x="256.258152" y="55.940013" style="fill: #6ba5d7; fill-opacity: 0.4"/>
     <use xlink:href="#mcc005533a5" x="160.795172" y="54.254005" style="fill: #6ba5d7; fill-opacity: 0.4"/>
     <use xlink:href="#mcc005533a5" x="180.05651" y="63.36826" style="fill: #6ba5d7; fill-opacity: 0.4"/>
     <use xlink:href="#mcc005533a5" x="119.639032" y="63.404557" style="fill: #6ba5d7; fill-opacity: 0.4"/>
     <use xlink:href="#mcc005533a5" x="113.741389" y="60.374645" style="fill: #6ba5d7; fill-opacity: 0.4"/>
     <use xlink:href="#mcc005533a5" x="245.560344" y="57.041476" style="fill: #6ba5d7; fill-opacity: 0.4"/>
     <use xlink:href="#mcc005533a5" x="281.240475" y="57.156859" style="fill: #6ba5d7; fill-opacity: 0.4"/>
     <use xlink:href="#mcc005533a5" x="187.514483" y="61.427105" style="fill: #6ba5d7; fill-opacity: 0.4"/>
     <use xlink:href="#mcc005533a5" x="258.094792" y="63.367064" style="fill: #6ba5d7; fill-opacity: 0.4"/>
     <use xlink:href="#mcc005533a5" x="215.971624" y="63.253449" style="fill: #6ba5d7; fill-opacity: 0.4"/>
     <use xlink:href="#mcc005533a5" x="149.905337" y="62.038262" style="fill: #6ba5d7; fill-opacity: 0.4"/>
     <use xlink:href="#mcc005533a5" x="215.955847" y="60.475864" style="fill: #6ba5d7; fill-opacity: 0.4"/>
     <use xlink:href="#mcc005533a5" x="293.170501" y="54.152416" style="fill: #6ba5d7; fill-opacity: 0.4"/>
     <use xlink:href="#mcc005533a5" x="189.88899" y="55.030715" style="fill: #6ba5d7; fill-opacity: 0.4"/>
     <use xlink:href="#mcc005533a5" x="294.916537" y="63.383431" style="fill: #6ba5d7; fill-opacity: 0.4"/>
     <use xlink:href="#mcc005533a5" x="20.324591" y="60.072325" style="fill: #6ba5d7; fill-opacity: 0.4"/>
     <use xlink:href="#mcc005533a5" x="246.175669" y="53.302972" style="fill: #6ba5d7; fill-opacity: 0.4"/>
     <use xlink:href="#mcc005533a5" x="197.952286" y="54.348861" style="fill: #6ba5d7; fill-opacity: 0.4"/>
     <use xlink:href="#mcc005533a5" x="172.618255" y="60.719218" style="fill: #6ba5d7; fill-opacity: 0.4"/>
     <use xlink:href="#mcc005533a5" x="198.261613" y="53.256098" style="fill: #6ba5d7; fill-opacity: 0.4"/>
     <use xlink:href="#mcc005533a5" x="61.809859" y="55.021413" style="fill: #6ba5d7; fill-opacity: 0.4"/>
     <use xlink:href="#mcc005533a5" x="177.824482" y="59.418375" style="fill: #6ba5d7; fill-opacity: 0.4"/>
     <use xlink:href="#mcc005533a5" x="215.674781" y="61.041045" style="fill: #6ba5d7; fill-opacity: 0.4"/>
     <use xlink:href="#mcc005533a5" x="289.223771" y="60.588412" style="fill: #6ba5d7; fill-opacity: 0.4"/>
     <use xlink:href="#mcc005533a5" x="158.229578" y="55.740718" style="fill: #6ba5d7; fill-opacity: 0.4"/>
     <use xlink:href="#mcc005533a5" x="139.184262" y="61.270955" style="fill: #6ba5d7; fill-opacity: 0.4"/>
     <use xlink:href="#mcc005533a5" x="159.313221" y="55.887838" style="fill: #6ba5d7; fill-opacity: 0.4"/>
     <use xlink:href="#mcc005533a5" x="252.31139" y="56.886985" style="fill: #6ba5d7; fill-opacity: 0.4"/>
     <use xlink:href="#mcc005533a5" x="213.813619" y="61.659868" style="fill: #6ba5d7; fill-opacity: 0.4"/>
     <use xlink:href="#mcc005533a5" x="157.475571" y="60.562021" style="fill: #6ba5d7; fill-opacity: 0.4"/>
     <use xlink:href="#mcc005533a5" x="225.922125" y="62.824289" style="fill: #6ba5d7; fill-opacity: 0.4"/>
     <use xlink:href="#mcc005533a5" x="198.610515" y="60.65247" style="fill: #6ba5d7; fill-opacity: 0.4"/>
     <use xlink:href="#mcc005533a5" x="255.805345" y="59.640247" style="fill: #6ba5d7; fill-opacity: 0.4"/>
     <use xlink:href="#mcc005533a5" x="146.169203" y="54.260488" style="fill: #6ba5d7; fill-opacity: 0.4"/>
     <use xlink:href="#mcc005533a5" x="170.737842" y="57.366619" style="fill: #6ba5d7; fill-opacity: 0.4"/>
     <use xlink:href="#mcc005533a5" x="166.508705" y="56.204676" style="fill: #6ba5d7; fill-opacity: 0.4"/>
     <use xlink:href="#mcc005533a5" x="96.199828" y="55.964239" style="fill: #6ba5d7; fill-opacity: 0.4"/>
     <use xlink:href="#mcc005533a5" x="211.672287" y="64.22736" style="fill: #6ba5d7; fill-opacity: 0.4"/>
     <use xlink:href="#mcc005533a5" x="209.371218" y="57.654311" style="fill: #6ba5d7; fill-opacity: 0.4"/>
     <use xlink:href="#mcc005533a5" x="192.57556" y="63.309669" style="fill: #6ba5d7; fill-opacity: 0.4"/>
     <use xlink:href="#mcc005533a5" x="176.8457" y="60.352397" style="fill: #6ba5d7; fill-opacity: 0.4"/>
    </g>
   </g>
   <g id="text_7">
    <!-- Weight Quantization (Symmetric) -->
    <g style="fill: #262626" transform="translate(129.420625 13.02375) scale(0.08 -0.08)">
     <defs>
      <path id="Arial-BoldMT-57" d="M 1116 0 
L 22 4581 
L 969 4581 
L 1659 1434 
L 2497 4581 
L 3597 4581 
L 4400 1381 
L 5103 4581 
L 6034 4581 
L 4922 0 
L 3941 0 
L 3028 3425 
L 2119 0 
L 1116 0 
z
" transform="scale(0.015625)"/>
      <path id="Arial-BoldMT-65" d="M 2381 1056 
L 3256 909 
Q 3088 428 2723 176 
Q 2359 -75 1813 -75 
Q 947 -75 531 491 
Q 203 944 203 1634 
Q 203 2459 634 2926 
Q 1066 3394 1725 3394 
Q 2466 3394 2894 2905 
Q 3322 2416 3303 1406 
L 1103 1406 
Q 1113 1016 1316 798 
Q 1519 581 1822 581 
Q 2028 581 2168 693 
Q 2309 806 2381 1056 
z
M 2431 1944 
Q 2422 2325 2234 2523 
Q 2047 2722 1778 2722 
Q 1491 2722 1303 2513 
Q 1116 2303 1119 1944 
L 2431 1944 
z
" transform="scale(0.015625)"/>
      <path id="Arial-BoldMT-69" d="M 459 3769 
L 459 4581 
L 1338 4581 
L 1338 3769 
L 459 3769 
z
M 459 0 
L 459 3319 
L 1338 3319 
L 1338 0 
L 459 0 
z
" transform="scale(0.015625)"/>
      <path id="Arial-BoldMT-67" d="M 378 -219 
L 1381 -341 
Q 1406 -516 1497 -581 
Q 1622 -675 1891 -675 
Q 2234 -675 2406 -572 
Q 2522 -503 2581 -350 
Q 2622 -241 2622 53 
L 2622 538 
Q 2228 0 1628 0 
Q 959 0 569 566 
Q 263 1013 263 1678 
Q 263 2513 664 2953 
Q 1066 3394 1663 3394 
Q 2278 3394 2678 2853 
L 2678 3319 
L 3500 3319 
L 3500 341 
Q 3500 -247 3403 -537 
Q 3306 -828 3131 -993 
Q 2956 -1159 2664 -1253 
Q 2372 -1347 1925 -1347 
Q 1081 -1347 728 -1058 
Q 375 -769 375 -325 
Q 375 -281 378 -219 
z
M 1163 1728 
Q 1163 1200 1367 954 
Q 1572 709 1872 709 
Q 2194 709 2416 961 
Q 2638 1213 2638 1706 
Q 2638 2222 2425 2472 
Q 2213 2722 1888 2722 
Q 1572 2722 1367 2476 
Q 1163 2231 1163 1728 
z
" transform="scale(0.015625)"/>
      <path id="Arial-BoldMT-68" d="M 1334 4581 
L 1334 2897 
Q 1759 3394 2350 3394 
Q 2653 3394 2897 3281 
Q 3141 3169 3264 2994 
Q 3388 2819 3433 2606 
Q 3478 2394 3478 1947 
L 3478 0 
L 2600 0 
L 2600 1753 
Q 2600 2275 2550 2415 
Q 2500 2556 2373 2639 
Q 2247 2722 2056 2722 
Q 1838 2722 1666 2615 
Q 1494 2509 1414 2295 
Q 1334 2081 1334 1663 
L 1334 0 
L 456 0 
L 456 4581 
L 1334 4581 
z
" transform="scale(0.015625)"/>
      <path id="Arial-BoldMT-74" d="M 1981 3319 
L 1981 2619 
L 1381 2619 
L 1381 1281 
Q 1381 875 1398 808 
Q 1416 741 1477 697 
Q 1538 653 1625 653 
Q 1747 653 1978 738 
L 2053 56 
Q 1747 -75 1359 -75 
Q 1122 -75 931 4 
Q 741 84 652 211 
Q 563 338 528 553 
Q 500 706 500 1172 
L 500 2619 
L 97 2619 
L 97 3319 
L 500 3319 
L 500 3978 
L 1381 4491 
L 1381 3319 
L 1981 3319 
z
" transform="scale(0.015625)"/>
      <path id="Arial-BoldMT-20" transform="scale(0.015625)"/>
      <path id="Arial-BoldMT-51" d="M 4153 581 
Q 4494 338 4894 194 
L 4553 -459 
Q 4344 -397 4144 -288 
Q 4100 -266 3528 119 
Q 3078 -78 2531 -78 
Q 1475 -78 876 544 
Q 278 1166 278 2291 
Q 278 3413 878 4036 
Q 1478 4659 2506 4659 
Q 3525 4659 4122 4036 
Q 4719 3413 4719 2291 
Q 4719 1697 4553 1247 
Q 4428 903 4153 581 
z
M 3409 1103 
Q 3588 1313 3677 1609 
Q 3766 1906 3766 2291 
Q 3766 3084 3416 3476 
Q 3066 3869 2500 3869 
Q 1934 3869 1582 3475 
Q 1231 3081 1231 2291 
Q 1231 1488 1582 1089 
Q 1934 691 2472 691 
Q 2672 691 2850 756 
Q 2569 941 2278 1044 
L 2538 1572 
Q 2994 1416 3409 1103 
z
" transform="scale(0.015625)"/>
      <path id="Arial-BoldMT-75" d="M 2644 0 
L 2644 497 
Q 2463 231 2167 78 
Q 1872 -75 1544 -75 
Q 1209 -75 943 72 
Q 678 219 559 484 
Q 441 750 441 1219 
L 441 3319 
L 1319 3319 
L 1319 1794 
Q 1319 1094 1367 936 
Q 1416 778 1544 686 
Q 1672 594 1869 594 
Q 2094 594 2272 717 
Q 2450 841 2515 1023 
Q 2581 1206 2581 1919 
L 2581 3319 
L 3459 3319 
L 3459 0 
L 2644 0 
z
" transform="scale(0.015625)"/>
      <path id="Arial-BoldMT-61" d="M 1116 2306 
L 319 2450 
Q 453 2931 781 3162 
Q 1109 3394 1756 3394 
Q 2344 3394 2631 3255 
Q 2919 3116 3036 2902 
Q 3153 2688 3153 2116 
L 3144 1091 
Q 3144 653 3186 445 
Q 3228 238 3344 0 
L 2475 0 
Q 2441 88 2391 259 
Q 2369 338 2359 363 
Q 2134 144 1878 34 
Q 1622 -75 1331 -75 
Q 819 -75 523 203 
Q 228 481 228 906 
Q 228 1188 362 1408 
Q 497 1628 739 1745 
Q 981 1863 1438 1950 
Q 2053 2066 2291 2166 
L 2291 2253 
Q 2291 2506 2166 2614 
Q 2041 2722 1694 2722 
Q 1459 2722 1328 2630 
Q 1197 2538 1116 2306 
z
M 2291 1594 
Q 2122 1538 1756 1459 
Q 1391 1381 1278 1306 
Q 1106 1184 1106 997 
Q 1106 813 1243 678 
Q 1381 544 1594 544 
Q 1831 544 2047 700 
Q 2206 819 2256 991 
Q 2291 1103 2291 1419 
L 2291 1594 
z
" transform="scale(0.015625)"/>
      <path id="Arial-BoldMT-6e" d="M 3478 0 
L 2600 0 
L 2600 1694 
Q 2600 2231 2544 2389 
Q 2488 2547 2361 2634 
Q 2234 2722 2056 2722 
Q 1828 2722 1647 2597 
Q 1466 2472 1398 2265 
Q 1331 2059 1331 1503 
L 1331 0 
L 453 0 
L 453 3319 
L 1269 3319 
L 1269 2831 
Q 1703 3394 2363 3394 
Q 2653 3394 2893 3289 
Q 3134 3184 3257 3021 
Q 3381 2859 3429 2653 
Q 3478 2447 3478 2063 
L 3478 0 
z
" transform="scale(0.015625)"/>
      <path id="Arial-BoldMT-7a" d="M 106 0 
L 106 684 
L 1350 2113 
Q 1656 2463 1803 2609 
Q 1650 2600 1400 2597 
L 228 2591 
L 228 3319 
L 2972 3319 
L 2972 2697 
L 1703 1234 
L 1256 750 
Q 1622 772 1709 772 
L 3069 772 
L 3069 0 
L 106 0 
z
" transform="scale(0.015625)"/>
      <path id="Arial-BoldMT-6f" d="M 256 1706 
Q 256 2144 472 2553 
Q 688 2963 1083 3178 
Q 1478 3394 1966 3394 
Q 2719 3394 3200 2905 
Q 3681 2416 3681 1669 
Q 3681 916 3195 420 
Q 2709 -75 1972 -75 
Q 1516 -75 1102 131 
Q 688 338 472 736 
Q 256 1134 256 1706 
z
M 1156 1659 
Q 1156 1166 1390 903 
Q 1625 641 1969 641 
Q 2313 641 2545 903 
Q 2778 1166 2778 1666 
Q 2778 2153 2545 2415 
Q 2313 2678 1969 2678 
Q 1625 2678 1390 2415 
Q 1156 2153 1156 1659 
z
" transform="scale(0.015625)"/>
      <path id="Arial-BoldMT-28" d="M 1916 -1347 
L 1313 -1347 
Q 834 -625 584 153 
Q 334 931 334 1659 
Q 334 2563 644 3369 
Q 913 4069 1325 4659 
L 1925 4659 
Q 1497 3713 1336 3048 
Q 1175 2384 1175 1641 
Q 1175 1128 1270 590 
Q 1366 53 1531 -431 
Q 1641 -750 1916 -1347 
z
" transform="scale(0.015625)"/>
      <path id="Arial-BoldMT-53" d="M 231 1491 
L 1131 1578 
Q 1213 1125 1461 912 
Q 1709 700 2131 700 
Q 2578 700 2804 889 
Q 3031 1078 3031 1331 
Q 3031 1494 2936 1608 
Q 2841 1722 2603 1806 
Q 2441 1863 1863 2006 
Q 1119 2191 819 2459 
Q 397 2838 397 3381 
Q 397 3731 595 4036 
Q 794 4341 1167 4500 
Q 1541 4659 2069 4659 
Q 2931 4659 3367 4281 
Q 3803 3903 3825 3272 
L 2900 3231 
Q 2841 3584 2645 3739 
Q 2450 3894 2059 3894 
Q 1656 3894 1428 3728 
Q 1281 3622 1281 3444 
Q 1281 3281 1419 3166 
Q 1594 3019 2269 2859 
Q 2944 2700 3267 2529 
Q 3591 2359 3773 2064 
Q 3956 1769 3956 1334 
Q 3956 941 3737 597 
Q 3519 253 3119 86 
Q 2719 -81 2122 -81 
Q 1253 -81 787 320 
Q 322 722 231 1491 
z
" transform="scale(0.015625)"/>
      <path id="Arial-BoldMT-79" d="M 44 3319 
L 978 3319 
L 1772 963 
L 2547 3319 
L 3456 3319 
L 2284 125 
L 2075 -453 
Q 1959 -744 1854 -897 
Q 1750 -1050 1614 -1145 
Q 1478 -1241 1279 -1294 
Q 1081 -1347 831 -1347 
Q 578 -1347 334 -1294 
L 256 -606 
Q 463 -647 628 -647 
Q 934 -647 1081 -467 
Q 1228 -288 1306 -9 
L 44 3319 
z
" transform="scale(0.015625)"/>
      <path id="Arial-BoldMT-6d" d="M 394 3319 
L 1203 3319 
L 1203 2866 
Q 1638 3394 2238 3394 
Q 2556 3394 2790 3262 
Q 3025 3131 3175 2866 
Q 3394 3131 3647 3262 
Q 3900 3394 4188 3394 
Q 4553 3394 4806 3245 
Q 5059 3097 5184 2809 
Q 5275 2597 5275 2122 
L 5275 0 
L 4397 0 
L 4397 1897 
Q 4397 2391 4306 2534 
Q 4184 2722 3931 2722 
Q 3747 2722 3584 2609 
Q 3422 2497 3350 2280 
Q 3278 2063 3278 1594 
L 3278 0 
L 2400 0 
L 2400 1819 
Q 2400 2303 2353 2443 
Q 2306 2584 2207 2653 
Q 2109 2722 1941 2722 
Q 1738 2722 1575 2612 
Q 1413 2503 1342 2297 
Q 1272 2091 1272 1613 
L 1272 0 
L 394 0 
L 394 3319 
z
" transform="scale(0.015625)"/>
      <path id="Arial-BoldMT-72" d="M 1300 0 
L 422 0 
L 422 3319 
L 1238 3319 
L 1238 2847 
Q 1447 3181 1614 3287 
Q 1781 3394 1994 3394 
Q 2294 3394 2572 3228 
L 2300 2463 
Q 2078 2606 1888 2606 
Q 1703 2606 1575 2504 
Q 1447 2403 1373 2137 
Q 1300 1872 1300 1025 
L 1300 0 
z
" transform="scale(0.015625)"/>
      <path id="Arial-BoldMT-63" d="M 3353 2338 
L 2488 2181 
Q 2444 2441 2289 2572 
Q 2134 2703 1888 2703 
Q 1559 2703 1364 2476 
Q 1169 2250 1169 1719 
Q 1169 1128 1367 884 
Q 1566 641 1900 641 
Q 2150 641 2309 783 
Q 2469 925 2534 1272 
L 3397 1125 
Q 3263 531 2881 228 
Q 2500 -75 1859 -75 
Q 1131 -75 698 384 
Q 266 844 266 1656 
Q 266 2478 700 2936 
Q 1134 3394 1875 3394 
Q 2481 3394 2839 3133 
Q 3197 2872 3353 2338 
z
" transform="scale(0.015625)"/>
      <path id="Arial-BoldMT-29" d="M 216 -1347 
Q 475 -791 581 -494 
Q 688 -197 778 190 
Q 869 578 912 926 
Q 956 1275 956 1641 
Q 956 2384 797 3048 
Q 638 3713 209 4659 
L 806 4659 
Q 1278 3988 1539 3234 
Q 1800 2481 1800 1706 
Q 1800 1053 1594 306 
Q 1359 -531 822 -1347 
L 216 -1347 
z
" transform="scale(0.015625)"/>
     </defs>
     <use xlink:href="#Arial-BoldMT-57"/>
     <use xlink:href="#Arial-BoldMT-65" transform="translate(92.634766 0)"/>
     <use xlink:href="#Arial-BoldMT-69" transform="translate(148.25 0)"/>
     <use xlink:href="#Arial-BoldMT-67" transform="translate(176.033203 0)"/>
     <use xlink:href="#Arial-BoldMT-68" transform="translate(237.117188 0)"/>
     <use xlink:href="#Arial-BoldMT-74" transform="translate(298.201172 0)"/>
     <use xlink:href="#Arial-BoldMT-20" transform="translate(331.501953 0)"/>
     <use xlink:href="#Arial-BoldMT-51" transform="translate(359.285156 0)"/>
     <use xlink:href="#Arial-BoldMT-75" transform="translate(437.068359 0)"/>
     <use xlink:href="#Arial-BoldMT-61" transform="translate(498.152344 0)"/>
     <use xlink:href="#Arial-BoldMT-6e" transform="translate(553.767578 0)"/>
     <use xlink:href="#Arial-BoldMT-74" transform="translate(614.851562 0)"/>
     <use xlink:href="#Arial-BoldMT-69" transform="translate(648.152344 0)"/>
     <use xlink:href="#Arial-BoldMT-7a" transform="translate(675.935547 0)"/>
     <use xlink:href="#Arial-BoldMT-61" transform="translate(725.935547 0)"/>
     <use xlink:href="#Arial-BoldMT-74" transform="translate(781.550781 0)"/>
     <use xlink:href="#Arial-BoldMT-69" transform="translate(814.851562 0)"/>
     <use xlink:href="#Arial-BoldMT-6f" transform="translate(842.634766 0)"/>
     <use xlink:href="#Arial-BoldMT-6e" transform="translate(903.71875 0)"/>
     <use xlink:href="#Arial-BoldMT-20" transform="translate(964.802734 0)"/>
     <use xlink:href="#Arial-BoldMT-28" transform="translate(992.585938 0)"/>
     <use xlink:href="#Arial-BoldMT-53" transform="translate(1025.886719 0)"/>
     <use xlink:href="#Arial-BoldMT-79" transform="translate(1092.585938 0)"/>
     <use xlink:href="#Arial-BoldMT-6d" transform="translate(1148.201172 0)"/>
     <use xlink:href="#Arial-BoldMT-6d" transform="translate(1237.117188 0)"/>
     <use xlink:href="#Arial-BoldMT-65" transform="translate(1326.033203 0)"/>
     <use xlink:href="#Arial-BoldMT-74" transform="translate(1381.648438 0)"/>
     <use xlink:href="#Arial-BoldMT-72" transform="translate(1414.949219 0)"/>
     <use xlink:href="#Arial-BoldMT-69" transform="translate(1453.865234 0)"/>
     <use xlink:href="#Arial-BoldMT-63" transform="translate(1481.648438 0)"/>
     <use xlink:href="#Arial-BoldMT-29" transform="translate(1537.263672 0)"/>
    </g>
    <!-- Scale: 0.010314 | Zero-Point: 0 | Range: [-127, 127] -->
    <g style="fill: #262626" transform="translate(97.083125 21.696) scale(0.08 -0.08)">
     <defs>
      <path id="Arial-BoldMT-6c" d="M 459 0 
L 459 4581 
L 1338 4581 
L 1338 0 
L 459 0 
z
" transform="scale(0.015625)"/>
      <path id="Arial-BoldMT-3a" d="M 628 2441 
L 628 3319 
L 1506 3319 
L 1506 2441 
L 628 2441 
z
M 628 0 
L 628 878 
L 1506 878 
L 1506 0 
L 628 0 
z
" transform="scale(0.015625)"/>
      <path id="Arial-BoldMT-30" d="M 1756 4600 
Q 2422 4600 2797 4125 
Q 3244 3563 3244 2259 
Q 3244 959 2794 391 
Q 2422 -78 1756 -78 
Q 1088 -78 678 436 
Q 269 950 269 2269 
Q 269 3563 719 4131 
Q 1091 4600 1756 4600 
z
M 1756 3872 
Q 1597 3872 1472 3770 
Q 1347 3669 1278 3406 
Q 1188 3066 1188 2259 
Q 1188 1453 1269 1151 
Q 1350 850 1473 750 
Q 1597 650 1756 650 
Q 1916 650 2041 751 
Q 2166 853 2234 1116 
Q 2325 1453 2325 2259 
Q 2325 3066 2244 3367 
Q 2163 3669 2039 3770 
Q 1916 3872 1756 3872 
z
" transform="scale(0.015625)"/>
      <path id="Arial-BoldMT-2e" d="M 459 0 
L 459 878 
L 1338 878 
L 1338 0 
L 459 0 
z
" transform="scale(0.015625)"/>
      <path id="Arial-BoldMT-31" d="M 2519 0 
L 1641 0 
L 1641 3309 
Q 1159 2859 506 2644 
L 506 3441 
Q 850 3553 1253 3867 
Q 1656 4181 1806 4600 
L 2519 4600 
L 2519 0 
z
" transform="scale(0.015625)"/>
      <path id="Arial-BoldMT-33" d="M 241 1216 
L 1091 1319 
Q 1131 994 1309 822 
Q 1488 650 1741 650 
Q 2013 650 2198 856 
Q 2384 1063 2384 1413 
Q 2384 1744 2206 1937 
Q 2028 2131 1772 2131 
Q 1603 2131 1369 2066 
L 1466 2781 
Q 1822 2772 2009 2936 
Q 2197 3100 2197 3372 
Q 2197 3603 2059 3740 
Q 1922 3878 1694 3878 
Q 1469 3878 1309 3722 
Q 1150 3566 1116 3266 
L 306 3403 
Q 391 3819 561 4067 
Q 731 4316 1036 4458 
Q 1341 4600 1719 4600 
Q 2366 4600 2756 4188 
Q 3078 3850 3078 3425 
Q 3078 2822 2419 2463 
Q 2813 2378 3048 2084 
Q 3284 1791 3284 1375 
Q 3284 772 2843 347 
Q 2403 -78 1747 -78 
Q 1125 -78 715 280 
Q 306 638 241 1216 
z
" transform="scale(0.015625)"/>
      <path id="Arial-BoldMT-34" d="M 1994 0 
L 1994 922 
L 119 922 
L 119 1691 
L 2106 4600 
L 2844 4600 
L 2844 1694 
L 3413 1694 
L 3413 922 
L 2844 922 
L 2844 0 
L 1994 0 
z
M 1994 1694 
L 1994 3259 
L 941 1694 
L 1994 1694 
z
" transform="scale(0.015625)"/>
      <path id="Arial-BoldMT-7c" d="M 550 -1347 
L 550 4659 
L 1247 4659 
L 1247 -1347 
L 550 -1347 
z
" transform="scale(0.015625)"/>
      <path id="Arial-BoldMT-5a" d="M 69 0 
L 69 834 
L 2475 3806 
L 341 3806 
L 341 4581 
L 3694 4581 
L 3694 3863 
L 1184 772 
L 3791 772 
L 3791 0 
L 69 0 
z
" transform="scale(0.015625)"/>
      <path id="Arial-BoldMT-2d" d="M 359 1222 
L 359 2100 
L 2084 2100 
L 2084 1222 
L 359 1222 
z
" transform="scale(0.015625)"/>
      <path id="Arial-BoldMT-50" d="M 466 0 
L 466 4581 
L 1950 4581 
Q 2794 4581 3050 4513 
Q 3444 4409 3709 4064 
Q 3975 3719 3975 3172 
Q 3975 2750 3822 2462 
Q 3669 2175 3433 2011 
Q 3197 1847 2953 1794 
Q 2622 1728 1994 1728 
L 1391 1728 
L 1391 0 
L 466 0 
z
M 1391 3806 
L 1391 2506 
L 1897 2506 
Q 2444 2506 2628 2578 
Q 2813 2650 2917 2803 
Q 3022 2956 3022 3159 
Q 3022 3409 2875 3571 
Q 2728 3734 2503 3775 
Q 2338 3806 1838 3806 
L 1391 3806 
z
" transform="scale(0.015625)"/>
      <path id="Arial-BoldMT-52" d="M 469 0 
L 469 4581 
L 2416 4581 
Q 3150 4581 3483 4457 
Q 3816 4334 4016 4018 
Q 4216 3703 4216 3297 
Q 4216 2781 3912 2445 
Q 3609 2109 3006 2022 
Q 3306 1847 3501 1637 
Q 3697 1428 4028 894 
L 4588 0 
L 3481 0 
L 2813 997 
Q 2456 1531 2325 1670 
Q 2194 1809 2047 1861 
Q 1900 1913 1581 1913 
L 1394 1913 
L 1394 0 
L 469 0 
z
M 1394 2644 
L 2078 2644 
Q 2744 2644 2909 2700 
Q 3075 2756 3169 2893 
Q 3263 3031 3263 3238 
Q 3263 3469 3139 3611 
Q 3016 3753 2791 3791 
Q 2678 3806 2116 3806 
L 1394 3806 
L 1394 2644 
z
" transform="scale(0.015625)"/>
      <path id="Arial-BoldMT-5b" d="M 456 -1291 
L 456 4581 
L 2013 4581 
L 2013 3891 
L 1291 3891 
L 1291 -600 
L 2013 -600 
L 2013 -1291 
L 456 -1291 
z
" transform="scale(0.015625)"/>
      <path id="Arial-BoldMT-32" d="M 3238 816 
L 3238 0 
L 159 0 
Q 209 463 459 877 
Q 709 1291 1447 1975 
Q 2041 2528 2175 2725 
Q 2356 2997 2356 3263 
Q 2356 3556 2198 3714 
Q 2041 3872 1763 3872 
Q 1488 3872 1325 3706 
Q 1163 3541 1138 3156 
L 263 3244 
Q 341 3969 753 4284 
Q 1166 4600 1784 4600 
Q 2463 4600 2850 4234 
Q 3238 3869 3238 3325 
Q 3238 3016 3127 2736 
Q 3016 2456 2775 2150 
Q 2616 1947 2200 1565 
Q 1784 1184 1673 1059 
Q 1563 934 1494 816 
L 3238 816 
z
" transform="scale(0.015625)"/>
      <path id="Arial-BoldMT-37" d="M 272 3703 
L 272 4519 
L 3275 4519 
L 3275 3881 
Q 2903 3516 2518 2831 
Q 2134 2147 1932 1376 
Q 1731 606 1734 0 
L 888 0 
Q 909 950 1279 1937 
Q 1650 2925 2269 3703 
L 272 3703 
z
" transform="scale(0.015625)"/>
      <path id="Arial-BoldMT-2c" d="M 438 878 
L 1316 878 
L 1316 250 
Q 1316 -131 1250 -351 
Q 1184 -572 1001 -747 
Q 819 -922 538 -1022 
L 366 -659 
Q 631 -572 743 -419 
Q 856 -266 863 0 
L 438 0 
L 438 878 
z
" transform="scale(0.015625)"/>
      <path id="Arial-BoldMT-5d" d="M 1675 4581 
L 1675 -1291 
L 119 -1291 
L 119 -600 
L 841 -600 
L 841 3897 
L 119 3897 
L 119 4581 
L 1675 4581 
z
" transform="scale(0.015625)"/>
     </defs>
     <use xlink:href="#Arial-BoldMT-53"/>
     <use xlink:href="#Arial-BoldMT-63" transform="translate(66.699219 0)"/>
     <use xlink:href="#Arial-BoldMT-61" transform="translate(122.314453 0)"/>
     <use xlink:href="#Arial-BoldMT-6c" transform="translate(177.929688 0)"/>
     <use xlink:href="#Arial-BoldMT-65" transform="translate(205.712891 0)"/>
     <use xlink:href="#Arial-BoldMT-3a" transform="translate(261.328125 0)"/>
     <use xlink:href="#Arial-BoldMT-20" transform="translate(294.628906 0)"/>
     <use xlink:href="#Arial-BoldMT-30" transform="translate(322.412109 0)"/>
     <use xlink:href="#Arial-BoldMT-2e" transform="translate(378.027344 0)"/>
     <use xlink:href="#Arial-BoldMT-30" transform="translate(405.810547 0)"/>
     <use xlink:href="#Arial-BoldMT-31" transform="translate(461.425781 0)"/>
     <use xlink:href="#Arial-BoldMT-30" transform="translate(517.041016 0)"/>
     <use xlink:href="#Arial-BoldMT-33" transform="translate(572.65625 0)"/>
     <use xlink:href="#Arial-BoldMT-31" transform="translate(628.271484 0)"/>
     <use xlink:href="#Arial-BoldMT-34" transform="translate(683.886719 0)"/>
     <use xlink:href="#Arial-BoldMT-20" transform="translate(739.501953 0)"/>
     <use xlink:href="#Arial-BoldMT-7c" transform="translate(767.285156 0)"/>
     <use xlink:href="#Arial-BoldMT-20" transform="translate(795.263672 0)"/>
     <use xlink:href="#Arial-BoldMT-5a" transform="translate(823.046875 0)"/>
     <use xlink:href="#Arial-BoldMT-65" transform="translate(884.130859 0)"/>
     <use xlink:href="#Arial-BoldMT-72" transform="translate(939.746094 0)"/>
     <use xlink:href="#Arial-BoldMT-6f" transform="translate(978.662109 0)"/>
     <use xlink:href="#Arial-BoldMT-2d" transform="translate(1039.746094 0)"/>
     <use xlink:href="#Arial-BoldMT-50" transform="translate(1073.046875 0)"/>
     <use xlink:href="#Arial-BoldMT-6f" transform="translate(1139.746094 0)"/>
     <use xlink:href="#Arial-BoldMT-69" transform="translate(1200.830078 0)"/>
     <use xlink:href="#Arial-BoldMT-6e" transform="translate(1228.613281 0)"/>
     <use xlink:href="#Arial-BoldMT-74" transform="translate(1289.697266 0)"/>
     <use xlink:href="#Arial-BoldMT-3a" transform="translate(1322.998047 0)"/>
     <use xlink:href="#Arial-BoldMT-20" transform="translate(1356.298828 0)"/>
     <use xlink:href="#Arial-BoldMT-30" transform="translate(1384.082031 0)"/>
     <use xlink:href="#Arial-BoldMT-20" transform="translate(1439.697266 0)"/>
     <use xlink:href="#Arial-BoldMT-7c" transform="translate(1467.480469 0)"/>
     <use xlink:href="#Arial-BoldMT-20" transform="translate(1495.458984 0)"/>
     <use xlink:href="#Arial-BoldMT-52" transform="translate(1523.242188 0)"/>
     <use xlink:href="#Arial-BoldMT-61" transform="translate(1595.458984 0)"/>
     <use xlink:href="#Arial-BoldMT-6e" transform="translate(1651.074219 0)"/>
     <use xlink:href="#Arial-BoldMT-67" transform="translate(1712.158203 0)"/>
     <use xlink:href="#Arial-BoldMT-65" transform="translate(1773.242188 0)"/>
     <use xlink:href="#Arial-BoldMT-3a" transform="translate(1828.857422 0)"/>
     <use xlink:href="#Arial-BoldMT-20" transform="translate(1862.158203 0)"/>
     <use xlink:href="#Arial-BoldMT-5b" transform="translate(1889.941406 0)"/>
     <use xlink:href="#Arial-BoldMT-2d" transform="translate(1923.242188 0)"/>
     <use xlink:href="#Arial-BoldMT-31" transform="translate(1956.542969 0)"/>
     <use xlink:href="#Arial-BoldMT-32" transform="translate(2012.158203 0)"/>
     <use xlink:href="#Arial-BoldMT-37" transform="translate(2067.773438 0)"/>
     <use xlink:href="#Arial-BoldMT-2c" transform="translate(2123.388672 0)"/>
     <use xlink:href="#Arial-BoldMT-20" transform="translate(2151.171875 0)"/>
     <use xlink:href="#Arial-BoldMT-31" transform="translate(2178.955078 0)"/>
     <use xlink:href="#Arial-BoldMT-32" transform="translate(2234.570312 0)"/>
     <use xlink:href="#Arial-BoldMT-37" transform="translate(2290.185547 0)"/>
     <use xlink:href="#Arial-BoldMT-5d" transform="translate(2345.800781 0)"/>
    </g>
   </g>
   <g id="legend_1">
    <g id="patch_5">
     <path d="M 313.535625 41.126625 
L 373.08 41.126625 
Q 374.28 41.126625 374.28 39.926625 
L 374.28 31.896 
Q 374.28 30.696 373.08 30.696 
L 313.535625 30.696 
Q 312.335625 30.696 312.335625 31.896 
L 312.335625 39.926625 
Q 312.335625 41.126625 313.535625 41.126625 
z
" style="fill: #ffffff; opacity: 0.8; stroke: #cccccc; stroke-linejoin: miter"/>
    </g>
    <g id="line2d_7">
     <path d="M 314.735625 35.363812 
L 320.735625 35.363812 
L 326.735625 35.363812 
" style="fill: none; stroke-dasharray: 7.4,3.2; stroke-dashoffset: 0; stroke: #80c21d; stroke-width: 2"/>
    </g>
    <g id="text_8">
     <!-- Real Zero (0.0) -->
     <g style="fill: #262626" transform="translate(331.535625 37.463812) scale(0.06 -0.06)">
      <defs>
       <path id="ArialMT-5a" d="M 128 0 
L 128 563 
L 2475 3497 
Q 2725 3809 2950 4041 
L 394 4041 
L 394 4581 
L 3675 4581 
L 3675 4041 
L 1103 863 
L 825 541 
L 3750 541 
L 3750 0 
L 128 0 
z
" transform="scale(0.015625)"/>
       <path id="ArialMT-72" d="M 416 0 
L 416 3319 
L 922 3319 
L 922 2816 
Q 1116 3169 1280 3281 
Q 1444 3394 1641 3394 
Q 1925 3394 2219 3213 
L 2025 2691 
Q 1819 2813 1613 2813 
Q 1428 2813 1281 2702 
Q 1134 2591 1072 2394 
Q 978 2094 978 1738 
L 978 0 
L 416 0 
z
" transform="scale(0.015625)"/>
      </defs>
      <use xlink:href="#ArialMT-52"/>
      <use xlink:href="#ArialMT-65" transform="translate(72.216797 0)"/>
      <use xlink:href="#ArialMT-61" transform="translate(127.832031 0)"/>
      <use xlink:href="#ArialMT-6c" transform="translate(183.447266 0)"/>
      <use xlink:href="#ArialMT-20" transform="translate(205.664062 0)"/>
      <use xlink:href="#ArialMT-5a" transform="translate(233.447266 0)"/>
      <use xlink:href="#ArialMT-65" transform="translate(294.53125 0)"/>
      <use xlink:href="#ArialMT-72" transform="translate(350.146484 0)"/>
      <use xlink:href="#ArialMT-6f" transform="translate(383.447266 0)"/>
      <use xlink:href="#ArialMT-20" transform="translate(439.0625 0)"/>
      <use xlink:href="#ArialMT-28" transform="translate(466.845703 0)"/>
      <use xlink:href="#ArialMT-30" transform="translate(500.146484 0)"/>
      <use xlink:href="#ArialMT-2e" transform="translate(555.761719 0)"/>
      <use xlink:href="#ArialMT-30" transform="translate(583.544922 0)"/>
      <use xlink:href="#ArialMT-29" transform="translate(639.160156 0)"/>
     </g>
    </g>
   </g>
  </g>
 </g>
 <defs>
  <clipPath id="pcd4e887286">
   <rect x="7.2" y="27.696" width="370.08" height="62.34"/>
  </clipPath>
 </defs>
</svg>
