<?xml version="1.0" encoding="utf-8" standalone="no"?>
<!DOCTYPE svg PUBLIC "-//W3C//DTD SVG 1.1//EN"
  "http://www.w3.org/Graphics/SVG/1.1/DTD/svg11.dtd">
<svg xmlns:xlink="http://www.w3.org/1999/xlink" width="403.2pt" height="496.8pt" viewBox="0 0 403.2 496.8" xmlns="http://www.w3.org/2000/svg" version="1.1">
 <metadata>
  <rdf:RDF xmlns:dc="http://purl.org/dc/elements/1.1/" xmlns:cc="http://creativecommons.org/ns#" xmlns:rdf="http://www.w3.org/1999/02/22-rdf-syntax-ns#">
   <cc:Work>
    <dc:type rdf:resource="http://purl.org/dc/dcmitype/StillImage"/>
    <dc:date>2026-04-11T23:25:43.443743</dc:date>
    <dc:format>image/svg+xml</dc:format>
    <dc:creator>
     <cc:Agent>
      <dc:title>Matplotlib v3.10.5, https://matplotlib.org/</dc:title>
     </cc:Agent>
    </dc:creator>
   </cc:Work>
  </rdf:RDF>
 </metadata>
 <defs>
  <style type="text/css">*{stroke-linejoin: round; stroke-linecap: butt}</style>
 </defs>
 <g id="figure_1">
  <g id="patch_1">
   <path d="M 0 496.8 
L 403.2 496.8 
L 403.2 0 
L 0 0 
z
" style="fill: #ffffff"/>
  </g>
  <g id="axes_1">
   <g id="patch_2">
    <path d="M 201.6 58.405644 
Q 201.6 64.194513 201.6 69.172132 
" clip-path="url(#p9c4676d245)" style="fill: none; stroke: #28253d; stroke-width: 0.9; stroke-linecap: round"/>
    <path d="M 205.6 63.172132 
L 201.6 69.172132 
L 197.6 63.172132 
z
" clip-path="url(#p9c4676d245)" style="fill: #28253d; stroke: #28253d; stroke-width: 0.9; stroke-linecap: round"/>
   </g>
   <g id="patch_3">
    <path d="M 161.233886 109.641499 
Q 136.936779 121.493746 113.368797 132.990323 
" clip-path="url(#p9c4676d245)" style="fill: none; stroke: #28253d; stroke-width: 0.9; stroke-linecap: round"/>
    <path d="M 120.515103 133.954855 
L 113.368797 132.990323 
L 117.007714 126.764707 
z
" clip-path="url(#p9c4676d245)" style="fill: #28253d; stroke: #28253d; stroke-width: 0.9; stroke-linecap: round"/>
   </g>
   <g id="patch_4">
    <path d="M 228.290449 109.721415 
Q 243.082148 120.678229 257.221963 131.152166 
" clip-path="url(#p9c4676d245)" style="fill: none; stroke: #28253d; stroke-width: 0.9; stroke-linecap: round"/>
    <path d="M 254.78153 124.366572 
L 257.221963 131.152166 
L 250.019709 130.795029 
z
" clip-path="url(#p9c4676d245)" style="fill: #28253d; stroke: #28253d; stroke-width: 0.9; stroke-linecap: round"/>
   </g>
   <g id="patch_5">
    <path d="M 243.0784 151.40045 
Q 181.578324 151.40045 120.889497 151.40045 
" clip-path="url(#p9c4676d245)" style="fill: none; stroke: #28253d; stroke-width: 0.9; stroke-linecap: round"/>
    <path d="M 126.889497 155.40045 
L 120.889497 151.40045 
L 126.889497 147.40045 
z
" clip-path="url(#p9c4676d245)" style="fill: #28253d; stroke: #28253d; stroke-width: 0.9; stroke-linecap: round"/>
   </g>
   <g id="patch_6">
    <path d="M 284.557147 171.370895 
Q 284.557147 180.588889 284.557147 188.995635 
" clip-path="url(#p9c4676d245)" style="fill: none; stroke: #28253d; stroke-width: 0.9; stroke-linecap: round"/>
    <path d="M 288.557147 182.995635 
L 284.557147 188.995635 
L 280.557147 182.995635 
z
" clip-path="url(#p9c4676d245)" style="fill: #28253d; stroke: #28253d; stroke-width: 0.9; stroke-linecap: round"/>
   </g>
   <g id="patch_7">
    <path d="M 236.168722 229.435499 
Q 208.697058 240.595862 181.97699 251.45089 
" clip-path="url(#p9c4676d245)" style="fill: none; stroke: #28253d; stroke-width: 0.9; stroke-linecap: round"/>
    <path d="M 189.041298 252.898494 
L 181.97699 251.45089 
L 186.030281 245.486762 
z
" clip-path="url(#p9c4676d245)" style="fill: #28253d; stroke: #28253d; stroke-width: 0.9; stroke-linecap: round"/>
   </g>
   <g id="patch_8">
    <path d="M 291.715464 229.718728 
Q 295.310048 239.732212 298.63054 248.982154 
" clip-path="url(#p9c4676d245)" style="fill: none; stroke: #28253d; stroke-width: 0.9; stroke-linecap: round"/>
    <path d="M 300.36813 241.983527 
L 298.63054 248.982154 
L 292.838573 244.686445 
z
" clip-path="url(#p9c4676d245)" style="fill: #28253d; stroke: #28253d; stroke-width: 0.9; stroke-linecap: round"/>
   </g>
   <g id="patch_9">
    <path d="M 306.064555 289.663261 
Q 306.064555 300.46635 306.064555 310.45819 
" clip-path="url(#p9c4676d245)" style="fill: none; stroke: #28253d; stroke-width: 0.9; stroke-linecap: round"/>
    <path d="M 310.064555 304.45819 
L 306.064555 310.45819 
L 302.064555 304.45819 
z
" clip-path="url(#p9c4676d245)" style="fill: #28253d; stroke: #28253d; stroke-width: 0.9; stroke-linecap: round"/>
   </g>
   <g id="patch_10">
    <path d="M 246.149795 269.691196 
Q 216.141898 269.691196 186.945249 269.691196 
" clip-path="url(#p9c4676d245)" style="fill: none; stroke: #28253d; stroke-width: 0.9; stroke-linecap: round"/>
    <path d="M 192.945249 273.691196 
L 186.945249 269.691196 
L 192.945249 265.691196 
z
" clip-path="url(#p9c4676d245)" style="fill: #28253d; stroke: #28253d; stroke-width: 0.9; stroke-linecap: round"/>
   </g>
   <g id="patch_11">
    <path d="M 174.306839 416.963416 
Q 157.047511 429.46155 140.445248 441.483879 
" clip-path="url(#p9c4676d245)" style="fill: none; stroke: #28253d; stroke-width: 0.9; stroke-linecap: round"/>
    <path d="M 147.65094 441.204589 
L 140.445248 441.483879 
L 142.958861 434.725052 
z
" clip-path="url(#p9c4676d245)" style="fill: #28253d; stroke: #28253d; stroke-width: 0.9; stroke-linecap: round"/>
   </g>
   <g id="patch_12">
    <path d="M 227.961134 416.970253 
Q 249.465567 433.098579 270.321001 448.740154 
" clip-path="url(#p9c4676d245)" style="fill: none; stroke: #28253d; stroke-width: 0.9; stroke-linecap: round"/>
    <path d="M 267.921001 441.940154 
L 270.321001 448.740154 
L 263.121001 448.340154 
z
" clip-path="url(#p9c4676d245)" style="fill: #28253d; stroke: #28253d; stroke-width: 0.9; stroke-linecap: round"/>
   </g>
   <g id="patch_13">
    <path d="M 158.58359 461.721628 
Q 209.498652 461.721628 259.602465 461.721628 
" clip-path="url(#p9c4676d245)" style="fill: none; stroke: #28253d; stroke-width: 0.9; stroke-linecap: round"/>
    <path d="M 253.602465 457.721628 
L 259.602465 461.721628 
L 253.602465 465.721628 
z
" clip-path="url(#p9c4676d245)" style="fill: #28253d; stroke: #28253d; stroke-width: 0.9; stroke-linecap: round"/>
   </g>
   <g id="line2d_1">
    <path d="M 29.540733 363.402047 
L 130.932801 363.402047 
" clip-path="url(#p9c4676d245)" style="fill: none; stroke-dasharray: 2.96,1.28; stroke-dashoffset: 0; stroke: #6e6a8a; stroke-width: 0.8"/>
   </g>
   <g id="line2d_2">
    <path d="M 272.267199 363.402047 
L 373.659267 363.402047 
" clip-path="url(#p9c4676d245)" style="fill: none; stroke-dasharray: 2.96,1.28; stroke-dashoffset: 0; stroke: #6e6a8a; stroke-width: 0.8"/>
   </g>
   <g id="patch_14">
    <path d="M 147.063357 32.341582 
L 256.136643 32.341582 
Q 269.194712 32.341582 269.194712 45.399652 
L 269.194712 45.399652 
Q 269.194712 58.457721 256.136643 58.457721 
L 147.063357 58.457721 
Q 134.005288 58.457721 134.005288 45.399652 
L 134.005288 45.399652 
Q 134.005288 32.341582 147.063357 32.341582 
z
" clip-path="url(#p9c4676d245)" style="fill: #dce6f5; stroke: #28253d; stroke-width: 1.1; stroke-linejoin: miter"/>
   </g>
   <g id="patch_15">
    <path d="M 160.735924 69.979547 
L 242.464076 69.979547 
Q 249.223547 69.979547 249.223547 76.739018 
L 249.223547 103.162406 
Q 249.223547 109.921877 242.464076 109.921877 
L 160.735924 109.921877 
Q 153.976453 109.921877 153.976453 103.162406 
L 153.976453 76.739018 
Q 153.976453 69.979547 160.735924 69.979547 
z
" clip-path="url(#p9c4676d245)" style="fill: #fff2c6; stroke: #28253d; stroke-linejoin: miter"/>
   </g>
   <g id="patch_16">
    <path d="M 37.836448 132.965529 
L 113.419626 132.965529 
Q 120.179097 132.965529 120.179097 139.725 
L 120.179097 163.075901 
Q 120.179097 169.835372 113.419626 169.835372 
L 37.836448 169.835372 
Q 31.076976 169.835372 31.076976 163.075901 
L 31.076976 139.725 
Q 31.076976 132.965529 37.836448 132.965529 
z
" clip-path="url(#p9c4676d245)" style="fill: #d6edc8; stroke: #28253d; stroke-width: 1.2; stroke-linejoin: miter"/>
   </g>
   <g id="patch_17">
    <path d="M 249.838045 131.429285 
L 319.276249 131.429285 
Q 326.03572 131.429285 326.03572 138.188757 
L 326.03572 164.612144 
Q 326.03572 171.371615 319.276249 171.371615 
L 249.838045 171.371615 
Q 243.078573 171.371615 243.078573 164.612144 
L 243.078573 138.188757 
Q 243.078573 131.429285 249.838045 131.429285 
z
" clip-path="url(#p9c4676d245)" style="fill: #fff2c6; stroke: #28253d; stroke-linejoin: miter"/>
   </g>
   <g id="patch_18">
    <path d="M 231.403123 189.806537 
L 337.71117 189.806537 
Q 344.470641 189.806537 344.470641 196.566008 
L 344.470641 222.989395 
Q 344.470641 229.748866 337.71117 229.748866 
L 231.403123 229.748866 
Q 224.643652 229.748866 224.643652 222.989395 
L 224.643652 196.566008 
Q 224.643652 189.806537 231.403123 189.806537 
z
" clip-path="url(#p9c4676d245)" style="fill: #fff2c6; stroke: #28253d; stroke-linejoin: miter"/>
   </g>
   <g id="patch_19">
    <path d="M 94.677455 251.256275 
L 179.478094 251.256275 
Q 186.237565 251.256275 186.237565 258.015746 
L 186.237565 281.366647 
Q 186.237565 288.126118 179.478094 288.126118 
L 94.677455 288.126118 
Q 87.917984 288.126118 87.917984 281.366647 
L 87.917984 258.015746 
Q 87.917984 251.256275 94.677455 251.256275 
z
" clip-path="url(#p9c4676d245)" style="fill: #d6edc8; stroke: #28253d; stroke-width: 1.2; stroke-linejoin: miter"/>
   </g>
   <g id="patch_20">
    <path d="M 252.910531 249.720031 
L 359.218579 249.720031 
Q 365.97805 249.720031 365.97805 256.479503 
L 365.97805 282.90289 
Q 365.97805 289.662361 359.218579 289.662361 
L 252.910531 289.662361 
Q 246.15106 289.662361 246.15106 282.90289 
L 246.15106 256.479503 
Q 246.15106 249.720031 252.910531 249.720031 
z
" clip-path="url(#p9c4676d245)" style="fill: #fff2c6; stroke: #28253d; stroke-linejoin: miter"/>
   </g>
   <g id="patch_21">
    <path d="M 260.591749 311.16977 
L 351.537361 311.16977 
Q 358.296832 311.16977 358.296832 317.929241 
L 358.296832 341.280141 
Q 358.296832 348.039613 351.537361 348.039613 
L 260.591749 348.039613 
Q 253.832277 348.039613 253.832277 341.280141 
L 253.832277 317.929241 
Q 253.832277 311.16977 260.591749 311.16977 
z
" clip-path="url(#p9c4676d245)" style="fill: #d6edc8; stroke: #28253d; stroke-width: 1.2; stroke-linejoin: miter"/>
   </g>
   <g id="patch_22">
    <path d="M 146.909733 377.228238 
L 256.290267 377.228238 
Q 263.049738 377.228238 263.049738 383.987709 
L 263.049738 410.411097 
Q 263.049738 417.170568 256.290267 417.170568 
L 146.909733 417.170568 
Q 140.150262 417.170568 140.150262 410.411097 
L 140.150262 383.987709 
Q 140.150262 377.228238 146.909733 377.228238 
z
" clip-path="url(#p9c4676d245)" style="fill: #fff2c6; stroke: #28253d; stroke-linejoin: miter"/>
   </g>
   <g id="patch_23">
    <path d="M 73.170047 441.750463 
L 151.825712 441.750463 
Q 158.585183 441.750463 158.585183 448.509935 
L 158.585183 474.933322 
Q 158.585183 481.692793 151.825712 481.692793 
L 73.170047 481.692793 
Q 66.410576 481.692793 66.410576 474.933322 
L 66.410576 448.509935 
Q 66.410576 441.750463 73.170047 441.750463 
z
" clip-path="url(#p9c4676d245)" style="fill: #e8e0f4; stroke: #28253d; stroke-linejoin: miter"/>
   </g>
   <g id="patch_24">
    <path d="M 274.571564 448.663559 
L 300.687703 448.663559 
Q 313.745772 448.663559 313.745772 461.721628 
L 313.745772 461.721628 
Q 313.745772 474.779698 300.687703 474.779698 
L 274.571564 474.779698 
Q 261.513495 474.779698 261.513495 461.721628 
L 261.513495 461.721628 
Q 261.513495 448.663559 274.571564 448.663559 
z
" clip-path="url(#p9c4676d245)" style="fill: #d6edc8; stroke: #28253d; stroke-width: 1.2; stroke-linejoin: miter"/>
   </g>
   <g id="text_1">
    <!-- What is your binding constraint? -->
    <g style="fill: #28253d" transform="translate(151.799922 47.210902) scale(0.07 -0.07)">
     <defs>
      <path id="ArialMT-57" d="M 1294 0 
L 78 4581 
L 700 4581 
L 1397 1578 
Q 1509 1106 1591 641 
Q 1766 1375 1797 1488 
L 2669 4581 
L 3400 4581 
L 4056 2263 
Q 4303 1400 4413 641 
Q 4500 1075 4641 1638 
L 5359 4581 
L 5969 4581 
L 4713 0 
L 4128 0 
L 3163 3491 
Q 3041 3928 3019 4028 
Q 2947 3713 2884 3491 
L 1913 0 
L 1294 0 
z
" transform="scale(0.015625)"/>
      <path id="ArialMT-68" d="M 422 0 
L 422 4581 
L 984 4581 
L 984 2938 
Q 1378 3394 1978 3394 
Q 2347 3394 2619 3248 
Q 2891 3103 3008 2847 
Q 3125 2591 3125 2103 
L 3125 0 
L 2563 0 
L 2563 2103 
Q 2563 2525 2380 2717 
Q 2197 2909 1863 2909 
Q 1613 2909 1392 2779 
Q 1172 2650 1078 2428 
Q 984 2206 984 1816 
L 984 0 
L 422 0 
z
" transform="scale(0.015625)"/>
      <path id="ArialMT-61" d="M 2588 409 
Q 2275 144 1986 34 
Q 1697 -75 1366 -75 
Q 819 -75 525 192 
Q 231 459 231 875 
Q 231 1119 342 1320 
Q 453 1522 633 1644 
Q 813 1766 1038 1828 
Q 1203 1872 1538 1913 
Q 2219 1994 2541 2106 
Q 2544 2222 2544 2253 
Q 2544 2597 2384 2738 
Q 2169 2928 1744 2928 
Q 1347 2928 1158 2789 
Q 969 2650 878 2297 
L 328 2372 
Q 403 2725 575 2942 
Q 747 3159 1072 3276 
Q 1397 3394 1825 3394 
Q 2250 3394 2515 3294 
Q 2781 3194 2906 3042 
Q 3031 2891 3081 2659 
Q 3109 2516 3109 2141 
L 3109 1391 
Q 3109 606 3145 398 
Q 3181 191 3288 0 
L 2700 0 
Q 2613 175 2588 409 
z
M 2541 1666 
Q 2234 1541 1622 1453 
Q 1275 1403 1131 1340 
Q 988 1278 909 1158 
Q 831 1038 831 891 
Q 831 666 1001 516 
Q 1172 366 1500 366 
Q 1825 366 2078 508 
Q 2331 650 2450 897 
Q 2541 1088 2541 1459 
L 2541 1666 
z
" transform="scale(0.015625)"/>
      <path id="ArialMT-74" d="M 1650 503 
L 1731 6 
Q 1494 -44 1306 -44 
Q 1000 -44 831 53 
Q 663 150 594 308 
Q 525 466 525 972 
L 525 2881 
L 113 2881 
L 113 3319 
L 525 3319 
L 525 4141 
L 1084 4478 
L 1084 3319 
L 1650 3319 
L 1650 2881 
L 1084 2881 
L 1084 941 
Q 1084 700 1114 631 
Q 1144 563 1211 522 
Q 1278 481 1403 481 
Q 1497 481 1650 503 
z
" transform="scale(0.015625)"/>
      <path id="ArialMT-20" transform="scale(0.015625)"/>
      <path id="ArialMT-69" d="M 425 3934 
L 425 4581 
L 988 4581 
L 988 3934 
L 425 3934 
z
M 425 0 
L 425 3319 
L 988 3319 
L 988 0 
L 425 0 
z
" transform="scale(0.015625)"/>
      <path id="ArialMT-73" d="M 197 991 
L 753 1078 
Q 800 744 1014 566 
Q 1228 388 1613 388 
Q 2000 388 2187 545 
Q 2375 703 2375 916 
Q 2375 1106 2209 1216 
Q 2094 1291 1634 1406 
Q 1016 1563 777 1677 
Q 538 1791 414 1992 
Q 291 2194 291 2438 
Q 291 2659 392 2848 
Q 494 3038 669 3163 
Q 800 3259 1026 3326 
Q 1253 3394 1513 3394 
Q 1903 3394 2198 3281 
Q 2494 3169 2634 2976 
Q 2775 2784 2828 2463 
L 2278 2388 
Q 2241 2644 2061 2787 
Q 1881 2931 1553 2931 
Q 1166 2931 1000 2803 
Q 834 2675 834 2503 
Q 834 2394 903 2306 
Q 972 2216 1119 2156 
Q 1203 2125 1616 2013 
Q 2213 1853 2448 1751 
Q 2684 1650 2818 1456 
Q 2953 1263 2953 975 
Q 2953 694 2789 445 
Q 2625 197 2315 61 
Q 2006 -75 1616 -75 
Q 969 -75 630 194 
Q 291 463 197 991 
z
" transform="scale(0.015625)"/>
      <path id="ArialMT-79" d="M 397 -1278 
L 334 -750 
Q 519 -800 656 -800 
Q 844 -800 956 -737 
Q 1069 -675 1141 -563 
Q 1194 -478 1313 -144 
Q 1328 -97 1363 -6 
L 103 3319 
L 709 3319 
L 1400 1397 
Q 1534 1031 1641 628 
Q 1738 1016 1872 1384 
L 2581 3319 
L 3144 3319 
L 1881 -56 
Q 1678 -603 1566 -809 
Q 1416 -1088 1222 -1217 
Q 1028 -1347 759 -1347 
Q 597 -1347 397 -1278 
z
" transform="scale(0.015625)"/>
      <path id="ArialMT-6f" d="M 213 1659 
Q 213 2581 725 3025 
Q 1153 3394 1769 3394 
Q 2453 3394 2887 2945 
Q 3322 2497 3322 1706 
Q 3322 1066 3130 698 
Q 2938 331 2570 128 
Q 2203 -75 1769 -75 
Q 1072 -75 642 372 
Q 213 819 213 1659 
z
M 791 1659 
Q 791 1022 1069 705 
Q 1347 388 1769 388 
Q 2188 388 2466 706 
Q 2744 1025 2744 1678 
Q 2744 2294 2464 2611 
Q 2184 2928 1769 2928 
Q 1347 2928 1069 2612 
Q 791 2297 791 1659 
z
" transform="scale(0.015625)"/>
      <path id="ArialMT-75" d="M 2597 0 
L 2597 488 
Q 2209 -75 1544 -75 
Q 1250 -75 995 37 
Q 741 150 617 320 
Q 494 491 444 738 
Q 409 903 409 1263 
L 409 3319 
L 972 3319 
L 972 1478 
Q 972 1038 1006 884 
Q 1059 663 1231 536 
Q 1403 409 1656 409 
Q 1909 409 2131 539 
Q 2353 669 2445 892 
Q 2538 1116 2538 1541 
L 2538 3319 
L 3100 3319 
L 3100 0 
L 2597 0 
z
" transform="scale(0.015625)"/>
      <path id="ArialMT-72" d="M 416 0 
L 416 3319 
L 922 3319 
L 922 2816 
Q 1116 3169 1280 3281 
Q 1444 3394 1641 3394 
Q 1925 3394 2219 3213 
L 2025 2691 
Q 1819 2813 1613 2813 
Q 1428 2813 1281 2702 
Q 1134 2591 1072 2394 
Q 978 2094 978 1738 
L 978 0 
L 416 0 
z
" transform="scale(0.015625)"/>
      <path id="ArialMT-62" d="M 941 0 
L 419 0 
L 419 4581 
L 981 4581 
L 981 2947 
Q 1338 3394 1891 3394 
Q 2197 3394 2470 3270 
Q 2744 3147 2920 2923 
Q 3097 2700 3197 2384 
Q 3297 2069 3297 1709 
Q 3297 856 2875 390 
Q 2453 -75 1863 -75 
Q 1275 -75 941 416 
L 941 0 
z
M 934 1684 
Q 934 1088 1097 822 
Q 1363 388 1816 388 
Q 2184 388 2453 708 
Q 2722 1028 2722 1663 
Q 2722 2313 2464 2622 
Q 2206 2931 1841 2931 
Q 1472 2931 1203 2611 
Q 934 2291 934 1684 
z
" transform="scale(0.015625)"/>
      <path id="ArialMT-6e" d="M 422 0 
L 422 3319 
L 928 3319 
L 928 2847 
Q 1294 3394 1984 3394 
Q 2284 3394 2536 3286 
Q 2788 3178 2913 3003 
Q 3038 2828 3088 2588 
Q 3119 2431 3119 2041 
L 3119 0 
L 2556 0 
L 2556 2019 
Q 2556 2363 2490 2533 
Q 2425 2703 2258 2804 
Q 2091 2906 1866 2906 
Q 1506 2906 1245 2678 
Q 984 2450 984 1813 
L 984 0 
L 422 0 
z
" transform="scale(0.015625)"/>
      <path id="ArialMT-64" d="M 2575 0 
L 2575 419 
Q 2259 -75 1647 -75 
Q 1250 -75 917 144 
Q 584 363 401 755 
Q 219 1147 219 1656 
Q 219 2153 384 2558 
Q 550 2963 881 3178 
Q 1213 3394 1622 3394 
Q 1922 3394 2156 3267 
Q 2391 3141 2538 2938 
L 2538 4581 
L 3097 4581 
L 3097 0 
L 2575 0 
z
M 797 1656 
Q 797 1019 1065 703 
Q 1334 388 1700 388 
Q 2069 388 2326 689 
Q 2584 991 2584 1609 
Q 2584 2291 2321 2609 
Q 2059 2928 1675 2928 
Q 1300 2928 1048 2622 
Q 797 2316 797 1656 
z
" transform="scale(0.015625)"/>
      <path id="ArialMT-67" d="M 319 -275 
L 866 -356 
Q 900 -609 1056 -725 
Q 1266 -881 1628 -881 
Q 2019 -881 2231 -725 
Q 2444 -569 2519 -288 
Q 2563 -116 2559 434 
Q 2191 0 1641 0 
Q 956 0 581 494 
Q 206 988 206 1678 
Q 206 2153 378 2554 
Q 550 2956 876 3175 
Q 1203 3394 1644 3394 
Q 2231 3394 2613 2919 
L 2613 3319 
L 3131 3319 
L 3131 450 
Q 3131 -325 2973 -648 
Q 2816 -972 2473 -1159 
Q 2131 -1347 1631 -1347 
Q 1038 -1347 672 -1080 
Q 306 -813 319 -275 
z
M 784 1719 
Q 784 1066 1043 766 
Q 1303 466 1694 466 
Q 2081 466 2343 764 
Q 2606 1063 2606 1700 
Q 2606 2309 2336 2618 
Q 2066 2928 1684 2928 
Q 1309 2928 1046 2623 
Q 784 2319 784 1719 
z
" transform="scale(0.015625)"/>
      <path id="ArialMT-63" d="M 2588 1216 
L 3141 1144 
Q 3050 572 2676 248 
Q 2303 -75 1759 -75 
Q 1078 -75 664 370 
Q 250 816 250 1647 
Q 250 2184 428 2587 
Q 606 2991 970 3192 
Q 1334 3394 1763 3394 
Q 2303 3394 2647 3120 
Q 2991 2847 3088 2344 
L 2541 2259 
Q 2463 2594 2264 2762 
Q 2066 2931 1784 2931 
Q 1359 2931 1093 2626 
Q 828 2322 828 1663 
Q 828 994 1084 691 
Q 1341 388 1753 388 
Q 2084 388 2306 591 
Q 2528 794 2588 1216 
z
" transform="scale(0.015625)"/>
      <path id="ArialMT-3f" d="M 1475 1128 
Q 1472 1241 1472 1297 
Q 1472 1628 1566 1869 
Q 1634 2050 1788 2234 
Q 1900 2369 2192 2626 
Q 2484 2884 2571 3037 
Q 2659 3191 2659 3372 
Q 2659 3700 2403 3948 
Q 2147 4197 1775 4197 
Q 1416 4197 1175 3972 
Q 934 3747 859 3269 
L 281 3338 
Q 359 3978 745 4318 
Q 1131 4659 1766 4659 
Q 2438 4659 2838 4293 
Q 3238 3928 3238 3409 
Q 3238 3109 3097 2856 
Q 2956 2603 2547 2241 
Q 2272 1997 2187 1881 
Q 2103 1766 2062 1616 
Q 2022 1466 2016 1128 
L 1475 1128 
z
M 1441 0 
L 1441 641 
L 2081 641 
L 2081 0 
L 1441 0 
z
" transform="scale(0.015625)"/>
     </defs>
     <use xlink:href="#ArialMT-57"/>
     <use xlink:href="#ArialMT-68" transform="translate(94.384766 0)"/>
     <use xlink:href="#ArialMT-61" transform="translate(150 0)"/>
     <use xlink:href="#ArialMT-74" transform="translate(205.615234 0)"/>
     <use xlink:href="#ArialMT-20" transform="translate(233.398438 0)"/>
     <use xlink:href="#ArialMT-69" transform="translate(261.181641 0)"/>
     <use xlink:href="#ArialMT-73" transform="translate(283.398438 0)"/>
     <use xlink:href="#ArialMT-20" transform="translate(333.398438 0)"/>
     <use xlink:href="#ArialMT-79" transform="translate(361.181641 0)"/>
     <use xlink:href="#ArialMT-6f" transform="translate(411.181641 0)"/>
     <use xlink:href="#ArialMT-75" transform="translate(466.796875 0)"/>
     <use xlink:href="#ArialMT-72" transform="translate(522.412109 0)"/>
     <use xlink:href="#ArialMT-20" transform="translate(555.712891 0)"/>
     <use xlink:href="#ArialMT-62" transform="translate(583.496094 0)"/>
     <use xlink:href="#ArialMT-69" transform="translate(639.111328 0)"/>
     <use xlink:href="#ArialMT-6e" transform="translate(661.328125 0)"/>
     <use xlink:href="#ArialMT-64" transform="translate(716.943359 0)"/>
     <use xlink:href="#ArialMT-69" transform="translate(772.558594 0)"/>
     <use xlink:href="#ArialMT-6e" transform="translate(794.775391 0)"/>
     <use xlink:href="#ArialMT-67" transform="translate(850.390625 0)"/>
     <use xlink:href="#ArialMT-20" transform="translate(906.005859 0)"/>
     <use xlink:href="#ArialMT-63" transform="translate(933.789062 0)"/>
     <use xlink:href="#ArialMT-6f" transform="translate(983.789062 0)"/>
     <use xlink:href="#ArialMT-6e" transform="translate(1039.404297 0)"/>
     <use xlink:href="#ArialMT-73" transform="translate(1095.019531 0)"/>
     <use xlink:href="#ArialMT-74" transform="translate(1145.019531 0)"/>
     <use xlink:href="#ArialMT-72" transform="translate(1172.802734 0)"/>
     <use xlink:href="#ArialMT-61" transform="translate(1206.103516 0)"/>
     <use xlink:href="#ArialMT-69" transform="translate(1261.71875 0)"/>
     <use xlink:href="#ArialMT-6e" transform="translate(1283.935547 0)"/>
     <use xlink:href="#ArialMT-74" transform="translate(1339.550781 0)"/>
     <use xlink:href="#ArialMT-3f" transform="translate(1367.333984 0)"/>
    </g>
   </g>
   <g id="text_2">
    <!-- Need to deploy -->
    <g style="fill: #28253d" transform="translate(178.057031 84.728603) scale(0.07 -0.07)">
     <defs>
      <path id="ArialMT-4e" d="M 488 0 
L 488 4581 
L 1109 4581 
L 3516 984 
L 3516 4581 
L 4097 4581 
L 4097 0 
L 3475 0 
L 1069 3600 
L 1069 0 
L 488 0 
z
" transform="scale(0.015625)"/>
      <path id="ArialMT-65" d="M 2694 1069 
L 3275 997 
Q 3138 488 2766 206 
Q 2394 -75 1816 -75 
Q 1088 -75 661 373 
Q 234 822 234 1631 
Q 234 2469 665 2931 
Q 1097 3394 1784 3394 
Q 2450 3394 2872 2941 
Q 3294 2488 3294 1666 
Q 3294 1616 3291 1516 
L 816 1516 
Q 847 969 1125 678 
Q 1403 388 1819 388 
Q 2128 388 2347 550 
Q 2566 713 2694 1069 
z
M 847 1978 
L 2700 1978 
Q 2663 2397 2488 2606 
Q 2219 2931 1791 2931 
Q 1403 2931 1139 2672 
Q 875 2413 847 1978 
z
" transform="scale(0.015625)"/>
      <path id="ArialMT-70" d="M 422 -1272 
L 422 3319 
L 934 3319 
L 934 2888 
Q 1116 3141 1344 3267 
Q 1572 3394 1897 3394 
Q 2322 3394 2647 3175 
Q 2972 2956 3137 2557 
Q 3303 2159 3303 1684 
Q 3303 1175 3120 767 
Q 2938 359 2589 142 
Q 2241 -75 1856 -75 
Q 1575 -75 1351 44 
Q 1128 163 984 344 
L 984 -1272 
L 422 -1272 
z
M 931 1641 
Q 931 1000 1190 694 
Q 1450 388 1819 388 
Q 2194 388 2461 705 
Q 2728 1022 2728 1688 
Q 2728 2322 2467 2637 
Q 2206 2953 1844 2953 
Q 1484 2953 1207 2617 
Q 931 2281 931 1641 
z
" transform="scale(0.015625)"/>
      <path id="ArialMT-6c" d="M 409 0 
L 409 4581 
L 972 4581 
L 972 0 
L 409 0 
z
" transform="scale(0.015625)"/>
     </defs>
     <use xlink:href="#ArialMT-4e"/>
     <use xlink:href="#ArialMT-65" transform="translate(72.216797 0)"/>
     <use xlink:href="#ArialMT-65" transform="translate(127.832031 0)"/>
     <use xlink:href="#ArialMT-64" transform="translate(183.447266 0)"/>
     <use xlink:href="#ArialMT-20" transform="translate(239.0625 0)"/>
     <use xlink:href="#ArialMT-74" transform="translate(266.845703 0)"/>
     <use xlink:href="#ArialMT-6f" transform="translate(294.628906 0)"/>
     <use xlink:href="#ArialMT-20" transform="translate(350.244141 0)"/>
     <use xlink:href="#ArialMT-64" transform="translate(378.027344 0)"/>
     <use xlink:href="#ArialMT-65" transform="translate(433.642578 0)"/>
     <use xlink:href="#ArialMT-70" transform="translate(489.257812 0)"/>
     <use xlink:href="#ArialMT-6c" transform="translate(544.873047 0)"/>
     <use xlink:href="#ArialMT-6f" transform="translate(567.089844 0)"/>
     <use xlink:href="#ArialMT-79" transform="translate(622.705078 0)"/>
    </g>
    <!-- immediately? -->
    <g style="fill: #28253d" transform="translate(180.982266 91.807243) scale(0.07 -0.07)">
     <defs>
      <path id="ArialMT-6d" d="M 422 0 
L 422 3319 
L 925 3319 
L 925 2853 
Q 1081 3097 1340 3245 
Q 1600 3394 1931 3394 
Q 2300 3394 2536 3241 
Q 2772 3088 2869 2813 
Q 3263 3394 3894 3394 
Q 4388 3394 4653 3120 
Q 4919 2847 4919 2278 
L 4919 0 
L 4359 0 
L 4359 2091 
Q 4359 2428 4304 2576 
Q 4250 2725 4106 2815 
Q 3963 2906 3769 2906 
Q 3419 2906 3187 2673 
Q 2956 2441 2956 1928 
L 2956 0 
L 2394 0 
L 2394 2156 
Q 2394 2531 2256 2718 
Q 2119 2906 1806 2906 
Q 1569 2906 1367 2781 
Q 1166 2656 1075 2415 
Q 984 2175 984 1722 
L 984 0 
L 422 0 
z
" transform="scale(0.015625)"/>
     </defs>
     <use xlink:href="#ArialMT-69"/>
     <use xlink:href="#ArialMT-6d" transform="translate(22.216797 0)"/>
     <use xlink:href="#ArialMT-6d" transform="translate(105.517578 0)"/>
     <use xlink:href="#ArialMT-65" transform="translate(188.818359 0)"/>
     <use xlink:href="#ArialMT-64" transform="translate(244.433594 0)"/>
     <use xlink:href="#ArialMT-69" transform="translate(300.048828 0)"/>
     <use xlink:href="#ArialMT-61" transform="translate(322.265625 0)"/>
     <use xlink:href="#ArialMT-74" transform="translate(377.880859 0)"/>
     <use xlink:href="#ArialMT-65" transform="translate(405.664062 0)"/>
     <use xlink:href="#ArialMT-6c" transform="translate(461.279297 0)"/>
     <use xlink:href="#ArialMT-79" transform="translate(483.496094 0)"/>
     <use xlink:href="#ArialMT-3f" transform="translate(533.496094 0)"/>
    </g>
    <!-- No calibration data -->
    <g style="fill: #28253d" transform="translate(172.417656 98.79204) scale(0.07 -0.07)">
     <use xlink:href="#ArialMT-4e"/>
     <use xlink:href="#ArialMT-6f" transform="translate(72.216797 0)"/>
     <use xlink:href="#ArialMT-20" transform="translate(127.832031 0)"/>
     <use xlink:href="#ArialMT-63" transform="translate(155.615234 0)"/>
     <use xlink:href="#ArialMT-61" transform="translate(205.615234 0)"/>
     <use xlink:href="#ArialMT-6c" transform="translate(261.230469 0)"/>
     <use xlink:href="#ArialMT-69" transform="translate(283.447266 0)"/>
     <use xlink:href="#ArialMT-62" transform="translate(305.664062 0)"/>
     <use xlink:href="#ArialMT-72" transform="translate(361.279297 0)"/>
     <use xlink:href="#ArialMT-61" transform="translate(394.580078 0)"/>
     <use xlink:href="#ArialMT-74" transform="translate(450.195312 0)"/>
     <use xlink:href="#ArialMT-69" transform="translate(477.978516 0)"/>
     <use xlink:href="#ArialMT-6f" transform="translate(500.195312 0)"/>
     <use xlink:href="#ArialMT-6e" transform="translate(555.810547 0)"/>
     <use xlink:href="#ArialMT-20" transform="translate(611.425781 0)"/>
     <use xlink:href="#ArialMT-64" transform="translate(639.208984 0)"/>
     <use xlink:href="#ArialMT-61" transform="translate(694.824219 0)"/>
     <use xlink:href="#ArialMT-74" transform="translate(750.439453 0)"/>
     <use xlink:href="#ArialMT-61" transform="translate(778.222656 0)"/>
    </g>
   </g>
   <g id="text_3">
    <!-- LLM.int8() -->
    <g style="fill: #28253d" transform="translate(59.874209 149.713396) scale(0.07 -0.07)">
     <defs>
      <path id="ArialMT-4c" d="M 469 0 
L 469 4581 
L 1075 4581 
L 1075 541 
L 3331 541 
L 3331 0 
L 469 0 
z
" transform="scale(0.015625)"/>
      <path id="ArialMT-4d" d="M 475 0 
L 475 4581 
L 1388 4581 
L 2472 1338 
Q 2622 884 2691 659 
Q 2769 909 2934 1394 
L 4031 4581 
L 4847 4581 
L 4847 0 
L 4263 0 
L 4263 3834 
L 2931 0 
L 2384 0 
L 1059 3900 
L 1059 0 
L 475 0 
z
" transform="scale(0.015625)"/>
      <path id="ArialMT-2e" d="M 581 0 
L 581 641 
L 1222 641 
L 1222 0 
L 581 0 
z
" transform="scale(0.015625)"/>
      <path id="ArialMT-38" d="M 1131 2484 
Q 781 2613 612 2850 
Q 444 3088 444 3419 
Q 444 3919 803 4259 
Q 1163 4600 1759 4600 
Q 2359 4600 2725 4251 
Q 3091 3903 3091 3403 
Q 3091 3084 2923 2848 
Q 2756 2613 2416 2484 
Q 2838 2347 3058 2040 
Q 3278 1734 3278 1309 
Q 3278 722 2862 322 
Q 2447 -78 1769 -78 
Q 1091 -78 675 323 
Q 259 725 259 1325 
Q 259 1772 486 2073 
Q 713 2375 1131 2484 
z
M 1019 3438 
Q 1019 3113 1228 2906 
Q 1438 2700 1772 2700 
Q 2097 2700 2305 2904 
Q 2513 3109 2513 3406 
Q 2513 3716 2298 3927 
Q 2084 4138 1766 4138 
Q 1444 4138 1231 3931 
Q 1019 3725 1019 3438 
z
M 838 1322 
Q 838 1081 952 856 
Q 1066 631 1291 507 
Q 1516 384 1775 384 
Q 2178 384 2440 643 
Q 2703 903 2703 1303 
Q 2703 1709 2433 1975 
Q 2163 2241 1756 2241 
Q 1359 2241 1098 1978 
Q 838 1716 838 1322 
z
" transform="scale(0.015625)"/>
      <path id="ArialMT-28" d="M 1497 -1347 
Q 1031 -759 709 28 
Q 388 816 388 1659 
Q 388 2403 628 3084 
Q 909 3875 1497 4659 
L 1900 4659 
Q 1522 4009 1400 3731 
Q 1209 3300 1100 2831 
Q 966 2247 966 1656 
Q 966 153 1900 -1347 
L 1497 -1347 
z
" transform="scale(0.015625)"/>
      <path id="ArialMT-29" d="M 791 -1347 
L 388 -1347 
Q 1322 153 1322 1656 
Q 1322 2244 1188 2822 
Q 1081 3291 891 3722 
Q 769 4003 388 4659 
L 791 4659 
Q 1378 3875 1659 3084 
Q 1900 2403 1900 1659 
Q 1900 816 1576 28 
Q 1253 -759 791 -1347 
z
" transform="scale(0.015625)"/>
     </defs>
     <use xlink:href="#ArialMT-4c"/>
     <use xlink:href="#ArialMT-4c" transform="translate(55.615234 0)"/>
     <use xlink:href="#ArialMT-4d" transform="translate(111.230469 0)"/>
     <use xlink:href="#ArialMT-2e" transform="translate(194.53125 0)"/>
     <use xlink:href="#ArialMT-69" transform="translate(222.314453 0)"/>
     <use xlink:href="#ArialMT-6e" transform="translate(244.53125 0)"/>
     <use xlink:href="#ArialMT-74" transform="translate(300.146484 0)"/>
     <use xlink:href="#ArialMT-38" transform="translate(327.929688 0)"/>
     <use xlink:href="#ArialMT-28" transform="translate(383.544922 0)"/>
     <use xlink:href="#ArialMT-29" transform="translate(416.845703 0)"/>
    </g>
    <!-- 6.4 GB · zero setup -->
    <g style="fill: #28253d" transform="translate(45.281943 156.792036) scale(0.07 -0.07)">
     <defs>
      <path id="ArialMT-36" d="M 3184 3459 
L 2625 3416 
Q 2550 3747 2413 3897 
Q 2184 4138 1850 4138 
Q 1581 4138 1378 3988 
Q 1113 3794 959 3422 
Q 806 3050 800 2363 
Q 1003 2672 1297 2822 
Q 1591 2972 1913 2972 
Q 2475 2972 2870 2558 
Q 3266 2144 3266 1488 
Q 3266 1056 3080 686 
Q 2894 316 2569 119 
Q 2244 -78 1831 -78 
Q 1128 -78 684 439 
Q 241 956 241 2144 
Q 241 3472 731 4075 
Q 1159 4600 1884 4600 
Q 2425 4600 2770 4297 
Q 3116 3994 3184 3459 
z
M 888 1484 
Q 888 1194 1011 928 
Q 1134 663 1356 523 
Q 1578 384 1822 384 
Q 2178 384 2434 671 
Q 2691 959 2691 1453 
Q 2691 1928 2437 2201 
Q 2184 2475 1800 2475 
Q 1419 2475 1153 2201 
Q 888 1928 888 1484 
z
" transform="scale(0.015625)"/>
      <path id="ArialMT-34" d="M 2069 0 
L 2069 1097 
L 81 1097 
L 81 1613 
L 2172 4581 
L 2631 4581 
L 2631 1613 
L 3250 1613 
L 3250 1097 
L 2631 1097 
L 2631 0 
L 2069 0 
z
M 2069 1613 
L 2069 3678 
L 634 1613 
L 2069 1613 
z
" transform="scale(0.015625)"/>
      <path id="ArialMT-47" d="M 2638 1797 
L 2638 2334 
L 4578 2338 
L 4578 638 
Q 4131 281 3656 101 
Q 3181 -78 2681 -78 
Q 2006 -78 1454 211 
Q 903 500 622 1047 
Q 341 1594 341 2269 
Q 341 2938 620 3517 
Q 900 4097 1425 4378 
Q 1950 4659 2634 4659 
Q 3131 4659 3532 4498 
Q 3934 4338 4162 4050 
Q 4391 3763 4509 3300 
L 3963 3150 
Q 3859 3500 3706 3700 
Q 3553 3900 3268 4020 
Q 2984 4141 2638 4141 
Q 2222 4141 1919 4014 
Q 1616 3888 1430 3681 
Q 1244 3475 1141 3228 
Q 966 2803 966 2306 
Q 966 1694 1177 1281 
Q 1388 869 1791 669 
Q 2194 469 2647 469 
Q 3041 469 3416 620 
Q 3791 772 3984 944 
L 3984 1797 
L 2638 1797 
z
" transform="scale(0.015625)"/>
      <path id="ArialMT-42" d="M 469 0 
L 469 4581 
L 2188 4581 
Q 2713 4581 3030 4442 
Q 3347 4303 3526 4014 
Q 3706 3725 3706 3409 
Q 3706 3116 3547 2856 
Q 3388 2597 3066 2438 
Q 3481 2316 3704 2022 
Q 3928 1728 3928 1328 
Q 3928 1006 3792 729 
Q 3656 453 3456 303 
Q 3256 153 2954 76 
Q 2653 0 2216 0 
L 469 0 
z
M 1075 2656 
L 2066 2656 
Q 2469 2656 2644 2709 
Q 2875 2778 2992 2937 
Q 3109 3097 3109 3338 
Q 3109 3566 3000 3739 
Q 2891 3913 2687 3977 
Q 2484 4041 1991 4041 
L 1075 4041 
L 1075 2656 
z
M 1075 541 
L 2216 541 
Q 2509 541 2628 563 
Q 2838 600 2978 687 
Q 3119 775 3209 942 
Q 3300 1109 3300 1328 
Q 3300 1584 3169 1773 
Q 3038 1963 2805 2039 
Q 2572 2116 2134 2116 
L 1075 2116 
L 1075 541 
z
" transform="scale(0.015625)"/>
      <path id="ArialMT-b7" d="M 744 1991 
L 744 2631 
L 1384 2631 
L 1384 1991 
L 744 1991 
z
" transform="scale(0.015625)"/>
      <path id="ArialMT-7a" d="M 125 0 
L 125 456 
L 2238 2881 
Q 1878 2863 1603 2863 
L 250 2863 
L 250 3319 
L 2963 3319 
L 2963 2947 
L 1166 841 
L 819 456 
Q 1197 484 1528 484 
L 3063 484 
L 3063 0 
L 125 0 
z
" transform="scale(0.015625)"/>
     </defs>
     <use xlink:href="#ArialMT-36"/>
     <use xlink:href="#ArialMT-2e" transform="translate(55.615234 0)"/>
     <use xlink:href="#ArialMT-34" transform="translate(83.398438 0)"/>
     <use xlink:href="#ArialMT-20" transform="translate(139.013672 0)"/>
     <use xlink:href="#ArialMT-47" transform="translate(166.796875 0)"/>
     <use xlink:href="#ArialMT-42" transform="translate(244.580078 0)"/>
     <use xlink:href="#ArialMT-20" transform="translate(311.279297 0)"/>
     <use xlink:href="#ArialMT-b7" transform="translate(339.0625 0)"/>
     <use xlink:href="#ArialMT-20" transform="translate(372.363281 0)"/>
     <use xlink:href="#ArialMT-7a" transform="translate(400.146484 0)"/>
     <use xlink:href="#ArialMT-65" transform="translate(450.146484 0)"/>
     <use xlink:href="#ArialMT-72" transform="translate(505.761719 0)"/>
     <use xlink:href="#ArialMT-6f" transform="translate(539.0625 0)"/>
     <use xlink:href="#ArialMT-20" transform="translate(594.677734 0)"/>
     <use xlink:href="#ArialMT-73" transform="translate(622.460938 0)"/>
     <use xlink:href="#ArialMT-65" transform="translate(672.460938 0)"/>
     <use xlink:href="#ArialMT-74" transform="translate(728.076172 0)"/>
     <use xlink:href="#ArialMT-75" transform="translate(755.859375 0)"/>
     <use xlink:href="#ArialMT-70" transform="translate(811.474609 0)"/>
    </g>
   </g>
   <g id="text_4">
    <!-- Is model memory -->
    <g style="fill: #28253d" transform="translate(257.719256 146.266278) scale(0.07 -0.07)">
     <defs>
      <path id="ArialMT-49" d="M 597 0 
L 597 4581 
L 1203 4581 
L 1203 0 
L 597 0 
z
" transform="scale(0.015625)"/>
     </defs>
     <use xlink:href="#ArialMT-49"/>
     <use xlink:href="#ArialMT-73" transform="translate(27.783203 0)"/>
     <use xlink:href="#ArialMT-20" transform="translate(77.783203 0)"/>
     <use xlink:href="#ArialMT-6d" transform="translate(105.566406 0)"/>
     <use xlink:href="#ArialMT-6f" transform="translate(188.867188 0)"/>
     <use xlink:href="#ArialMT-64" transform="translate(244.482422 0)"/>
     <use xlink:href="#ArialMT-65" transform="translate(300.097656 0)"/>
     <use xlink:href="#ArialMT-6c" transform="translate(355.712891 0)"/>
     <use xlink:href="#ArialMT-20" transform="translate(377.929688 0)"/>
     <use xlink:href="#ArialMT-6d" transform="translate(405.712891 0)"/>
     <use xlink:href="#ArialMT-65" transform="translate(489.013672 0)"/>
     <use xlink:href="#ArialMT-6d" transform="translate(544.628906 0)"/>
     <use xlink:href="#ArialMT-6f" transform="translate(627.929688 0)"/>
     <use xlink:href="#ArialMT-72" transform="translate(683.544922 0)"/>
     <use xlink:href="#ArialMT-79" transform="translate(716.845703 0)"/>
    </g>
    <!-- the bottleneck? -->
    <g style="fill: #28253d" transform="translate(260.81949 153.251075) scale(0.07 -0.07)">
     <defs>
      <path id="ArialMT-6b" d="M 425 0 
L 425 4581 
L 988 4581 
L 988 1969 
L 2319 3319 
L 3047 3319 
L 1778 2088 
L 3175 0 
L 2481 0 
L 1384 1697 
L 988 1316 
L 988 0 
L 425 0 
z
" transform="scale(0.015625)"/>
     </defs>
     <use xlink:href="#ArialMT-74"/>
     <use xlink:href="#ArialMT-68" transform="translate(27.783203 0)"/>
     <use xlink:href="#ArialMT-65" transform="translate(83.398438 0)"/>
     <use xlink:href="#ArialMT-20" transform="translate(139.013672 0)"/>
     <use xlink:href="#ArialMT-62" transform="translate(166.796875 0)"/>
     <use xlink:href="#ArialMT-6f" transform="translate(222.412109 0)"/>
     <use xlink:href="#ArialMT-74" transform="translate(278.027344 0)"/>
     <use xlink:href="#ArialMT-74" transform="translate(305.810547 0)"/>
     <use xlink:href="#ArialMT-6c" transform="translate(333.59375 0)"/>
     <use xlink:href="#ArialMT-65" transform="translate(355.810547 0)"/>
     <use xlink:href="#ArialMT-6e" transform="translate(411.425781 0)"/>
     <use xlink:href="#ArialMT-65" transform="translate(467.041016 0)"/>
     <use xlink:href="#ArialMT-63" transform="translate(522.65625 0)"/>
     <use xlink:href="#ArialMT-6b" transform="translate(572.65625 0)"/>
     <use xlink:href="#ArialMT-3f" transform="translate(622.65625 0)"/>
    </g>
    <!-- Need INT4 -->
    <g style="fill: #28253d" transform="translate(267.6341 160.153841) scale(0.07 -0.07)">
     <defs>
      <path id="ArialMT-54" d="M 1659 0 
L 1659 4041 
L 150 4041 
L 150 4581 
L 3781 4581 
L 3781 4041 
L 2266 4041 
L 2266 0 
L 1659 0 
z
" transform="scale(0.015625)"/>
     </defs>
     <use xlink:href="#ArialMT-4e"/>
     <use xlink:href="#ArialMT-65" transform="translate(72.216797 0)"/>
     <use xlink:href="#ArialMT-65" transform="translate(127.832031 0)"/>
     <use xlink:href="#ArialMT-64" transform="translate(183.447266 0)"/>
     <use xlink:href="#ArialMT-20" transform="translate(239.0625 0)"/>
     <use xlink:href="#ArialMT-49" transform="translate(266.845703 0)"/>
     <use xlink:href="#ArialMT-4e" transform="translate(294.628906 0)"/>
     <use xlink:href="#ArialMT-54" transform="translate(366.845703 0)"/>
     <use xlink:href="#ArialMT-34" transform="translate(427.929688 0)"/>
    </g>
   </g>
   <g id="text_5">
    <!-- Broad or unpredictable -->
    <g style="fill: #28253d" transform="translate(249.148084 204.596608) scale(0.07 -0.07)">
     <use xlink:href="#ArialMT-42"/>
     <use xlink:href="#ArialMT-72" transform="translate(66.699219 0)"/>
     <use xlink:href="#ArialMT-6f" transform="translate(100 0)"/>
     <use xlink:href="#ArialMT-61" transform="translate(155.615234 0)"/>
     <use xlink:href="#ArialMT-64" transform="translate(211.230469 0)"/>
     <use xlink:href="#ArialMT-20" transform="translate(266.845703 0)"/>
     <use xlink:href="#ArialMT-6f" transform="translate(294.628906 0)"/>
     <use xlink:href="#ArialMT-72" transform="translate(350.244141 0)"/>
     <use xlink:href="#ArialMT-20" transform="translate(383.544922 0)"/>
     <use xlink:href="#ArialMT-75" transform="translate(411.328125 0)"/>
     <use xlink:href="#ArialMT-6e" transform="translate(466.943359 0)"/>
     <use xlink:href="#ArialMT-70" transform="translate(522.558594 0)"/>
     <use xlink:href="#ArialMT-72" transform="translate(578.173828 0)"/>
     <use xlink:href="#ArialMT-65" transform="translate(611.474609 0)"/>
     <use xlink:href="#ArialMT-64" transform="translate(667.089844 0)"/>
     <use xlink:href="#ArialMT-69" transform="translate(722.705078 0)"/>
     <use xlink:href="#ArialMT-63" transform="translate(744.921875 0)"/>
     <use xlink:href="#ArialMT-74" transform="translate(794.921875 0)"/>
     <use xlink:href="#ArialMT-61" transform="translate(822.705078 0)"/>
     <use xlink:href="#ArialMT-62" transform="translate(878.320312 0)"/>
     <use xlink:href="#ArialMT-6c" transform="translate(933.935547 0)"/>
     <use xlink:href="#ArialMT-65" transform="translate(956.152344 0)"/>
    </g>
    <!-- deployment distribution? -->
    <g style="fill: #28253d" transform="translate(246.620428 211.593217) scale(0.07 -0.07)">
     <use xlink:href="#ArialMT-64"/>
     <use xlink:href="#ArialMT-65" transform="translate(55.615234 0)"/>
     <use xlink:href="#ArialMT-70" transform="translate(111.230469 0)"/>
     <use xlink:href="#ArialMT-6c" transform="translate(166.845703 0)"/>
     <use xlink:href="#ArialMT-6f" transform="translate(189.0625 0)"/>
     <use xlink:href="#ArialMT-79" transform="translate(244.677734 0)"/>
     <use xlink:href="#ArialMT-6d" transform="translate(294.677734 0)"/>
     <use xlink:href="#ArialMT-65" transform="translate(377.978516 0)"/>
     <use xlink:href="#ArialMT-6e" transform="translate(433.59375 0)"/>
     <use xlink:href="#ArialMT-74" transform="translate(489.208984 0)"/>
     <use xlink:href="#ArialMT-20" transform="translate(516.992188 0)"/>
     <use xlink:href="#ArialMT-64" transform="translate(544.775391 0)"/>
     <use xlink:href="#ArialMT-69" transform="translate(600.390625 0)"/>
     <use xlink:href="#ArialMT-73" transform="translate(622.607422 0)"/>
     <use xlink:href="#ArialMT-74" transform="translate(672.607422 0)"/>
     <use xlink:href="#ArialMT-72" transform="translate(700.390625 0)"/>
     <use xlink:href="#ArialMT-69" transform="translate(733.691406 0)"/>
     <use xlink:href="#ArialMT-62" transform="translate(755.908203 0)"/>
     <use xlink:href="#ArialMT-75" transform="translate(811.523438 0)"/>
     <use xlink:href="#ArialMT-74" transform="translate(867.138672 0)"/>
     <use xlink:href="#ArialMT-69" transform="translate(894.921875 0)"/>
     <use xlink:href="#ArialMT-6f" transform="translate(917.138672 0)"/>
     <use xlink:href="#ArialMT-6e" transform="translate(972.753906 0)"/>
     <use xlink:href="#ArialMT-3f" transform="translate(1028.369141 0)"/>
    </g>
    <!-- Chatbot · multi-domain -->
    <g style="fill: #28253d" transform="translate(249.156287 218.578014) scale(0.07 -0.07)">
     <defs>
      <path id="ArialMT-43" d="M 3763 1606 
L 4369 1453 
Q 4178 706 3683 314 
Q 3188 -78 2472 -78 
Q 1731 -78 1267 223 
Q 803 525 561 1097 
Q 319 1669 319 2325 
Q 319 3041 592 3573 
Q 866 4106 1370 4382 
Q 1875 4659 2481 4659 
Q 3169 4659 3637 4309 
Q 4106 3959 4291 3325 
L 3694 3184 
Q 3534 3684 3231 3912 
Q 2928 4141 2469 4141 
Q 1941 4141 1586 3887 
Q 1231 3634 1087 3207 
Q 944 2781 944 2328 
Q 944 1744 1114 1308 
Q 1284 872 1643 656 
Q 2003 441 2422 441 
Q 2931 441 3284 734 
Q 3638 1028 3763 1606 
z
" transform="scale(0.015625)"/>
      <path id="ArialMT-2d" d="M 203 1375 
L 203 1941 
L 1931 1941 
L 1931 1375 
L 203 1375 
z
" transform="scale(0.015625)"/>
     </defs>
     <use xlink:href="#ArialMT-43"/>
     <use xlink:href="#ArialMT-68" transform="translate(72.216797 0)"/>
     <use xlink:href="#ArialMT-61" transform="translate(127.832031 0)"/>
     <use xlink:href="#ArialMT-74" transform="translate(183.447266 0)"/>
     <use xlink:href="#ArialMT-62" transform="translate(211.230469 0)"/>
     <use xlink:href="#ArialMT-6f" transform="translate(266.845703 0)"/>
     <use xlink:href="#ArialMT-74" transform="translate(322.460938 0)"/>
     <use xlink:href="#ArialMT-20" transform="translate(350.244141 0)"/>
     <use xlink:href="#ArialMT-b7" transform="translate(378.027344 0)"/>
     <use xlink:href="#ArialMT-20" transform="translate(411.328125 0)"/>
     <use xlink:href="#ArialMT-6d" transform="translate(439.111328 0)"/>
     <use xlink:href="#ArialMT-75" transform="translate(522.412109 0)"/>
     <use xlink:href="#ArialMT-6c" transform="translate(578.027344 0)"/>
     <use xlink:href="#ArialMT-74" transform="translate(600.244141 0)"/>
     <use xlink:href="#ArialMT-69" transform="translate(628.027344 0)"/>
     <use xlink:href="#ArialMT-2d" transform="translate(650.244141 0)"/>
     <use xlink:href="#ArialMT-64" transform="translate(683.544922 0)"/>
     <use xlink:href="#ArialMT-6f" transform="translate(739.160156 0)"/>
     <use xlink:href="#ArialMT-6d" transform="translate(794.775391 0)"/>
     <use xlink:href="#ArialMT-61" transform="translate(878.076172 0)"/>
     <use xlink:href="#ArialMT-69" transform="translate(933.691406 0)"/>
     <use xlink:href="#ArialMT-6e" transform="translate(955.908203 0)"/>
    </g>
   </g>
   <g id="text_6">
    <!-- AWQ 4-bit g128 -->
    <g style="fill: #28253d" transform="translate(112.310353 268.053251) scale(0.07 -0.07)">
     <defs>
      <path id="ArialMT-41" d="M -9 0 
L 1750 4581 
L 2403 4581 
L 4278 0 
L 3588 0 
L 3053 1388 
L 1138 1388 
L 634 0 
L -9 0 
z
M 1313 1881 
L 2866 1881 
L 2388 3150 
Q 2169 3728 2063 4100 
Q 1975 3659 1816 3225 
L 1313 1881 
z
" transform="scale(0.015625)"/>
      <path id="ArialMT-51" d="M 3966 491 
Q 4388 200 4744 66 
L 4566 -356 
Q 4072 -178 3581 206 
Q 3072 -78 2456 -78 
Q 1834 -78 1328 222 
Q 822 522 548 1065 
Q 275 1609 275 2291 
Q 275 2969 550 3525 
Q 825 4081 1333 4372 
Q 1841 4663 2469 4663 
Q 3103 4663 3612 4361 
Q 4122 4059 4389 3517 
Q 4656 2975 4656 2294 
Q 4656 1728 4484 1276 
Q 4313 825 3966 491 
z
M 2631 1266 
Q 3156 1119 3497 828 
Q 4031 1316 4031 2294 
Q 4031 2850 3842 3265 
Q 3653 3681 3289 3911 
Q 2925 4141 2472 4141 
Q 1794 4141 1347 3677 
Q 900 3213 900 2291 
Q 900 1397 1342 919 
Q 1784 441 2472 441 
Q 2797 441 3084 563 
Q 2800 747 2484 825 
L 2631 1266 
z
" transform="scale(0.015625)"/>
      <path id="ArialMT-31" d="M 2384 0 
L 1822 0 
L 1822 3584 
Q 1619 3391 1289 3197 
Q 959 3003 697 2906 
L 697 3450 
Q 1169 3672 1522 3987 
Q 1875 4303 2022 4600 
L 2384 4600 
L 2384 0 
z
" transform="scale(0.015625)"/>
      <path id="ArialMT-32" d="M 3222 541 
L 3222 0 
L 194 0 
Q 188 203 259 391 
Q 375 700 629 1000 
Q 884 1300 1366 1694 
Q 2113 2306 2375 2664 
Q 2638 3022 2638 3341 
Q 2638 3675 2398 3904 
Q 2159 4134 1775 4134 
Q 1369 4134 1125 3890 
Q 881 3647 878 3216 
L 300 3275 
Q 359 3922 746 4261 
Q 1134 4600 1788 4600 
Q 2447 4600 2831 4234 
Q 3216 3869 3216 3328 
Q 3216 3053 3103 2787 
Q 2991 2522 2730 2228 
Q 2469 1934 1863 1422 
Q 1356 997 1212 845 
Q 1069 694 975 541 
L 3222 541 
z
" transform="scale(0.015625)"/>
     </defs>
     <use xlink:href="#ArialMT-41"/>
     <use xlink:href="#ArialMT-57" transform="translate(62.949219 0)"/>
     <use xlink:href="#ArialMT-51" transform="translate(157.333984 0)"/>
     <use xlink:href="#ArialMT-20" transform="translate(235.117188 0)"/>
     <use xlink:href="#ArialMT-34" transform="translate(262.900391 0)"/>
     <use xlink:href="#ArialMT-2d" transform="translate(318.515625 0)"/>
     <use xlink:href="#ArialMT-62" transform="translate(351.816406 0)"/>
     <use xlink:href="#ArialMT-69" transform="translate(407.431641 0)"/>
     <use xlink:href="#ArialMT-74" transform="translate(429.648438 0)"/>
     <use xlink:href="#ArialMT-20" transform="translate(457.431641 0)"/>
     <use xlink:href="#ArialMT-67" transform="translate(485.214844 0)"/>
     <use xlink:href="#ArialMT-31" transform="translate(540.830078 0)"/>
     <use xlink:href="#ArialMT-32" transform="translate(596.445312 0)"/>
     <use xlink:href="#ArialMT-38" transform="translate(652.060547 0)"/>
    </g>
    <!-- 3.6 GB · domain-robust -->
    <g style="fill: #28253d" transform="translate(100.702931 275.038048) scale(0.07 -0.07)">
     <defs>
      <path id="ArialMT-33" d="M 269 1209 
L 831 1284 
Q 928 806 1161 595 
Q 1394 384 1728 384 
Q 2125 384 2398 659 
Q 2672 934 2672 1341 
Q 2672 1728 2419 1979 
Q 2166 2231 1775 2231 
Q 1616 2231 1378 2169 
L 1441 2663 
Q 1497 2656 1531 2656 
Q 1891 2656 2178 2843 
Q 2466 3031 2466 3422 
Q 2466 3731 2256 3934 
Q 2047 4138 1716 4138 
Q 1388 4138 1169 3931 
Q 950 3725 888 3313 
L 325 3413 
Q 428 3978 793 4289 
Q 1159 4600 1703 4600 
Q 2078 4600 2393 4439 
Q 2709 4278 2876 4000 
Q 3044 3722 3044 3409 
Q 3044 3113 2884 2869 
Q 2725 2625 2413 2481 
Q 2819 2388 3044 2092 
Q 3269 1797 3269 1353 
Q 3269 753 2831 336 
Q 2394 -81 1725 -81 
Q 1122 -81 723 278 
Q 325 638 269 1209 
z
" transform="scale(0.015625)"/>
     </defs>
     <use xlink:href="#ArialMT-33"/>
     <use xlink:href="#ArialMT-2e" transform="translate(55.615234 0)"/>
     <use xlink:href="#ArialMT-36" transform="translate(83.398438 0)"/>
     <use xlink:href="#ArialMT-20" transform="translate(139.013672 0)"/>
     <use xlink:href="#ArialMT-47" transform="translate(166.796875 0)"/>
     <use xlink:href="#ArialMT-42" transform="translate(244.580078 0)"/>
     <use xlink:href="#ArialMT-20" transform="translate(311.279297 0)"/>
     <use xlink:href="#ArialMT-b7" transform="translate(339.0625 0)"/>
     <use xlink:href="#ArialMT-20" transform="translate(372.363281 0)"/>
     <use xlink:href="#ArialMT-64" transform="translate(400.146484 0)"/>
     <use xlink:href="#ArialMT-6f" transform="translate(455.761719 0)"/>
     <use xlink:href="#ArialMT-6d" transform="translate(511.376953 0)"/>
     <use xlink:href="#ArialMT-61" transform="translate(594.677734 0)"/>
     <use xlink:href="#ArialMT-69" transform="translate(650.292969 0)"/>
     <use xlink:href="#ArialMT-6e" transform="translate(672.509766 0)"/>
     <use xlink:href="#ArialMT-2d" transform="translate(728.125 0)"/>
     <use xlink:href="#ArialMT-72" transform="translate(761.425781 0)"/>
     <use xlink:href="#ArialMT-6f" transform="translate(794.726562 0)"/>
     <use xlink:href="#ArialMT-62" transform="translate(850.341797 0)"/>
     <use xlink:href="#ArialMT-75" transform="translate(905.957031 0)"/>
     <use xlink:href="#ArialMT-73" transform="translate(961.572266 0)"/>
     <use xlink:href="#ArialMT-74" transform="translate(1011.572266 0)"/>
    </g>
   </g>
   <g id="text_7">
    <!-- Need maximum -->
    <g style="fill: #28253d" transform="translate(281.559086 264.510103) scale(0.07 -0.07)">
     <defs>
      <path id="ArialMT-78" d="M 47 0 
L 1259 1725 
L 138 3319 
L 841 3319 
L 1350 2541 
Q 1494 2319 1581 2169 
Q 1719 2375 1834 2534 
L 2394 3319 
L 3066 3319 
L 1919 1756 
L 3153 0 
L 2463 0 
L 1781 1031 
L 1600 1309 
L 728 0 
L 47 0 
z
" transform="scale(0.015625)"/>
     </defs>
     <use xlink:href="#ArialMT-4e"/>
     <use xlink:href="#ArialMT-65" transform="translate(72.216797 0)"/>
     <use xlink:href="#ArialMT-65" transform="translate(127.832031 0)"/>
     <use xlink:href="#ArialMT-64" transform="translate(183.447266 0)"/>
     <use xlink:href="#ArialMT-20" transform="translate(239.0625 0)"/>
     <use xlink:href="#ArialMT-6d" transform="translate(266.845703 0)"/>
     <use xlink:href="#ArialMT-61" transform="translate(350.146484 0)"/>
     <use xlink:href="#ArialMT-78" transform="translate(405.761719 0)"/>
     <use xlink:href="#ArialMT-69" transform="translate(455.761719 0)"/>
     <use xlink:href="#ArialMT-6d" transform="translate(477.978516 0)"/>
     <use xlink:href="#ArialMT-75" transform="translate(561.279297 0)"/>
     <use xlink:href="#ArialMT-6d" transform="translate(616.894531 0)"/>
    </g>
    <!-- per-layer accuracy? -->
    <g style="fill: #28253d" transform="translate(275.332367 271.506712) scale(0.07 -0.07)">
     <use xlink:href="#ArialMT-70"/>
     <use xlink:href="#ArialMT-65" transform="translate(55.615234 0)"/>
     <use xlink:href="#ArialMT-72" transform="translate(111.230469 0)"/>
     <use xlink:href="#ArialMT-2d" transform="translate(144.53125 0)"/>
     <use xlink:href="#ArialMT-6c" transform="translate(177.832031 0)"/>
     <use xlink:href="#ArialMT-61" transform="translate(200.048828 0)"/>
     <use xlink:href="#ArialMT-79" transform="translate(255.664062 0)"/>
     <use xlink:href="#ArialMT-65" transform="translate(305.664062 0)"/>
     <use xlink:href="#ArialMT-72" transform="translate(361.279297 0)"/>
     <use xlink:href="#ArialMT-20" transform="translate(394.580078 0)"/>
     <use xlink:href="#ArialMT-61" transform="translate(422.363281 0)"/>
     <use xlink:href="#ArialMT-63" transform="translate(477.978516 0)"/>
     <use xlink:href="#ArialMT-63" transform="translate(527.978516 0)"/>
     <use xlink:href="#ArialMT-75" transform="translate(577.978516 0)"/>
     <use xlink:href="#ArialMT-72" transform="translate(633.59375 0)"/>
     <use xlink:href="#ArialMT-61" transform="translate(666.894531 0)"/>
     <use xlink:href="#ArialMT-63" transform="translate(722.509766 0)"/>
     <use xlink:href="#ArialMT-79" transform="translate(772.509766 0)"/>
     <use xlink:href="#ArialMT-3f" transform="translate(822.509766 0)"/>
    </g>
    <!-- Sub-4-bit · narrow domain -->
    <g style="fill: #28253d" transform="translate(265.605649 278.491509) scale(0.07 -0.07)">
     <defs>
      <path id="ArialMT-53" d="M 288 1472 
L 859 1522 
Q 900 1178 1048 958 
Q 1197 738 1509 602 
Q 1822 466 2213 466 
Q 2559 466 2825 569 
Q 3091 672 3220 851 
Q 3350 1031 3350 1244 
Q 3350 1459 3225 1620 
Q 3100 1781 2813 1891 
Q 2628 1963 1997 2114 
Q 1366 2266 1113 2400 
Q 784 2572 623 2826 
Q 463 3081 463 3397 
Q 463 3744 659 4045 
Q 856 4347 1234 4503 
Q 1613 4659 2075 4659 
Q 2584 4659 2973 4495 
Q 3363 4331 3572 4012 
Q 3781 3694 3797 3291 
L 3216 3247 
Q 3169 3681 2898 3903 
Q 2628 4125 2100 4125 
Q 1550 4125 1298 3923 
Q 1047 3722 1047 3438 
Q 1047 3191 1225 3031 
Q 1400 2872 2139 2705 
Q 2878 2538 3153 2413 
Q 3553 2228 3743 1945 
Q 3934 1663 3934 1294 
Q 3934 928 3725 604 
Q 3516 281 3123 101 
Q 2731 -78 2241 -78 
Q 1619 -78 1198 103 
Q 778 284 539 648 
Q 300 1013 288 1472 
z
" transform="scale(0.015625)"/>
      <path id="ArialMT-77" d="M 1034 0 
L 19 3319 
L 600 3319 
L 1128 1403 
L 1325 691 
Q 1338 744 1497 1375 
L 2025 3319 
L 2603 3319 
L 3100 1394 
L 3266 759 
L 3456 1400 
L 4025 3319 
L 4572 3319 
L 3534 0 
L 2950 0 
L 2422 1988 
L 2294 2553 
L 1622 0 
L 1034 0 
z
" transform="scale(0.015625)"/>
     </defs>
     <use xlink:href="#ArialMT-53"/>
     <use xlink:href="#ArialMT-75" transform="translate(66.699219 0)"/>
     <use xlink:href="#ArialMT-62" transform="translate(122.314453 0)"/>
     <use xlink:href="#ArialMT-2d" transform="translate(177.929688 0)"/>
     <use xlink:href="#ArialMT-34" transform="translate(211.230469 0)"/>
     <use xlink:href="#ArialMT-2d" transform="translate(266.845703 0)"/>
     <use xlink:href="#ArialMT-62" transform="translate(300.146484 0)"/>
     <use xlink:href="#ArialMT-69" transform="translate(355.761719 0)"/>
     <use xlink:href="#ArialMT-74" transform="translate(377.978516 0)"/>
     <use xlink:href="#ArialMT-20" transform="translate(405.761719 0)"/>
     <use xlink:href="#ArialMT-b7" transform="translate(433.544922 0)"/>
     <use xlink:href="#ArialMT-20" transform="translate(466.845703 0)"/>
     <use xlink:href="#ArialMT-6e" transform="translate(494.628906 0)"/>
     <use xlink:href="#ArialMT-61" transform="translate(550.244141 0)"/>
     <use xlink:href="#ArialMT-72" transform="translate(605.859375 0)"/>
     <use xlink:href="#ArialMT-72" transform="translate(639.160156 0)"/>
     <use xlink:href="#ArialMT-6f" transform="translate(672.460938 0)"/>
     <use xlink:href="#ArialMT-77" transform="translate(728.076172 0)"/>
     <use xlink:href="#ArialMT-20" transform="translate(800.292969 0)"/>
     <use xlink:href="#ArialMT-64" transform="translate(828.076172 0)"/>
     <use xlink:href="#ArialMT-6f" transform="translate(883.691406 0)"/>
     <use xlink:href="#ArialMT-6d" transform="translate(939.306641 0)"/>
     <use xlink:href="#ArialMT-61" transform="translate(1022.607422 0)"/>
     <use xlink:href="#ArialMT-69" transform="translate(1078.222656 0)"/>
     <use xlink:href="#ArialMT-6e" transform="translate(1100.439453 0)"/>
    </g>
   </g>
   <g id="text_8">
    <!-- GPTQ 4-bit g128 -->
    <g style="fill: #28253d" transform="translate(279.609477 327.919824) scale(0.07 -0.07)">
     <defs>
      <path id="ArialMT-50" d="M 494 0 
L 494 4581 
L 2222 4581 
Q 2678 4581 2919 4538 
Q 3256 4481 3484 4323 
Q 3713 4166 3852 3881 
Q 3991 3597 3991 3256 
Q 3991 2672 3619 2267 
Q 3247 1863 2275 1863 
L 1100 1863 
L 1100 0 
L 494 0 
z
M 1100 2403 
L 2284 2403 
Q 2872 2403 3119 2622 
Q 3366 2841 3366 3238 
Q 3366 3525 3220 3729 
Q 3075 3934 2838 4000 
Q 2684 4041 2272 4041 
L 1100 4041 
L 1100 2403 
z
" transform="scale(0.015625)"/>
     </defs>
     <use xlink:href="#ArialMT-47"/>
     <use xlink:href="#ArialMT-50" transform="translate(77.783203 0)"/>
     <use xlink:href="#ArialMT-54" transform="translate(144.482422 0)"/>
     <use xlink:href="#ArialMT-51" transform="translate(205.566406 0)"/>
     <use xlink:href="#ArialMT-20" transform="translate(283.349609 0)"/>
     <use xlink:href="#ArialMT-34" transform="translate(311.132812 0)"/>
     <use xlink:href="#ArialMT-2d" transform="translate(366.748047 0)"/>
     <use xlink:href="#ArialMT-62" transform="translate(400.048828 0)"/>
     <use xlink:href="#ArialMT-69" transform="translate(455.664062 0)"/>
     <use xlink:href="#ArialMT-74" transform="translate(477.880859 0)"/>
     <use xlink:href="#ArialMT-20" transform="translate(505.664062 0)"/>
     <use xlink:href="#ArialMT-67" transform="translate(533.447266 0)"/>
     <use xlink:href="#ArialMT-31" transform="translate(589.0625 0)"/>
     <use xlink:href="#ArialMT-32" transform="translate(644.677734 0)"/>
     <use xlink:href="#ArialMT-38" transform="translate(700.292969 0)"/>
    </g>
    <!-- 3.6 GB · Hessian-optimal -->
    <g style="fill: #28253d" transform="translate(266.968461 334.998465) scale(0.07 -0.07)">
     <defs>
      <path id="ArialMT-48" d="M 513 0 
L 513 4581 
L 1119 4581 
L 1119 2700 
L 3500 2700 
L 3500 4581 
L 4106 4581 
L 4106 0 
L 3500 0 
L 3500 2159 
L 1119 2159 
L 1119 0 
L 513 0 
z
" transform="scale(0.015625)"/>
     </defs>
     <use xlink:href="#ArialMT-33"/>
     <use xlink:href="#ArialMT-2e" transform="translate(55.615234 0)"/>
     <use xlink:href="#ArialMT-36" transform="translate(83.398438 0)"/>
     <use xlink:href="#ArialMT-20" transform="translate(139.013672 0)"/>
     <use xlink:href="#ArialMT-47" transform="translate(166.796875 0)"/>
     <use xlink:href="#ArialMT-42" transform="translate(244.580078 0)"/>
     <use xlink:href="#ArialMT-20" transform="translate(311.279297 0)"/>
     <use xlink:href="#ArialMT-b7" transform="translate(339.0625 0)"/>
     <use xlink:href="#ArialMT-20" transform="translate(372.363281 0)"/>
     <use xlink:href="#ArialMT-48" transform="translate(400.146484 0)"/>
     <use xlink:href="#ArialMT-65" transform="translate(472.363281 0)"/>
     <use xlink:href="#ArialMT-73" transform="translate(527.978516 0)"/>
     <use xlink:href="#ArialMT-73" transform="translate(577.978516 0)"/>
     <use xlink:href="#ArialMT-69" transform="translate(627.978516 0)"/>
     <use xlink:href="#ArialMT-61" transform="translate(650.195312 0)"/>
     <use xlink:href="#ArialMT-6e" transform="translate(705.810547 0)"/>
     <use xlink:href="#ArialMT-2d" transform="translate(761.425781 0)"/>
     <use xlink:href="#ArialMT-6f" transform="translate(794.726562 0)"/>
     <use xlink:href="#ArialMT-70" transform="translate(850.341797 0)"/>
     <use xlink:href="#ArialMT-74" transform="translate(905.957031 0)"/>
     <use xlink:href="#ArialMT-69" transform="translate(933.740234 0)"/>
     <use xlink:href="#ArialMT-6d" transform="translate(955.957031 0)"/>
     <use xlink:href="#ArialMT-61" transform="translate(1039.257812 0)"/>
     <use xlink:href="#ArialMT-6c" transform="translate(1094.873047 0)"/>
    </g>
   </g>
   <g id="text_9">
    <!-- Is KV cache memory -->
    <g style="fill: #28253d" transform="translate(169.313594 391.88695) scale(0.07 -0.07)">
     <defs>
      <path id="ArialMT-4b" d="M 469 0 
L 469 4581 
L 1075 4581 
L 1075 2309 
L 3350 4581 
L 4172 4581 
L 2250 2725 
L 4256 0 
L 3456 0 
L 1825 2319 
L 1075 1588 
L 1075 0 
L 469 0 
z
" transform="scale(0.015625)"/>
      <path id="ArialMT-56" d="M 1803 0 
L 28 4581 
L 684 4581 
L 1875 1253 
Q 2019 853 2116 503 
Q 2222 878 2363 1253 
L 3600 4581 
L 4219 4581 
L 2425 0 
L 1803 0 
z
" transform="scale(0.015625)"/>
     </defs>
     <use xlink:href="#ArialMT-49"/>
     <use xlink:href="#ArialMT-73" transform="translate(27.783203 0)"/>
     <use xlink:href="#ArialMT-20" transform="translate(77.783203 0)"/>
     <use xlink:href="#ArialMT-4b" transform="translate(105.566406 0)"/>
     <use xlink:href="#ArialMT-56" transform="translate(172.265625 0)"/>
     <use xlink:href="#ArialMT-20" transform="translate(238.964844 0)"/>
     <use xlink:href="#ArialMT-63" transform="translate(266.748047 0)"/>
     <use xlink:href="#ArialMT-61" transform="translate(316.748047 0)"/>
     <use xlink:href="#ArialMT-63" transform="translate(372.363281 0)"/>
     <use xlink:href="#ArialMT-68" transform="translate(422.363281 0)"/>
     <use xlink:href="#ArialMT-65" transform="translate(477.978516 0)"/>
     <use xlink:href="#ArialMT-20" transform="translate(533.59375 0)"/>
     <use xlink:href="#ArialMT-6d" transform="translate(561.376953 0)"/>
     <use xlink:href="#ArialMT-65" transform="translate(644.677734 0)"/>
     <use xlink:href="#ArialMT-6d" transform="translate(700.292969 0)"/>
     <use xlink:href="#ArialMT-6f" transform="translate(783.59375 0)"/>
     <use xlink:href="#ArialMT-72" transform="translate(839.208984 0)"/>
     <use xlink:href="#ArialMT-79" transform="translate(872.509766 0)"/>
    </g>
    <!-- limiting concurrent users? -->
    <g style="fill: #28253d" transform="translate(161.725156 398.965591) scale(0.07 -0.07)">
     <use xlink:href="#ArialMT-6c"/>
     <use xlink:href="#ArialMT-69" transform="translate(22.216797 0)"/>
     <use xlink:href="#ArialMT-6d" transform="translate(44.433594 0)"/>
     <use xlink:href="#ArialMT-69" transform="translate(127.734375 0)"/>
     <use xlink:href="#ArialMT-74" transform="translate(149.951172 0)"/>
     <use xlink:href="#ArialMT-69" transform="translate(177.734375 0)"/>
     <use xlink:href="#ArialMT-6e" transform="translate(199.951172 0)"/>
     <use xlink:href="#ArialMT-67" transform="translate(255.566406 0)"/>
     <use xlink:href="#ArialMT-20" transform="translate(311.181641 0)"/>
     <use xlink:href="#ArialMT-63" transform="translate(338.964844 0)"/>
     <use xlink:href="#ArialMT-6f" transform="translate(388.964844 0)"/>
     <use xlink:href="#ArialMT-6e" transform="translate(444.580078 0)"/>
     <use xlink:href="#ArialMT-63" transform="translate(500.195312 0)"/>
     <use xlink:href="#ArialMT-75" transform="translate(550.195312 0)"/>
     <use xlink:href="#ArialMT-72" transform="translate(605.810547 0)"/>
     <use xlink:href="#ArialMT-72" transform="translate(639.111328 0)"/>
     <use xlink:href="#ArialMT-65" transform="translate(672.412109 0)"/>
     <use xlink:href="#ArialMT-6e" transform="translate(728.027344 0)"/>
     <use xlink:href="#ArialMT-74" transform="translate(783.642578 0)"/>
     <use xlink:href="#ArialMT-20" transform="translate(811.425781 0)"/>
     <use xlink:href="#ArialMT-75" transform="translate(839.208984 0)"/>
     <use xlink:href="#ArialMT-73" transform="translate(894.824219 0)"/>
     <use xlink:href="#ArialMT-65" transform="translate(944.824219 0)"/>
     <use xlink:href="#ArialMT-72" transform="translate(1000.439453 0)"/>
     <use xlink:href="#ArialMT-73" transform="translate(1033.740234 0)"/>
     <use xlink:href="#ArialMT-3f" transform="translate(1083.740234 0)"/>
    </g>
    <!-- Long context · high QPS -->
    <g style="fill: #28253d" transform="translate(163.468047 406.049044) scale(0.07 -0.07)">
     <use xlink:href="#ArialMT-4c"/>
     <use xlink:href="#ArialMT-6f" transform="translate(55.615234 0)"/>
     <use xlink:href="#ArialMT-6e" transform="translate(111.230469 0)"/>
     <use xlink:href="#ArialMT-67" transform="translate(166.845703 0)"/>
     <use xlink:href="#ArialMT-20" transform="translate(222.460938 0)"/>
     <use xlink:href="#ArialMT-63" transform="translate(250.244141 0)"/>
     <use xlink:href="#ArialMT-6f" transform="translate(300.244141 0)"/>
     <use xlink:href="#ArialMT-6e" transform="translate(355.859375 0)"/>
     <use xlink:href="#ArialMT-74" transform="translate(411.474609 0)"/>
     <use xlink:href="#ArialMT-65" transform="translate(439.257812 0)"/>
     <use xlink:href="#ArialMT-78" transform="translate(494.873047 0)"/>
     <use xlink:href="#ArialMT-74" transform="translate(544.873047 0)"/>
     <use xlink:href="#ArialMT-20" transform="translate(572.65625 0)"/>
     <use xlink:href="#ArialMT-b7" transform="translate(600.439453 0)"/>
     <use xlink:href="#ArialMT-20" transform="translate(633.740234 0)"/>
     <use xlink:href="#ArialMT-68" transform="translate(661.523438 0)"/>
     <use xlink:href="#ArialMT-69" transform="translate(717.138672 0)"/>
     <use xlink:href="#ArialMT-67" transform="translate(739.355469 0)"/>
     <use xlink:href="#ArialMT-68" transform="translate(794.970703 0)"/>
     <use xlink:href="#ArialMT-20" transform="translate(850.585938 0)"/>
     <use xlink:href="#ArialMT-51" transform="translate(878.369141 0)"/>
     <use xlink:href="#ArialMT-50" transform="translate(956.152344 0)"/>
     <use xlink:href="#ArialMT-53" transform="translate(1022.851562 0)"/>
    </g>
   </g>
   <g id="text_10">
    <!-- Add TurboQuant TQ4 -->
    <g style="fill: #28253d" transform="translate(79.097489 456.529105) scale(0.07 -0.07)">
     <use xlink:href="#ArialMT-41"/>
     <use xlink:href="#ArialMT-64" transform="translate(66.699219 0)"/>
     <use xlink:href="#ArialMT-64" transform="translate(122.314453 0)"/>
     <use xlink:href="#ArialMT-20" transform="translate(177.929688 0)"/>
     <use xlink:href="#ArialMT-54" transform="translate(203.962891 0)"/>
     <use xlink:href="#ArialMT-75" transform="translate(261.296875 0)"/>
     <use xlink:href="#ArialMT-72" transform="translate(316.912109 0)"/>
     <use xlink:href="#ArialMT-62" transform="translate(350.212891 0)"/>
     <use xlink:href="#ArialMT-6f" transform="translate(405.828125 0)"/>
     <use xlink:href="#ArialMT-51" transform="translate(461.443359 0)"/>
     <use xlink:href="#ArialMT-75" transform="translate(539.226562 0)"/>
     <use xlink:href="#ArialMT-61" transform="translate(594.841797 0)"/>
     <use xlink:href="#ArialMT-6e" transform="translate(650.457031 0)"/>
     <use xlink:href="#ArialMT-74" transform="translate(706.072266 0)"/>
     <use xlink:href="#ArialMT-20" transform="translate(733.855469 0)"/>
     <use xlink:href="#ArialMT-54" transform="translate(759.888672 0)"/>
     <use xlink:href="#ArialMT-51" transform="translate(820.972656 0)"/>
     <use xlink:href="#ArialMT-34" transform="translate(898.755859 0)"/>
    </g>
    <!-- 3.9× KV compression -->
    <g style="fill: #28253d" transform="translate(79.134676 463.45473) scale(0.07 -0.07)">
     <defs>
      <path id="ArialMT-39" d="M 350 1059 
L 891 1109 
Q 959 728 1153 556 
Q 1347 384 1650 384 
Q 1909 384 2104 503 
Q 2300 622 2425 820 
Q 2550 1019 2634 1356 
Q 2719 1694 2719 2044 
Q 2719 2081 2716 2156 
Q 2547 1888 2255 1720 
Q 1963 1553 1622 1553 
Q 1053 1553 659 1965 
Q 266 2378 266 3053 
Q 266 3750 677 4175 
Q 1088 4600 1706 4600 
Q 2153 4600 2523 4359 
Q 2894 4119 3086 3673 
Q 3278 3228 3278 2384 
Q 3278 1506 3087 986 
Q 2897 466 2520 194 
Q 2144 -78 1638 -78 
Q 1100 -78 759 220 
Q 419 519 350 1059 
z
M 2653 3081 
Q 2653 3566 2395 3850 
Q 2138 4134 1775 4134 
Q 1400 4134 1122 3828 
Q 844 3522 844 3034 
Q 844 2597 1108 2323 
Q 1372 2050 1759 2050 
Q 2150 2050 2401 2323 
Q 2653 2597 2653 3081 
z
" transform="scale(0.015625)"/>
      <path id="ArialMT-d7" d="M 503 1278 
L 1488 2263 
L 506 3244 
L 888 3625 
L 1869 2644 
L 2847 3622 
L 3222 3244 
L 2247 2266 
L 3228 1284 
L 2847 903 
L 1866 1884 
L 881 900 
L 503 1278 
z
" transform="scale(0.015625)"/>
     </defs>
     <use xlink:href="#ArialMT-33"/>
     <use xlink:href="#ArialMT-2e" transform="translate(55.615234 0)"/>
     <use xlink:href="#ArialMT-39" transform="translate(83.398438 0)"/>
     <use xlink:href="#ArialMT-d7" transform="translate(139.013672 0)"/>
     <use xlink:href="#ArialMT-20" transform="translate(197.412109 0)"/>
     <use xlink:href="#ArialMT-4b" transform="translate(225.195312 0)"/>
     <use xlink:href="#ArialMT-56" transform="translate(291.894531 0)"/>
     <use xlink:href="#ArialMT-20" transform="translate(358.59375 0)"/>
     <use xlink:href="#ArialMT-63" transform="translate(386.376953 0)"/>
     <use xlink:href="#ArialMT-6f" transform="translate(436.376953 0)"/>
     <use xlink:href="#ArialMT-6d" transform="translate(491.992188 0)"/>
     <use xlink:href="#ArialMT-70" transform="translate(575.292969 0)"/>
     <use xlink:href="#ArialMT-72" transform="translate(630.908203 0)"/>
     <use xlink:href="#ArialMT-65" transform="translate(664.208984 0)"/>
     <use xlink:href="#ArialMT-73" transform="translate(719.824219 0)"/>
     <use xlink:href="#ArialMT-73" transform="translate(769.824219 0)"/>
     <use xlink:href="#ArialMT-69" transform="translate(819.824219 0)"/>
     <use xlink:href="#ArialMT-6f" transform="translate(842.041016 0)"/>
     <use xlink:href="#ArialMT-6e" transform="translate(897.65625 0)"/>
    </g>
    <!-- +0.7% perplexity -->
    <g style="fill: #28253d" transform="translate(86.525692 470.451339) scale(0.07 -0.07)">
     <defs>
      <path id="ArialMT-2b" d="M 1603 741 
L 1603 1997 
L 356 1997 
L 356 2522 
L 1603 2522 
L 1603 3769 
L 2134 3769 
L 2134 2522 
L 3381 2522 
L 3381 1997 
L 2134 1997 
L 2134 741 
L 1603 741 
z
" transform="scale(0.015625)"/>
      <path id="ArialMT-30" d="M 266 2259 
Q 266 3072 433 3567 
Q 600 4063 929 4331 
Q 1259 4600 1759 4600 
Q 2128 4600 2406 4451 
Q 2684 4303 2865 4023 
Q 3047 3744 3150 3342 
Q 3253 2941 3253 2259 
Q 3253 1453 3087 958 
Q 2922 463 2592 192 
Q 2263 -78 1759 -78 
Q 1097 -78 719 397 
Q 266 969 266 2259 
z
M 844 2259 
Q 844 1131 1108 757 
Q 1372 384 1759 384 
Q 2147 384 2411 759 
Q 2675 1134 2675 2259 
Q 2675 3391 2411 3762 
Q 2147 4134 1753 4134 
Q 1366 4134 1134 3806 
Q 844 3388 844 2259 
z
" transform="scale(0.015625)"/>
      <path id="ArialMT-37" d="M 303 3981 
L 303 4522 
L 3269 4522 
L 3269 4084 
Q 2831 3619 2401 2847 
Q 1972 2075 1738 1259 
Q 1569 684 1522 0 
L 944 0 
Q 953 541 1156 1306 
Q 1359 2072 1739 2783 
Q 2119 3494 2547 3981 
L 303 3981 
z
" transform="scale(0.015625)"/>
      <path id="ArialMT-25" d="M 372 3481 
Q 372 3972 619 4315 
Q 866 4659 1334 4659 
Q 1766 4659 2048 4351 
Q 2331 4044 2331 3447 
Q 2331 2866 2045 2552 
Q 1759 2238 1341 2238 
Q 925 2238 648 2547 
Q 372 2856 372 3481 
z
M 1350 4272 
Q 1141 4272 1002 4090 
Q 863 3909 863 3425 
Q 863 2984 1003 2804 
Q 1144 2625 1350 2625 
Q 1563 2625 1702 2806 
Q 1841 2988 1841 3469 
Q 1841 3913 1700 4092 
Q 1559 4272 1350 4272 
z
M 1353 -169 
L 3859 4659 
L 4316 4659 
L 1819 -169 
L 1353 -169 
z
M 3334 1075 
Q 3334 1569 3581 1911 
Q 3828 2253 4300 2253 
Q 4731 2253 5014 1945 
Q 5297 1638 5297 1041 
Q 5297 459 5011 145 
Q 4725 -169 4303 -169 
Q 3888 -169 3611 142 
Q 3334 453 3334 1075 
z
M 4316 1866 
Q 4103 1866 3964 1684 
Q 3825 1503 3825 1019 
Q 3825 581 3965 400 
Q 4106 219 4313 219 
Q 4528 219 4667 400 
Q 4806 581 4806 1063 
Q 4806 1506 4665 1686 
Q 4525 1866 4316 1866 
z
" transform="scale(0.015625)"/>
     </defs>
     <use xlink:href="#ArialMT-2b"/>
     <use xlink:href="#ArialMT-30" transform="translate(58.398438 0)"/>
     <use xlink:href="#ArialMT-2e" transform="translate(114.013672 0)"/>
     <use xlink:href="#ArialMT-37" transform="translate(141.796875 0)"/>
     <use xlink:href="#ArialMT-25" transform="translate(197.412109 0)"/>
     <use xlink:href="#ArialMT-20" transform="translate(286.328125 0)"/>
     <use xlink:href="#ArialMT-70" transform="translate(314.111328 0)"/>
     <use xlink:href="#ArialMT-65" transform="translate(369.726562 0)"/>
     <use xlink:href="#ArialMT-72" transform="translate(425.341797 0)"/>
     <use xlink:href="#ArialMT-70" transform="translate(458.642578 0)"/>
     <use xlink:href="#ArialMT-6c" transform="translate(514.257812 0)"/>
     <use xlink:href="#ArialMT-65" transform="translate(536.474609 0)"/>
     <use xlink:href="#ArialMT-78" transform="translate(592.089844 0)"/>
     <use xlink:href="#ArialMT-69" transform="translate(642.089844 0)"/>
     <use xlink:href="#ArialMT-74" transform="translate(664.306641 0)"/>
     <use xlink:href="#ArialMT-79" transform="translate(692.089844 0)"/>
    </g>
   </g>
   <g id="text_11">
    <!-- Deploy -->
    <g style="fill: #28253d" transform="translate(276.735337 463.490222) scale(0.07 -0.07)">
     <defs>
      <path id="ArialMT-44" d="M 494 0 
L 494 4581 
L 2072 4581 
Q 2606 4581 2888 4516 
Q 3281 4425 3559 4188 
Q 3922 3881 4101 3404 
Q 4281 2928 4281 2316 
Q 4281 1794 4159 1391 
Q 4038 988 3847 723 
Q 3656 459 3429 307 
Q 3203 156 2883 78 
Q 2563 0 2147 0 
L 494 0 
z
M 1100 541 
L 2078 541 
Q 2531 541 2789 625 
Q 3047 709 3200 863 
Q 3416 1078 3536 1442 
Q 3656 1806 3656 2325 
Q 3656 3044 3420 3430 
Q 3184 3816 2847 3947 
Q 2603 4041 2063 4041 
L 1100 4041 
L 1100 541 
z
" transform="scale(0.015625)"/>
     </defs>
     <use xlink:href="#ArialMT-44"/>
     <use xlink:href="#ArialMT-65" transform="translate(72.216797 0)"/>
     <use xlink:href="#ArialMT-70" transform="translate(127.832031 0)"/>
     <use xlink:href="#ArialMT-6c" transform="translate(183.447266 0)"/>
     <use xlink:href="#ArialMT-6f" transform="translate(205.664062 0)"/>
     <use xlink:href="#ArialMT-79" transform="translate(261.279297 0)"/>
    </g>
   </g>
   <g id="text_12">
    <g id="patch_25">
     <path d="M 139.609023 121.550321 
L 150.21621 121.550321 
Q 151.19121 121.550321 151.19121 120.575321 
L 151.19121 114.630868 
Q 151.19121 113.655868 150.21621 113.655868 
L 139.609023 113.655868 
Q 138.634023 113.655868 138.634023 114.630868 
L 138.634023 120.575321 
Q 138.634023 121.550321 139.609023 121.550321 
z
" style="fill: #ffffff"/>
    </g>
    <!-- Yes -->
    <g style="fill: #28253d" transform="translate(139.609023 119.283446) scale(0.065 -0.065)">
     <defs>
      <path id="ArialMT-59" d="M 1784 0 
L 1784 1941 
L 19 4581 
L 756 4581 
L 1659 3200 
Q 1909 2813 2125 2425 
Q 2331 2784 2625 3234 
L 3513 4581 
L 4219 4581 
L 2391 1941 
L 2391 0 
L 1784 0 
z
" transform="scale(0.015625)"/>
     </defs>
     <use xlink:href="#ArialMT-59"/>
     <use xlink:href="#ArialMT-65" transform="translate(57.574219 0)"/>
     <use xlink:href="#ArialMT-73" transform="translate(113.189453 0)"/>
    </g>
   </g>
   <g id="text_13">
    <g id="patch_26">
     <path d="M 234.776302 121.550321 
L 243.08513 121.550321 
Q 244.06013 121.550321 244.06013 120.575321 
L 244.06013 114.630868 
Q 244.06013 113.655868 243.08513 113.655868 
L 234.776302 113.655868 
Q 233.801302 113.655868 233.801302 114.630868 
L 233.801302 120.575321 
Q 233.801302 121.550321 234.776302 121.550321 
z
" style="fill: #ffffff"/>
    </g>
    <!-- No -->
    <g style="fill: #28253d" transform="translate(234.776302 119.283446) scale(0.065 -0.065)">
     <use xlink:href="#ArialMT-4e"/>
     <use xlink:href="#ArialMT-6f" transform="translate(72.216797 0)"/>
    </g>
   </g>
   <g id="text_14">
    <g id="patch_27">
     <path d="M 186.384633 155.347677 
L 194.693461 155.347677 
Q 195.668461 155.347677 195.668461 154.372677 
L 195.668461 148.428224 
Q 195.668461 147.453224 194.693461 147.453224 
L 186.384633 147.453224 
Q 185.409633 147.453224 185.409633 148.428224 
L 185.409633 154.372677 
Q 185.409633 155.347677 186.384633 155.347677 
z
" style="fill: #ffffff"/>
    </g>
    <!-- No -->
    <g style="fill: #28253d" transform="translate(186.384633 153.080802) scale(0.065 -0.065)">
     <use xlink:href="#ArialMT-4e"/>
     <use xlink:href="#ArialMT-6f" transform="translate(72.216797 0)"/>
    </g>
   </g>
   <g id="text_15">
    <g id="patch_28">
     <path d="M 279.253553 181.61744 
L 289.86074 181.61744 
Q 290.83574 181.61744 290.83574 180.64244 
L 290.83574 174.697987 
Q 290.83574 173.722987 289.86074 173.722987 
L 279.253553 173.722987 
Q 278.278553 173.722987 278.278553 174.697987 
L 278.278553 180.64244 
Q 278.278553 181.61744 279.253553 181.61744 
z
" style="fill: #ffffff"/>
    </g>
    <!-- Yes -->
    <g style="fill: #28253d" transform="translate(279.253553 179.350565) scale(0.065 -0.065)">
     <use xlink:href="#ArialMT-59"/>
     <use xlink:href="#ArialMT-65" transform="translate(57.574219 0)"/>
     <use xlink:href="#ArialMT-73" transform="translate(113.189453 0)"/>
    </g>
   </g>
   <g id="text_16">
    <g id="patch_29">
     <path d="M 212.887836 240.686001 
L 223.495023 240.686001 
Q 224.470023 240.686001 224.470023 239.711001 
L 224.470023 233.766548 
Q 224.470023 232.791548 223.495023 232.791548 
L 212.887836 232.791548 
Q 211.912836 232.791548 211.912836 233.766548 
L 211.912836 239.711001 
Q 211.912836 240.686001 212.887836 240.686001 
z
" style="fill: #ffffff"/>
    </g>
    <!-- Yes -->
    <g style="fill: #28253d" transform="translate(212.887836 238.419126) scale(0.065 -0.065)">
     <use xlink:href="#ArialMT-59"/>
     <use xlink:href="#ArialMT-65" transform="translate(57.574219 0)"/>
     <use xlink:href="#ArialMT-73" transform="translate(113.189453 0)"/>
    </g>
   </g>
   <g id="text_17">
    <g id="patch_30">
     <path d="M 290.081066 240.686001 
L 298.389894 240.686001 
Q 299.364894 240.686001 299.364894 239.711001 
L 299.364894 233.766548 
Q 299.364894 232.791548 298.389894 232.791548 
L 290.081066 232.791548 
Q 289.106066 232.791548 289.106066 233.766548 
L 289.106066 239.711001 
Q 289.106066 240.686001 290.081066 240.686001 
z
" style="fill: #ffffff"/>
    </g>
    <!-- No -->
    <g style="fill: #28253d" transform="translate(290.081066 238.419126) scale(0.065 -0.065)">
     <use xlink:href="#ArialMT-4e"/>
     <use xlink:href="#ArialMT-6f" transform="translate(72.216797 0)"/>
    </g>
   </g>
   <g id="text_18">
    <g id="patch_31">
     <path d="M 300.760961 300.599496 
L 311.368149 300.599496 
Q 312.343149 300.599496 312.343149 299.624496 
L 312.343149 293.680042 
Q 312.343149 292.705042 311.368149 292.705042 
L 300.760961 292.705042 
Q 299.785961 292.705042 299.785961 293.680042 
L 299.785961 299.624496 
Q 299.785961 300.599496 300.760961 300.599496 
z
" style="fill: #ffffff"/>
    </g>
    <!-- Yes -->
    <g style="fill: #28253d" transform="translate(300.760961 298.332621) scale(0.065 -0.065)">
     <use xlink:href="#ArialMT-59"/>
     <use xlink:href="#ArialMT-65" transform="translate(57.574219 0)"/>
     <use xlink:href="#ArialMT-73" transform="translate(113.189453 0)"/>
    </g>
   </g>
   <g id="text_19">
    <g id="patch_32">
     <path d="M 225.86609 273.638423 
L 234.174918 273.638423 
Q 235.149918 273.638423 235.149918 272.663423 
L 235.149918 266.71897 
Q 235.149918 265.74397 234.174918 265.74397 
L 225.86609 265.74397 
Q 224.89109 265.74397 224.89109 266.71897 
L 224.89109 272.663423 
Q 224.89109 273.638423 225.86609 273.638423 
z
" style="fill: #ffffff"/>
    </g>
    <!-- No -->
    <g style="fill: #28253d" transform="translate(225.86609 271.371548) scale(0.065 -0.065)">
     <use xlink:href="#ArialMT-4e"/>
     <use xlink:href="#ArialMT-6f" transform="translate(72.216797 0)"/>
    </g>
   </g>
   <g id="text_20">
    <g id="patch_33">
     <path d="M 156.200452 430.181631 
L 166.80764 430.181631 
Q 167.78264 430.181631 167.78264 429.206631 
L 167.78264 423.262178 
Q 167.78264 422.287178 166.80764 422.287178 
L 156.200452 422.287178 
Q 155.225452 422.287178 155.225452 423.262178 
L 155.225452 429.206631 
Q 155.225452 430.181631 156.200452 430.181631 
z
" style="fill: #ffffff"/>
    </g>
    <!-- Yes -->
    <g style="fill: #28253d" transform="translate(156.200452 427.914756) scale(0.065 -0.065)">
     <use xlink:href="#ArialMT-59"/>
     <use xlink:href="#ArialMT-65" transform="translate(57.574219 0)"/>
     <use xlink:href="#ArialMT-73" transform="translate(113.189453 0)"/>
    </g>
   </g>
   <g id="text_21">
    <g id="patch_34">
     <path d="M 236.158921 430.181631 
L 244.467749 430.181631 
Q 245.442749 430.181631 245.442749 429.206631 
L 245.442749 423.262178 
Q 245.442749 422.287178 244.467749 422.287178 
L 236.158921 422.287178 
Q 235.183921 422.287178 235.183921 423.262178 
L 235.183921 429.206631 
Q 235.183921 430.181631 236.158921 430.181631 
z
" style="fill: #ffffff"/>
    </g>
    <!-- No -->
    <g style="fill: #28253d" transform="translate(236.158921 427.914756) scale(0.065 -0.065)">
     <use xlink:href="#ArialMT-4e"/>
     <use xlink:href="#ArialMT-6f" transform="translate(72.216797 0)"/>
    </g>
   </g>
   <g id="text_22">
    <g id="patch_35">
     <path d="M 165.865547 368.383531 
L 237.334453 368.383531 
Q 239.084453 368.383531 239.084453 366.633531 
L 239.084453 360.170563 
Q 239.084453 358.420563 237.334453 358.420563 
L 165.865547 358.420563 
Q 164.115547 358.420563 164.115547 360.170563 
L 164.115547 366.633531 
Q 164.115547 368.383531 165.865547 368.383531 
z
" style="fill: #ffffff"/>
    </g>
    <!-- Weight method chosen -->
    <g style="fill: #6e6a8a" transform="translate(165.865547 365.181031) scale(0.07 -0.07)">
     <defs>
      <path id="Arial-ItalicMT-57" d="M 1081 0 
L 800 4581 
L 1422 4581 
L 1528 2316 
Q 1538 2153 1559 1434 
Q 1566 1234 1566 1153 
Q 1566 1100 1563 844 
Q 1944 1625 2113 1944 
L 3506 4581 
L 4138 4581 
L 4291 1903 
Q 4316 1444 4325 797 
Q 4381 956 4525 1272 
Q 4753 1781 4863 2000 
L 6169 4581 
L 6794 4581 
L 4463 0 
L 3806 0 
L 3653 2775 
Q 3631 3131 3619 3650 
Q 3428 3216 3300 2975 
L 1713 0 
L 1081 0 
z
" transform="scale(0.015625)"/>
      <path id="Arial-ItalicMT-65" d="M 2650 1128 
L 3200 1072 
Q 3081 663 2654 294 
Q 2228 -75 1638 -75 
Q 1269 -75 961 95 
Q 653 266 492 591 
Q 331 916 331 1331 
Q 331 1875 582 2386 
Q 834 2897 1234 3145 
Q 1634 3394 2100 3394 
Q 2694 3394 3048 3025 
Q 3403 2656 3403 2019 
Q 3403 1775 3359 1519 
L 916 1519 
Q 903 1422 903 1344 
Q 903 878 1117 633 
Q 1331 388 1641 388 
Q 1931 388 2212 578 
Q 2494 769 2650 1128 
z
M 1006 1950 
L 2869 1950 
Q 2872 2038 2872 2075 
Q 2872 2500 2659 2726 
Q 2447 2953 2113 2953 
Q 1750 2953 1451 2703 
Q 1153 2453 1006 1950 
z
" transform="scale(0.015625)"/>
      <path id="Arial-ItalicMT-69" d="M 1016 3941 
L 1150 4581 
L 1713 4581 
L 1578 3941 
L 1016 3941 
z
M 191 0 
L 884 3319 
L 1450 3319 
L 756 0 
L 191 0 
z
" transform="scale(0.015625)"/>
      <path id="Arial-ItalicMT-67" d="M 181 -300 
L 753 -353 
Q 747 -547 800 -644 
Q 853 -741 969 -794 
Q 1122 -863 1366 -863 
Q 1878 -863 2103 -597 
Q 2250 -419 2375 178 
L 2431 447 
Q 1991 0 1494 0 
Q 991 0 652 370 
Q 313 741 313 1419 
Q 313 1978 580 2447 
Q 847 2916 1215 3155 
Q 1584 3394 1975 3394 
Q 2628 3394 2981 2775 
L 3094 3319 
L 3613 3319 
L 2944 116 
Q 2834 -413 2656 -708 
Q 2478 -1003 2161 -1165 
Q 1844 -1328 1428 -1328 
Q 1028 -1328 739 -1225 
Q 450 -1122 308 -923 
Q 166 -725 166 -469 
Q 166 -391 181 -300 
z
M 888 1469 
Q 888 1128 953 956 
Q 1047 716 1220 589 
Q 1394 463 1606 463 
Q 1884 463 2159 658 
Q 2434 853 2604 1262 
Q 2775 1672 2775 2044 
Q 2775 2453 2548 2695 
Q 2322 2938 1988 2938 
Q 1781 2938 1587 2827 
Q 1394 2716 1226 2489 
Q 1059 2263 973 1947 
Q 888 1631 888 1469 
z
" transform="scale(0.015625)"/>
      <path id="Arial-ItalicMT-68" d="M 213 0 
L 1169 4581 
L 1734 4581 
L 1369 2822 
Q 1684 3128 1956 3261 
Q 2228 3394 2516 3394 
Q 2928 3394 3156 3176 
Q 3384 2959 3384 2603 
Q 3384 2428 3284 1959 
L 2875 0 
L 2309 0 
L 2731 2009 
Q 2822 2447 2822 2559 
Q 2822 2722 2709 2825 
Q 2597 2928 2384 2928 
Q 2078 2928 1800 2767 
Q 1522 2606 1364 2326 
Q 1206 2047 1075 1425 
L 778 0 
L 213 0 
z
" transform="scale(0.015625)"/>
      <path id="Arial-ItalicMT-74" d="M 1534 459 
L 1441 -3 
Q 1238 -56 1047 -56 
Q 709 -56 509 109 
Q 359 234 359 450 
Q 359 559 441 953 
L 844 2881 
L 397 2881 
L 488 3319 
L 934 3319 
L 1106 4134 
L 1753 4525 
L 1500 3319 
L 2056 3319 
L 1963 2881 
L 1409 2881 
L 1025 1047 
Q 953 697 953 628 
Q 953 528 1011 475 
Q 1069 422 1200 422 
Q 1388 422 1534 459 
z
" transform="scale(0.015625)"/>
      <path id="Arial-ItalicMT-20" transform="scale(0.015625)"/>
      <path id="Arial-ItalicMT-6d" d="M 209 0 
L 903 3319 
L 1469 3319 
L 1353 2772 
Q 1669 3125 1917 3259 
Q 2166 3394 2456 3394 
Q 2766 3394 2973 3230 
Q 3181 3066 3247 2772 
Q 3500 3084 3779 3239 
Q 4059 3394 4369 3394 
Q 4784 3394 4992 3197 
Q 5200 3000 5200 2644 
Q 5200 2491 5128 2138 
L 4681 0 
L 4116 0 
L 4572 2194 
Q 4631 2463 4631 2578 
Q 4631 2741 4528 2834 
Q 4425 2928 4238 2928 
Q 3984 2928 3721 2775 
Q 3459 2622 3314 2373 
Q 3169 2125 3059 1609 
L 2722 0 
L 2156 0 
L 2625 2241 
Q 2675 2469 2675 2566 
Q 2675 2728 2573 2828 
Q 2472 2928 2309 2928 
Q 2069 2928 1805 2775 
Q 1541 2622 1375 2348 
Q 1209 2075 1103 1569 
L 775 0 
L 209 0 
z
" transform="scale(0.015625)"/>
      <path id="Arial-ItalicMT-6f" d="M 313 1259 
Q 313 2231 884 2869 
Q 1356 3394 2122 3394 
Q 2722 3394 3089 3019 
Q 3456 2644 3456 2006 
Q 3456 1434 3225 942 
Q 2994 450 2567 187 
Q 2141 -75 1669 -75 
Q 1281 -75 964 90 
Q 647 256 480 559 
Q 313 863 313 1259 
z
M 878 1316 
Q 878 847 1103 605 
Q 1328 363 1675 363 
Q 1856 363 2034 436 
Q 2213 509 2366 659 
Q 2519 809 2626 1001 
Q 2734 1194 2800 1416 
Q 2897 1725 2897 2009 
Q 2897 2459 2670 2707 
Q 2444 2956 2100 2956 
Q 1834 2956 1615 2829 
Q 1397 2703 1220 2459 
Q 1044 2216 961 1892 
Q 878 1569 878 1316 
z
" transform="scale(0.015625)"/>
      <path id="Arial-ItalicMT-64" d="M 2450 481 
Q 1966 -75 1438 -75 
Q 966 -75 652 273 
Q 338 622 338 1284 
Q 338 1891 586 2392 
Q 834 2894 1207 3144 
Q 1581 3394 1956 3394 
Q 2575 3394 2891 2797 
L 3266 4581 
L 3828 4581 
L 2872 0 
L 2350 0 
L 2450 481 
z
M 900 1391 
Q 900 1044 969 844 
Q 1038 644 1203 511 
Q 1369 378 1600 378 
Q 1984 378 2297 778 
Q 2716 1309 2716 2091 
Q 2716 2484 2509 2706 
Q 2303 2928 1991 2928 
Q 1788 2928 1620 2837 
Q 1453 2747 1289 2530 
Q 1125 2313 1012 1978 
Q 900 1644 900 1391 
z
" transform="scale(0.015625)"/>
      <path id="Arial-ItalicMT-63" d="M 2503 1209 
L 3069 1150 
Q 2856 528 2464 226 
Q 2072 -75 1572 -75 
Q 1031 -75 695 275 
Q 359 625 359 1253 
Q 359 1797 575 2322 
Q 791 2847 1192 3120 
Q 1594 3394 2109 3394 
Q 2644 3394 2956 3092 
Q 3269 2791 3269 2294 
L 2713 2256 
Q 2709 2572 2529 2750 
Q 2350 2928 2056 2928 
Q 1716 2928 1466 2712 
Q 1216 2497 1073 2058 
Q 931 1619 931 1213 
Q 931 788 1118 575 
Q 1306 363 1581 363 
Q 1856 363 2107 572 
Q 2359 781 2503 1209 
z
" transform="scale(0.015625)"/>
      <path id="Arial-ItalicMT-73" d="M 266 1134 
L 831 1169 
Q 831 925 906 753 
Q 981 581 1182 472 
Q 1384 363 1653 363 
Q 2028 363 2215 513 
Q 2403 663 2403 866 
Q 2403 1013 2291 1144 
Q 2175 1275 1726 1467 
Q 1278 1659 1153 1738 
Q 944 1866 837 2039 
Q 731 2213 731 2438 
Q 731 2831 1043 3112 
Q 1356 3394 1919 3394 
Q 2544 3394 2870 3105 
Q 3197 2816 3209 2344 
L 2656 2306 
Q 2644 2606 2444 2781 
Q 2244 2956 1878 2956 
Q 1584 2956 1421 2822 
Q 1259 2688 1259 2531 
Q 1259 2375 1400 2256 
Q 1494 2175 1884 2006 
Q 2534 1725 2703 1563 
Q 2972 1303 2972 931 
Q 2972 684 2820 446 
Q 2669 209 2358 67 
Q 2047 -75 1625 -75 
Q 1050 -75 647 209 
Q 244 494 266 1134 
z
" transform="scale(0.015625)"/>
      <path id="Arial-ItalicMT-6e" d="M 213 0 
L 906 3319 
L 1419 3319 
L 1297 2741 
Q 1631 3081 1922 3237 
Q 2213 3394 2516 3394 
Q 2919 3394 3148 3175 
Q 3378 2956 3378 2591 
Q 3378 2406 3297 2009 
L 2875 0 
L 2309 0 
L 2750 2103 
Q 2816 2409 2816 2556 
Q 2816 2722 2702 2825 
Q 2588 2928 2372 2928 
Q 1938 2928 1598 2615 
Q 1259 2303 1100 1544 
L 778 0 
L 213 0 
z
" transform="scale(0.015625)"/>
     </defs>
     <use xlink:href="#Arial-ItalicMT-57"/>
     <use xlink:href="#Arial-ItalicMT-65" transform="translate(92.634766 0)"/>
     <use xlink:href="#Arial-ItalicMT-69" transform="translate(148.25 0)"/>
     <use xlink:href="#Arial-ItalicMT-67" transform="translate(170.466797 0)"/>
     <use xlink:href="#Arial-ItalicMT-68" transform="translate(226.082031 0)"/>
     <use xlink:href="#Arial-ItalicMT-74" transform="translate(281.697266 0)"/>
     <use xlink:href="#Arial-ItalicMT-20" transform="translate(309.480469 0)"/>
     <use xlink:href="#Arial-ItalicMT-6d" transform="translate(337.263672 0)"/>
     <use xlink:href="#Arial-ItalicMT-65" transform="translate(420.564453 0)"/>
     <use xlink:href="#Arial-ItalicMT-74" transform="translate(476.179688 0)"/>
     <use xlink:href="#Arial-ItalicMT-68" transform="translate(503.962891 0)"/>
     <use xlink:href="#Arial-ItalicMT-6f" transform="translate(559.578125 0)"/>
     <use xlink:href="#Arial-ItalicMT-64" transform="translate(615.193359 0)"/>
     <use xlink:href="#Arial-ItalicMT-20" transform="translate(670.808594 0)"/>
     <use xlink:href="#Arial-ItalicMT-63" transform="translate(698.591797 0)"/>
     <use xlink:href="#Arial-ItalicMT-68" transform="translate(748.591797 0)"/>
     <use xlink:href="#Arial-ItalicMT-6f" transform="translate(804.207031 0)"/>
     <use xlink:href="#Arial-ItalicMT-73" transform="translate(859.822266 0)"/>
     <use xlink:href="#Arial-ItalicMT-65" transform="translate(909.822266 0)"/>
     <use xlink:href="#Arial-ItalicMT-6e" transform="translate(965.4375 0)"/>
    </g>
   </g>
  </g>
  <g id="text_23">
   <!-- LLM quantization decision tree -->
   <g style="fill: #28253d" transform="translate(131.935313 14.251922) scale(0.095 -0.095)">
    <defs>
     <path id="Arial-BoldMT-4c" d="M 491 0 
L 491 4544 
L 1416 4544 
L 1416 772 
L 3716 772 
L 3716 0 
L 491 0 
z
" transform="scale(0.015625)"/>
     <path id="Arial-BoldMT-4d" d="M 453 0 
L 453 4581 
L 1838 4581 
L 2669 1456 
L 3491 4581 
L 4878 4581 
L 4878 0 
L 4019 0 
L 4019 3606 
L 3109 0 
L 2219 0 
L 1313 3606 
L 1313 0 
L 453 0 
z
" transform="scale(0.015625)"/>
     <path id="Arial-BoldMT-20" transform="scale(0.015625)"/>
     <path id="Arial-BoldMT-71" d="M 2628 -1263 
L 2628 406 
Q 2456 184 2200 54 
Q 1944 -75 1647 -75 
Q 1081 -75 716 350 
Q 284 847 284 1697 
Q 284 2497 689 2945 
Q 1094 3394 1694 3394 
Q 2025 3394 2267 3253 
Q 2509 3113 2697 2828 
L 2697 3319 
L 3506 3319 
L 3506 -1263 
L 2628 -1263 
z
M 2656 1700 
Q 2656 2209 2448 2457 
Q 2241 2706 1928 2706 
Q 1609 2706 1395 2453 
Q 1181 2200 1181 1650 
Q 1181 1103 1387 861 
Q 1594 619 1897 619 
Q 2200 619 2428 891 
Q 2656 1163 2656 1700 
z
" transform="scale(0.015625)"/>
     <path id="Arial-BoldMT-75" d="M 2644 0 
L 2644 497 
Q 2463 231 2167 78 
Q 1872 -75 1544 -75 
Q 1209 -75 943 72 
Q 678 219 559 484 
Q 441 750 441 1219 
L 441 3319 
L 1319 3319 
L 1319 1794 
Q 1319 1094 1367 936 
Q 1416 778 1544 686 
Q 1672 594 1869 594 
Q 2094 594 2272 717 
Q 2450 841 2515 1023 
Q 2581 1206 2581 1919 
L 2581 3319 
L 3459 3319 
L 3459 0 
L 2644 0 
z
" transform="scale(0.015625)"/>
     <path id="Arial-BoldMT-61" d="M 1116 2306 
L 319 2450 
Q 453 2931 781 3162 
Q 1109 3394 1756 3394 
Q 2344 3394 2631 3255 
Q 2919 3116 3036 2902 
Q 3153 2688 3153 2116 
L 3144 1091 
Q 3144 653 3186 445 
Q 3228 238 3344 0 
L 2475 0 
Q 2441 88 2391 259 
Q 2369 338 2359 363 
Q 2134 144 1878 34 
Q 1622 -75 1331 -75 
Q 819 -75 523 203 
Q 228 481 228 906 
Q 228 1188 362 1408 
Q 497 1628 739 1745 
Q 981 1863 1438 1950 
Q 2053 2066 2291 2166 
L 2291 2253 
Q 2291 2506 2166 2614 
Q 2041 2722 1694 2722 
Q 1459 2722 1328 2630 
Q 1197 2538 1116 2306 
z
M 2291 1594 
Q 2122 1538 1756 1459 
Q 1391 1381 1278 1306 
Q 1106 1184 1106 997 
Q 1106 813 1243 678 
Q 1381 544 1594 544 
Q 1831 544 2047 700 
Q 2206 819 2256 991 
Q 2291 1103 2291 1419 
L 2291 1594 
z
" transform="scale(0.015625)"/>
     <path id="Arial-BoldMT-6e" d="M 3478 0 
L 2600 0 
L 2600 1694 
Q 2600 2231 2544 2389 
Q 2488 2547 2361 2634 
Q 2234 2722 2056 2722 
Q 1828 2722 1647 2597 
Q 1466 2472 1398 2265 
Q 1331 2059 1331 1503 
L 1331 0 
L 453 0 
L 453 3319 
L 1269 3319 
L 1269 2831 
Q 1703 3394 2363 3394 
Q 2653 3394 2893 3289 
Q 3134 3184 3257 3021 
Q 3381 2859 3429 2653 
Q 3478 2447 3478 2063 
L 3478 0 
z
" transform="scale(0.015625)"/>
     <path id="Arial-BoldMT-74" d="M 1981 3319 
L 1981 2619 
L 1381 2619 
L 1381 1281 
Q 1381 875 1398 808 
Q 1416 741 1477 697 
Q 1538 653 1625 653 
Q 1747 653 1978 738 
L 2053 56 
Q 1747 -75 1359 -75 
Q 1122 -75 931 4 
Q 741 84 652 211 
Q 563 338 528 553 
Q 500 706 500 1172 
L 500 2619 
L 97 2619 
L 97 3319 
L 500 3319 
L 500 3978 
L 1381 4491 
L 1381 3319 
L 1981 3319 
z
" transform="scale(0.015625)"/>
     <path id="Arial-BoldMT-69" d="M 459 3769 
L 459 4581 
L 1338 4581 
L 1338 3769 
L 459 3769 
z
M 459 0 
L 459 3319 
L 1338 3319 
L 1338 0 
L 459 0 
z
" transform="scale(0.015625)"/>
     <path id="Arial-BoldMT-7a" d="M 106 0 
L 106 684 
L 1350 2113 
Q 1656 2463 1803 2609 
Q 1650 2600 1400 2597 
L 228 2591 
L 228 3319 
L 2972 3319 
L 2972 2697 
L 1703 1234 
L 1256 750 
Q 1622 772 1709 772 
L 3069 772 
L 3069 0 
L 106 0 
z
" transform="scale(0.015625)"/>
     <path id="Arial-BoldMT-6f" d="M 256 1706 
Q 256 2144 472 2553 
Q 688 2963 1083 3178 
Q 1478 3394 1966 3394 
Q 2719 3394 3200 2905 
Q 3681 2416 3681 1669 
Q 3681 916 3195 420 
Q 2709 -75 1972 -75 
Q 1516 -75 1102 131 
Q 688 338 472 736 
Q 256 1134 256 1706 
z
M 1156 1659 
Q 1156 1166 1390 903 
Q 1625 641 1969 641 
Q 2313 641 2545 903 
Q 2778 1166 2778 1666 
Q 2778 2153 2545 2415 
Q 2313 2678 1969 2678 
Q 1625 2678 1390 2415 
Q 1156 2153 1156 1659 
z
" transform="scale(0.015625)"/>
     <path id="Arial-BoldMT-64" d="M 3503 0 
L 2688 0 
L 2688 488 
Q 2484 203 2207 64 
Q 1931 -75 1650 -75 
Q 1078 -75 670 386 
Q 263 847 263 1672 
Q 263 2516 659 2955 
Q 1056 3394 1663 3394 
Q 2219 3394 2625 2931 
L 2625 4581 
L 3503 4581 
L 3503 0 
z
M 1159 1731 
Q 1159 1200 1306 963 
Q 1519 619 1900 619 
Q 2203 619 2415 876 
Q 2628 1134 2628 1647 
Q 2628 2219 2422 2470 
Q 2216 2722 1894 2722 
Q 1581 2722 1370 2473 
Q 1159 2225 1159 1731 
z
" transform="scale(0.015625)"/>
     <path id="Arial-BoldMT-65" d="M 2381 1056 
L 3256 909 
Q 3088 428 2723 176 
Q 2359 -75 1813 -75 
Q 947 -75 531 491 
Q 203 944 203 1634 
Q 203 2459 634 2926 
Q 1066 3394 1725 3394 
Q 2466 3394 2894 2905 
Q 3322 2416 3303 1406 
L 1103 1406 
Q 1113 1016 1316 798 
Q 1519 581 1822 581 
Q 2028 581 2168 693 
Q 2309 806 2381 1056 
z
M 2431 1944 
Q 2422 2325 2234 2523 
Q 2047 2722 1778 2722 
Q 1491 2722 1303 2513 
Q 1116 2303 1119 1944 
L 2431 1944 
z
" transform="scale(0.015625)"/>
     <path id="Arial-BoldMT-63" d="M 3353 2338 
L 2488 2181 
Q 2444 2441 2289 2572 
Q 2134 2703 1888 2703 
Q 1559 2703 1364 2476 
Q 1169 2250 1169 1719 
Q 1169 1128 1367 884 
Q 1566 641 1900 641 
Q 2150 641 2309 783 
Q 2469 925 2534 1272 
L 3397 1125 
Q 3263 531 2881 228 
Q 2500 -75 1859 -75 
Q 1131 -75 698 384 
Q 266 844 266 1656 
Q 266 2478 700 2936 
Q 1134 3394 1875 3394 
Q 2481 3394 2839 3133 
Q 3197 2872 3353 2338 
z
" transform="scale(0.015625)"/>
     <path id="Arial-BoldMT-73" d="M 150 947 
L 1031 1081 
Q 1088 825 1259 692 
Q 1431 559 1741 559 
Q 2081 559 2253 684 
Q 2369 772 2369 919 
Q 2369 1019 2306 1084 
Q 2241 1147 2013 1200 
Q 950 1434 666 1628 
Q 272 1897 272 2375 
Q 272 2806 612 3100 
Q 953 3394 1669 3394 
Q 2350 3394 2681 3172 
Q 3013 2950 3138 2516 
L 2309 2363 
Q 2256 2556 2107 2659 
Q 1959 2763 1684 2763 
Q 1338 2763 1188 2666 
Q 1088 2597 1088 2488 
Q 1088 2394 1175 2328 
Q 1294 2241 1995 2081 
Q 2697 1922 2975 1691 
Q 3250 1456 3250 1038 
Q 3250 581 2869 253 
Q 2488 -75 1741 -75 
Q 1063 -75 667 200 
Q 272 475 150 947 
z
" transform="scale(0.015625)"/>
     <path id="Arial-BoldMT-72" d="M 1300 0 
L 422 0 
L 422 3319 
L 1238 3319 
L 1238 2847 
Q 1447 3181 1614 3287 
Q 1781 3394 1994 3394 
Q 2294 3394 2572 3228 
L 2300 2463 
Q 2078 2606 1888 2606 
Q 1703 2606 1575 2504 
Q 1447 2403 1373 2137 
Q 1300 1872 1300 1025 
L 1300 0 
z
" transform="scale(0.015625)"/>
    </defs>
    <use xlink:href="#Arial-BoldMT-4c"/>
    <use xlink:href="#Arial-BoldMT-4c" transform="translate(61.083984 0)"/>
    <use xlink:href="#Arial-BoldMT-4d" transform="translate(122.167969 0)"/>
    <use xlink:href="#Arial-BoldMT-20" transform="translate(205.46875 0)"/>
    <use xlink:href="#Arial-BoldMT-71" transform="translate(233.251953 0)"/>
    <use xlink:href="#Arial-BoldMT-75" transform="translate(294.335938 0)"/>
    <use xlink:href="#Arial-BoldMT-61" transform="translate(355.419922 0)"/>
    <use xlink:href="#Arial-BoldMT-6e" transform="translate(411.035156 0)"/>
    <use xlink:href="#Arial-BoldMT-74" transform="translate(472.119141 0)"/>
    <use xlink:href="#Arial-BoldMT-69" transform="translate(505.419922 0)"/>
    <use xlink:href="#Arial-BoldMT-7a" transform="translate(533.203125 0)"/>
    <use xlink:href="#Arial-BoldMT-61" transform="translate(583.203125 0)"/>
    <use xlink:href="#Arial-BoldMT-74" transform="translate(638.818359 0)"/>
    <use xlink:href="#Arial-BoldMT-69" transform="translate(672.119141 0)"/>
    <use xlink:href="#Arial-BoldMT-6f" transform="translate(699.902344 0)"/>
    <use xlink:href="#Arial-BoldMT-6e" transform="translate(760.986328 0)"/>
    <use xlink:href="#Arial-BoldMT-20" transform="translate(822.070312 0)"/>
    <use xlink:href="#Arial-BoldMT-64" transform="translate(849.853516 0)"/>
    <use xlink:href="#Arial-BoldMT-65" transform="translate(910.9375 0)"/>
    <use xlink:href="#Arial-BoldMT-63" transform="translate(966.552734 0)"/>
    <use xlink:href="#Arial-BoldMT-69" transform="translate(1022.167969 0)"/>
    <use xlink:href="#Arial-BoldMT-73" transform="translate(1049.951172 0)"/>
    <use xlink:href="#Arial-BoldMT-69" transform="translate(1105.566406 0)"/>
    <use xlink:href="#Arial-BoldMT-6f" transform="translate(1133.349609 0)"/>
    <use xlink:href="#Arial-BoldMT-6e" transform="translate(1194.433594 0)"/>
    <use xlink:href="#Arial-BoldMT-20" transform="translate(1255.517578 0)"/>
    <use xlink:href="#Arial-BoldMT-74" transform="translate(1283.300781 0)"/>
    <use xlink:href="#Arial-BoldMT-72" transform="translate(1316.601562 0)"/>
    <use xlink:href="#Arial-BoldMT-65" transform="translate(1355.517578 0)"/>
    <use xlink:href="#Arial-BoldMT-65" transform="translate(1411.132812 0)"/>
   </g>
  </g>
 </g>
 <defs>
  <clipPath id="p9c4676d245">
   <rect x="11.105812" y="22.356" width="380.988377" height="469.476"/>
  </clipPath>
 </defs>
</svg>
