<?xml version="1.0" encoding="utf-8" standalone="no"?>
<!DOCTYPE svg PUBLIC "-//W3C//DTD SVG 1.1//EN"
  "http://www.w3.org/Graphics/SVG/1.1/DTD/svg11.dtd">
<svg xmlns:xlink="http://www.w3.org/1999/xlink" width="403.2pt" height="230.4pt" viewBox="0 0 403.2 230.4" xmlns="http://www.w3.org/2000/svg" version="1.1">
 <metadata>
  <rdf:RDF xmlns:dc="http://purl.org/dc/elements/1.1/" xmlns:cc="http://creativecommons.org/ns#" xmlns:rdf="http://www.w3.org/1999/02/22-rdf-syntax-ns#">
   <cc:Work>
    <dc:type rdf:resource="http://purl.org/dc/dcmitype/StillImage"/>
    <dc:date>2026-04-11T23:03:57.838632</dc:date>
    <dc:format>image/svg+xml</dc:format>
    <dc:creator>
     <cc:Agent>
      <dc:title>Matplotlib v3.10.5, https://matplotlib.org/</dc:title>
     </cc:Agent>
    </dc:creator>
   </cc:Work>
  </rdf:RDF>
 </metadata>
 <defs>
  <style type="text/css">*{stroke-linejoin: round; stroke-linecap: butt}</style>
 </defs>
 <g id="figure_1">
  <g id="patch_1">
   <path d="M 0 230.4 
L 403.2 230.4 
L 403.2 0 
L 0 0 
z
" style="fill: #ffffff"/>
  </g>
  <g id="axes_1">
   <g id="patch_2">
    <path d="M 76.578888 123.008 
Q 84.380447 123.008 91.370756 123.008 
" clip-path="url(#pa3c2ecff5f)" style="fill: none; stroke: #28253d; stroke-width: 0.9; stroke-linecap: round"/>
    <path d="M 85.370756 119.008 
L 91.370756 123.008 
L 85.370756 127.008 
z
" clip-path="url(#pa3c2ecff5f)" style="fill: #28253d; stroke: #28253d; stroke-width: 0.9; stroke-linecap: round"/>
   </g>
   <g id="patch_3">
    <path d="M 150.440842 106.733495 
Q 163.459484 99.451882 175.770102 92.566282 
" clip-path="url(#pa3c2ecff5f)" style="fill: none; stroke-dasharray: 3.33,1.44; stroke-dashoffset: 0; stroke: #28253d; stroke-width: 0.9; stroke-linecap: round"/>
    <path d="M 168.580942 92.004166 
L 175.770102 92.566282 
L 172.486165 98.986231 
z
" clip-path="url(#pa3c2ecff5f)" style="fill: #28253d; stroke-dasharray: 3.33,1.44; stroke-dashoffset: 0; stroke: #28253d; stroke-width: 0.9; stroke-linecap: round"/>
   </g>
   <g id="patch_4">
    <path d="M 150.437034 139.280375 
Q 163.542473 146.610536 175.939888 153.544683 
" clip-path="url(#pa3c2ecff5f)" style="fill: none; stroke: #28253d; stroke-width: 0.9; stroke-linecap: round"/>
    <path d="M 172.655951 147.124734 
L 175.939888 153.544683 
L 168.750728 154.106799 
z
" clip-path="url(#pa3c2ecff5f)" style="fill: #28253d; stroke: #28253d; stroke-width: 0.9; stroke-linecap: round"/>
   </g>
   <g id="patch_5">
    <path d="M 230.955542 92.183373 
Q 247.143116 101.722479 262.631768 110.84972 
" clip-path="url(#pa3c2ecff5f)" style="fill: none; stroke-dasharray: 3.33,1.44; stroke-dashoffset: 0; stroke: #28253d; stroke-width: 0.9; stroke-linecap: round"/>
    <path d="M 259.493306 104.357413 
L 262.631768 110.84972 
L 255.431768 111.24972 
z
" clip-path="url(#pa3c2ecff5f)" style="fill: #28253d; stroke-dasharray: 3.33,1.44; stroke-dashoffset: 0; stroke: #28253d; stroke-width: 0.9; stroke-linecap: round"/>
   </g>
   <g id="patch_6">
    <path d="M 230.781095 153.935426 
Q 247.0527 144.346802 262.625383 135.170042 
" clip-path="url(#pa3c2ecff5f)" style="fill: none; stroke: #28253d; stroke-width: 0.9; stroke-linecap: round"/>
    <path d="M 255.425383 134.770042 
L 262.625383 135.170042 
L 259.486922 141.66235 
z
" clip-path="url(#pa3c2ecff5f)" style="fill: #28253d; stroke: #28253d; stroke-width: 0.9; stroke-linecap: round"/>
   </g>
   <g id="patch_7">
    <path d="M 303.274996 123.008 
Q 311.021134 123.008 317.956024 123.008 
" clip-path="url(#pa3c2ecff5f)" style="fill: none; stroke: #28253d; stroke-width: 0.9; stroke-linecap: round"/>
    <path d="M 311.956024 119.008 
L 317.956024 123.008 
L 311.956024 127.008 
z
" clip-path="url(#pa3c2ecff5f)" style="fill: #28253d; stroke: #28253d; stroke-width: 0.9; stroke-linecap: round"/>
   </g>
   <g id="patch_8">
    <path d="M 37.0048 137.088 
L 70.5152 137.088 
Q 75.584 137.088 75.584 132.0192 
L 75.584 113.9968 
Q 75.584 108.928 70.5152 108.928 
L 37.0048 108.928 
Q 31.936 108.928 31.936 113.9968 
L 31.936 132.0192 
Q 31.936 137.088 37.0048 137.088 
z
" clip-path="url(#pa3c2ecff5f)" style="fill: #dce6f5; stroke: #28253d; stroke-linejoin: miter"/>
   </g>
   <g id="patch_9">
    <path d="M 98.2528 146.944 
L 144.4352 146.944 
Q 149.504 146.944 149.504 141.8752 
L 149.504 104.1408 
Q 149.504 99.072 144.4352 99.072 
L 98.2528 99.072 
Q 93.184 99.072 93.184 104.1408 
L 93.184 141.8752 
Q 93.184 146.944 98.2528 146.944 
z
" clip-path="url(#pa3c2ecff5f)" style="fill: #fff2c6; stroke: #28253d; stroke-linejoin: miter"/>
   </g>
   <g id="patch_10">
    <path d="M 176.3968 91.328 
L 232.4352 91.328 
Q 237.504 91.328 237.504 86.2592 
L 237.504 66.8288 
Q 237.504 61.76 232.4352 61.76 
L 176.3968 61.76 
Q 171.328 61.76 171.328 66.8288 
L 171.328 86.2592 
Q 171.328 91.328 176.3968 91.328 
z
" clip-path="url(#pa3c2ecff5f)" style="fill: #ffffff; stroke-dasharray: 4.44,1.92; stroke-dashoffset: 0; stroke: #1b5299; stroke-width: 1.2; stroke-linejoin: miter"/>
   </g>
   <g id="patch_11">
    <path d="M 176.3968 184.256 
L 232.4352 184.256 
Q 237.504 184.256 237.504 179.1872 
L 237.504 159.7568 
Q 237.504 154.688 232.4352 154.688 
L 176.3968 154.688 
Q 171.328 154.688 171.328 159.7568 
L 171.328 179.1872 
Q 171.328 184.256 176.3968 184.256 
z
" clip-path="url(#pa3c2ecff5f)" style="fill: #dce6f5; stroke: #28253d; stroke-linejoin: miter"/>
   </g>
   <g id="patch_12">
    <path d="M 269.3248 140.608 
L 297.2032 140.608 
Q 302.272 140.608 302.272 135.5392 
L 302.272 110.4768 
Q 302.272 105.408 297.2032 105.408 
L 269.3248 105.408 
Q 264.256 105.408 264.256 110.4768 
L 264.256 135.5392 
Q 264.256 140.608 269.3248 140.608 
z
" clip-path="url(#pa3c2ecff5f)" style="fill: #e8e0f4; stroke: #28253d; stroke-linejoin: miter"/>
   </g>
   <g id="patch_13">
    <path d="M 324.9408 137.088 
L 365.4912 137.088 
Q 370.56 137.088 370.56 132.0192 
L 370.56 113.9968 
Q 370.56 108.928 365.4912 108.928 
L 324.9408 108.928 
Q 319.872 108.928 319.872 113.9968 
L 319.872 132.0192 
Q 319.872 137.088 324.9408 137.088 
z
" clip-path="url(#pa3c2ecff5f)" style="fill: #d6edc8; stroke: #28253d; stroke-width: 1.2; stroke-linejoin: miter"/>
   </g>
   <g id="text_1">
    <!-- X -->
    <g style="fill: #28253d" transform="translate(51.258633 121.248957) scale(0.075 -0.075)">
     <defs>
      <path id="ArialMT-58" d="M 28 0 
L 1800 2388 
L 238 4581 
L 959 4581 
L 1791 3406 
Q 2050 3041 2159 2844 
Q 2313 3094 2522 3366 
L 3444 4581 
L 4103 4581 
L 2494 2422 
L 4228 0 
L 3478 0 
L 2325 1634 
Q 2228 1775 2125 1941 
Q 1972 1691 1906 1597 
L 756 0 
L 28 0 
z
" transform="scale(0.015625)"/>
     </defs>
     <use xlink:href="#ArialMT-58"/>
    </g>
    <!-- [batch, d] -->
    <g style="fill: #28253d" transform="translate(38.334609 128.644777) scale(0.075 -0.075)">
     <defs>
      <path id="ArialMT-5b" d="M 434 -1272 
L 434 4581 
L 1675 4581 
L 1675 4116 
L 997 4116 
L 997 -806 
L 1675 -806 
L 1675 -1272 
L 434 -1272 
z
" transform="scale(0.015625)"/>
      <path id="ArialMT-62" d="M 941 0 
L 419 0 
L 419 4581 
L 981 4581 
L 981 2947 
Q 1338 3394 1891 3394 
Q 2197 3394 2470 3270 
Q 2744 3147 2920 2923 
Q 3097 2700 3197 2384 
Q 3297 2069 3297 1709 
Q 3297 856 2875 390 
Q 2453 -75 1863 -75 
Q 1275 -75 941 416 
L 941 0 
z
M 934 1684 
Q 934 1088 1097 822 
Q 1363 388 1816 388 
Q 2184 388 2453 708 
Q 2722 1028 2722 1663 
Q 2722 2313 2464 2622 
Q 2206 2931 1841 2931 
Q 1472 2931 1203 2611 
Q 934 2291 934 1684 
z
" transform="scale(0.015625)"/>
      <path id="ArialMT-61" d="M 2588 409 
Q 2275 144 1986 34 
Q 1697 -75 1366 -75 
Q 819 -75 525 192 
Q 231 459 231 875 
Q 231 1119 342 1320 
Q 453 1522 633 1644 
Q 813 1766 1038 1828 
Q 1203 1872 1538 1913 
Q 2219 1994 2541 2106 
Q 2544 2222 2544 2253 
Q 2544 2597 2384 2738 
Q 2169 2928 1744 2928 
Q 1347 2928 1158 2789 
Q 969 2650 878 2297 
L 328 2372 
Q 403 2725 575 2942 
Q 747 3159 1072 3276 
Q 1397 3394 1825 3394 
Q 2250 3394 2515 3294 
Q 2781 3194 2906 3042 
Q 3031 2891 3081 2659 
Q 3109 2516 3109 2141 
L 3109 1391 
Q 3109 606 3145 398 
Q 3181 191 3288 0 
L 2700 0 
Q 2613 175 2588 409 
z
M 2541 1666 
Q 2234 1541 1622 1453 
Q 1275 1403 1131 1340 
Q 988 1278 909 1158 
Q 831 1038 831 891 
Q 831 666 1001 516 
Q 1172 366 1500 366 
Q 1825 366 2078 508 
Q 2331 650 2450 897 
Q 2541 1088 2541 1459 
L 2541 1666 
z
" transform="scale(0.015625)"/>
      <path id="ArialMT-74" d="M 1650 503 
L 1731 6 
Q 1494 -44 1306 -44 
Q 1000 -44 831 53 
Q 663 150 594 308 
Q 525 466 525 972 
L 525 2881 
L 113 2881 
L 113 3319 
L 525 3319 
L 525 4141 
L 1084 4478 
L 1084 3319 
L 1650 3319 
L 1650 2881 
L 1084 2881 
L 1084 941 
Q 1084 700 1114 631 
Q 1144 563 1211 522 
Q 1278 481 1403 481 
Q 1497 481 1650 503 
z
" transform="scale(0.015625)"/>
      <path id="ArialMT-63" d="M 2588 1216 
L 3141 1144 
Q 3050 572 2676 248 
Q 2303 -75 1759 -75 
Q 1078 -75 664 370 
Q 250 816 250 1647 
Q 250 2184 428 2587 
Q 606 2991 970 3192 
Q 1334 3394 1763 3394 
Q 2303 3394 2647 3120 
Q 2991 2847 3088 2344 
L 2541 2259 
Q 2463 2594 2264 2762 
Q 2066 2931 1784 2931 
Q 1359 2931 1093 2626 
Q 828 2322 828 1663 
Q 828 994 1084 691 
Q 1341 388 1753 388 
Q 2084 388 2306 591 
Q 2528 794 2588 1216 
z
" transform="scale(0.015625)"/>
      <path id="ArialMT-68" d="M 422 0 
L 422 4581 
L 984 4581 
L 984 2938 
Q 1378 3394 1978 3394 
Q 2347 3394 2619 3248 
Q 2891 3103 3008 2847 
Q 3125 2591 3125 2103 
L 3125 0 
L 2563 0 
L 2563 2103 
Q 2563 2525 2380 2717 
Q 2197 2909 1863 2909 
Q 1613 2909 1392 2779 
Q 1172 2650 1078 2428 
Q 984 2206 984 1816 
L 984 0 
L 422 0 
z
" transform="scale(0.015625)"/>
      <path id="ArialMT-2c" d="M 569 0 
L 569 641 
L 1209 641 
L 1209 0 
Q 1209 -353 1084 -570 
Q 959 -788 688 -906 
L 531 -666 
Q 709 -588 793 -436 
Q 878 -284 888 0 
L 569 0 
z
" transform="scale(0.015625)"/>
      <path id="ArialMT-20" transform="scale(0.015625)"/>
      <path id="ArialMT-64" d="M 2575 0 
L 2575 419 
Q 2259 -75 1647 -75 
Q 1250 -75 917 144 
Q 584 363 401 755 
Q 219 1147 219 1656 
Q 219 2153 384 2558 
Q 550 2963 881 3178 
Q 1213 3394 1622 3394 
Q 1922 3394 2156 3267 
Q 2391 3141 2538 2938 
L 2538 4581 
L 3097 4581 
L 3097 0 
L 2575 0 
z
M 797 1656 
Q 797 1019 1065 703 
Q 1334 388 1700 388 
Q 2069 388 2326 689 
Q 2584 991 2584 1609 
Q 2584 2291 2321 2609 
Q 2059 2928 1675 2928 
Q 1300 2928 1048 2622 
Q 797 2316 797 1656 
z
" transform="scale(0.015625)"/>
      <path id="ArialMT-5d" d="M 1363 -1272 
L 122 -1272 
L 122 -806 
L 800 -806 
L 800 4116 
L 122 4116 
L 122 4581 
L 1363 4581 
L 1363 -1272 
z
" transform="scale(0.015625)"/>
     </defs>
     <use xlink:href="#ArialMT-5b"/>
     <use xlink:href="#ArialMT-62" transform="translate(27.783203 0)"/>
     <use xlink:href="#ArialMT-61" transform="translate(83.398438 0)"/>
     <use xlink:href="#ArialMT-74" transform="translate(139.013672 0)"/>
     <use xlink:href="#ArialMT-63" transform="translate(166.796875 0)"/>
     <use xlink:href="#ArialMT-68" transform="translate(216.796875 0)"/>
     <use xlink:href="#ArialMT-2c" transform="translate(272.412109 0)"/>
     <use xlink:href="#ArialMT-20" transform="translate(300.195312 0)"/>
     <use xlink:href="#ArialMT-64" transform="translate(327.978516 0)"/>
     <use xlink:href="#ArialMT-5d" transform="translate(383.59375 0)"/>
    </g>
   </g>
   <g id="text_2">
    <!-- Detect -->
    <g style="fill: #28253d" transform="translate(110.5065 117.456828) scale(0.075 -0.075)">
     <defs>
      <path id="ArialMT-44" d="M 494 0 
L 494 4581 
L 2072 4581 
Q 2606 4581 2888 4516 
Q 3281 4425 3559 4188 
Q 3922 3881 4101 3404 
Q 4281 2928 4281 2316 
Q 4281 1794 4159 1391 
Q 4038 988 3847 723 
Q 3656 459 3429 307 
Q 3203 156 2883 78 
Q 2563 0 2147 0 
L 494 0 
z
M 1100 541 
L 2078 541 
Q 2531 541 2789 625 
Q 3047 709 3200 863 
Q 3416 1078 3536 1442 
Q 3656 1806 3656 2325 
Q 3656 3044 3420 3430 
Q 3184 3816 2847 3947 
Q 2603 4041 2063 4041 
L 1100 4041 
L 1100 541 
z
" transform="scale(0.015625)"/>
      <path id="ArialMT-65" d="M 2694 1069 
L 3275 997 
Q 3138 488 2766 206 
Q 2394 -75 1816 -75 
Q 1088 -75 661 373 
Q 234 822 234 1631 
Q 234 2469 665 2931 
Q 1097 3394 1784 3394 
Q 2450 3394 2872 2941 
Q 3294 2488 3294 1666 
Q 3294 1616 3291 1516 
L 816 1516 
Q 847 969 1125 678 
Q 1403 388 1819 388 
Q 2128 388 2347 550 
Q 2566 713 2694 1069 
z
M 847 1978 
L 2700 1978 
Q 2663 2397 2488 2606 
Q 2219 2931 1791 2931 
Q 1403 2931 1139 2672 
Q 875 2413 847 1978 
z
" transform="scale(0.015625)"/>
     </defs>
     <use xlink:href="#ArialMT-44"/>
     <use xlink:href="#ArialMT-65" transform="translate(72.216797 0)"/>
     <use xlink:href="#ArialMT-74" transform="translate(127.832031 0)"/>
     <use xlink:href="#ArialMT-65" transform="translate(155.615234 0)"/>
     <use xlink:href="#ArialMT-63" transform="translate(211.230469 0)"/>
     <use xlink:href="#ArialMT-74" transform="translate(261.230469 0)"/>
    </g>
    <!-- Outliers -->
    <g style="fill: #28253d" transform="translate(108.424664 124.852648) scale(0.075 -0.075)">
     <defs>
      <path id="ArialMT-4f" d="M 309 2231 
Q 309 3372 921 4017 
Q 1534 4663 2503 4663 
Q 3138 4663 3647 4359 
Q 4156 4056 4423 3514 
Q 4691 2972 4691 2284 
Q 4691 1588 4409 1038 
Q 4128 488 3612 205 
Q 3097 -78 2500 -78 
Q 1853 -78 1343 234 
Q 834 547 571 1087 
Q 309 1628 309 2231 
z
M 934 2222 
Q 934 1394 1379 917 
Q 1825 441 2497 441 
Q 3181 441 3623 922 
Q 4066 1403 4066 2288 
Q 4066 2847 3877 3264 
Q 3688 3681 3323 3911 
Q 2959 4141 2506 4141 
Q 1863 4141 1398 3698 
Q 934 3256 934 2222 
z
" transform="scale(0.015625)"/>
      <path id="ArialMT-75" d="M 2597 0 
L 2597 488 
Q 2209 -75 1544 -75 
Q 1250 -75 995 37 
Q 741 150 617 320 
Q 494 491 444 738 
Q 409 903 409 1263 
L 409 3319 
L 972 3319 
L 972 1478 
Q 972 1038 1006 884 
Q 1059 663 1231 536 
Q 1403 409 1656 409 
Q 1909 409 2131 539 
Q 2353 669 2445 892 
Q 2538 1116 2538 1541 
L 2538 3319 
L 3100 3319 
L 3100 0 
L 2597 0 
z
" transform="scale(0.015625)"/>
      <path id="ArialMT-6c" d="M 409 0 
L 409 4581 
L 972 4581 
L 972 0 
L 409 0 
z
" transform="scale(0.015625)"/>
      <path id="ArialMT-69" d="M 425 3934 
L 425 4581 
L 988 4581 
L 988 3934 
L 425 3934 
z
M 425 0 
L 425 3319 
L 988 3319 
L 988 0 
L 425 0 
z
" transform="scale(0.015625)"/>
      <path id="ArialMT-72" d="M 416 0 
L 416 3319 
L 922 3319 
L 922 2816 
Q 1116 3169 1280 3281 
Q 1444 3394 1641 3394 
Q 1925 3394 2219 3213 
L 2025 2691 
Q 1819 2813 1613 2813 
Q 1428 2813 1281 2702 
Q 1134 2591 1072 2394 
Q 978 2094 978 1738 
L 978 0 
L 416 0 
z
" transform="scale(0.015625)"/>
      <path id="ArialMT-73" d="M 197 991 
L 753 1078 
Q 800 744 1014 566 
Q 1228 388 1613 388 
Q 2000 388 2187 545 
Q 2375 703 2375 916 
Q 2375 1106 2209 1216 
Q 2094 1291 1634 1406 
Q 1016 1563 777 1677 
Q 538 1791 414 1992 
Q 291 2194 291 2438 
Q 291 2659 392 2848 
Q 494 3038 669 3163 
Q 800 3259 1026 3326 
Q 1253 3394 1513 3394 
Q 1903 3394 2198 3281 
Q 2494 3169 2634 2976 
Q 2775 2784 2828 2463 
L 2278 2388 
Q 2241 2644 2061 2787 
Q 1881 2931 1553 2931 
Q 1166 2931 1000 2803 
Q 834 2675 834 2503 
Q 834 2394 903 2306 
Q 972 2216 1119 2156 
Q 1203 2125 1616 2013 
Q 2213 1853 2448 1751 
Q 2684 1650 2818 1456 
Q 2953 1263 2953 975 
Q 2953 694 2789 445 
Q 2625 197 2315 61 
Q 2006 -75 1616 -75 
Q 969 -75 630 194 
Q 291 463 197 991 
z
" transform="scale(0.015625)"/>
     </defs>
     <use xlink:href="#ArialMT-4f"/>
     <use xlink:href="#ArialMT-75" transform="translate(77.783203 0)"/>
     <use xlink:href="#ArialMT-74" transform="translate(133.398438 0)"/>
     <use xlink:href="#ArialMT-6c" transform="translate(161.181641 0)"/>
     <use xlink:href="#ArialMT-69" transform="translate(183.398438 0)"/>
     <use xlink:href="#ArialMT-65" transform="translate(205.615234 0)"/>
     <use xlink:href="#ArialMT-72" transform="translate(261.230469 0)"/>
     <use xlink:href="#ArialMT-73" transform="translate(294.53125 0)"/>
    </g>
    <!-- |x| &gt; 6.0 -->
    <g style="fill: #28253d" transform="translate(108.033844 132.349016) scale(0.075 -0.075)">
     <defs>
      <path id="ArialMT-7c" d="M 588 -1347 
L 588 4659 
L 1078 4659 
L 1078 -1347 
L 588 -1347 
z
" transform="scale(0.015625)"/>
      <path id="ArialMT-78" d="M 47 0 
L 1259 1725 
L 138 3319 
L 841 3319 
L 1350 2541 
Q 1494 2319 1581 2169 
Q 1719 2375 1834 2534 
L 2394 3319 
L 3066 3319 
L 1919 1756 
L 3153 0 
L 2463 0 
L 1781 1031 
L 1600 1309 
L 728 0 
L 47 0 
z
" transform="scale(0.015625)"/>
      <path id="ArialMT-3e" d="M 3384 2003 
L 350 706 
L 350 1266 
L 2753 2263 
L 350 3250 
L 350 3809 
L 3384 2528 
L 3384 2003 
z
" transform="scale(0.015625)"/>
      <path id="ArialMT-36" d="M 3184 3459 
L 2625 3416 
Q 2550 3747 2413 3897 
Q 2184 4138 1850 4138 
Q 1581 4138 1378 3988 
Q 1113 3794 959 3422 
Q 806 3050 800 2363 
Q 1003 2672 1297 2822 
Q 1591 2972 1913 2972 
Q 2475 2972 2870 2558 
Q 3266 2144 3266 1488 
Q 3266 1056 3080 686 
Q 2894 316 2569 119 
Q 2244 -78 1831 -78 
Q 1128 -78 684 439 
Q 241 956 241 2144 
Q 241 3472 731 4075 
Q 1159 4600 1884 4600 
Q 2425 4600 2770 4297 
Q 3116 3994 3184 3459 
z
M 888 1484 
Q 888 1194 1011 928 
Q 1134 663 1356 523 
Q 1578 384 1822 384 
Q 2178 384 2434 671 
Q 2691 959 2691 1453 
Q 2691 1928 2437 2201 
Q 2184 2475 1800 2475 
Q 1419 2475 1153 2201 
Q 888 1928 888 1484 
z
" transform="scale(0.015625)"/>
      <path id="ArialMT-2e" d="M 581 0 
L 581 641 
L 1222 641 
L 1222 0 
L 581 0 
z
" transform="scale(0.015625)"/>
      <path id="ArialMT-30" d="M 266 2259 
Q 266 3072 433 3567 
Q 600 4063 929 4331 
Q 1259 4600 1759 4600 
Q 2128 4600 2406 4451 
Q 2684 4303 2865 4023 
Q 3047 3744 3150 3342 
Q 3253 2941 3253 2259 
Q 3253 1453 3087 958 
Q 2922 463 2592 192 
Q 2263 -78 1759 -78 
Q 1097 -78 719 397 
Q 266 969 266 2259 
z
M 844 2259 
Q 844 1131 1108 757 
Q 1372 384 1759 384 
Q 2147 384 2411 759 
Q 2675 1134 2675 2259 
Q 2675 3391 2411 3762 
Q 2147 4134 1753 4134 
Q 1366 4134 1134 3806 
Q 844 3388 844 2259 
z
" transform="scale(0.015625)"/>
     </defs>
     <use xlink:href="#ArialMT-7c"/>
     <use xlink:href="#ArialMT-78" transform="translate(25.976562 0)"/>
     <use xlink:href="#ArialMT-7c" transform="translate(75.976562 0)"/>
     <use xlink:href="#ArialMT-20" transform="translate(101.953125 0)"/>
     <use xlink:href="#ArialMT-3e" transform="translate(129.736328 0)"/>
     <use xlink:href="#ArialMT-20" transform="translate(188.134766 0)"/>
     <use xlink:href="#ArialMT-36" transform="translate(215.917969 0)"/>
     <use xlink:href="#ArialMT-2e" transform="translate(271.533203 0)"/>
     <use xlink:href="#ArialMT-30" transform="translate(299.316406 0)"/>
    </g>
   </g>
   <g id="text_3">
    <!-- FP16 Matmul -->
    <g style="fill: #28253d" transform="translate(181.287289 74.696012) scale(0.075 -0.075)">
     <defs>
      <path id="Arial-BoldMT-46" d="M 472 0 
L 472 4581 
L 3613 4581 
L 3613 3806 
L 1397 3806 
L 1397 2722 
L 3309 2722 
L 3309 1947 
L 1397 1947 
L 1397 0 
L 472 0 
z
" transform="scale(0.015625)"/>
      <path id="Arial-BoldMT-50" d="M 466 0 
L 466 4581 
L 1950 4581 
Q 2794 4581 3050 4513 
Q 3444 4409 3709 4064 
Q 3975 3719 3975 3172 
Q 3975 2750 3822 2462 
Q 3669 2175 3433 2011 
Q 3197 1847 2953 1794 
Q 2622 1728 1994 1728 
L 1391 1728 
L 1391 0 
L 466 0 
z
M 1391 3806 
L 1391 2506 
L 1897 2506 
Q 2444 2506 2628 2578 
Q 2813 2650 2917 2803 
Q 3022 2956 3022 3159 
Q 3022 3409 2875 3571 
Q 2728 3734 2503 3775 
Q 2338 3806 1838 3806 
L 1391 3806 
z
" transform="scale(0.015625)"/>
      <path id="Arial-BoldMT-31" d="M 2519 0 
L 1641 0 
L 1641 3309 
Q 1159 2859 506 2644 
L 506 3441 
Q 850 3553 1253 3867 
Q 1656 4181 1806 4600 
L 2519 4600 
L 2519 0 
z
" transform="scale(0.015625)"/>
      <path id="Arial-BoldMT-36" d="M 3247 3459 
L 2397 3366 
Q 2366 3628 2234 3753 
Q 2103 3878 1894 3878 
Q 1616 3878 1423 3628 
Q 1231 3378 1181 2588 
Q 1509 2975 1997 2975 
Q 2547 2975 2939 2556 
Q 3331 2138 3331 1475 
Q 3331 772 2918 347 
Q 2506 -78 1859 -78 
Q 1166 -78 719 461 
Q 272 1000 272 2228 
Q 272 3488 737 4044 
Q 1203 4600 1947 4600 
Q 2469 4600 2811 4308 
Q 3153 4016 3247 3459 
z
M 1256 1544 
Q 1256 1116 1453 883 
Q 1650 650 1903 650 
Q 2147 650 2309 840 
Q 2472 1031 2472 1466 
Q 2472 1913 2297 2120 
Q 2122 2328 1859 2328 
Q 1606 2328 1431 2129 
Q 1256 1931 1256 1544 
z
" transform="scale(0.015625)"/>
      <path id="Arial-BoldMT-20" transform="scale(0.015625)"/>
      <path id="Arial-BoldMT-4d" d="M 453 0 
L 453 4581 
L 1838 4581 
L 2669 1456 
L 3491 4581 
L 4878 4581 
L 4878 0 
L 4019 0 
L 4019 3606 
L 3109 0 
L 2219 0 
L 1313 3606 
L 1313 0 
L 453 0 
z
" transform="scale(0.015625)"/>
      <path id="Arial-BoldMT-61" d="M 1116 2306 
L 319 2450 
Q 453 2931 781 3162 
Q 1109 3394 1756 3394 
Q 2344 3394 2631 3255 
Q 2919 3116 3036 2902 
Q 3153 2688 3153 2116 
L 3144 1091 
Q 3144 653 3186 445 
Q 3228 238 3344 0 
L 2475 0 
Q 2441 88 2391 259 
Q 2369 338 2359 363 
Q 2134 144 1878 34 
Q 1622 -75 1331 -75 
Q 819 -75 523 203 
Q 228 481 228 906 
Q 228 1188 362 1408 
Q 497 1628 739 1745 
Q 981 1863 1438 1950 
Q 2053 2066 2291 2166 
L 2291 2253 
Q 2291 2506 2166 2614 
Q 2041 2722 1694 2722 
Q 1459 2722 1328 2630 
Q 1197 2538 1116 2306 
z
M 2291 1594 
Q 2122 1538 1756 1459 
Q 1391 1381 1278 1306 
Q 1106 1184 1106 997 
Q 1106 813 1243 678 
Q 1381 544 1594 544 
Q 1831 544 2047 700 
Q 2206 819 2256 991 
Q 2291 1103 2291 1419 
L 2291 1594 
z
" transform="scale(0.015625)"/>
      <path id="Arial-BoldMT-74" d="M 1981 3319 
L 1981 2619 
L 1381 2619 
L 1381 1281 
Q 1381 875 1398 808 
Q 1416 741 1477 697 
Q 1538 653 1625 653 
Q 1747 653 1978 738 
L 2053 56 
Q 1747 -75 1359 -75 
Q 1122 -75 931 4 
Q 741 84 652 211 
Q 563 338 528 553 
Q 500 706 500 1172 
L 500 2619 
L 97 2619 
L 97 3319 
L 500 3319 
L 500 3978 
L 1381 4491 
L 1381 3319 
L 1981 3319 
z
" transform="scale(0.015625)"/>
      <path id="Arial-BoldMT-6d" d="M 394 3319 
L 1203 3319 
L 1203 2866 
Q 1638 3394 2238 3394 
Q 2556 3394 2790 3262 
Q 3025 3131 3175 2866 
Q 3394 3131 3647 3262 
Q 3900 3394 4188 3394 
Q 4553 3394 4806 3245 
Q 5059 3097 5184 2809 
Q 5275 2597 5275 2122 
L 5275 0 
L 4397 0 
L 4397 1897 
Q 4397 2391 4306 2534 
Q 4184 2722 3931 2722 
Q 3747 2722 3584 2609 
Q 3422 2497 3350 2280 
Q 3278 2063 3278 1594 
L 3278 0 
L 2400 0 
L 2400 1819 
Q 2400 2303 2353 2443 
Q 2306 2584 2207 2653 
Q 2109 2722 1941 2722 
Q 1738 2722 1575 2612 
Q 1413 2503 1342 2297 
Q 1272 2091 1272 1613 
L 1272 0 
L 394 0 
L 394 3319 
z
" transform="scale(0.015625)"/>
      <path id="Arial-BoldMT-75" d="M 2644 0 
L 2644 497 
Q 2463 231 2167 78 
Q 1872 -75 1544 -75 
Q 1209 -75 943 72 
Q 678 219 559 484 
Q 441 750 441 1219 
L 441 3319 
L 1319 3319 
L 1319 1794 
Q 1319 1094 1367 936 
Q 1416 778 1544 686 
Q 1672 594 1869 594 
Q 2094 594 2272 717 
Q 2450 841 2515 1023 
Q 2581 1206 2581 1919 
L 2581 3319 
L 3459 3319 
L 3459 0 
L 2644 0 
z
" transform="scale(0.015625)"/>
      <path id="Arial-BoldMT-6c" d="M 459 0 
L 459 4581 
L 1338 4581 
L 1338 0 
L 459 0 
z
" transform="scale(0.015625)"/>
     </defs>
     <use xlink:href="#Arial-BoldMT-46"/>
     <use xlink:href="#Arial-BoldMT-50" transform="translate(61.083984 0)"/>
     <use xlink:href="#Arial-BoldMT-31" transform="translate(127.783203 0)"/>
     <use xlink:href="#Arial-BoldMT-36" transform="translate(183.398438 0)"/>
     <use xlink:href="#Arial-BoldMT-20" transform="translate(239.013672 0)"/>
     <use xlink:href="#Arial-BoldMT-4d" transform="translate(266.796875 0)"/>
     <use xlink:href="#Arial-BoldMT-61" transform="translate(350.097656 0)"/>
     <use xlink:href="#Arial-BoldMT-74" transform="translate(405.712891 0)"/>
     <use xlink:href="#Arial-BoldMT-6d" transform="translate(439.013672 0)"/>
     <use xlink:href="#Arial-BoldMT-75" transform="translate(527.929688 0)"/>
     <use xlink:href="#Arial-BoldMT-6c" transform="translate(589.013672 0)"/>
    </g>
    <!-- (~0.1% dims) -->
    <g style="fill: #28253d" transform="translate(181.387484 82.181832) scale(0.075 -0.075)">
     <defs>
      <path id="Arial-BoldMT-28" d="M 1916 -1347 
L 1313 -1347 
Q 834 -625 584 153 
Q 334 931 334 1659 
Q 334 2563 644 3369 
Q 913 4069 1325 4659 
L 1925 4659 
Q 1497 3713 1336 3048 
Q 1175 2384 1175 1641 
Q 1175 1128 1270 590 
Q 1366 53 1531 -431 
Q 1641 -750 1916 -1347 
z
" transform="scale(0.015625)"/>
      <path id="Arial-BoldMT-7e" d="M 209 1622 
L 209 2431 
Q 606 2863 1134 2863 
Q 1331 2863 1497 2823 
Q 1663 2784 2092 2611 
Q 2522 2438 2675 2438 
Q 2850 2438 3079 2545 
Q 3309 2653 3528 2888 
L 3528 2044 
Q 3384 1894 3126 1762 
Q 2869 1631 2594 1631 
Q 2438 1631 2289 1668 
Q 2141 1706 1819 1847 
Q 1338 2056 1063 2056 
Q 625 2056 209 1622 
z
" transform="scale(0.015625)"/>
      <path id="Arial-BoldMT-30" d="M 1756 4600 
Q 2422 4600 2797 4125 
Q 3244 3563 3244 2259 
Q 3244 959 2794 391 
Q 2422 -78 1756 -78 
Q 1088 -78 678 436 
Q 269 950 269 2269 
Q 269 3563 719 4131 
Q 1091 4600 1756 4600 
z
M 1756 3872 
Q 1597 3872 1472 3770 
Q 1347 3669 1278 3406 
Q 1188 3066 1188 2259 
Q 1188 1453 1269 1151 
Q 1350 850 1473 750 
Q 1597 650 1756 650 
Q 1916 650 2041 751 
Q 2166 853 2234 1116 
Q 2325 1453 2325 2259 
Q 2325 3066 2244 3367 
Q 2163 3669 2039 3770 
Q 1916 3872 1756 3872 
z
" transform="scale(0.015625)"/>
      <path id="Arial-BoldMT-2e" d="M 459 0 
L 459 878 
L 1338 878 
L 1338 0 
L 459 0 
z
" transform="scale(0.015625)"/>
      <path id="Arial-BoldMT-25" d="M 278 3450 
Q 278 4066 548 4362 
Q 819 4659 1281 4659 
Q 1759 4659 2029 4364 
Q 2300 4069 2300 3450 
Q 2300 2834 2029 2537 
Q 1759 2241 1297 2241 
Q 819 2241 548 2536 
Q 278 2831 278 3450 
z
M 963 3456 
Q 963 3009 1066 2856 
Q 1144 2744 1281 2744 
Q 1422 2744 1500 2856 
Q 1600 3009 1600 3456 
Q 1600 3903 1500 4053 
Q 1422 4169 1281 4169 
Q 1144 4169 1066 4056 
Q 963 3903 963 3456 
z
M 1950 -175 
L 1300 -175 
L 3741 4659 
L 4372 4659 
L 1950 -175 
z
M 3369 1028 
Q 3369 1644 3639 1941 
Q 3909 2238 4378 2238 
Q 4850 2238 5120 1941 
Q 5391 1644 5391 1028 
Q 5391 409 5120 112 
Q 4850 -184 4388 -184 
Q 3909 -184 3639 112 
Q 3369 409 3369 1028 
z
M 4053 1031 
Q 4053 584 4156 434 
Q 4234 319 4372 319 
Q 4513 319 4588 431 
Q 4691 584 4691 1031 
Q 4691 1478 4591 1631 
Q 4513 1744 4372 1744 
Q 4231 1744 4156 1631 
Q 4053 1478 4053 1031 
z
" transform="scale(0.015625)"/>
      <path id="Arial-BoldMT-64" d="M 3503 0 
L 2688 0 
L 2688 488 
Q 2484 203 2207 64 
Q 1931 -75 1650 -75 
Q 1078 -75 670 386 
Q 263 847 263 1672 
Q 263 2516 659 2955 
Q 1056 3394 1663 3394 
Q 2219 3394 2625 2931 
L 2625 4581 
L 3503 4581 
L 3503 0 
z
M 1159 1731 
Q 1159 1200 1306 963 
Q 1519 619 1900 619 
Q 2203 619 2415 876 
Q 2628 1134 2628 1647 
Q 2628 2219 2422 2470 
Q 2216 2722 1894 2722 
Q 1581 2722 1370 2473 
Q 1159 2225 1159 1731 
z
" transform="scale(0.015625)"/>
      <path id="Arial-BoldMT-69" d="M 459 3769 
L 459 4581 
L 1338 4581 
L 1338 3769 
L 459 3769 
z
M 459 0 
L 459 3319 
L 1338 3319 
L 1338 0 
L 459 0 
z
" transform="scale(0.015625)"/>
      <path id="Arial-BoldMT-73" d="M 150 947 
L 1031 1081 
Q 1088 825 1259 692 
Q 1431 559 1741 559 
Q 2081 559 2253 684 
Q 2369 772 2369 919 
Q 2369 1019 2306 1084 
Q 2241 1147 2013 1200 
Q 950 1434 666 1628 
Q 272 1897 272 2375 
Q 272 2806 612 3100 
Q 953 3394 1669 3394 
Q 2350 3394 2681 3172 
Q 3013 2950 3138 2516 
L 2309 2363 
Q 2256 2556 2107 2659 
Q 1959 2763 1684 2763 
Q 1338 2763 1188 2666 
Q 1088 2597 1088 2488 
Q 1088 2394 1175 2328 
Q 1294 2241 1995 2081 
Q 2697 1922 2975 1691 
Q 3250 1456 3250 1038 
Q 3250 581 2869 253 
Q 2488 -75 1741 -75 
Q 1063 -75 667 200 
Q 272 475 150 947 
z
" transform="scale(0.015625)"/>
      <path id="Arial-BoldMT-29" d="M 216 -1347 
Q 475 -791 581 -494 
Q 688 -197 778 190 
Q 869 578 912 926 
Q 956 1275 956 1641 
Q 956 2384 797 3048 
Q 638 3713 209 4659 
L 806 4659 
Q 1278 3988 1539 3234 
Q 1800 2481 1800 1706 
Q 1800 1053 1594 306 
Q 1359 -531 822 -1347 
L 216 -1347 
z
" transform="scale(0.015625)"/>
     </defs>
     <use xlink:href="#Arial-BoldMT-28"/>
     <use xlink:href="#Arial-BoldMT-7e" transform="translate(33.300781 0)"/>
     <use xlink:href="#Arial-BoldMT-30" transform="translate(91.699219 0)"/>
     <use xlink:href="#Arial-BoldMT-2e" transform="translate(147.314453 0)"/>
     <use xlink:href="#Arial-BoldMT-31" transform="translate(175.097656 0)"/>
     <use xlink:href="#Arial-BoldMT-25" transform="translate(230.712891 0)"/>
     <use xlink:href="#Arial-BoldMT-20" transform="translate(319.628906 0)"/>
     <use xlink:href="#Arial-BoldMT-64" transform="translate(347.412109 0)"/>
     <use xlink:href="#Arial-BoldMT-69" transform="translate(408.496094 0)"/>
     <use xlink:href="#Arial-BoldMT-6d" transform="translate(436.279297 0)"/>
     <use xlink:href="#Arial-BoldMT-73" transform="translate(525.195312 0)"/>
     <use xlink:href="#Arial-BoldMT-29" transform="translate(580.810547 0)"/>
    </g>
   </g>
   <g id="text_4">
    <!-- INT8 Matmul -->
    <g style="fill: #28253d" transform="translate(182.124008 167.624012) scale(0.075 -0.075)">
     <defs>
      <path id="Arial-BoldMT-49" d="M 438 0 
L 438 4581 
L 1363 4581 
L 1363 0 
L 438 0 
z
" transform="scale(0.015625)"/>
      <path id="Arial-BoldMT-4e" d="M 475 0 
L 475 4581 
L 1375 4581 
L 3250 1522 
L 3250 4581 
L 4109 4581 
L 4109 0 
L 3181 0 
L 1334 2988 
L 1334 0 
L 475 0 
z
" transform="scale(0.015625)"/>
      <path id="Arial-BoldMT-54" d="M 1497 0 
L 1497 3806 
L 138 3806 
L 138 4581 
L 3778 4581 
L 3778 3806 
L 2422 3806 
L 2422 0 
L 1497 0 
z
" transform="scale(0.015625)"/>
      <path id="Arial-BoldMT-38" d="M 1025 2472 
Q 684 2616 529 2867 
Q 375 3119 375 3419 
Q 375 3931 733 4265 
Q 1091 4600 1750 4600 
Q 2403 4600 2764 4265 
Q 3125 3931 3125 3419 
Q 3125 3100 2959 2851 
Q 2794 2603 2494 2472 
Q 2875 2319 3073 2025 
Q 3272 1731 3272 1347 
Q 3272 713 2867 316 
Q 2463 -81 1791 -81 
Q 1166 -81 750 247 
Q 259 634 259 1309 
Q 259 1681 443 1992 
Q 628 2303 1025 2472 
z
M 1206 3356 
Q 1206 3094 1354 2947 
Q 1503 2800 1750 2800 
Q 2000 2800 2150 2948 
Q 2300 3097 2300 3359 
Q 2300 3606 2151 3754 
Q 2003 3903 1759 3903 
Q 1506 3903 1356 3753 
Q 1206 3603 1206 3356 
z
M 1125 1394 
Q 1125 1031 1311 828 
Q 1497 625 1775 625 
Q 2047 625 2225 820 
Q 2403 1016 2403 1384 
Q 2403 1706 2222 1901 
Q 2041 2097 1763 2097 
Q 1441 2097 1283 1875 
Q 1125 1653 1125 1394 
z
" transform="scale(0.015625)"/>
     </defs>
     <use xlink:href="#Arial-BoldMT-49"/>
     <use xlink:href="#Arial-BoldMT-4e" transform="translate(27.783203 0)"/>
     <use xlink:href="#Arial-BoldMT-54" transform="translate(100 0)"/>
     <use xlink:href="#Arial-BoldMT-38" transform="translate(161.083984 0)"/>
     <use xlink:href="#Arial-BoldMT-20" transform="translate(216.699219 0)"/>
     <use xlink:href="#Arial-BoldMT-4d" transform="translate(244.482422 0)"/>
     <use xlink:href="#Arial-BoldMT-61" transform="translate(327.783203 0)"/>
     <use xlink:href="#Arial-BoldMT-74" transform="translate(383.398438 0)"/>
     <use xlink:href="#Arial-BoldMT-6d" transform="translate(416.699219 0)"/>
     <use xlink:href="#Arial-BoldMT-75" transform="translate(505.615234 0)"/>
     <use xlink:href="#Arial-BoldMT-6c" transform="translate(566.699219 0)"/>
    </g>
    <!-- (~99.9% dims) -->
    <g style="fill: #28253d" transform="translate(179.302133 175.109832) scale(0.075 -0.075)">
     <defs>
      <path id="Arial-BoldMT-39" d="M 291 1059 
L 1141 1153 
Q 1172 894 1303 769 
Q 1434 644 1650 644 
Q 1922 644 2112 894 
Q 2303 1144 2356 1931 
Q 2025 1547 1528 1547 
Q 988 1547 595 1964 
Q 203 2381 203 3050 
Q 203 3747 617 4173 
Q 1031 4600 1672 4600 
Q 2369 4600 2816 4061 
Q 3263 3522 3263 2288 
Q 3263 1031 2797 475 
Q 2331 -81 1584 -81 
Q 1047 -81 715 205 
Q 384 491 291 1059 
z
M 2278 2978 
Q 2278 3403 2083 3637 
Q 1888 3872 1631 3872 
Q 1388 3872 1227 3680 
Q 1066 3488 1066 3050 
Q 1066 2606 1241 2398 
Q 1416 2191 1678 2191 
Q 1931 2191 2104 2391 
Q 2278 2591 2278 2978 
z
" transform="scale(0.015625)"/>
     </defs>
     <use xlink:href="#Arial-BoldMT-28"/>
     <use xlink:href="#Arial-BoldMT-7e" transform="translate(33.300781 0)"/>
     <use xlink:href="#Arial-BoldMT-39" transform="translate(91.699219 0)"/>
     <use xlink:href="#Arial-BoldMT-39" transform="translate(147.314453 0)"/>
     <use xlink:href="#Arial-BoldMT-2e" transform="translate(202.929688 0)"/>
     <use xlink:href="#Arial-BoldMT-39" transform="translate(230.712891 0)"/>
     <use xlink:href="#Arial-BoldMT-25" transform="translate(286.328125 0)"/>
     <use xlink:href="#Arial-BoldMT-20" transform="translate(375.244141 0)"/>
     <use xlink:href="#Arial-BoldMT-64" transform="translate(403.027344 0)"/>
     <use xlink:href="#Arial-BoldMT-69" transform="translate(464.111328 0)"/>
     <use xlink:href="#Arial-BoldMT-6d" transform="translate(491.894531 0)"/>
     <use xlink:href="#Arial-BoldMT-73" transform="translate(580.810547 0)"/>
     <use xlink:href="#Arial-BoldMT-29" transform="translate(636.425781 0)"/>
    </g>
   </g>
   <g id="text_5">
    <!-- Σ -->
    <g style="fill: #28253d" transform="translate(281.013414 121.259504) scale(0.075 -0.075)">
     <defs>
      <path id="Arial-BoldMT-3a3" d="M 341 4581 
L 3513 4581 
L 3513 3806 
L 1481 3806 
L 2666 2394 
L 1359 772 
L 3609 772 
L 3609 0 
L 281 0 
L 281 856 
L 1509 2394 
L 341 3756 
L 341 4581 
z
" transform="scale(0.015625)"/>
     </defs>
     <use xlink:href="#Arial-BoldMT-3a3"/>
    </g>
    <!-- Sum -->
    <g style="fill: #28253d" transform="translate(275.137633 128.644777) scale(0.075 -0.075)">
     <defs>
      <path id="Arial-BoldMT-53" d="M 231 1491 
L 1131 1578 
Q 1213 1125 1461 912 
Q 1709 700 2131 700 
Q 2578 700 2804 889 
Q 3031 1078 3031 1331 
Q 3031 1494 2936 1608 
Q 2841 1722 2603 1806 
Q 2441 1863 1863 2006 
Q 1119 2191 819 2459 
Q 397 2838 397 3381 
Q 397 3731 595 4036 
Q 794 4341 1167 4500 
Q 1541 4659 2069 4659 
Q 2931 4659 3367 4281 
Q 3803 3903 3825 3272 
L 2900 3231 
Q 2841 3584 2645 3739 
Q 2450 3894 2059 3894 
Q 1656 3894 1428 3728 
Q 1281 3622 1281 3444 
Q 1281 3281 1419 3166 
Q 1594 3019 2269 2859 
Q 2944 2700 3267 2529 
Q 3591 2359 3773 2064 
Q 3956 1769 3956 1334 
Q 3956 941 3737 597 
Q 3519 253 3119 86 
Q 2719 -81 2122 -81 
Q 1253 -81 787 320 
Q 322 722 231 1491 
z
" transform="scale(0.015625)"/>
     </defs>
     <use xlink:href="#Arial-BoldMT-53"/>
     <use xlink:href="#Arial-BoldMT-75" transform="translate(66.699219 0)"/>
     <use xlink:href="#Arial-BoldMT-6d" transform="translate(127.783203 0)"/>
    </g>
   </g>
   <g id="text_6">
    <!-- Output -->
    <g style="fill: #28253d" transform="translate(333.959555 121.297004) scale(0.075 -0.075)">
     <defs>
      <path id="ArialMT-70" d="M 422 -1272 
L 422 3319 
L 934 3319 
L 934 2888 
Q 1116 3141 1344 3267 
Q 1572 3394 1897 3394 
Q 2322 3394 2647 3175 
Q 2972 2956 3137 2557 
Q 3303 2159 3303 1684 
Q 3303 1175 3120 767 
Q 2938 359 2589 142 
Q 2241 -75 1856 -75 
Q 1575 -75 1351 44 
Q 1128 163 984 344 
L 984 -1272 
L 422 -1272 
z
M 931 1641 
Q 931 1000 1190 694 
Q 1450 388 1819 388 
Q 2194 388 2461 705 
Q 2728 1022 2728 1688 
Q 2728 2322 2467 2637 
Q 2206 2953 1844 2953 
Q 1484 2953 1207 2617 
Q 931 2281 931 1641 
z
" transform="scale(0.015625)"/>
     </defs>
     <use xlink:href="#ArialMT-4f"/>
     <use xlink:href="#ArialMT-75" transform="translate(77.783203 0)"/>
     <use xlink:href="#ArialMT-74" transform="translate(133.398438 0)"/>
     <use xlink:href="#ArialMT-70" transform="translate(161.181641 0)"/>
     <use xlink:href="#ArialMT-75" transform="translate(216.796875 0)"/>
     <use xlink:href="#ArialMT-74" transform="translate(272.412109 0)"/>
    </g>
    <!-- [batch, out] -->
    <g style="fill: #28253d" transform="translate(326.663461 128.692824) scale(0.075 -0.075)">
     <defs>
      <path id="ArialMT-6f" d="M 213 1659 
Q 213 2581 725 3025 
Q 1153 3394 1769 3394 
Q 2453 3394 2887 2945 
Q 3322 2497 3322 1706 
Q 3322 1066 3130 698 
Q 2938 331 2570 128 
Q 2203 -75 1769 -75 
Q 1072 -75 642 372 
Q 213 819 213 1659 
z
M 791 1659 
Q 791 1022 1069 705 
Q 1347 388 1769 388 
Q 2188 388 2466 706 
Q 2744 1025 2744 1678 
Q 2744 2294 2464 2611 
Q 2184 2928 1769 2928 
Q 1347 2928 1069 2612 
Q 791 2297 791 1659 
z
" transform="scale(0.015625)"/>
     </defs>
     <use xlink:href="#ArialMT-5b"/>
     <use xlink:href="#ArialMT-62" transform="translate(27.783203 0)"/>
     <use xlink:href="#ArialMT-61" transform="translate(83.398438 0)"/>
     <use xlink:href="#ArialMT-74" transform="translate(139.013672 0)"/>
     <use xlink:href="#ArialMT-63" transform="translate(166.796875 0)"/>
     <use xlink:href="#ArialMT-68" transform="translate(216.796875 0)"/>
     <use xlink:href="#ArialMT-2c" transform="translate(272.412109 0)"/>
     <use xlink:href="#ArialMT-20" transform="translate(300.195312 0)"/>
     <use xlink:href="#ArialMT-6f" transform="translate(327.978516 0)"/>
     <use xlink:href="#ArialMT-75" transform="translate(383.59375 0)"/>
     <use xlink:href="#ArialMT-74" transform="translate(439.208984 0)"/>
     <use xlink:href="#ArialMT-5d" transform="translate(466.992188 0)"/>
    </g>
   </g>
   <g id="text_7">
    <g id="patch_14">
     <path d="M 141.998041 106.350059 
L 175.454759 106.350059 
Q 176.504759 106.350059 176.504759 105.300059 
L 176.504759 98.898341 
Q 176.504759 97.848341 175.454759 97.848341 
L 141.998041 97.848341 
Q 140.948041 97.848341 140.948041 98.898341 
L 140.948041 105.300059 
Q 140.948041 106.350059 141.998041 106.350059 
z
" style="fill: #ffffff"/>
    </g>
    <!-- outlier cols -->
    <g style="fill: #28253d" transform="translate(141.998041 103.908809) scale(0.07 -0.07)">
     <defs>
      <path id="Arial-ItalicMT-6f" d="M 313 1259 
Q 313 2231 884 2869 
Q 1356 3394 2122 3394 
Q 2722 3394 3089 3019 
Q 3456 2644 3456 2006 
Q 3456 1434 3225 942 
Q 2994 450 2567 187 
Q 2141 -75 1669 -75 
Q 1281 -75 964 90 
Q 647 256 480 559 
Q 313 863 313 1259 
z
M 878 1316 
Q 878 847 1103 605 
Q 1328 363 1675 363 
Q 1856 363 2034 436 
Q 2213 509 2366 659 
Q 2519 809 2626 1001 
Q 2734 1194 2800 1416 
Q 2897 1725 2897 2009 
Q 2897 2459 2670 2707 
Q 2444 2956 2100 2956 
Q 1834 2956 1615 2829 
Q 1397 2703 1220 2459 
Q 1044 2216 961 1892 
Q 878 1569 878 1316 
z
" transform="scale(0.015625)"/>
      <path id="Arial-ItalicMT-75" d="M 2478 600 
Q 1881 -75 1256 -75 
Q 872 -75 636 145 
Q 400 366 400 684 
Q 400 894 506 1403 
L 906 3319 
L 1472 3319 
L 1028 1197 
Q 972 931 972 784 
Q 972 597 1086 492 
Q 1200 388 1422 388 
Q 1659 388 1886 503 
Q 2113 619 2277 816 
Q 2441 1013 2544 1281 
Q 2613 1453 2703 1884 
L 3003 3319 
L 3569 3319 
L 2875 0 
L 2353 0 
L 2478 600 
z
" transform="scale(0.015625)"/>
      <path id="Arial-ItalicMT-74" d="M 1534 459 
L 1441 -3 
Q 1238 -56 1047 -56 
Q 709 -56 509 109 
Q 359 234 359 450 
Q 359 559 441 953 
L 844 2881 
L 397 2881 
L 488 3319 
L 934 3319 
L 1106 4134 
L 1753 4525 
L 1500 3319 
L 2056 3319 
L 1963 2881 
L 1409 2881 
L 1025 1047 
Q 953 697 953 628 
Q 953 528 1011 475 
Q 1069 422 1200 422 
Q 1388 422 1534 459 
z
" transform="scale(0.015625)"/>
      <path id="Arial-ItalicMT-6c" d="M 169 0 
L 1125 4581 
L 1691 4581 
L 734 0 
L 169 0 
z
" transform="scale(0.015625)"/>
      <path id="Arial-ItalicMT-69" d="M 1016 3941 
L 1150 4581 
L 1713 4581 
L 1578 3941 
L 1016 3941 
z
M 191 0 
L 884 3319 
L 1450 3319 
L 756 0 
L 191 0 
z
" transform="scale(0.015625)"/>
      <path id="Arial-ItalicMT-65" d="M 2650 1128 
L 3200 1072 
Q 3081 663 2654 294 
Q 2228 -75 1638 -75 
Q 1269 -75 961 95 
Q 653 266 492 591 
Q 331 916 331 1331 
Q 331 1875 582 2386 
Q 834 2897 1234 3145 
Q 1634 3394 2100 3394 
Q 2694 3394 3048 3025 
Q 3403 2656 3403 2019 
Q 3403 1775 3359 1519 
L 916 1519 
Q 903 1422 903 1344 
Q 903 878 1117 633 
Q 1331 388 1641 388 
Q 1931 388 2212 578 
Q 2494 769 2650 1128 
z
M 1006 1950 
L 2869 1950 
Q 2872 2038 2872 2075 
Q 2872 2500 2659 2726 
Q 2447 2953 2113 2953 
Q 1750 2953 1451 2703 
Q 1153 2453 1006 1950 
z
" transform="scale(0.015625)"/>
      <path id="Arial-ItalicMT-72" d="M 213 0 
L 906 3319 
L 1406 3319 
L 1266 2641 
Q 1522 3025 1767 3209 
Q 2013 3394 2269 3394 
Q 2438 3394 2684 3272 
L 2453 2747 
Q 2306 2853 2131 2853 
Q 1834 2853 1521 2522 
Q 1209 2191 1031 1331 
L 750 0 
L 213 0 
z
" transform="scale(0.015625)"/>
      <path id="Arial-ItalicMT-20" transform="scale(0.015625)"/>
      <path id="Arial-ItalicMT-63" d="M 2503 1209 
L 3069 1150 
Q 2856 528 2464 226 
Q 2072 -75 1572 -75 
Q 1031 -75 695 275 
Q 359 625 359 1253 
Q 359 1797 575 2322 
Q 791 2847 1192 3120 
Q 1594 3394 2109 3394 
Q 2644 3394 2956 3092 
Q 3269 2791 3269 2294 
L 2713 2256 
Q 2709 2572 2529 2750 
Q 2350 2928 2056 2928 
Q 1716 2928 1466 2712 
Q 1216 2497 1073 2058 
Q 931 1619 931 1213 
Q 931 788 1118 575 
Q 1306 363 1581 363 
Q 1856 363 2107 572 
Q 2359 781 2503 1209 
z
" transform="scale(0.015625)"/>
      <path id="Arial-ItalicMT-73" d="M 266 1134 
L 831 1169 
Q 831 925 906 753 
Q 981 581 1182 472 
Q 1384 363 1653 363 
Q 2028 363 2215 513 
Q 2403 663 2403 866 
Q 2403 1013 2291 1144 
Q 2175 1275 1726 1467 
Q 1278 1659 1153 1738 
Q 944 1866 837 2039 
Q 731 2213 731 2438 
Q 731 2831 1043 3112 
Q 1356 3394 1919 3394 
Q 2544 3394 2870 3105 
Q 3197 2816 3209 2344 
L 2656 2306 
Q 2644 2606 2444 2781 
Q 2244 2956 1878 2956 
Q 1584 2956 1421 2822 
Q 1259 2688 1259 2531 
Q 1259 2375 1400 2256 
Q 1494 2175 1884 2006 
Q 2534 1725 2703 1563 
Q 2972 1303 2972 931 
Q 2972 684 2820 446 
Q 2669 209 2358 67 
Q 2047 -75 1625 -75 
Q 1050 -75 647 209 
Q 244 494 266 1134 
z
" transform="scale(0.015625)"/>
     </defs>
     <use xlink:href="#Arial-ItalicMT-6f"/>
     <use xlink:href="#Arial-ItalicMT-75" transform="translate(55.615234 0)"/>
     <use xlink:href="#Arial-ItalicMT-74" transform="translate(111.230469 0)"/>
     <use xlink:href="#Arial-ItalicMT-6c" transform="translate(139.013672 0)"/>
     <use xlink:href="#Arial-ItalicMT-69" transform="translate(161.230469 0)"/>
     <use xlink:href="#Arial-ItalicMT-65" transform="translate(183.447266 0)"/>
     <use xlink:href="#Arial-ItalicMT-72" transform="translate(239.0625 0)"/>
     <use xlink:href="#Arial-ItalicMT-20" transform="translate(272.363281 0)"/>
     <use xlink:href="#Arial-ItalicMT-63" transform="translate(300.146484 0)"/>
     <use xlink:href="#Arial-ItalicMT-6f" transform="translate(350.146484 0)"/>
     <use xlink:href="#Arial-ItalicMT-6c" transform="translate(405.761719 0)"/>
     <use xlink:href="#Arial-ItalicMT-73" transform="translate(427.978516 0)"/>
    </g>
   </g>
   <g id="text_8">
    <g id="patch_15">
     <path d="M 140.83265 148.167659 
L 176.62015 148.167659 
Q 177.67015 148.167659 177.67015 147.117659 
L 177.67015 140.715941 
Q 177.67015 139.665941 176.62015 139.665941 
L 140.83265 139.665941 
Q 139.78265 139.665941 139.78265 140.715941 
L 139.78265 147.117659 
Q 139.78265 148.167659 140.83265 148.167659 
z
" style="fill: #ffffff"/>
    </g>
    <!-- normal cols -->
    <g style="fill: #28253d" transform="translate(140.83265 145.726409) scale(0.07 -0.07)">
     <defs>
      <path id="Arial-ItalicMT-6e" d="M 213 0 
L 906 3319 
L 1419 3319 
L 1297 2741 
Q 1631 3081 1922 3237 
Q 2213 3394 2516 3394 
Q 2919 3394 3148 3175 
Q 3378 2956 3378 2591 
Q 3378 2406 3297 2009 
L 2875 0 
L 2309 0 
L 2750 2103 
Q 2816 2409 2816 2556 
Q 2816 2722 2702 2825 
Q 2588 2928 2372 2928 
Q 1938 2928 1598 2615 
Q 1259 2303 1100 1544 
L 778 0 
L 213 0 
z
" transform="scale(0.015625)"/>
      <path id="Arial-ItalicMT-6d" d="M 209 0 
L 903 3319 
L 1469 3319 
L 1353 2772 
Q 1669 3125 1917 3259 
Q 2166 3394 2456 3394 
Q 2766 3394 2973 3230 
Q 3181 3066 3247 2772 
Q 3500 3084 3779 3239 
Q 4059 3394 4369 3394 
Q 4784 3394 4992 3197 
Q 5200 3000 5200 2644 
Q 5200 2491 5128 2138 
L 4681 0 
L 4116 0 
L 4572 2194 
Q 4631 2463 4631 2578 
Q 4631 2741 4528 2834 
Q 4425 2928 4238 2928 
Q 3984 2928 3721 2775 
Q 3459 2622 3314 2373 
Q 3169 2125 3059 1609 
L 2722 0 
L 2156 0 
L 2625 2241 
Q 2675 2469 2675 2566 
Q 2675 2728 2573 2828 
Q 2472 2928 2309 2928 
Q 2069 2928 1805 2775 
Q 1541 2622 1375 2348 
Q 1209 2075 1103 1569 
L 775 0 
L 209 0 
z
" transform="scale(0.015625)"/>
      <path id="Arial-ItalicMT-61" d="M 2450 413 
Q 2156 159 1884 42 
Q 1613 -75 1303 -75 
Q 844 -75 562 195 
Q 281 466 281 888 
Q 281 1166 407 1380 
Q 534 1594 743 1723 
Q 953 1853 1256 1909 
Q 1447 1947 1980 1969 
Q 2513 1991 2744 2081 
Q 2809 2313 2809 2466 
Q 2809 2663 2666 2775 
Q 2469 2931 2091 2931 
Q 1734 2931 1507 2773 
Q 1281 2616 1178 2325 
L 606 2375 
Q 781 2869 1161 3131 
Q 1541 3394 2119 3394 
Q 2734 3394 3094 3100 
Q 3369 2881 3369 2531 
Q 3369 2266 3291 1916 
L 3106 1091 
Q 3019 697 3019 450 
Q 3019 294 3088 0 
L 2516 0 
Q 2469 163 2450 413 
z
M 2659 1681 
Q 2541 1634 2405 1609 
Q 2269 1584 1950 1556 
Q 1456 1513 1253 1445 
Q 1050 1378 947 1231 
Q 844 1084 844 906 
Q 844 669 1008 516 
Q 1172 363 1475 363 
Q 1756 363 2015 511 
Q 2275 659 2425 925 
Q 2575 1191 2659 1681 
z
" transform="scale(0.015625)"/>
     </defs>
     <use xlink:href="#Arial-ItalicMT-6e"/>
     <use xlink:href="#Arial-ItalicMT-6f" transform="translate(55.615234 0)"/>
     <use xlink:href="#Arial-ItalicMT-72" transform="translate(111.230469 0)"/>
     <use xlink:href="#Arial-ItalicMT-6d" transform="translate(144.53125 0)"/>
     <use xlink:href="#Arial-ItalicMT-61" transform="translate(227.832031 0)"/>
     <use xlink:href="#Arial-ItalicMT-6c" transform="translate(283.447266 0)"/>
     <use xlink:href="#Arial-ItalicMT-20" transform="translate(305.664062 0)"/>
     <use xlink:href="#Arial-ItalicMT-63" transform="translate(333.447266 0)"/>
     <use xlink:href="#Arial-ItalicMT-6f" transform="translate(383.447266 0)"/>
     <use xlink:href="#Arial-ItalicMT-6c" transform="translate(439.0625 0)"/>
     <use xlink:href="#Arial-ItalicMT-73" transform="translate(461.279297 0)"/>
    </g>
   </g>
   <g id="text_9">
    <!-- Zero quantization error on critical dimensions -->
    <g style="fill: #1b5299" transform="translate(134.583344 41.745609) scale(0.07 -0.07)">
     <defs>
      <path id="Arial-ItalicMT-5a" d="M 156 0 
L 216 459 
L 2509 3200 
L 2984 3775 
Q 3128 3950 3263 4097 
Q 2972 4063 2856 4063 
L 2706 4066 
L 2525 4063 
L 2347 4059 
L 806 4059 
L 916 4581 
L 4075 4581 
L 4022 4103 
L 1563 1181 
Q 1109 641 988 503 
Q 1125 522 1166 522 
L 3663 522 
L 3553 0 
L 156 0 
z
" transform="scale(0.015625)"/>
      <path id="Arial-ItalicMT-71" d="M 2356 375 
Q 1872 -75 1428 -75 
Q 966 -75 647 276 
Q 328 628 328 1275 
Q 328 1894 570 2394 
Q 813 2894 1189 3144 
Q 1566 3394 1966 3394 
Q 2269 3394 2517 3223 
Q 2766 3053 2919 2709 
L 3047 3319 
L 3534 3319 
L 2578 -1272 
L 2013 -1272 
L 2356 375 
z
M 888 1350 
Q 888 859 1091 623 
Q 1294 388 1597 388 
Q 1853 388 2114 600 
Q 2375 813 2542 1238 
Q 2709 1663 2709 2059 
Q 2709 2466 2500 2697 
Q 2291 2928 1988 2928 
Q 1691 2928 1469 2734 
Q 1178 2484 1013 2013 
Q 888 1650 888 1350 
z
" transform="scale(0.015625)"/>
      <path id="Arial-ItalicMT-7a" d="M 125 0 
L 216 438 
L 2000 2447 
Q 2191 2659 2425 2888 
Q 2022 2847 1847 2847 
L 613 2847 
L 713 3319 
L 3278 3319 
L 3203 2963 
L 1403 941 
Q 1250 769 947 469 
Q 1419 497 1594 497 
L 2900 497 
L 2797 0 
L 125 0 
z
" transform="scale(0.015625)"/>
      <path id="Arial-ItalicMT-64" d="M 2450 481 
Q 1966 -75 1438 -75 
Q 966 -75 652 273 
Q 338 622 338 1284 
Q 338 1891 586 2392 
Q 834 2894 1207 3144 
Q 1581 3394 1956 3394 
Q 2575 3394 2891 2797 
L 3266 4581 
L 3828 4581 
L 2872 0 
L 2350 0 
L 2450 481 
z
M 900 1391 
Q 900 1044 969 844 
Q 1038 644 1203 511 
Q 1369 378 1600 378 
Q 1984 378 2297 778 
Q 2716 1309 2716 2091 
Q 2716 2484 2509 2706 
Q 2303 2928 1991 2928 
Q 1788 2928 1620 2837 
Q 1453 2747 1289 2530 
Q 1125 2313 1012 1978 
Q 900 1644 900 1391 
z
" transform="scale(0.015625)"/>
     </defs>
     <use xlink:href="#Arial-ItalicMT-5a"/>
     <use xlink:href="#Arial-ItalicMT-65" transform="translate(61.083984 0)"/>
     <use xlink:href="#Arial-ItalicMT-72" transform="translate(116.699219 0)"/>
     <use xlink:href="#Arial-ItalicMT-6f" transform="translate(150 0)"/>
     <use xlink:href="#Arial-ItalicMT-20" transform="translate(205.615234 0)"/>
     <use xlink:href="#Arial-ItalicMT-71" transform="translate(233.398438 0)"/>
     <use xlink:href="#Arial-ItalicMT-75" transform="translate(289.013672 0)"/>
     <use xlink:href="#Arial-ItalicMT-61" transform="translate(344.628906 0)"/>
     <use xlink:href="#Arial-ItalicMT-6e" transform="translate(400.244141 0)"/>
     <use xlink:href="#Arial-ItalicMT-74" transform="translate(455.859375 0)"/>
     <use xlink:href="#Arial-ItalicMT-69" transform="translate(483.642578 0)"/>
     <use xlink:href="#Arial-ItalicMT-7a" transform="translate(505.859375 0)"/>
     <use xlink:href="#Arial-ItalicMT-61" transform="translate(555.859375 0)"/>
     <use xlink:href="#Arial-ItalicMT-74" transform="translate(611.474609 0)"/>
     <use xlink:href="#Arial-ItalicMT-69" transform="translate(639.257812 0)"/>
     <use xlink:href="#Arial-ItalicMT-6f" transform="translate(661.474609 0)"/>
     <use xlink:href="#Arial-ItalicMT-6e" transform="translate(717.089844 0)"/>
     <use xlink:href="#Arial-ItalicMT-20" transform="translate(772.705078 0)"/>
     <use xlink:href="#Arial-ItalicMT-65" transform="translate(800.488281 0)"/>
     <use xlink:href="#Arial-ItalicMT-72" transform="translate(856.103516 0)"/>
     <use xlink:href="#Arial-ItalicMT-72" transform="translate(889.404297 0)"/>
     <use xlink:href="#Arial-ItalicMT-6f" transform="translate(922.705078 0)"/>
     <use xlink:href="#Arial-ItalicMT-72" transform="translate(978.320312 0)"/>
     <use xlink:href="#Arial-ItalicMT-20" transform="translate(1011.621094 0)"/>
     <use xlink:href="#Arial-ItalicMT-6f" transform="translate(1039.404297 0)"/>
     <use xlink:href="#Arial-ItalicMT-6e" transform="translate(1095.019531 0)"/>
     <use xlink:href="#Arial-ItalicMT-20" transform="translate(1150.634766 0)"/>
     <use xlink:href="#Arial-ItalicMT-63" transform="translate(1178.417969 0)"/>
     <use xlink:href="#Arial-ItalicMT-72" transform="translate(1228.417969 0)"/>
     <use xlink:href="#Arial-ItalicMT-69" transform="translate(1261.71875 0)"/>
     <use xlink:href="#Arial-ItalicMT-74" transform="translate(1283.935547 0)"/>
     <use xlink:href="#Arial-ItalicMT-69" transform="translate(1311.71875 0)"/>
     <use xlink:href="#Arial-ItalicMT-63" transform="translate(1333.935547 0)"/>
     <use xlink:href="#Arial-ItalicMT-61" transform="translate(1383.935547 0)"/>
     <use xlink:href="#Arial-ItalicMT-6c" transform="translate(1439.550781 0)"/>
     <use xlink:href="#Arial-ItalicMT-20" transform="translate(1461.767578 0)"/>
     <use xlink:href="#Arial-ItalicMT-64" transform="translate(1489.550781 0)"/>
     <use xlink:href="#Arial-ItalicMT-69" transform="translate(1545.166016 0)"/>
     <use xlink:href="#Arial-ItalicMT-6d" transform="translate(1567.382812 0)"/>
     <use xlink:href="#Arial-ItalicMT-65" transform="translate(1650.683594 0)"/>
     <use xlink:href="#Arial-ItalicMT-6e" transform="translate(1706.298828 0)"/>
     <use xlink:href="#Arial-ItalicMT-73" transform="translate(1761.914062 0)"/>
     <use xlink:href="#Arial-ItalicMT-69" transform="translate(1811.914062 0)"/>
     <use xlink:href="#Arial-ItalicMT-6f" transform="translate(1834.130859 0)"/>
     <use xlink:href="#Arial-ItalicMT-6e" transform="translate(1889.746094 0)"/>
     <use xlink:href="#Arial-ItalicMT-73" transform="translate(1945.361328 0)"/>
    </g>
   </g>
   <g id="text_10">
    <!-- Per-channel weights × per-token activations -->
    <g style="fill: #1b5299" transform="translate(136.547172 207.01866) scale(0.07 -0.07)">
     <defs>
      <path id="Arial-ItalicMT-50" d="M 275 0 
L 1234 4581 
L 3147 4581 
Q 3644 4581 3892 4467 
Q 4141 4353 4303 4076 
Q 4466 3800 4466 3456 
Q 4466 3172 4350 2878 
Q 4234 2584 4057 2393 
Q 3881 2203 3700 2106 
Q 3519 2009 3313 1963 
Q 2872 1859 2422 1859 
L 1275 1859 
L 888 0 
L 275 0 
z
M 1384 2378 
L 2394 2378 
Q 2981 2378 3256 2504 
Q 3531 2631 3697 2890 
Q 3863 3150 3863 3441 
Q 3863 3666 3775 3808 
Q 3688 3950 3528 4017 
Q 3369 4084 2916 4084 
L 1741 4084 
L 1384 2378 
z
" transform="scale(0.015625)"/>
      <path id="Arial-ItalicMT-2d" d="M 297 1375 
L 416 1941 
L 2141 1941 
L 2025 1375 
L 297 1375 
z
" transform="scale(0.015625)"/>
      <path id="Arial-ItalicMT-68" d="M 213 0 
L 1169 4581 
L 1734 4581 
L 1369 2822 
Q 1684 3128 1956 3261 
Q 2228 3394 2516 3394 
Q 2928 3394 3156 3176 
Q 3384 2959 3384 2603 
Q 3384 2428 3284 1959 
L 2875 0 
L 2309 0 
L 2731 2009 
Q 2822 2447 2822 2559 
Q 2822 2722 2709 2825 
Q 2597 2928 2384 2928 
Q 2078 2928 1800 2767 
Q 1522 2606 1364 2326 
Q 1206 2047 1075 1425 
L 778 0 
L 213 0 
z
" transform="scale(0.015625)"/>
      <path id="Arial-ItalicMT-77" d="M 844 0 
L 497 3319 
L 1041 3319 
L 1191 1828 
L 1250 991 
Q 1256 897 1269 613 
Q 1363 931 1428 1101 
Q 1494 1272 1638 1588 
L 2428 3319 
L 3044 3319 
L 3153 1659 
Q 3178 1281 3184 650 
Q 3341 1069 3694 1813 
L 4406 3319 
L 4972 3319 
L 3350 0 
L 2763 0 
L 2638 1947 
Q 2625 2128 2619 2653 
Q 2491 2319 2316 1931 
L 1438 0 
L 844 0 
z
" transform="scale(0.015625)"/>
      <path id="Arial-ItalicMT-67" d="M 181 -300 
L 753 -353 
Q 747 -547 800 -644 
Q 853 -741 969 -794 
Q 1122 -863 1366 -863 
Q 1878 -863 2103 -597 
Q 2250 -419 2375 178 
L 2431 447 
Q 1991 0 1494 0 
Q 991 0 652 370 
Q 313 741 313 1419 
Q 313 1978 580 2447 
Q 847 2916 1215 3155 
Q 1584 3394 1975 3394 
Q 2628 3394 2981 2775 
L 3094 3319 
L 3613 3319 
L 2944 116 
Q 2834 -413 2656 -708 
Q 2478 -1003 2161 -1165 
Q 1844 -1328 1428 -1328 
Q 1028 -1328 739 -1225 
Q 450 -1122 308 -923 
Q 166 -725 166 -469 
Q 166 -391 181 -300 
z
M 888 1469 
Q 888 1128 953 956 
Q 1047 716 1220 589 
Q 1394 463 1606 463 
Q 1884 463 2159 658 
Q 2434 853 2604 1262 
Q 2775 1672 2775 2044 
Q 2775 2453 2548 2695 
Q 2322 2938 1988 2938 
Q 1781 2938 1587 2827 
Q 1394 2716 1226 2489 
Q 1059 2263 973 1947 
Q 888 1631 888 1469 
z
" transform="scale(0.015625)"/>
      <path id="Arial-ItalicMT-d7" d="M 816 1278 
L 1800 2263 
L 819 3244 
L 1200 3625 
L 2181 2644 
L 3159 3622 
L 3534 3244 
L 2559 2266 
L 3541 1284 
L 3159 903 
L 2178 1884 
L 1194 900 
L 816 1278 
z
" transform="scale(0.015625)"/>
      <path id="Arial-ItalicMT-70" d="M -66 -1272 
L 894 3319 
L 1416 3319 
L 1319 2856 
Q 1609 3159 1839 3276 
Q 2069 3394 2325 3394 
Q 2800 3394 3112 3048 
Q 3425 2703 3425 2059 
Q 3425 1541 3253 1114 
Q 3081 688 2831 428 
Q 2581 169 2325 47 
Q 2069 -75 1800 -75 
Q 1203 -75 875 531 
L 500 -1272 
L -66 -1272 
z
M 1053 1356 
Q 1053 984 1106 841 
Q 1184 638 1362 513 
Q 1541 388 1775 388 
Q 2263 388 2563 936 
Q 2863 1484 2863 2056 
Q 2863 2478 2661 2708 
Q 2459 2938 2159 2938 
Q 1944 2938 1759 2823 
Q 1575 2709 1417 2482 
Q 1259 2256 1156 1928 
Q 1053 1600 1053 1356 
z
" transform="scale(0.015625)"/>
      <path id="Arial-ItalicMT-6b" d="M 219 0 
L 1178 4581 
L 1741 4581 
L 1147 1741 
L 2797 3319 
L 3544 3319 
L 2128 2081 
L 2984 0 
L 2366 0 
L 1703 1703 
L 1016 1109 
L 784 0 
L 219 0 
z
" transform="scale(0.015625)"/>
      <path id="Arial-ItalicMT-76" d="M 1050 0 
L 506 3319 
L 1056 3319 
L 1341 1491 
Q 1388 1191 1456 513 
Q 1619 866 1872 1322 
L 2981 3319 
L 3578 3319 
L 1678 0 
L 1050 0 
z
" transform="scale(0.015625)"/>
     </defs>
     <use xlink:href="#Arial-ItalicMT-50"/>
     <use xlink:href="#Arial-ItalicMT-65" transform="translate(66.699219 0)"/>
     <use xlink:href="#Arial-ItalicMT-72" transform="translate(122.314453 0)"/>
     <use xlink:href="#Arial-ItalicMT-2d" transform="translate(153.865234 0)"/>
     <use xlink:href="#Arial-ItalicMT-63" transform="translate(187.166016 0)"/>
     <use xlink:href="#Arial-ItalicMT-68" transform="translate(237.166016 0)"/>
     <use xlink:href="#Arial-ItalicMT-61" transform="translate(292.78125 0)"/>
     <use xlink:href="#Arial-ItalicMT-6e" transform="translate(348.396484 0)"/>
     <use xlink:href="#Arial-ItalicMT-6e" transform="translate(404.011719 0)"/>
     <use xlink:href="#Arial-ItalicMT-65" transform="translate(459.626953 0)"/>
     <use xlink:href="#Arial-ItalicMT-6c" transform="translate(515.242188 0)"/>
     <use xlink:href="#Arial-ItalicMT-20" transform="translate(537.458984 0)"/>
     <use xlink:href="#Arial-ItalicMT-77" transform="translate(565.242188 0)"/>
     <use xlink:href="#Arial-ItalicMT-65" transform="translate(637.458984 0)"/>
     <use xlink:href="#Arial-ItalicMT-69" transform="translate(693.074219 0)"/>
     <use xlink:href="#Arial-ItalicMT-67" transform="translate(715.291016 0)"/>
     <use xlink:href="#Arial-ItalicMT-68" transform="translate(770.90625 0)"/>
     <use xlink:href="#Arial-ItalicMT-74" transform="translate(826.521484 0)"/>
     <use xlink:href="#Arial-ItalicMT-73" transform="translate(854.304688 0)"/>
     <use xlink:href="#Arial-ItalicMT-20" transform="translate(904.304688 0)"/>
     <use xlink:href="#Arial-ItalicMT-d7" transform="translate(932.087891 0)"/>
     <use xlink:href="#Arial-ItalicMT-20" transform="translate(990.486328 0)"/>
     <use xlink:href="#Arial-ItalicMT-70" transform="translate(1018.269531 0)"/>
     <use xlink:href="#Arial-ItalicMT-65" transform="translate(1073.884766 0)"/>
     <use xlink:href="#Arial-ItalicMT-72" transform="translate(1129.5 0)"/>
     <use xlink:href="#Arial-ItalicMT-2d" transform="translate(1161.050781 0)"/>
     <use xlink:href="#Arial-ItalicMT-74" transform="translate(1194.351562 0)"/>
     <use xlink:href="#Arial-ItalicMT-6f" transform="translate(1222.134766 0)"/>
     <use xlink:href="#Arial-ItalicMT-6b" transform="translate(1277.75 0)"/>
     <use xlink:href="#Arial-ItalicMT-65" transform="translate(1327.75 0)"/>
     <use xlink:href="#Arial-ItalicMT-6e" transform="translate(1383.365234 0)"/>
     <use xlink:href="#Arial-ItalicMT-20" transform="translate(1438.980469 0)"/>
     <use xlink:href="#Arial-ItalicMT-61" transform="translate(1466.763672 0)"/>
     <use xlink:href="#Arial-ItalicMT-63" transform="translate(1522.378906 0)"/>
     <use xlink:href="#Arial-ItalicMT-74" transform="translate(1572.378906 0)"/>
     <use xlink:href="#Arial-ItalicMT-69" transform="translate(1600.162109 0)"/>
     <use xlink:href="#Arial-ItalicMT-76" transform="translate(1622.378906 0)"/>
     <use xlink:href="#Arial-ItalicMT-61" transform="translate(1672.378906 0)"/>
     <use xlink:href="#Arial-ItalicMT-74" transform="translate(1727.994141 0)"/>
     <use xlink:href="#Arial-ItalicMT-69" transform="translate(1755.777344 0)"/>
     <use xlink:href="#Arial-ItalicMT-6f" transform="translate(1777.994141 0)"/>
     <use xlink:href="#Arial-ItalicMT-6e" transform="translate(1833.609375 0)"/>
     <use xlink:href="#Arial-ItalicMT-73" transform="translate(1889.224609 0)"/>
    </g>
    <!-- 3 orders of magnitude less error than per-tensor -->
    <g style="fill: #1b5299" transform="translate(130.168422 214.331309) scale(0.07 -0.07)">
     <defs>
      <path id="Arial-ItalicMT-33" d="M 350 1200 
L 900 1269 
Q 963 788 1177 580 
Q 1391 372 1738 372 
Q 2156 372 2461 672 
Q 2766 972 2766 1359 
Q 2766 1697 2537 1917 
Q 2309 2138 1925 2138 
Q 1881 2138 1744 2125 
L 1841 2597 
Q 1922 2584 1997 2584 
Q 2481 2584 2742 2820 
Q 3003 3056 3003 3400 
Q 3003 3716 2789 3931 
Q 2575 4147 2266 4147 
Q 1963 4147 1720 3926 
Q 1478 3706 1409 3303 
L 853 3416 
Q 991 3981 1381 4290 
Q 1772 4600 2306 4600 
Q 2869 4600 3217 4259 
Q 3566 3919 3566 3422 
Q 3566 3059 3377 2789 
Q 3188 2519 2809 2341 
Q 3078 2181 3211 1956 
Q 3344 1731 3344 1441 
Q 3344 825 2883 373 
Q 2422 -78 1781 -78 
Q 1159 -78 776 270 
Q 394 619 350 1200 
z
" transform="scale(0.015625)"/>
      <path id="Arial-ItalicMT-66" d="M 291 0 
L 894 2881 
L 388 2881 
L 478 3319 
L 984 3319 
L 1081 3791 
Q 1156 4144 1236 4300 
Q 1316 4456 1495 4557 
Q 1675 4659 1984 4659 
Q 2200 4659 2609 4569 
L 2506 4075 
Q 2219 4150 2025 4150 
Q 1859 4150 1773 4067 
Q 1688 3984 1625 3675 
L 1550 3319 
L 2181 3319 
L 2091 2881 
L 1459 2881 
L 856 0 
L 291 0 
z
" transform="scale(0.015625)"/>
     </defs>
     <use xlink:href="#Arial-ItalicMT-33"/>
     <use xlink:href="#Arial-ItalicMT-20" transform="translate(55.615234 0)"/>
     <use xlink:href="#Arial-ItalicMT-6f" transform="translate(83.398438 0)"/>
     <use xlink:href="#Arial-ItalicMT-72" transform="translate(139.013672 0)"/>
     <use xlink:href="#Arial-ItalicMT-64" transform="translate(172.314453 0)"/>
     <use xlink:href="#Arial-ItalicMT-65" transform="translate(227.929688 0)"/>
     <use xlink:href="#Arial-ItalicMT-72" transform="translate(283.544922 0)"/>
     <use xlink:href="#Arial-ItalicMT-73" transform="translate(316.845703 0)"/>
     <use xlink:href="#Arial-ItalicMT-20" transform="translate(366.845703 0)"/>
     <use xlink:href="#Arial-ItalicMT-6f" transform="translate(394.628906 0)"/>
     <use xlink:href="#Arial-ItalicMT-66" transform="translate(450.244141 0)"/>
     <use xlink:href="#Arial-ItalicMT-20" transform="translate(478.027344 0)"/>
     <use xlink:href="#Arial-ItalicMT-6d" transform="translate(505.810547 0)"/>
     <use xlink:href="#Arial-ItalicMT-61" transform="translate(589.111328 0)"/>
     <use xlink:href="#Arial-ItalicMT-67" transform="translate(644.726562 0)"/>
     <use xlink:href="#Arial-ItalicMT-6e" transform="translate(700.341797 0)"/>
     <use xlink:href="#Arial-ItalicMT-69" transform="translate(755.957031 0)"/>
     <use xlink:href="#Arial-ItalicMT-74" transform="translate(778.173828 0)"/>
     <use xlink:href="#Arial-ItalicMT-75" transform="translate(805.957031 0)"/>
     <use xlink:href="#Arial-ItalicMT-64" transform="translate(861.572266 0)"/>
     <use xlink:href="#Arial-ItalicMT-65" transform="translate(917.1875 0)"/>
     <use xlink:href="#Arial-ItalicMT-20" transform="translate(972.802734 0)"/>
     <use xlink:href="#Arial-ItalicMT-6c" transform="translate(1000.585938 0)"/>
     <use xlink:href="#Arial-ItalicMT-65" transform="translate(1022.802734 0)"/>
     <use xlink:href="#Arial-ItalicMT-73" transform="translate(1078.417969 0)"/>
     <use xlink:href="#Arial-ItalicMT-73" transform="translate(1128.417969 0)"/>
     <use xlink:href="#Arial-ItalicMT-20" transform="translate(1178.417969 0)"/>
     <use xlink:href="#Arial-ItalicMT-65" transform="translate(1206.201172 0)"/>
     <use xlink:href="#Arial-ItalicMT-72" transform="translate(1261.816406 0)"/>
     <use xlink:href="#Arial-ItalicMT-72" transform="translate(1295.117188 0)"/>
     <use xlink:href="#Arial-ItalicMT-6f" transform="translate(1328.417969 0)"/>
     <use xlink:href="#Arial-ItalicMT-72" transform="translate(1384.033203 0)"/>
     <use xlink:href="#Arial-ItalicMT-20" transform="translate(1417.333984 0)"/>
     <use xlink:href="#Arial-ItalicMT-74" transform="translate(1445.117188 0)"/>
     <use xlink:href="#Arial-ItalicMT-68" transform="translate(1472.900391 0)"/>
     <use xlink:href="#Arial-ItalicMT-61" transform="translate(1528.515625 0)"/>
     <use xlink:href="#Arial-ItalicMT-6e" transform="translate(1584.130859 0)"/>
     <use xlink:href="#Arial-ItalicMT-20" transform="translate(1639.746094 0)"/>
     <use xlink:href="#Arial-ItalicMT-70" transform="translate(1667.529297 0)"/>
     <use xlink:href="#Arial-ItalicMT-65" transform="translate(1723.144531 0)"/>
     <use xlink:href="#Arial-ItalicMT-72" transform="translate(1778.759766 0)"/>
     <use xlink:href="#Arial-ItalicMT-2d" transform="translate(1810.310547 0)"/>
     <use xlink:href="#Arial-ItalicMT-74" transform="translate(1843.611328 0)"/>
     <use xlink:href="#Arial-ItalicMT-65" transform="translate(1871.394531 0)"/>
     <use xlink:href="#Arial-ItalicMT-6e" transform="translate(1927.009766 0)"/>
     <use xlink:href="#Arial-ItalicMT-73" transform="translate(1982.625 0)"/>
     <use xlink:href="#Arial-ItalicMT-6f" transform="translate(2032.625 0)"/>
     <use xlink:href="#Arial-ItalicMT-72" transform="translate(2088.240234 0)"/>
    </g>
   </g>
  </g>
  <g id="text_11">
   <!-- LLM.int8() Mixed-Precision Decomposition Flow -->
   <g style="fill: #28253d" transform="translate(93.408359 16.131703) scale(0.095 -0.095)">
    <defs>
     <path id="Arial-BoldMT-4c" d="M 491 0 
L 491 4544 
L 1416 4544 
L 1416 772 
L 3716 772 
L 3716 0 
L 491 0 
z
" transform="scale(0.015625)"/>
     <path id="Arial-BoldMT-6e" d="M 3478 0 
L 2600 0 
L 2600 1694 
Q 2600 2231 2544 2389 
Q 2488 2547 2361 2634 
Q 2234 2722 2056 2722 
Q 1828 2722 1647 2597 
Q 1466 2472 1398 2265 
Q 1331 2059 1331 1503 
L 1331 0 
L 453 0 
L 453 3319 
L 1269 3319 
L 1269 2831 
Q 1703 3394 2363 3394 
Q 2653 3394 2893 3289 
Q 3134 3184 3257 3021 
Q 3381 2859 3429 2653 
Q 3478 2447 3478 2063 
L 3478 0 
z
" transform="scale(0.015625)"/>
     <path id="Arial-BoldMT-78" d="M 38 0 
L 1234 1709 
L 88 3319 
L 1159 3319 
L 1747 2406 
L 2366 3319 
L 3397 3319 
L 2272 1747 
L 3500 0 
L 2422 0 
L 1747 1028 
L 1066 0 
L 38 0 
z
" transform="scale(0.015625)"/>
     <path id="Arial-BoldMT-65" d="M 2381 1056 
L 3256 909 
Q 3088 428 2723 176 
Q 2359 -75 1813 -75 
Q 947 -75 531 491 
Q 203 944 203 1634 
Q 203 2459 634 2926 
Q 1066 3394 1725 3394 
Q 2466 3394 2894 2905 
Q 3322 2416 3303 1406 
L 1103 1406 
Q 1113 1016 1316 798 
Q 1519 581 1822 581 
Q 2028 581 2168 693 
Q 2309 806 2381 1056 
z
M 2431 1944 
Q 2422 2325 2234 2523 
Q 2047 2722 1778 2722 
Q 1491 2722 1303 2513 
Q 1116 2303 1119 1944 
L 2431 1944 
z
" transform="scale(0.015625)"/>
     <path id="Arial-BoldMT-2d" d="M 359 1222 
L 359 2100 
L 2084 2100 
L 2084 1222 
L 359 1222 
z
" transform="scale(0.015625)"/>
     <path id="Arial-BoldMT-72" d="M 1300 0 
L 422 0 
L 422 3319 
L 1238 3319 
L 1238 2847 
Q 1447 3181 1614 3287 
Q 1781 3394 1994 3394 
Q 2294 3394 2572 3228 
L 2300 2463 
Q 2078 2606 1888 2606 
Q 1703 2606 1575 2504 
Q 1447 2403 1373 2137 
Q 1300 1872 1300 1025 
L 1300 0 
z
" transform="scale(0.015625)"/>
     <path id="Arial-BoldMT-63" d="M 3353 2338 
L 2488 2181 
Q 2444 2441 2289 2572 
Q 2134 2703 1888 2703 
Q 1559 2703 1364 2476 
Q 1169 2250 1169 1719 
Q 1169 1128 1367 884 
Q 1566 641 1900 641 
Q 2150 641 2309 783 
Q 2469 925 2534 1272 
L 3397 1125 
Q 3263 531 2881 228 
Q 2500 -75 1859 -75 
Q 1131 -75 698 384 
Q 266 844 266 1656 
Q 266 2478 700 2936 
Q 1134 3394 1875 3394 
Q 2481 3394 2839 3133 
Q 3197 2872 3353 2338 
z
" transform="scale(0.015625)"/>
     <path id="Arial-BoldMT-6f" d="M 256 1706 
Q 256 2144 472 2553 
Q 688 2963 1083 3178 
Q 1478 3394 1966 3394 
Q 2719 3394 3200 2905 
Q 3681 2416 3681 1669 
Q 3681 916 3195 420 
Q 2709 -75 1972 -75 
Q 1516 -75 1102 131 
Q 688 338 472 736 
Q 256 1134 256 1706 
z
M 1156 1659 
Q 1156 1166 1390 903 
Q 1625 641 1969 641 
Q 2313 641 2545 903 
Q 2778 1166 2778 1666 
Q 2778 2153 2545 2415 
Q 2313 2678 1969 2678 
Q 1625 2678 1390 2415 
Q 1156 2153 1156 1659 
z
" transform="scale(0.015625)"/>
     <path id="Arial-BoldMT-44" d="M 463 4581 
L 2153 4581 
Q 2725 4581 3025 4494 
Q 3428 4375 3715 4072 
Q 4003 3769 4153 3330 
Q 4303 2891 4303 2247 
Q 4303 1681 4163 1272 
Q 3991 772 3672 463 
Q 3431 228 3022 97 
Q 2716 0 2203 0 
L 463 0 
L 463 4581 
z
M 1388 3806 
L 1388 772 
L 2078 772 
Q 2466 772 2638 816 
Q 2863 872 3011 1006 
Q 3159 1141 3253 1448 
Q 3347 1756 3347 2288 
Q 3347 2819 3253 3103 
Q 3159 3388 2990 3547 
Q 2822 3706 2563 3763 
Q 2369 3806 1803 3806 
L 1388 3806 
z
" transform="scale(0.015625)"/>
     <path id="Arial-BoldMT-70" d="M 434 3319 
L 1253 3319 
L 1253 2831 
Q 1413 3081 1684 3237 
Q 1956 3394 2288 3394 
Q 2866 3394 3269 2941 
Q 3672 2488 3672 1678 
Q 3672 847 3265 386 
Q 2859 -75 2281 -75 
Q 2006 -75 1782 34 
Q 1559 144 1313 409 
L 1313 -1263 
L 434 -1263 
L 434 3319 
z
M 1303 1716 
Q 1303 1156 1525 889 
Q 1747 622 2066 622 
Q 2372 622 2575 867 
Q 2778 1113 2778 1672 
Q 2778 2194 2568 2447 
Q 2359 2700 2050 2700 
Q 1728 2700 1515 2451 
Q 1303 2203 1303 1716 
z
" transform="scale(0.015625)"/>
     <path id="Arial-BoldMT-77" d="M 1078 0 
L 28 3319 
L 881 3319 
L 1503 1144 
L 2075 3319 
L 2922 3319 
L 3475 1144 
L 4109 3319 
L 4975 3319 
L 3909 0 
L 3066 0 
L 2494 2134 
L 1931 0 
L 1078 0 
z
" transform="scale(0.015625)"/>
    </defs>
    <use xlink:href="#Arial-BoldMT-4c"/>
    <use xlink:href="#Arial-BoldMT-4c" transform="translate(61.083984 0)"/>
    <use xlink:href="#Arial-BoldMT-4d" transform="translate(122.167969 0)"/>
    <use xlink:href="#Arial-BoldMT-2e" transform="translate(205.46875 0)"/>
    <use xlink:href="#Arial-BoldMT-69" transform="translate(233.251953 0)"/>
    <use xlink:href="#Arial-BoldMT-6e" transform="translate(261.035156 0)"/>
    <use xlink:href="#Arial-BoldMT-74" transform="translate(322.119141 0)"/>
    <use xlink:href="#Arial-BoldMT-38" transform="translate(355.419922 0)"/>
    <use xlink:href="#Arial-BoldMT-28" transform="translate(411.035156 0)"/>
    <use xlink:href="#Arial-BoldMT-29" transform="translate(444.335938 0)"/>
    <use xlink:href="#Arial-BoldMT-20" transform="translate(477.636719 0)"/>
    <use xlink:href="#Arial-BoldMT-4d" transform="translate(505.419922 0)"/>
    <use xlink:href="#Arial-BoldMT-69" transform="translate(588.720703 0)"/>
    <use xlink:href="#Arial-BoldMT-78" transform="translate(616.503906 0)"/>
    <use xlink:href="#Arial-BoldMT-65" transform="translate(672.119141 0)"/>
    <use xlink:href="#Arial-BoldMT-64" transform="translate(727.734375 0)"/>
    <use xlink:href="#Arial-BoldMT-2d" transform="translate(788.818359 0)"/>
    <use xlink:href="#Arial-BoldMT-50" transform="translate(822.119141 0)"/>
    <use xlink:href="#Arial-BoldMT-72" transform="translate(888.818359 0)"/>
    <use xlink:href="#Arial-BoldMT-65" transform="translate(927.734375 0)"/>
    <use xlink:href="#Arial-BoldMT-63" transform="translate(983.349609 0)"/>
    <use xlink:href="#Arial-BoldMT-69" transform="translate(1038.964844 0)"/>
    <use xlink:href="#Arial-BoldMT-73" transform="translate(1066.748047 0)"/>
    <use xlink:href="#Arial-BoldMT-69" transform="translate(1122.363281 0)"/>
    <use xlink:href="#Arial-BoldMT-6f" transform="translate(1150.146484 0)"/>
    <use xlink:href="#Arial-BoldMT-6e" transform="translate(1211.230469 0)"/>
    <use xlink:href="#Arial-BoldMT-20" transform="translate(1272.314453 0)"/>
    <use xlink:href="#Arial-BoldMT-44" transform="translate(1300.097656 0)"/>
    <use xlink:href="#Arial-BoldMT-65" transform="translate(1372.314453 0)"/>
    <use xlink:href="#Arial-BoldMT-63" transform="translate(1427.929688 0)"/>
    <use xlink:href="#Arial-BoldMT-6f" transform="translate(1483.544922 0)"/>
    <use xlink:href="#Arial-BoldMT-6d" transform="translate(1544.628906 0)"/>
    <use xlink:href="#Arial-BoldMT-70" transform="translate(1633.544922 0)"/>
    <use xlink:href="#Arial-BoldMT-6f" transform="translate(1694.628906 0)"/>
    <use xlink:href="#Arial-BoldMT-73" transform="translate(1755.712891 0)"/>
    <use xlink:href="#Arial-BoldMT-69" transform="translate(1811.328125 0)"/>
    <use xlink:href="#Arial-BoldMT-74" transform="translate(1839.111328 0)"/>
    <use xlink:href="#Arial-BoldMT-69" transform="translate(1872.412109 0)"/>
    <use xlink:href="#Arial-BoldMT-6f" transform="translate(1900.195312 0)"/>
    <use xlink:href="#Arial-BoldMT-6e" transform="translate(1961.279297 0)"/>
    <use xlink:href="#Arial-BoldMT-20" transform="translate(2022.363281 0)"/>
    <use xlink:href="#Arial-BoldMT-46" transform="translate(2050.146484 0)"/>
    <use xlink:href="#Arial-BoldMT-6c" transform="translate(2111.230469 0)"/>
    <use xlink:href="#Arial-BoldMT-6f" transform="translate(2139.013672 0)"/>
    <use xlink:href="#Arial-BoldMT-77" transform="translate(2200.097656 0)"/>
   </g>
  </g>
 </g>
 <defs>
  <clipPath id="pa3c2ecff5f">
   <rect x="24.192" y="23.04" width="354.816" height="202.752"/>
  </clipPath>
 </defs>
</svg>
